M48
;L6-L5 LASER BLIND MICROVIAS ONLY - NOT THROUGH DRILL
;UNMIRRORED PCB XY; MM WITH EXPLICIT DECIMAL POINTS
METRIC
T01C0.100
%
G90
G05
T01
X3.610000Y35.456050
X3.610000Y35.856050
X3.610000Y36.256049
X3.610000Y36.656048
X3.610000Y37.056047
X3.751450Y37.430202
X4.030960Y37.716338
X4.197088Y38.080208
X2.590000Y35.565781
X2.590000Y35.965780
X2.590000Y36.365779
X2.590000Y36.765779
X2.590000Y37.165778
X2.612456Y37.565147
X2.799123Y37.918921
X3.081238Y38.202489
X4.153538Y26.630000
X4.553537Y26.630000
X4.953536Y26.630000
X5.353535Y26.630000
X5.745937Y26.707587
X6.054242Y26.962435
X6.203000Y27.333745
X4.237431Y27.650003
X4.637430Y27.650003
X5.037430Y27.650006
X4.237634Y48.329997
X4.637634Y48.329997
X5.037633Y48.329997
X5.437632Y48.329995
X5.837631Y48.329995
X6.237630Y48.329995
X6.637630Y48.329995
X7.037629Y48.329992
X7.437628Y48.329992
X7.837627Y48.329992
X4.431784Y49.349998
X4.831784Y49.349998
X5.231783Y49.349998
X5.631782Y49.349998
X6.031781Y49.349998
X6.431780Y49.349998
X6.831780Y49.349998
X7.231779Y49.349998
X7.631778Y49.349998
X8.031777Y49.349998
X8.430377Y49.316546
X8.773894Y49.111616
X15.068220Y49.349998
X14.668221Y49.349998
X14.268221Y49.349998
X13.868222Y49.349998
X13.468223Y49.349998
X13.068224Y49.349998
X12.668225Y49.349998
X12.268225Y49.349998
X11.868226Y49.349998
X11.468227Y49.349998
X11.069627Y49.316546
X10.726110Y49.111616
X14.862371Y48.329997
X14.462371Y48.329997
X14.062372Y48.329995
X13.662373Y48.329995
X13.262374Y48.329995
X12.862375Y48.329995
X12.462375Y48.329992
X12.062376Y48.329992
X11.662377Y48.329992
X16.909999Y35.465779
X16.909999Y35.865778
X16.909999Y36.265777
X16.909999Y36.665776
X16.909999Y37.065776
X16.909999Y37.465775
X16.909999Y37.865774
X16.887543Y38.265143
X16.700876Y38.618917
X16.418763Y38.902488
X15.889999Y35.356051
X15.889999Y35.756050
X15.889999Y36.156049
X15.889999Y36.556048
X15.889999Y36.956047
X15.889999Y37.356047
X15.889999Y37.756046
X15.748551Y38.130201
X15.469042Y38.416337
X15.302913Y38.780207
X14.862569Y27.650003
X14.462569Y27.650006
X14.946462Y26.630000
X14.546463Y26.630000
X14.146464Y26.630000
X13.754062Y26.707587
X13.445757Y26.962435
X13.296999Y27.333745
X4.874003Y40.939999
X5.274003Y40.939999
X5.674002Y40.939999
X6.074001Y40.939999
X3.362602Y41.649823
X3.679505Y41.893896
X4.074005Y41.959997
X4.474004Y41.959997
X4.874003Y41.959997
X5.274003Y41.959997
X5.674002Y41.959997
X6.074001Y41.959997
X6.210000Y30.982161
X6.434480Y31.313232
X6.717322Y31.596073
X7.000164Y31.878915
X7.283005Y32.161757
X7.565847Y32.444599
X7.848689Y32.727443
X8.131533Y33.010284
X8.414375Y33.293129
X8.697219Y33.575970
X8.980061Y33.858815
X9.262905Y34.141656
X9.545747Y34.424501
X9.828588Y34.707342
X10.111430Y34.990184
X10.393868Y35.273430
X10.585051Y35.624783
X10.609999Y36.024005
X10.609999Y36.424004
X10.609999Y36.824003
X10.609999Y37.224002
X10.609999Y37.624001
X10.609999Y38.024001
X10.609999Y38.424000
X10.609999Y38.823999
X5.190000Y30.981134
X5.216248Y31.380273
X5.409689Y31.730386
X5.692257Y32.013505
X5.975099Y32.296349
X6.257943Y32.579191
X6.540784Y32.862035
X6.823626Y33.144877
X7.106468Y33.427718
X7.389310Y33.710562
X7.672154Y33.993404
X7.954996Y34.276248
X8.237840Y34.559090
X8.520681Y34.841934
X8.803523Y35.124776
X9.086365Y35.407620
X9.369209Y35.690462
X9.590001Y36.024005
X9.590001Y36.424004
X9.590001Y36.824003
X9.590001Y37.224002
X9.590001Y37.624001
X9.590001Y38.024001
X9.590001Y38.424000
X9.590001Y38.823999
X8.626000Y45.304748
X10.874002Y45.304748
X16.137400Y42.349819
X15.820497Y42.593895
X15.425997Y42.659999
X15.025997Y42.659999
X14.625998Y42.659999
X14.225999Y42.659999
X13.826000Y42.659999
X13.426001Y42.659999
X14.625998Y41.640001
X14.225999Y41.640001
X13.826000Y41.640001
X13.426001Y41.640001
X14.309999Y31.143085
X14.226344Y31.534240
X13.975464Y31.845783
X13.692622Y32.128628
X13.409780Y32.411469
X13.126938Y32.694314
X12.844097Y32.977158
X12.710000Y33.354010
X12.710000Y33.754009
X12.710000Y34.154008
X12.710000Y34.554008
X12.710000Y34.954007
X12.710000Y35.354006
X12.710000Y35.754005
X12.710000Y36.154004
X12.710000Y36.554004
X12.710000Y36.954003
X12.710000Y37.354002
X12.710000Y37.754001
X12.710000Y38.154000
X12.710000Y38.554000
X12.710000Y38.953999
X13.289999Y31.031754
X13.037094Y31.341657
X12.754252Y31.624501
X12.471408Y31.907343
X12.188566Y32.190187
X11.906128Y32.473433
X11.714947Y32.824788
X11.690002Y33.224010
X11.690002Y33.624009
X11.690002Y34.024009
X11.690002Y34.424008
X11.690002Y34.824007
X11.690002Y35.224006
X11.690002Y35.624005
X11.690002Y36.024005
X11.690002Y36.424004
X11.690002Y36.824003
X11.690002Y37.224002
X11.690002Y37.624001
X11.690002Y38.024001
X11.690002Y38.424000
X11.690002Y38.823999
X4.054930Y34.328392
X3.966411Y33.938309
X3.725896Y33.618696
X3.375579Y33.425625
X2.976913Y33.392966
X2.599842Y33.526446
X2.310516Y33.802653
X2.159691Y34.173130
X2.173829Y34.572877
X2.350447Y34.931774
X3.775286Y35.015287
X3.725896Y26.418695
X3.375579Y26.225624
X2.976913Y26.192965
X2.599842Y26.326445
X2.310516Y26.602652
X2.159691Y26.973129
X2.173829Y27.372876
X2.350447Y27.731773
X2.658562Y27.986850
X3.044119Y28.093363
X3.439483Y28.032624
X3.775286Y27.815286
X3.725896Y48.118695
X3.375579Y47.925624
X2.976913Y47.892965
X2.599842Y48.026444
X2.310516Y48.302652
X2.159691Y48.673128
X2.173829Y49.072876
X2.350447Y49.431773
X2.658562Y49.686850
X3.044119Y49.793362
X3.439483Y49.732623
X3.775286Y49.515286
X17.354931Y48.828391
X17.266412Y48.438308
X17.025897Y48.118695
X16.675580Y47.925624
X16.276914Y47.892965
X15.899844Y48.026444
X15.610517Y48.302652
X15.650449Y49.431773
X15.958563Y49.686850
X16.344120Y49.793362
X16.739484Y49.732623
X17.075287Y49.515286
X17.354931Y34.328392
X17.266412Y33.938309
X17.025897Y33.618696
X16.675580Y33.425625
X16.276914Y33.392966
X15.899844Y33.526446
X15.610517Y33.802653
X15.459692Y34.173130
X15.473830Y34.572877
X15.650449Y34.931774
X17.075287Y35.015287
X17.354931Y27.128391
X17.266412Y26.738308
X17.025897Y26.418695
X16.675580Y26.225624
X16.276914Y26.192965
X15.899844Y26.326445
X15.610517Y26.602652
X15.650449Y27.731773
X15.958563Y27.986850
X16.344120Y28.093363
X16.739484Y28.032624
X17.075287Y27.815286
M30
