G04*
G04 #@! TF.GenerationSoftware,Altium Limited,Altium Designer,26.10.1 (5)*
G04*
G04 Layer_Color=8388736*
G04 Board_Origin=0|0*
%FSLAX44Y44*%
%MOMM*%
G71*
G04*
G04 #@! TF.SameCoordinates,B6448522-6BDF-49B7-94C1-0DDA889AABCC*
G04*
G04*
G04 #@! TF.FilePolarity,Negative*
G04*
G01*
G75*
%ADD14R,0.3500X1.0000*%
%ADD15R,0.3000X0.5000*%
%ADD16R,0.3000X0.6700*%
%ADD17C,1.7000*%
%ADD18C,1.1000*%
%ADD19C,3.1000*%
%ADD20C,5.1000*%
G36*
X-500Y-500D02*
X195500D01*
Y679500D01*
X-500D01*
Y-500D01*
D02*
G37*
%LPC*%
G36*
X8000Y86500D02*
X187000D01*
Y25000D01*
X8000D01*
Y86500D01*
D02*
G37*
G36*
X43700Y250700D02*
X18300D01*
X18067Y250704D01*
X17748Y250719D01*
X17357Y250756D01*
X17090Y250792D01*
X16703Y250861D01*
X16392Y250931D01*
X16131Y251000D01*
X15756Y251115D01*
X15455Y251223D01*
X15092Y251372D01*
X14846Y251484D01*
X14561Y251628D01*
X14325Y251758D01*
X14051Y251922D01*
X13724Y252138D01*
X13505Y252296D01*
X13197Y252539D01*
X12900Y252797D01*
X12669Y253017D01*
X12397Y253300D01*
X12218Y253503D01*
X12016Y253749D01*
X11781Y254064D01*
X11561Y254389D01*
X11419Y254619D01*
X11228Y254961D01*
X11084Y255246D01*
X10972Y255492D01*
X10849Y255787D01*
X10755Y256040D01*
X10634Y256413D01*
X10531Y256792D01*
X10461Y257103D01*
X10392Y257490D01*
X10342Y257879D01*
X10312Y258271D01*
X10300Y258700D01*
X10300Y284137D01*
X10308Y284456D01*
X10325Y284725D01*
X10356Y285043D01*
X10392Y285310D01*
X10447Y285625D01*
X10503Y285889D01*
X10580Y286198D01*
X10655Y286457D01*
X10755Y286760D01*
X10849Y287013D01*
X10923Y287195D01*
X11053Y287487D01*
X11171Y287730D01*
X11262Y287903D01*
X11419Y288181D01*
X11561Y288411D01*
X11738Y288676D01*
X11896Y288895D01*
X12093Y289146D01*
X12218Y289297D01*
X12397Y289500D01*
X12617Y289731D01*
X12757Y289868D01*
X12955Y290052D01*
X13197Y290261D01*
X13349Y290384D01*
X13564Y290547D01*
X13825Y290731D01*
X14051Y290878D01*
X14325Y291042D01*
X14561Y291173D01*
X14736Y291262D01*
X15024Y291399D01*
X15205Y291477D01*
X15455Y291577D01*
X15756Y291684D01*
X15942Y291745D01*
X16202Y291820D01*
X16511Y291897D01*
X16775Y291953D01*
X17163Y292019D01*
X17479Y292058D01*
X17871Y292088D01*
X18263Y292100D01*
X40200Y292100D01*
Y322700D01*
X18300D01*
X17871Y322712D01*
X17479Y322742D01*
X17090Y322792D01*
X16703Y322861D01*
X16321Y322949D01*
X15942Y323055D01*
X15570Y323180D01*
X15205Y323323D01*
X14846Y323484D01*
X14496Y323662D01*
X14156Y323857D01*
X13825Y324069D01*
X13505Y324296D01*
X13197Y324539D01*
X12900Y324797D01*
X12617Y325069D01*
X12348Y325355D01*
X12139Y325597D01*
X11971Y325807D01*
X11738Y326124D01*
X11561Y326389D01*
X11419Y326619D01*
X11262Y326897D01*
X11084Y327246D01*
X10972Y327492D01*
X10849Y327787D01*
X10755Y328040D01*
X10655Y328343D01*
X10549Y328721D01*
X10487Y328983D01*
X10424Y329296D01*
X10381Y329563D01*
X10342Y329879D01*
X10312Y330271D01*
X10300Y330700D01*
X10300Y356137D01*
X10312Y356529D01*
X10335Y356847D01*
X10356Y357043D01*
X10392Y357310D01*
X10424Y357504D01*
X10461Y357697D01*
X10531Y358008D01*
X10600Y358269D01*
X10692Y358574D01*
X10780Y358830D01*
X10895Y359127D01*
X11001Y359375D01*
X11138Y359664D01*
X11262Y359903D01*
X11419Y360181D01*
X11522Y360349D01*
X11669Y360575D01*
X11853Y360836D01*
X12016Y361051D01*
X12218Y361297D01*
X12397Y361500D01*
X12617Y361731D01*
X12810Y361919D01*
X13047Y362133D01*
X13253Y362307D01*
X13505Y362504D01*
X13724Y362662D01*
X13989Y362839D01*
X14219Y362981D01*
X14496Y363138D01*
X14736Y363262D01*
X15024Y363399D01*
X15273Y363505D01*
X15570Y363620D01*
X15826Y363708D01*
X16131Y363800D01*
X16392Y363869D01*
X16703Y363939D01*
X16969Y363988D01*
X17357Y364044D01*
X17675Y364075D01*
X17944Y364092D01*
X18300Y364100D01*
X43700D01*
X44129Y364088D01*
X44325Y364075D01*
X44643Y364044D01*
X44910Y364008D01*
X45104Y363976D01*
X45297Y363939D01*
X45608Y363869D01*
X45869Y363800D01*
X46244Y363685D01*
X46545Y363577D01*
X46795Y363477D01*
X47087Y363348D01*
X47330Y363229D01*
X47675Y363042D01*
X47949Y362878D01*
X48175Y362731D01*
X48436Y362547D01*
X48651Y362384D01*
X48897Y362182D01*
X49190Y361919D01*
X49383Y361731D01*
X49603Y361500D01*
X49781Y361297D01*
X49984Y361051D01*
X50147Y360836D01*
X50331Y360575D01*
X50543Y360244D01*
X50679Y360011D01*
X50829Y359730D01*
X50999Y359375D01*
X51105Y359127D01*
X51220Y358830D01*
X51345Y358457D01*
X51420Y358198D01*
X51497Y357889D01*
X51553Y357625D01*
X51608Y357310D01*
X51658Y356921D01*
X51681Y356652D01*
X51696Y356333D01*
X51700Y356100D01*
Y330700D01*
X51688Y330271D01*
X51658Y329879D01*
X51619Y329563D01*
X51588Y329369D01*
X51514Y328983D01*
X51469Y328792D01*
X51400Y328531D01*
X51284Y328156D01*
X51177Y327855D01*
X51105Y327673D01*
X50947Y327313D01*
X50773Y326961D01*
X50679Y326789D01*
X50543Y326556D01*
X50331Y326225D01*
X50147Y325964D01*
X50029Y325807D01*
X49861Y325597D01*
X49734Y325447D01*
X49468Y325157D01*
X49190Y324881D01*
X48953Y324666D01*
X48804Y324539D01*
X48651Y324416D01*
X48436Y324253D01*
X48276Y324138D01*
X48071Y324000D01*
X86200D01*
Y277138D01*
X51700D01*
Y258700D01*
X51696Y258467D01*
X51681Y258148D01*
X51658Y257879D01*
X51635Y257684D01*
X51576Y257296D01*
X51497Y256911D01*
X51400Y256531D01*
X51308Y256226D01*
X51177Y255855D01*
X51028Y255492D01*
X50862Y255136D01*
X50679Y254789D01*
X50478Y254451D01*
X50262Y254124D01*
X50029Y253807D01*
X49781Y253503D01*
X49519Y253211D01*
X49243Y252931D01*
X48953Y252666D01*
X48651Y252416D01*
X48436Y252253D01*
X48175Y252069D01*
X47949Y251922D01*
X47675Y251758D01*
X47439Y251628D01*
X47154Y251484D01*
X46908Y251372D01*
X46545Y251223D01*
X46244Y251115D01*
X45869Y251000D01*
X45608Y250931D01*
X45297Y250861D01*
X45031Y250812D01*
X44716Y250765D01*
X44447Y250735D01*
X44129Y250712D01*
X43700Y250700D01*
D02*
G37*
G36*
X5500Y374638D02*
Y421500D01*
X51500D01*
Y374638D01*
X5500D01*
D02*
G37*
G36*
X43700Y467700D02*
X18300D01*
X18067Y467704D01*
X17675Y467725D01*
X17357Y467756D01*
X17090Y467792D01*
X16703Y467861D01*
X16321Y467949D01*
X16013Y468034D01*
X15756Y468116D01*
X15387Y468250D01*
X15024Y468401D01*
X14736Y468538D01*
X14496Y468662D01*
X14156Y468857D01*
X13886Y469028D01*
X13564Y469253D01*
X13253Y469493D01*
X13047Y469666D01*
X12810Y469881D01*
X12531Y470157D01*
X12348Y470355D01*
X12093Y470653D01*
X11896Y470905D01*
X11669Y471225D01*
X11457Y471556D01*
X11321Y471789D01*
X11138Y472136D01*
X11001Y472425D01*
X10849Y472787D01*
X10716Y473156D01*
X10634Y473413D01*
X10531Y473792D01*
X10447Y474175D01*
X10392Y474490D01*
X10356Y474757D01*
X10325Y475075D01*
X10308Y475344D01*
X10300Y475700D01*
Y501100D01*
X10312Y501529D01*
X10335Y501847D01*
X10365Y502116D01*
X10412Y502431D01*
X10461Y502697D01*
X10549Y503079D01*
X10634Y503387D01*
X10716Y503644D01*
X10823Y503945D01*
X10923Y504195D01*
X11053Y504487D01*
X11171Y504730D01*
X11321Y505011D01*
X11457Y505244D01*
X11628Y505514D01*
X11781Y505736D01*
X11971Y505993D01*
X12093Y506147D01*
X12266Y506353D01*
X12531Y506643D01*
X12810Y506919D01*
X13047Y507133D01*
X13197Y507261D01*
X13505Y507504D01*
X13664Y507619D01*
X13886Y507772D01*
X14219Y507980D01*
X14561Y508172D01*
X14913Y508347D01*
X15092Y508428D01*
X15387Y508550D01*
X15756Y508685D01*
X16013Y508766D01*
X16202Y508820D01*
X16511Y508897D01*
X16703Y508939D01*
X17090Y509008D01*
X17479Y509058D01*
X17675Y509075D01*
X17944Y509092D01*
X18300Y509100D01*
X43700D01*
X44129Y509088D01*
X44447Y509065D01*
X44716Y509035D01*
X45031Y508988D01*
X45297Y508939D01*
X45608Y508869D01*
X45869Y508800D01*
X46174Y508708D01*
X46545Y508577D01*
X46795Y508477D01*
X47087Y508347D01*
X47330Y508229D01*
X47611Y508079D01*
X47844Y507943D01*
X48114Y507772D01*
X48336Y507619D01*
X48593Y507429D01*
X48897Y507182D01*
X49100Y507003D01*
X49243Y506868D01*
X49383Y506731D01*
X49603Y506500D01*
X49861Y506203D01*
X50104Y505895D01*
X50262Y505676D01*
X50372Y505514D01*
X50581Y505181D01*
X50738Y504903D01*
X50829Y504730D01*
X50999Y504375D01*
X51077Y504195D01*
X51177Y503945D01*
X51284Y503644D01*
X51345Y503457D01*
X51451Y503079D01*
X51539Y502697D01*
X51608Y502310D01*
X51658Y501921D01*
X51681Y501652D01*
X51692Y501456D01*
X51700Y501100D01*
Y475700D01*
X51688Y475271D01*
X51665Y474953D01*
X51635Y474684D01*
X51588Y474369D01*
X51539Y474103D01*
X51469Y473792D01*
X51366Y473413D01*
X51284Y473156D01*
X51177Y472855D01*
X51077Y472605D01*
X50947Y472313D01*
X50829Y472070D01*
X50679Y471789D01*
X50543Y471556D01*
X50372Y471286D01*
X50219Y471063D01*
X50029Y470807D01*
X49781Y470503D01*
X49519Y470210D01*
X49243Y469931D01*
X49100Y469797D01*
X48897Y469618D01*
X48593Y469371D01*
X48276Y469138D01*
X47949Y468922D01*
X47611Y468721D01*
X47264Y468538D01*
X46908Y468372D01*
X46545Y468223D01*
X46244Y468116D01*
X46057Y468055D01*
X45679Y467949D01*
X45297Y467861D01*
X44910Y467792D01*
X44643Y467756D01*
X44447Y467735D01*
X44056Y467708D01*
X43700Y467700D01*
D02*
G37*
G36*
X141500Y516862D02*
Y470000D01*
X53500Y470000D01*
Y516862D01*
X141500D01*
D02*
G37*
G36*
X43700Y542700D02*
X18300D01*
X18067Y542704D01*
X17675Y542725D01*
X17357Y542756D01*
X16969Y542812D01*
X16703Y542861D01*
X16321Y542949D01*
X16013Y543034D01*
X15756Y543116D01*
X15387Y543250D01*
X15024Y543401D01*
X14736Y543538D01*
X14496Y543662D01*
X14156Y543857D01*
X13886Y544028D01*
X13564Y544253D01*
X13253Y544493D01*
X13047Y544666D01*
X12810Y544881D01*
X12531Y545157D01*
X12348Y545355D01*
X12093Y545653D01*
X11896Y545905D01*
X11669Y546225D01*
X11457Y546556D01*
X11321Y546789D01*
X11138Y547136D01*
X11001Y547425D01*
X10849Y547787D01*
X10716Y548156D01*
X10634Y548413D01*
X10531Y548792D01*
X10447Y549175D01*
X10392Y549490D01*
X10356Y549757D01*
X10325Y550075D01*
X10308Y550344D01*
X10300Y550700D01*
Y576100D01*
X10312Y576529D01*
X10335Y576847D01*
X10365Y577116D01*
X10412Y577431D01*
X10461Y577697D01*
X10549Y578079D01*
X10634Y578387D01*
X10716Y578644D01*
X10823Y578945D01*
X10923Y579195D01*
X11053Y579487D01*
X11171Y579730D01*
X11321Y580011D01*
X11457Y580244D01*
X11628Y580514D01*
X11781Y580736D01*
X11971Y580993D01*
X12093Y581147D01*
X12266Y581353D01*
X12531Y581643D01*
X12810Y581919D01*
X13047Y582133D01*
X13197Y582261D01*
X13505Y582504D01*
X13664Y582619D01*
X13886Y582772D01*
X14219Y582980D01*
X14561Y583172D01*
X14913Y583347D01*
X15092Y583428D01*
X15387Y583550D01*
X15756Y583685D01*
X16013Y583766D01*
X16202Y583820D01*
X16511Y583897D01*
X16703Y583939D01*
X17090Y584008D01*
X17479Y584058D01*
X17675Y584075D01*
X17944Y584092D01*
X18300Y584100D01*
X43700D01*
X44129Y584088D01*
X44447Y584065D01*
X44716Y584035D01*
X45031Y583988D01*
X45297Y583939D01*
X45608Y583869D01*
X45869Y583800D01*
X46174Y583708D01*
X46545Y583577D01*
X46795Y583477D01*
X47087Y583347D01*
X47330Y583229D01*
X47611Y583079D01*
X47844Y582943D01*
X48114Y582772D01*
X48336Y582619D01*
X48593Y582429D01*
X48897Y582182D01*
X49100Y582003D01*
X49243Y581868D01*
X49383Y581731D01*
X49603Y581500D01*
X49861Y581203D01*
X50104Y580895D01*
X50262Y580676D01*
X50372Y580514D01*
X50581Y580181D01*
X50738Y579903D01*
X50829Y579730D01*
X50999Y579375D01*
X51077Y579195D01*
X51177Y578945D01*
X51284Y578644D01*
X51345Y578457D01*
X51451Y578079D01*
X51539Y577697D01*
X51608Y577310D01*
X51658Y576921D01*
X51681Y576652D01*
X51692Y576456D01*
X51700Y576100D01*
Y550700D01*
X51688Y550271D01*
X51665Y549953D01*
X51635Y549684D01*
X51588Y549369D01*
X51539Y549103D01*
X51469Y548792D01*
X51366Y548413D01*
X51284Y548156D01*
X51177Y547855D01*
X51077Y547605D01*
X50947Y547313D01*
X50829Y547070D01*
X50679Y546789D01*
X50543Y546556D01*
X50372Y546286D01*
X50219Y546064D01*
X50029Y545807D01*
X49781Y545503D01*
X49519Y545210D01*
X49243Y544931D01*
X49100Y544797D01*
X48897Y544618D01*
X48593Y544371D01*
X48276Y544138D01*
X47949Y543922D01*
X47611Y543721D01*
X47264Y543538D01*
X46908Y543372D01*
X46545Y543223D01*
X46244Y543116D01*
X46057Y543055D01*
X45869Y543000D01*
X45608Y542931D01*
X45225Y542847D01*
X44837Y542781D01*
X44447Y542735D01*
X44056Y542708D01*
X43700Y542700D01*
D02*
G37*
G36*
X176700Y250700D02*
X151300D01*
X151067Y250704D01*
X150748Y250719D01*
X150357Y250756D01*
X150090Y250792D01*
X149775Y250847D01*
X149511Y250903D01*
X149202Y250980D01*
X148943Y251055D01*
X148640Y251155D01*
X148387Y251250D01*
X148092Y251372D01*
X147736Y251538D01*
X147497Y251662D01*
X147219Y251819D01*
X146886Y252028D01*
X146664Y252181D01*
X146407Y252371D01*
X146196Y252539D01*
X145900Y252797D01*
X145669Y253017D01*
X145481Y253211D01*
X145267Y253447D01*
X145093Y253653D01*
X144896Y253905D01*
X144738Y254124D01*
X144561Y254389D01*
X144419Y254619D01*
X144228Y254961D01*
X144084Y255246D01*
X143972Y255492D01*
X143849Y255787D01*
X143756Y256040D01*
X143634Y256413D01*
X143549Y256721D01*
X143486Y256983D01*
X143447Y257175D01*
X143392Y257490D01*
X143365Y257684D01*
X143335Y257952D01*
X143312Y258271D01*
X143302Y258540D01*
X143300Y277138D01*
X106350D01*
Y324000D01*
X146929D01*
X146724Y324138D01*
X146564Y324253D01*
X146349Y324416D01*
X146196Y324539D01*
X146047Y324666D01*
X145810Y324881D01*
X145617Y325069D01*
X145481Y325210D01*
X145348Y325355D01*
X145139Y325597D01*
X144896Y325905D01*
X144738Y326124D01*
X144628Y326286D01*
X144457Y326556D01*
X144358Y326725D01*
X144228Y326961D01*
X144138Y327136D01*
X144052Y327313D01*
X143923Y327605D01*
X143849Y327787D01*
X143756Y328040D01*
X143634Y328413D01*
X143531Y328792D01*
X143461Y329103D01*
X143424Y329296D01*
X143392Y329490D01*
X143356Y329757D01*
X143335Y329953D01*
X143312Y330271D01*
X143300Y330700D01*
Y356100D01*
X143312Y356529D01*
X143335Y356847D01*
X143365Y357116D01*
X143412Y357431D01*
X143461Y357697D01*
X143531Y358008D01*
X143600Y358269D01*
X143692Y358574D01*
X143823Y358945D01*
X143923Y359195D01*
X144052Y359487D01*
X144171Y359730D01*
X144358Y360075D01*
X144522Y360349D01*
X144669Y360575D01*
X144853Y360836D01*
X145016Y361051D01*
X145267Y361353D01*
X145532Y361643D01*
X145810Y361919D01*
X146047Y362133D01*
X146196Y362261D01*
X146505Y362504D01*
X146825Y362731D01*
X147051Y362878D01*
X147219Y362981D01*
X147561Y363172D01*
X147913Y363348D01*
X148092Y363428D01*
X148387Y363550D01*
X148756Y363685D01*
X149131Y363800D01*
X149511Y363897D01*
X149896Y363976D01*
X150284Y364035D01*
X150675Y364075D01*
X150944Y364092D01*
X151300Y364100D01*
X176737Y364100D01*
X177056Y364092D01*
X177252Y364081D01*
X177643Y364044D01*
X177910Y364008D01*
X178104Y363976D01*
X178297Y363939D01*
X178608Y363869D01*
X178869Y363800D01*
X179174Y363708D01*
X179430Y363620D01*
X179727Y363505D01*
X179975Y363399D01*
X180264Y363262D01*
X180504Y363138D01*
X180781Y362981D01*
X181011Y362839D01*
X181276Y362662D01*
X181495Y362504D01*
X181747Y362307D01*
X181953Y362133D01*
X182190Y361919D01*
X182383Y361731D01*
X182603Y361500D01*
X182782Y361297D01*
X182984Y361051D01*
X183147Y360836D01*
X183331Y360575D01*
X183478Y360349D01*
X183642Y360075D01*
X183773Y359839D01*
X183916Y359554D01*
X184028Y359308D01*
X184151Y359013D01*
X184244Y358760D01*
X184345Y358457D01*
X184420Y358198D01*
X184497Y357889D01*
X184553Y357625D01*
X184608Y357310D01*
X184644Y357043D01*
X184675Y356725D01*
X184692Y356456D01*
X184700Y356100D01*
X184698Y330541D01*
X184681Y330148D01*
X184658Y329879D01*
X184619Y329563D01*
X184553Y329175D01*
X184469Y328792D01*
X184400Y328531D01*
X184308Y328226D01*
X184220Y327970D01*
X184105Y327673D01*
X184028Y327492D01*
X183948Y327313D01*
X183829Y327070D01*
X183738Y326897D01*
X183581Y326619D01*
X183439Y326389D01*
X183262Y326124D01*
X183104Y325905D01*
X182984Y325749D01*
X182782Y325503D01*
X182603Y325300D01*
X182383Y325069D01*
X182190Y324881D01*
X181953Y324666D01*
X181803Y324539D01*
X181593Y324371D01*
X181336Y324181D01*
X181175Y324069D01*
X180949Y323922D01*
X180675Y323758D01*
X180504Y323662D01*
X180330Y323571D01*
X180087Y323452D01*
X179795Y323323D01*
X179545Y323223D01*
X179244Y323116D01*
X179058Y323055D01*
X178798Y322980D01*
X178489Y322903D01*
X178297Y322861D01*
X178031Y322812D01*
X177643Y322756D01*
X177325Y322725D01*
X177056Y322708D01*
X176700Y322700D01*
X152350D01*
Y292100D01*
X176700D01*
X177056Y292092D01*
X177325Y292075D01*
X177716Y292035D01*
X178031Y291988D01*
X178417Y291914D01*
X178798Y291820D01*
X179174Y291707D01*
X179545Y291577D01*
X179908Y291428D01*
X180264Y291262D01*
X180504Y291138D01*
X180844Y290943D01*
X181175Y290731D01*
X181495Y290504D01*
X181803Y290261D01*
X182100Y290003D01*
X182383Y289731D01*
X182603Y289500D01*
X182861Y289203D01*
X183029Y288993D01*
X183262Y288676D01*
X183439Y288411D01*
X183642Y288075D01*
X183773Y287839D01*
X183948Y287487D01*
X184077Y287195D01*
X184220Y286830D01*
X184308Y286574D01*
X184420Y286198D01*
X184497Y285889D01*
X184576Y285504D01*
X184619Y285237D01*
X184658Y284921D01*
X184688Y284529D01*
X184700Y284100D01*
X184700Y258663D01*
X184697Y258467D01*
X184681Y258148D01*
X184658Y257879D01*
X184635Y257684D01*
X184608Y257490D01*
X184553Y257175D01*
X184469Y256792D01*
X184400Y256531D01*
X184308Y256226D01*
X184220Y255970D01*
X184105Y255673D01*
X183999Y255424D01*
X183862Y255136D01*
X183773Y254961D01*
X183642Y254725D01*
X183478Y254451D01*
X183331Y254225D01*
X183147Y253964D01*
X182984Y253749D01*
X182782Y253503D01*
X182603Y253300D01*
X182383Y253069D01*
X182190Y252881D01*
X181953Y252666D01*
X181747Y252493D01*
X181495Y252296D01*
X181276Y252138D01*
X181114Y252028D01*
X180844Y251857D01*
X180611Y251721D01*
X180330Y251571D01*
X180087Y251453D01*
X179795Y251323D01*
X179545Y251223D01*
X179244Y251115D01*
X178987Y251034D01*
X178680Y250949D01*
X178417Y250886D01*
X178104Y250824D01*
X177716Y250765D01*
X177447Y250735D01*
X177056Y250708D01*
X176700Y250700D01*
D02*
G37*
G36*
X143500Y381638D02*
Y428500D01*
X189500D01*
Y381638D01*
X143500D01*
D02*
G37*
G36*
X60000Y404087D02*
Y454553D01*
X77117Y462500D01*
X117883D01*
X135000Y454553D01*
Y404087D01*
X127014Y387500D01*
X67986D01*
X60000Y404087D01*
D02*
G37*
G36*
X176700Y467700D02*
X151300D01*
X151067Y467704D01*
X150675Y467725D01*
X150357Y467756D01*
X150090Y467792D01*
X149703Y467861D01*
X149320Y467949D01*
X149013Y468034D01*
X148756Y468116D01*
X148387Y468250D01*
X148092Y468372D01*
X147736Y468538D01*
X147497Y468662D01*
X147156Y468857D01*
X146825Y469069D01*
X146564Y469253D01*
X146253Y469493D01*
X146047Y469666D01*
X145757Y469931D01*
X145532Y470157D01*
X145348Y470355D01*
X145093Y470653D01*
X144896Y470905D01*
X144669Y471225D01*
X144457Y471556D01*
X144321Y471789D01*
X144138Y472136D01*
X144001Y472425D01*
X143849Y472787D01*
X143715Y473156D01*
X143600Y473531D01*
X143531Y473792D01*
X143461Y474103D01*
X143392Y474490D01*
X143356Y474757D01*
X143325Y475075D01*
X143308Y475344D01*
X143300Y475700D01*
Y501100D01*
X143312Y501529D01*
X143335Y501847D01*
X143365Y502116D01*
X143412Y502431D01*
X143461Y502697D01*
X143531Y503008D01*
X143600Y503269D01*
X143692Y503574D01*
X143823Y503945D01*
X143923Y504195D01*
X144052Y504487D01*
X144171Y504730D01*
X144321Y505011D01*
X144457Y505244D01*
X144628Y505514D01*
X144781Y505736D01*
X144971Y505993D01*
X145218Y506297D01*
X145397Y506500D01*
X145532Y506643D01*
X145810Y506919D01*
X146047Y507133D01*
X146196Y507261D01*
X146505Y507504D01*
X146825Y507731D01*
X147051Y507878D01*
X147219Y507980D01*
X147561Y508172D01*
X147913Y508347D01*
X148092Y508428D01*
X148387Y508550D01*
X148570Y508620D01*
X148826Y508708D01*
X149202Y508820D01*
X149511Y508897D01*
X149703Y508939D01*
X150090Y509008D01*
X150479Y509058D01*
X150675Y509075D01*
X150944Y509092D01*
X151300Y509100D01*
X176700D01*
X177129Y509088D01*
X177447Y509065D01*
X177716Y509035D01*
X178031Y508988D01*
X178297Y508939D01*
X178608Y508869D01*
X178869Y508800D01*
X179174Y508708D01*
X179545Y508577D01*
X179795Y508477D01*
X180087Y508347D01*
X180330Y508229D01*
X180611Y508079D01*
X180844Y507943D01*
X181114Y507772D01*
X181336Y507619D01*
X181593Y507429D01*
X181897Y507182D01*
X182100Y507003D01*
X182243Y506868D01*
X182519Y506590D01*
X182652Y506445D01*
X182861Y506203D01*
X183104Y505895D01*
X183331Y505575D01*
X183478Y505349D01*
X183581Y505181D01*
X183773Y504839D01*
X183862Y504664D01*
X183999Y504375D01*
X184151Y504013D01*
X184284Y503644D01*
X184366Y503387D01*
X184420Y503198D01*
X184469Y503008D01*
X184539Y502697D01*
X184608Y502310D01*
X184658Y501921D01*
X184675Y501725D01*
X184692Y501456D01*
X184700Y501100D01*
Y475700D01*
X184688Y475271D01*
X184665Y474953D01*
X184635Y474684D01*
X184588Y474369D01*
X184539Y474103D01*
X184469Y473792D01*
X184400Y473531D01*
X184284Y473156D01*
X184177Y472855D01*
X184077Y472605D01*
X183948Y472313D01*
X183829Y472070D01*
X183679Y471789D01*
X183543Y471556D01*
X183372Y471286D01*
X183219Y471063D01*
X183029Y470807D01*
X182782Y470503D01*
X182603Y470300D01*
X182468Y470157D01*
X182190Y469881D01*
X181897Y469618D01*
X181593Y469371D01*
X181276Y469138D01*
X180949Y468922D01*
X180675Y468758D01*
X180504Y468662D01*
X180154Y468484D01*
X179795Y468323D01*
X179430Y468180D01*
X179058Y468055D01*
X178869Y468000D01*
X178608Y467931D01*
X178225Y467847D01*
X177837Y467781D01*
X177447Y467735D01*
X177056Y467708D01*
X176700Y467700D01*
D02*
G37*
G36*
Y542700D02*
X151300D01*
X151067Y542704D01*
X150675Y542725D01*
X150357Y542756D01*
X149969Y542812D01*
X149703Y542861D01*
X149320Y542949D01*
X149013Y543034D01*
X148756Y543116D01*
X148387Y543250D01*
X148092Y543372D01*
X147736Y543538D01*
X147497Y543662D01*
X147156Y543857D01*
X146825Y544069D01*
X146564Y544253D01*
X146253Y544493D01*
X146047Y544666D01*
X145757Y544931D01*
X145532Y545157D01*
X145348Y545355D01*
X145093Y545653D01*
X144896Y545905D01*
X144669Y546225D01*
X144457Y546556D01*
X144321Y546789D01*
X144138Y547136D01*
X144001Y547425D01*
X143849Y547787D01*
X143715Y548156D01*
X143600Y548531D01*
X143531Y548792D01*
X143461Y549103D01*
X143392Y549490D01*
X143356Y549757D01*
X143325Y550075D01*
X143308Y550344D01*
X143300Y550700D01*
Y576100D01*
X143312Y576529D01*
X143335Y576847D01*
X143365Y577116D01*
X143412Y577431D01*
X143461Y577697D01*
X143531Y578008D01*
X143600Y578269D01*
X143692Y578574D01*
X143823Y578945D01*
X143923Y579195D01*
X144052Y579487D01*
X144171Y579730D01*
X144321Y580011D01*
X144457Y580244D01*
X144628Y580514D01*
X144781Y580736D01*
X144971Y580993D01*
X145218Y581297D01*
X145397Y581500D01*
X145532Y581643D01*
X145810Y581919D01*
X146047Y582133D01*
X146196Y582261D01*
X146505Y582504D01*
X146825Y582731D01*
X147051Y582878D01*
X147219Y582980D01*
X147561Y583172D01*
X147913Y583347D01*
X148092Y583428D01*
X148387Y583550D01*
X148570Y583620D01*
X148826Y583708D01*
X149202Y583820D01*
X149511Y583897D01*
X149703Y583939D01*
X150090Y584008D01*
X150479Y584058D01*
X150675Y584075D01*
X150944Y584092D01*
X151300Y584100D01*
X176700D01*
X177129Y584088D01*
X177447Y584065D01*
X177716Y584035D01*
X178031Y583988D01*
X178297Y583939D01*
X178608Y583869D01*
X178869Y583800D01*
X179174Y583708D01*
X179545Y583577D01*
X179795Y583477D01*
X180087Y583347D01*
X180330Y583229D01*
X180611Y583079D01*
X180844Y582943D01*
X181114Y582772D01*
X181336Y582619D01*
X181593Y582429D01*
X181897Y582182D01*
X182100Y582003D01*
X182243Y581868D01*
X182519Y581590D01*
X182652Y581445D01*
X182861Y581203D01*
X183104Y580895D01*
X183331Y580575D01*
X183478Y580349D01*
X183581Y580181D01*
X183773Y579839D01*
X183862Y579664D01*
X183999Y579375D01*
X184151Y579013D01*
X184284Y578644D01*
X184366Y578387D01*
X184420Y578198D01*
X184469Y578008D01*
X184539Y577697D01*
X184608Y577310D01*
X184658Y576921D01*
X184675Y576725D01*
X184692Y576456D01*
X184700Y576100D01*
Y550700D01*
X184688Y550271D01*
X184665Y549953D01*
X184635Y549684D01*
X184588Y549369D01*
X184539Y549103D01*
X184469Y548792D01*
X184400Y548531D01*
X184284Y548156D01*
X184177Y547855D01*
X184077Y547605D01*
X183948Y547313D01*
X183829Y547070D01*
X183679Y546789D01*
X183543Y546556D01*
X183372Y546286D01*
X183219Y546064D01*
X183029Y545807D01*
X182782Y545503D01*
X182603Y545300D01*
X182468Y545157D01*
X182190Y544881D01*
X181897Y544618D01*
X181593Y544371D01*
X181276Y544138D01*
X180949Y543922D01*
X180675Y543758D01*
X180504Y543662D01*
X180154Y543484D01*
X179795Y543323D01*
X179430Y543180D01*
X179058Y543055D01*
X178869Y543000D01*
X178608Y542931D01*
X178225Y542847D01*
X177837Y542781D01*
X177447Y542735D01*
X177056Y542708D01*
X176700Y542700D01*
D02*
G37*
%LPD*%
D14*
X182250Y34000D02*
D03*
X12750D02*
D03*
D15*
X169500Y62000D02*
D03*
X163500D02*
D03*
X157500D02*
D03*
X151500D02*
D03*
X145500D02*
D03*
X139500D02*
D03*
X133500D02*
D03*
X127500D02*
D03*
X121500D02*
D03*
X115500D02*
D03*
X109500D02*
D03*
X103500D02*
D03*
X97500D02*
D03*
X91500D02*
D03*
X85500D02*
D03*
X79500D02*
D03*
X73500D02*
D03*
X67500D02*
D03*
X61500D02*
D03*
X55500D02*
D03*
X49500D02*
D03*
X43500D02*
D03*
X37500D02*
D03*
X31500D02*
D03*
X25500D02*
D03*
D16*
X172500Y31350D02*
D03*
X166500D02*
D03*
X160500D02*
D03*
X154500D02*
D03*
X148500D02*
D03*
X142500D02*
D03*
X136500D02*
D03*
X130500D02*
D03*
X124500D02*
D03*
X118500D02*
D03*
X112500D02*
D03*
X106500D02*
D03*
X100500D02*
D03*
X94500D02*
D03*
X88500D02*
D03*
X82500D02*
D03*
X76500D02*
D03*
X70500D02*
D03*
X64500D02*
D03*
X58500D02*
D03*
X52500D02*
D03*
X46500D02*
D03*
X40500D02*
D03*
X34500D02*
D03*
X28500D02*
D03*
X22500D02*
D03*
D17*
X184500Y12000D02*
D03*
X10500D02*
D03*
D18*
X151300Y284100D02*
D03*
Y258700D02*
D03*
X176700Y284100D02*
D03*
Y258700D02*
D03*
X164000Y271400D02*
D03*
X151300Y356100D02*
D03*
Y330700D02*
D03*
X176700Y356100D02*
D03*
Y330700D02*
D03*
X164000Y343400D02*
D03*
X151300Y501100D02*
D03*
Y475700D02*
D03*
X176700Y501100D02*
D03*
Y475700D02*
D03*
X164000Y488400D02*
D03*
X18300Y501100D02*
D03*
Y475700D02*
D03*
X43700Y501100D02*
D03*
Y475700D02*
D03*
X31000Y488400D02*
D03*
X18300Y576100D02*
D03*
Y550700D02*
D03*
X43700Y576100D02*
D03*
Y550700D02*
D03*
X31000Y563400D02*
D03*
X151300Y576100D02*
D03*
Y550700D02*
D03*
X176700Y576100D02*
D03*
Y550700D02*
D03*
X164000Y563400D02*
D03*
X31000Y271400D02*
D03*
X18300Y284100D02*
D03*
Y258700D02*
D03*
X43700Y284100D02*
D03*
Y258700D02*
D03*
X31000Y343400D02*
D03*
X18300Y356100D02*
D03*
Y330700D02*
D03*
X43700Y356100D02*
D03*
Y330700D02*
D03*
D19*
X24250Y653400D02*
D03*
X170750D02*
D03*
Y131900D02*
D03*
X24250D02*
D03*
D20*
X160750Y180900D02*
D03*
X34250D02*
D03*
M02*
