G04*
G04 #@! TF.GenerationSoftware,Altium Limited,Altium Designer,26.10.1 (5)*
G04*
G04 Layer_Physical_Order=4*
G04 Layer_Color=6736896*
G04 Board_Origin=0|0*
%FSLAX44Y44*%
%MOMM*%
G71*
G04*
G04 #@! TF.SameCoordinates,B6448522-6BDF-49B7-94C1-0DDA889AABCC*
G04*
G04*
G04 #@! TF.FilePolarity,Positive*
G04*
G01*
G75*
%ADD22C,1.6000*%
%ADD23C,1.0000*%
%ADD24C,3.0000*%
%ADD25C,5.0000*%
%ADD26C,0.5000*%
%ADD27C,0.1250*%
G36*
X192500Y2500D02*
X2500D01*
Y676500D01*
X192500D01*
Y2500D01*
D02*
G37*
%LPC*%
G36*
X177970Y583538D02*
Y577370D01*
X184138D01*
X184046Y578068D01*
X183286Y579902D01*
X182078Y581478D01*
X180502Y582686D01*
X178668Y583446D01*
X177970Y583538D01*
D02*
G37*
G36*
X175430D02*
X174732Y583446D01*
X172897Y582686D01*
X171322Y581478D01*
X170114Y579902D01*
X169354Y578068D01*
X169262Y577370D01*
X175430D01*
Y583538D01*
D02*
G37*
G36*
X152570D02*
Y577370D01*
X158738D01*
X158646Y578068D01*
X157886Y579902D01*
X156678Y581478D01*
X155103Y582686D01*
X153268Y583446D01*
X152570Y583538D01*
D02*
G37*
G36*
X150030D02*
X149332Y583446D01*
X147498Y582686D01*
X145922Y581478D01*
X144714Y579902D01*
X143954Y578068D01*
X143862Y577370D01*
X150030D01*
Y583538D01*
D02*
G37*
G36*
X44970D02*
Y577370D01*
X51138D01*
X51046Y578068D01*
X50286Y579902D01*
X49078Y581478D01*
X47502Y582686D01*
X45668Y583446D01*
X44970Y583538D01*
D02*
G37*
G36*
X42430D02*
X41732Y583446D01*
X39897Y582686D01*
X38322Y581478D01*
X37114Y579902D01*
X36354Y578068D01*
X36262Y577370D01*
X42430D01*
Y583538D01*
D02*
G37*
G36*
X19570D02*
Y577370D01*
X25738D01*
X25646Y578068D01*
X24886Y579902D01*
X23678Y581478D01*
X22102Y582686D01*
X20268Y583446D01*
X19570Y583538D01*
D02*
G37*
G36*
X17030D02*
X16332Y583446D01*
X14497Y582686D01*
X12922Y581478D01*
X11714Y579902D01*
X10954Y578068D01*
X10862Y577370D01*
X17030D01*
Y583538D01*
D02*
G37*
G36*
X184138Y574830D02*
X177970D01*
Y568662D01*
X178668Y568754D01*
X180502Y569514D01*
X182078Y570722D01*
X183286Y572298D01*
X184046Y574132D01*
X184138Y574830D01*
D02*
G37*
G36*
X175430D02*
X169262D01*
X169354Y574132D01*
X170114Y572298D01*
X171322Y570722D01*
X172897Y569514D01*
X174732Y568754D01*
X175430Y568662D01*
Y574830D01*
D02*
G37*
G36*
X158738D02*
X152570D01*
Y568662D01*
X153268Y568754D01*
X155103Y569514D01*
X156678Y570722D01*
X157886Y572298D01*
X158646Y574132D01*
X158738Y574830D01*
D02*
G37*
G36*
X150030D02*
X143862D01*
X143954Y574132D01*
X144714Y572298D01*
X145922Y570722D01*
X147498Y569514D01*
X149332Y568754D01*
X150030Y568662D01*
Y574830D01*
D02*
G37*
G36*
X51138D02*
X44970D01*
Y568662D01*
X45668Y568754D01*
X47502Y569514D01*
X49078Y570722D01*
X50286Y572298D01*
X51046Y574132D01*
X51138Y574830D01*
D02*
G37*
G36*
X42430D02*
X36262D01*
X36354Y574132D01*
X37114Y572298D01*
X38322Y570722D01*
X39897Y569514D01*
X41732Y568754D01*
X42430Y568662D01*
Y574830D01*
D02*
G37*
G36*
X25738D02*
X19570D01*
Y568662D01*
X20268Y568754D01*
X22102Y569514D01*
X23678Y570722D01*
X24886Y572298D01*
X25646Y574132D01*
X25738Y574830D01*
D02*
G37*
G36*
X17030D02*
X10862D01*
X10954Y574132D01*
X11714Y572298D01*
X12922Y570722D01*
X14497Y569514D01*
X16332Y568754D01*
X17030Y568662D01*
Y574830D01*
D02*
G37*
G36*
X164000Y570460D02*
X162173Y570220D01*
X160470Y569515D01*
X159008Y568392D01*
X157886Y566930D01*
X157180Y565227D01*
X156940Y563400D01*
X157180Y561573D01*
X157886Y559870D01*
X159008Y558408D01*
X160470Y557285D01*
X162173Y556580D01*
X164000Y556340D01*
X165827Y556580D01*
X167530Y557285D01*
X168992Y558408D01*
X170114Y559870D01*
X170820Y561573D01*
X171060Y563400D01*
X170820Y565227D01*
X170114Y566930D01*
X168992Y568392D01*
X167530Y569515D01*
X165827Y570220D01*
X164000Y570460D01*
D02*
G37*
G36*
X31000D02*
X29173Y570220D01*
X27470Y569515D01*
X26007Y568392D01*
X24885Y566930D01*
X24180Y565227D01*
X23940Y563400D01*
X24180Y561573D01*
X24885Y559870D01*
X26007Y558408D01*
X27470Y557285D01*
X29173Y556580D01*
X31000Y556340D01*
X32827Y556580D01*
X34530Y557285D01*
X35992Y558408D01*
X37115Y559870D01*
X37820Y561573D01*
X38060Y563400D01*
X37820Y565227D01*
X37115Y566930D01*
X35992Y568392D01*
X34530Y569515D01*
X32827Y570220D01*
X31000Y570460D01*
D02*
G37*
G36*
X177970Y558138D02*
Y551970D01*
X184138D01*
X184046Y552668D01*
X183286Y554502D01*
X182078Y556078D01*
X180502Y557286D01*
X178668Y558046D01*
X177970Y558138D01*
D02*
G37*
G36*
X175430D02*
X174732Y558046D01*
X172897Y557286D01*
X171322Y556078D01*
X170114Y554502D01*
X169354Y552668D01*
X169262Y551970D01*
X175430D01*
Y558138D01*
D02*
G37*
G36*
X152570D02*
Y551970D01*
X158738D01*
X158646Y552668D01*
X157886Y554502D01*
X156678Y556078D01*
X155103Y557286D01*
X153268Y558046D01*
X152570Y558138D01*
D02*
G37*
G36*
X150030D02*
X149332Y558046D01*
X147498Y557286D01*
X145922Y556078D01*
X144714Y554502D01*
X143954Y552668D01*
X143862Y551970D01*
X150030D01*
Y558138D01*
D02*
G37*
G36*
X44970D02*
Y551970D01*
X51138D01*
X51046Y552668D01*
X50286Y554502D01*
X49078Y556078D01*
X47502Y557286D01*
X45668Y558046D01*
X44970Y558138D01*
D02*
G37*
G36*
X42430D02*
X41732Y558046D01*
X39897Y557286D01*
X38322Y556078D01*
X37114Y554502D01*
X36354Y552668D01*
X36262Y551970D01*
X42430D01*
Y558138D01*
D02*
G37*
G36*
X19570D02*
Y551970D01*
X25738D01*
X25646Y552668D01*
X24886Y554502D01*
X23678Y556078D01*
X22102Y557286D01*
X20268Y558046D01*
X19570Y558138D01*
D02*
G37*
G36*
X17030D02*
X16332Y558046D01*
X14497Y557286D01*
X12922Y556078D01*
X11714Y554502D01*
X10954Y552668D01*
X10862Y551970D01*
X17030D01*
Y558138D01*
D02*
G37*
G36*
X184138Y549430D02*
X177970D01*
Y543262D01*
X178668Y543354D01*
X180502Y544114D01*
X182078Y545322D01*
X183286Y546898D01*
X184046Y548732D01*
X184138Y549430D01*
D02*
G37*
G36*
X175430D02*
X169262D01*
X169354Y548732D01*
X170114Y546898D01*
X171322Y545322D01*
X172897Y544114D01*
X174732Y543354D01*
X175430Y543262D01*
Y549430D01*
D02*
G37*
G36*
X158738D02*
X152570D01*
Y543262D01*
X153268Y543354D01*
X155103Y544114D01*
X156678Y545322D01*
X157886Y546898D01*
X158646Y548732D01*
X158738Y549430D01*
D02*
G37*
G36*
X150030D02*
X143862D01*
X143954Y548732D01*
X144714Y546898D01*
X145922Y545322D01*
X147498Y544114D01*
X149332Y543354D01*
X150030Y543262D01*
Y549430D01*
D02*
G37*
G36*
X51138D02*
X44970D01*
Y543262D01*
X45668Y543354D01*
X47502Y544114D01*
X49078Y545322D01*
X50286Y546898D01*
X51046Y548732D01*
X51138Y549430D01*
D02*
G37*
G36*
X42430D02*
X36262D01*
X36354Y548732D01*
X37114Y546898D01*
X38322Y545322D01*
X39897Y544114D01*
X41732Y543354D01*
X42430Y543262D01*
Y549430D01*
D02*
G37*
G36*
X25738D02*
X19570D01*
Y543262D01*
X20268Y543354D01*
X22102Y544114D01*
X23678Y545322D01*
X24886Y546898D01*
X25646Y548732D01*
X25738Y549430D01*
D02*
G37*
G36*
X17030D02*
X10862D01*
X10954Y548732D01*
X11714Y546898D01*
X12922Y545322D01*
X14497Y544114D01*
X16332Y543354D01*
X17030Y543262D01*
Y549430D01*
D02*
G37*
G36*
X177970Y508538D02*
Y502370D01*
X184138D01*
X184046Y503068D01*
X183286Y504902D01*
X182078Y506478D01*
X180502Y507686D01*
X178668Y508446D01*
X177970Y508538D01*
D02*
G37*
G36*
X175430D02*
X174732Y508446D01*
X172897Y507686D01*
X171322Y506478D01*
X170114Y504902D01*
X169354Y503068D01*
X169262Y502370D01*
X175430D01*
Y508538D01*
D02*
G37*
G36*
X152570D02*
Y502370D01*
X158738D01*
X158646Y503068D01*
X157886Y504902D01*
X156678Y506478D01*
X155103Y507686D01*
X153268Y508446D01*
X152570Y508538D01*
D02*
G37*
G36*
X150030D02*
X149332Y508446D01*
X147498Y507686D01*
X145922Y506478D01*
X144714Y504902D01*
X143954Y503068D01*
X143862Y502370D01*
X150030D01*
Y508538D01*
D02*
G37*
G36*
X44970D02*
Y502370D01*
X51138D01*
X51046Y503068D01*
X50286Y504902D01*
X49078Y506478D01*
X47502Y507686D01*
X45668Y508446D01*
X44970Y508538D01*
D02*
G37*
G36*
X42430D02*
X41732Y508446D01*
X39897Y507686D01*
X38322Y506478D01*
X37114Y504902D01*
X36354Y503068D01*
X36262Y502370D01*
X42430D01*
Y508538D01*
D02*
G37*
G36*
X19570D02*
Y502370D01*
X25738D01*
X25646Y503068D01*
X24886Y504902D01*
X23678Y506478D01*
X22102Y507686D01*
X20268Y508446D01*
X19570Y508538D01*
D02*
G37*
G36*
X17030D02*
X16332Y508446D01*
X14497Y507686D01*
X12922Y506478D01*
X11714Y504902D01*
X10954Y503068D01*
X10862Y502370D01*
X17030D01*
Y508538D01*
D02*
G37*
G36*
X184138Y499830D02*
X177970D01*
Y493662D01*
X178668Y493754D01*
X180502Y494514D01*
X182078Y495722D01*
X183286Y497298D01*
X184046Y499132D01*
X184138Y499830D01*
D02*
G37*
G36*
X175430D02*
X169262D01*
X169354Y499132D01*
X170114Y497298D01*
X171322Y495722D01*
X172897Y494514D01*
X174732Y493754D01*
X175430Y493662D01*
Y499830D01*
D02*
G37*
G36*
X158738D02*
X152570D01*
Y493662D01*
X153268Y493754D01*
X155103Y494514D01*
X156678Y495722D01*
X157886Y497298D01*
X158646Y499132D01*
X158738Y499830D01*
D02*
G37*
G36*
X150030D02*
X143862D01*
X143954Y499132D01*
X144714Y497298D01*
X145922Y495722D01*
X147498Y494514D01*
X149332Y493754D01*
X150030Y493662D01*
Y499830D01*
D02*
G37*
G36*
X51138D02*
X44970D01*
Y493662D01*
X45668Y493754D01*
X47502Y494514D01*
X49078Y495722D01*
X50286Y497298D01*
X51046Y499132D01*
X51138Y499830D01*
D02*
G37*
G36*
X42430D02*
X36262D01*
X36354Y499132D01*
X37114Y497298D01*
X38322Y495722D01*
X39897Y494514D01*
X41732Y493754D01*
X42430Y493662D01*
Y499830D01*
D02*
G37*
G36*
X25738D02*
X19570D01*
Y493662D01*
X20268Y493754D01*
X22102Y494514D01*
X23678Y495722D01*
X24886Y497298D01*
X25646Y499132D01*
X25738Y499830D01*
D02*
G37*
G36*
X17030D02*
X10862D01*
X10954Y499132D01*
X11714Y497298D01*
X12922Y495722D01*
X14497Y494514D01*
X16332Y493754D01*
X17030Y493662D01*
Y499830D01*
D02*
G37*
G36*
X164000Y495460D02*
X162173Y495220D01*
X160470Y494515D01*
X159008Y493392D01*
X157886Y491930D01*
X157180Y490227D01*
X156940Y488400D01*
X157180Y486573D01*
X157886Y484870D01*
X159008Y483408D01*
X160470Y482285D01*
X162173Y481580D01*
X164000Y481340D01*
X165827Y481580D01*
X167530Y482285D01*
X168992Y483408D01*
X170114Y484870D01*
X170820Y486573D01*
X171060Y488400D01*
X170820Y490227D01*
X170114Y491930D01*
X168992Y493392D01*
X167530Y494515D01*
X165827Y495220D01*
X164000Y495460D01*
D02*
G37*
G36*
X31000D02*
X29173Y495220D01*
X27470Y494515D01*
X26007Y493392D01*
X24885Y491930D01*
X24180Y490227D01*
X23940Y488400D01*
X24180Y486573D01*
X24885Y484870D01*
X26007Y483408D01*
X27470Y482285D01*
X29173Y481580D01*
X31000Y481340D01*
X32827Y481580D01*
X34530Y482285D01*
X35992Y483408D01*
X37115Y484870D01*
X37820Y486573D01*
X38060Y488400D01*
X37820Y490227D01*
X37115Y491930D01*
X35992Y493392D01*
X34530Y494515D01*
X32827Y495220D01*
X31000Y495460D01*
D02*
G37*
G36*
X68000Y488588D02*
X66244Y488239D01*
X64756Y487244D01*
X63761Y485756D01*
X63412Y484000D01*
X63545Y483330D01*
X62108Y481893D01*
X61527Y481024D01*
X61324Y480000D01*
X61324Y480000D01*
Y356500D01*
X61324Y356500D01*
X61527Y355476D01*
X62108Y354608D01*
X66824Y349891D01*
Y303237D01*
X65554Y302852D01*
X65392Y303093D01*
X65392Y303093D01*
X59155Y309330D01*
X59288Y310000D01*
X58939Y311756D01*
X57944Y313244D01*
X56456Y314239D01*
X54700Y314588D01*
X52944Y314239D01*
X51456Y313244D01*
X50461Y311756D01*
X50112Y310000D01*
X50461Y308244D01*
X51456Y306756D01*
X52944Y305761D01*
X54700Y305412D01*
X55370Y305545D01*
X60824Y300091D01*
Y200000D01*
Y124109D01*
X29608Y92893D01*
X29027Y92024D01*
X28823Y91000D01*
X28824Y91000D01*
Y84624D01*
X28256Y84244D01*
X27261Y82756D01*
X26912Y81000D01*
X27261Y79244D01*
X27885Y78310D01*
X27572Y77778D01*
X27046Y77281D01*
X25500Y77588D01*
X23744Y77239D01*
X22256Y76244D01*
X21261Y74756D01*
X20912Y73000D01*
X21261Y71244D01*
X22256Y69756D01*
X23744Y68761D01*
X25500Y68412D01*
X27256Y68761D01*
X28744Y69756D01*
X29739Y71244D01*
X30088Y73000D01*
X29739Y74756D01*
X29115Y75690D01*
X29428Y76223D01*
X29954Y76719D01*
X31500Y76412D01*
X33046Y76719D01*
X33572Y76222D01*
X33885Y75690D01*
X33261Y74756D01*
X32912Y73000D01*
X33261Y71244D01*
X34256Y69756D01*
X35744Y68761D01*
X37500Y68412D01*
X39256Y68761D01*
X40744Y69756D01*
X41739Y71244D01*
X42088Y73000D01*
X41739Y74756D01*
X41115Y75690D01*
X41428Y76223D01*
X41954Y76719D01*
X43500Y76412D01*
X45046Y76719D01*
X45572Y76222D01*
X45885Y75690D01*
X45261Y74756D01*
X44912Y73000D01*
X45261Y71244D01*
X46256Y69756D01*
X47744Y68761D01*
X49500Y68412D01*
X51256Y68761D01*
X52744Y69756D01*
X53739Y71244D01*
X54088Y73000D01*
X53739Y74756D01*
X53115Y75690D01*
X53428Y76223D01*
X53954Y76719D01*
X55500Y76412D01*
X57046Y76719D01*
X57572Y76222D01*
X57885Y75690D01*
X57261Y74756D01*
X56912Y73000D01*
X57261Y71244D01*
X58256Y69756D01*
X59744Y68761D01*
X61500Y68412D01*
X63256Y68761D01*
X64744Y69756D01*
X65739Y71244D01*
X66088Y73000D01*
X65739Y74756D01*
X65115Y75690D01*
X65428Y76222D01*
X65954Y76719D01*
X67500Y76412D01*
X69046Y76719D01*
X69572Y76223D01*
X69885Y75690D01*
X69261Y74756D01*
X68912Y73000D01*
X69261Y71244D01*
X70256Y69756D01*
X71744Y68761D01*
X73500Y68412D01*
X75256Y68761D01*
X76744Y69756D01*
X77739Y71244D01*
X78088Y73000D01*
X77739Y74756D01*
X77115Y75690D01*
X77428Y76222D01*
X77954Y76719D01*
X79500Y76412D01*
X81046Y76719D01*
X81572Y76223D01*
X81885Y75690D01*
X81261Y74756D01*
X80912Y73000D01*
X81261Y71244D01*
X82256Y69756D01*
X83744Y68761D01*
X85500Y68412D01*
X87256Y68761D01*
X88744Y69756D01*
X89739Y71244D01*
X90088Y73000D01*
X89739Y74756D01*
X89115Y75690D01*
X89428Y76222D01*
X89954Y76719D01*
X91500Y76412D01*
X93046Y76719D01*
X93572Y76223D01*
X93885Y75690D01*
X93261Y74756D01*
X92912Y73000D01*
X93261Y71244D01*
X94256Y69756D01*
X95744Y68761D01*
X97500Y68412D01*
X99256Y68761D01*
X100744Y69756D01*
X101739Y71244D01*
X102088Y73000D01*
X101739Y74756D01*
X101115Y75690D01*
X101428Y76222D01*
X101954Y76719D01*
X103500Y76412D01*
X105046Y76719D01*
X105572Y76223D01*
X105885Y75690D01*
X105261Y74756D01*
X104912Y73000D01*
X105261Y71244D01*
X106256Y69756D01*
X107744Y68761D01*
X109500Y68412D01*
X111256Y68761D01*
X112744Y69756D01*
X113739Y71244D01*
X114088Y73000D01*
X113739Y74756D01*
X113115Y75690D01*
X113428Y76222D01*
X113954Y76719D01*
X115500Y76412D01*
X117046Y76719D01*
X117572Y76223D01*
X117885Y75690D01*
X117261Y74756D01*
X116912Y73000D01*
X117261Y71244D01*
X118256Y69756D01*
X119744Y68761D01*
X121500Y68412D01*
X123256Y68761D01*
X124744Y69756D01*
X125739Y71244D01*
X126088Y73000D01*
X125739Y74756D01*
X125115Y75690D01*
X125428Y76222D01*
X125954Y76719D01*
X127500Y76412D01*
X129046Y76719D01*
X129572Y76223D01*
X129885Y75690D01*
X129261Y74756D01*
X128912Y73000D01*
X129261Y71244D01*
X130256Y69756D01*
X131744Y68761D01*
X133500Y68412D01*
X135256Y68761D01*
X136744Y69756D01*
X137739Y71244D01*
X138088Y73000D01*
X137739Y74756D01*
X137115Y75690D01*
X137428Y76222D01*
X137954Y76719D01*
X139500Y76412D01*
X141046Y76719D01*
X141572Y76223D01*
X141885Y75690D01*
X141261Y74756D01*
X140912Y73000D01*
X141261Y71244D01*
X142256Y69756D01*
X143744Y68761D01*
X145500Y68412D01*
X147256Y68761D01*
X148744Y69756D01*
X149739Y71244D01*
X150088Y73000D01*
X149739Y74756D01*
X149115Y75690D01*
X149428Y76222D01*
X149954Y76719D01*
X151500Y76412D01*
X153046Y76719D01*
X153572Y76223D01*
X153885Y75690D01*
X153261Y74756D01*
X152912Y73000D01*
X153261Y71244D01*
X154256Y69756D01*
X155744Y68761D01*
X157500Y68412D01*
X159256Y68761D01*
X160744Y69756D01*
X161739Y71244D01*
X162088Y73000D01*
X161739Y74756D01*
X161115Y75690D01*
X161428Y76222D01*
X161954Y76719D01*
X163500Y76412D01*
X165256Y76761D01*
X166744Y77756D01*
X167739Y79244D01*
X168088Y81000D01*
X167739Y82756D01*
X166744Y84244D01*
X166176Y84624D01*
Y91000D01*
X166176Y91000D01*
X165973Y92024D01*
X165392Y92893D01*
X165392Y92893D01*
X132176Y126109D01*
Y200000D01*
Y300541D01*
X137180Y305545D01*
X137850Y305412D01*
X139606Y305761D01*
X141094Y306756D01*
X142089Y308244D01*
X142438Y310000D01*
X142089Y311756D01*
X141094Y313244D01*
X139606Y314239D01*
X137850Y314588D01*
X136094Y314239D01*
X134606Y313244D01*
X133611Y311756D01*
X133262Y310000D01*
X133395Y309330D01*
X127607Y303542D01*
X127446Y303302D01*
X126176Y303687D01*
Y349891D01*
X150892Y374607D01*
X150892Y374608D01*
X151473Y375476D01*
X151676Y376500D01*
Y447000D01*
X151677Y447000D01*
X151473Y448024D01*
X150892Y448893D01*
X148392Y451393D01*
X147524Y451973D01*
X146500Y452176D01*
X146500Y452176D01*
X129624D01*
X129244Y452744D01*
X127756Y453739D01*
X126000Y454088D01*
X124244Y453739D01*
X122756Y452744D01*
X121761Y451256D01*
X121430Y449592D01*
X121384Y449474D01*
X120316Y448500D01*
X74684D01*
X73616Y449474D01*
X73570Y449592D01*
X73239Y451256D01*
X72244Y452744D01*
X70756Y453739D01*
X69000Y454088D01*
X67946Y453879D01*
X66676Y454771D01*
Y478571D01*
X67707Y479470D01*
X68000Y479412D01*
X69756Y479761D01*
X71244Y480756D01*
X72239Y482244D01*
X72588Y484000D01*
X72239Y485756D01*
X71244Y487244D01*
X69756Y488239D01*
X68000Y488588D01*
D02*
G37*
G36*
X127000Y488588D02*
X125244Y488239D01*
X123756Y487244D01*
X122761Y485756D01*
X122412Y484000D01*
X122761Y482244D01*
X123756Y480756D01*
X125244Y479761D01*
X127000Y479412D01*
X128756Y479761D01*
X130244Y480756D01*
X131239Y482244D01*
X131588Y484000D01*
X131239Y485756D01*
X130244Y487244D01*
X128756Y488239D01*
X127000Y488588D01*
D02*
G37*
G36*
X177970Y483138D02*
Y476970D01*
X184138D01*
X184046Y477668D01*
X183286Y479502D01*
X182078Y481078D01*
X180502Y482286D01*
X178668Y483046D01*
X177970Y483138D01*
D02*
G37*
G36*
X175430D02*
X174732Y483046D01*
X172897Y482286D01*
X171322Y481078D01*
X170114Y479502D01*
X169354Y477668D01*
X169262Y476970D01*
X175430D01*
Y483138D01*
D02*
G37*
G36*
X152570D02*
Y476970D01*
X158738D01*
X158646Y477668D01*
X157886Y479502D01*
X156678Y481078D01*
X155103Y482286D01*
X153268Y483046D01*
X152570Y483138D01*
D02*
G37*
G36*
X150030D02*
X149332Y483046D01*
X147498Y482286D01*
X145922Y481078D01*
X144714Y479502D01*
X143954Y477668D01*
X143862Y476970D01*
X150030D01*
Y483138D01*
D02*
G37*
G36*
X44970D02*
Y476970D01*
X51138D01*
X51046Y477668D01*
X50286Y479502D01*
X49078Y481078D01*
X47502Y482286D01*
X45668Y483046D01*
X44970Y483138D01*
D02*
G37*
G36*
X42430D02*
X41732Y483046D01*
X39897Y482286D01*
X38322Y481078D01*
X37114Y479502D01*
X36354Y477668D01*
X36262Y476970D01*
X42430D01*
Y483138D01*
D02*
G37*
G36*
X19570D02*
Y476970D01*
X25738D01*
X25646Y477668D01*
X24886Y479502D01*
X23678Y481078D01*
X22102Y482286D01*
X20268Y483046D01*
X19570Y483138D01*
D02*
G37*
G36*
X17030D02*
X16332Y483046D01*
X14497Y482286D01*
X12922Y481078D01*
X11714Y479502D01*
X10954Y477668D01*
X10862Y476970D01*
X17030D01*
Y483138D01*
D02*
G37*
G36*
X184138Y474430D02*
X177970D01*
Y468262D01*
X178668Y468354D01*
X180502Y469114D01*
X182078Y470322D01*
X183286Y471898D01*
X184046Y473732D01*
X184138Y474430D01*
D02*
G37*
G36*
X175430D02*
X169262D01*
X169354Y473732D01*
X170114Y471898D01*
X171322Y470322D01*
X172897Y469114D01*
X174732Y468354D01*
X175430Y468262D01*
Y474430D01*
D02*
G37*
G36*
X158738D02*
X152570D01*
Y468262D01*
X153268Y468354D01*
X155103Y469114D01*
X156678Y470322D01*
X157886Y471898D01*
X158646Y473732D01*
X158738Y474430D01*
D02*
G37*
G36*
X150030D02*
X143862D01*
X143954Y473732D01*
X144714Y471898D01*
X145922Y470322D01*
X147498Y469114D01*
X149332Y468354D01*
X150030Y468262D01*
Y474430D01*
D02*
G37*
G36*
X51138D02*
X44970D01*
Y468262D01*
X45668Y468354D01*
X47502Y469114D01*
X49078Y470322D01*
X50286Y471898D01*
X51046Y473732D01*
X51138Y474430D01*
D02*
G37*
G36*
X42430D02*
X36262D01*
X36354Y473732D01*
X37114Y471898D01*
X38322Y470322D01*
X39897Y469114D01*
X41732Y468354D01*
X42430Y468262D01*
Y474430D01*
D02*
G37*
G36*
X25738D02*
X19570D01*
Y468262D01*
X20268Y468354D01*
X22102Y469114D01*
X23678Y470322D01*
X24886Y471898D01*
X25646Y473732D01*
X25738Y474430D01*
D02*
G37*
G36*
X17030D02*
X10862D01*
X10954Y473732D01*
X11714Y471898D01*
X12922Y470322D01*
X14497Y469114D01*
X16332Y468354D01*
X17030Y468262D01*
Y474430D01*
D02*
G37*
G36*
X175000Y419088D02*
X173244Y418739D01*
X171756Y417744D01*
X170761Y416256D01*
X170412Y414500D01*
X170761Y412744D01*
X171756Y411256D01*
X173244Y410261D01*
X175000Y409912D01*
X176756Y410261D01*
X178244Y411256D01*
X179239Y412744D01*
X179588Y414500D01*
X179239Y416256D01*
X178244Y417744D01*
X176756Y418739D01*
X175000Y419088D01*
D02*
G37*
G36*
X20000Y412088D02*
X18244Y411739D01*
X16756Y410744D01*
X15761Y409256D01*
X15412Y407500D01*
X15761Y405744D01*
X16756Y404256D01*
X18244Y403261D01*
X20000Y402912D01*
X21756Y403261D01*
X23244Y404256D01*
X24239Y405744D01*
X24588Y407500D01*
X24239Y409256D01*
X23244Y410744D01*
X21756Y411739D01*
X20000Y412088D01*
D02*
G37*
G36*
X44970Y363538D02*
Y357370D01*
X51138D01*
X51046Y358068D01*
X50286Y359902D01*
X49078Y361478D01*
X47502Y362686D01*
X45668Y363446D01*
X44970Y363538D01*
D02*
G37*
G36*
X19570D02*
Y357370D01*
X25738D01*
X25646Y358068D01*
X24886Y359902D01*
X23678Y361478D01*
X22102Y362686D01*
X20268Y363446D01*
X19570Y363538D01*
D02*
G37*
G36*
X177970D02*
Y357370D01*
X184138D01*
X184046Y358068D01*
X183286Y359902D01*
X182078Y361478D01*
X180502Y362686D01*
X178668Y363446D01*
X177970Y363538D01*
D02*
G37*
G36*
X175430D02*
X174732Y363446D01*
X172897Y362686D01*
X171322Y361478D01*
X170114Y359902D01*
X169354Y358068D01*
X169262Y357370D01*
X175430D01*
Y363538D01*
D02*
G37*
G36*
X152570D02*
Y357370D01*
X158738D01*
X158646Y358068D01*
X157886Y359902D01*
X156678Y361478D01*
X155103Y362686D01*
X153268Y363446D01*
X152570Y363538D01*
D02*
G37*
G36*
X150030D02*
X149332Y363446D01*
X147498Y362686D01*
X145922Y361478D01*
X144714Y359902D01*
X143954Y358068D01*
X143862Y357370D01*
X150030D01*
Y363538D01*
D02*
G37*
G36*
X42430D02*
X41732Y363446D01*
X39897Y362686D01*
X38322Y361478D01*
X37114Y359902D01*
X36354Y358068D01*
X36262Y357370D01*
X42430D01*
Y363538D01*
D02*
G37*
G36*
X17030D02*
X16332Y363446D01*
X14497Y362686D01*
X12922Y361478D01*
X11714Y359902D01*
X10954Y358068D01*
X10862Y357370D01*
X17030D01*
Y363538D01*
D02*
G37*
G36*
X25738Y354830D02*
X19570D01*
Y348662D01*
X20268Y348754D01*
X22102Y349514D01*
X23678Y350722D01*
X24886Y352298D01*
X25646Y354132D01*
X25738Y354830D01*
D02*
G37*
G36*
X51138D02*
X44970D01*
Y348662D01*
X45668Y348754D01*
X47502Y349514D01*
X49078Y350722D01*
X50286Y352298D01*
X51046Y354132D01*
X51138Y354830D01*
D02*
G37*
G36*
X184138D02*
X177970D01*
Y348662D01*
X178668Y348754D01*
X180502Y349514D01*
X182078Y350722D01*
X183286Y352298D01*
X184046Y354132D01*
X184138Y354830D01*
D02*
G37*
G36*
X175430D02*
X169262D01*
X169354Y354132D01*
X170114Y352298D01*
X171322Y350722D01*
X172897Y349514D01*
X174732Y348754D01*
X175430Y348662D01*
Y354830D01*
D02*
G37*
G36*
X158738D02*
X152570D01*
Y348662D01*
X153268Y348754D01*
X155103Y349514D01*
X156678Y350722D01*
X157886Y352298D01*
X158646Y354132D01*
X158738Y354830D01*
D02*
G37*
G36*
X150030D02*
X143862D01*
X143954Y354132D01*
X144714Y352298D01*
X145922Y350722D01*
X147498Y349514D01*
X149332Y348754D01*
X150030Y348662D01*
Y354830D01*
D02*
G37*
G36*
X42430D02*
X36262D01*
X36354Y354132D01*
X37114Y352298D01*
X38322Y350722D01*
X39897Y349514D01*
X41732Y348754D01*
X42430Y348662D01*
Y354830D01*
D02*
G37*
G36*
X17030D02*
X10862D01*
X10954Y354132D01*
X11714Y352298D01*
X12922Y350722D01*
X14497Y349514D01*
X16332Y348754D01*
X17030Y348662D01*
Y354830D01*
D02*
G37*
G36*
X164000Y350460D02*
X162173Y350220D01*
X160470Y349515D01*
X159008Y348392D01*
X157886Y346930D01*
X157180Y345227D01*
X156940Y343400D01*
X157180Y341573D01*
X157886Y339870D01*
X159008Y338408D01*
X160470Y337285D01*
X162173Y336580D01*
X164000Y336340D01*
X165827Y336580D01*
X167530Y337285D01*
X168992Y338408D01*
X170114Y339870D01*
X170820Y341573D01*
X171060Y343400D01*
X170820Y345227D01*
X170114Y346930D01*
X168992Y348392D01*
X167530Y349515D01*
X165827Y350220D01*
X164000Y350460D01*
D02*
G37*
G36*
X31000D02*
X29173Y350220D01*
X27470Y349515D01*
X26007Y348392D01*
X24885Y346930D01*
X24180Y345227D01*
X23940Y343400D01*
X24180Y341573D01*
X24885Y339870D01*
X26007Y338408D01*
X27470Y337285D01*
X29173Y336580D01*
X31000Y336340D01*
X32827Y336580D01*
X34530Y337285D01*
X35992Y338408D01*
X37115Y339870D01*
X37820Y341573D01*
X38060Y343400D01*
X37820Y345227D01*
X37115Y346930D01*
X35992Y348392D01*
X34530Y349515D01*
X32827Y350220D01*
X31000Y350460D01*
D02*
G37*
G36*
X44970Y338138D02*
Y331970D01*
X51138D01*
X51046Y332668D01*
X50286Y334502D01*
X49078Y336078D01*
X47502Y337286D01*
X45668Y338046D01*
X44970Y338138D01*
D02*
G37*
G36*
X19570D02*
Y331970D01*
X25738D01*
X25646Y332668D01*
X24886Y334502D01*
X23678Y336078D01*
X22102Y337286D01*
X20268Y338046D01*
X19570Y338138D01*
D02*
G37*
G36*
X177970D02*
Y331970D01*
X184138D01*
X184046Y332668D01*
X183286Y334502D01*
X182078Y336078D01*
X180502Y337286D01*
X178668Y338046D01*
X177970Y338138D01*
D02*
G37*
G36*
X175430D02*
X174732Y338046D01*
X172897Y337286D01*
X171322Y336078D01*
X170114Y334502D01*
X169354Y332668D01*
X169262Y331970D01*
X175430D01*
Y338138D01*
D02*
G37*
G36*
X152570D02*
Y331970D01*
X158738D01*
X158646Y332668D01*
X157886Y334502D01*
X156678Y336078D01*
X155103Y337286D01*
X153268Y338046D01*
X152570Y338138D01*
D02*
G37*
G36*
X150030D02*
X149332Y338046D01*
X147498Y337286D01*
X145922Y336078D01*
X144714Y334502D01*
X143954Y332668D01*
X143862Y331970D01*
X150030D01*
Y338138D01*
D02*
G37*
G36*
X42430D02*
X41732Y338046D01*
X39897Y337286D01*
X38322Y336078D01*
X37114Y334502D01*
X36354Y332668D01*
X36262Y331970D01*
X42430D01*
Y338138D01*
D02*
G37*
G36*
X17030D02*
X16332Y338046D01*
X14497Y337286D01*
X12922Y336078D01*
X11714Y334502D01*
X10954Y332668D01*
X10862Y331970D01*
X17030D01*
Y338138D01*
D02*
G37*
G36*
X51138Y329430D02*
X44970D01*
Y323262D01*
X45668Y323354D01*
X47502Y324114D01*
X49078Y325322D01*
X50286Y326898D01*
X51046Y328732D01*
X51138Y329430D01*
D02*
G37*
G36*
X25738D02*
X19570D01*
Y323262D01*
X20268Y323354D01*
X22102Y324114D01*
X23678Y325322D01*
X24886Y326898D01*
X25646Y328732D01*
X25738Y329430D01*
D02*
G37*
G36*
X184138D02*
X177970D01*
Y323262D01*
X178668Y323354D01*
X180502Y324114D01*
X182078Y325322D01*
X183286Y326898D01*
X184046Y328732D01*
X184138Y329430D01*
D02*
G37*
G36*
X175430D02*
X169262D01*
X169354Y328732D01*
X170114Y326898D01*
X171322Y325322D01*
X172897Y324114D01*
X174732Y323354D01*
X175430Y323262D01*
Y329430D01*
D02*
G37*
G36*
X158738D02*
X152570D01*
Y323262D01*
X153268Y323354D01*
X155103Y324114D01*
X156678Y325322D01*
X157886Y326898D01*
X158646Y328732D01*
X158738Y329430D01*
D02*
G37*
G36*
X150030D02*
X143862D01*
X143954Y328732D01*
X144714Y326898D01*
X145922Y325322D01*
X147498Y324114D01*
X149332Y323354D01*
X150030Y323262D01*
Y329430D01*
D02*
G37*
G36*
X17030D02*
X10862D01*
X10954Y328732D01*
X11714Y326898D01*
X12922Y325322D01*
X14497Y324114D01*
X16332Y323354D01*
X17030Y323262D01*
Y329430D01*
D02*
G37*
G36*
X42430D02*
X36262D01*
X36354Y328732D01*
X37114Y326898D01*
X38322Y325322D01*
X39897Y324114D01*
X41732Y323354D01*
X42430Y323262D01*
Y329430D01*
D02*
G37*
G36*
X44970Y291538D02*
Y285370D01*
X51138D01*
X51046Y286068D01*
X50286Y287903D01*
X49078Y289478D01*
X47502Y290686D01*
X45668Y291446D01*
X44970Y291538D01*
D02*
G37*
G36*
X19570D02*
Y285370D01*
X25738D01*
X25646Y286068D01*
X24886Y287903D01*
X23678Y289478D01*
X22102Y290686D01*
X20268Y291446D01*
X19570Y291538D01*
D02*
G37*
G36*
X177970D02*
Y285370D01*
X184138D01*
X184046Y286068D01*
X183286Y287903D01*
X182078Y289478D01*
X180502Y290686D01*
X178668Y291446D01*
X177970Y291538D01*
D02*
G37*
G36*
X175430D02*
X174732Y291446D01*
X172897Y290686D01*
X171322Y289478D01*
X170114Y287903D01*
X169354Y286068D01*
X169262Y285370D01*
X175430D01*
Y291538D01*
D02*
G37*
G36*
X152570D02*
Y285370D01*
X158738D01*
X158646Y286068D01*
X157886Y287903D01*
X156678Y289478D01*
X155103Y290686D01*
X153268Y291446D01*
X152570Y291538D01*
D02*
G37*
G36*
X150030D02*
X149332Y291446D01*
X147498Y290686D01*
X145922Y289478D01*
X144714Y287903D01*
X143954Y286068D01*
X143862Y285370D01*
X150030D01*
Y291538D01*
D02*
G37*
G36*
X17030D02*
X16332Y291446D01*
X14497Y290686D01*
X12922Y289478D01*
X11714Y287903D01*
X10954Y286068D01*
X10862Y285370D01*
X17030D01*
Y291538D01*
D02*
G37*
G36*
X42430D02*
X41732Y291446D01*
X39897Y290686D01*
X38322Y289478D01*
X37114Y287903D01*
X36354Y286068D01*
X36262Y285370D01*
X42430D01*
Y291538D01*
D02*
G37*
G36*
X51138Y282830D02*
X44970D01*
Y276662D01*
X45668Y276754D01*
X47502Y277514D01*
X49078Y278722D01*
X50286Y280298D01*
X51046Y282132D01*
X51138Y282830D01*
D02*
G37*
G36*
X25738D02*
X19570D01*
Y276662D01*
X20268Y276754D01*
X22102Y277514D01*
X23678Y278722D01*
X24886Y280298D01*
X25646Y282132D01*
X25738Y282830D01*
D02*
G37*
G36*
X184138D02*
X177970D01*
Y276662D01*
X178668Y276754D01*
X180502Y277514D01*
X182078Y278722D01*
X183286Y280298D01*
X184046Y282132D01*
X184138Y282830D01*
D02*
G37*
G36*
X175430D02*
X169262D01*
X169354Y282132D01*
X170114Y280298D01*
X171322Y278722D01*
X172897Y277514D01*
X174732Y276754D01*
X175430Y276662D01*
Y282830D01*
D02*
G37*
G36*
X158738D02*
X152570D01*
Y276662D01*
X153268Y276754D01*
X155103Y277514D01*
X156678Y278722D01*
X157886Y280298D01*
X158646Y282132D01*
X158738Y282830D01*
D02*
G37*
G36*
X150030D02*
X143862D01*
X143954Y282132D01*
X144714Y280298D01*
X145922Y278722D01*
X147498Y277514D01*
X149332Y276754D01*
X150030Y276662D01*
Y282830D01*
D02*
G37*
G36*
X17030D02*
X10862D01*
X10954Y282132D01*
X11714Y280298D01*
X12922Y278722D01*
X14497Y277514D01*
X16332Y276754D01*
X17030Y276662D01*
Y282830D01*
D02*
G37*
G36*
X42430D02*
X36262D01*
X36354Y282132D01*
X37114Y280298D01*
X38322Y278722D01*
X39897Y277514D01*
X41732Y276754D01*
X42430Y276662D01*
Y282830D01*
D02*
G37*
G36*
X164000Y278460D02*
X162173Y278220D01*
X160470Y277514D01*
X159008Y276392D01*
X157886Y274930D01*
X157180Y273227D01*
X156940Y271400D01*
X157180Y269573D01*
X157886Y267870D01*
X159008Y266408D01*
X160470Y265285D01*
X162173Y264580D01*
X164000Y264340D01*
X165827Y264580D01*
X167530Y265285D01*
X168992Y266408D01*
X170114Y267870D01*
X170820Y269573D01*
X171060Y271400D01*
X170820Y273227D01*
X170114Y274930D01*
X168992Y276392D01*
X167530Y277514D01*
X165827Y278220D01*
X164000Y278460D01*
D02*
G37*
G36*
X31000D02*
X29173Y278220D01*
X27470Y277514D01*
X26007Y276392D01*
X24885Y274930D01*
X24180Y273227D01*
X23940Y271400D01*
X24180Y269573D01*
X24885Y267870D01*
X26007Y266408D01*
X27470Y265285D01*
X29173Y264580D01*
X31000Y264340D01*
X32827Y264580D01*
X34530Y265285D01*
X35992Y266408D01*
X37115Y267870D01*
X37820Y269573D01*
X38060Y271400D01*
X37820Y273227D01*
X37115Y274930D01*
X35992Y276392D01*
X34530Y277514D01*
X32827Y278220D01*
X31000Y278460D01*
D02*
G37*
G36*
X44970Y266138D02*
Y259970D01*
X51138D01*
X51046Y260668D01*
X50286Y262502D01*
X49078Y264078D01*
X47502Y265286D01*
X45668Y266046D01*
X44970Y266138D01*
D02*
G37*
G36*
X19570D02*
Y259970D01*
X25738D01*
X25646Y260668D01*
X24886Y262502D01*
X23678Y264078D01*
X22102Y265286D01*
X20268Y266046D01*
X19570Y266138D01*
D02*
G37*
G36*
X177970D02*
Y259970D01*
X184138D01*
X184046Y260668D01*
X183286Y262502D01*
X182078Y264078D01*
X180502Y265286D01*
X178668Y266046D01*
X177970Y266138D01*
D02*
G37*
G36*
X175430D02*
X174732Y266046D01*
X172897Y265286D01*
X171322Y264078D01*
X170114Y262502D01*
X169354Y260668D01*
X169262Y259970D01*
X175430D01*
Y266138D01*
D02*
G37*
G36*
X152570D02*
Y259970D01*
X158738D01*
X158646Y260668D01*
X157886Y262502D01*
X156678Y264078D01*
X155103Y265286D01*
X153268Y266046D01*
X152570Y266138D01*
D02*
G37*
G36*
X150030D02*
X149332Y266046D01*
X147498Y265286D01*
X145922Y264078D01*
X144714Y262502D01*
X143954Y260668D01*
X143862Y259970D01*
X150030D01*
Y266138D01*
D02*
G37*
G36*
X42430D02*
X41732Y266046D01*
X39897Y265286D01*
X38322Y264078D01*
X37114Y262502D01*
X36354Y260668D01*
X36262Y259970D01*
X42430D01*
Y266138D01*
D02*
G37*
G36*
X17030D02*
X16332Y266046D01*
X14497Y265286D01*
X12922Y264078D01*
X11714Y262502D01*
X10954Y260668D01*
X10862Y259970D01*
X17030D01*
Y266138D01*
D02*
G37*
G36*
X51138Y257430D02*
X44970D01*
Y251262D01*
X45668Y251354D01*
X47502Y252114D01*
X49078Y253322D01*
X50286Y254897D01*
X51046Y256732D01*
X51138Y257430D01*
D02*
G37*
G36*
X25738D02*
X19570D01*
Y251262D01*
X20268Y251354D01*
X22102Y252114D01*
X23678Y253322D01*
X24886Y254897D01*
X25646Y256732D01*
X25738Y257430D01*
D02*
G37*
G36*
X184138D02*
X177970D01*
Y251262D01*
X178668Y251354D01*
X180502Y252114D01*
X182078Y253322D01*
X183286Y254897D01*
X184046Y256732D01*
X184138Y257430D01*
D02*
G37*
G36*
X175430D02*
X169262D01*
X169354Y256732D01*
X170114Y254897D01*
X171322Y253322D01*
X172897Y252114D01*
X174732Y251354D01*
X175430Y251262D01*
Y257430D01*
D02*
G37*
G36*
X158738D02*
X152570D01*
Y251262D01*
X153268Y251354D01*
X155103Y252114D01*
X156678Y253322D01*
X157886Y254897D01*
X158646Y256732D01*
X158738Y257430D01*
D02*
G37*
G36*
X150030D02*
X143862D01*
X143954Y256732D01*
X144714Y254897D01*
X145922Y253322D01*
X147498Y252114D01*
X149332Y251354D01*
X150030Y251262D01*
Y257430D01*
D02*
G37*
G36*
X42430D02*
X36262D01*
X36354Y256732D01*
X37114Y254897D01*
X38322Y253322D01*
X39897Y252114D01*
X41732Y251354D01*
X42430Y251262D01*
Y257430D01*
D02*
G37*
G36*
X17030D02*
X10862D01*
X10954Y256732D01*
X11714Y254897D01*
X12922Y253322D01*
X14497Y252114D01*
X16332Y251354D01*
X17030Y251262D01*
Y257430D01*
D02*
G37*
%LPD*%
D22*
X184500Y12000D02*
D03*
X10500D02*
D03*
D23*
X151300Y284100D02*
D03*
Y258700D02*
D03*
X176700Y284100D02*
D03*
Y258700D02*
D03*
X164000Y271400D02*
D03*
X151300Y356100D02*
D03*
Y330700D02*
D03*
X176700Y356100D02*
D03*
Y330700D02*
D03*
X164000Y343400D02*
D03*
X151300Y501100D02*
D03*
Y475700D02*
D03*
X176700Y501100D02*
D03*
Y475700D02*
D03*
X164000Y488400D02*
D03*
X18300Y501100D02*
D03*
Y475700D02*
D03*
X43700Y501100D02*
D03*
Y475700D02*
D03*
X31000Y488400D02*
D03*
X18300Y576100D02*
D03*
Y550700D02*
D03*
X43700Y576100D02*
D03*
Y550700D02*
D03*
X31000Y563400D02*
D03*
X151300Y576100D02*
D03*
Y550700D02*
D03*
X176700Y576100D02*
D03*
Y550700D02*
D03*
X164000Y563400D02*
D03*
X31000Y271400D02*
D03*
X18300Y284100D02*
D03*
Y258700D02*
D03*
X43700Y284100D02*
D03*
Y258700D02*
D03*
X31000Y343400D02*
D03*
X18300Y356100D02*
D03*
Y330700D02*
D03*
X43700Y356100D02*
D03*
Y330700D02*
D03*
D24*
X24250Y653400D02*
D03*
X170750D02*
D03*
Y131900D02*
D03*
X24250D02*
D03*
D25*
X160750Y180900D02*
D03*
X34250D02*
D03*
D26*
X20000Y407500D02*
D03*
X54700Y310000D02*
D03*
X69000Y435500D02*
D03*
X87000Y396500D02*
D03*
X108000D02*
D03*
X137850Y310000D02*
D03*
X175000Y414500D02*
D03*
X127000Y484000D02*
D03*
X68000Y484000D02*
D03*
X69000Y449500D02*
D03*
Y442500D02*
D03*
Y428500D02*
D03*
Y421500D02*
D03*
Y407500D02*
D03*
X73000Y396500D02*
D03*
X80000D02*
D03*
X94000D02*
D03*
X115000D02*
D03*
X126000Y407500D02*
D03*
Y414500D02*
D03*
Y449500D02*
D03*
Y442500D02*
D03*
Y435500D02*
D03*
Y428500D02*
D03*
X55500Y81000D02*
D03*
X31500D02*
D03*
X67500D02*
D03*
X25500Y73000D02*
D03*
X79500Y81000D02*
D03*
X37500Y73000D02*
D03*
X91500Y81000D02*
D03*
X49500Y73000D02*
D03*
X103500Y81000D02*
D03*
X61500Y73000D02*
D03*
X115500Y81000D02*
D03*
X73500Y73000D02*
D03*
X127500Y81000D02*
D03*
X85500Y73000D02*
D03*
X139500Y81000D02*
D03*
X97500Y73000D02*
D03*
X151500Y81000D02*
D03*
X109500Y73000D02*
D03*
X163500Y81000D02*
D03*
X121500Y73000D02*
D03*
X145500D02*
D03*
X133500D02*
D03*
X157500D02*
D03*
X43500Y81000D02*
D03*
D27*
X129500Y125000D02*
Y200000D01*
Y125000D02*
X163500Y91000D01*
Y81000D02*
Y91000D01*
X123500Y119000D02*
Y200000D01*
Y119000D02*
X151500Y91000D01*
Y81000D02*
Y91000D01*
X117500Y113000D02*
Y200000D01*
Y113000D02*
X139500Y91000D01*
Y81000D02*
Y91000D01*
X111500Y107000D02*
Y200000D01*
Y107000D02*
X127500Y91000D01*
Y81000D02*
Y91000D01*
X105500Y101000D02*
Y200000D01*
Y101000D02*
X115500Y91000D01*
Y81000D02*
Y91000D01*
X99500Y95000D02*
Y200000D01*
Y95000D02*
X103500Y91000D01*
Y81000D02*
Y91000D01*
X93500Y93000D02*
Y200000D01*
X91500Y91000D02*
X93500Y93000D01*
X91500Y81000D02*
Y91000D01*
X87500Y99000D02*
Y200000D01*
X79500Y91000D02*
X87500Y99000D01*
X79500Y81000D02*
Y91000D01*
X81500Y105000D02*
Y200000D01*
X67500Y91000D02*
X81500Y105000D01*
X67500Y81000D02*
Y91000D01*
X75500Y111000D02*
Y200000D01*
X55500Y91000D02*
X75500Y111000D01*
X55500Y81000D02*
Y91000D01*
X69500Y117000D02*
Y200000D01*
X43500Y91000D02*
X69500Y117000D01*
X43500Y81000D02*
Y91000D01*
X63500Y123000D02*
Y200000D01*
X31500Y91000D02*
X63500Y123000D01*
X31500Y81000D02*
Y91000D01*
X63500Y200000D02*
Y301200D01*
X69500Y200000D02*
Y351000D01*
X64000Y356500D02*
X69500Y351000D01*
X64000Y356500D02*
Y480000D01*
X68000Y484000D01*
X75500Y200000D02*
Y351000D01*
X94000Y369500D01*
Y396500D01*
X81500Y200000D02*
Y351000D01*
X108000Y377500D01*
Y396500D01*
X87500Y200000D02*
Y351000D01*
X115000Y378500D01*
Y396500D01*
X93500Y200000D02*
Y351000D01*
X129000Y386500D01*
Y405300D01*
X126800Y407500D02*
X129000Y405300D01*
X126000Y407500D02*
X126800D01*
X99500Y200000D02*
Y351000D01*
X133000Y384500D01*
Y412000D01*
X130500Y414500D02*
X133000Y412000D01*
X126000Y414500D02*
X130500D01*
X105500Y200000D02*
Y351000D01*
X137000Y382500D01*
Y426000D01*
X134500Y428500D02*
X137000Y426000D01*
X126000Y428500D02*
X134500D01*
X111500Y200000D02*
Y351000D01*
X141000Y380500D01*
Y433000D01*
X138500Y435500D02*
X141000Y433000D01*
X126000Y435500D02*
X138500D01*
X117500Y200000D02*
Y351000D01*
X145000Y378500D01*
Y440000D01*
X142500Y442500D02*
X145000Y440000D01*
X126000Y442500D02*
X142500D01*
X123500Y200000D02*
Y351000D01*
X149000Y376500D01*
Y447000D01*
X146500Y449500D02*
X149000Y447000D01*
X126000Y449500D02*
X146500D01*
X129500Y200000D02*
Y301650D01*
X137850Y310000D01*
X54700Y310000D02*
X63500Y301200D01*
M02*
