G04*
G04 #@! TF.GenerationSoftware,Altium Limited,Altium Designer,26.10.1 (5)*
G04*
G04 Layer_Color=32896*
G04 Board_Origin=0|0*
%FSLAX44Y44*%
%MOMM*%
G71*
G04*
G04 #@! TF.SameCoordinates,B6448522-6BDF-49B7-94C1-0DDA889AABCC*
G04*
G04*
G04 #@! TF.FilePolarity,Positive*
G04*
G01*
G75*
%ADD10C,0.1000*%
%ADD35C,0.1200*%
D10*
X13999Y384998D02*
X12999Y385998D01*
X11000D01*
X10000Y384998D01*
Y381000D01*
X11000Y380000D01*
X12999D01*
X13999Y381000D01*
X19997Y385998D02*
X17997Y384998D01*
X15998Y382999D01*
Y381000D01*
X16998Y380000D01*
X18997D01*
X19997Y381000D01*
Y381999D01*
X18997Y382999D01*
X15998D01*
X6000Y424000D02*
Y429998D01*
X8999D01*
X9999Y428998D01*
Y426999D01*
X8999Y425999D01*
X6000D01*
X7999D02*
X9999Y424000D01*
X15997Y429998D02*
X13997Y428998D01*
X11998Y426999D01*
Y425000D01*
X12998Y424000D01*
X14997D01*
X15997Y425000D01*
Y425999D01*
X14997Y426999D01*
X11998D01*
X91699Y294998D02*
X90699Y295998D01*
X88700D01*
X87700Y294998D01*
Y291000D01*
X88700Y290000D01*
X90699D01*
X91699Y291000D01*
X97697Y295998D02*
X93698D01*
Y292999D01*
X95697Y293999D01*
X96697D01*
X97697Y292999D01*
Y291000D01*
X96697Y290000D01*
X94698D01*
X93698Y291000D01*
X19700Y305000D02*
Y310998D01*
X22699D01*
X23699Y309998D01*
Y307999D01*
X22699Y306999D01*
X19700D01*
X21699D02*
X23699Y305000D01*
X29697Y310998D02*
X25698D01*
Y307999D01*
X27697Y308999D01*
X28697D01*
X29697Y307999D01*
Y306000D01*
X28697Y305000D01*
X26698D01*
X25698Y306000D01*
X74999Y533998D02*
X73999Y534998D01*
X72000D01*
X71000Y533998D01*
Y530000D01*
X72000Y529000D01*
X73999D01*
X74999Y530000D01*
X79997Y529000D02*
Y534998D01*
X76998Y531999D01*
X80997D01*
X119999Y533998D02*
X118999Y534998D01*
X117000D01*
X116000Y533998D01*
Y530000D01*
X117000Y529000D01*
X118999D01*
X119999Y530000D01*
X121998Y533998D02*
X122998Y534998D01*
X124997D01*
X125997Y533998D01*
Y532999D01*
X124997Y531999D01*
X123997D01*
X124997D01*
X125997Y530999D01*
Y530000D01*
X124997Y529000D01*
X122998D01*
X121998Y530000D01*
X178999Y387998D02*
X177999Y388998D01*
X176000D01*
X175000Y387998D01*
Y384000D01*
X176000Y383000D01*
X177999D01*
X178999Y384000D01*
X184997Y383000D02*
X180998D01*
X184997Y386999D01*
Y387998D01*
X183997Y388998D01*
X181998D01*
X180998Y387998D01*
X98849Y282998D02*
X97849Y283998D01*
X95850D01*
X94850Y282998D01*
Y279000D01*
X95850Y278000D01*
X97849D01*
X98849Y279000D01*
X100848Y278000D02*
X102847D01*
X101848D01*
Y283998D01*
X100848Y282998D01*
X153350Y302000D02*
Y307998D01*
X150351D01*
X149351Y306998D01*
Y304999D01*
X150351Y303999D01*
X153350D01*
X151351D02*
X149351Y302000D01*
X147352D02*
X145353D01*
X146352D01*
Y307998D01*
X147352Y306998D01*
X185000Y431000D02*
Y436998D01*
X182001D01*
X181001Y435998D01*
Y433999D01*
X182001Y432999D01*
X185000D01*
X183001D02*
X181001Y431000D01*
X175003D02*
X179002D01*
X175003Y434999D01*
Y435998D01*
X176003Y436998D01*
X178002D01*
X179002Y435998D01*
X155000Y458000D02*
Y463998D01*
X152001D01*
X151001Y462998D01*
Y460999D01*
X152001Y459999D01*
X155000D01*
X153001D02*
X151001Y458000D01*
X149002Y462998D02*
X148002Y463998D01*
X146003D01*
X145003Y462998D01*
Y461999D01*
X146003Y460999D01*
X147003D01*
X146003D01*
X145003Y459999D01*
Y459000D01*
X146003Y458000D01*
X148002D01*
X149002Y459000D01*
X58000Y458000D02*
Y463998D01*
X55001D01*
X54001Y462998D01*
Y460999D01*
X55001Y459999D01*
X58000D01*
X56001D02*
X54001Y458000D01*
X49003D02*
Y463998D01*
X52002Y460999D01*
X48003D01*
X95332Y518667D02*
Y513335D01*
X93999Y512003D01*
X91333D01*
X90000Y513335D01*
Y518667D01*
X91333Y520000D01*
X93999D01*
X92666Y517334D02*
X95332Y520000D01*
X93999D02*
X95332Y518667D01*
X97997Y520000D02*
X100663D01*
X99330D01*
Y512003D01*
X97997Y513335D01*
D35*
X20568Y415486D02*
X36568D01*
X28568Y399486D02*
X30000D01*
X20568D02*
X28568D01*
X55268Y317986D02*
X71268D01*
X63268Y301986D02*
X64700D01*
X55268D02*
X63268D01*
X166432Y422514D02*
X174432D01*
X158432D02*
X166432D01*
X165000Y406514D02*
X174432D01*
X129282Y318014D02*
X137282D01*
X121282D02*
X129282D01*
X127850Y302014D02*
X137282D01*
M02*
