M48
;L6-L5 LASER BLIND MICROVIAS ONLY - NOT THROUGH DRILL
;UNMIRRORED PCB XY; MM WITH EXPLICIT DECIMAL POINTS
METRIC
T01C0.100
%
G90
G05
T01
X3.609998Y36.285114
X4.195625Y38.072344
X2.590000Y36.360115
X3.073461Y38.194712
X4.553781Y26.630000
X6.201336Y27.321861
X5.036436Y27.649998
X5.824639Y48.330000
X7.824638Y48.330000
X4.833783Y49.349998
X6.833781Y49.349998
X8.771064Y49.114443
X14.666222Y49.349998
X12.666223Y49.349998
X10.728940Y49.114443
X13.675365Y48.330000
X11.675367Y48.330000
X16.909999Y37.060111
X16.426538Y38.894710
X15.890001Y36.985113
X15.304374Y38.772343
X14.463563Y27.649998
X14.946219Y26.630000
X13.298663Y27.321861
X6.050001Y40.939999
X4.050002Y41.959997
X6.050001Y41.959997
X6.209998Y30.837685
X7.269907Y32.148658
X8.684118Y33.562872
X10.098331Y34.977085
X10.609999Y36.800000
X10.609999Y38.799999
X5.190000Y30.837685
X5.975800Y32.297050
X7.390013Y33.711264
X8.804227Y35.125477
X9.590001Y36.800000
X9.590001Y38.799999
X8.635954Y45.314705
X10.864047Y45.314705
X15.450000Y42.659999
X13.450001Y42.659999
X13.450001Y41.640001
X14.212204Y31.561568
X12.824023Y32.997229
X12.710000Y34.949999
X12.710000Y36.950000
X12.710000Y38.949998
X13.050195Y31.328556
X11.720850Y32.802853
X11.690002Y34.799999
X11.690002Y36.800000
X11.690002Y38.799999
X3.775286Y33.664713
X2.424712Y33.664713
X2.424712Y35.015287
X3.775286Y35.015287
X3.775286Y26.464712
X2.424712Y26.464712
X2.424712Y27.815286
X3.775286Y27.815286
X3.775286Y48.164712
X2.424712Y48.164712
X2.424712Y49.515286
X3.775286Y49.515286
X17.075287Y48.164712
X15.724713Y48.164712
X15.724713Y49.515286
X17.075287Y49.515286
X17.075287Y33.664713
X15.724713Y33.664713
X15.724713Y35.015287
X17.075287Y35.015287
X17.075287Y26.464712
X15.724713Y26.464712
X15.724713Y27.815286
X17.075287Y27.815286
M30
