ISO-10303-21;
HEADER;
/* Generated by software containing ST-Developer
 * from STEP Tools, Inc. (www.steptools.com) 
 */

FILE_DESCRIPTION(
/* description */ (''),
/* implementation_level */ '2;1');

FILE_NAME(
/* name */ 'Left_Rod_Support.step',
/* time_stamp */ '2026-09-22T00:05:21-07:00',
/* author */ ('\X2\BC15C815D604\X0\'),
/* organization */ (''),
/* preprocessor_version */ 'ST-DEVELOPER v20.2',
/* originating_system */ 'Autodesk Inventor 2027',
/* authorisation */ '');

FILE_SCHEMA (('AUTOMOTIVE_DESIGN { 1 0 10303 214 3 1 1 }'));
ENDSEC;

DATA;
#10=MECHANICAL_DESIGN_GEOMETRIC_PRESENTATION_REPRESENTATION('',(#13),#594);
#11=SHAPE_REPRESENTATION_RELATIONSHIP('SRR','None',#601,#12);
#12=ADVANCED_BREP_SHAPE_REPRESENTATION('',(#14),#593);
#13=STYLED_ITEM('',(#610),#14);
#14=MANIFOLD_SOLID_BREP('Solid1',#341);
#15=FACE_BOUND('',#72,.T.);
#16=FACE_BOUND('',#73,.T.);
#17=FACE_BOUND('',#74,.T.);
#18=FACE_BOUND('',#75,.T.);
#19=FACE_BOUND('',#82,.T.);
#20=FACE_BOUND('',#83,.T.);
#21=FACE_BOUND('',#84,.T.);
#22=FACE_BOUND('',#85,.T.);
#23=FACE_BOUND('',#87,.T.);
#24=FACE_BOUND('',#88,.T.);
#25=FACE_BOUND('',#89,.T.);
#26=FACE_BOUND('',#90,.T.);
#27=PLANE('',#367);
#28=PLANE('',#371);
#29=PLANE('',#375);
#30=PLANE('',#379);
#31=PLANE('',#392);
#32=PLANE('',#393);
#33=PLANE('',#394);
#34=PLANE('',#395);
#35=PLANE('',#396);
#36=PLANE('',#397);
#37=PLANE('',#398);
#38=PLANE('',#399);
#39=FACE_OUTER_BOUND('',#59,.T.);
#40=FACE_OUTER_BOUND('',#60,.T.);
#41=FACE_OUTER_BOUND('',#61,.T.);
#42=FACE_OUTER_BOUND('',#62,.T.);
#43=FACE_OUTER_BOUND('',#63,.T.);
#44=FACE_OUTER_BOUND('',#64,.T.);
#45=FACE_OUTER_BOUND('',#65,.T.);
#46=FACE_OUTER_BOUND('',#66,.T.);
#47=FACE_OUTER_BOUND('',#67,.T.);
#48=FACE_OUTER_BOUND('',#68,.T.);
#49=FACE_OUTER_BOUND('',#69,.T.);
#50=FACE_OUTER_BOUND('',#70,.T.);
#51=FACE_OUTER_BOUND('',#71,.T.);
#52=FACE_OUTER_BOUND('',#76,.T.);
#53=FACE_OUTER_BOUND('',#77,.T.);
#54=FACE_OUTER_BOUND('',#78,.T.);
#55=FACE_OUTER_BOUND('',#79,.T.);
#56=FACE_OUTER_BOUND('',#80,.T.);
#57=FACE_OUTER_BOUND('',#81,.T.);
#58=FACE_OUTER_BOUND('',#86,.T.);
#59=EDGE_LOOP('',(#229,#230,#231,#232));
#60=EDGE_LOOP('',(#233));
#61=EDGE_LOOP('',(#234,#235,#236,#237));
#62=EDGE_LOOP('',(#238));
#63=EDGE_LOOP('',(#239,#240,#241,#242));
#64=EDGE_LOOP('',(#243));
#65=EDGE_LOOP('',(#244,#245,#246,#247));
#66=EDGE_LOOP('',(#248));
#67=EDGE_LOOP('',(#249,#250,#251,#252));
#68=EDGE_LOOP('',(#253,#254,#255,#256));
#69=EDGE_LOOP('',(#257,#258,#259,#260));
#70=EDGE_LOOP('',(#261,#262,#263,#264));
#71=EDGE_LOOP('',(#265,#266,#267,#268));
#72=EDGE_LOOP('',(#269));
#73=EDGE_LOOP('',(#270));
#74=EDGE_LOOP('',(#271));
#75=EDGE_LOOP('',(#272));
#76=EDGE_LOOP('',(#273,#274,#275,#276));
#77=EDGE_LOOP('',(#277,#278,#279,#280));
#78=EDGE_LOOP('',(#281,#282,#283,#284,#285,#286));
#79=EDGE_LOOP('',(#287,#288,#289,#290));
#80=EDGE_LOOP('',(#291,#292,#293,#294,#295,#296));
#81=EDGE_LOOP('',(#297,#298,#299,#300));
#82=EDGE_LOOP('',(#301));
#83=EDGE_LOOP('',(#302));
#84=EDGE_LOOP('',(#303));
#85=EDGE_LOOP('',(#304));
#86=EDGE_LOOP('',(#305,#306,#307,#308));
#87=EDGE_LOOP('',(#309));
#88=EDGE_LOOP('',(#310));
#89=EDGE_LOOP('',(#311));
#90=EDGE_LOOP('',(#312));
#91=LINE('',#505,#117);
#92=LINE('',#512,#118);
#93=LINE('',#519,#119);
#94=LINE('',#526,#120);
#95=LINE('',#533,#121);
#96=LINE('',#539,#122);
#97=LINE('',#545,#123);
#98=LINE('',#551,#124);
#99=LINE('',#556,#125);
#100=LINE('',#558,#126);
#101=LINE('',#560,#127);
#102=LINE('',#561,#128);
#103=LINE('',#564,#129);
#104=LINE('',#566,#130);
#105=LINE('',#567,#131);
#106=LINE('',#571,#132);
#107=LINE('',#573,#133);
#108=LINE('',#575,#134);
#109=LINE('',#576,#135);
#110=LINE('',#579,#136);
#111=LINE('',#580,#137);
#112=LINE('',#581,#138);
#113=LINE('',#584,#139);
#114=LINE('',#585,#140);
#115=LINE('',#587,#141);
#116=LINE('',#588,#142);
#117=VECTOR('',#406,1.25);
#118=VECTOR('',#415,1.25);
#119=VECTOR('',#424,1.25);
#120=VECTOR('',#433,1.25);
#121=VECTOR('',#442,1.7);
#122=VECTOR('',#449,1.7);
#123=VECTOR('',#456,1.7);
#124=VECTOR('',#463,1.7);
#125=VECTOR('',#468,10.);
#126=VECTOR('',#469,10.);
#127=VECTOR('',#470,10.);
#128=VECTOR('',#471,10.);
#129=VECTOR('',#474,10.);
#130=VECTOR('',#475,10.);
#131=VECTOR('',#476,10.);
#132=VECTOR('',#479,10.);
#133=VECTOR('',#480,10.);
#134=VECTOR('',#481,10.);
#135=VECTOR('',#482,10.);
#136=VECTOR('',#485,10.);
#137=VECTOR('',#486,10.);
#138=VECTOR('',#487,10.);
#139=VECTOR('',#490,10.);
#140=VECTOR('',#491,10.);
#141=VECTOR('',#494,10.);
#142=VECTOR('',#495,10.);
#143=CIRCLE('',#365,1.25);
#144=CIRCLE('',#366,1.25);
#145=CIRCLE('',#369,1.25);
#146=CIRCLE('',#370,1.25);
#147=CIRCLE('',#373,1.25);
#148=CIRCLE('',#374,1.25);
#149=CIRCLE('',#377,1.25);
#150=CIRCLE('',#378,1.25);
#151=CIRCLE('',#381,1.7);
#152=CIRCLE('',#382,1.7);
#153=CIRCLE('',#384,1.7);
#154=CIRCLE('',#385,1.7);
#155=CIRCLE('',#387,1.7);
#156=CIRCLE('',#388,1.7);
#157=CIRCLE('',#390,1.7);
#158=CIRCLE('',#391,1.7);
#159=VERTEX_POINT('',#502);
#160=VERTEX_POINT('',#504);
#161=VERTEX_POINT('',#509);
#162=VERTEX_POINT('',#511);
#163=VERTEX_POINT('',#516);
#164=VERTEX_POINT('',#518);
#165=VERTEX_POINT('',#523);
#166=VERTEX_POINT('',#525);
#167=VERTEX_POINT('',#530);
#168=VERTEX_POINT('',#532);
#169=VERTEX_POINT('',#536);
#170=VERTEX_POINT('',#538);
#171=VERTEX_POINT('',#542);
#172=VERTEX_POINT('',#544);
#173=VERTEX_POINT('',#548);
#174=VERTEX_POINT('',#550);
#175=VERTEX_POINT('',#554);
#176=VERTEX_POINT('',#555);
#177=VERTEX_POINT('',#557);
#178=VERTEX_POINT('',#559);
#179=VERTEX_POINT('',#563);
#180=VERTEX_POINT('',#565);
#181=VERTEX_POINT('',#569);
#182=VERTEX_POINT('',#570);
#183=VERTEX_POINT('',#572);
#184=VERTEX_POINT('',#574);
#185=VERTEX_POINT('',#578);
#186=VERTEX_POINT('',#583);
#187=EDGE_CURVE('',#159,#159,#143,.T.);
#188=EDGE_CURVE('',#159,#160,#91,.T.);
#189=EDGE_CURVE('',#160,#160,#144,.T.);
#190=EDGE_CURVE('',#161,#161,#145,.T.);
#191=EDGE_CURVE('',#161,#162,#92,.T.);
#192=EDGE_CURVE('',#162,#162,#146,.T.);
#193=EDGE_CURVE('',#163,#163,#147,.T.);
#194=EDGE_CURVE('',#163,#164,#93,.T.);
#195=EDGE_CURVE('',#164,#164,#148,.T.);
#196=EDGE_CURVE('',#165,#165,#149,.T.);
#197=EDGE_CURVE('',#165,#166,#94,.T.);
#198=EDGE_CURVE('',#166,#166,#150,.T.);
#199=EDGE_CURVE('',#167,#167,#151,.T.);
#200=EDGE_CURVE('',#167,#168,#95,.T.);
#201=EDGE_CURVE('',#168,#168,#152,.T.);
#202=EDGE_CURVE('',#169,#169,#153,.T.);
#203=EDGE_CURVE('',#169,#170,#96,.T.);
#204=EDGE_CURVE('',#170,#170,#154,.T.);
#205=EDGE_CURVE('',#171,#171,#155,.T.);
#206=EDGE_CURVE('',#171,#172,#97,.T.);
#207=EDGE_CURVE('',#172,#172,#156,.T.);
#208=EDGE_CURVE('',#173,#173,#157,.T.);
#209=EDGE_CURVE('',#173,#174,#98,.T.);
#210=EDGE_CURVE('',#174,#174,#158,.T.);
#211=EDGE_CURVE('',#175,#176,#99,.T.);
#212=EDGE_CURVE('',#177,#175,#100,.T.);
#213=EDGE_CURVE('',#178,#177,#101,.T.);
#214=EDGE_CURVE('',#176,#178,#102,.T.);
#215=EDGE_CURVE('',#177,#179,#103,.T.);
#216=EDGE_CURVE('',#180,#179,#104,.T.);
#217=EDGE_CURVE('',#178,#180,#105,.T.);
#218=EDGE_CURVE('',#181,#182,#106,.T.);
#219=EDGE_CURVE('',#181,#183,#107,.T.);
#220=EDGE_CURVE('',#183,#184,#108,.T.);
#221=EDGE_CURVE('',#182,#184,#109,.T.);
#222=EDGE_CURVE('',#185,#175,#110,.T.);
#223=EDGE_CURVE('',#185,#181,#111,.T.);
#224=EDGE_CURVE('',#179,#182,#112,.T.);
#225=EDGE_CURVE('',#186,#176,#113,.T.);
#226=EDGE_CURVE('',#186,#185,#114,.T.);
#227=EDGE_CURVE('',#183,#186,#115,.T.);
#228=EDGE_CURVE('',#184,#180,#116,.T.);
#229=ORIENTED_EDGE('',*,*,#187,.F.);
#230=ORIENTED_EDGE('',*,*,#188,.T.);
#231=ORIENTED_EDGE('',*,*,#189,.T.);
#232=ORIENTED_EDGE('',*,*,#188,.F.);
#233=ORIENTED_EDGE('',*,*,#189,.F.);
#234=ORIENTED_EDGE('',*,*,#190,.F.);
#235=ORIENTED_EDGE('',*,*,#191,.T.);
#236=ORIENTED_EDGE('',*,*,#192,.T.);
#237=ORIENTED_EDGE('',*,*,#191,.F.);
#238=ORIENTED_EDGE('',*,*,#192,.F.);
#239=ORIENTED_EDGE('',*,*,#193,.F.);
#240=ORIENTED_EDGE('',*,*,#194,.T.);
#241=ORIENTED_EDGE('',*,*,#195,.T.);
#242=ORIENTED_EDGE('',*,*,#194,.F.);
#243=ORIENTED_EDGE('',*,*,#195,.F.);
#244=ORIENTED_EDGE('',*,*,#196,.F.);
#245=ORIENTED_EDGE('',*,*,#197,.T.);
#246=ORIENTED_EDGE('',*,*,#198,.T.);
#247=ORIENTED_EDGE('',*,*,#197,.F.);
#248=ORIENTED_EDGE('',*,*,#198,.F.);
#249=ORIENTED_EDGE('',*,*,#199,.F.);
#250=ORIENTED_EDGE('',*,*,#200,.T.);
#251=ORIENTED_EDGE('',*,*,#201,.F.);
#252=ORIENTED_EDGE('',*,*,#200,.F.);
#253=ORIENTED_EDGE('',*,*,#202,.F.);
#254=ORIENTED_EDGE('',*,*,#203,.T.);
#255=ORIENTED_EDGE('',*,*,#204,.F.);
#256=ORIENTED_EDGE('',*,*,#203,.F.);
#257=ORIENTED_EDGE('',*,*,#205,.F.);
#258=ORIENTED_EDGE('',*,*,#206,.T.);
#259=ORIENTED_EDGE('',*,*,#207,.F.);
#260=ORIENTED_EDGE('',*,*,#206,.F.);
#261=ORIENTED_EDGE('',*,*,#208,.F.);
#262=ORIENTED_EDGE('',*,*,#209,.T.);
#263=ORIENTED_EDGE('',*,*,#210,.F.);
#264=ORIENTED_EDGE('',*,*,#209,.F.);
#265=ORIENTED_EDGE('',*,*,#211,.F.);
#266=ORIENTED_EDGE('',*,*,#212,.F.);
#267=ORIENTED_EDGE('',*,*,#213,.F.);
#268=ORIENTED_EDGE('',*,*,#214,.F.);
#269=ORIENTED_EDGE('',*,*,#199,.T.);
#270=ORIENTED_EDGE('',*,*,#202,.T.);
#271=ORIENTED_EDGE('',*,*,#205,.T.);
#272=ORIENTED_EDGE('',*,*,#208,.T.);
#273=ORIENTED_EDGE('',*,*,#213,.T.);
#274=ORIENTED_EDGE('',*,*,#215,.T.);
#275=ORIENTED_EDGE('',*,*,#216,.F.);
#276=ORIENTED_EDGE('',*,*,#217,.F.);
#277=ORIENTED_EDGE('',*,*,#218,.F.);
#278=ORIENTED_EDGE('',*,*,#219,.T.);
#279=ORIENTED_EDGE('',*,*,#220,.T.);
#280=ORIENTED_EDGE('',*,*,#221,.F.);
#281=ORIENTED_EDGE('',*,*,#222,.F.);
#282=ORIENTED_EDGE('',*,*,#223,.T.);
#283=ORIENTED_EDGE('',*,*,#218,.T.);
#284=ORIENTED_EDGE('',*,*,#224,.F.);
#285=ORIENTED_EDGE('',*,*,#215,.F.);
#286=ORIENTED_EDGE('',*,*,#212,.T.);
#287=ORIENTED_EDGE('',*,*,#211,.T.);
#288=ORIENTED_EDGE('',*,*,#225,.F.);
#289=ORIENTED_EDGE('',*,*,#226,.T.);
#290=ORIENTED_EDGE('',*,*,#222,.T.);
#291=ORIENTED_EDGE('',*,*,#220,.F.);
#292=ORIENTED_EDGE('',*,*,#227,.T.);
#293=ORIENTED_EDGE('',*,*,#225,.T.);
#294=ORIENTED_EDGE('',*,*,#214,.T.);
#295=ORIENTED_EDGE('',*,*,#217,.T.);
#296=ORIENTED_EDGE('',*,*,#228,.F.);
#297=ORIENTED_EDGE('',*,*,#224,.T.);
#298=ORIENTED_EDGE('',*,*,#221,.T.);
#299=ORIENTED_EDGE('',*,*,#228,.T.);
#300=ORIENTED_EDGE('',*,*,#216,.T.);
#301=ORIENTED_EDGE('',*,*,#201,.T.);
#302=ORIENTED_EDGE('',*,*,#204,.T.);
#303=ORIENTED_EDGE('',*,*,#207,.T.);
#304=ORIENTED_EDGE('',*,*,#210,.T.);
#305=ORIENTED_EDGE('',*,*,#223,.F.);
#306=ORIENTED_EDGE('',*,*,#226,.F.);
#307=ORIENTED_EDGE('',*,*,#227,.F.);
#308=ORIENTED_EDGE('',*,*,#219,.F.);
#309=ORIENTED_EDGE('',*,*,#187,.T.);
#310=ORIENTED_EDGE('',*,*,#190,.T.);
#311=ORIENTED_EDGE('',*,*,#193,.T.);
#312=ORIENTED_EDGE('',*,*,#196,.T.);
#313=CYLINDRICAL_SURFACE('',#364,1.25);
#314=CYLINDRICAL_SURFACE('',#368,1.25);
#315=CYLINDRICAL_SURFACE('',#372,1.25);
#316=CYLINDRICAL_SURFACE('',#376,1.25);
#317=CYLINDRICAL_SURFACE('',#380,1.7);
#318=CYLINDRICAL_SURFACE('',#383,1.7);
#319=CYLINDRICAL_SURFACE('',#386,1.7);
#320=CYLINDRICAL_SURFACE('',#389,1.7);
#321=ADVANCED_FACE('',(#39),#313,.F.);
#322=ADVANCED_FACE('',(#40),#27,.F.);
#323=ADVANCED_FACE('',(#41),#314,.F.);
#324=ADVANCED_FACE('',(#42),#28,.F.);
#325=ADVANCED_FACE('',(#43),#315,.F.);
#326=ADVANCED_FACE('',(#44),#29,.F.);
#327=ADVANCED_FACE('',(#45),#316,.F.);
#328=ADVANCED_FACE('',(#46),#30,.F.);
#329=ADVANCED_FACE('',(#47),#317,.F.);
#330=ADVANCED_FACE('',(#48),#318,.F.);
#331=ADVANCED_FACE('',(#49),#319,.F.);
#332=ADVANCED_FACE('',(#50),#320,.F.);
#333=ADVANCED_FACE('',(#51,#15,#16,#17,#18),#31,.F.);
#334=ADVANCED_FACE('',(#52),#32,.T.);
#335=ADVANCED_FACE('',(#53),#33,.T.);
#336=ADVANCED_FACE('',(#54),#34,.T.);
#337=ADVANCED_FACE('',(#55),#35,.T.);
#338=ADVANCED_FACE('',(#56),#36,.T.);
#339=ADVANCED_FACE('',(#57,#19,#20,#21,#22),#37,.T.);
#340=ADVANCED_FACE('',(#58,#23,#24,#25,#26),#38,.F.);
#341=CLOSED_SHELL('',(#321,#322,#323,#324,#325,#326,#327,#328,#329,#330,
#331,#332,#333,#334,#335,#336,#337,#338,#339,#340));
#342=DERIVED_UNIT_ELEMENT(#345,1.);
#343=DERIVED_UNIT_ELEMENT(#596,-3.);
#344=DIMENSIONAL_EXPONENTS(0.,1.,0.,0.,0.,0.,0.);
#345=(
CONVERSION_BASED_UNIT('gram',#347)
MASS_UNIT()
NAMED_UNIT(#344)
);
#346=(
MASS_UNIT()
NAMED_UNIT(*)
SI_UNIT(.KILO.,.GRAM.)
);
#347=MASS_MEASURE_WITH_UNIT(MASS_MEASURE(0.001),#346);
#348=DERIVED_UNIT((#342,#343));
#349=MEASURE_REPRESENTATION_ITEM('density measure',
POSITIVE_RATIO_MEASURE(1.),#348);
#350=PROPERTY_DEFINITION_REPRESENTATION(#355,#352);
#351=PROPERTY_DEFINITION_REPRESENTATION(#356,#353);
#352=REPRESENTATION('material name',(#354),#593);
#353=REPRESENTATION('density',(#349),#593);
#354=DESCRIPTIVE_REPRESENTATION_ITEM('Generic','Generic');
#355=PROPERTY_DEFINITION('material property','material name',#603);
#356=PROPERTY_DEFINITION('material property','density of part',#603);
#357=DATE_TIME_ROLE('creation_date');
#358=APPLIED_DATE_AND_TIME_ASSIGNMENT(#359,#357,(#603));
#359=DATE_AND_TIME(#360,#361);
#360=CALENDAR_DATE(2026,22,9);
#361=LOCAL_TIME(0,0,0.,#362);
#362=COORDINATED_UNIVERSAL_TIME_OFFSET(0,0,.BEHIND.);
#363=AXIS2_PLACEMENT_3D('',#500,#400,#401);
#364=AXIS2_PLACEMENT_3D('',#501,#402,#403);
#365=AXIS2_PLACEMENT_3D('',#503,#404,#405);
#366=AXIS2_PLACEMENT_3D('',#506,#407,#408);
#367=AXIS2_PLACEMENT_3D('',#507,#409,#410);
#368=AXIS2_PLACEMENT_3D('',#508,#411,#412);
#369=AXIS2_PLACEMENT_3D('',#510,#413,#414);
#370=AXIS2_PLACEMENT_3D('',#513,#416,#417);
#371=AXIS2_PLACEMENT_3D('',#514,#418,#419);
#372=AXIS2_PLACEMENT_3D('',#515,#420,#421);
#373=AXIS2_PLACEMENT_3D('',#517,#422,#423);
#374=AXIS2_PLACEMENT_3D('',#520,#425,#426);
#375=AXIS2_PLACEMENT_3D('',#521,#427,#428);
#376=AXIS2_PLACEMENT_3D('',#522,#429,#430);
#377=AXIS2_PLACEMENT_3D('',#524,#431,#432);
#378=AXIS2_PLACEMENT_3D('',#527,#434,#435);
#379=AXIS2_PLACEMENT_3D('',#528,#436,#437);
#380=AXIS2_PLACEMENT_3D('',#529,#438,#439);
#381=AXIS2_PLACEMENT_3D('',#531,#440,#441);
#382=AXIS2_PLACEMENT_3D('',#534,#443,#444);
#383=AXIS2_PLACEMENT_3D('',#535,#445,#446);
#384=AXIS2_PLACEMENT_3D('',#537,#447,#448);
#385=AXIS2_PLACEMENT_3D('',#540,#450,#451);
#386=AXIS2_PLACEMENT_3D('',#541,#452,#453);
#387=AXIS2_PLACEMENT_3D('',#543,#454,#455);
#388=AXIS2_PLACEMENT_3D('',#546,#457,#458);
#389=AXIS2_PLACEMENT_3D('',#547,#459,#460);
#390=AXIS2_PLACEMENT_3D('',#549,#461,#462);
#391=AXIS2_PLACEMENT_3D('',#552,#464,#465);
#392=AXIS2_PLACEMENT_3D('',#553,#466,#467);
#393=AXIS2_PLACEMENT_3D('',#562,#472,#473);
#394=AXIS2_PLACEMENT_3D('',#568,#477,#478);
#395=AXIS2_PLACEMENT_3D('',#577,#483,#484);
#396=AXIS2_PLACEMENT_3D('',#582,#488,#489);
#397=AXIS2_PLACEMENT_3D('',#586,#492,#493);
#398=AXIS2_PLACEMENT_3D('',#589,#496,#497);
#399=AXIS2_PLACEMENT_3D('',#590,#498,#499);
#400=DIRECTION('axis',(0.,0.,1.));
#401=DIRECTION('refdir',(1.,0.,0.));
#402=DIRECTION('center_axis',(0.,0.,1.));
#403=DIRECTION('ref_axis',(-1.,0.,0.));
#404=DIRECTION('center_axis',(0.,0.,1.));
#405=DIRECTION('ref_axis',(-1.,0.,0.));
#406=DIRECTION('',(0.,0.,1.));
#407=DIRECTION('center_axis',(0.,0.,1.));
#408=DIRECTION('ref_axis',(-1.,0.,0.));
#409=DIRECTION('center_axis',(0.,0.,1.));
#410=DIRECTION('ref_axis',(1.,0.,0.));
#411=DIRECTION('center_axis',(0.,0.,1.));
#412=DIRECTION('ref_axis',(-1.,0.,0.));
#413=DIRECTION('center_axis',(0.,0.,1.));
#414=DIRECTION('ref_axis',(-1.,0.,0.));
#415=DIRECTION('',(0.,0.,1.));
#416=DIRECTION('center_axis',(0.,0.,1.));
#417=DIRECTION('ref_axis',(-1.,0.,0.));
#418=DIRECTION('center_axis',(0.,0.,1.));
#419=DIRECTION('ref_axis',(1.,0.,0.));
#420=DIRECTION('center_axis',(0.,0.,1.));
#421=DIRECTION('ref_axis',(-1.,0.,0.));
#422=DIRECTION('center_axis',(0.,0.,1.));
#423=DIRECTION('ref_axis',(-1.,0.,0.));
#424=DIRECTION('',(0.,0.,1.));
#425=DIRECTION('center_axis',(0.,0.,1.));
#426=DIRECTION('ref_axis',(-1.,0.,0.));
#427=DIRECTION('center_axis',(0.,0.,1.));
#428=DIRECTION('ref_axis',(1.,0.,0.));
#429=DIRECTION('center_axis',(0.,0.,1.));
#430=DIRECTION('ref_axis',(-1.,0.,0.));
#431=DIRECTION('center_axis',(0.,0.,1.));
#432=DIRECTION('ref_axis',(-1.,0.,0.));
#433=DIRECTION('',(0.,0.,1.));
#434=DIRECTION('center_axis',(0.,0.,1.));
#435=DIRECTION('ref_axis',(-1.,0.,0.));
#436=DIRECTION('center_axis',(0.,0.,1.));
#437=DIRECTION('ref_axis',(1.,0.,0.));
#438=DIRECTION('center_axis',(0.,0.,1.));
#439=DIRECTION('ref_axis',(-1.,0.,0.));
#440=DIRECTION('center_axis',(0.,0.,1.));
#441=DIRECTION('ref_axis',(-1.,0.,0.));
#442=DIRECTION('',(0.,0.,1.));
#443=DIRECTION('center_axis',(0.,0.,-1.));
#444=DIRECTION('ref_axis',(-1.,0.,0.));
#445=DIRECTION('center_axis',(0.,0.,1.));
#446=DIRECTION('ref_axis',(-1.,0.,0.));
#447=DIRECTION('center_axis',(0.,0.,1.));
#448=DIRECTION('ref_axis',(-1.,0.,0.));
#449=DIRECTION('',(0.,0.,1.));
#450=DIRECTION('center_axis',(0.,0.,-1.));
#451=DIRECTION('ref_axis',(-1.,0.,0.));
#452=DIRECTION('center_axis',(0.,0.,1.));
#453=DIRECTION('ref_axis',(-1.,0.,0.));
#454=DIRECTION('center_axis',(0.,0.,1.));
#455=DIRECTION('ref_axis',(-1.,0.,0.));
#456=DIRECTION('',(0.,0.,1.));
#457=DIRECTION('center_axis',(0.,0.,-1.));
#458=DIRECTION('ref_axis',(-1.,0.,0.));
#459=DIRECTION('center_axis',(0.,0.,1.));
#460=DIRECTION('ref_axis',(-1.,0.,0.));
#461=DIRECTION('center_axis',(0.,0.,1.));
#462=DIRECTION('ref_axis',(-1.,0.,0.));
#463=DIRECTION('',(0.,0.,1.));
#464=DIRECTION('center_axis',(0.,0.,-1.));
#465=DIRECTION('ref_axis',(-1.,0.,0.));
#466=DIRECTION('center_axis',(0.,0.,1.));
#467=DIRECTION('ref_axis',(1.,0.,0.));
#468=DIRECTION('',(0.,1.,0.));
#469=DIRECTION('',(1.,0.,0.));
#470=DIRECTION('',(0.,-1.,0.));
#471=DIRECTION('',(-1.,0.,0.));
#472=DIRECTION('center_axis',(-1.,0.,0.));
#473=DIRECTION('ref_axis',(0.,-1.,0.));
#474=DIRECTION('',(0.,0.,1.));
#475=DIRECTION('',(0.,-1.,0.));
#476=DIRECTION('',(0.,0.,1.));
#477=DIRECTION('center_axis',(1.,0.,0.));
#478=DIRECTION('ref_axis',(0.,1.,0.));
#479=DIRECTION('',(0.,0.,1.));
#480=DIRECTION('',(0.,1.,0.));
#481=DIRECTION('',(0.,0.,1.));
#482=DIRECTION('',(0.,1.,0.));
#483=DIRECTION('center_axis',(0.,-1.,0.));
#484=DIRECTION('ref_axis',(1.,0.,0.));
#485=DIRECTION('',(0.,0.,1.));
#486=DIRECTION('',(1.,0.,0.));
#487=DIRECTION('',(1.,0.,0.));
#488=DIRECTION('center_axis',(-1.,0.,0.));
#489=DIRECTION('ref_axis',(0.,-1.,0.));
#490=DIRECTION('',(0.,0.,1.));
#491=DIRECTION('',(0.,-1.,0.));
#492=DIRECTION('center_axis',(0.,1.,0.));
#493=DIRECTION('ref_axis',(-1.,0.,0.));
#494=DIRECTION('',(-1.,0.,0.));
#495=DIRECTION('',(-1.,0.,0.));
#496=DIRECTION('center_axis',(0.,0.,1.));
#497=DIRECTION('ref_axis',(1.,0.,0.));
#498=DIRECTION('center_axis',(0.,0.,1.));
#499=DIRECTION('ref_axis',(1.,0.,0.));
#500=CARTESIAN_POINT('',(0.,0.,0.));
#501=CARTESIAN_POINT('Origin',(9.5,50.,4.));
#502=CARTESIAN_POINT('',(10.75,50.,4.));
#503=CARTESIAN_POINT('Origin',(9.5,50.,4.));
#504=CARTESIAN_POINT('',(10.75,50.,10.5));
#505=CARTESIAN_POINT('',(10.75,50.,4.));
#506=CARTESIAN_POINT('Origin',(9.5,50.,10.5));
#507=CARTESIAN_POINT('Origin',(9.5,50.,10.5));
#508=CARTESIAN_POINT('Origin',(9.5,10.,4.));
#509=CARTESIAN_POINT('',(10.75,10.,4.));
#510=CARTESIAN_POINT('Origin',(9.5,10.,4.));
#511=CARTESIAN_POINT('',(10.75,10.,10.5));
#512=CARTESIAN_POINT('',(10.75,10.,4.));
#513=CARTESIAN_POINT('Origin',(9.5,10.,10.5));
#514=CARTESIAN_POINT('Origin',(9.5,10.,10.5));
#515=CARTESIAN_POINT('Origin',(9.5,30.,4.));
#516=CARTESIAN_POINT('',(10.75,30.,4.));
#517=CARTESIAN_POINT('Origin',(9.5,30.,4.));
#518=CARTESIAN_POINT('',(10.75,30.,10.5));
#519=CARTESIAN_POINT('',(10.75,30.,4.));
#520=CARTESIAN_POINT('Origin',(9.5,30.,10.5));
#521=CARTESIAN_POINT('Origin',(9.5,30.,10.5));
#522=CARTESIAN_POINT('Origin',(9.5,70.,4.));
#523=CARTESIAN_POINT('',(10.75,70.,4.));
#524=CARTESIAN_POINT('Origin',(9.5,70.,4.));
#525=CARTESIAN_POINT('',(10.75,70.,10.5));
#526=CARTESIAN_POINT('',(10.75,70.,4.));
#527=CARTESIAN_POINT('Origin',(9.5,70.,10.5));
#528=CARTESIAN_POINT('Origin',(9.5,70.,10.5));
#529=CARTESIAN_POINT('Origin',(3.,45.,0.));
#530=CARTESIAN_POINT('',(4.7,45.,8.5));
#531=CARTESIAN_POINT('Origin',(3.,45.,8.5));
#532=CARTESIAN_POINT('',(4.7,45.,12.5));
#533=CARTESIAN_POINT('',(4.7,45.,0.));
#534=CARTESIAN_POINT('Origin',(3.,45.,12.5));
#535=CARTESIAN_POINT('Origin',(3.,5.,0.));
#536=CARTESIAN_POINT('',(4.7,5.,8.5));
#537=CARTESIAN_POINT('Origin',(3.,5.,8.5));
#538=CARTESIAN_POINT('',(4.7,5.,12.5));
#539=CARTESIAN_POINT('',(4.7,5.,0.));
#540=CARTESIAN_POINT('Origin',(3.,5.,12.5));
#541=CARTESIAN_POINT('Origin',(3.,25.,0.));
#542=CARTESIAN_POINT('',(4.7,25.,8.5));
#543=CARTESIAN_POINT('Origin',(3.,25.,8.5));
#544=CARTESIAN_POINT('',(4.7,25.,12.5));
#545=CARTESIAN_POINT('',(4.7,25.,0.));
#546=CARTESIAN_POINT('Origin',(3.,25.,12.5));
#547=CARTESIAN_POINT('Origin',(3.,65.,0.));
#548=CARTESIAN_POINT('',(4.7,65.,8.5));
#549=CARTESIAN_POINT('Origin',(3.,65.,8.5));
#550=CARTESIAN_POINT('',(4.7,65.,12.5));
#551=CARTESIAN_POINT('',(4.7,65.,0.));
#552=CARTESIAN_POINT('Origin',(3.,65.,12.5));
#553=CARTESIAN_POINT('Origin',(6.,40.,8.5));
#554=CARTESIAN_POINT('',(6.,0.,8.5));
#555=CARTESIAN_POINT('',(6.,80.,8.5));
#556=CARTESIAN_POINT('',(6.,60.,8.5));
#557=CARTESIAN_POINT('',(0.,0.,8.5));
#558=CARTESIAN_POINT('',(0.,0.,8.5));
#559=CARTESIAN_POINT('',(0.,80.,8.5));
#560=CARTESIAN_POINT('',(0.,80.,8.5));
#561=CARTESIAN_POINT('',(12.,80.,8.5));
#562=CARTESIAN_POINT('Origin',(0.,80.,8.5));
#563=CARTESIAN_POINT('',(0.,0.,12.5));
#564=CARTESIAN_POINT('',(0.,0.,8.5));
#565=CARTESIAN_POINT('',(0.,80.,12.5));
#566=CARTESIAN_POINT('',(0.,80.,12.5));
#567=CARTESIAN_POINT('',(0.,80.,8.5));
#568=CARTESIAN_POINT('Origin',(12.,0.,4.));
#569=CARTESIAN_POINT('',(12.,0.,4.));
#570=CARTESIAN_POINT('',(12.,0.,12.5));
#571=CARTESIAN_POINT('',(12.,0.,4.));
#572=CARTESIAN_POINT('',(12.,80.,4.));
#573=CARTESIAN_POINT('',(12.,0.,4.));
#574=CARTESIAN_POINT('',(12.,80.,12.5));
#575=CARTESIAN_POINT('',(12.,80.,4.));
#576=CARTESIAN_POINT('',(12.,0.,12.5));
#577=CARTESIAN_POINT('Origin',(6.,0.,4.));
#578=CARTESIAN_POINT('',(6.,0.,4.));
#579=CARTESIAN_POINT('',(6.,0.,4.));
#580=CARTESIAN_POINT('',(6.,0.,4.));
#581=CARTESIAN_POINT('',(0.,0.,12.5));
#582=CARTESIAN_POINT('Origin',(6.,80.,4.));
#583=CARTESIAN_POINT('',(6.,80.,4.));
#584=CARTESIAN_POINT('',(6.,80.,4.));
#585=CARTESIAN_POINT('',(6.,80.,4.));
#586=CARTESIAN_POINT('Origin',(12.,80.,4.));
#587=CARTESIAN_POINT('',(12.,80.,4.));
#588=CARTESIAN_POINT('',(12.,80.,12.5));
#589=CARTESIAN_POINT('Origin',(9.,40.,12.5));
#590=CARTESIAN_POINT('Origin',(9.,40.,4.));
#591=UNCERTAINTY_MEASURE_WITH_UNIT(LENGTH_MEASURE(0.01),#595,
'DISTANCE_ACCURACY_VALUE',
'Maximum model space distance between geometric entities at asserted c
onnectivities');
#592=UNCERTAINTY_MEASURE_WITH_UNIT(LENGTH_MEASURE(0.01),#595,
'DISTANCE_ACCURACY_VALUE',
'Maximum model space distance between geometric entities at asserted c
onnectivities');
#593=(
GEOMETRIC_REPRESENTATION_CONTEXT(3)
GLOBAL_UNCERTAINTY_ASSIGNED_CONTEXT((#591))
GLOBAL_UNIT_ASSIGNED_CONTEXT((#595,#597,#598))
REPRESENTATION_CONTEXT('','3D')
);
#594=(
GEOMETRIC_REPRESENTATION_CONTEXT(3)
GLOBAL_UNCERTAINTY_ASSIGNED_CONTEXT((#592))
GLOBAL_UNIT_ASSIGNED_CONTEXT((#595,#597,#598))
REPRESENTATION_CONTEXT('','3D')
);
#595=(
LENGTH_UNIT()
NAMED_UNIT(*)
SI_UNIT(.MILLI.,.METRE.)
);
#596=(
LENGTH_UNIT()
NAMED_UNIT(*)
SI_UNIT(.CENTI.,.METRE.)
);
#597=(
NAMED_UNIT(*)
PLANE_ANGLE_UNIT()
SI_UNIT($,.RADIAN.)
);
#598=(
NAMED_UNIT(*)
SI_UNIT($,.STERADIAN.)
SOLID_ANGLE_UNIT()
);
#599=SHAPE_DEFINITION_REPRESENTATION(#600,#601);
#600=PRODUCT_DEFINITION_SHAPE('',$,#603);
#601=SHAPE_REPRESENTATION('',(#363),#593);
#602=PRODUCT_DEFINITION_CONTEXT('part definition',#607,'design');
#603=PRODUCT_DEFINITION('Left_Rod_Support','Left_Rod_Support',#604,#602);
#604=PRODUCT_DEFINITION_FORMATION('',$,#609);
#605=PRODUCT_RELATED_PRODUCT_CATEGORY('Left_Rod_Support',
'Left_Rod_Support',(#609));
#606=APPLICATION_PROTOCOL_DEFINITION('international standard',
'automotive_design',2009,#607);
#607=APPLICATION_CONTEXT(
'Core Data for Automotive Mechanical Design Process');
#608=PRODUCT_CONTEXT('part definition',#607,'mechanical');
#609=PRODUCT('Left_Rod_Support','Left_Rod_Support',$,(#608));
#610=PRESENTATION_STYLE_ASSIGNMENT((#611));
#611=SURFACE_STYLE_USAGE(.BOTH.,#614);
#612=SURFACE_STYLE_RENDERING_WITH_PROPERTIES($,#618,(#613));
#613=SURFACE_STYLE_TRANSPARENT(0.);
#614=SURFACE_SIDE_STYLE('',(#615,#612));
#615=SURFACE_STYLE_FILL_AREA(#616);
#616=FILL_AREA_STYLE('',(#617));
#617=FILL_AREA_STYLE_COLOUR('',#618);
#618=COLOUR_RGB('',0.235294117647059,0.647058823529412,0.603921568627451);
ENDSEC;
END-ISO-10303-21;
