M48
;Layer_Color=9474304
;FILE_FORMAT=4:4
METRIC,TZ
;TYPE=PLATED
T02F00S00C0.2500
T03F00S00C0.7500
T04F00S00C2.1000
T05F00S00C4.0000
%
T02
X25500Y73000
X37500
X49500
X61500
X73500
X85500
X97500
X109500
X121500
X133500
X145500
X157500
X163500Y81000
X151500
X139500
X127500
X115500
X103500
X91500
X79500
X67500
X55500
X43500
X31500
X54700Y310000
X137850Y310000
X115000Y396500
X108000
X94000
X87000
X80000
X73000
X69000Y407500
Y421500
Y428500
Y435500
Y442500
Y449500
X68000Y484000
X127000Y484000
X126000Y449500
Y442500
Y435500
Y428500
Y414500
Y407500
X175000Y414500
X20000Y407500
T03
X18300Y258700
X31000Y271400
X18300Y284100
X43700
Y258700
Y330700
X31000Y343400
X18300Y356100
Y330700
X43700Y356100
X151300
Y330700
X176700
Y356100
X164000Y343400
X151300Y284100
Y258700
X176700
Y284100
X164000Y271400
X151300Y475700
Y501100
X176700
Y475700
X164000Y488400
X151300Y550700
Y576100
X176700
Y550700
X164000Y563400
X43700Y576100
X18300
Y550700
X43700
X31000Y563400
X18300Y501100
Y475700
X43700
Y501100
X31000Y488400
T04
X24250Y131900
X170750
Y653400
X24250
T05
X34250Y180900
X160750
M30
