G04*
G04 #@! TF.GenerationSoftware,Altium Limited,Altium Designer,26.10.1 (5)*
G04*
G04 Layer_Physical_Order=1*
G04 Layer_Color=255*
G04 Board_Origin=0|0*
%FSLAX44Y44*%
%MOMM*%
G71*
G04*
G04 #@! TF.SameCoordinates,9B7260D7-21BE-43D8-8C5E-6D3923CDBC3B*
G04*
G04*
G04 #@! TF.FilePolarity,Positive*
G04*
G01*
G75*
%ADD14R,0.3500X1.0000*%
%ADD15R,0.3000X0.5000*%
%ADD16R,0.3000X0.6700*%
%ADD20C,0.1500*%
%ADD21C,1.0000*%
%ADD22C,3.0000*%
%ADD23C,5.0000*%
%ADD24C,0.5000*%
G36*
X192000Y3000D02*
X3000D01*
Y676000D01*
X192000D01*
Y3000D01*
D02*
G37*
%LPC*%
G36*
X177970Y583538D02*
Y577370D01*
X184138D01*
X184046Y578068D01*
X183286Y579902D01*
X182078Y581478D01*
X180502Y582686D01*
X178668Y583446D01*
X177970Y583538D01*
D02*
G37*
G36*
X150030D02*
X149332Y583446D01*
X147498Y582686D01*
X145922Y581478D01*
X144714Y579902D01*
X143954Y578068D01*
X143862Y577370D01*
X150030D01*
Y583538D01*
D02*
G37*
G36*
X44970D02*
Y577370D01*
X51138D01*
X51046Y578068D01*
X50286Y579902D01*
X49078Y581478D01*
X47502Y582686D01*
X45668Y583446D01*
X44970Y583538D01*
D02*
G37*
G36*
X17030D02*
X16332Y583446D01*
X14497Y582686D01*
X12922Y581478D01*
X11714Y579902D01*
X10954Y578068D01*
X10862Y577370D01*
X17030D01*
Y583538D01*
D02*
G37*
G36*
X175430D02*
X174732Y583446D01*
X172897Y582686D01*
X171322Y581478D01*
X170114Y579902D01*
X169354Y578068D01*
X169095Y576100D01*
X168920Y575900D01*
X159080D01*
X158905Y576100D01*
X158646Y578068D01*
X157886Y579902D01*
X156678Y581478D01*
X155103Y582686D01*
X153268Y583446D01*
X152570Y583538D01*
Y576100D01*
X151300D01*
Y574830D01*
X143862D01*
X143954Y574132D01*
X144714Y572298D01*
X145922Y570722D01*
X147498Y569514D01*
X149332Y568754D01*
X151300Y568495D01*
X151500Y568320D01*
Y558480D01*
X151300Y558305D01*
X149332Y558046D01*
X147498Y557286D01*
X145922Y556078D01*
X144714Y554502D01*
X143954Y552668D01*
X143862Y551970D01*
X151300D01*
Y550700D01*
X152570D01*
Y543262D01*
X153268Y543354D01*
X155103Y544114D01*
X156678Y545322D01*
X157886Y546898D01*
X158646Y548732D01*
X158905Y550700D01*
X159080Y550900D01*
X168920D01*
X169095Y550700D01*
X169354Y548732D01*
X170114Y546898D01*
X171322Y545322D01*
X172897Y544114D01*
X174732Y543354D01*
X175430Y543262D01*
Y550700D01*
X176700D01*
Y551970D01*
X184138D01*
X184046Y552668D01*
X183286Y554502D01*
X182078Y556078D01*
X180502Y557286D01*
X178668Y558046D01*
X176700Y558305D01*
X176500Y558480D01*
Y568320D01*
X176700Y568495D01*
X178668Y568754D01*
X180502Y569514D01*
X182078Y570722D01*
X183286Y572298D01*
X184046Y574132D01*
X184138Y574830D01*
X176700D01*
Y576100D01*
X175430D01*
Y583538D01*
D02*
G37*
G36*
X42430D02*
X41732Y583446D01*
X39897Y582686D01*
X38322Y581478D01*
X37114Y579902D01*
X36354Y578068D01*
X36095Y576100D01*
X35919Y575900D01*
X26081D01*
X25905Y576100D01*
X25646Y578068D01*
X24886Y579902D01*
X23678Y581478D01*
X22102Y582686D01*
X20268Y583446D01*
X19570Y583538D01*
Y576100D01*
X18300D01*
Y574830D01*
X10862D01*
X10954Y574132D01*
X11714Y572298D01*
X12922Y570722D01*
X14497Y569514D01*
X16332Y568754D01*
X18300Y568495D01*
X18500Y568320D01*
Y558480D01*
X18300Y558305D01*
X16332Y558046D01*
X14497Y557286D01*
X12922Y556078D01*
X11714Y554502D01*
X10954Y552668D01*
X10862Y551970D01*
X18300D01*
Y550700D01*
X19570D01*
Y543262D01*
X20268Y543354D01*
X22102Y544114D01*
X23678Y545322D01*
X24886Y546898D01*
X25646Y548732D01*
X25905Y550700D01*
X26081Y550900D01*
X35919D01*
X36095Y550700D01*
X36354Y548732D01*
X37114Y546898D01*
X38322Y545322D01*
X39897Y544114D01*
X41732Y543354D01*
X42430Y543262D01*
Y550700D01*
X43700D01*
Y551970D01*
X51138D01*
X51046Y552668D01*
X50286Y554502D01*
X49078Y556078D01*
X47502Y557286D01*
X45668Y558046D01*
X43700Y558305D01*
X43500Y558480D01*
Y568320D01*
X43700Y568495D01*
X45668Y568754D01*
X47502Y569514D01*
X49078Y570722D01*
X50286Y572298D01*
X51046Y574132D01*
X51138Y574830D01*
X43700D01*
Y576100D01*
X42430D01*
Y583538D01*
D02*
G37*
G36*
X184138Y549430D02*
X177970D01*
Y543262D01*
X178668Y543354D01*
X180502Y544114D01*
X182078Y545322D01*
X183286Y546898D01*
X184046Y548732D01*
X184138Y549430D01*
D02*
G37*
G36*
X150030D02*
X143862D01*
X143954Y548732D01*
X144714Y546898D01*
X145922Y545322D01*
X147498Y544114D01*
X149332Y543354D01*
X150030Y543262D01*
Y549430D01*
D02*
G37*
G36*
X51138D02*
X44970D01*
Y543262D01*
X45668Y543354D01*
X47502Y544114D01*
X49078Y545322D01*
X50286Y546898D01*
X51046Y548732D01*
X51138Y549430D01*
D02*
G37*
G36*
X17030D02*
X10862D01*
X10954Y548732D01*
X11714Y546898D01*
X12922Y545322D01*
X14497Y544114D01*
X16332Y543354D01*
X17030Y543262D01*
Y549430D01*
D02*
G37*
G36*
X177970Y508538D02*
Y502370D01*
X184138D01*
X184046Y503068D01*
X183286Y504902D01*
X182078Y506478D01*
X180502Y507686D01*
X178668Y508446D01*
X177970Y508538D01*
D02*
G37*
G36*
X150030D02*
X149332Y508446D01*
X147498Y507686D01*
X145922Y506478D01*
X144714Y504902D01*
X143954Y503068D01*
X143862Y502370D01*
X150030D01*
Y508538D01*
D02*
G37*
G36*
X44970D02*
Y502370D01*
X51138D01*
X51046Y503068D01*
X50286Y504902D01*
X49078Y506478D01*
X47502Y507686D01*
X45668Y508446D01*
X44970Y508538D01*
D02*
G37*
G36*
X17030D02*
X16332Y508446D01*
X14497Y507686D01*
X12922Y506478D01*
X11714Y504902D01*
X10954Y503068D01*
X10862Y502370D01*
X17030D01*
Y508538D01*
D02*
G37*
G36*
X175430D02*
X174732Y508446D01*
X172897Y507686D01*
X171322Y506478D01*
X170114Y504902D01*
X169354Y503068D01*
X169095Y501100D01*
X168920Y500900D01*
X159080D01*
X158905Y501100D01*
X158646Y503068D01*
X157886Y504902D01*
X156678Y506478D01*
X155103Y507686D01*
X153268Y508446D01*
X152570Y508538D01*
Y501100D01*
X151300D01*
Y499830D01*
X143862D01*
X143954Y499132D01*
X144714Y497298D01*
X145922Y495722D01*
X147498Y494514D01*
X149332Y493754D01*
X151300Y493495D01*
X151500Y493320D01*
Y483480D01*
X151300Y483305D01*
X149332Y483046D01*
X147498Y482286D01*
X145922Y481078D01*
X144714Y479502D01*
X143954Y477668D01*
X143862Y476970D01*
X151300D01*
Y475700D01*
X152570D01*
Y468262D01*
X153268Y468354D01*
X155103Y469114D01*
X156678Y470322D01*
X157886Y471898D01*
X158646Y473732D01*
X158905Y475700D01*
X159080Y475900D01*
X168920D01*
X169095Y475700D01*
X169354Y473732D01*
X170114Y471898D01*
X171322Y470322D01*
X172897Y469114D01*
X174732Y468354D01*
X175430Y468262D01*
Y475700D01*
X176700D01*
Y476970D01*
X184138D01*
X184046Y477668D01*
X183286Y479502D01*
X182078Y481078D01*
X180502Y482286D01*
X178668Y483046D01*
X176700Y483305D01*
X176500Y483480D01*
Y493320D01*
X176700Y493495D01*
X178668Y493754D01*
X180502Y494514D01*
X182078Y495722D01*
X183286Y497298D01*
X184046Y499132D01*
X184138Y499830D01*
X176700D01*
Y501100D01*
X175430D01*
Y508538D01*
D02*
G37*
G36*
X42430D02*
X41732Y508446D01*
X39897Y507686D01*
X38322Y506478D01*
X37114Y504902D01*
X36354Y503068D01*
X36095Y501100D01*
X35919Y500900D01*
X26081D01*
X25905Y501100D01*
X25646Y503068D01*
X24886Y504902D01*
X23678Y506478D01*
X22102Y507686D01*
X20268Y508446D01*
X19570Y508538D01*
Y501100D01*
X18300D01*
Y499830D01*
X10862D01*
X10954Y499132D01*
X11714Y497298D01*
X12922Y495722D01*
X14497Y494514D01*
X16332Y493754D01*
X18300Y493495D01*
X18500Y493320D01*
Y483480D01*
X18300Y483305D01*
X16332Y483046D01*
X14497Y482286D01*
X12922Y481078D01*
X11714Y479502D01*
X10954Y477668D01*
X10862Y476970D01*
X18300D01*
Y475700D01*
X19570D01*
Y468262D01*
X20268Y468354D01*
X22102Y469114D01*
X23678Y470322D01*
X24886Y471898D01*
X25646Y473732D01*
X25905Y475700D01*
X26081Y475900D01*
X35919D01*
X36095Y475700D01*
X36354Y473732D01*
X37114Y471898D01*
X38322Y470322D01*
X39897Y469114D01*
X41732Y468354D01*
X42430Y468262D01*
Y475700D01*
X43700D01*
Y476970D01*
X51138D01*
X51046Y477668D01*
X50286Y479502D01*
X49078Y481078D01*
X47502Y482286D01*
X45668Y483046D01*
X43700Y483305D01*
X43500Y483480D01*
Y493320D01*
X43700Y493495D01*
X45668Y493754D01*
X47502Y494514D01*
X49078Y495722D01*
X50286Y497298D01*
X51046Y499132D01*
X51138Y499830D01*
X43700D01*
Y501100D01*
X42430D01*
Y508538D01*
D02*
G37*
G36*
X68000Y488078D02*
X66439Y487768D01*
X65116Y486884D01*
X64232Y485561D01*
X63922Y484000D01*
X64232Y482439D01*
X65116Y481116D01*
X66439Y480232D01*
X68000Y479922D01*
X69561Y480232D01*
X70884Y481116D01*
X71768Y482439D01*
X72078Y484000D01*
X71768Y485561D01*
X70884Y486884D01*
X69561Y487768D01*
X68000Y488078D01*
D02*
G37*
G36*
X127000Y488078D02*
X125439Y487768D01*
X124116Y486884D01*
X123232Y485561D01*
X122922Y484000D01*
X123232Y482439D01*
X124116Y481116D01*
X125439Y480232D01*
X127000Y479922D01*
X128561Y480232D01*
X129884Y481116D01*
X130768Y482439D01*
X131078Y484000D01*
X130768Y485561D01*
X129884Y486884D01*
X128561Y487768D01*
X127000Y488078D01*
D02*
G37*
G36*
X184138Y474430D02*
X177970D01*
Y468262D01*
X178668Y468354D01*
X180502Y469114D01*
X182078Y470322D01*
X183286Y471898D01*
X184046Y473732D01*
X184138Y474430D01*
D02*
G37*
G36*
X150030D02*
X143862D01*
X143954Y473732D01*
X144714Y471898D01*
X145922Y470322D01*
X147498Y469114D01*
X149332Y468354D01*
X150030Y468262D01*
Y474430D01*
D02*
G37*
G36*
X51138D02*
X44970D01*
Y468262D01*
X45668Y468354D01*
X47502Y469114D01*
X49078Y470322D01*
X50286Y471898D01*
X51046Y473732D01*
X51138Y474430D01*
D02*
G37*
G36*
X17030D02*
X10862D01*
X10954Y473732D01*
X11714Y471898D01*
X12922Y470322D01*
X14497Y469114D01*
X16332Y468354D01*
X17030Y468262D01*
Y474430D01*
D02*
G37*
G36*
X126000Y453578D02*
X124439Y453268D01*
X123116Y452384D01*
X122232Y451061D01*
X121922Y449500D01*
X122232Y447939D01*
X123116Y446616D01*
Y445384D01*
X122232Y444061D01*
X121922Y442500D01*
X122232Y440939D01*
X122980Y439820D01*
X123106Y439000D01*
X122980Y438180D01*
X122232Y437061D01*
X121922Y435500D01*
X122232Y433939D01*
X123116Y432616D01*
Y431384D01*
X122232Y430061D01*
X121922Y428500D01*
X122232Y426939D01*
X123116Y425616D01*
X124439Y424732D01*
X126000Y424422D01*
X127561Y424732D01*
X128884Y425616D01*
X129768Y426939D01*
X130078Y428500D01*
X129768Y430061D01*
X128884Y431384D01*
Y432616D01*
X129768Y433939D01*
X130078Y435500D01*
X129768Y437061D01*
X129020Y438180D01*
X128894Y439000D01*
X129020Y439820D01*
X129768Y440939D01*
X130078Y442500D01*
X129768Y444061D01*
X128884Y445384D01*
Y446616D01*
X129768Y447939D01*
X130078Y449500D01*
X129768Y451061D01*
X128884Y452384D01*
X127561Y453268D01*
X126000Y453578D01*
D02*
G37*
G36*
X69000D02*
X67439Y453268D01*
X66116Y452384D01*
X65232Y451061D01*
X64922Y449500D01*
X65232Y447939D01*
X65980Y446820D01*
X66106Y446000D01*
X65980Y445180D01*
X65232Y444061D01*
X64922Y442500D01*
X65232Y440939D01*
X66116Y439616D01*
Y438384D01*
X65232Y437061D01*
X64922Y435500D01*
X65232Y433939D01*
X65980Y432820D01*
X66106Y432000D01*
X65980Y431180D01*
X65232Y430061D01*
X64922Y428500D01*
X65232Y426939D01*
X66116Y425616D01*
Y424384D01*
X65232Y423061D01*
X64922Y421500D01*
X65232Y419939D01*
X66116Y418616D01*
X67439Y417732D01*
X69000Y417422D01*
X70561Y417732D01*
X71884Y418616D01*
X72768Y419939D01*
X73078Y421500D01*
X72768Y423061D01*
X71884Y424384D01*
Y425616D01*
X72768Y426939D01*
X73078Y428500D01*
X72768Y430061D01*
X72020Y431180D01*
X71894Y432000D01*
X72020Y432820D01*
X72768Y433939D01*
X73078Y435500D01*
X72768Y437061D01*
X71884Y438384D01*
Y439616D01*
X72768Y440939D01*
X73078Y442500D01*
X72768Y444061D01*
X72020Y445180D01*
X71894Y446000D01*
X72020Y446820D01*
X72768Y447939D01*
X73078Y449500D01*
X72768Y451061D01*
X71884Y452384D01*
X70561Y453268D01*
X69000Y453578D01*
D02*
G37*
G36*
X175000Y418578D02*
X173439Y418268D01*
X172116Y417384D01*
X171232Y416061D01*
X170922Y414500D01*
X171232Y412939D01*
X172116Y411616D01*
X173439Y410732D01*
X175000Y410422D01*
X176561Y410732D01*
X177884Y411616D01*
X178768Y412939D01*
X179078Y414500D01*
X178768Y416061D01*
X177884Y417384D01*
X176561Y418268D01*
X175000Y418578D01*
D02*
G37*
G36*
X126000Y418578D02*
X124439Y418268D01*
X123116Y417384D01*
X122232Y416061D01*
X121922Y414500D01*
X122232Y412939D01*
X122980Y411820D01*
X123106Y411000D01*
X122980Y410180D01*
X122232Y409061D01*
X121922Y407500D01*
X122232Y405939D01*
X123116Y404616D01*
X124439Y403732D01*
X126000Y403422D01*
X127561Y403732D01*
X128884Y404616D01*
X129768Y405939D01*
X130078Y407500D01*
X129768Y409061D01*
X129020Y410180D01*
X128894Y411000D01*
X129020Y411820D01*
X129768Y412939D01*
X130078Y414500D01*
X129768Y416061D01*
X128884Y417384D01*
X127561Y418268D01*
X126000Y418578D01*
D02*
G37*
G36*
X69000Y411578D02*
X67439Y411268D01*
X66116Y410384D01*
X65232Y409061D01*
X64922Y407500D01*
X65232Y405939D01*
X66116Y404616D01*
X67439Y403732D01*
X69000Y403422D01*
X70561Y403732D01*
X71884Y404616D01*
X72768Y405939D01*
X73078Y407500D01*
X72768Y409061D01*
X71884Y410384D01*
X70561Y411268D01*
X69000Y411578D01*
D02*
G37*
G36*
X20000D02*
X18439Y411268D01*
X17116Y410384D01*
X16232Y409061D01*
X15922Y407500D01*
X16232Y405939D01*
X17116Y404616D01*
X18439Y403732D01*
X20000Y403422D01*
X21561Y403732D01*
X22884Y404616D01*
X23768Y405939D01*
X24078Y407500D01*
X23768Y409061D01*
X22884Y410384D01*
X21561Y411268D01*
X20000Y411578D01*
D02*
G37*
G36*
X115000Y400578D02*
X113439Y400268D01*
X112116Y399384D01*
X110884D01*
X109561Y400268D01*
X108000Y400578D01*
X106439Y400268D01*
X105116Y399384D01*
X104232Y398061D01*
X103922Y396500D01*
X104232Y394939D01*
X105116Y393616D01*
X106439Y392732D01*
X108000Y392422D01*
X109561Y392732D01*
X110884Y393616D01*
X112116D01*
X113439Y392732D01*
X115000Y392422D01*
X116561Y392732D01*
X117884Y393616D01*
X118768Y394939D01*
X119078Y396500D01*
X118768Y398061D01*
X117884Y399384D01*
X116561Y400268D01*
X115000Y400578D01*
D02*
G37*
G36*
X94000D02*
X92439Y400268D01*
X91116Y399384D01*
X89884D01*
X88561Y400268D01*
X87000Y400578D01*
X85439Y400268D01*
X84320Y399520D01*
X83500Y399394D01*
X82680Y399520D01*
X81561Y400268D01*
X80000Y400578D01*
X78439Y400268D01*
X77116Y399384D01*
X75884D01*
X74561Y400268D01*
X73000Y400578D01*
X71439Y400268D01*
X70116Y399384D01*
X69232Y398061D01*
X68922Y396500D01*
X69232Y394939D01*
X70116Y393616D01*
X71439Y392732D01*
X73000Y392422D01*
X74561Y392732D01*
X75884Y393616D01*
X77116D01*
X78439Y392732D01*
X80000Y392422D01*
X81561Y392732D01*
X82680Y393480D01*
X83500Y393606D01*
X84320Y393480D01*
X85439Y392732D01*
X87000Y392422D01*
X88561Y392732D01*
X89884Y393616D01*
X91116D01*
X92439Y392732D01*
X94000Y392422D01*
X95561Y392732D01*
X96884Y393616D01*
X97768Y394939D01*
X98078Y396500D01*
X97768Y398061D01*
X96884Y399384D01*
X95561Y400268D01*
X94000Y400578D01*
D02*
G37*
G36*
X44970Y363538D02*
Y357370D01*
X51138D01*
X51046Y358068D01*
X50286Y359902D01*
X49078Y361478D01*
X47502Y362686D01*
X45668Y363446D01*
X44970Y363538D01*
D02*
G37*
G36*
X177970D02*
Y357370D01*
X184138D01*
X184046Y358068D01*
X183286Y359902D01*
X182078Y361478D01*
X180502Y362686D01*
X178668Y363446D01*
X177970Y363538D01*
D02*
G37*
G36*
X150030D02*
X149332Y363446D01*
X147498Y362686D01*
X145922Y361478D01*
X144714Y359902D01*
X143954Y358068D01*
X143862Y357370D01*
X150030D01*
Y363538D01*
D02*
G37*
G36*
X17030D02*
X16332Y363446D01*
X14497Y362686D01*
X12922Y361478D01*
X11714Y359902D01*
X10954Y358068D01*
X10862Y357370D01*
X17030D01*
Y363538D01*
D02*
G37*
G36*
X175430D02*
X174732Y363446D01*
X172897Y362686D01*
X171322Y361478D01*
X170114Y359902D01*
X169354Y358068D01*
X169095Y356100D01*
X168920Y355900D01*
X159080D01*
X158905Y356100D01*
X158646Y358068D01*
X157886Y359902D01*
X156678Y361478D01*
X155103Y362686D01*
X153268Y363446D01*
X152570Y363538D01*
Y356100D01*
X151300D01*
Y354830D01*
X143862D01*
X143954Y354132D01*
X144714Y352298D01*
X145922Y350722D01*
X147498Y349514D01*
X149332Y348754D01*
X151300Y348495D01*
X151500Y348320D01*
Y338480D01*
X151300Y338305D01*
X149332Y338046D01*
X147498Y337286D01*
X145922Y336078D01*
X144714Y334502D01*
X143954Y332668D01*
X143862Y331970D01*
X151300D01*
Y330700D01*
X152570D01*
Y323262D01*
X153268Y323354D01*
X155103Y324114D01*
X156678Y325322D01*
X157886Y326898D01*
X158646Y328732D01*
X158905Y330700D01*
X159080Y330900D01*
X168920D01*
X169095Y330700D01*
X169354Y328732D01*
X170114Y326898D01*
X171322Y325322D01*
X172897Y324114D01*
X174732Y323354D01*
X175430Y323262D01*
Y330700D01*
X176700D01*
Y331970D01*
X184138D01*
X184046Y332668D01*
X183286Y334502D01*
X182078Y336078D01*
X180502Y337286D01*
X178668Y338046D01*
X176700Y338305D01*
X176500Y338480D01*
Y348320D01*
X176700Y348495D01*
X178668Y348754D01*
X180502Y349514D01*
X182078Y350722D01*
X183286Y352298D01*
X184046Y354132D01*
X184138Y354830D01*
X176700D01*
Y356100D01*
X175430D01*
Y363538D01*
D02*
G37*
G36*
X51138Y329430D02*
X44970D01*
Y323262D01*
X45668Y323354D01*
X47502Y324114D01*
X49078Y325322D01*
X50286Y326898D01*
X51046Y328732D01*
X51138Y329430D01*
D02*
G37*
G36*
X184138D02*
X177970D01*
Y323262D01*
X178668Y323354D01*
X180502Y324114D01*
X182078Y325322D01*
X183286Y326898D01*
X184046Y328732D01*
X184138Y329430D01*
D02*
G37*
G36*
X150030D02*
X143862D01*
X143954Y328732D01*
X144714Y326898D01*
X145922Y325322D01*
X147498Y324114D01*
X149332Y323354D01*
X150030Y323262D01*
Y329430D01*
D02*
G37*
G36*
X17030D02*
X10862D01*
X10954Y328732D01*
X11714Y326898D01*
X12922Y325322D01*
X14497Y324114D01*
X16332Y323354D01*
X17030Y323262D01*
Y329430D01*
D02*
G37*
G36*
X19570Y363538D02*
Y356100D01*
X18300D01*
Y354830D01*
X10862D01*
X10954Y354132D01*
X11714Y352298D01*
X12922Y350722D01*
X14497Y349514D01*
X16332Y348754D01*
X18300Y348495D01*
X18500Y348320D01*
Y338480D01*
X18300Y338305D01*
X16332Y338046D01*
X14497Y337286D01*
X12922Y336078D01*
X11714Y334502D01*
X10954Y332668D01*
X10862Y331970D01*
X18300D01*
Y330700D01*
X19570D01*
Y323262D01*
X20268Y323354D01*
X22102Y324114D01*
X23678Y325322D01*
X24886Y326898D01*
X25646Y328732D01*
X25905Y330700D01*
X26081Y330900D01*
X35919D01*
X36095Y330700D01*
X36354Y328732D01*
X37114Y326898D01*
X38322Y325322D01*
X39897Y324114D01*
X41732Y323354D01*
X42430Y323262D01*
Y330700D01*
X43700D01*
Y331970D01*
X51138D01*
X51046Y332668D01*
X50286Y334502D01*
X49078Y336078D01*
X47502Y337286D01*
X45668Y338046D01*
X43700Y338305D01*
X43500Y338480D01*
Y348320D01*
X43700Y348495D01*
X45668Y348754D01*
X47502Y349514D01*
X49078Y350722D01*
X50286Y352298D01*
X51046Y354132D01*
X51138Y354830D01*
X43700D01*
Y356100D01*
X42430D01*
Y363538D01*
X41732Y363446D01*
X39897Y362686D01*
X38322Y361478D01*
X37114Y359902D01*
X36354Y358068D01*
X36095Y356100D01*
X35919Y355900D01*
X26081D01*
X25905Y356100D01*
X25646Y358068D01*
X24886Y359902D01*
X23678Y361478D01*
X22102Y362686D01*
X20268Y363446D01*
X19570Y363538D01*
D02*
G37*
G36*
X54700Y314078D02*
X53139Y313768D01*
X51816Y312884D01*
X50932Y311561D01*
X50622Y310000D01*
X50932Y308439D01*
X51816Y307116D01*
X53139Y306232D01*
X54700Y305922D01*
X56261Y306232D01*
X57584Y307116D01*
X58468Y308439D01*
X58778Y310000D01*
X58468Y311561D01*
X57584Y312884D01*
X56261Y313768D01*
X54700Y314078D01*
D02*
G37*
G36*
X137850Y314078D02*
X136289Y313768D01*
X134966Y312884D01*
X134082Y311561D01*
X133772Y310000D01*
X134082Y308439D01*
X134966Y307116D01*
X136289Y306232D01*
X137850Y305922D01*
X139411Y306232D01*
X140734Y307116D01*
X141618Y308439D01*
X141928Y310000D01*
X141618Y311561D01*
X140734Y312884D01*
X139411Y313768D01*
X137850Y314078D01*
D02*
G37*
G36*
X44970Y291538D02*
Y285370D01*
X51138D01*
X51046Y286068D01*
X50286Y287903D01*
X49078Y289478D01*
X47502Y290686D01*
X45668Y291446D01*
X44970Y291538D01*
D02*
G37*
G36*
X177970D02*
Y285370D01*
X184138D01*
X184046Y286068D01*
X183286Y287903D01*
X182078Y289478D01*
X180502Y290686D01*
X178668Y291446D01*
X177970Y291538D01*
D02*
G37*
G36*
X150030D02*
X149332Y291446D01*
X147498Y290686D01*
X145922Y289478D01*
X144714Y287903D01*
X143954Y286068D01*
X143862Y285370D01*
X150030D01*
Y291538D01*
D02*
G37*
G36*
X17030D02*
X16332Y291446D01*
X14497Y290686D01*
X12922Y289478D01*
X11714Y287903D01*
X10954Y286068D01*
X10862Y285370D01*
X17030D01*
Y291538D01*
D02*
G37*
G36*
X175430D02*
X174732Y291446D01*
X172897Y290686D01*
X171322Y289478D01*
X170114Y287903D01*
X169354Y286068D01*
X169095Y284100D01*
X168920Y283900D01*
X159080D01*
X158905Y284100D01*
X158646Y286068D01*
X157886Y287903D01*
X156678Y289478D01*
X155103Y290686D01*
X153268Y291446D01*
X152570Y291538D01*
Y284100D01*
X151300D01*
Y282830D01*
X143862D01*
X143954Y282132D01*
X144714Y280298D01*
X145922Y278722D01*
X147498Y277514D01*
X149332Y276754D01*
X151300Y276495D01*
X151500Y276320D01*
Y266481D01*
X151300Y266305D01*
X149332Y266046D01*
X147498Y265286D01*
X145922Y264078D01*
X144714Y262502D01*
X143954Y260668D01*
X143862Y259970D01*
X151300D01*
Y258700D01*
X152570D01*
Y251262D01*
X153268Y251354D01*
X155103Y252114D01*
X156678Y253322D01*
X157886Y254897D01*
X158646Y256732D01*
X158905Y258700D01*
X159080Y258900D01*
X168920D01*
X169095Y258700D01*
X169354Y256732D01*
X170114Y254897D01*
X171322Y253322D01*
X172897Y252114D01*
X174732Y251354D01*
X175430Y251262D01*
Y258700D01*
X176700D01*
Y259970D01*
X184138D01*
X184046Y260668D01*
X183286Y262502D01*
X182078Y264078D01*
X180502Y265286D01*
X178668Y266046D01*
X176700Y266305D01*
X176500Y266481D01*
Y276320D01*
X176700Y276495D01*
X178668Y276754D01*
X180502Y277514D01*
X182078Y278722D01*
X183286Y280298D01*
X184046Y282132D01*
X184138Y282830D01*
X176700D01*
Y284100D01*
X175430D01*
Y291538D01*
D02*
G37*
G36*
X51138Y257430D02*
X44970D01*
Y251262D01*
X45668Y251354D01*
X47502Y252114D01*
X49078Y253322D01*
X50286Y254897D01*
X51046Y256732D01*
X51138Y257430D01*
D02*
G37*
G36*
X184138D02*
X177970D01*
Y251262D01*
X178668Y251354D01*
X180502Y252114D01*
X182078Y253322D01*
X183286Y254897D01*
X184046Y256732D01*
X184138Y257430D01*
D02*
G37*
G36*
X150030D02*
X143862D01*
X143954Y256732D01*
X144714Y254897D01*
X145922Y253322D01*
X147498Y252114D01*
X149332Y251354D01*
X150030Y251262D01*
Y257430D01*
D02*
G37*
G36*
X17030D02*
X10862D01*
X10954Y256732D01*
X11714Y254897D01*
X12922Y253322D01*
X14497Y252114D01*
X16332Y251354D01*
X17030Y251262D01*
Y257430D01*
D02*
G37*
G36*
X19570Y291538D02*
Y284100D01*
X18300D01*
Y282830D01*
X10862D01*
X10954Y282132D01*
X11714Y280298D01*
X12922Y278722D01*
X14497Y277514D01*
X16332Y276754D01*
X18300Y276495D01*
X18500Y276320D01*
Y266481D01*
X18300Y266305D01*
X16332Y266046D01*
X14497Y265286D01*
X12922Y264078D01*
X11714Y262502D01*
X10954Y260668D01*
X10862Y259970D01*
X18300D01*
Y258700D01*
X19570D01*
Y251262D01*
X20268Y251354D01*
X22102Y252114D01*
X23678Y253322D01*
X24886Y254897D01*
X25646Y256732D01*
X25905Y258700D01*
X26081Y258900D01*
X35919D01*
X36095Y258700D01*
X36354Y256732D01*
X37114Y254897D01*
X38322Y253322D01*
X39897Y252114D01*
X41732Y251354D01*
X42430Y251262D01*
Y258700D01*
X43700D01*
Y259970D01*
X51138D01*
X51046Y260668D01*
X50286Y262502D01*
X49078Y264078D01*
X47502Y265286D01*
X45668Y266046D01*
X43700Y266305D01*
X43500Y266481D01*
Y276320D01*
X43700Y276495D01*
X45668Y276754D01*
X47502Y277514D01*
X49078Y278722D01*
X50286Y280298D01*
X51046Y282132D01*
X51138Y282830D01*
X43700D01*
Y284100D01*
X42430D01*
Y291538D01*
X41732Y291446D01*
X39897Y290686D01*
X38322Y289478D01*
X37114Y287903D01*
X36354Y286068D01*
X36095Y284100D01*
X35919Y283900D01*
X26081D01*
X25905Y284100D01*
X25646Y286068D01*
X24886Y287903D01*
X23678Y289478D01*
X22102Y290686D01*
X20268Y291446D01*
X19570Y291538D01*
D02*
G37*
G36*
X163500Y85078D02*
X161939Y84768D01*
X160616Y83884D01*
X159732Y82561D01*
X159422Y81000D01*
X159732Y79439D01*
X160616Y78116D01*
X160898Y77928D01*
X160855Y76920D01*
X159682Y76353D01*
X159061Y76768D01*
X157500Y77078D01*
X155939Y76768D01*
X155318Y76353D01*
X154145Y76920D01*
X154102Y77928D01*
X154384Y78116D01*
X155268Y79439D01*
X155578Y81000D01*
X155268Y82561D01*
X154384Y83884D01*
X153061Y84768D01*
X151500Y85078D01*
X149939Y84768D01*
X148616Y83884D01*
X147732Y82561D01*
X147422Y81000D01*
X147732Y79439D01*
X148616Y78116D01*
X148898Y77928D01*
X148855Y76920D01*
X147682Y76353D01*
X147061Y76768D01*
X145500Y77078D01*
X143939Y76768D01*
X143318Y76353D01*
X142145Y76920D01*
X142102Y77928D01*
X142384Y78116D01*
X143268Y79439D01*
X143578Y81000D01*
X143268Y82561D01*
X142384Y83884D01*
X141061Y84768D01*
X139500Y85078D01*
X137939Y84768D01*
X136616Y83884D01*
X135732Y82561D01*
X135422Y81000D01*
X135732Y79439D01*
X136616Y78116D01*
X136898Y77928D01*
X136855Y76920D01*
X135682Y76353D01*
X135061Y76768D01*
X133500Y77078D01*
X131939Y76768D01*
X131318Y76353D01*
X130145Y76920D01*
X130102Y77928D01*
X130384Y78116D01*
X131268Y79439D01*
X131578Y81000D01*
X131268Y82561D01*
X130384Y83884D01*
X129061Y84768D01*
X127500Y85078D01*
X125939Y84768D01*
X124616Y83884D01*
X123732Y82561D01*
X123422Y81000D01*
X123732Y79439D01*
X124616Y78116D01*
X124898Y77928D01*
X124855Y76920D01*
X123682Y76353D01*
X123061Y76768D01*
X121500Y77078D01*
X119939Y76768D01*
X119318Y76353D01*
X118145Y76920D01*
X118102Y77928D01*
X118384Y78116D01*
X119268Y79439D01*
X119578Y81000D01*
X119268Y82561D01*
X118384Y83884D01*
X117061Y84768D01*
X115500Y85078D01*
X113939Y84768D01*
X112616Y83884D01*
X111732Y82561D01*
X111422Y81000D01*
X111732Y79439D01*
X112616Y78116D01*
X112898Y77928D01*
X112855Y76920D01*
X111682Y76353D01*
X111061Y76768D01*
X109500Y77078D01*
X107939Y76768D01*
X107318Y76353D01*
X106145Y76920D01*
X106102Y77928D01*
X106384Y78116D01*
X107268Y79439D01*
X107578Y81000D01*
X107268Y82561D01*
X106384Y83884D01*
X105061Y84768D01*
X103500Y85078D01*
X101939Y84768D01*
X100616Y83884D01*
X99732Y82561D01*
X99422Y81000D01*
X99732Y79439D01*
X100616Y78116D01*
X100898Y77928D01*
X100855Y76920D01*
X99682Y76353D01*
X99061Y76768D01*
X97500Y77078D01*
X95939Y76768D01*
X95318Y76353D01*
X94145Y76920D01*
X94102Y77928D01*
X94384Y78116D01*
X95268Y79439D01*
X95578Y81000D01*
X95268Y82561D01*
X94384Y83884D01*
X93061Y84768D01*
X91500Y85078D01*
X89939Y84768D01*
X88616Y83884D01*
X87732Y82561D01*
X87422Y81000D01*
X87732Y79439D01*
X88616Y78116D01*
X88898Y77928D01*
X88855Y76920D01*
X87682Y76353D01*
X87061Y76768D01*
X85500Y77078D01*
X83939Y76768D01*
X83318Y76353D01*
X82145Y76920D01*
X82102Y77928D01*
X82384Y78116D01*
X83268Y79439D01*
X83578Y81000D01*
X83268Y82561D01*
X82384Y83884D01*
X81061Y84768D01*
X79500Y85078D01*
X77939Y84768D01*
X76616Y83884D01*
X75732Y82561D01*
X75422Y81000D01*
X75732Y79439D01*
X76616Y78116D01*
X76898Y77928D01*
X76855Y76920D01*
X75682Y76353D01*
X75061Y76768D01*
X73500Y77078D01*
X71939Y76768D01*
X71318Y76353D01*
X70145Y76920D01*
X70102Y77928D01*
X70384Y78116D01*
X71268Y79439D01*
X71578Y81000D01*
X71268Y82561D01*
X70384Y83884D01*
X69061Y84768D01*
X67500Y85078D01*
X65939Y84768D01*
X64616Y83884D01*
X63732Y82561D01*
X63422Y81000D01*
X63732Y79439D01*
X64616Y78116D01*
X64898Y77928D01*
X64855Y76920D01*
X63682Y76353D01*
X63061Y76768D01*
X61500Y77078D01*
X59939Y76768D01*
X59318Y76353D01*
X58145Y76920D01*
X58102Y77928D01*
X58384Y78116D01*
X59268Y79439D01*
X59578Y81000D01*
X59268Y82561D01*
X58384Y83884D01*
X57061Y84768D01*
X55500Y85078D01*
X53939Y84768D01*
X52616Y83884D01*
X51732Y82561D01*
X51422Y81000D01*
X51732Y79439D01*
X52616Y78116D01*
X52898Y77928D01*
X52855Y76920D01*
X51682Y76353D01*
X51061Y76768D01*
X49500Y77078D01*
X47939Y76768D01*
X47318Y76353D01*
X46145Y76920D01*
X46102Y77928D01*
X46384Y78116D01*
X47268Y79439D01*
X47578Y81000D01*
X47268Y82561D01*
X46384Y83884D01*
X45061Y84768D01*
X43500Y85078D01*
X41939Y84768D01*
X40616Y83884D01*
X39732Y82561D01*
X39422Y81000D01*
X39732Y79439D01*
X40616Y78116D01*
X40898Y77928D01*
X40855Y76920D01*
X39682Y76353D01*
X39061Y76768D01*
X37500Y77078D01*
X35939Y76768D01*
X35318Y76353D01*
X34145Y76920D01*
X34102Y77928D01*
X34384Y78116D01*
X35268Y79439D01*
X35578Y81000D01*
X35268Y82561D01*
X34384Y83884D01*
X33061Y84768D01*
X31500Y85078D01*
X29939Y84768D01*
X28616Y83884D01*
X27732Y82561D01*
X27422Y81000D01*
X27732Y79439D01*
X28616Y78116D01*
X28898Y77928D01*
X28855Y76920D01*
X27682Y76353D01*
X27061Y76768D01*
X25500Y77078D01*
X23939Y76768D01*
X22616Y75884D01*
X21732Y74561D01*
X21422Y73000D01*
X21732Y71439D01*
X22616Y70116D01*
X23206Y69722D01*
Y66000D01*
X22500D01*
Y58000D01*
X27230D01*
X28500Y58000D01*
Y58000D01*
X28500D01*
Y58000D01*
X39230D01*
X40500Y58000D01*
Y58000D01*
X40500D01*
Y58000D01*
X51230D01*
X52500Y58000D01*
Y58000D01*
X52500D01*
Y58000D01*
X69230D01*
X70500Y58000D01*
Y58000D01*
X70500D01*
Y58000D01*
X81230D01*
X82500Y58000D01*
Y58000D01*
X82500D01*
Y58000D01*
X93230D01*
X94500Y58000D01*
Y58000D01*
X94500D01*
Y58000D01*
X105230D01*
X106500Y58000D01*
Y58000D01*
X106500D01*
Y58000D01*
X117230D01*
X118500Y58000D01*
Y58000D01*
X118500D01*
Y58000D01*
X129230D01*
X130500Y58000D01*
Y58000D01*
X130500D01*
Y58000D01*
X141230D01*
X142500Y58000D01*
Y58000D01*
X142500D01*
Y58000D01*
X153230D01*
X154500Y58000D01*
Y58000D01*
X154500D01*
Y58000D01*
X172500D01*
Y66000D01*
X165794D01*
Y77722D01*
X166384Y78116D01*
X167268Y79439D01*
X167578Y81000D01*
X167268Y82561D01*
X166384Y83884D01*
X165061Y84768D01*
X163500Y85078D01*
D02*
G37*
G36*
X169500Y36200D02*
X168230Y36200D01*
X158770D01*
X157500Y36200D01*
X156230Y36200D01*
X146770D01*
X145500Y36200D01*
X144230Y36200D01*
X134770D01*
X133500Y36200D01*
X132230Y36200D01*
X122770D01*
X121500Y36200D01*
X120230Y36200D01*
X104770D01*
X103500Y36200D01*
X102230Y36200D01*
X92770D01*
X91500Y36200D01*
X90230Y36200D01*
X80770D01*
X79500Y36200D01*
X78230Y36200D01*
X68770D01*
X67500Y36200D01*
X66230Y36200D01*
X56770D01*
X55500Y36200D01*
X54230Y36200D01*
X44770D01*
X43500Y36200D01*
X42230Y36200D01*
X32770D01*
X31500Y36200D01*
X30230Y36200D01*
X19500D01*
Y26500D01*
X30230D01*
X31500Y26500D01*
X32770Y26500D01*
X42230D01*
X43500Y26500D01*
X44770Y26500D01*
X54230D01*
X55500Y26500D01*
X56770Y26500D01*
X66230D01*
X67500Y26500D01*
X68770Y26500D01*
X78230D01*
X79500Y26500D01*
X80770Y26500D01*
X90230D01*
X91500Y26500D01*
X92770Y26500D01*
X102230D01*
X103500Y26500D01*
X104770Y26500D01*
X120230D01*
X121500Y26500D01*
X122770Y26500D01*
X132230D01*
X133500Y26500D01*
X134770Y26500D01*
X144230D01*
X145500Y26500D01*
X146770Y26500D01*
X156230D01*
X157500Y26500D01*
X158770Y26500D01*
X168230D01*
X169500Y26500D01*
X170770Y26500D01*
X175500D01*
Y36200D01*
X169500Y36200D01*
D02*
G37*
G36*
X185500Y40500D02*
X179000D01*
Y27500D01*
X185500D01*
Y40500D01*
D02*
G37*
G36*
X16000D02*
X9500D01*
Y27500D01*
X16000D01*
Y40500D01*
D02*
G37*
%LPD*%
D14*
X182250Y34000D02*
D03*
X12750D02*
D03*
D15*
X169500Y62000D02*
D03*
X163500D02*
D03*
X157500D02*
D03*
X151500D02*
D03*
X145500D02*
D03*
X139500D02*
D03*
X133500D02*
D03*
X127500D02*
D03*
X121500D02*
D03*
X115500D02*
D03*
X109500D02*
D03*
X103500D02*
D03*
X97500D02*
D03*
X91500D02*
D03*
X85500D02*
D03*
X79500D02*
D03*
X73500D02*
D03*
X67500D02*
D03*
X61500D02*
D03*
X55500D02*
D03*
X49500D02*
D03*
X43500D02*
D03*
X37500D02*
D03*
X31500D02*
D03*
X25500D02*
D03*
D16*
X172500Y31350D02*
D03*
X166500D02*
D03*
X160500D02*
D03*
X154500D02*
D03*
X148500D02*
D03*
X142500D02*
D03*
X136500D02*
D03*
X130500D02*
D03*
X124500D02*
D03*
X118500D02*
D03*
X112500D02*
D03*
X106500D02*
D03*
X100500D02*
D03*
X94500D02*
D03*
X88500D02*
D03*
X82500D02*
D03*
X76500D02*
D03*
X70500D02*
D03*
X64500D02*
D03*
X58500D02*
D03*
X52500D02*
D03*
X46500D02*
D03*
X40500D02*
D03*
X34500D02*
D03*
X28500D02*
D03*
X22500D02*
D03*
D20*
X163500Y62000D02*
Y81000D01*
X151500Y62000D02*
Y81000D01*
X139500Y62000D02*
Y81000D01*
X127500Y62000D02*
Y81000D01*
X115500Y62000D02*
Y81000D01*
X103500Y62000D02*
Y81000D01*
X91500Y62000D02*
Y81000D01*
X79500Y62000D02*
Y81000D01*
X67500Y62000D02*
Y81000D01*
X55500Y62000D02*
Y81000D01*
X43500Y62000D02*
Y81000D01*
X31500Y62000D02*
Y81000D01*
X157500Y62000D02*
Y73000D01*
X145500Y62000D02*
Y73000D01*
X133500Y62000D02*
Y73000D01*
X121500Y62000D02*
Y73000D01*
X109500Y62000D02*
Y73000D01*
X97500Y62000D02*
Y73000D01*
X85500Y62000D02*
Y73000D01*
X73500Y62000D02*
Y73000D01*
X61500Y62000D02*
Y73000D01*
X49500Y62000D02*
Y73000D01*
X37500Y62000D02*
Y73000D01*
X25500Y62000D02*
Y73000D01*
D21*
X151300Y284100D02*
D03*
Y258700D02*
D03*
X176700Y284100D02*
D03*
Y258700D02*
D03*
X164000Y271400D02*
D03*
X151300Y356100D02*
D03*
Y330700D02*
D03*
X176700Y356100D02*
D03*
Y330700D02*
D03*
X164000Y343400D02*
D03*
X151300Y501100D02*
D03*
Y475700D02*
D03*
X176700Y501100D02*
D03*
Y475700D02*
D03*
X164000Y488400D02*
D03*
X18300Y501100D02*
D03*
Y475700D02*
D03*
X43700Y501100D02*
D03*
Y475700D02*
D03*
X31000Y488400D02*
D03*
X18300Y576100D02*
D03*
Y550700D02*
D03*
X43700Y576100D02*
D03*
Y550700D02*
D03*
X31000Y563400D02*
D03*
X151300Y576100D02*
D03*
Y550700D02*
D03*
X176700Y576100D02*
D03*
Y550700D02*
D03*
X164000Y563400D02*
D03*
X31000Y271400D02*
D03*
X18300Y284100D02*
D03*
Y258700D02*
D03*
X43700Y284100D02*
D03*
Y258700D02*
D03*
X31000Y343400D02*
D03*
X18300Y356100D02*
D03*
Y330700D02*
D03*
X43700Y356100D02*
D03*
Y330700D02*
D03*
D22*
X24250Y653400D02*
D03*
X170750D02*
D03*
Y131900D02*
D03*
X24250D02*
D03*
D23*
X160750Y180900D02*
D03*
X34250D02*
D03*
D24*
X20000Y407500D02*
D03*
X54700Y310000D02*
D03*
X69000Y435500D02*
D03*
X87000Y396500D02*
D03*
X108000D02*
D03*
X137850Y310000D02*
D03*
X175000Y414500D02*
D03*
X127000Y484000D02*
D03*
X68000Y484000D02*
D03*
X69000Y449500D02*
D03*
Y442500D02*
D03*
Y428500D02*
D03*
Y421500D02*
D03*
Y407500D02*
D03*
X73000Y396500D02*
D03*
X80000D02*
D03*
X94000D02*
D03*
X115000D02*
D03*
X126000Y407500D02*
D03*
Y414500D02*
D03*
Y449500D02*
D03*
Y442500D02*
D03*
Y435500D02*
D03*
Y428500D02*
D03*
X55500Y81000D02*
D03*
X31500D02*
D03*
X67500D02*
D03*
X25500Y73000D02*
D03*
X79500Y81000D02*
D03*
X37500Y73000D02*
D03*
X91500Y81000D02*
D03*
X49500Y73000D02*
D03*
X103500Y81000D02*
D03*
X61500Y73000D02*
D03*
X115500Y81000D02*
D03*
X73500Y73000D02*
D03*
X127500Y81000D02*
D03*
X85500Y73000D02*
D03*
X139500Y81000D02*
D03*
X97500Y73000D02*
D03*
X151500Y81000D02*
D03*
X109500Y73000D02*
D03*
X163500Y81000D02*
D03*
X121500Y73000D02*
D03*
X145500D02*
D03*
X133500D02*
D03*
X157500D02*
D03*
X43500Y81000D02*
D03*
M02*
