<?xml version="1.0" encoding="utf-8"?>
<svg width="17.65mm" height="65.94mm" viewBox="0.9249999999999998 0.8999999999999999 17.65 65.94" style="background-color:white" xmlns="http://www.w3.org/2000/svg" xmlns:xlink="http://www.w3.org/1999/xlink">
  <g transform="translate(0.925 66.84) scale(1 -1) translate(-0.925 -0.9)">
    <circle cx="15.13" cy="28.41" r="0.5" fill="black"/>
    <circle cx="15.13" cy="25.87" r="0.5" fill="black"/>
    <circle cx="17.67" cy="28.41" r="0.5" fill="black"/>
    <circle cx="17.67" cy="25.87" r="0.5" fill="black"/>
    <circle cx="16.4" cy="27.14" r="0.5" fill="black"/>
    <circle cx="15.13" cy="35.61" r="0.5" fill="black"/>
    <circle cx="15.13" cy="33.07" r="0.5" fill="black"/>
    <circle cx="17.67" cy="35.61" r="0.5" fill="black"/>
    <circle cx="17.67" cy="33.07" r="0.5" fill="black"/>
    <circle cx="16.4" cy="34.34" r="0.5" fill="black"/>
    <circle cx="15.13" cy="50.11" r="0.5" fill="black"/>
    <circle cx="15.13" cy="47.57" r="0.5" fill="black"/>
    <circle cx="17.67" cy="50.11" r="0.5" fill="black"/>
    <circle cx="17.67" cy="47.57" r="0.5" fill="black"/>
    <circle cx="16.4" cy="48.84" r="0.5" fill="black"/>
    <circle cx="1.83" cy="50.11" r="0.5" fill="black"/>
    <circle cx="1.83" cy="47.57" r="0.5" fill="black"/>
    <circle cx="4.37" cy="50.11" r="0.5" fill="black"/>
    <circle cx="4.37" cy="47.57" r="0.5" fill="black"/>
    <circle cx="3.1" cy="48.84" r="0.5" fill="black"/>
    <circle cx="1.83" cy="57.61" r="0.5" fill="black"/>
    <circle cx="1.83" cy="55.07" r="0.5" fill="black"/>
    <circle cx="4.37" cy="57.61" r="0.5" fill="black"/>
    <circle cx="4.37" cy="55.07" r="0.5" fill="black"/>
    <circle cx="3.1" cy="56.34" r="0.5" fill="black"/>
    <circle cx="15.13" cy="57.61" r="0.5" fill="black"/>
    <circle cx="15.13" cy="55.07" r="0.5" fill="black"/>
    <circle cx="17.67" cy="57.61" r="0.5" fill="black"/>
    <circle cx="17.67" cy="55.07" r="0.5" fill="black"/>
    <circle cx="16.4" cy="56.34" r="0.5" fill="black"/>
    <circle cx="3.1" cy="27.14" r="0.5" fill="black"/>
    <circle cx="1.83" cy="28.41" r="0.5" fill="black"/>
    <circle cx="1.83" cy="25.87" r="0.5" fill="black"/>
    <circle cx="4.37" cy="28.41" r="0.5" fill="black"/>
    <circle cx="4.37" cy="25.87" r="0.5" fill="black"/>
    <circle cx="3.1" cy="34.34" r="0.5" fill="black"/>
    <circle cx="1.83" cy="35.61" r="0.5" fill="black"/>
    <circle cx="1.83" cy="33.07" r="0.5" fill="black"/>
    <circle cx="4.37" cy="35.61" r="0.5" fill="black"/>
    <circle cx="4.37" cy="33.07" r="0.5" fill="black"/>
    <circle cx="2.425" cy="65.34" r="1.5" fill="black"/>
    <circle cx="17.075" cy="65.34" r="1.5" fill="black"/>
    <circle cx="17.075" cy="13.19" r="1.5" fill="black"/>
    <circle cx="2.425" cy="13.19" r="1.5" fill="black"/>
    <circle cx="16.075" cy="18.09" r="2.5" fill="black"/>
    <circle cx="3.425" cy="18.09" r="2.5" fill="black"/>
    <circle cx="2.0" cy="40.75" r="0.25" fill="black"/>
    <circle cx="5.47" cy="31.0" r="0.25" fill="black"/>
    <circle cx="6.9" cy="43.55" r="0.25" fill="black"/>
    <circle cx="8.7" cy="39.65" r="0.25" fill="black"/>
    <circle cx="10.8" cy="39.65" r="0.25" fill="black"/>
    <circle cx="13.785" cy="31.0" r="0.25" fill="black"/>
    <circle cx="17.5" cy="41.45" r="0.25" fill="black"/>
    <circle cx="12.7" cy="48.4" r="0.25" fill="black"/>
    <circle cx="6.8" cy="48.4" r="0.25" fill="black"/>
    <circle cx="6.9" cy="44.95" r="0.25" fill="black"/>
    <circle cx="6.9" cy="44.25" r="0.25" fill="black"/>
    <circle cx="6.9" cy="42.85" r="0.25" fill="black"/>
    <circle cx="6.9" cy="42.15" r="0.25" fill="black"/>
    <circle cx="6.9" cy="40.75" r="0.25" fill="black"/>
    <circle cx="7.3" cy="39.65" r="0.25" fill="black"/>
    <circle cx="8.0" cy="39.65" r="0.25" fill="black"/>
    <circle cx="9.4" cy="39.65" r="0.25" fill="black"/>
    <circle cx="11.5" cy="39.65" r="0.25" fill="black"/>
    <circle cx="12.6" cy="40.75" r="0.25" fill="black"/>
    <circle cx="12.6" cy="41.45" r="0.25" fill="black"/>
    <circle cx="12.6" cy="44.95" r="0.25" fill="black"/>
    <circle cx="12.6" cy="44.25" r="0.25" fill="black"/>
    <circle cx="12.6" cy="43.55" r="0.25" fill="black"/>
    <circle cx="12.6" cy="42.85" r="0.25" fill="black"/>
    <circle cx="2.25" cy="2.3" r="0.25" fill="black"/>
    <circle cx="2.55" cy="8.45" r="0.25" fill="black"/>
    <circle cx="2.85" cy="1.15" r="0.25" fill="black"/>
    <circle cx="3.15" cy="7.25" r="0.25" fill="black"/>
    <circle cx="3.45" cy="2.3" r="0.25" fill="black"/>
    <circle cx="3.75" cy="8.45" r="0.25" fill="black"/>
    <circle cx="4.05" cy="1.15" r="0.25" fill="black"/>
    <circle cx="4.35" cy="7.25" r="0.25" fill="black"/>
    <circle cx="4.65" cy="2.3" r="0.25" fill="black"/>
    <circle cx="4.95" cy="8.45" r="0.25" fill="black"/>
    <circle cx="5.25" cy="1.15" r="0.25" fill="black"/>
    <circle cx="5.55" cy="7.25" r="0.25" fill="black"/>
    <circle cx="6.45" cy="1.15" r="0.25" fill="black"/>
    <circle cx="6.75" cy="7.25" r="0.25" fill="black"/>
    <circle cx="7.05" cy="2.3" r="0.25" fill="black"/>
    <circle cx="7.35" cy="8.45" r="0.25" fill="black"/>
    <circle cx="7.65" cy="1.15" r="0.25" fill="black"/>
    <circle cx="7.95" cy="7.25" r="0.25" fill="black"/>
    <circle cx="8.25" cy="2.3" r="0.25" fill="black"/>
    <circle cx="8.55" cy="8.45" r="0.25" fill="black"/>
    <circle cx="8.85" cy="1.15" r="0.25" fill="black"/>
    <circle cx="9.15" cy="7.25" r="0.25" fill="black"/>
    <circle cx="9.45" cy="2.3" r="0.25" fill="black"/>
    <circle cx="9.75" cy="8.45" r="0.25" fill="black"/>
    <path d="M 17.5 41.45 L 17.5 42.85" fill="none" stroke="black" stroke-linecap="round" stroke-linejoin="round" stroke-width="0.125"/>
    <path d="M 16.5 43.85 L 17.5 42.85" fill="none" stroke="black" stroke-linecap="round" stroke-linejoin="round" stroke-width="0.125"/>
    <path d="M 14.3 43.85 L 16.5 43.85" fill="none" stroke="black" stroke-linecap="round" stroke-linejoin="round" stroke-width="0.125"/>
    <path d="M 13.8 43.35 L 14.3 43.85" fill="none" stroke="black" stroke-linecap="round" stroke-linejoin="round" stroke-width="0.125"/>
    <path d="M 13.8 33.35 L 13.8 43.35" fill="none" stroke="black" stroke-linecap="round" stroke-linejoin="round" stroke-width="0.125"/>
    <path d="M 12.95 32.5 L 13.8 33.35" fill="none" stroke="black" stroke-linecap="round" stroke-linejoin="round" stroke-width="0.125"/>
    <path d="M 12.95 3.4 L 12.95 32.5" fill="none" stroke="black" stroke-linecap="round" stroke-linejoin="round" stroke-width="0.125"/>
    <path d="M 12.7 3.15 L 12.95 3.4" fill="none" stroke="black" stroke-linecap="round" stroke-linejoin="round" stroke-width="0.125"/>
    <path d="M 9.7 3.15 L 12.7 3.15" fill="none" stroke="black" stroke-linecap="round" stroke-linejoin="round" stroke-width="0.125"/>
    <path d="M 9.45 2.9 L 9.7 3.15" fill="none" stroke="black" stroke-linecap="round" stroke-linejoin="round" stroke-width="0.125"/>
    <path d="M 9.45 2.3 L 9.45 2.9" fill="none" stroke="black" stroke-linecap="round" stroke-linejoin="round" stroke-width="0.125"/>
    <path d="M 12.7 48.4 L 13.1 48.0" fill="none" stroke="black" stroke-linecap="round" stroke-linejoin="round" stroke-width="0.125"/>
    <path d="M 13.1 33.75 L 13.1 48.0" fill="none" stroke="black" stroke-linecap="round" stroke-linejoin="round" stroke-width="0.125"/>
    <path d="M 12.35 33.0 L 13.1 33.75" fill="none" stroke="black" stroke-linecap="round" stroke-linejoin="round" stroke-width="0.125"/>
    <path d="M 12.35 4.05 L 12.35 33.0" fill="none" stroke="black" stroke-linecap="round" stroke-linejoin="round" stroke-width="0.125"/>
    <path d="M 12.1 3.8 L 12.35 4.05" fill="none" stroke="black" stroke-linecap="round" stroke-linejoin="round" stroke-width="0.125"/>
    <path d="M 9.1 3.8 L 12.1 3.8" fill="none" stroke="black" stroke-linecap="round" stroke-linejoin="round" stroke-width="0.125"/>
    <path d="M 8.85 3.55 L 9.1 3.8" fill="none" stroke="black" stroke-linecap="round" stroke-linejoin="round" stroke-width="0.125"/>
    <path d="M 8.85 1.15 L 8.85 3.55" fill="none" stroke="black" stroke-linecap="round" stroke-linejoin="round" stroke-width="0.125"/>
    <path d="M 8.7 38.15 L 8.7 39.65" fill="none" stroke="black" stroke-linecap="round" stroke-linejoin="round" stroke-width="0.125"/>
    <path d="M 8.7 38.15 L 11.75 35.1" fill="none" stroke="black" stroke-linecap="round" stroke-linejoin="round" stroke-width="0.125"/>
    <path d="M 11.75 12.2 L 11.75 35.1" fill="none" stroke="black" stroke-linecap="round" stroke-linejoin="round" stroke-width="0.125"/>
    <path d="M 9.15 9.6 L 11.75 12.2" fill="none" stroke="black" stroke-linecap="round" stroke-linejoin="round" stroke-width="0.125"/>
    <path d="M 9.15 7.25 L 9.15 9.6" fill="none" stroke="black" stroke-linecap="round" stroke-linejoin="round" stroke-width="0.125"/>
    <path d="M 8.0 38.25 L 8.0 39.65" fill="none" stroke="black" stroke-linecap="round" stroke-linejoin="round" stroke-width="0.125"/>
    <path d="M 8.0 38.25 L 11.15 35.1" fill="none" stroke="black" stroke-linecap="round" stroke-linejoin="round" stroke-width="0.125"/>
    <path d="M 11.15 12.2 L 11.15 35.1" fill="none" stroke="black" stroke-linecap="round" stroke-linejoin="round" stroke-width="0.125"/>
    <path d="M 8.55 9.6 L 11.15 12.2" fill="none" stroke="black" stroke-linecap="round" stroke-linejoin="round" stroke-width="0.125"/>
    <path d="M 8.55 8.45 L 8.55 9.6" fill="none" stroke="black" stroke-linecap="round" stroke-linejoin="round" stroke-width="0.125"/>
    <path d="M 7.3 38.35 L 7.3 39.65" fill="none" stroke="black" stroke-linecap="round" stroke-linejoin="round" stroke-width="0.125"/>
    <path d="M 7.3 38.35 L 10.55 35.1" fill="none" stroke="black" stroke-linecap="round" stroke-linejoin="round" stroke-width="0.125"/>
    <path d="M 10.55 12.2 L 10.55 35.1" fill="none" stroke="black" stroke-linecap="round" stroke-linejoin="round" stroke-width="0.125"/>
    <path d="M 7.95 9.6 L 10.55 12.2" fill="none" stroke="black" stroke-linecap="round" stroke-linejoin="round" stroke-width="0.125"/>
    <path d="M 7.95 7.25 L 7.95 9.6" fill="none" stroke="black" stroke-linecap="round" stroke-linejoin="round" stroke-width="0.125"/>
    <path d="M 6.5 40.75 L 6.9 40.75" fill="none" stroke="black" stroke-linecap="round" stroke-linejoin="round" stroke-width="0.125"/>
    <path d="M 6.25 40.5 L 6.5 40.75" fill="none" stroke="black" stroke-linecap="round" stroke-linejoin="round" stroke-width="0.125"/>
    <path d="M 6.25 38.8 L 6.25 40.5" fill="none" stroke="black" stroke-linecap="round" stroke-linejoin="round" stroke-width="0.125"/>
    <path d="M 6.25 38.8 L 9.95 35.1" fill="none" stroke="black" stroke-linecap="round" stroke-linejoin="round" stroke-width="0.125"/>
    <path d="M 9.95 12.2 L 9.95 35.1" fill="none" stroke="black" stroke-linecap="round" stroke-linejoin="round" stroke-width="0.125"/>
    <path d="M 7.35 9.6 L 9.95 12.2" fill="none" stroke="black" stroke-linecap="round" stroke-linejoin="round" stroke-width="0.125"/>
    <path d="M 7.35 8.45 L 7.35 9.6" fill="none" stroke="black" stroke-linecap="round" stroke-linejoin="round" stroke-width="0.125"/>
    <path d="M 6.15 42.15 L 6.9 42.15" fill="none" stroke="black" stroke-linecap="round" stroke-linejoin="round" stroke-width="0.125"/>
    <path d="M 5.9 41.9 L 6.15 42.15" fill="none" stroke="black" stroke-linecap="round" stroke-linejoin="round" stroke-width="0.125"/>
    <path d="M 5.9 38.55 L 5.9 41.9" fill="none" stroke="black" stroke-linecap="round" stroke-linejoin="round" stroke-width="0.125"/>
    <path d="M 5.9 38.55 L 9.35 35.1" fill="none" stroke="black" stroke-linecap="round" stroke-linejoin="round" stroke-width="0.125"/>
    <path d="M 9.35 12.2 L 9.35 35.1" fill="none" stroke="black" stroke-linecap="round" stroke-linejoin="round" stroke-width="0.125"/>
    <path d="M 6.75 9.6 L 9.35 12.2" fill="none" stroke="black" stroke-linecap="round" stroke-linejoin="round" stroke-width="0.125"/>
    <path d="M 6.75 7.25 L 6.75 9.6" fill="none" stroke="black" stroke-linecap="round" stroke-linejoin="round" stroke-width="0.125"/>
    <path d="M 5.75 42.85 L 6.9 42.85" fill="none" stroke="black" stroke-linecap="round" stroke-linejoin="round" stroke-width="0.125"/>
    <path d="M 5.5 42.6 L 5.75 42.85" fill="none" stroke="black" stroke-linecap="round" stroke-linejoin="round" stroke-width="0.125"/>
    <path d="M 5.5 38.35 L 5.5 42.6" fill="none" stroke="black" stroke-linecap="round" stroke-linejoin="round" stroke-width="0.125"/>
    <path d="M 5.5 38.35 L 8.75 35.1" fill="none" stroke="black" stroke-linecap="round" stroke-linejoin="round" stroke-width="0.125"/>
    <path d="M 8.75 12.8 L 8.75 35.1" fill="none" stroke="black" stroke-linecap="round" stroke-linejoin="round" stroke-width="0.125"/>
    <path d="M 5.55 9.6 L 8.75 12.8" fill="none" stroke="black" stroke-linecap="round" stroke-linejoin="round" stroke-width="0.125"/>
    <path d="M 5.55 7.25 L 5.55 9.6" fill="none" stroke="black" stroke-linecap="round" stroke-linejoin="round" stroke-width="0.125"/>
    <path d="M 5.35 43.55 L 6.9 43.55" fill="none" stroke="black" stroke-linecap="round" stroke-linejoin="round" stroke-width="0.125"/>
    <path d="M 5.1 43.3 L 5.35 43.55" fill="none" stroke="black" stroke-linecap="round" stroke-linejoin="round" stroke-width="0.125"/>
    <path d="M 5.1 38.15 L 5.1 43.3" fill="none" stroke="black" stroke-linecap="round" stroke-linejoin="round" stroke-width="0.125"/>
    <path d="M 5.1 38.15 L 8.15 35.1" fill="none" stroke="black" stroke-linecap="round" stroke-linejoin="round" stroke-width="0.125"/>
    <path d="M 8.15 12.8 L 8.15 35.1" fill="none" stroke="black" stroke-linecap="round" stroke-linejoin="round" stroke-width="0.125"/>
    <path d="M 4.95 9.6 L 8.15 12.8" fill="none" stroke="black" stroke-linecap="round" stroke-linejoin="round" stroke-width="0.125"/>
    <path d="M 4.95 8.45 L 4.95 9.6" fill="none" stroke="black" stroke-linecap="round" stroke-linejoin="round" stroke-width="0.125"/>
    <path d="M 4.95 44.25 L 6.9 44.25" fill="none" stroke="black" stroke-linecap="round" stroke-linejoin="round" stroke-width="0.125"/>
    <path d="M 4.7 44.0 L 4.95 44.25" fill="none" stroke="black" stroke-linecap="round" stroke-linejoin="round" stroke-width="0.125"/>
    <path d="M 4.7 37.95 L 4.7 44.0" fill="none" stroke="black" stroke-linecap="round" stroke-linejoin="round" stroke-width="0.125"/>
    <path d="M 4.7 37.95 L 7.55 35.1" fill="none" stroke="black" stroke-linecap="round" stroke-linejoin="round" stroke-width="0.125"/>
    <path d="M 7.55 12.8 L 7.55 35.1" fill="none" stroke="black" stroke-linecap="round" stroke-linejoin="round" stroke-width="0.125"/>
    <path d="M 4.35 9.6 L 7.55 12.8" fill="none" stroke="black" stroke-linecap="round" stroke-linejoin="round" stroke-width="0.125"/>
    <path d="M 4.35 7.25 L 4.35 9.6" fill="none" stroke="black" stroke-linecap="round" stroke-linejoin="round" stroke-width="0.125"/>
    <path d="M 4.55 44.95 L 6.9 44.95" fill="none" stroke="black" stroke-linecap="round" stroke-linejoin="round" stroke-width="0.125"/>
    <path d="M 4.3 44.7 L 4.55 44.95" fill="none" stroke="black" stroke-linecap="round" stroke-linejoin="round" stroke-width="0.125"/>
    <path d="M 4.3 37.75 L 4.3 44.7" fill="none" stroke="black" stroke-linecap="round" stroke-linejoin="round" stroke-width="0.125"/>
    <path d="M 4.3 37.75 L 6.95 35.1" fill="none" stroke="black" stroke-linecap="round" stroke-linejoin="round" stroke-width="0.125"/>
    <path d="M 6.95 12.8 L 6.95 35.1" fill="none" stroke="black" stroke-linecap="round" stroke-linejoin="round" stroke-width="0.125"/>
    <path d="M 3.75 9.6 L 6.95 12.8" fill="none" stroke="black" stroke-linecap="round" stroke-linejoin="round" stroke-width="0.125"/>
    <path d="M 3.75 8.45 L 3.75 9.6" fill="none" stroke="black" stroke-linecap="round" stroke-linejoin="round" stroke-width="0.125"/>
    <path d="M 2.0 39.45 L 2.0 40.75" fill="none" stroke="black" stroke-linecap="round" stroke-linejoin="round" stroke-width="0.125"/>
    <path d="M 2.0 39.45 L 6.35 35.1" fill="none" stroke="black" stroke-linecap="round" stroke-linejoin="round" stroke-width="0.125"/>
    <path d="M 6.35 12.8 L 6.35 35.1" fill="none" stroke="black" stroke-linecap="round" stroke-linejoin="round" stroke-width="0.125"/>
    <path d="M 3.15 9.6 L 6.35 12.8" fill="none" stroke="black" stroke-linecap="round" stroke-linejoin="round" stroke-width="0.125"/>
    <path d="M 3.15 7.25 L 3.15 9.6" fill="none" stroke="black" stroke-linecap="round" stroke-linejoin="round" stroke-width="0.125"/>
  </g>
</svg>