ISO-10303-21;
HEADER;
/* Generated by software containing ST-Developer
 * from STEP Tools, Inc. (www.steptools.com) 
 */

FILE_DESCRIPTION(
/* description */ (''),
/* implementation_level */ '2;1');

FILE_NAME(
/* name */ 'Top_ForFridge_reference.step',
/* time_stamp */ '2026-09-21T17:41:48-07:00',
/* author */ ('\X2\BC15C815D604\X0\'),
/* organization */ (''),
/* preprocessor_version */ 'ST-DEVELOPER v20.2',
/* originating_system */ 'Autodesk Inventor 2027',
/* authorisation */ '');

FILE_SCHEMA (('AUTOMOTIVE_DESIGN { 1 0 10303 214 3 1 1 }'));
ENDSEC;

DATA;
#10=MECHANICAL_DESIGN_GEOMETRIC_PRESENTATION_REPRESENTATION('',(#13),#1880);
#11=SHAPE_REPRESENTATION_RELATIONSHIP('SRR','None',#1891,#12);
#12=ADVANCED_BREP_SHAPE_REPRESENTATION('',(#14),#1879);
#13=STYLED_ITEM('',(#1901),#14);
#14=MANIFOLD_SOLID_BREP('Solid1',#1132);
#15=CONICAL_SURFACE('',#1240,0.0314960629921259,1.02974425867665);
#16=CONICAL_SURFACE('',#1243,0.0314960629921259,1.02974425867665);
#17=CYLINDRICAL_SURFACE('',#1185,0.0826771653543309);
#18=CYLINDRICAL_SURFACE('',#1188,0.0826771653543309);
#19=CYLINDRICAL_SURFACE('',#1191,0.0826771653543307);
#20=CYLINDRICAL_SURFACE('',#1194,0.0826771653543308);
#21=CYLINDRICAL_SURFACE('',#1198,0.0492125984251968);
#22=CYLINDRICAL_SURFACE('',#1199,0.0492125984251968);
#23=CYLINDRICAL_SURFACE('',#1200,0.0492125984251966);
#24=CYLINDRICAL_SURFACE('',#1201,0.0492125984251965);
#25=CYLINDRICAL_SURFACE('',#1221,0.0787401574803146);
#26=CYLINDRICAL_SURFACE('',#1222,0.0787401574803146);
#27=CYLINDRICAL_SURFACE('',#1225,0.0787401574803146);
#28=CYLINDRICAL_SURFACE('',#1227,0.0787401574803146);
#29=CYLINDRICAL_SURFACE('',#1229,0.114173228346457);
#30=CYLINDRICAL_SURFACE('',#1233,0.0846456692913385);
#31=CYLINDRICAL_SURFACE('',#1242,0.0314960629921258);
#32=CYLINDRICAL_SURFACE('',#1245,0.0314960629921258);
#33=CYLINDRICAL_SURFACE('',#1246,0.0393700787401575);
#34=FACE_BOUND('',#155,.T.);
#35=FACE_BOUND('',#156,.T.);
#36=FACE_BOUND('',#157,.T.);
#37=FACE_BOUND('',#158,.T.);
#38=FACE_BOUND('',#160,.T.);
#39=FACE_BOUND('',#161,.T.);
#40=FACE_BOUND('',#162,.T.);
#41=FACE_BOUND('',#163,.T.);
#42=FACE_BOUND('',#164,.T.);
#43=FACE_BOUND('',#169,.T.);
#44=FACE_BOUND('',#170,.T.);
#45=FACE_BOUND('',#171,.T.);
#46=FACE_BOUND('',#174,.T.);
#47=FACE_BOUND('',#179,.T.);
#48=FACE_BOUND('',#180,.T.);
#49=FACE_BOUND('',#181,.T.);
#50=FACE_BOUND('',#182,.T.);
#51=FACE_BOUND('',#204,.T.);
#52=FACE_BOUND('',#205,.T.);
#53=FACE_BOUND('',#208,.T.);
#54=FACE_BOUND('',#209,.T.);
#55=FACE_BOUND('',#222,.T.);
#56=FACE_BOUND('',#225,.T.);
#57=CIRCLE('',#1156,0.0826771653543309);
#58=CIRCLE('',#1157,0.0826771653543307);
#59=CIRCLE('',#1158,0.0492125984251968);
#60=CIRCLE('',#1159,0.0492125984251964);
#61=CIRCLE('',#1161,0.0492125984251968);
#62=CIRCLE('',#1162,0.0492125984251968);
#63=CIRCLE('',#1163,0.0492125984251966);
#64=CIRCLE('',#1164,0.0492125984251965);
#65=CIRCLE('',#1169,0.0314960629921256);
#66=CIRCLE('',#1170,0.0314960629921256);
#67=CIRCLE('',#1171,0.114173228346457);
#68=CIRCLE('',#1174,0.0393700787401575);
#69=CIRCLE('',#1176,0.0393700787401575);
#70=CIRCLE('',#1180,0.0492125984251963);
#71=CIRCLE('',#1181,0.0492125984251968);
#72=CIRCLE('',#1182,0.0826771653543308);
#73=CIRCLE('',#1183,0.0826771653543309);
#74=CIRCLE('',#1186,0.0826771653543309);
#75=CIRCLE('',#1189,0.0826771653543309);
#76=CIRCLE('',#1192,0.0826771653543307);
#77=CIRCLE('',#1195,0.0826771653543308);
#78=CIRCLE('',#1209,0.0787401574803145);
#79=CIRCLE('',#1210,0.0787401574803145);
#80=CIRCLE('',#1211,0.0787401574803145);
#81=CIRCLE('',#1212,0.0787401574803145);
#82=CIRCLE('',#1215,0.0787401574803146);
#83=CIRCLE('',#1216,0.0787401574803146);
#84=CIRCLE('',#1217,0.0787401574803146);
#85=CIRCLE('',#1218,0.0787401574803146);
#86=CIRCLE('',#1230,0.114173228346457);
#87=CIRCLE('',#1232,0.0846456692913385);
#88=CIRCLE('',#1234,0.0846456692913385);
#89=CIRCLE('',#1241,0.0314960629921259);
#90=CIRCLE('',#1244,0.0314960629921259);
#91=CIRCLE('',#1247,0.0393700787401575);
#92=CIRCLE('',#1248,0.0393700787401575);
#93=FACE_OUTER_BOUND('',#153,.T.);
#94=FACE_OUTER_BOUND('',#154,.T.);
#95=FACE_OUTER_BOUND('',#159,.T.);
#96=FACE_OUTER_BOUND('',#165,.T.);
#97=FACE_OUTER_BOUND('',#166,.T.);
#98=FACE_OUTER_BOUND('',#167,.T.);
#99=FACE_OUTER_BOUND('',#168,.T.);
#100=FACE_OUTER_BOUND('',#172,.T.);
#101=FACE_OUTER_BOUND('',#173,.T.);
#102=FACE_OUTER_BOUND('',#175,.T.);
#103=FACE_OUTER_BOUND('',#176,.T.);
#104=FACE_OUTER_BOUND('',#177,.T.);
#105=FACE_OUTER_BOUND('',#178,.T.);
#106=FACE_OUTER_BOUND('',#183,.T.);
#107=FACE_OUTER_BOUND('',#184,.T.);
#108=FACE_OUTER_BOUND('',#185,.T.);
#109=FACE_OUTER_BOUND('',#186,.T.);
#110=FACE_OUTER_BOUND('',#187,.T.);
#111=FACE_OUTER_BOUND('',#188,.T.);
#112=FACE_OUTER_BOUND('',#189,.T.);
#113=FACE_OUTER_BOUND('',#190,.T.);
#114=FACE_OUTER_BOUND('',#191,.T.);
#115=FACE_OUTER_BOUND('',#192,.T.);
#116=FACE_OUTER_BOUND('',#193,.T.);
#117=FACE_OUTER_BOUND('',#194,.T.);
#118=FACE_OUTER_BOUND('',#195,.T.);
#119=FACE_OUTER_BOUND('',#196,.T.);
#120=FACE_OUTER_BOUND('',#197,.T.);
#121=FACE_OUTER_BOUND('',#198,.T.);
#122=FACE_OUTER_BOUND('',#199,.T.);
#123=FACE_OUTER_BOUND('',#200,.T.);
#124=FACE_OUTER_BOUND('',#201,.T.);
#125=FACE_OUTER_BOUND('',#202,.T.);
#126=FACE_OUTER_BOUND('',#203,.T.);
#127=FACE_OUTER_BOUND('',#206,.T.);
#128=FACE_OUTER_BOUND('',#207,.T.);
#129=FACE_OUTER_BOUND('',#210,.T.);
#130=FACE_OUTER_BOUND('',#211,.T.);
#131=FACE_OUTER_BOUND('',#212,.T.);
#132=FACE_OUTER_BOUND('',#213,.T.);
#133=FACE_OUTER_BOUND('',#214,.T.);
#134=FACE_OUTER_BOUND('',#215,.T.);
#135=FACE_OUTER_BOUND('',#216,.T.);
#136=FACE_OUTER_BOUND('',#217,.T.);
#137=FACE_OUTER_BOUND('',#218,.T.);
#138=FACE_OUTER_BOUND('',#219,.T.);
#139=FACE_OUTER_BOUND('',#220,.T.);
#140=FACE_OUTER_BOUND('',#221,.T.);
#141=FACE_OUTER_BOUND('',#223,.T.);
#142=FACE_OUTER_BOUND('',#224,.T.);
#143=FACE_OUTER_BOUND('',#226,.T.);
#144=FACE_OUTER_BOUND('',#227,.T.);
#145=FACE_OUTER_BOUND('',#228,.T.);
#146=FACE_OUTER_BOUND('',#229,.T.);
#147=FACE_OUTER_BOUND('',#230,.T.);
#148=FACE_OUTER_BOUND('',#231,.T.);
#149=FACE_OUTER_BOUND('',#232,.T.);
#150=FACE_OUTER_BOUND('',#233,.T.);
#151=FACE_OUTER_BOUND('',#234,.T.);
#152=FACE_OUTER_BOUND('',#235,.T.);
#153=EDGE_LOOP('',(#725,#726,#727,#728,#729,#730,#731,#732));
#154=EDGE_LOOP('',(#733,#734,#735,#736,#737,#738,#739,#740));
#155=EDGE_LOOP('',(#741));
#156=EDGE_LOOP('',(#742));
#157=EDGE_LOOP('',(#743));
#158=EDGE_LOOP('',(#744));
#159=EDGE_LOOP('',(#745,#746,#747,#748));
#160=EDGE_LOOP('',(#749));
#161=EDGE_LOOP('',(#750));
#162=EDGE_LOOP('',(#751));
#163=EDGE_LOOP('',(#752));
#164=EDGE_LOOP('',(#753,#754,#755,#756));
#165=EDGE_LOOP('',(#757,#758,#759,#760));
#166=EDGE_LOOP('',(#761,#762,#763,#764));
#167=EDGE_LOOP('',(#765,#766,#767,#768));
#168=EDGE_LOOP('',(#769,#770,#771,#772));
#169=EDGE_LOOP('',(#773));
#170=EDGE_LOOP('',(#774));
#171=EDGE_LOOP('',(#775));
#172=EDGE_LOOP('',(#776,#777,#778,#779,#780,#781,#782,#783,#784,#785));
#173=EDGE_LOOP('',(#786,#787,#788,#789,#790,#791,#792,#793,#794,#795,#796,
#797));
#174=EDGE_LOOP('',(#798));
#175=EDGE_LOOP('',(#799,#800,#801,#802,#803,#804,#805,#806,#807,#808));
#176=EDGE_LOOP('',(#809,#810,#811,#812));
#177=EDGE_LOOP('',(#813,#814,#815,#816));
#178=EDGE_LOOP('',(#817,#818,#819,#820,#821,#822,#823,#824));
#179=EDGE_LOOP('',(#825));
#180=EDGE_LOOP('',(#826));
#181=EDGE_LOOP('',(#827));
#182=EDGE_LOOP('',(#828));
#183=EDGE_LOOP('',(#829,#830,#831,#832));
#184=EDGE_LOOP('',(#833,#834,#835,#836));
#185=EDGE_LOOP('',(#837));
#186=EDGE_LOOP('',(#838,#839,#840,#841));
#187=EDGE_LOOP('',(#842));
#188=EDGE_LOOP('',(#843,#844,#845,#846));
#189=EDGE_LOOP('',(#847));
#190=EDGE_LOOP('',(#848,#849,#850,#851));
#191=EDGE_LOOP('',(#852));
#192=EDGE_LOOP('',(#853,#854,#855,#856,#857,#858,#859,#860));
#193=EDGE_LOOP('',(#861,#862,#863,#864));
#194=EDGE_LOOP('',(#865,#866,#867,#868));
#195=EDGE_LOOP('',(#869,#870,#871,#872));
#196=EDGE_LOOP('',(#873,#874,#875,#876));
#197=EDGE_LOOP('',(#877,#878,#879,#880));
#198=EDGE_LOOP('',(#881,#882,#883,#884));
#199=EDGE_LOOP('',(#885,#886,#887,#888));
#200=EDGE_LOOP('',(#889,#890,#891,#892));
#201=EDGE_LOOP('',(#893,#894,#895,#896,#897,#898));
#202=EDGE_LOOP('',(#899,#900,#901,#902,#903,#904));
#203=EDGE_LOOP('',(#905,#906,#907,#908));
#204=EDGE_LOOP('',(#909,#910,#911,#912));
#205=EDGE_LOOP('',(#913,#914,#915,#916));
#206=EDGE_LOOP('',(#917,#918,#919,#920));
#207=EDGE_LOOP('',(#921,#922,#923,#924));
#208=EDGE_LOOP('',(#925,#926,#927,#928));
#209=EDGE_LOOP('',(#929,#930,#931,#932));
#210=EDGE_LOOP('',(#933,#934,#935,#936));
#211=EDGE_LOOP('',(#937,#938,#939,#940));
#212=EDGE_LOOP('',(#941,#942,#943,#944));
#213=EDGE_LOOP('',(#945,#946,#947,#948));
#214=EDGE_LOOP('',(#949,#950,#951,#952));
#215=EDGE_LOOP('',(#953,#954,#955,#956));
#216=EDGE_LOOP('',(#957,#958,#959,#960));
#217=EDGE_LOOP('',(#961,#962,#963,#964));
#218=EDGE_LOOP('',(#965,#966,#967,#968));
#219=EDGE_LOOP('',(#969,#970,#971,#972));
#220=EDGE_LOOP('',(#973,#974,#975,#976));
#221=EDGE_LOOP('',(#977));
#222=EDGE_LOOP('',(#978));
#223=EDGE_LOOP('',(#979,#980,#981,#982));
#224=EDGE_LOOP('',(#983));
#225=EDGE_LOOP('',(#984,#985,#986,#987));
#226=EDGE_LOOP('',(#988,#989,#990,#991));
#227=EDGE_LOOP('',(#992,#993,#994,#995,#996));
#228=EDGE_LOOP('',(#997,#998,#999,#1000));
#229=EDGE_LOOP('',(#1001,#1002,#1003,#1004,#1005));
#230=EDGE_LOOP('',(#1006,#1007,#1008));
#231=EDGE_LOOP('',(#1009,#1010,#1011,#1012));
#232=EDGE_LOOP('',(#1013,#1014,#1015));
#233=EDGE_LOOP('',(#1016,#1017,#1018,#1019));
#234=EDGE_LOOP('',(#1020,#1021,#1022,#1023,#1024,#1025,#1026,#1027));
#235=EDGE_LOOP('',(#1028,#1029,#1030));
#236=LINE('',#1565,#353);
#237=LINE('',#1567,#354);
#238=LINE('',#1569,#355);
#239=LINE('',#1571,#356);
#240=LINE('',#1573,#357);
#241=LINE('',#1575,#358);
#242=LINE('',#1577,#359);
#243=LINE('',#1578,#360);
#244=LINE('',#1582,#361);
#245=LINE('',#1583,#362);
#246=LINE('',#1585,#363);
#247=LINE('',#1587,#364);
#248=LINE('',#1589,#365);
#249=LINE('',#1591,#366);
#250=LINE('',#1592,#367);
#251=LINE('',#1604,#368);
#252=LINE('',#1606,#369);
#253=LINE('',#1608,#370);
#254=LINE('',#1609,#371);
#255=LINE('',#1620,#372);
#256=LINE('',#1622,#373);
#257=LINE('',#1624,#374);
#258=LINE('',#1625,#375);
#259=LINE('',#1629,#376);
#260=LINE('',#1631,#377);
#261=LINE('',#1633,#378);
#262=LINE('',#1634,#379);
#263=LINE('',#1638,#380);
#264=LINE('',#1639,#381);
#265=LINE('',#1640,#382);
#266=LINE('',#1644,#383);
#267=LINE('',#1646,#384);
#268=LINE('',#1648,#385);
#269=LINE('',#1649,#386);
#270=LINE('',#1651,#387);
#271=LINE('',#1652,#388);
#272=LINE('',#1661,#389);
#273=LINE('',#1663,#390);
#274=LINE('',#1665,#391);
#275=LINE('',#1667,#392);
#276=LINE('',#1668,#393);
#277=LINE('',#1670,#394);
#278=LINE('',#1672,#395);
#279=LINE('',#1673,#396);
#280=LINE('',#1677,#397);
#281=LINE('',#1678,#398);
#282=LINE('',#1680,#399);
#283=LINE('',#1682,#400);
#284=LINE('',#1683,#401);
#285=LINE('',#1684,#402);
#286=LINE('',#1686,#403);
#287=LINE('',#1687,#404);
#288=LINE('',#1693,#405);
#289=LINE('',#1697,#406);
#290=LINE('',#1699,#407);
#291=LINE('',#1700,#408);
#292=LINE('',#1701,#409);
#293=LINE('',#1702,#410);
#294=LINE('',#1704,#411);
#295=LINE('',#1705,#412);
#296=LINE('',#1707,#413);
#297=LINE('',#1709,#414);
#298=LINE('',#1710,#415);
#299=LINE('',#1723,#416);
#300=LINE('',#1728,#417);
#301=LINE('',#1733,#418);
#302=LINE('',#1738,#419);
#303=LINE('',#1742,#420);
#304=LINE('',#1744,#421);
#305=LINE('',#1745,#422);
#306=LINE('',#1747,#423);
#307=LINE('',#1749,#424);
#308=LINE('',#1751,#425);
#309=LINE('',#1753,#426);
#310=LINE('',#1755,#427);
#311=LINE('',#1757,#428);
#312=LINE('',#1759,#429);
#313=LINE('',#1760,#430);
#314=LINE('',#1766,#431);
#315=LINE('',#1768,#432);
#316=LINE('',#1769,#433);
#317=LINE('',#1772,#434);
#318=LINE('',#1776,#435);
#319=LINE('',#1780,#436);
#320=LINE('',#1784,#437);
#321=LINE('',#1788,#438);
#322=LINE('',#1789,#439);
#323=LINE('',#1792,#440);
#324=LINE('',#1793,#441);
#325=LINE('',#1796,#442);
#326=LINE('',#1800,#443);
#327=LINE('',#1806,#444);
#328=LINE('',#1809,#445);
#329=LINE('',#1811,#446);
#330=LINE('',#1814,#447);
#331=LINE('',#1815,#448);
#332=LINE('',#1817,#449);
#333=LINE('',#1818,#450);
#334=LINE('',#1822,#451);
#335=LINE('',#1823,#452);
#336=LINE('',#1825,#453);
#337=LINE('',#1827,#454);
#338=LINE('',#1832,#455);
#339=LINE('',#1839,#456);
#340=LINE('',#1843,#457);
#341=LINE('',#1845,#458);
#342=LINE('',#1847,#459);
#343=LINE('',#1848,#460);
#344=LINE('',#1850,#461);
#345=LINE('',#1851,#462);
#346=LINE('',#1853,#463);
#347=LINE('',#1855,#464);
#348=LINE('',#1860,#465);
#349=LINE('',#1863,#466);
#350=LINE('',#1867,#467);
#351=LINE('',#1870,#468);
#352=LINE('',#1874,#469);
#353=VECTOR('',#1254,0.348330513331752);
#354=VECTOR('',#1255,0.0637799924442287);
#355=VECTOR('',#1256,0.0643906042332085);
#356=VECTOR('',#1257,0.0637799924442287);
#357=VECTOR('',#1258,0.335310378498032);
#358=VECTOR('',#1259,0.110236220472441);
#359=VECTOR('',#1260,0.748031496062992);
#360=VECTOR('',#1261,0.110236220472441);
#361=VECTOR('',#1264,0.35478294288122);
#362=VECTOR('',#1265,0.639763779527559);
#363=VECTOR('',#1266,1.37795275590551);
#364=VECTOR('',#1267,0.250984251968504);
#365=VECTOR('',#1268,0.573201913454881);
#366=VECTOR('',#1269,0.257436681517972);
#367=VECTOR('',#1270,2.59091844888795);
#368=VECTOR('',#1281,2.74839903442997);
#369=VECTOR('',#1282,0.393700787401575);
#370=VECTOR('',#1283,2.74839903442997);
#371=VECTOR('',#1284,0.393700787401575);
#372=VECTOR('',#1293,1.72789471701491);
#373=VECTOR('',#1294,0.119678764444902);
#374=VECTOR('',#1295,1.72789471701491);
#375=VECTOR('',#1296,0.119678764444902);
#376=VECTOR('',#1299,0.0236220472440944);
#377=VECTOR('',#1300,0.573201913454881);
#378=VECTOR('',#1301,0.0236220472440945);
#379=VECTOR('',#1302,0.573201913454881);
#380=VECTOR('',#1305,0.573201913454881);
#381=VECTOR('',#1306,0.0236220472440945);
#382=VECTOR('',#1307,0.0236220472440945);
#383=VECTOR('',#1310,0.804427456730403);
#384=VECTOR('',#1311,0.15748031496063);
#385=VECTOR('',#1312,0.804427456730403);
#386=VECTOR('',#1313,0.15748031496063);
#387=VECTOR('',#1316,0.298571923496936);
#388=VECTOR('',#1317,0.298571923496936);
#389=VECTOR('',#1326,5.19085876644603E-6);
#390=VECTOR('',#1327,0.0170288066150235);
#391=VECTOR('',#1328,0.117464137990859);
#392=VECTOR('',#1329,0.352941245599081);
#393=VECTOR('',#1330,0.0643906042332085);
#394=VECTOR('',#1331,0.116965957300877);
#395=VECTOR('',#1332,0.0152838574018693);
#396=VECTOR('',#1333,0.000503371548747928);
#397=VECTOR('',#1336,0.0170288066150235);
#398=VECTOR('',#1337,0.298566500195583);
#399=VECTOR('',#1338,0.298068319505602);
#400=VECTOR('',#1339,0.0152838574018693);
#401=VECTOR('',#1340,0.116965957300877);
#402=VECTOR('',#1341,0.246062992125984);
#403=VECTOR('',#1342,0.268615119069553);
#404=VECTOR('',#1343,0.117464137990859);
#405=VECTOR('',#1348,0.341155736708199);
#406=VECTOR('',#1351,0.328135601874478);
#407=VECTOR('',#1352,0.110236220472441);
#408=VECTOR('',#1353,0.250984251968504);
#409=VECTOR('',#1354,0.246062992125984);
#410=VECTOR('',#1355,0.110236220472441);
#411=VECTOR('',#1358,1.37795275590551);
#412=VECTOR('',#1359,1.37795275590551);
#413=VECTOR('',#1362,1.37795275590551);
#414=VECTOR('',#1365,0.639763779527559);
#415=VECTOR('',#1366,2.59091844888795);
#416=VECTOR('',#1381,0.0826771653543309);
#417=VECTOR('',#1388,0.0826771653543309);
#418=VECTOR('',#1395,0.0826771653543307);
#419=VECTOR('',#1402,0.0826771653543308);
#420=VECTOR('',#1407,0.00553824402543384);
#421=VECTOR('',#1408,0.078740157480315);
#422=VECTOR('',#1409,0.00553824402543384);
#423=VECTOR('',#1412,0.0492125984251968);
#424=VECTOR('',#1415,0.0492125984251968);
#425=VECTOR('',#1418,0.0492125984251966);
#426=VECTOR('',#1421,0.0492125984251965);
#427=VECTOR('',#1424,2.59091844888795);
#428=VECTOR('',#1427,2.59091844888795);
#429=VECTOR('',#1430,2.59091844888795);
#430=VECTOR('',#1431,2.59091844888795);
#431=VECTOR('',#1440,0.236220472440945);
#432=VECTOR('',#1441,1.72789471701491);
#433=VECTOR('',#1442,0.236220472440945);
#434=VECTOR('',#1443,0.31496062992126);
#435=VECTOR('',#1446,0.31496062992126);
#436=VECTOR('',#1449,0.31496062992126);
#437=VECTOR('',#1452,0.31496062992126);
#438=VECTOR('',#1457,0.236220472440945);
#439=VECTOR('',#1458,0.119678764444902);
#440=VECTOR('',#1461,0.236220472440945);
#441=VECTOR('',#1462,1.72789471701491);
#442=VECTOR('',#1463,0.31496062992126);
#443=VECTOR('',#1466,0.31496062992126);
#444=VECTOR('',#1471,0.31496062992126);
#445=VECTOR('',#1474,0.31496062992126);
#446=VECTOR('',#1477,0.119678764444902);
#447=VECTOR('',#1482,0.119678764444902);
#448=VECTOR('',#1483,0.119678764444902);
#449=VECTOR('',#1486,0.119678764444902);
#450=VECTOR('',#1487,0.119678764444902);
#451=VECTOR('',#1494,0.119678764444902);
#452=VECTOR('',#1495,0.119678764444902);
#453=VECTOR('',#1498,0.119678764444902);
#454=VECTOR('',#1501,0.119678764444902);
#455=VECTOR('',#1508,0.114173228346457);
#456=VECTOR('',#1517,0.0846456692913385);
#457=VECTOR('',#1520,0.0637799924442287);
#458=VECTOR('',#1521,0.0643906042332085);
#459=VECTOR('',#1522,0.0637799924442287);
#460=VECTOR('',#1523,0.0643906042332085);
#461=VECTOR('',#1526,0.659448818897638);
#462=VECTOR('',#1527,0.659448818897638);
#463=VECTOR('',#1530,0.0196850393700783);
#464=VECTOR('',#1533,0.0196850393700783);
#465=VECTOR('',#1538,0.0314960629921259);
#466=VECTOR('',#1543,0.0314960629921258);
#467=VECTOR('',#1546,0.0314960629921259);
#468=VECTOR('',#1551,0.0314960629921258);
#469=VECTOR('',#1556,0.0393700787401575);
#470=VERTEX_POINT('',#1563);
#471=VERTEX_POINT('',#1564);
#472=VERTEX_POINT('',#1566);
#473=VERTEX_POINT('',#1568);
#474=VERTEX_POINT('',#1570);
#475=VERTEX_POINT('',#1572);
#476=VERTEX_POINT('',#1574);
#477=VERTEX_POINT('',#1576);
#478=VERTEX_POINT('',#1580);
#479=VERTEX_POINT('',#1581);
#480=VERTEX_POINT('',#1584);
#481=VERTEX_POINT('',#1586);
#482=VERTEX_POINT('',#1588);
#483=VERTEX_POINT('',#1590);
#484=VERTEX_POINT('',#1593);
#485=VERTEX_POINT('',#1595);
#486=VERTEX_POINT('',#1597);
#487=VERTEX_POINT('',#1599);
#488=VERTEX_POINT('',#1602);
#489=VERTEX_POINT('',#1603);
#490=VERTEX_POINT('',#1605);
#491=VERTEX_POINT('',#1607);
#492=VERTEX_POINT('',#1610);
#493=VERTEX_POINT('',#1612);
#494=VERTEX_POINT('',#1614);
#495=VERTEX_POINT('',#1616);
#496=VERTEX_POINT('',#1618);
#497=VERTEX_POINT('',#1619);
#498=VERTEX_POINT('',#1621);
#499=VERTEX_POINT('',#1623);
#500=VERTEX_POINT('',#1627);
#501=VERTEX_POINT('',#1628);
#502=VERTEX_POINT('',#1630);
#503=VERTEX_POINT('',#1632);
#504=VERTEX_POINT('',#1636);
#505=VERTEX_POINT('',#1637);
#506=VERTEX_POINT('',#1642);
#507=VERTEX_POINT('',#1643);
#508=VERTEX_POINT('',#1645);
#509=VERTEX_POINT('',#1647);
#510=VERTEX_POINT('',#1653);
#511=VERTEX_POINT('',#1655);
#512=VERTEX_POINT('',#1657);
#513=VERTEX_POINT('',#1660);
#514=VERTEX_POINT('',#1662);
#515=VERTEX_POINT('',#1664);
#516=VERTEX_POINT('',#1666);
#517=VERTEX_POINT('',#1669);
#518=VERTEX_POINT('',#1671);
#519=VERTEX_POINT('',#1675);
#520=VERTEX_POINT('',#1676);
#521=VERTEX_POINT('',#1679);
#522=VERTEX_POINT('',#1681);
#523=VERTEX_POINT('',#1685);
#524=VERTEX_POINT('',#1688);
#525=VERTEX_POINT('',#1691);
#526=VERTEX_POINT('',#1692);
#527=VERTEX_POINT('',#1694);
#528=VERTEX_POINT('',#1696);
#529=VERTEX_POINT('',#1698);
#530=VERTEX_POINT('',#1711);
#531=VERTEX_POINT('',#1713);
#532=VERTEX_POINT('',#1715);
#533=VERTEX_POINT('',#1717);
#534=VERTEX_POINT('',#1721);
#535=VERTEX_POINT('',#1726);
#536=VERTEX_POINT('',#1731);
#537=VERTEX_POINT('',#1736);
#538=VERTEX_POINT('',#1741);
#539=VERTEX_POINT('',#1743);
#540=VERTEX_POINT('',#1765);
#541=VERTEX_POINT('',#1767);
#542=VERTEX_POINT('',#1770);
#543=VERTEX_POINT('',#1771);
#544=VERTEX_POINT('',#1773);
#545=VERTEX_POINT('',#1775);
#546=VERTEX_POINT('',#1778);
#547=VERTEX_POINT('',#1779);
#548=VERTEX_POINT('',#1781);
#549=VERTEX_POINT('',#1783);
#550=VERTEX_POINT('',#1787);
#551=VERTEX_POINT('',#1791);
#552=VERTEX_POINT('',#1794);
#553=VERTEX_POINT('',#1795);
#554=VERTEX_POINT('',#1797);
#555=VERTEX_POINT('',#1799);
#556=VERTEX_POINT('',#1802);
#557=VERTEX_POINT('',#1803);
#558=VERTEX_POINT('',#1805);
#559=VERTEX_POINT('',#1807);
#560=VERTEX_POINT('',#1830);
#561=VERTEX_POINT('',#1834);
#562=VERTEX_POINT('',#1837);
#563=VERTEX_POINT('',#1841);
#564=VERTEX_POINT('',#1842);
#565=VERTEX_POINT('',#1844);
#566=VERTEX_POINT('',#1846);
#567=VERTEX_POINT('',#1858);
#568=VERTEX_POINT('',#1859);
#569=VERTEX_POINT('',#1865);
#570=VERTEX_POINT('',#1866);
#571=VERTEX_POINT('',#1872);
#572=EDGE_CURVE('',#470,#471,#236,.T.);
#573=EDGE_CURVE('',#471,#472,#237,.T.);
#574=EDGE_CURVE('',#473,#472,#238,.T.);
#575=EDGE_CURVE('',#474,#473,#239,.T.);
#576=EDGE_CURVE('',#474,#475,#240,.T.);
#577=EDGE_CURVE('',#475,#476,#241,.T.);
#578=EDGE_CURVE('',#477,#476,#242,.T.);
#579=EDGE_CURVE('',#470,#477,#243,.T.);
#580=EDGE_CURVE('',#478,#479,#244,.T.);
#581=EDGE_CURVE('',#471,#479,#245,.T.);
#582=EDGE_CURVE('',#470,#480,#246,.T.);
#583=EDGE_CURVE('',#480,#481,#247,.T.);
#584=EDGE_CURVE('',#481,#482,#248,.T.);
#585=EDGE_CURVE('',#482,#483,#249,.T.);
#586=EDGE_CURVE('',#478,#483,#250,.T.);
#587=EDGE_CURVE('',#484,#484,#57,.T.);
#588=EDGE_CURVE('',#485,#485,#58,.T.);
#589=EDGE_CURVE('',#486,#486,#59,.T.);
#590=EDGE_CURVE('',#487,#487,#60,.T.);
#591=EDGE_CURVE('',#488,#489,#251,.T.);
#592=EDGE_CURVE('',#489,#490,#252,.F.);
#593=EDGE_CURVE('',#490,#491,#253,.T.);
#594=EDGE_CURVE('',#488,#491,#254,.T.);
#595=EDGE_CURVE('',#492,#492,#61,.T.);
#596=EDGE_CURVE('',#493,#493,#62,.T.);
#597=EDGE_CURVE('',#494,#494,#63,.T.);
#598=EDGE_CURVE('',#495,#495,#64,.T.);
#599=EDGE_CURVE('',#496,#497,#255,.T.);
#600=EDGE_CURVE('',#498,#496,#256,.T.);
#601=EDGE_CURVE('',#499,#498,#257,.T.);
#602=EDGE_CURVE('',#497,#499,#258,.T.);
#603=EDGE_CURVE('',#500,#501,#259,.T.);
#604=EDGE_CURVE('',#502,#501,#260,.T.);
#605=EDGE_CURVE('',#503,#502,#261,.T.);
#606=EDGE_CURVE('',#503,#500,#262,.T.);
#607=EDGE_CURVE('',#504,#505,#263,.T.);
#608=EDGE_CURVE('',#482,#504,#264,.T.);
#609=EDGE_CURVE('',#481,#505,#265,.T.);
#610=EDGE_CURVE('',#506,#507,#266,.T.);
#611=EDGE_CURVE('',#506,#508,#267,.T.);
#612=EDGE_CURVE('',#508,#509,#268,.T.);
#613=EDGE_CURVE('',#509,#507,#269,.T.);
#614=EDGE_CURVE('',#506,#491,#270,.T.);
#615=EDGE_CURVE('',#488,#507,#271,.T.);
#616=EDGE_CURVE('',#510,#510,#65,.T.);
#617=EDGE_CURVE('',#511,#511,#66,.T.);
#618=EDGE_CURVE('',#512,#512,#67,.T.);
#619=EDGE_CURVE('',#513,#508,#272,.T.);
#620=EDGE_CURVE('',#514,#513,#273,.T.);
#621=EDGE_CURVE('',#515,#514,#274,.T.);
#622=EDGE_CURVE('',#516,#515,#275,.T.);
#623=EDGE_CURVE('',#516,#479,#276,.T.);
#624=EDGE_CURVE('',#517,#478,#277,.T.);
#625=EDGE_CURVE('',#518,#517,#278,.T.);
#626=EDGE_CURVE('',#509,#518,#279,.T.);
#627=EDGE_CURVE('',#519,#520,#280,.T.);
#628=EDGE_CURVE('',#520,#490,#281,.T.);
#629=EDGE_CURVE('',#489,#521,#282,.T.);
#630=EDGE_CURVE('',#521,#522,#283,.T.);
#631=EDGE_CURVE('',#522,#483,#284,.T.);
#632=EDGE_CURVE('',#501,#504,#285,.T.);
#633=EDGE_CURVE('',#523,#500,#286,.T.);
#634=EDGE_CURVE('',#523,#519,#287,.T.);
#635=EDGE_CURVE('',#524,#524,#68,.T.);
#636=EDGE_CURVE('',#525,#526,#288,.T.);
#637=EDGE_CURVE('',#525,#527,#69,.T.);
#638=EDGE_CURVE('',#528,#527,#289,.T.);
#639=EDGE_CURVE('',#529,#528,#290,.T.);
#640=EDGE_CURVE('',#503,#529,#291,.T.);
#641=EDGE_CURVE('',#505,#502,#292,.T.);
#642=EDGE_CURVE('',#480,#526,#293,.T.);
#643=EDGE_CURVE('',#476,#528,#294,.T.);
#644=EDGE_CURVE('',#475,#529,#295,.T.);
#645=EDGE_CURVE('',#526,#477,#296,.T.);
#646=EDGE_CURVE('',#474,#516,#297,.T.);
#647=EDGE_CURVE('',#523,#515,#298,.T.);
#648=EDGE_CURVE('',#530,#530,#70,.T.);
#649=EDGE_CURVE('',#531,#531,#71,.T.);
#650=EDGE_CURVE('',#532,#532,#72,.T.);
#651=EDGE_CURVE('',#533,#533,#73,.T.);
#652=EDGE_CURVE('',#534,#534,#74,.T.);
#653=EDGE_CURVE('',#534,#533,#299,.T.);
#654=EDGE_CURVE('',#535,#535,#75,.T.);
#655=EDGE_CURVE('',#535,#484,#300,.T.);
#656=EDGE_CURVE('',#536,#536,#76,.T.);
#657=EDGE_CURVE('',#536,#485,#301,.T.);
#658=EDGE_CURVE('',#537,#537,#77,.T.);
#659=EDGE_CURVE('',#537,#532,#302,.T.);
#660=EDGE_CURVE('',#538,#527,#303,.T.);
#661=EDGE_CURVE('',#538,#539,#304,.T.);
#662=EDGE_CURVE('',#525,#539,#305,.F.);
#663=EDGE_CURVE('',#492,#486,#306,.T.);
#664=EDGE_CURVE('',#493,#531,#307,.T.);
#665=EDGE_CURVE('',#494,#487,#308,.T.);
#666=EDGE_CURVE('',#495,#530,#309,.T.);
#667=EDGE_CURVE('',#519,#514,#310,.T.);
#668=EDGE_CURVE('',#520,#513,#311,.T.);
#669=EDGE_CURVE('',#518,#521,#312,.T.);
#670=EDGE_CURVE('',#522,#517,#313,.T.);
#671=EDGE_CURVE('',#540,#497,#314,.T.);
#672=EDGE_CURVE('',#541,#540,#315,.T.);
#673=EDGE_CURVE('',#541,#496,#316,.T.);
#674=EDGE_CURVE('',#542,#543,#317,.T.);
#675=EDGE_CURVE('',#544,#542,#78,.T.);
#676=EDGE_CURVE('',#544,#545,#318,.T.);
#677=EDGE_CURVE('',#543,#545,#79,.T.);
#678=EDGE_CURVE('',#546,#547,#319,.T.);
#679=EDGE_CURVE('',#548,#547,#80,.T.);
#680=EDGE_CURVE('',#549,#548,#320,.T.);
#681=EDGE_CURVE('',#546,#549,#81,.T.);
#682=EDGE_CURVE('',#550,#499,#321,.T.);
#683=EDGE_CURVE('',#540,#550,#322,.T.);
#684=EDGE_CURVE('',#551,#498,#323,.T.);
#685=EDGE_CURVE('',#550,#551,#324,.T.);
#686=EDGE_CURVE('',#552,#553,#325,.T.);
#687=EDGE_CURVE('',#553,#554,#82,.T.);
#688=EDGE_CURVE('',#554,#555,#326,.T.);
#689=EDGE_CURVE('',#555,#552,#83,.T.);
#690=EDGE_CURVE('',#556,#557,#84,.T.);
#691=EDGE_CURVE('',#557,#558,#327,.T.);
#692=EDGE_CURVE('',#558,#559,#85,.T.);
#693=EDGE_CURVE('',#559,#556,#328,.T.);
#694=EDGE_CURVE('',#551,#541,#329,.T.);
#695=EDGE_CURVE('',#546,#556,#330,.F.);
#696=EDGE_CURVE('',#557,#549,#331,.T.);
#697=EDGE_CURVE('',#548,#558,#332,.F.);
#698=EDGE_CURVE('',#559,#547,#333,.T.);
#699=EDGE_CURVE('',#544,#553,#334,.F.);
#700=EDGE_CURVE('',#554,#542,#335,.T.);
#701=EDGE_CURVE('',#543,#555,#336,.F.);
#702=EDGE_CURVE('',#552,#545,#337,.T.);
#703=EDGE_CURVE('',#560,#560,#86,.T.);
#704=EDGE_CURVE('',#560,#512,#338,.T.);
#705=EDGE_CURVE('',#561,#561,#87,.T.);
#706=EDGE_CURVE('',#562,#562,#88,.T.);
#707=EDGE_CURVE('',#562,#561,#339,.T.);
#708=EDGE_CURVE('',#563,#564,#340,.T.);
#709=EDGE_CURVE('',#564,#565,#341,.T.);
#710=EDGE_CURVE('',#566,#565,#342,.T.);
#711=EDGE_CURVE('',#563,#566,#343,.T.);
#712=EDGE_CURVE('',#472,#565,#344,.T.);
#713=EDGE_CURVE('',#473,#564,#345,.T.);
#714=EDGE_CURVE('',#479,#566,#346,.T.);
#715=EDGE_CURVE('',#516,#563,#347,.T.);
#716=EDGE_CURVE('',#567,#568,#348,.T.);
#717=EDGE_CURVE('',#568,#568,#89,.T.);
#718=EDGE_CURVE('',#568,#511,#349,.T.);
#719=EDGE_CURVE('',#569,#570,#350,.T.);
#720=EDGE_CURVE('',#570,#570,#90,.T.);
#721=EDGE_CURVE('',#570,#510,#351,.T.);
#722=EDGE_CURVE('',#571,#539,#91,.T.);
#723=EDGE_CURVE('',#571,#524,#352,.T.);
#724=EDGE_CURVE('',#538,#571,#92,.T.);
#725=ORIENTED_EDGE('',*,*,#572,.T.);
#726=ORIENTED_EDGE('',*,*,#573,.T.);
#727=ORIENTED_EDGE('',*,*,#574,.F.);
#728=ORIENTED_EDGE('',*,*,#575,.F.);
#729=ORIENTED_EDGE('',*,*,#576,.T.);
#730=ORIENTED_EDGE('',*,*,#577,.T.);
#731=ORIENTED_EDGE('',*,*,#578,.F.);
#732=ORIENTED_EDGE('',*,*,#579,.F.);
#733=ORIENTED_EDGE('',*,*,#580,.T.);
#734=ORIENTED_EDGE('',*,*,#581,.F.);
#735=ORIENTED_EDGE('',*,*,#572,.F.);
#736=ORIENTED_EDGE('',*,*,#582,.T.);
#737=ORIENTED_EDGE('',*,*,#583,.T.);
#738=ORIENTED_EDGE('',*,*,#584,.T.);
#739=ORIENTED_EDGE('',*,*,#585,.T.);
#740=ORIENTED_EDGE('',*,*,#586,.F.);
#741=ORIENTED_EDGE('',*,*,#587,.F.);
#742=ORIENTED_EDGE('',*,*,#588,.F.);
#743=ORIENTED_EDGE('',*,*,#589,.F.);
#744=ORIENTED_EDGE('',*,*,#590,.F.);
#745=ORIENTED_EDGE('',*,*,#591,.T.);
#746=ORIENTED_EDGE('',*,*,#592,.T.);
#747=ORIENTED_EDGE('',*,*,#593,.T.);
#748=ORIENTED_EDGE('',*,*,#594,.F.);
#749=ORIENTED_EDGE('',*,*,#595,.T.);
#750=ORIENTED_EDGE('',*,*,#596,.T.);
#751=ORIENTED_EDGE('',*,*,#597,.T.);
#752=ORIENTED_EDGE('',*,*,#598,.T.);
#753=ORIENTED_EDGE('',*,*,#599,.F.);
#754=ORIENTED_EDGE('',*,*,#600,.F.);
#755=ORIENTED_EDGE('',*,*,#601,.F.);
#756=ORIENTED_EDGE('',*,*,#602,.F.);
#757=ORIENTED_EDGE('',*,*,#603,.T.);
#758=ORIENTED_EDGE('',*,*,#604,.F.);
#759=ORIENTED_EDGE('',*,*,#605,.F.);
#760=ORIENTED_EDGE('',*,*,#606,.T.);
#761=ORIENTED_EDGE('',*,*,#607,.F.);
#762=ORIENTED_EDGE('',*,*,#608,.F.);
#763=ORIENTED_EDGE('',*,*,#584,.F.);
#764=ORIENTED_EDGE('',*,*,#609,.T.);
#765=ORIENTED_EDGE('',*,*,#610,.F.);
#766=ORIENTED_EDGE('',*,*,#611,.T.);
#767=ORIENTED_EDGE('',*,*,#612,.T.);
#768=ORIENTED_EDGE('',*,*,#613,.T.);
#769=ORIENTED_EDGE('',*,*,#594,.T.);
#770=ORIENTED_EDGE('',*,*,#614,.F.);
#771=ORIENTED_EDGE('',*,*,#610,.T.);
#772=ORIENTED_EDGE('',*,*,#615,.F.);
#773=ORIENTED_EDGE('',*,*,#616,.F.);
#774=ORIENTED_EDGE('',*,*,#617,.F.);
#775=ORIENTED_EDGE('',*,*,#618,.T.);
#776=ORIENTED_EDGE('',*,*,#619,.F.);
#777=ORIENTED_EDGE('',*,*,#620,.F.);
#778=ORIENTED_EDGE('',*,*,#621,.F.);
#779=ORIENTED_EDGE('',*,*,#622,.F.);
#780=ORIENTED_EDGE('',*,*,#623,.T.);
#781=ORIENTED_EDGE('',*,*,#580,.F.);
#782=ORIENTED_EDGE('',*,*,#624,.F.);
#783=ORIENTED_EDGE('',*,*,#625,.F.);
#784=ORIENTED_EDGE('',*,*,#626,.F.);
#785=ORIENTED_EDGE('',*,*,#612,.F.);
#786=ORIENTED_EDGE('',*,*,#627,.T.);
#787=ORIENTED_EDGE('',*,*,#628,.T.);
#788=ORIENTED_EDGE('',*,*,#592,.F.);
#789=ORIENTED_EDGE('',*,*,#629,.T.);
#790=ORIENTED_EDGE('',*,*,#630,.T.);
#791=ORIENTED_EDGE('',*,*,#631,.T.);
#792=ORIENTED_EDGE('',*,*,#585,.F.);
#793=ORIENTED_EDGE('',*,*,#608,.T.);
#794=ORIENTED_EDGE('',*,*,#632,.F.);
#795=ORIENTED_EDGE('',*,*,#603,.F.);
#796=ORIENTED_EDGE('',*,*,#633,.F.);
#797=ORIENTED_EDGE('',*,*,#634,.T.);
#798=ORIENTED_EDGE('',*,*,#635,.F.);
#799=ORIENTED_EDGE('',*,*,#636,.F.);
#800=ORIENTED_EDGE('',*,*,#637,.T.);
#801=ORIENTED_EDGE('',*,*,#638,.F.);
#802=ORIENTED_EDGE('',*,*,#639,.F.);
#803=ORIENTED_EDGE('',*,*,#640,.F.);
#804=ORIENTED_EDGE('',*,*,#605,.T.);
#805=ORIENTED_EDGE('',*,*,#641,.F.);
#806=ORIENTED_EDGE('',*,*,#609,.F.);
#807=ORIENTED_EDGE('',*,*,#583,.F.);
#808=ORIENTED_EDGE('',*,*,#642,.T.);
#809=ORIENTED_EDGE('',*,*,#643,.F.);
#810=ORIENTED_EDGE('',*,*,#577,.F.);
#811=ORIENTED_EDGE('',*,*,#644,.T.);
#812=ORIENTED_EDGE('',*,*,#639,.T.);
#813=ORIENTED_EDGE('',*,*,#579,.T.);
#814=ORIENTED_EDGE('',*,*,#645,.F.);
#815=ORIENTED_EDGE('',*,*,#642,.F.);
#816=ORIENTED_EDGE('',*,*,#582,.F.);
#817=ORIENTED_EDGE('',*,*,#646,.T.);
#818=ORIENTED_EDGE('',*,*,#622,.T.);
#819=ORIENTED_EDGE('',*,*,#647,.F.);
#820=ORIENTED_EDGE('',*,*,#633,.T.);
#821=ORIENTED_EDGE('',*,*,#606,.F.);
#822=ORIENTED_EDGE('',*,*,#640,.T.);
#823=ORIENTED_EDGE('',*,*,#644,.F.);
#824=ORIENTED_EDGE('',*,*,#576,.F.);
#825=ORIENTED_EDGE('',*,*,#648,.F.);
#826=ORIENTED_EDGE('',*,*,#649,.F.);
#827=ORIENTED_EDGE('',*,*,#650,.F.);
#828=ORIENTED_EDGE('',*,*,#651,.F.);
#829=ORIENTED_EDGE('',*,*,#604,.T.);
#830=ORIENTED_EDGE('',*,*,#632,.T.);
#831=ORIENTED_EDGE('',*,*,#607,.T.);
#832=ORIENTED_EDGE('',*,*,#641,.T.);
#833=ORIENTED_EDGE('',*,*,#652,.F.);
#834=ORIENTED_EDGE('',*,*,#653,.T.);
#835=ORIENTED_EDGE('',*,*,#651,.T.);
#836=ORIENTED_EDGE('',*,*,#653,.F.);
#837=ORIENTED_EDGE('',*,*,#652,.T.);
#838=ORIENTED_EDGE('',*,*,#654,.F.);
#839=ORIENTED_EDGE('',*,*,#655,.T.);
#840=ORIENTED_EDGE('',*,*,#587,.T.);
#841=ORIENTED_EDGE('',*,*,#655,.F.);
#842=ORIENTED_EDGE('',*,*,#654,.T.);
#843=ORIENTED_EDGE('',*,*,#656,.F.);
#844=ORIENTED_EDGE('',*,*,#657,.T.);
#845=ORIENTED_EDGE('',*,*,#588,.T.);
#846=ORIENTED_EDGE('',*,*,#657,.F.);
#847=ORIENTED_EDGE('',*,*,#656,.T.);
#848=ORIENTED_EDGE('',*,*,#658,.F.);
#849=ORIENTED_EDGE('',*,*,#659,.T.);
#850=ORIENTED_EDGE('',*,*,#650,.T.);
#851=ORIENTED_EDGE('',*,*,#659,.F.);
#852=ORIENTED_EDGE('',*,*,#658,.T.);
#853=ORIENTED_EDGE('',*,*,#660,.F.);
#854=ORIENTED_EDGE('',*,*,#661,.T.);
#855=ORIENTED_EDGE('',*,*,#662,.F.);
#856=ORIENTED_EDGE('',*,*,#636,.T.);
#857=ORIENTED_EDGE('',*,*,#645,.T.);
#858=ORIENTED_EDGE('',*,*,#578,.T.);
#859=ORIENTED_EDGE('',*,*,#643,.T.);
#860=ORIENTED_EDGE('',*,*,#638,.T.);
#861=ORIENTED_EDGE('',*,*,#595,.F.);
#862=ORIENTED_EDGE('',*,*,#663,.T.);
#863=ORIENTED_EDGE('',*,*,#589,.T.);
#864=ORIENTED_EDGE('',*,*,#663,.F.);
#865=ORIENTED_EDGE('',*,*,#596,.F.);
#866=ORIENTED_EDGE('',*,*,#664,.T.);
#867=ORIENTED_EDGE('',*,*,#649,.T.);
#868=ORIENTED_EDGE('',*,*,#664,.F.);
#869=ORIENTED_EDGE('',*,*,#597,.F.);
#870=ORIENTED_EDGE('',*,*,#665,.T.);
#871=ORIENTED_EDGE('',*,*,#590,.T.);
#872=ORIENTED_EDGE('',*,*,#665,.F.);
#873=ORIENTED_EDGE('',*,*,#598,.F.);
#874=ORIENTED_EDGE('',*,*,#666,.T.);
#875=ORIENTED_EDGE('',*,*,#648,.T.);
#876=ORIENTED_EDGE('',*,*,#666,.F.);
#877=ORIENTED_EDGE('',*,*,#647,.T.);
#878=ORIENTED_EDGE('',*,*,#621,.T.);
#879=ORIENTED_EDGE('',*,*,#667,.F.);
#880=ORIENTED_EDGE('',*,*,#634,.F.);
#881=ORIENTED_EDGE('',*,*,#668,.F.);
#882=ORIENTED_EDGE('',*,*,#627,.F.);
#883=ORIENTED_EDGE('',*,*,#667,.T.);
#884=ORIENTED_EDGE('',*,*,#620,.T.);
#885=ORIENTED_EDGE('',*,*,#669,.F.);
#886=ORIENTED_EDGE('',*,*,#625,.T.);
#887=ORIENTED_EDGE('',*,*,#670,.F.);
#888=ORIENTED_EDGE('',*,*,#630,.F.);
#889=ORIENTED_EDGE('',*,*,#670,.T.);
#890=ORIENTED_EDGE('',*,*,#624,.T.);
#891=ORIENTED_EDGE('',*,*,#586,.T.);
#892=ORIENTED_EDGE('',*,*,#631,.F.);
#893=ORIENTED_EDGE('',*,*,#629,.F.);
#894=ORIENTED_EDGE('',*,*,#591,.F.);
#895=ORIENTED_EDGE('',*,*,#615,.T.);
#896=ORIENTED_EDGE('',*,*,#613,.F.);
#897=ORIENTED_EDGE('',*,*,#626,.T.);
#898=ORIENTED_EDGE('',*,*,#669,.T.);
#899=ORIENTED_EDGE('',*,*,#593,.F.);
#900=ORIENTED_EDGE('',*,*,#628,.F.);
#901=ORIENTED_EDGE('',*,*,#668,.T.);
#902=ORIENTED_EDGE('',*,*,#619,.T.);
#903=ORIENTED_EDGE('',*,*,#611,.F.);
#904=ORIENTED_EDGE('',*,*,#614,.T.);
#905=ORIENTED_EDGE('',*,*,#599,.T.);
#906=ORIENTED_EDGE('',*,*,#671,.F.);
#907=ORIENTED_EDGE('',*,*,#672,.F.);
#908=ORIENTED_EDGE('',*,*,#673,.T.);
#909=ORIENTED_EDGE('',*,*,#674,.F.);
#910=ORIENTED_EDGE('',*,*,#675,.F.);
#911=ORIENTED_EDGE('',*,*,#676,.T.);
#912=ORIENTED_EDGE('',*,*,#677,.F.);
#913=ORIENTED_EDGE('',*,*,#678,.T.);
#914=ORIENTED_EDGE('',*,*,#679,.F.);
#915=ORIENTED_EDGE('',*,*,#680,.F.);
#916=ORIENTED_EDGE('',*,*,#681,.F.);
#917=ORIENTED_EDGE('',*,*,#602,.T.);
#918=ORIENTED_EDGE('',*,*,#682,.F.);
#919=ORIENTED_EDGE('',*,*,#683,.F.);
#920=ORIENTED_EDGE('',*,*,#671,.T.);
#921=ORIENTED_EDGE('',*,*,#601,.T.);
#922=ORIENTED_EDGE('',*,*,#684,.F.);
#923=ORIENTED_EDGE('',*,*,#685,.F.);
#924=ORIENTED_EDGE('',*,*,#682,.T.);
#925=ORIENTED_EDGE('',*,*,#686,.T.);
#926=ORIENTED_EDGE('',*,*,#687,.T.);
#927=ORIENTED_EDGE('',*,*,#688,.T.);
#928=ORIENTED_EDGE('',*,*,#689,.T.);
#929=ORIENTED_EDGE('',*,*,#690,.T.);
#930=ORIENTED_EDGE('',*,*,#691,.T.);
#931=ORIENTED_EDGE('',*,*,#692,.T.);
#932=ORIENTED_EDGE('',*,*,#693,.T.);
#933=ORIENTED_EDGE('',*,*,#600,.T.);
#934=ORIENTED_EDGE('',*,*,#673,.F.);
#935=ORIENTED_EDGE('',*,*,#694,.F.);
#936=ORIENTED_EDGE('',*,*,#684,.T.);
#937=ORIENTED_EDGE('',*,*,#672,.T.);
#938=ORIENTED_EDGE('',*,*,#683,.T.);
#939=ORIENTED_EDGE('',*,*,#685,.T.);
#940=ORIENTED_EDGE('',*,*,#694,.T.);
#941=ORIENTED_EDGE('',*,*,#695,.F.);
#942=ORIENTED_EDGE('',*,*,#681,.T.);
#943=ORIENTED_EDGE('',*,*,#696,.F.);
#944=ORIENTED_EDGE('',*,*,#690,.F.);
#945=ORIENTED_EDGE('',*,*,#697,.F.);
#946=ORIENTED_EDGE('',*,*,#679,.T.);
#947=ORIENTED_EDGE('',*,*,#698,.F.);
#948=ORIENTED_EDGE('',*,*,#692,.F.);
#949=ORIENTED_EDGE('',*,*,#696,.T.);
#950=ORIENTED_EDGE('',*,*,#680,.T.);
#951=ORIENTED_EDGE('',*,*,#697,.T.);
#952=ORIENTED_EDGE('',*,*,#691,.F.);
#953=ORIENTED_EDGE('',*,*,#698,.T.);
#954=ORIENTED_EDGE('',*,*,#678,.F.);
#955=ORIENTED_EDGE('',*,*,#695,.T.);
#956=ORIENTED_EDGE('',*,*,#693,.F.);
#957=ORIENTED_EDGE('',*,*,#699,.F.);
#958=ORIENTED_EDGE('',*,*,#675,.T.);
#959=ORIENTED_EDGE('',*,*,#700,.F.);
#960=ORIENTED_EDGE('',*,*,#687,.F.);
#961=ORIENTED_EDGE('',*,*,#700,.T.);
#962=ORIENTED_EDGE('',*,*,#674,.T.);
#963=ORIENTED_EDGE('',*,*,#701,.T.);
#964=ORIENTED_EDGE('',*,*,#688,.F.);
#965=ORIENTED_EDGE('',*,*,#701,.F.);
#966=ORIENTED_EDGE('',*,*,#677,.T.);
#967=ORIENTED_EDGE('',*,*,#702,.F.);
#968=ORIENTED_EDGE('',*,*,#689,.F.);
#969=ORIENTED_EDGE('',*,*,#702,.T.);
#970=ORIENTED_EDGE('',*,*,#676,.F.);
#971=ORIENTED_EDGE('',*,*,#699,.T.);
#972=ORIENTED_EDGE('',*,*,#686,.F.);
#973=ORIENTED_EDGE('',*,*,#703,.T.);
#974=ORIENTED_EDGE('',*,*,#704,.T.);
#975=ORIENTED_EDGE('',*,*,#618,.F.);
#976=ORIENTED_EDGE('',*,*,#704,.F.);
#977=ORIENTED_EDGE('',*,*,#703,.F.);
#978=ORIENTED_EDGE('',*,*,#705,.T.);
#979=ORIENTED_EDGE('',*,*,#706,.T.);
#980=ORIENTED_EDGE('',*,*,#707,.T.);
#981=ORIENTED_EDGE('',*,*,#705,.F.);
#982=ORIENTED_EDGE('',*,*,#707,.F.);
#983=ORIENTED_EDGE('',*,*,#706,.F.);
#984=ORIENTED_EDGE('',*,*,#708,.T.);
#985=ORIENTED_EDGE('',*,*,#709,.T.);
#986=ORIENTED_EDGE('',*,*,#710,.F.);
#987=ORIENTED_EDGE('',*,*,#711,.F.);
#988=ORIENTED_EDGE('',*,*,#574,.T.);
#989=ORIENTED_EDGE('',*,*,#712,.T.);
#990=ORIENTED_EDGE('',*,*,#709,.F.);
#991=ORIENTED_EDGE('',*,*,#713,.F.);
#992=ORIENTED_EDGE('',*,*,#581,.T.);
#993=ORIENTED_EDGE('',*,*,#714,.T.);
#994=ORIENTED_EDGE('',*,*,#710,.T.);
#995=ORIENTED_EDGE('',*,*,#712,.F.);
#996=ORIENTED_EDGE('',*,*,#573,.F.);
#997=ORIENTED_EDGE('',*,*,#715,.T.);
#998=ORIENTED_EDGE('',*,*,#711,.T.);
#999=ORIENTED_EDGE('',*,*,#714,.F.);
#1000=ORIENTED_EDGE('',*,*,#623,.F.);
#1001=ORIENTED_EDGE('',*,*,#575,.T.);
#1002=ORIENTED_EDGE('',*,*,#713,.T.);
#1003=ORIENTED_EDGE('',*,*,#708,.F.);
#1004=ORIENTED_EDGE('',*,*,#715,.F.);
#1005=ORIENTED_EDGE('',*,*,#646,.F.);
#1006=ORIENTED_EDGE('',*,*,#716,.T.);
#1007=ORIENTED_EDGE('',*,*,#717,.T.);
#1008=ORIENTED_EDGE('',*,*,#716,.F.);
#1009=ORIENTED_EDGE('',*,*,#717,.F.);
#1010=ORIENTED_EDGE('',*,*,#718,.T.);
#1011=ORIENTED_EDGE('',*,*,#617,.T.);
#1012=ORIENTED_EDGE('',*,*,#718,.F.);
#1013=ORIENTED_EDGE('',*,*,#719,.T.);
#1014=ORIENTED_EDGE('',*,*,#720,.T.);
#1015=ORIENTED_EDGE('',*,*,#719,.F.);
#1016=ORIENTED_EDGE('',*,*,#720,.F.);
#1017=ORIENTED_EDGE('',*,*,#721,.T.);
#1018=ORIENTED_EDGE('',*,*,#616,.T.);
#1019=ORIENTED_EDGE('',*,*,#721,.F.);
#1020=ORIENTED_EDGE('',*,*,#660,.T.);
#1021=ORIENTED_EDGE('',*,*,#637,.F.);
#1022=ORIENTED_EDGE('',*,*,#662,.T.);
#1023=ORIENTED_EDGE('',*,*,#722,.F.);
#1024=ORIENTED_EDGE('',*,*,#723,.T.);
#1025=ORIENTED_EDGE('',*,*,#635,.T.);
#1026=ORIENTED_EDGE('',*,*,#723,.F.);
#1027=ORIENTED_EDGE('',*,*,#724,.F.);
#1028=ORIENTED_EDGE('',*,*,#724,.T.);
#1029=ORIENTED_EDGE('',*,*,#722,.T.);
#1030=ORIENTED_EDGE('',*,*,#661,.F.);
#1031=PLANE('',#1154);
#1032=PLANE('',#1155);
#1033=PLANE('',#1160);
#1034=PLANE('',#1165);
#1035=PLANE('',#1166);
#1036=PLANE('',#1167);
#1037=PLANE('',#1168);
#1038=PLANE('',#1172);
#1039=PLANE('',#1173);
#1040=PLANE('',#1175);
#1041=PLANE('',#1177);
#1042=PLANE('',#1178);
#1043=PLANE('',#1179);
#1044=PLANE('',#1184);
#1045=PLANE('',#1187);
#1046=PLANE('',#1190);
#1047=PLANE('',#1193);
#1048=PLANE('',#1196);
#1049=PLANE('',#1197);
#1050=PLANE('',#1202);
#1051=PLANE('',#1203);
#1052=PLANE('',#1204);
#1053=PLANE('',#1205);
#1054=PLANE('',#1206);
#1055=PLANE('',#1207);
#1056=PLANE('',#1208);
#1057=PLANE('',#1213);
#1058=PLANE('',#1214);
#1059=PLANE('',#1219);
#1060=PLANE('',#1220);
#1061=PLANE('',#1223);
#1062=PLANE('',#1224);
#1063=PLANE('',#1226);
#1064=PLANE('',#1228);
#1065=PLANE('',#1231);
#1066=PLANE('',#1235);
#1067=PLANE('',#1236);
#1068=PLANE('',#1237);
#1069=PLANE('',#1238);
#1070=PLANE('',#1239);
#1071=PLANE('',#1249);
#1072=ADVANCED_FACE('',(#93),#1031,.T.);
#1073=ADVANCED_FACE('',(#94,#34,#35,#36,#37),#1032,.T.);
#1074=ADVANCED_FACE('',(#95,#38,#39,#40,#41,#42),#1033,.F.);
#1075=ADVANCED_FACE('',(#96),#1034,.T.);
#1076=ADVANCED_FACE('',(#97),#1035,.F.);
#1077=ADVANCED_FACE('',(#98),#1036,.F.);
#1078=ADVANCED_FACE('',(#99,#43,#44,#45),#1037,.F.);
#1079=ADVANCED_FACE('',(#100),#1038,.T.);
#1080=ADVANCED_FACE('',(#101,#46),#1039,.F.);
#1081=ADVANCED_FACE('',(#102),#1040,.F.);
#1082=ADVANCED_FACE('',(#103),#1041,.T.);
#1083=ADVANCED_FACE('',(#104),#1042,.F.);
#1084=ADVANCED_FACE('',(#105,#47,#48,#49,#50),#1043,.T.);
#1085=ADVANCED_FACE('',(#106),#1044,.F.);
#1086=ADVANCED_FACE('',(#107),#17,.F.);
#1087=ADVANCED_FACE('',(#108),#1045,.T.);
#1088=ADVANCED_FACE('',(#109),#18,.F.);
#1089=ADVANCED_FACE('',(#110),#1046,.T.);
#1090=ADVANCED_FACE('',(#111),#19,.F.);
#1091=ADVANCED_FACE('',(#112),#1047,.T.);
#1092=ADVANCED_FACE('',(#113),#20,.F.);
#1093=ADVANCED_FACE('',(#114),#1048,.T.);
#1094=ADVANCED_FACE('',(#115),#1049,.T.);
#1095=ADVANCED_FACE('',(#116),#21,.F.);
#1096=ADVANCED_FACE('',(#117),#22,.F.);
#1097=ADVANCED_FACE('',(#118),#23,.F.);
#1098=ADVANCED_FACE('',(#119),#24,.F.);
#1099=ADVANCED_FACE('',(#120),#1050,.T.);
#1100=ADVANCED_FACE('',(#121),#1051,.T.);
#1101=ADVANCED_FACE('',(#122),#1052,.T.);
#1102=ADVANCED_FACE('',(#123),#1053,.T.);
#1103=ADVANCED_FACE('',(#124),#1054,.F.);
#1104=ADVANCED_FACE('',(#125),#1055,.F.);
#1105=ADVANCED_FACE('',(#126,#51,#52),#1056,.F.);
#1106=ADVANCED_FACE('',(#127),#1057,.F.);
#1107=ADVANCED_FACE('',(#128,#53,#54),#1058,.F.);
#1108=ADVANCED_FACE('',(#129),#1059,.F.);
#1109=ADVANCED_FACE('',(#130),#1060,.T.);
#1110=ADVANCED_FACE('',(#131),#25,.F.);
#1111=ADVANCED_FACE('',(#132),#26,.F.);
#1112=ADVANCED_FACE('',(#133),#1061,.F.);
#1113=ADVANCED_FACE('',(#134),#1062,.F.);
#1114=ADVANCED_FACE('',(#135),#27,.F.);
#1115=ADVANCED_FACE('',(#136),#1063,.F.);
#1116=ADVANCED_FACE('',(#137),#28,.F.);
#1117=ADVANCED_FACE('',(#138),#1064,.F.);
#1118=ADVANCED_FACE('',(#139),#29,.F.);
#1119=ADVANCED_FACE('',(#140,#55),#1065,.F.);
#1120=ADVANCED_FACE('',(#141),#30,.F.);
#1121=ADVANCED_FACE('',(#142,#56),#1066,.F.);
#1122=ADVANCED_FACE('',(#143),#1067,.F.);
#1123=ADVANCED_FACE('',(#144),#1068,.T.);
#1124=ADVANCED_FACE('',(#145),#1069,.T.);
#1125=ADVANCED_FACE('',(#146),#1070,.F.);
#1126=ADVANCED_FACE('',(#147),#15,.F.);
#1127=ADVANCED_FACE('',(#148),#31,.F.);
#1128=ADVANCED_FACE('',(#149),#16,.F.);
#1129=ADVANCED_FACE('',(#150),#32,.F.);
#1130=ADVANCED_FACE('',(#151),#33,.F.);
#1131=ADVANCED_FACE('',(#152),#1071,.T.);
#1132=CLOSED_SHELL('',(#1072,#1073,#1074,#1075,#1076,#1077,#1078,#1079,
#1080,#1081,#1082,#1083,#1084,#1085,#1086,#1087,#1088,#1089,#1090,#1091,
#1092,#1093,#1094,#1095,#1096,#1097,#1098,#1099,#1100,#1101,#1102,#1103,
#1104,#1105,#1106,#1107,#1108,#1109,#1110,#1111,#1112,#1113,#1114,#1115,
#1116,#1117,#1118,#1119,#1120,#1121,#1122,#1123,#1124,#1125,#1126,#1127,
#1128,#1129,#1130,#1131));
#1133=DERIVED_UNIT_ELEMENT(#1135,1.);
#1134=DERIVED_UNIT_ELEMENT(#1885,-3.);
#1135=(
CONVERSION_BASED_UNIT('gram',#1137)
MASS_UNIT()
NAMED_UNIT(#1882)
);
#1136=(
MASS_UNIT()
NAMED_UNIT(*)
SI_UNIT(.KILO.,.GRAM.)
);
#1137=MASS_MEASURE_WITH_UNIT(MASS_MEASURE(0.001),#1136);
#1138=DERIVED_UNIT((#1133,#1134));
#1139=MEASURE_REPRESENTATION_ITEM('density measure',
POSITIVE_RATIO_MEASURE(1.),#1138);
#1140=PROPERTY_DEFINITION_REPRESENTATION(#1145,#1142);
#1141=PROPERTY_DEFINITION_REPRESENTATION(#1146,#1143);
#1142=REPRESENTATION('material name',(#1144),#1879);
#1143=REPRESENTATION('density',(#1139),#1879);
#1144=DESCRIPTIVE_REPRESENTATION_ITEM('Generic','Generic');
#1145=PROPERTY_DEFINITION('material property','material name',#1893);
#1146=PROPERTY_DEFINITION('material property','density of part',#1893);
#1147=DATE_TIME_ROLE('creation_date');
#1148=APPLIED_DATE_AND_TIME_ASSIGNMENT(#1149,#1147,(#1893));
#1149=DATE_AND_TIME(#1150,#1151);
#1150=CALENDAR_DATE(2026,21,9);
#1151=LOCAL_TIME(0,0,0.,#1152);
#1152=COORDINATED_UNIVERSAL_TIME_OFFSET(0,0,.BEHIND.);
#1153=AXIS2_PLACEMENT_3D('',#1561,#1250,#1251);
#1154=AXIS2_PLACEMENT_3D('',#1562,#1252,#1253);
#1155=AXIS2_PLACEMENT_3D('',#1579,#1262,#1263);
#1156=AXIS2_PLACEMENT_3D('',#1594,#1271,#1272);
#1157=AXIS2_PLACEMENT_3D('',#1596,#1273,#1274);
#1158=AXIS2_PLACEMENT_3D('',#1598,#1275,#1276);
#1159=AXIS2_PLACEMENT_3D('',#1600,#1277,#1278);
#1160=AXIS2_PLACEMENT_3D('',#1601,#1279,#1280);
#1161=AXIS2_PLACEMENT_3D('',#1611,#1285,#1286);
#1162=AXIS2_PLACEMENT_3D('',#1613,#1287,#1288);
#1163=AXIS2_PLACEMENT_3D('',#1615,#1289,#1290);
#1164=AXIS2_PLACEMENT_3D('',#1617,#1291,#1292);
#1165=AXIS2_PLACEMENT_3D('',#1626,#1297,#1298);
#1166=AXIS2_PLACEMENT_3D('',#1635,#1303,#1304);
#1167=AXIS2_PLACEMENT_3D('',#1641,#1308,#1309);
#1168=AXIS2_PLACEMENT_3D('',#1650,#1314,#1315);
#1169=AXIS2_PLACEMENT_3D('',#1654,#1318,#1319);
#1170=AXIS2_PLACEMENT_3D('',#1656,#1320,#1321);
#1171=AXIS2_PLACEMENT_3D('',#1658,#1322,#1323);
#1172=AXIS2_PLACEMENT_3D('',#1659,#1324,#1325);
#1173=AXIS2_PLACEMENT_3D('',#1674,#1334,#1335);
#1174=AXIS2_PLACEMENT_3D('',#1689,#1344,#1345);
#1175=AXIS2_PLACEMENT_3D('',#1690,#1346,#1347);
#1176=AXIS2_PLACEMENT_3D('',#1695,#1349,#1350);
#1177=AXIS2_PLACEMENT_3D('',#1703,#1356,#1357);
#1178=AXIS2_PLACEMENT_3D('',#1706,#1360,#1361);
#1179=AXIS2_PLACEMENT_3D('',#1708,#1363,#1364);
#1180=AXIS2_PLACEMENT_3D('',#1712,#1367,#1368);
#1181=AXIS2_PLACEMENT_3D('',#1714,#1369,#1370);
#1182=AXIS2_PLACEMENT_3D('',#1716,#1371,#1372);
#1183=AXIS2_PLACEMENT_3D('',#1718,#1373,#1374);
#1184=AXIS2_PLACEMENT_3D('',#1719,#1375,#1376);
#1185=AXIS2_PLACEMENT_3D('',#1720,#1377,#1378);
#1186=AXIS2_PLACEMENT_3D('',#1722,#1379,#1380);
#1187=AXIS2_PLACEMENT_3D('',#1724,#1382,#1383);
#1188=AXIS2_PLACEMENT_3D('',#1725,#1384,#1385);
#1189=AXIS2_PLACEMENT_3D('',#1727,#1386,#1387);
#1190=AXIS2_PLACEMENT_3D('',#1729,#1389,#1390);
#1191=AXIS2_PLACEMENT_3D('',#1730,#1391,#1392);
#1192=AXIS2_PLACEMENT_3D('',#1732,#1393,#1394);
#1193=AXIS2_PLACEMENT_3D('',#1734,#1396,#1397);
#1194=AXIS2_PLACEMENT_3D('',#1735,#1398,#1399);
#1195=AXIS2_PLACEMENT_3D('',#1737,#1400,#1401);
#1196=AXIS2_PLACEMENT_3D('',#1739,#1403,#1404);
#1197=AXIS2_PLACEMENT_3D('',#1740,#1405,#1406);
#1198=AXIS2_PLACEMENT_3D('',#1746,#1410,#1411);
#1199=AXIS2_PLACEMENT_3D('',#1748,#1413,#1414);
#1200=AXIS2_PLACEMENT_3D('',#1750,#1416,#1417);
#1201=AXIS2_PLACEMENT_3D('',#1752,#1419,#1420);
#1202=AXIS2_PLACEMENT_3D('',#1754,#1422,#1423);
#1203=AXIS2_PLACEMENT_3D('',#1756,#1425,#1426);
#1204=AXIS2_PLACEMENT_3D('',#1758,#1428,#1429);
#1205=AXIS2_PLACEMENT_3D('',#1761,#1432,#1433);
#1206=AXIS2_PLACEMENT_3D('',#1762,#1434,#1435);
#1207=AXIS2_PLACEMENT_3D('',#1763,#1436,#1437);
#1208=AXIS2_PLACEMENT_3D('',#1764,#1438,#1439);
#1209=AXIS2_PLACEMENT_3D('',#1774,#1444,#1445);
#1210=AXIS2_PLACEMENT_3D('',#1777,#1447,#1448);
#1211=AXIS2_PLACEMENT_3D('',#1782,#1450,#1451);
#1212=AXIS2_PLACEMENT_3D('',#1785,#1453,#1454);
#1213=AXIS2_PLACEMENT_3D('',#1786,#1455,#1456);
#1214=AXIS2_PLACEMENT_3D('',#1790,#1459,#1460);
#1215=AXIS2_PLACEMENT_3D('',#1798,#1464,#1465);
#1216=AXIS2_PLACEMENT_3D('',#1801,#1467,#1468);
#1217=AXIS2_PLACEMENT_3D('',#1804,#1469,#1470);
#1218=AXIS2_PLACEMENT_3D('',#1808,#1472,#1473);
#1219=AXIS2_PLACEMENT_3D('',#1810,#1475,#1476);
#1220=AXIS2_PLACEMENT_3D('',#1812,#1478,#1479);
#1221=AXIS2_PLACEMENT_3D('',#1813,#1480,#1481);
#1222=AXIS2_PLACEMENT_3D('',#1816,#1484,#1485);
#1223=AXIS2_PLACEMENT_3D('',#1819,#1488,#1489);
#1224=AXIS2_PLACEMENT_3D('',#1820,#1490,#1491);
#1225=AXIS2_PLACEMENT_3D('',#1821,#1492,#1493);
#1226=AXIS2_PLACEMENT_3D('',#1824,#1496,#1497);
#1227=AXIS2_PLACEMENT_3D('',#1826,#1499,#1500);
#1228=AXIS2_PLACEMENT_3D('',#1828,#1502,#1503);
#1229=AXIS2_PLACEMENT_3D('',#1829,#1504,#1505);
#1230=AXIS2_PLACEMENT_3D('',#1831,#1506,#1507);
#1231=AXIS2_PLACEMENT_3D('',#1833,#1509,#1510);
#1232=AXIS2_PLACEMENT_3D('',#1835,#1511,#1512);
#1233=AXIS2_PLACEMENT_3D('',#1836,#1513,#1514);
#1234=AXIS2_PLACEMENT_3D('',#1838,#1515,#1516);
#1235=AXIS2_PLACEMENT_3D('',#1840,#1518,#1519);
#1236=AXIS2_PLACEMENT_3D('',#1849,#1524,#1525);
#1237=AXIS2_PLACEMENT_3D('',#1852,#1528,#1529);
#1238=AXIS2_PLACEMENT_3D('',#1854,#1531,#1532);
#1239=AXIS2_PLACEMENT_3D('',#1856,#1534,#1535);
#1240=AXIS2_PLACEMENT_3D('',#1857,#1536,#1537);
#1241=AXIS2_PLACEMENT_3D('',#1861,#1539,#1540);
#1242=AXIS2_PLACEMENT_3D('',#1862,#1541,#1542);
#1243=AXIS2_PLACEMENT_3D('',#1864,#1544,#1545);
#1244=AXIS2_PLACEMENT_3D('',#1868,#1547,#1548);
#1245=AXIS2_PLACEMENT_3D('',#1869,#1549,#1550);
#1246=AXIS2_PLACEMENT_3D('',#1871,#1552,#1553);
#1247=AXIS2_PLACEMENT_3D('',#1873,#1554,#1555);
#1248=AXIS2_PLACEMENT_3D('',#1875,#1557,#1558);
#1249=AXIS2_PLACEMENT_3D('',#1876,#1559,#1560);
#1250=DIRECTION('axis',(0.,0.,1.));
#1251=DIRECTION('refdir',(1.,0.,0.));
#1252=DIRECTION('center_axis',(0.,-1.,0.));
#1253=DIRECTION('ref_axis',(0.,0.,-1.));
#1254=DIRECTION('',(1.,0.,-3.13707572447141E-16));
#1255=DIRECTION('',(0.,0.,1.));
#1256=DIRECTION('',(-1.,0.,0.));
#1257=DIRECTION('',(0.,0.,1.));
#1258=DIRECTION('',(1.,0.,-2.6071109456509E-16));
#1259=DIRECTION('',(0.,0.,1.));
#1260=DIRECTION('',(1.,0.,-2.92163953848725E-16));
#1261=DIRECTION('',(3.96508223080413E-16,0.,1.));
#1262=DIRECTION('center_axis',(-3.04575439965667E-16,-7.39557098644699E-32,
-1.));
#1263=DIRECTION('ref_axis',(-1.,0.,3.04575439965667E-16));
#1264=DIRECTION('',(1.,0.,-3.08002179752917E-16));
#1265=DIRECTION('',(0.,1.,0.));
#1266=DIRECTION('',(-1.26882631385732E-16,-1.,0.));
#1267=DIRECTION('',(1.,0.,-4.35381578284375E-16));
#1268=DIRECTION('',(1.67761214887416E-15,-1.,0.));
#1269=DIRECTION('',(-1.,0.,4.24469112568722E-16));
#1270=DIRECTION('',(0.,-1.,0.));
#1271=DIRECTION('center_axis',(-3.04575439965667E-16,-7.39557098644699E-32,
-1.));
#1272=DIRECTION('ref_axis',(-1.,0.,3.04575439965666E-16));
#1273=DIRECTION('center_axis',(-3.04575439965667E-16,-7.39557098644699E-32,
-1.));
#1274=DIRECTION('ref_axis',(-1.,0.,3.04575439965667E-16));
#1275=DIRECTION('center_axis',(0.,-7.39557098644699E-32,-1.));
#1276=DIRECTION('ref_axis',(0.,1.,-7.39557098644699E-32));
#1277=DIRECTION('center_axis',(0.,-7.39557098644699E-32,-1.));
#1278=DIRECTION('ref_axis',(0.,1.,-7.39557098644699E-32));
#1279=DIRECTION('center_axis',(0.,0.,-1.));
#1280=DIRECTION('ref_axis',(-1.,0.,0.));
#1281=DIRECTION('',(0.,-1.,0.));
#1282=DIRECTION('',(-1.,0.,0.));
#1283=DIRECTION('',(0.,1.,0.));
#1284=DIRECTION('',(1.,0.,0.));
#1285=DIRECTION('center_axis',(0.,0.,-1.));
#1286=DIRECTION('ref_axis',(-1.,0.,0.));
#1287=DIRECTION('center_axis',(0.,0.,-1.));
#1288=DIRECTION('ref_axis',(-1.,0.,0.));
#1289=DIRECTION('center_axis',(0.,0.,-1.));
#1290=DIRECTION('ref_axis',(-1.,0.,0.));
#1291=DIRECTION('center_axis',(0.,0.,-1.));
#1292=DIRECTION('ref_axis',(-1.,0.,0.));
#1293=DIRECTION('',(0.,-1.,0.));
#1294=DIRECTION('',(-1.,0.,0.));
#1295=DIRECTION('',(0.,1.,0.));
#1296=DIRECTION('',(1.,0.,0.));
#1297=DIRECTION('center_axis',(-1.,-7.9129731214665E-63,3.04213333878478E-16));
#1298=DIRECTION('ref_axis',(3.04213333878478E-16,0.,1.));
#1299=DIRECTION('',(0.,0.,1.));
#1300=DIRECTION('',(0.,-1.,0.));
#1301=DIRECTION('',(0.,0.,1.));
#1302=DIRECTION('',(0.,-1.,0.));
#1303=DIRECTION('center_axis',(-1.,-1.73472347597681E-15,3.04213333878478E-16));
#1304=DIRECTION('ref_axis',(3.04213333878478E-16,0.,1.));
#1305=DIRECTION('',(0.,1.,0.));
#1306=DIRECTION('',(0.,0.,1.));
#1307=DIRECTION('',(0.,0.,1.));
#1308=DIRECTION('center_axis',(0.,0.,1.));
#1309=DIRECTION('ref_axis',(1.,0.,0.));
#1310=DIRECTION('',(-1.,0.,0.));
#1311=DIRECTION('',(0.,-1.,0.));
#1312=DIRECTION('',(-1.,0.,0.));
#1313=DIRECTION('',(0.,1.,0.));
#1314=DIRECTION('center_axis',(0.,-1.,0.));
#1315=DIRECTION('ref_axis',(0.,0.,-1.));
#1316=DIRECTION('',(0.,0.,1.));
#1317=DIRECTION('',(0.,0.,-1.));
#1318=DIRECTION('center_axis',(0.,1.,0.));
#1319=DIRECTION('ref_axis',(0.,0.,1.));
#1320=DIRECTION('center_axis',(0.,1.,0.));
#1321=DIRECTION('ref_axis',(0.,0.,1.));
#1322=DIRECTION('center_axis',(0.,-1.,0.));
#1323=DIRECTION('ref_axis',(0.,0.,-1.));
#1324=DIRECTION('center_axis',(0.,-1.,0.));
#1325=DIRECTION('ref_axis',(0.,0.,-1.));
#1326=DIRECTION('',(0.,0.,-1.));
#1327=DIRECTION('',(1.,0.,0.));
#1328=DIRECTION('',(0.,0.,-1.));
#1329=DIRECTION('',(1.,0.,-2.47687502912479E-16));
#1330=DIRECTION('',(-1.,0.,0.));
#1331=DIRECTION('',(0.,0.,1.));
#1332=DIRECTION('',(1.,0.,0.));
#1333=DIRECTION('',(0.,0.,1.));
#1334=DIRECTION('center_axis',(0.,1.,0.));
#1335=DIRECTION('ref_axis',(0.,0.,1.));
#1336=DIRECTION('',(1.,0.,0.));
#1337=DIRECTION('',(0.,0.,1.));
#1338=DIRECTION('',(0.,0.,-1.));
#1339=DIRECTION('',(1.,0.,0.));
#1340=DIRECTION('',(0.,0.,1.));
#1341=DIRECTION('',(-1.,0.,2.66453525910037E-16));
#1342=DIRECTION('',(-1.,0.,2.44082879902846E-16));
#1343=DIRECTION('',(0.,0.,-1.));
#1344=DIRECTION('center_axis',(0.,-1.,0.));
#1345=DIRECTION('ref_axis',(0.,0.,-1.));
#1346=DIRECTION('center_axis',(0.,-1.,0.));
#1347=DIRECTION('ref_axis',(0.,0.,-1.));
#1348=DIRECTION('',(-1.,0.,2.8827458310054E-16));
#1349=DIRECTION('center_axis',(0.,-1.,0.));
#1350=DIRECTION('ref_axis',(0.,0.,-1.));
#1351=DIRECTION('',(-1.,0.,2.99713067433426E-16));
#1352=DIRECTION('',(0.,0.,1.));
#1353=DIRECTION('',(1.,0.,-2.61228946970625E-16));
#1354=DIRECTION('',(1.,0.,-2.66453525910037E-16));
#1355=DIRECTION('',(3.96508223080413E-16,0.,1.));
#1356=DIRECTION('center_axis',(-1.,9.91270557701032E-17,3.04213333878478E-16));
#1357=DIRECTION('ref_axis',(3.04213333878478E-16,0.,1.));
#1358=DIRECTION('',(-1.26882631385732E-16,-1.,0.));
#1359=DIRECTION('',(-1.26882631385732E-16,-1.,0.));
#1360=DIRECTION('center_axis',(-1.,1.23908819712629E-16,3.04213333878478E-16));
#1361=DIRECTION('ref_axis',(3.04213333878478E-16,0.,1.));
#1362=DIRECTION('',(9.51619735392991E-17,1.,0.));
#1363=DIRECTION('center_axis',(-3.04575439965667E-16,-7.39557098644699E-32,
-1.));
#1364=DIRECTION('ref_axis',(-1.,0.,3.04575439965667E-16));
#1365=DIRECTION('',(0.,1.,0.));
#1366=DIRECTION('',(0.,1.,0.));
#1367=DIRECTION('center_axis',(0.,-7.39557098644699E-32,-1.));
#1368=DIRECTION('ref_axis',(0.,1.,-7.39557098644699E-32));
#1369=DIRECTION('center_axis',(0.,-7.39557098644699E-32,-1.));
#1370=DIRECTION('ref_axis',(0.,1.,-7.39557098644699E-32));
#1371=DIRECTION('center_axis',(-3.04575439965667E-16,-7.39557098644699E-32,
-1.));
#1372=DIRECTION('ref_axis',(-1.,0.,3.04575439965666E-16));
#1373=DIRECTION('center_axis',(-3.04575439965667E-16,-7.39557098644699E-32,
-1.));
#1374=DIRECTION('ref_axis',(-1.,0.,3.04575439965666E-16));
#1375=DIRECTION('center_axis',(3.12250225675825E-16,0.,1.));
#1376=DIRECTION('ref_axis',(1.,0.,-3.12250225675825E-16));
#1377=DIRECTION('center_axis',(-3.04575439965667E-16,-7.39557098644699E-32,
-1.));
#1378=DIRECTION('ref_axis',(-1.,0.,3.04575439965666E-16));
#1379=DIRECTION('center_axis',(-3.04575439965667E-16,-7.39557098644699E-32,
-1.));
#1380=DIRECTION('ref_axis',(-1.,0.,3.04575439965666E-16));
#1381=DIRECTION('',(-3.04575439965667E-16,-7.39557098644699E-32,-1.));
#1382=DIRECTION('center_axis',(-3.04575439965667E-16,-7.39557098644699E-32,
-1.));
#1383=DIRECTION('ref_axis',(-1.,0.,3.04575439965667E-16));
#1384=DIRECTION('center_axis',(-3.04575439965667E-16,-7.39557098644699E-32,
-1.));
#1385=DIRECTION('ref_axis',(-1.,0.,3.04575439965666E-16));
#1386=DIRECTION('center_axis',(-3.04575439965667E-16,-7.39557098644699E-32,
-1.));
#1387=DIRECTION('ref_axis',(-1.,0.,3.04575439965666E-16));
#1388=DIRECTION('',(-3.04575439965667E-16,-7.39557098644699E-32,-1.));
#1389=DIRECTION('center_axis',(-3.04575439965667E-16,-7.39557098644699E-32,
-1.));
#1390=DIRECTION('ref_axis',(-1.,0.,3.04575439965667E-16));
#1391=DIRECTION('center_axis',(-3.04575439965667E-16,-7.39557098644699E-32,
-1.));
#1392=DIRECTION('ref_axis',(-1.,0.,3.04575439965667E-16));
#1393=DIRECTION('center_axis',(-3.04575439965667E-16,-7.39557098644699E-32,
-1.));
#1394=DIRECTION('ref_axis',(-1.,0.,3.04575439965667E-16));
#1395=DIRECTION('',(-3.04575439965667E-16,-7.39557098644699E-32,-1.));
#1396=DIRECTION('center_axis',(-3.04575439965667E-16,-7.39557098644699E-32,
-1.));
#1397=DIRECTION('ref_axis',(-1.,0.,3.04575439965667E-16));
#1398=DIRECTION('center_axis',(-3.04575439965667E-16,-7.39557098644699E-32,
-1.));
#1399=DIRECTION('ref_axis',(-1.,0.,3.04575439965666E-16));
#1400=DIRECTION('center_axis',(-3.04575439965667E-16,-7.39557098644699E-32,
-1.));
#1401=DIRECTION('ref_axis',(-1.,0.,3.04575439965666E-16));
#1402=DIRECTION('',(-3.04575439965666E-16,-7.39557098644699E-32,-1.));
#1403=DIRECTION('center_axis',(-3.04575439965667E-16,-7.39557098644699E-32,
-1.));
#1404=DIRECTION('ref_axis',(-1.,0.,3.04575439965667E-16));
#1405=DIRECTION('center_axis',(-2.96729015627612E-16,2.94138736807261E-32,
-1.));
#1406=DIRECTION('ref_axis',(-1.,0.,2.96729015627612E-16));
#1407=DIRECTION('',(0.,-1.,0.));
#1408=DIRECTION('',(-1.,0.,4.16333634234433E-16));
#1409=DIRECTION('',(0.,-1.,0.));
#1410=DIRECTION('center_axis',(0.,-7.39557098644699E-32,-1.));
#1411=DIRECTION('ref_axis',(0.,1.,-7.39557098644699E-32));
#1412=DIRECTION('',(0.,-7.39557098644699E-32,-1.));
#1413=DIRECTION('center_axis',(0.,-7.39557098644699E-32,-1.));
#1414=DIRECTION('ref_axis',(0.,1.,-7.39557098644699E-32));
#1415=DIRECTION('',(0.,-7.39557098644699E-32,-1.));
#1416=DIRECTION('center_axis',(0.,-7.39557098644699E-32,-1.));
#1417=DIRECTION('ref_axis',(0.,1.,-7.39557098644699E-32));
#1418=DIRECTION('',(0.,-7.39557098644699E-32,-1.));
#1419=DIRECTION('center_axis',(0.,-7.39557098644699E-32,-1.));
#1420=DIRECTION('ref_axis',(0.,1.,-7.39557098644699E-32));
#1421=DIRECTION('',(0.,-7.39557098644699E-32,-1.));
#1422=DIRECTION('center_axis',(-1.,0.,0.));
#1423=DIRECTION('ref_axis',(0.,0.,1.));
#1424=DIRECTION('',(0.,1.,0.));
#1425=DIRECTION('center_axis',(0.,0.,-1.));
#1426=DIRECTION('ref_axis',(-1.,0.,0.));
#1427=DIRECTION('',(0.,1.,0.));
#1428=DIRECTION('center_axis',(0.,0.,-1.));
#1429=DIRECTION('ref_axis',(-1.,0.,0.));
#1430=DIRECTION('',(0.,-1.,0.));
#1431=DIRECTION('',(0.,1.,0.));
#1432=DIRECTION('center_axis',(1.,0.,-1.14573754286265E-16));
#1433=DIRECTION('ref_axis',(-1.14573754286265E-16,0.,-1.));
#1434=DIRECTION('center_axis',(1.,0.,0.));
#1435=DIRECTION('ref_axis',(0.,0.,-1.));
#1436=DIRECTION('center_axis',(-1.,0.,0.));
#1437=DIRECTION('ref_axis',(0.,0.,1.));
#1438=DIRECTION('center_axis',(1.,0.,0.));
#1439=DIRECTION('ref_axis',(0.,0.,-1.));
#1440=DIRECTION('',(0.,0.,-1.));
#1441=DIRECTION('',(0.,-1.,0.));
#1442=DIRECTION('',(0.,0.,-1.));
#1443=DIRECTION('',(0.,1.,-2.77555756156289E-16));
#1444=DIRECTION('center_axis',(-1.,0.,0.));
#1445=DIRECTION('ref_axis',(0.,0.,1.));
#1446=DIRECTION('',(0.,1.,-2.25514051876985E-16));
#1447=DIRECTION('center_axis',(-1.,0.,0.));
#1448=DIRECTION('ref_axis',(0.,0.,1.));
#1449=DIRECTION('',(0.,1.,-2.25514051876985E-16));
#1450=DIRECTION('center_axis',(-1.,0.,0.));
#1451=DIRECTION('ref_axis',(0.,0.,1.));
#1452=DIRECTION('',(0.,1.,-2.77555756156289E-16));
#1453=DIRECTION('center_axis',(-1.,0.,0.));
#1454=DIRECTION('ref_axis',(0.,0.,1.));
#1455=DIRECTION('center_axis',(0.,1.,0.));
#1456=DIRECTION('ref_axis',(0.,0.,1.));
#1457=DIRECTION('',(0.,0.,-1.));
#1458=DIRECTION('',(1.,0.,0.));
#1459=DIRECTION('center_axis',(-1.,0.,0.));
#1460=DIRECTION('ref_axis',(0.,0.,1.));
#1461=DIRECTION('',(0.,0.,-1.));
#1462=DIRECTION('',(0.,1.,0.));
#1463=DIRECTION('',(0.,-1.,2.25514051876985E-16));
#1464=DIRECTION('center_axis',(-1.,0.,0.));
#1465=DIRECTION('ref_axis',(0.,0.,1.));
#1466=DIRECTION('',(0.,1.,-2.08166817117217E-16));
#1467=DIRECTION('center_axis',(-1.,0.,0.));
#1468=DIRECTION('ref_axis',(0.,0.,1.));
#1469=DIRECTION('center_axis',(-1.,0.,0.));
#1470=DIRECTION('ref_axis',(0.,0.,1.));
#1471=DIRECTION('',(0.,1.,-2.08166817117217E-16));
#1472=DIRECTION('center_axis',(-1.,0.,0.));
#1473=DIRECTION('ref_axis',(0.,0.,1.));
#1474=DIRECTION('',(0.,-1.,2.25514051876985E-16));
#1475=DIRECTION('center_axis',(0.,-1.,0.));
#1476=DIRECTION('ref_axis',(0.,0.,-1.));
#1477=DIRECTION('',(-1.,0.,0.));
#1478=DIRECTION('center_axis',(0.,0.,1.));
#1479=DIRECTION('ref_axis',(1.,0.,0.));
#1480=DIRECTION('center_axis',(-1.,0.,0.));
#1481=DIRECTION('ref_axis',(0.,0.,1.));
#1482=DIRECTION('',(-1.,0.,0.));
#1483=DIRECTION('',(-1.,0.,0.));
#1484=DIRECTION('center_axis',(-1.,0.,0.));
#1485=DIRECTION('ref_axis',(0.,0.,1.));
#1486=DIRECTION('',(-1.,0.,0.));
#1487=DIRECTION('',(-1.,0.,0.));
#1488=DIRECTION('center_axis',(0.,2.16840434497101E-16,1.));
#1489=DIRECTION('ref_axis',(1.,0.,0.));
#1490=DIRECTION('center_axis',(0.,-2.16840434497101E-16,-1.));
#1491=DIRECTION('ref_axis',(-1.,0.,0.));
#1492=DIRECTION('center_axis',(-1.,0.,0.));
#1493=DIRECTION('ref_axis',(0.,0.,1.));
#1494=DIRECTION('',(-1.,0.,0.));
#1495=DIRECTION('',(-1.,0.,0.));
#1496=DIRECTION('center_axis',(0.,2.16840434497101E-16,1.));
#1497=DIRECTION('ref_axis',(1.,0.,0.));
#1498=DIRECTION('',(-1.,0.,0.));
#1499=DIRECTION('center_axis',(-1.,0.,0.));
#1500=DIRECTION('ref_axis',(0.,0.,1.));
#1501=DIRECTION('',(-1.,0.,0.));
#1502=DIRECTION('center_axis',(0.,-2.16840434497101E-16,-1.));
#1503=DIRECTION('ref_axis',(-1.,0.,0.));
#1504=DIRECTION('center_axis',(0.,1.,0.));
#1505=DIRECTION('ref_axis',(0.,0.,1.));
#1506=DIRECTION('center_axis',(0.,-1.,0.));
#1507=DIRECTION('ref_axis',(0.,0.,-1.));
#1508=DIRECTION('',(0.,1.,0.));
#1509=DIRECTION('center_axis',(0.,-1.,0.));
#1510=DIRECTION('ref_axis',(0.,0.,-1.));
#1511=DIRECTION('center_axis',(0.,-1.,0.));
#1512=DIRECTION('ref_axis',(0.,0.,-1.));
#1513=DIRECTION('center_axis',(0.,1.,0.));
#1514=DIRECTION('ref_axis',(0.,0.,1.));
#1515=DIRECTION('center_axis',(0.,-1.,0.));
#1516=DIRECTION('ref_axis',(0.,0.,-1.));
#1517=DIRECTION('',(0.,1.,0.));
#1518=DIRECTION('center_axis',(0.,-1.,0.));
#1519=DIRECTION('ref_axis',(0.,0.,-1.));
#1520=DIRECTION('',(0.,0.,1.));
#1521=DIRECTION('',(-1.,0.,0.));
#1522=DIRECTION('',(0.,0.,1.));
#1523=DIRECTION('',(-1.,0.,0.));
#1524=DIRECTION('center_axis',(0.,0.,1.));
#1525=DIRECTION('ref_axis',(1.,0.,0.));
#1526=DIRECTION('',(0.,1.,0.));
#1527=DIRECTION('',(0.,1.,0.));
#1528=DIRECTION('center_axis',(1.,0.,0.));
#1529=DIRECTION('ref_axis',(0.,0.,-1.));
#1530=DIRECTION('',(0.,1.,0.));
#1531=DIRECTION('center_axis',(0.,0.,1.));
#1532=DIRECTION('ref_axis',(1.,0.,0.));
#1533=DIRECTION('',(0.,1.,0.));
#1534=DIRECTION('center_axis',(1.,0.,0.));
#1535=DIRECTION('ref_axis',(0.,0.,-1.));
#1536=DIRECTION('center_axis',(0.,1.,0.));
#1537=DIRECTION('ref_axis',(0.,0.,1.));
#1538=DIRECTION('',(-1.04972719113862E-16,0.515038074910058,-0.85716730070211));
#1539=DIRECTION('center_axis',(0.,1.,0.));
#1540=DIRECTION('ref_axis',(0.,0.,1.));
#1541=DIRECTION('center_axis',(0.,1.,0.));
#1542=DIRECTION('ref_axis',(0.,0.,1.));
#1543=DIRECTION('',(0.,1.,0.));
#1544=DIRECTION('center_axis',(0.,1.,0.));
#1545=DIRECTION('ref_axis',(0.,0.,1.));
#1546=DIRECTION('',(-1.04972719113862E-16,0.515038074910058,-0.85716730070211));
#1547=DIRECTION('center_axis',(0.,1.,0.));
#1548=DIRECTION('ref_axis',(0.,0.,1.));
#1549=DIRECTION('center_axis',(0.,1.,0.));
#1550=DIRECTION('ref_axis',(0.,0.,1.));
#1551=DIRECTION('',(0.,1.,0.));
#1552=DIRECTION('center_axis',(0.,-1.,0.));
#1553=DIRECTION('ref_axis',(0.,0.,-1.));
#1554=DIRECTION('center_axis',(0.,-1.,0.));
#1555=DIRECTION('ref_axis',(0.,0.,-1.));
#1556=DIRECTION('',(0.,-1.,0.));
#1557=DIRECTION('center_axis',(0.,-1.,0.));
#1558=DIRECTION('ref_axis',(0.,0.,-1.));
#1559=DIRECTION('center_axis',(0.,-1.,0.));
#1560=DIRECTION('ref_axis',(0.,0.,-1.));
#1561=CARTESIAN_POINT('',(0.,0.,0.));
#1562=CARTESIAN_POINT('Origin',(-5.51080095247317E-17,2.51771653543307,
-0.181102362204724));
#1563=CARTESIAN_POINT('',(0.267716535433071,2.51771653543307,-0.181102362204724));
#1564=CARTESIAN_POINT('',(0.616047048764823,2.51771653543307,-0.181102362204725));
#1565=CARTESIAN_POINT('',(0.267716535433071,2.51771653543307,-0.181102362204724));
#1566=CARTESIAN_POINT('',(0.616047048764823,2.51771653543307,-0.117322369760496));
#1567=CARTESIAN_POINT('',(0.616047048764823,2.51771653543307,-0.181102362204725));
#1568=CARTESIAN_POINT('',(0.680437652998031,2.51771653543307,-0.117322369760496));
#1569=CARTESIAN_POINT('',(0.680437652998031,2.51771653543307,-0.117322369760496));
#1570=CARTESIAN_POINT('',(0.680437652998031,2.51771653543307,-0.181102362204725));
#1571=CARTESIAN_POINT('',(0.680437652998031,2.51771653543307,-0.181102362204725));
#1572=CARTESIAN_POINT('',(1.01574803149606,2.51771653543307,-0.181102362204725));
#1573=CARTESIAN_POINT('',(0.680437652998031,2.51771653543307,-0.181102362204725));
#1574=CARTESIAN_POINT('',(1.01574803149606,2.51771653543307,-0.0708661417322837));
#1575=CARTESIAN_POINT('',(1.01574803149606,2.51771653543307,-0.181102362204725));
#1576=CARTESIAN_POINT('',(0.267716535433071,2.51771653543307,-0.0708661417322835));
#1577=CARTESIAN_POINT('',(0.267716535433071,2.51771653543307,-0.0708661417322835));
#1578=CARTESIAN_POINT('',(0.267716535433071,2.51771653543307,-0.181102362204724));
#1579=CARTESIAN_POINT('Origin',(-5.51080095247317E-17,-2.91164212064841E-33,
-0.181102362204724));
#1580=CARTESIAN_POINT('',(0.261264105883602,3.15748031496063,-0.181102362204724));
#1581=CARTESIAN_POINT('',(0.616047048764823,3.15748031496063,-0.181102362204725));
#1582=CARTESIAN_POINT('',(0.261264105883602,3.15748031496063,-0.181102362204724));
#1583=CARTESIAN_POINT('',(0.616047048764823,2.51771653543307,-0.181102362204725));
#1584=CARTESIAN_POINT('',(0.267716535433071,1.13976377952756,-0.181102362204724));
#1585=CARTESIAN_POINT('',(0.267716535433071,2.51771653543307,-0.181102362204724));
#1586=CARTESIAN_POINT('',(0.518700787401575,1.13976377952756,-0.181102362204724));
#1587=CARTESIAN_POINT('',(0.267716535433071,1.13976377952756,-0.181102362204724));
#1588=CARTESIAN_POINT('',(0.518700787401575,0.566561866072678,-0.181102362204724));
#1589=CARTESIAN_POINT('',(0.518700787401575,1.13976377952756,-0.181102362204724));
#1590=CARTESIAN_POINT('',(0.261264105883602,0.566561866072678,-0.181102362204724));
#1591=CARTESIAN_POINT('',(0.518700787401575,0.566561866072678,-0.181102362204724));
#1592=CARTESIAN_POINT('',(0.261264105883602,3.15748031496063,-0.181102362204724));
#1593=CARTESIAN_POINT('',(0.437007874015748,2.75984251968504,-0.181102362204724));
#1594=CARTESIAN_POINT('Origin',(0.354330708661417,2.75984251968504,-0.181102362204724));
#1595=CARTESIAN_POINT('',(0.437007874015748,0.706692913385827,-0.181102362204724));
#1596=CARTESIAN_POINT('Origin',(0.354330708661417,0.706692913385827,-0.181102362204724));
#1597=CARTESIAN_POINT('',(0.354330708661417,2.97047244094488,-0.181102362204724));
#1598=CARTESIAN_POINT('Origin',(0.354330708661417,3.01968503937008,-0.181102362204724));
#1599=CARTESIAN_POINT('',(0.393700787401575,0.850393700787402,-0.181102362204725));
#1600=CARTESIAN_POINT('Origin',(0.393700787401575,0.899606299212598,-0.181102362204725));
#1601=CARTESIAN_POINT('Origin',(0.,3.15748031496063,0.));
#1602=CARTESIAN_POINT('',(0.245980248481733,3.31496062992126,2.33007158538586E-11));
#1603=CARTESIAN_POINT('',(0.245980248481733,0.566561866045554,0.));
#1604=CARTESIAN_POINT('',(0.245980248481733,3.31496062992126,0.));
#1605=CARTESIAN_POINT('',(1.05040770521214,0.566561866045554,0.));
#1606=CARTESIAN_POINT('',(-2.75540047623659E-17,0.566561866072678,0.));
#1607=CARTESIAN_POINT('',(1.05040770521214,3.31496062992126,2.33007110252567E-11));
#1608=CARTESIAN_POINT('',(1.05040770521214,0.56656159549129,0.));
#1609=CARTESIAN_POINT('',(0.,3.31496062992126,0.));
#1610=CARTESIAN_POINT('',(0.354330708661417,2.97047244094488,0.));
#1611=CARTESIAN_POINT('Origin',(0.354330708661417,3.01968503937008,0.));
#1612=CARTESIAN_POINT('',(0.931102362204724,2.97047244094488,0.));
#1613=CARTESIAN_POINT('Origin',(0.931102362204724,3.01968503937008,0.));
#1614=CARTESIAN_POINT('',(0.393700787401575,0.850393700787402,0.));
#1615=CARTESIAN_POINT('Origin',(0.393700787401575,0.899606299212598,0.));
#1616=CARTESIAN_POINT('',(0.891732283464567,0.850393700787402,0.));
#1617=CARTESIAN_POINT('Origin',(0.891732283464567,0.899606299212598,0.));
#1618=CARTESIAN_POINT('',(0.303879321424436,2.81765194346208,0.));
#1619=CARTESIAN_POINT('',(0.303879321424436,1.08975722644718,0.));
#1620=CARTESIAN_POINT('',(0.303879321424436,2.81765194346208,0.));
#1621=CARTESIAN_POINT('',(0.423558085869338,2.81765194346208,0.));
#1622=CARTESIAN_POINT('',(0.423558085869338,2.81765194346208,0.));
#1623=CARTESIAN_POINT('',(0.423558085869338,1.08975722644718,0.));
#1624=CARTESIAN_POINT('',(0.423558085869338,1.08975722644718,0.));
#1625=CARTESIAN_POINT('',(0.303879321424436,1.08975722644718,0.));
#1626=CARTESIAN_POINT('Origin',(0.764763779527559,-2.91164212064841E-33,
-0.181102362204725));
#1627=CARTESIAN_POINT('',(0.764763779527559,0.566561866072678,-0.181102362204725));
#1628=CARTESIAN_POINT('',(0.764763779527559,0.566561866072678,-0.15748031496063));
#1629=CARTESIAN_POINT('',(0.764763779527559,0.566561866072678,-0.181102362204725));
#1630=CARTESIAN_POINT('',(0.764763779527559,1.13976377952756,-0.15748031496063));
#1631=CARTESIAN_POINT('',(0.764763779527559,1.13976377952756,-0.15748031496063));
#1632=CARTESIAN_POINT('',(0.764763779527559,1.13976377952756,-0.181102362204725));
#1633=CARTESIAN_POINT('',(0.764763779527559,1.13976377952756,-0.181102362204725));
#1634=CARTESIAN_POINT('',(0.764763779527559,1.13976377952756,-0.181102362204725));
#1635=CARTESIAN_POINT('Origin',(0.518700787401577,8.99802432913169E-16,
-0.181102362204724));
#1636=CARTESIAN_POINT('',(0.518700787401575,0.566561866072678,-0.15748031496063));
#1637=CARTESIAN_POINT('',(0.518700787401575,1.13976377952756,-0.15748031496063));
#1638=CARTESIAN_POINT('',(0.518700787401575,0.566561866072678,-0.15748031496063));
#1639=CARTESIAN_POINT('',(0.518700787401575,0.566561866072678,-0.181102362204724));
#1640=CARTESIAN_POINT('',(0.518700787401575,1.13976377952756,-0.181102362204724));
#1641=CARTESIAN_POINT('Origin',(0.0936092748100039,3.31496062992126,-0.29857169105435));
#1642=CARTESIAN_POINT('',(1.05040770521214,3.31496062992126,-0.29857169105435));
#1643=CARTESIAN_POINT('',(0.245980248481733,3.31496062992126,-0.29857169105435));
#1644=CARTESIAN_POINT('',(1.05040770521214,3.31496062992126,-0.29857169105435));
#1645=CARTESIAN_POINT('',(1.05040770521214,3.15748031496063,-0.29857169105435));
#1646=CARTESIAN_POINT('',(1.05040770521214,3.31496062992126,-0.29857169105435));
#1647=CARTESIAN_POINT('',(0.245980248481733,3.15748031496063,-0.29857169105435));
#1648=CARTESIAN_POINT('',(1.05040770521214,3.15748031496063,-0.29857169105435));
#1649=CARTESIAN_POINT('',(0.245980248481733,3.15748031496063,-0.29857169105435));
#1650=CARTESIAN_POINT('Origin',(0.,3.31496062992126,0.));
#1651=CARTESIAN_POINT('',(1.05040770521214,3.31496062992126,-0.29857169105435));
#1652=CARTESIAN_POINT('',(0.245980248481733,3.31496062992126,2.32442586626106E-7));
#1653=CARTESIAN_POINT('',(0.837218728834183,3.31496062992126,-0.180708428974736));
#1654=CARTESIAN_POINT('Origin',(0.837218728834183,3.31496062992126,-0.14921236598261));
#1655=CARTESIAN_POINT('',(0.459265972928671,3.31496062992126,-0.180708428974736));
#1656=CARTESIAN_POINT('Origin',(0.459265972928671,3.31496062992126,-0.14921236598261));
#1657=CARTESIAN_POINT('',(0.648242350881427,3.31496062992126,-0.263385594329067));
#1658=CARTESIAN_POINT('Origin',(0.648242350881427,3.31496062992126,-0.14921236598261));
#1659=CARTESIAN_POINT('Origin',(0.,3.15748031496063,0.));
#1660=CARTESIAN_POINT('',(1.05040770521214,3.15748031496063,-0.298566500195583));
#1661=CARTESIAN_POINT('',(1.05040770521214,3.15748031496063,-0.298566500195583));
#1662=CARTESIAN_POINT('',(1.03337889859711,3.15748031496063,-0.298566500195583));
#1663=CARTESIAN_POINT('',(1.03337889859711,3.15748031496063,-0.298566500195583));
#1664=CARTESIAN_POINT('',(1.03337889859711,3.15748031496063,-0.181102362204725));
#1665=CARTESIAN_POINT('',(1.03337889859711,3.15748031496063,-0.181102362204725));
#1666=CARTESIAN_POINT('',(0.680437652998031,3.15748031496063,-0.181102362204725));
#1667=CARTESIAN_POINT('',(0.680437652998031,3.15748031496063,-0.181102362204725));
#1668=CARTESIAN_POINT('',(0.680437652998031,3.15748031496063,-0.181102362204725));
#1669=CARTESIAN_POINT('',(0.261264105883602,3.15748031496063,-0.298068319505602));
#1670=CARTESIAN_POINT('',(0.261264105883602,3.15748031496063,-0.298068319505602));
#1671=CARTESIAN_POINT('',(0.245980248481733,3.15748031496063,-0.298068319505602));
#1672=CARTESIAN_POINT('',(0.245980248481733,3.15748031496063,-0.298068319505602));
#1673=CARTESIAN_POINT('',(0.245980248481733,3.15748031496063,-0.29857169105435));
#1674=CARTESIAN_POINT('Origin',(-5.51080095247317E-17,0.566561866072678,
-0.181102362204724));
#1675=CARTESIAN_POINT('',(1.03337889859711,0.566561866072678,-0.298566500195583));
#1676=CARTESIAN_POINT('',(1.05040770521214,0.566561866072678,-0.298566500195583));
#1677=CARTESIAN_POINT('',(1.03337889859711,0.566561866072678,-0.298566500195583));
#1678=CARTESIAN_POINT('',(1.05040770521214,0.566561866072678,-0.298566500195583));
#1679=CARTESIAN_POINT('',(0.245980248481733,0.566561866072678,-0.298068319505602));
#1680=CARTESIAN_POINT('',(0.245980248481733,0.566561866072678,0.));
#1681=CARTESIAN_POINT('',(0.261264105883602,0.566561866072678,-0.298068319505602));
#1682=CARTESIAN_POINT('',(0.245980248481733,0.566561866072678,-0.298068319505602));
#1683=CARTESIAN_POINT('',(0.261264105883602,0.566561866072678,-0.298068319505602));
#1684=CARTESIAN_POINT('',(0.764763779527559,0.566561866072678,-0.15748031496063));
#1685=CARTESIAN_POINT('',(1.03337889859711,0.566561866072678,-0.181102362204725));
#1686=CARTESIAN_POINT('',(1.03337889859711,0.566561866072678,-0.181102362204725));
#1687=CARTESIAN_POINT('',(1.03337889859711,0.566561866072678,-0.181102362204725));
#1688=CARTESIAN_POINT('',(0.648242350881427,0.566561866072678,-0.031496062992126));
#1689=CARTESIAN_POINT('Origin',(0.648242350881427,0.566561866072678,-0.0708661417322836));
#1690=CARTESIAN_POINT('Origin',(-5.51080095247317E-17,1.13976377952756,
-0.181102362204724));
#1691=CARTESIAN_POINT('',(0.608872272141269,1.13976377952756,-0.0708661417322836));
#1692=CARTESIAN_POINT('',(0.267716535433071,1.13976377952756,-0.0708661417322835));
#1693=CARTESIAN_POINT('',(0.608872272141269,1.13976377952756,-0.0708661417322836));
#1694=CARTESIAN_POINT('',(0.687612429621585,1.13976377952756,-0.0708661417322836));
#1695=CARTESIAN_POINT('Origin',(0.648242350881427,1.13976377952756,-0.0708661417322836));
#1696=CARTESIAN_POINT('',(1.01574803149606,1.13976377952756,-0.0708661417322837));
#1697=CARTESIAN_POINT('',(1.01574803149606,1.13976377952756,-0.0708661417322837));
#1698=CARTESIAN_POINT('',(1.01574803149606,1.13976377952756,-0.181102362204725));
#1699=CARTESIAN_POINT('',(1.01574803149606,1.13976377952756,-0.181102362204725));
#1700=CARTESIAN_POINT('',(0.764763779527559,1.13976377952756,-0.181102362204725));
#1701=CARTESIAN_POINT('',(0.518700787401575,1.13976377952756,-0.15748031496063));
#1702=CARTESIAN_POINT('',(0.267716535433071,1.13976377952756,-0.181102362204724));
#1703=CARTESIAN_POINT('Origin',(1.01574803149606,-1.00688111766483E-16,
-0.181102362204725));
#1704=CARTESIAN_POINT('',(1.01574803149606,2.51771653543307,-0.0708661417322837));
#1705=CARTESIAN_POINT('',(1.01574803149606,2.51771653543307,-0.181102362204725));
#1706=CARTESIAN_POINT('Origin',(0.267716535433071,-3.3172439923066E-17,
-0.181102362204724));
#1707=CARTESIAN_POINT('',(0.267716535433071,1.13976377952756,-0.0708661417322835));
#1708=CARTESIAN_POINT('Origin',(-5.51080095247317E-17,-2.91164212064841E-33,
-0.181102362204724));
#1709=CARTESIAN_POINT('',(0.680437652998031,2.51771653543307,-0.181102362204725));
#1710=CARTESIAN_POINT('',(1.03337889859711,0.566561866072678,-0.181102362204725));
#1711=CARTESIAN_POINT('',(0.891732283464567,0.850393700787402,-0.181102362204725));
#1712=CARTESIAN_POINT('Origin',(0.891732283464567,0.899606299212598,-0.181102362204725));
#1713=CARTESIAN_POINT('',(0.931102362204724,2.97047244094488,-0.181102362204725));
#1714=CARTESIAN_POINT('Origin',(0.931102362204724,3.01968503937008,-0.181102362204725));
#1715=CARTESIAN_POINT('',(1.01377952755905,0.706692913385827,-0.181102362204725));
#1716=CARTESIAN_POINT('Origin',(0.931102362204724,0.706692913385827,-0.181102362204725));
#1717=CARTESIAN_POINT('',(1.01377952755906,2.75984251968504,-0.181102362204725));
#1718=CARTESIAN_POINT('Origin',(0.931102362204724,2.75984251968504,-0.181102362204725));
#1719=CARTESIAN_POINT('Origin',(-4.82240246972936E-17,0.,-0.15748031496063));
#1720=CARTESIAN_POINT('Origin',(0.931102362204724,2.75984251968504,-0.118110236220473));
#1721=CARTESIAN_POINT('',(1.01377952755906,2.75984251968504,-0.118110236220473));
#1722=CARTESIAN_POINT('Origin',(0.931102362204724,2.75984251968504,-0.118110236220473));
#1723=CARTESIAN_POINT('',(1.01377952755906,2.75984251968504,-0.118110236220473));
#1724=CARTESIAN_POINT('Origin',(0.931102362204724,2.75984251968504,-0.118110236220473));
#1725=CARTESIAN_POINT('Origin',(0.354330708661417,2.75984251968504,-0.118110236220472));
#1726=CARTESIAN_POINT('',(0.437007874015748,2.75984251968504,-0.118110236220472));
#1727=CARTESIAN_POINT('Origin',(0.354330708661417,2.75984251968504,-0.118110236220472));
#1728=CARTESIAN_POINT('',(0.437007874015748,2.75984251968504,-0.118110236220472));
#1729=CARTESIAN_POINT('Origin',(0.354330708661417,2.75984251968504,-0.118110236220472));
#1730=CARTESIAN_POINT('Origin',(0.354330708661417,0.706692913385827,-0.118110236220472));
#1731=CARTESIAN_POINT('',(0.437007874015748,0.706692913385827,-0.118110236220472));
#1732=CARTESIAN_POINT('Origin',(0.354330708661417,0.706692913385827,-0.118110236220472));
#1733=CARTESIAN_POINT('',(0.437007874015748,0.706692913385827,-0.118110236220472));
#1734=CARTESIAN_POINT('Origin',(0.354330708661417,0.706692913385827,-0.118110236220472));
#1735=CARTESIAN_POINT('Origin',(0.931102362204724,0.706692913385827,-0.118110236220473));
#1736=CARTESIAN_POINT('',(1.01377952755905,0.706692913385827,-0.118110236220473));
#1737=CARTESIAN_POINT('Origin',(0.931102362204724,0.706692913385827,-0.118110236220473));
#1738=CARTESIAN_POINT('',(1.01377952755905,0.706692913385827,-0.118110236220473));
#1739=CARTESIAN_POINT('Origin',(0.931102362204724,0.706692913385827,-0.118110236220473));
#1740=CARTESIAN_POINT('Origin',(-2.12637670366297E-17,1.15802652286323E-33,
-0.0708661417322834));
#1741=CARTESIAN_POINT('',(0.687612429621585,1.14530202355299,-0.0708661417322836));
#1742=CARTESIAN_POINT('',(0.687612429621585,1.14530202355299,-0.0708661417322836));
#1743=CARTESIAN_POINT('',(0.608872272141269,1.14530202355299,-0.0708661417322836));
#1744=CARTESIAN_POINT('',(0.687612429621585,1.14530202355299,-0.0708661417322836));
#1745=CARTESIAN_POINT('',(0.608872272141269,1.14530202355299,-0.0708661417322836));
#1746=CARTESIAN_POINT('Origin',(0.354330708661417,3.01968503937008,-0.181102362204724));
#1747=CARTESIAN_POINT('',(0.354330708661417,2.97047244094488,-0.181102362204724));
#1748=CARTESIAN_POINT('Origin',(0.931102362204724,3.01968503937008,-0.181102362204725));
#1749=CARTESIAN_POINT('',(0.931102362204724,2.97047244094488,-0.181102362204725));
#1750=CARTESIAN_POINT('Origin',(0.393700787401575,0.899606299212598,-0.181102362204724));
#1751=CARTESIAN_POINT('',(0.393700787401575,0.850393700787402,-0.181102362204724));
#1752=CARTESIAN_POINT('Origin',(0.891732283464567,0.899606299212598,-0.181102362204725));
#1753=CARTESIAN_POINT('',(0.891732283464567,0.850393700787402,-0.181102362204725));
#1754=CARTESIAN_POINT('Origin',(1.03337889859711,0.253336829469644,-0.298566500195583));
#1755=CARTESIAN_POINT('',(1.03337889859711,0.566561866072678,-0.298566500195583));
#1756=CARTESIAN_POINT('Origin',(1.12809784369397,0.253336829469644,-0.298566500195583));
#1757=CARTESIAN_POINT('',(1.05040770521214,0.566561866072678,-0.298566500195583));
#1758=CARTESIAN_POINT('Origin',(0.203992946154347,0.263064539302329,-0.298068319505602));
#1759=CARTESIAN_POINT('',(0.245980248481733,3.15748031496063,-0.298068319505602));
#1760=CARTESIAN_POINT('',(0.261264105883602,0.566561866072678,-0.298068319505602));
#1761=CARTESIAN_POINT('Origin',(0.261264105883602,0.263064539302329,-0.298068319505602));
#1762=CARTESIAN_POINT('Origin',(0.245980248481733,0.,0.0304731863061632));
#1763=CARTESIAN_POINT('Origin',(1.05040770521214,0.,0.000272117157993042));
#1764=CARTESIAN_POINT('Origin',(0.303879321424436,2.81765194346208,0.236220472440945));
#1765=CARTESIAN_POINT('',(0.303879321424436,1.08975722644718,0.236220472440945));
#1766=CARTESIAN_POINT('',(0.303879321424436,1.08975722644718,0.236220472440945));
#1767=CARTESIAN_POINT('',(0.303879321424436,2.81765194346208,0.236220472440945));
#1768=CARTESIAN_POINT('',(0.303879321424436,2.81765194346208,0.236220472440945));
#1769=CARTESIAN_POINT('',(0.303879321424436,2.81765194346208,0.236220472440945));
#1770=CARTESIAN_POINT('',(0.303879321424436,1.48123462062744,0.196850393700787));
#1771=CARTESIAN_POINT('',(0.303879321424436,1.7961952505487,0.19685039370079));
#1772=CARTESIAN_POINT('',(0.303879321424436,1.48123462062744,0.19685039370079));
#1773=CARTESIAN_POINT('',(0.303879321424436,1.48123462062744,0.039370078740158));
#1774=CARTESIAN_POINT('Origin',(0.303879321424436,1.48123462062744,0.118110236220472));
#1775=CARTESIAN_POINT('',(0.303879321424436,1.7961952505487,0.0393700787401578));
#1776=CARTESIAN_POINT('',(0.303879321424436,1.48123462062744,0.039370078740158));
#1777=CARTESIAN_POINT('Origin',(0.303879321424436,1.7961952505487,0.118110236220472));
#1778=CARTESIAN_POINT('',(0.303879321424436,2.11115588046996,0.039370078740158));
#1779=CARTESIAN_POINT('',(0.303879321424436,2.42611651039122,0.0393700787401579));
#1780=CARTESIAN_POINT('',(0.303879321424436,2.11115588046996,0.039370078740158));
#1781=CARTESIAN_POINT('',(0.303879321424436,2.42611651039122,0.19685039370079));
#1782=CARTESIAN_POINT('Origin',(0.303879321424436,2.42611651039122,0.118110236220472));
#1783=CARTESIAN_POINT('',(0.303879321424436,2.11115588046996,0.196850393700787));
#1784=CARTESIAN_POINT('',(0.303879321424436,2.11115588046996,0.19685039370079));
#1785=CARTESIAN_POINT('Origin',(0.303879321424436,2.11115588046996,0.118110236220472));
#1786=CARTESIAN_POINT('Origin',(0.303879321424436,1.08975722644718,0.236220472440945));
#1787=CARTESIAN_POINT('',(0.423558085869338,1.08975722644718,0.236220472440945));
#1788=CARTESIAN_POINT('',(0.423558085869338,1.08975722644718,0.236220472440945));
#1789=CARTESIAN_POINT('',(0.303879321424436,1.08975722644718,0.236220472440945));
#1790=CARTESIAN_POINT('Origin',(0.423558085869338,2.81765194346208,0.236220472440945));
#1791=CARTESIAN_POINT('',(0.423558085869338,2.81765194346208,0.236220472440945));
#1792=CARTESIAN_POINT('',(0.423558085869338,2.81765194346208,0.236220472440945));
#1793=CARTESIAN_POINT('',(0.423558085869338,1.08975722644718,0.236220472440945));
#1794=CARTESIAN_POINT('',(0.423558085869338,1.7961952505487,0.0393700787401578));
#1795=CARTESIAN_POINT('',(0.423558085869338,1.48123462062744,0.0393700787401579));
#1796=CARTESIAN_POINT('',(0.423558085869338,1.7961952505487,0.0393700787401578));
#1797=CARTESIAN_POINT('',(0.423558085869338,1.48123462062744,0.196850393700787));
#1798=CARTESIAN_POINT('Origin',(0.423558085869338,1.48123462062744,0.118110236220472));
#1799=CARTESIAN_POINT('',(0.423558085869338,1.7961952505487,0.196850393700787));
#1800=CARTESIAN_POINT('',(0.423558085869338,1.48123462062744,0.196850393700787));
#1801=CARTESIAN_POINT('Origin',(0.423558085869338,1.7961952505487,0.118110236220472));
#1802=CARTESIAN_POINT('',(0.423558085869338,2.11115588046996,0.0393700787401579));
#1803=CARTESIAN_POINT('',(0.423558085869338,2.11115588046996,0.196850393700787));
#1804=CARTESIAN_POINT('Origin',(0.423558085869338,2.11115588046996,0.118110236220472));
#1805=CARTESIAN_POINT('',(0.423558085869338,2.42611651039122,0.196850393700787));
#1806=CARTESIAN_POINT('',(0.423558085869338,2.11115588046996,0.196850393700787));
#1807=CARTESIAN_POINT('',(0.423558085869338,2.42611651039122,0.0393700787401578));
#1808=CARTESIAN_POINT('Origin',(0.423558085869338,2.42611651039122,0.118110236220472));
#1809=CARTESIAN_POINT('',(0.423558085869338,2.42611651039122,0.0393700787401578));
#1810=CARTESIAN_POINT('Origin',(0.303879321424436,2.81765194346208,0.236220472440945));
#1811=CARTESIAN_POINT('',(0.423558085869338,2.81765194346208,0.236220472440945));
#1812=CARTESIAN_POINT('Origin',(0.,0.,0.236220472440945));
#1813=CARTESIAN_POINT('Origin',(0.303879321424436,2.11115588046996,0.118110236220472));
#1814=CARTESIAN_POINT('',(0.423558085869338,2.11115588046996,0.0393700787401578));
#1815=CARTESIAN_POINT('',(0.423558085869338,2.11115588046996,0.196850393700787));
#1816=CARTESIAN_POINT('Origin',(0.303879321424436,2.42611651039122,0.118110236220472));
#1817=CARTESIAN_POINT('',(0.423558085869338,2.42611651039122,0.196850393700787));
#1818=CARTESIAN_POINT('',(0.423558085869338,2.42611651039122,0.0393700787401578));
#1819=CARTESIAN_POINT('Origin',(0.303879321424436,2.11115588046996,0.196850393700787));
#1820=CARTESIAN_POINT('Origin',(0.303879321424436,2.11115588046996,0.0393700787401578));
#1821=CARTESIAN_POINT('Origin',(0.303879321424436,1.48123462062744,0.118110236220472));
#1822=CARTESIAN_POINT('',(0.423558085869338,1.48123462062744,0.0393700787401578));
#1823=CARTESIAN_POINT('',(0.423558085869338,1.48123462062744,0.196850393700787));
#1824=CARTESIAN_POINT('Origin',(0.303879321424436,1.48123462062744,0.196850393700787));
#1825=CARTESIAN_POINT('',(0.423558085869338,1.7961952505487,0.196850393700787));
#1826=CARTESIAN_POINT('Origin',(0.303879321424436,1.7961952505487,0.118110236220472));
#1827=CARTESIAN_POINT('',(0.423558085869338,1.7961952505487,0.0393700787401578));
#1828=CARTESIAN_POINT('Origin',(0.303879321424436,1.48123462062744,0.0393700787401578));
#1829=CARTESIAN_POINT('Origin',(0.648242350881427,3.2755905511811,-0.14921236598261));
#1830=CARTESIAN_POINT('',(0.648242350881427,3.2755905511811,-0.263385594329067));
#1831=CARTESIAN_POINT('Origin',(0.648242350881427,3.2755905511811,-0.14921236598261));
#1832=CARTESIAN_POINT('',(0.648242350881427,3.2755905511811,-0.263385594329067));
#1833=CARTESIAN_POINT('Origin',(0.648242350881427,3.2755905511811,-0.14921236598261));
#1834=CARTESIAN_POINT('',(0.648242350881427,3.2755905511811,-0.233858035273949));
#1835=CARTESIAN_POINT('Origin',(0.648242350881427,3.2755905511811,-0.14921236598261));
#1836=CARTESIAN_POINT('Origin',(0.648242350881427,3.17716535433071,-0.14921236598261));
#1837=CARTESIAN_POINT('',(0.648242350881427,3.17716535433071,-0.233858035273949));
#1838=CARTESIAN_POINT('Origin',(0.648242350881427,3.17716535433071,-0.14921236598261));
#1839=CARTESIAN_POINT('',(0.648242350881427,3.17716535433071,-0.233858035273949));
#1840=CARTESIAN_POINT('Origin',(0.648242350881427,3.17716535433071,-0.14921236598261));
#1841=CARTESIAN_POINT('',(0.680437652998031,3.17716535433071,-0.181102362204725));
#1842=CARTESIAN_POINT('',(0.680437652998031,3.17716535433071,-0.117322369760496));
#1843=CARTESIAN_POINT('',(0.680437652998031,3.17716535433071,-0.181102362204725));
#1844=CARTESIAN_POINT('',(0.616047048764823,3.17716535433071,-0.117322369760496));
#1845=CARTESIAN_POINT('',(0.680437652998031,3.17716535433071,-0.117322369760496));
#1846=CARTESIAN_POINT('',(0.616047048764823,3.17716535433071,-0.181102362204725));
#1847=CARTESIAN_POINT('',(0.616047048764823,3.17716535433071,-0.181102362204725));
#1848=CARTESIAN_POINT('',(0.680437652998031,3.17716535433071,-0.181102362204725));
#1849=CARTESIAN_POINT('Origin',(0.,2.51574803149606,-0.117322369760496));
#1850=CARTESIAN_POINT('',(0.616047048764823,2.51771653543307,-0.117322369760496));
#1851=CARTESIAN_POINT('',(0.680437652998031,2.51771653543307,-0.117322369760496));
#1852=CARTESIAN_POINT('Origin',(0.616047048764823,2.51574803149606,0.));
#1853=CARTESIAN_POINT('',(0.616047048764823,3.15748031496063,-0.181102362204725));
#1854=CARTESIAN_POINT('Origin',(0.,2.51574803149606,-0.181102362204725));
#1855=CARTESIAN_POINT('',(0.680437652998031,3.15748031496063,-0.181102362204725));
#1856=CARTESIAN_POINT('Origin',(0.680437652998031,2.51574803149606,0.));
#1857=CARTESIAN_POINT('Origin',(0.459265972928671,3.15748031496063,-0.14921236598261));
#1858=CARTESIAN_POINT('',(0.459265972928671,3.13855557105425,-0.14921236598261));
#1859=CARTESIAN_POINT('',(0.459265972928671,3.15748031496063,-0.180708428974736));
#1860=CARTESIAN_POINT('',(0.459265972928671,3.15748031496063,-0.180708428974736));
#1861=CARTESIAN_POINT('Origin',(0.459265972928671,3.15748031496063,-0.14921236598261));
#1862=CARTESIAN_POINT('Origin',(0.459265972928671,3.31496062992126,-0.14921236598261));
#1863=CARTESIAN_POINT('',(0.459265972928671,3.31496062992126,-0.180708428974736));
#1864=CARTESIAN_POINT('Origin',(0.837218728834183,3.15748031496063,-0.14921236598261));
#1865=CARTESIAN_POINT('',(0.837218728834183,3.13855557105425,-0.14921236598261));
#1866=CARTESIAN_POINT('',(0.837218728834183,3.15748031496063,-0.180708428974736));
#1867=CARTESIAN_POINT('',(0.837218728834183,3.15748031496063,-0.180708428974736));
#1868=CARTESIAN_POINT('Origin',(0.837218728834183,3.15748031496063,-0.14921236598261));
#1869=CARTESIAN_POINT('Origin',(0.837218728834183,3.31496062992126,-0.14921236598261));
#1870=CARTESIAN_POINT('',(0.837218728834183,3.31496062992126,-0.180708428974736));
#1871=CARTESIAN_POINT('Origin',(0.648242350881427,1.14530202355299,-0.0708661417322836));
#1872=CARTESIAN_POINT('',(0.648242350881427,1.14530202355299,-0.031496062992126));
#1873=CARTESIAN_POINT('Origin',(0.648242350881427,1.14530202355299,-0.0708661417322836));
#1874=CARTESIAN_POINT('',(0.648242350881427,1.14530202355299,-0.031496062992126));
#1875=CARTESIAN_POINT('Origin',(0.648242350881427,1.14530202355299,-0.0708661417322836));
#1876=CARTESIAN_POINT('Origin',(0.648242350881427,1.14530202355299,-0.0708661417322836));
#1877=UNCERTAINTY_MEASURE_WITH_UNIT(LENGTH_MEASURE(0.000393700787401575),
#1883,'DISTANCE_ACCURACY_VALUE',
'Maximum model space distance between geometric entities at asserted c
onnectivities');
#1878=UNCERTAINTY_MEASURE_WITH_UNIT(LENGTH_MEASURE(0.000393700787401575),
#1883,'DISTANCE_ACCURACY_VALUE',
'Maximum model space distance between geometric entities at asserted c
onnectivities');
#1879=(
GEOMETRIC_REPRESENTATION_CONTEXT(3)
GLOBAL_UNCERTAINTY_ASSIGNED_CONTEXT((#1877))
GLOBAL_UNIT_ASSIGNED_CONTEXT((#1883,#1887,#1888))
REPRESENTATION_CONTEXT('','3D')
);
#1880=(
GEOMETRIC_REPRESENTATION_CONTEXT(3)
GLOBAL_UNCERTAINTY_ASSIGNED_CONTEXT((#1878))
GLOBAL_UNIT_ASSIGNED_CONTEXT((#1883,#1887,#1888))
REPRESENTATION_CONTEXT('','3D')
);
#1881=DIMENSIONAL_EXPONENTS(1.,0.,0.,0.,0.,0.,0.);
#1882=DIMENSIONAL_EXPONENTS(0.,1.,0.,0.,0.,0.,0.);
#1883=(
CONVERSION_BASED_UNIT('inch',#1886)
LENGTH_UNIT()
NAMED_UNIT(#1881)
);
#1884=(
LENGTH_UNIT()
NAMED_UNIT(*)
SI_UNIT(.MILLI.,.METRE.)
);
#1885=(
LENGTH_UNIT()
NAMED_UNIT(*)
SI_UNIT(.CENTI.,.METRE.)
);
#1886=LENGTH_MEASURE_WITH_UNIT(LENGTH_MEASURE(25.4),#1884);
#1887=(
NAMED_UNIT(*)
PLANE_ANGLE_UNIT()
SI_UNIT($,.RADIAN.)
);
#1888=(
NAMED_UNIT(*)
SI_UNIT($,.STERADIAN.)
SOLID_ANGLE_UNIT()
);
#1889=SHAPE_DEFINITION_REPRESENTATION(#1890,#1891);
#1890=PRODUCT_DEFINITION_SHAPE('',$,#1893);
#1891=SHAPE_REPRESENTATION('',(#1153),#1879);
#1892=PRODUCT_DEFINITION_CONTEXT('part definition',#1897,'design');
#1893=PRODUCT_DEFINITION('Top_ForFridge_reference',
'Top_ForFridge_reference',#1894,#1892);
#1894=PRODUCT_DEFINITION_FORMATION('',$,#1899);
#1895=PRODUCT_RELATED_PRODUCT_CATEGORY('Top_ForFridge_reference',
'Top_ForFridge_reference',(#1899));
#1896=APPLICATION_PROTOCOL_DEFINITION('international standard',
'automotive_design',2009,#1897);
#1897=APPLICATION_CONTEXT(
'Core Data for Automotive Mechanical Design Process');
#1898=PRODUCT_CONTEXT('part definition',#1897,'mechanical');
#1899=PRODUCT('Top_ForFridge_reference','Top_ForFridge_reference',$,(#1898));
#1900=PRESENTATION_STYLE_ASSIGNMENT((#1902));
#1901=PRESENTATION_STYLE_ASSIGNMENT((#1903));
#1902=SURFACE_STYLE_USAGE(.BOTH.,#1908);
#1903=SURFACE_STYLE_USAGE(.BOTH.,#1909);
#1904=SURFACE_STYLE_RENDERING_WITH_PROPERTIES($,#1916,(#1906));
#1905=SURFACE_STYLE_RENDERING_WITH_PROPERTIES($,#1917,(#1907));
#1906=SURFACE_STYLE_TRANSPARENT(0.);
#1907=SURFACE_STYLE_TRANSPARENT(0.);
#1908=SURFACE_SIDE_STYLE('',(#1910,#1904));
#1909=SURFACE_SIDE_STYLE('',(#1911,#1905));
#1910=SURFACE_STYLE_FILL_AREA(#1912);
#1911=SURFACE_STYLE_FILL_AREA(#1913);
#1912=FILL_AREA_STYLE('',(#1914));
#1913=FILL_AREA_STYLE('',(#1915));
#1914=FILL_AREA_STYLE_COLOUR('',#1916);
#1915=FILL_AREA_STYLE_COLOUR('',#1917);
#1916=COLOUR_RGB('',0.749019607843137,0.749019607843137,0.749019607843137);
#1917=COLOUR_RGB('',0.796078431372549,0.823529411764706,0.937254901960784);
ENDSEC;
END-ISO-10303-21;
