ISO-10303-21;
HEADER;
/* Generated by software containing ST-Developer
 * from STEP Tools, Inc. (www.steptools.com) 
 */

FILE_DESCRIPTION(
/* description */ ('Hexagon socket countersunk head cap screws'),
/* implementation_level */ '2;1');

FILE_NAME(
/* name */ 'DIN_7991_M3x10.step',
/* time_stamp */ '2026-09-22T09:34:37-07:00',
/* author */ ('\X2\BC15C815D604\X0\'),
/* organization */ (''),
/* preprocessor_version */ 'ST-DEVELOPER v20.2',
/* originating_system */ 'Autodesk Inventor 2027',
/* authorisation */ '');

FILE_SCHEMA (('AUTOMOTIVE_DESIGN { 1 0 10303 214 3 1 1 }'));
ENDSEC;

DATA;
#10=MECHANICAL_DESIGN_GEOMETRIC_PRESENTATION_REPRESENTATION('',(#13),#434);
#11=SHAPE_REPRESENTATION_RELATIONSHIP('SRR','None',#441,#12);
#12=ADVANCED_BREP_SHAPE_REPRESENTATION('',(#14),#433);
#13=STYLED_ITEM('',(#450),#14);
#14=MANIFOLD_SOLID_BREP('Solid1',#244);
#15=FACE_BOUND('',#55,.T.);
#16=TOROIDAL_SURFACE('',#275,1.6,0.1);
#17=PLANE('',#274);
#18=PLANE('',#281);
#19=PLANE('',#282);
#20=PLANE('',#283);
#21=PLANE('',#284);
#22=PLANE('',#285);
#23=PLANE('',#286);
#24=PLANE('',#287);
#25=PLANE('',#288);
#26=CYLINDRICAL_SURFACE('',#271,1.5);
#27=CYLINDRICAL_SURFACE('',#290,3.);
#28=FACE_OUTER_BOUND('',#42,.T.);
#29=FACE_OUTER_BOUND('',#43,.T.);
#30=FACE_OUTER_BOUND('',#44,.T.);
#31=FACE_OUTER_BOUND('',#45,.T.);
#32=FACE_OUTER_BOUND('',#46,.T.);
#33=FACE_OUTER_BOUND('',#47,.T.);
#34=FACE_OUTER_BOUND('',#48,.T.);
#35=FACE_OUTER_BOUND('',#49,.T.);
#36=FACE_OUTER_BOUND('',#50,.T.);
#37=FACE_OUTER_BOUND('',#51,.T.);
#38=FACE_OUTER_BOUND('',#52,.T.);
#39=FACE_OUTER_BOUND('',#53,.T.);
#40=FACE_OUTER_BOUND('',#54,.T.);
#41=FACE_OUTER_BOUND('',#56,.T.);
#42=EDGE_LOOP('',(#164,#165,#166,#167,#168));
#43=EDGE_LOOP('',(#169,#170,#171,#172,#173,#174));
#44=EDGE_LOOP('',(#175));
#45=EDGE_LOOP('',(#176,#177,#178,#179,#180,#181));
#46=EDGE_LOOP('',(#182,#183,#184,#185,#186));
#47=EDGE_LOOP('',(#187,#188,#189,#190));
#48=EDGE_LOOP('',(#191,#192,#193,#194));
#49=EDGE_LOOP('',(#195,#196,#197,#198));
#50=EDGE_LOOP('',(#199,#200,#201,#202));
#51=EDGE_LOOP('',(#203,#204,#205,#206));
#52=EDGE_LOOP('',(#207,#208,#209,#210));
#53=EDGE_LOOP('',(#211,#212,#213,#214,#215,#216));
#54=EDGE_LOOP('',(#217));
#55=EDGE_LOOP('',(#218,#219,#220,#221,#222,#223));
#56=EDGE_LOOP('',(#224,#225,#226,#227));
#57=LINE('',#368,#79);
#58=LINE('',#374,#80);
#59=LINE('',#387,#81);
#60=LINE('',#392,#82);
#61=LINE('',#394,#83);
#62=LINE('',#396,#84);
#63=LINE('',#397,#85);
#64=LINE('',#400,#86);
#65=LINE('',#402,#87);
#66=LINE('',#403,#88);
#67=LINE('',#406,#89);
#68=LINE('',#408,#90);
#69=LINE('',#409,#91);
#70=LINE('',#412,#92);
#71=LINE('',#414,#93);
#72=LINE('',#415,#94);
#73=LINE('',#418,#95);
#74=LINE('',#420,#96);
#75=LINE('',#421,#97);
#76=LINE('',#423,#98);
#77=LINE('',#424,#99);
#78=LINE('',#430,#100);
#79=VECTOR('',#297,1.375);
#80=VECTOR('',#304,1.5);
#81=VECTOR('',#321,2.25);
#82=VECTOR('',#326,10.);
#83=VECTOR('',#327,10.);
#84=VECTOR('',#328,10.);
#85=VECTOR('',#329,10.);
#86=VECTOR('',#332,10.);
#87=VECTOR('',#333,10.);
#88=VECTOR('',#334,10.);
#89=VECTOR('',#337,10.);
#90=VECTOR('',#338,10.);
#91=VECTOR('',#339,10.);
#92=VECTOR('',#342,10.);
#93=VECTOR('',#343,10.);
#94=VECTOR('',#344,10.);
#95=VECTOR('',#347,10.);
#96=VECTOR('',#348,10.);
#97=VECTOR('',#349,10.);
#98=VECTOR('',#352,10.);
#99=VECTOR('',#353,10.);
#100=VECTOR('',#362,3.);
#101=CIRCLE('',#268,1.25);
#102=CIRCLE('',#269,1.5);
#103=CIRCLE('',#270,1.5);
#104=CIRCLE('',#272,1.5);
#105=CIRCLE('',#273,1.5);
#106=CIRCLE('',#276,1.52928932188135);
#107=CIRCLE('',#277,1.52928932188135);
#108=CIRCLE('',#278,0.1);
#109=CIRCLE('',#280,3.);
#110=CIRCLE('',#289,3.);
#111=VERTEX_POINT('',#365);
#112=VERTEX_POINT('',#367);
#113=VERTEX_POINT('',#369);
#114=VERTEX_POINT('',#373);
#115=VERTEX_POINT('',#375);
#116=VERTEX_POINT('',#380);
#117=VERTEX_POINT('',#381);
#118=VERTEX_POINT('',#386);
#119=VERTEX_POINT('',#390);
#120=VERTEX_POINT('',#391);
#121=VERTEX_POINT('',#393);
#122=VERTEX_POINT('',#395);
#123=VERTEX_POINT('',#399);
#124=VERTEX_POINT('',#401);
#125=VERTEX_POINT('',#405);
#126=VERTEX_POINT('',#407);
#127=VERTEX_POINT('',#411);
#128=VERTEX_POINT('',#413);
#129=VERTEX_POINT('',#417);
#130=VERTEX_POINT('',#419);
#131=VERTEX_POINT('',#427);
#132=EDGE_CURVE('',#111,#111,#101,.T.);
#133=EDGE_CURVE('',#111,#112,#57,.T.);
#134=EDGE_CURVE('',#112,#113,#102,.T.);
#135=EDGE_CURVE('',#113,#112,#103,.T.);
#136=EDGE_CURVE('',#113,#114,#58,.T.);
#137=EDGE_CURVE('',#115,#114,#104,.T.);
#138=EDGE_CURVE('',#114,#115,#105,.T.);
#139=EDGE_CURVE('',#116,#117,#106,.T.);
#140=EDGE_CURVE('',#117,#116,#107,.T.);
#141=EDGE_CURVE('',#116,#115,#108,.T.);
#142=EDGE_CURVE('',#117,#118,#59,.T.);
#143=EDGE_CURVE('',#118,#118,#109,.T.);
#144=EDGE_CURVE('',#119,#120,#60,.T.);
#145=EDGE_CURVE('',#121,#119,#61,.T.);
#146=EDGE_CURVE('',#122,#121,#62,.T.);
#147=EDGE_CURVE('',#122,#120,#63,.T.);
#148=EDGE_CURVE('',#120,#123,#64,.T.);
#149=EDGE_CURVE('',#124,#122,#65,.T.);
#150=EDGE_CURVE('',#124,#123,#66,.T.);
#151=EDGE_CURVE('',#123,#125,#67,.T.);
#152=EDGE_CURVE('',#126,#124,#68,.T.);
#153=EDGE_CURVE('',#126,#125,#69,.T.);
#154=EDGE_CURVE('',#125,#127,#70,.T.);
#155=EDGE_CURVE('',#128,#126,#71,.T.);
#156=EDGE_CURVE('',#128,#127,#72,.T.);
#157=EDGE_CURVE('',#127,#129,#73,.T.);
#158=EDGE_CURVE('',#130,#128,#74,.T.);
#159=EDGE_CURVE('',#130,#129,#75,.T.);
#160=EDGE_CURVE('',#129,#119,#76,.T.);
#161=EDGE_CURVE('',#121,#130,#77,.T.);
#162=EDGE_CURVE('',#131,#131,#110,.T.);
#163=EDGE_CURVE('',#118,#131,#78,.T.);
#164=ORIENTED_EDGE('',*,*,#132,.T.);
#165=ORIENTED_EDGE('',*,*,#133,.T.);
#166=ORIENTED_EDGE('',*,*,#134,.T.);
#167=ORIENTED_EDGE('',*,*,#135,.T.);
#168=ORIENTED_EDGE('',*,*,#133,.F.);
#169=ORIENTED_EDGE('',*,*,#134,.F.);
#170=ORIENTED_EDGE('',*,*,#135,.F.);
#171=ORIENTED_EDGE('',*,*,#136,.T.);
#172=ORIENTED_EDGE('',*,*,#137,.F.);
#173=ORIENTED_EDGE('',*,*,#138,.F.);
#174=ORIENTED_EDGE('',*,*,#136,.F.);
#175=ORIENTED_EDGE('',*,*,#132,.F.);
#176=ORIENTED_EDGE('',*,*,#139,.T.);
#177=ORIENTED_EDGE('',*,*,#140,.T.);
#178=ORIENTED_EDGE('',*,*,#141,.T.);
#179=ORIENTED_EDGE('',*,*,#137,.T.);
#180=ORIENTED_EDGE('',*,*,#138,.T.);
#181=ORIENTED_EDGE('',*,*,#141,.F.);
#182=ORIENTED_EDGE('',*,*,#139,.F.);
#183=ORIENTED_EDGE('',*,*,#140,.F.);
#184=ORIENTED_EDGE('',*,*,#142,.T.);
#185=ORIENTED_EDGE('',*,*,#143,.T.);
#186=ORIENTED_EDGE('',*,*,#142,.F.);
#187=ORIENTED_EDGE('',*,*,#144,.F.);
#188=ORIENTED_EDGE('',*,*,#145,.F.);
#189=ORIENTED_EDGE('',*,*,#146,.F.);
#190=ORIENTED_EDGE('',*,*,#147,.T.);
#191=ORIENTED_EDGE('',*,*,#148,.F.);
#192=ORIENTED_EDGE('',*,*,#147,.F.);
#193=ORIENTED_EDGE('',*,*,#149,.F.);
#194=ORIENTED_EDGE('',*,*,#150,.T.);
#195=ORIENTED_EDGE('',*,*,#151,.F.);
#196=ORIENTED_EDGE('',*,*,#150,.F.);
#197=ORIENTED_EDGE('',*,*,#152,.F.);
#198=ORIENTED_EDGE('',*,*,#153,.T.);
#199=ORIENTED_EDGE('',*,*,#154,.F.);
#200=ORIENTED_EDGE('',*,*,#153,.F.);
#201=ORIENTED_EDGE('',*,*,#155,.F.);
#202=ORIENTED_EDGE('',*,*,#156,.T.);
#203=ORIENTED_EDGE('',*,*,#157,.F.);
#204=ORIENTED_EDGE('',*,*,#156,.F.);
#205=ORIENTED_EDGE('',*,*,#158,.F.);
#206=ORIENTED_EDGE('',*,*,#159,.T.);
#207=ORIENTED_EDGE('',*,*,#160,.F.);
#208=ORIENTED_EDGE('',*,*,#159,.F.);
#209=ORIENTED_EDGE('',*,*,#161,.F.);
#210=ORIENTED_EDGE('',*,*,#145,.T.);
#211=ORIENTED_EDGE('',*,*,#144,.T.);
#212=ORIENTED_EDGE('',*,*,#148,.T.);
#213=ORIENTED_EDGE('',*,*,#151,.T.);
#214=ORIENTED_EDGE('',*,*,#154,.T.);
#215=ORIENTED_EDGE('',*,*,#157,.T.);
#216=ORIENTED_EDGE('',*,*,#160,.T.);
#217=ORIENTED_EDGE('',*,*,#162,.F.);
#218=ORIENTED_EDGE('',*,*,#146,.T.);
#219=ORIENTED_EDGE('',*,*,#161,.T.);
#220=ORIENTED_EDGE('',*,*,#158,.T.);
#221=ORIENTED_EDGE('',*,*,#155,.T.);
#222=ORIENTED_EDGE('',*,*,#152,.T.);
#223=ORIENTED_EDGE('',*,*,#149,.T.);
#224=ORIENTED_EDGE('',*,*,#143,.F.);
#225=ORIENTED_EDGE('',*,*,#163,.T.);
#226=ORIENTED_EDGE('',*,*,#162,.T.);
#227=ORIENTED_EDGE('',*,*,#163,.F.);
#228=CONICAL_SURFACE('',#267,1.375,0.785398163397448);
#229=CONICAL_SURFACE('',#279,2.25,0.785398163397448);
#230=ADVANCED_FACE('',(#28),#228,.T.);
#231=ADVANCED_FACE('',(#29),#26,.T.);
#232=ADVANCED_FACE('',(#30),#17,.T.);
#233=ADVANCED_FACE('',(#31),#16,.F.);
#234=ADVANCED_FACE('',(#32),#229,.T.);
#235=ADVANCED_FACE('',(#33),#18,.F.);
#236=ADVANCED_FACE('',(#34),#19,.F.);
#237=ADVANCED_FACE('',(#35),#20,.F.);
#238=ADVANCED_FACE('',(#36),#21,.F.);
#239=ADVANCED_FACE('',(#37),#22,.F.);
#240=ADVANCED_FACE('',(#38),#23,.F.);
#241=ADVANCED_FACE('',(#39),#24,.T.);
#242=ADVANCED_FACE('',(#40,#15),#25,.T.);
#243=ADVANCED_FACE('',(#41),#27,.T.);
#244=CLOSED_SHELL('',(#230,#231,#232,#233,#234,#235,#236,#237,#238,#239,
#240,#241,#242,#243));
#245=DERIVED_UNIT_ELEMENT(#248,1.);
#246=DERIVED_UNIT_ELEMENT(#436,-3.);
#247=DIMENSIONAL_EXPONENTS(0.,1.,0.,0.,0.,0.,0.);
#248=(
CONVERSION_BASED_UNIT('gram',#250)
MASS_UNIT()
NAMED_UNIT(#247)
);
#249=(
MASS_UNIT()
NAMED_UNIT(*)
SI_UNIT(.KILO.,.GRAM.)
);
#250=MASS_MEASURE_WITH_UNIT(MASS_MEASURE(0.001),#249);
#251=DERIVED_UNIT((#245,#246));
#252=MEASURE_REPRESENTATION_ITEM('density measure',
POSITIVE_RATIO_MEASURE(7.85),#251);
#253=PROPERTY_DEFINITION_REPRESENTATION(#258,#255);
#254=PROPERTY_DEFINITION_REPRESENTATION(#259,#256);
#255=REPRESENTATION('material name',(#257),#433);
#256=REPRESENTATION('density',(#252),#433);
#257=DESCRIPTIVE_REPRESENTATION_ITEM('Steel, Mild','Steel, Mild');
#258=PROPERTY_DEFINITION('material property','material name',#443);
#259=PROPERTY_DEFINITION('material property','density of part',#443);
#260=DATE_TIME_ROLE('creation_date');
#261=APPLIED_DATE_AND_TIME_ASSIGNMENT(#262,#260,(#443));
#262=DATE_AND_TIME(#263,#264);
#263=CALENDAR_DATE(2026,2,2);
#264=LOCAL_TIME(0,0,0.,#265);
#265=COORDINATED_UNIVERSAL_TIME_OFFSET(0,0,.BEHIND.);
#266=AXIS2_PLACEMENT_3D('',#363,#291,#292);
#267=AXIS2_PLACEMENT_3D('',#364,#293,#294);
#268=AXIS2_PLACEMENT_3D('',#366,#295,#296);
#269=AXIS2_PLACEMENT_3D('',#370,#298,#299);
#270=AXIS2_PLACEMENT_3D('',#371,#300,#301);
#271=AXIS2_PLACEMENT_3D('',#372,#302,#303);
#272=AXIS2_PLACEMENT_3D('',#376,#305,#306);
#273=AXIS2_PLACEMENT_3D('',#377,#307,#308);
#274=AXIS2_PLACEMENT_3D('',#378,#309,#310);
#275=AXIS2_PLACEMENT_3D('',#379,#311,#312);
#276=AXIS2_PLACEMENT_3D('',#382,#313,#314);
#277=AXIS2_PLACEMENT_3D('',#383,#315,#316);
#278=AXIS2_PLACEMENT_3D('',#384,#317,#318);
#279=AXIS2_PLACEMENT_3D('',#385,#319,#320);
#280=AXIS2_PLACEMENT_3D('',#388,#322,#323);
#281=AXIS2_PLACEMENT_3D('',#389,#324,#325);
#282=AXIS2_PLACEMENT_3D('',#398,#330,#331);
#283=AXIS2_PLACEMENT_3D('',#404,#335,#336);
#284=AXIS2_PLACEMENT_3D('',#410,#340,#341);
#285=AXIS2_PLACEMENT_3D('',#416,#345,#346);
#286=AXIS2_PLACEMENT_3D('',#422,#350,#351);
#287=AXIS2_PLACEMENT_3D('',#425,#354,#355);
#288=AXIS2_PLACEMENT_3D('',#426,#356,#357);
#289=AXIS2_PLACEMENT_3D('',#428,#358,#359);
#290=AXIS2_PLACEMENT_3D('',#429,#360,#361);
#291=DIRECTION('axis',(0.,0.,1.));
#292=DIRECTION('refdir',(1.,0.,0.));
#293=DIRECTION('center_axis',(0.,0.,1.));
#294=DIRECTION('ref_axis',(-1.,0.,0.));
#295=DIRECTION('center_axis',(0.,0.,1.));
#296=DIRECTION('ref_axis',(-1.,0.,0.));
#297=DIRECTION('',(0.707106781186547,-8.65956056235493E-17,0.707106781186548));
#298=DIRECTION('center_axis',(0.,0.,-1.));
#299=DIRECTION('ref_axis',(-1.,0.,0.));
#300=DIRECTION('center_axis',(0.,0.,-1.));
#301=DIRECTION('ref_axis',(-1.,0.,0.));
#302=DIRECTION('center_axis',(0.,0.,-1.));
#303=DIRECTION('ref_axis',(1.,0.,0.));
#304=DIRECTION('',(0.,0.,1.));
#305=DIRECTION('center_axis',(0.,0.,1.));
#306=DIRECTION('ref_axis',(-1.,-1.22464679914735E-16,0.));
#307=DIRECTION('center_axis',(0.,0.,1.));
#308=DIRECTION('ref_axis',(-1.,-1.22464679914735E-16,0.));
#309=DIRECTION('center_axis',(0.,0.,-1.));
#310=DIRECTION('ref_axis',(-1.,0.,0.));
#311=DIRECTION('center_axis',(0.,0.,-1.));
#312=DIRECTION('ref_axis',(-1.,0.,0.));
#313=DIRECTION('center_axis',(0.,0.,-1.));
#314=DIRECTION('ref_axis',(-1.,0.,0.));
#315=DIRECTION('center_axis',(0.,0.,-1.));
#316=DIRECTION('ref_axis',(-1.,0.,0.));
#317=DIRECTION('center_axis',(-1.22464679914735E-16,-1.,0.));
#318=DIRECTION('ref_axis',(1.,-1.22464679914735E-16,0.));
#319=DIRECTION('center_axis',(0.,0.,1.));
#320=DIRECTION('ref_axis',(1.,0.,0.));
#321=DIRECTION('',(-0.707106781186548,8.65956056235493E-17,0.707106781186548));
#322=DIRECTION('center_axis',(0.,0.,-1.));
#323=DIRECTION('ref_axis',(1.,0.,0.));
#324=DIRECTION('center_axis',(-0.499999999999999,-0.866025403784439,0.));
#325=DIRECTION('ref_axis',(0.,0.,-1.));
#326=DIRECTION('',(0.866025403784439,-0.499999999999999,0.));
#327=DIRECTION('',(0.,0.,-1.));
#328=DIRECTION('',(-0.866025403784439,0.499999999999999,0.));
#329=DIRECTION('',(0.,0.,-1.));
#330=DIRECTION('center_axis',(0.5,-0.866025403784439,0.));
#331=DIRECTION('ref_axis',(0.,0.,-1.));
#332=DIRECTION('',(0.866025403784439,0.5,0.));
#333=DIRECTION('',(-0.866025403784439,-0.5,0.));
#334=DIRECTION('',(0.,0.,-1.));
#335=DIRECTION('center_axis',(1.,3.60555503696918E-16,0.));
#336=DIRECTION('ref_axis',(0.,0.,-1.));
#337=DIRECTION('',(-3.60555503696918E-16,1.,0.));
#338=DIRECTION('',(3.60555503696918E-16,-1.,0.));
#339=DIRECTION('',(0.,0.,-1.));
#340=DIRECTION('center_axis',(0.499999999999999,0.866025403784439,0.));
#341=DIRECTION('ref_axis',(0.,0.,1.));
#342=DIRECTION('',(-0.866025403784439,0.499999999999999,0.));
#343=DIRECTION('',(0.866025403784439,-0.499999999999999,0.));
#344=DIRECTION('',(0.,0.,-1.));
#345=DIRECTION('center_axis',(-0.5,0.866025403784439,0.));
#346=DIRECTION('ref_axis',(0.,0.,1.));
#347=DIRECTION('',(-0.866025403784439,-0.5,0.));
#348=DIRECTION('',(0.866025403784439,0.5,0.));
#349=DIRECTION('',(0.,0.,-1.));
#350=DIRECTION('center_axis',(-1.,2.40370335797945E-16,0.));
#351=DIRECTION('ref_axis',(0.,0.,1.));
#352=DIRECTION('',(-2.40370335797945E-16,-1.,0.));
#353=DIRECTION('',(2.40370335797945E-16,1.,0.));
#354=DIRECTION('center_axis',(0.,0.,1.));
#355=DIRECTION('ref_axis',(1.,0.,0.));
#356=DIRECTION('center_axis',(0.,0.,1.));
#357=DIRECTION('ref_axis',(1.,0.,0.));
#358=DIRECTION('center_axis',(0.,0.,-1.));
#359=DIRECTION('ref_axis',(1.,0.,0.));
#360=DIRECTION('center_axis',(0.,0.,-1.));
#361=DIRECTION('ref_axis',(1.,0.,0.));
#362=DIRECTION('',(0.,0.,1.));
#363=CARTESIAN_POINT('',(0.,0.,0.));
#364=CARTESIAN_POINT('Origin',(0.,0.,-9.875));
#365=CARTESIAN_POINT('',(1.25,1.53080849893419E-16,-10.));
#366=CARTESIAN_POINT('Origin',(0.,0.,-10.));
#367=CARTESIAN_POINT('',(1.5,-1.83697019872103E-16,-9.75));
#368=CARTESIAN_POINT('',(1.375,-1.68388934882761E-16,-9.875));
#369=CARTESIAN_POINT('',(-1.5,1.83697019872103E-16,-9.75));
#370=CARTESIAN_POINT('Origin',(0.,0.,-9.75));
#371=CARTESIAN_POINT('Origin',(0.,0.,-9.75));
#372=CARTESIAN_POINT('Origin',(0.,0.,-5.85));
#373=CARTESIAN_POINT('',(-1.5,1.83697019872103E-16,-1.74142135623731));
#374=CARTESIAN_POINT('',(-1.5,1.83697019872103E-16,-5.85));
#375=CARTESIAN_POINT('',(1.5,3.67394039744206E-16,-1.74142135623731));
#376=CARTESIAN_POINT('Origin',(0.,0.,-1.74142135623731));
#377=CARTESIAN_POINT('Origin',(0.,0.,-1.74142135623731));
#378=CARTESIAN_POINT('Origin',(0.75,0.,-10.));
#379=CARTESIAN_POINT('Origin',(0.,0.,-1.74142135623731));
#380=CARTESIAN_POINT('',(1.52928932188135,0.,-1.67071067811866));
#381=CARTESIAN_POINT('',(-1.52928932188135,1.87283927301222E-16,-1.67071067811866));
#382=CARTESIAN_POINT('Origin',(0.,1.87283927301222E-16,-1.67071067811866));
#383=CARTESIAN_POINT('Origin',(0.,1.87283927301222E-16,-1.67071067811866));
#384=CARTESIAN_POINT('Origin',(1.6,-1.95943487863577E-16,-1.74142135623731));
#385=CARTESIAN_POINT('Origin',(0.,0.,-0.95));
#386=CARTESIAN_POINT('',(-3.,3.67394039744206E-16,-0.2));
#387=CARTESIAN_POINT('',(-2.25,2.75545529808155E-16,-0.95));
#388=CARTESIAN_POINT('Origin',(0.,0.,-0.2));
#389=CARTESIAN_POINT('Origin',(-1.,-0.577350269189626,0.));
#390=CARTESIAN_POINT('',(-1.,-0.577350269189626,-1.2));
#391=CARTESIAN_POINT('',(2.22041216793242E-16,-1.15470053837925,-1.2));
#392=CARTESIAN_POINT('',(-1.,-0.577350269189626,-1.2));
#393=CARTESIAN_POINT('',(-1.,-0.577350269189626,0.));
#394=CARTESIAN_POINT('',(-1.,-0.577350269189626,0.));
#395=CARTESIAN_POINT('',(2.22041216793242E-16,-1.15470053837925,0.));
#396=CARTESIAN_POINT('',(-0.187499999999999,-1.0464473629062,0.));
#397=CARTESIAN_POINT('',(2.22041216793242E-16,-1.15470053837925,0.));
#398=CARTESIAN_POINT('Origin',(2.22041216793242E-16,-1.15470053837925,0.));
#399=CARTESIAN_POINT('',(1.,-0.577350269189626,-1.2));
#400=CARTESIAN_POINT('',(2.22041216793242E-16,-1.15470053837925,-1.2));
#401=CARTESIAN_POINT('',(1.,-0.577350269189626,0.));
#402=CARTESIAN_POINT('',(0.8125,-0.685603444662681,0.));
#403=CARTESIAN_POINT('',(1.,-0.577350269189626,0.));
#404=CARTESIAN_POINT('Origin',(1.,-0.577350269189626,0.));
#405=CARTESIAN_POINT('',(1.,0.577350269189626,-1.2));
#406=CARTESIAN_POINT('',(1.,-0.577350269189626,-1.2));
#407=CARTESIAN_POINT('',(1.,0.577350269189626,0.));
#408=CARTESIAN_POINT('',(1.,-0.288675134594813,0.));
#409=CARTESIAN_POINT('',(1.,0.577350269189626,0.));
#410=CARTESIAN_POINT('Origin',(1.,0.577350269189626,0.));
#411=CARTESIAN_POINT('',(-2.22047569540347E-16,1.15470053837925,-1.2));
#412=CARTESIAN_POINT('',(1.,0.577350269189626,-1.2));
#413=CARTESIAN_POINT('',(-2.22047569540347E-16,1.15470053837925,0.));
#414=CARTESIAN_POINT('',(1.3125,0.396928310067869,0.));
#415=CARTESIAN_POINT('',(-2.22047569540347E-16,1.15470053837925,0.));
#416=CARTESIAN_POINT('Origin',(-2.22047569540347E-16,1.15470053837925,0.));
#417=CARTESIAN_POINT('',(-1.,0.577350269189626,-1.2));
#418=CARTESIAN_POINT('',(-2.22047569540347E-16,1.15470053837925,-1.2));
#419=CARTESIAN_POINT('',(-1.,0.577350269189626,0.));
#420=CARTESIAN_POINT('',(0.3125,1.33512249750101,0.));
#421=CARTESIAN_POINT('',(-1.,0.577350269189626,0.));
#422=CARTESIAN_POINT('Origin',(-1.,0.577350269189626,0.));
#423=CARTESIAN_POINT('',(-1.,0.577350269189626,-1.2));
#424=CARTESIAN_POINT('',(-1.,0.288675134594813,0.));
#425=CARTESIAN_POINT('Origin',(0.,3.46944695195361E-17,-1.2));
#426=CARTESIAN_POINT('Origin',(1.5,0.,0.));
#427=CARTESIAN_POINT('',(-3.,3.67394039744206E-16,0.));
#428=CARTESIAN_POINT('Origin',(0.,0.,0.));
#429=CARTESIAN_POINT('Origin',(0.,0.,-0.1));
#430=CARTESIAN_POINT('',(-3.,3.67394039744206E-16,-0.1));
#431=UNCERTAINTY_MEASURE_WITH_UNIT(LENGTH_MEASURE(0.01),#435,
'DISTANCE_ACCURACY_VALUE',
'Maximum model space distance between geometric entities at asserted c
onnectivities');
#432=UNCERTAINTY_MEASURE_WITH_UNIT(LENGTH_MEASURE(0.01),#435,
'DISTANCE_ACCURACY_VALUE',
'Maximum model space distance between geometric entities at asserted c
onnectivities');
#433=(
GEOMETRIC_REPRESENTATION_CONTEXT(3)
GLOBAL_UNCERTAINTY_ASSIGNED_CONTEXT((#431))
GLOBAL_UNIT_ASSIGNED_CONTEXT((#435,#437,#438))
REPRESENTATION_CONTEXT('','3D')
);
#434=(
GEOMETRIC_REPRESENTATION_CONTEXT(3)
GLOBAL_UNCERTAINTY_ASSIGNED_CONTEXT((#432))
GLOBAL_UNIT_ASSIGNED_CONTEXT((#435,#437,#438))
REPRESENTATION_CONTEXT('','3D')
);
#435=(
LENGTH_UNIT()
NAMED_UNIT(*)
SI_UNIT(.MILLI.,.METRE.)
);
#436=(
LENGTH_UNIT()
NAMED_UNIT(*)
SI_UNIT(.CENTI.,.METRE.)
);
#437=(
NAMED_UNIT(*)
PLANE_ANGLE_UNIT()
SI_UNIT($,.RADIAN.)
);
#438=(
NAMED_UNIT(*)
SI_UNIT($,.STERADIAN.)
SOLID_ANGLE_UNIT()
);
#439=SHAPE_DEFINITION_REPRESENTATION(#440,#441);
#440=PRODUCT_DEFINITION_SHAPE('',$,#443);
#441=SHAPE_REPRESENTATION('',(#266),#433);
#442=PRODUCT_DEFINITION_CONTEXT('part definition',#447,'design');
#443=PRODUCT_DEFINITION('DIN 7991 - M3x10','DIN_7991_M3x10',#444,#442);
#444=PRODUCT_DEFINITION_FORMATION('',$,#449);
#445=PRODUCT_RELATED_PRODUCT_CATEGORY('DIN_7991_M3x10','DIN_7991_M3x10',
(#449));
#446=APPLICATION_PROTOCOL_DEFINITION('international standard',
'automotive_design',2009,#447);
#447=APPLICATION_CONTEXT(
'Core Data for Automotive Mechanical Design Process');
#448=PRODUCT_CONTEXT('part definition',#447,'mechanical');
#449=PRODUCT('DIN 7991 - M3x10','DIN_7991_M3x10',
'Hexagon socket countersunk head cap screws',(#448));
#450=PRESENTATION_STYLE_ASSIGNMENT((#451));
#451=SURFACE_STYLE_USAGE(.BOTH.,#454);
#452=SURFACE_STYLE_RENDERING_WITH_PROPERTIES($,#458,(#453));
#453=SURFACE_STYLE_TRANSPARENT(0.);
#454=SURFACE_SIDE_STYLE('',(#455,#452));
#455=SURFACE_STYLE_FILL_AREA(#456);
#456=FILL_AREA_STYLE('',(#457));
#457=FILL_AREA_STYLE_COLOUR('',#458);
#458=COLOUR_RGB('',0.745098039215686,0.737254901960784,0.729411764705882);
ENDSEC;
END-ISO-10303-21;
