ISO-10303-21;
HEADER;
/* Generated by software containing ST-Developer
 * from STEP Tools, Inc. (www.steptools.com) 
 */

FILE_DESCRIPTION(
/* description */ ('Hexagon Socket Button Head Screw - Product grade A'),

/* implementation_level */ '2;1');

FILE_NAME(
/* name */ 'ISO_7380_1_M3x8.step',
/* time_stamp */ '2026-09-24T10:54:01-07:00',
/* author */ ('\X2\BC15C815D604\X0\'),
/* organization */ (''),
/* preprocessor_version */ 'ST-DEVELOPER v20.2',
/* originating_system */ 'Autodesk Inventor 2027',
/* authorisation */ '');

FILE_SCHEMA (('AUTOMOTIVE_DESIGN { 1 0 10303 214 3 1 1 }'));
ENDSEC;

DATA;
#10=MECHANICAL_DESIGN_GEOMETRIC_PRESENTATION_REPRESENTATION('',(#13),#496);
#11=SHAPE_REPRESENTATION_RELATIONSHIP('SRR','None',#503,#12);
#12=ADVANCED_BREP_SHAPE_REPRESENTATION('',(#14),#495);
#13=STYLED_ITEM('',(#512),#14);
#14=MANIFOLD_SOLID_BREP('Solid1',#259);
#15=(
BOUNDED_CURVE()
B_SPLINE_CURVE(2,(#453,#454,#455),.UNSPECIFIED.,.F.,.F.)
B_SPLINE_CURVE_WITH_KNOTS((3,3),(0.,0.116843613807792),.UNSPECIFIED.)
CURVE()
GEOMETRIC_REPRESENTATION_ITEM()
RATIONAL_B_SPLINE_CURVE((1.,1.15470053837925,1.))
REPRESENTATION_ITEM('')
);
#16=(
BOUNDED_CURVE()
B_SPLINE_CURVE(2,(#460,#461,#462),.UNSPECIFIED.,.F.,.F.)
B_SPLINE_CURVE_WITH_KNOTS((3,3),(0.,0.116843613807792),.UNSPECIFIED.)
CURVE()
GEOMETRIC_REPRESENTATION_ITEM()
RATIONAL_B_SPLINE_CURVE((1.,1.15470053837925,1.))
REPRESENTATION_ITEM('')
);
#17=(
BOUNDED_CURVE()
B_SPLINE_CURVE(2,(#466,#467,#468),.UNSPECIFIED.,.F.,.F.)
B_SPLINE_CURVE_WITH_KNOTS((3,3),(0.,0.116843613807792),.UNSPECIFIED.)
CURVE()
GEOMETRIC_REPRESENTATION_ITEM()
RATIONAL_B_SPLINE_CURVE((1.,1.15470053837925,1.))
REPRESENTATION_ITEM('')
);
#18=(
BOUNDED_CURVE()
B_SPLINE_CURVE(2,(#472,#473,#474),.UNSPECIFIED.,.F.,.F.)
B_SPLINE_CURVE_WITH_KNOTS((3,3),(0.,0.116843613807792),.UNSPECIFIED.)
CURVE()
GEOMETRIC_REPRESENTATION_ITEM()
RATIONAL_B_SPLINE_CURVE((1.,1.15470053837925,1.))
REPRESENTATION_ITEM('')
);
#19=(
BOUNDED_CURVE()
B_SPLINE_CURVE(2,(#478,#479,#480),.UNSPECIFIED.,.F.,.F.)
B_SPLINE_CURVE_WITH_KNOTS((3,3),(0.,0.058421806903896),.UNSPECIFIED.)
CURVE()
GEOMETRIC_REPRESENTATION_ITEM()
RATIONAL_B_SPLINE_CURVE((1.,1.07735026918962,1.07735026918962))
REPRESENTATION_ITEM('')
);
#20=(
BOUNDED_CURVE()
B_SPLINE_CURVE(2,(#483,#484,#485),.UNSPECIFIED.,.F.,.F.)
B_SPLINE_CURVE_WITH_KNOTS((3,3),(0.058421806903896,0.116843613807792),
 .UNSPECIFIED.)
CURVE()
GEOMETRIC_REPRESENTATION_ITEM()
RATIONAL_B_SPLINE_CURVE((1.07735026918962,1.07735026918962,1.))
REPRESENTATION_ITEM('')
);
#21=(
BOUNDED_CURVE()
B_SPLINE_CURVE(2,(#487,#488,#489),.UNSPECIFIED.,.F.,.F.)
B_SPLINE_CURVE_WITH_KNOTS((3,3),(0.,0.116843613807792),.UNSPECIFIED.)
CURVE()
GEOMETRIC_REPRESENTATION_ITEM()
RATIONAL_B_SPLINE_CURVE((1.,1.15470053837925,1.))
REPRESENTATION_ITEM('')
);
#22=(
BOUNDED_SURFACE()
B_SPLINE_SURFACE(2,2,((#401,#402,#403,#404,#405,#406,#407,#408,#409),(#410,
#411,#412,#413,#414,#415,#416,#417,#418),(#419,#420,#421,#422,#423,#424,
#425,#426,#427)),.UNSPECIFIED.,.F.,.T.,.F.)
B_SPLINE_SURFACE_WITH_KNOTS((3,3),(3,2,2,2,3),(-1.5707963267949,3.20191117234636E-17),
(-3.14159265358979,-1.5707963267949,0.,1.5707963267949,3.14159265358979),
 .UNSPECIFIED.)
GEOMETRIC_REPRESENTATION_ITEM()
RATIONAL_B_SPLINE_SURFACE(((1.,0.707106781186548,1.,0.707106781186548,1.,
0.707106781186548,1.,0.707106781186548,1.),(0.707106781186547,0.5,0.707106781186547,
0.5,0.707106781186547,0.5,0.707106781186547,0.5,0.707106781186547),(1.,
0.707106781186548,1.,0.707106781186548,1.,0.707106781186548,1.,0.707106781186548,
1.)))
REPRESENTATION_ITEM('')
SURFACE()
);
#23=CONICAL_SURFACE('',#292,1.3466375,0.785398163397447);
#24=CONICAL_SURFACE('',#307,0.577350269189626,1.0471975511966);
#25=FACE_BOUND('',#88,.T.);
#26=FACE_BOUND('',#93,.T.);
#27=PLANE('',#290);
#28=PLANE('',#294);
#29=PLANE('',#299);
#30=PLANE('',#301);
#31=PLANE('',#302);
#32=PLANE('',#303);
#33=PLANE('',#304);
#34=PLANE('',#305);
#35=PLANE('',#306);
#36=LINE('',#392,#52);
#37=LINE('',#399,#53);
#38=LINE('',#438,#54);
#39=LINE('',#440,#55);
#40=LINE('',#442,#56);
#41=LINE('',#444,#57);
#42=LINE('',#446,#58);
#43=LINE('',#447,#59);
#44=LINE('',#449,#60);
#45=LINE('',#456,#61);
#46=LINE('',#457,#62);
#47=LINE('',#463,#63);
#48=LINE('',#469,#64);
#49=LINE('',#475,#65);
#50=LINE('',#482,#66);
#51=LINE('',#492,#67);
#52=VECTOR('',#326,1.5);
#53=VECTOR('',#335,1.3466375);
#54=VECTOR('',#348,10.);
#55=VECTOR('',#349,10.);
#56=VECTOR('',#350,10.);
#57=VECTOR('',#351,10.);
#58=VECTOR('',#352,10.);
#59=VECTOR('',#353,10.);
#60=VECTOR('',#356,2.85);
#61=VECTOR('',#359,10.);
#62=VECTOR('',#360,10.);
#63=VECTOR('',#363,10.);
#64=VECTOR('',#366,10.);
#65=VECTOR('',#369,10.);
#66=VECTOR('',#372,10.);
#67=VECTOR('',#377,0.577350269189626);
#68=CYLINDRICAL_SURFACE('',#287,1.5);
#69=CYLINDRICAL_SURFACE('',#300,2.85);
#70=FACE_OUTER_BOUND('',#85,.T.);
#71=FACE_OUTER_BOUND('',#86,.T.);
#72=FACE_OUTER_BOUND('',#87,.T.);
#73=FACE_OUTER_BOUND('',#89,.T.);
#74=FACE_OUTER_BOUND('',#90,.T.);
#75=FACE_OUTER_BOUND('',#91,.T.);
#76=FACE_OUTER_BOUND('',#92,.T.);
#77=FACE_OUTER_BOUND('',#94,.T.);
#78=FACE_OUTER_BOUND('',#95,.T.);
#79=FACE_OUTER_BOUND('',#96,.T.);
#80=FACE_OUTER_BOUND('',#97,.T.);
#81=FACE_OUTER_BOUND('',#98,.T.);
#82=FACE_OUTER_BOUND('',#99,.T.);
#83=FACE_OUTER_BOUND('',#100,.T.);
#84=FACE_OUTER_BOUND('',#101,.T.);
#85=EDGE_LOOP('',(#173,#174,#175,#176,#177));
#86=EDGE_LOOP('',(#178,#179,#180,#181,#182,#183));
#87=EDGE_LOOP('',(#184));
#88=EDGE_LOOP('',(#185));
#89=EDGE_LOOP('',(#186,#187,#188,#189,#190));
#90=EDGE_LOOP('',(#191));
#91=EDGE_LOOP('',(#192,#193,#194,#195,#196));
#92=EDGE_LOOP('',(#197));
#93=EDGE_LOOP('',(#198,#199,#200,#201,#202,#203));
#94=EDGE_LOOP('',(#204,#205,#206,#207,#208));
#95=EDGE_LOOP('',(#209,#210,#211,#212));
#96=EDGE_LOOP('',(#213,#214,#215,#216));
#97=EDGE_LOOP('',(#217,#218,#219,#220));
#98=EDGE_LOOP('',(#221,#222,#223,#224));
#99=EDGE_LOOP('',(#225,#226,#227,#228,#229));
#100=EDGE_LOOP('',(#230,#231,#232,#233));
#101=EDGE_LOOP('',(#234,#235,#236,#237,#238,#239,#240,#241,#242));
#102=CIRCLE('',#283,1.8);
#103=CIRCLE('',#284,0.3);
#104=CIRCLE('',#285,1.5);
#105=CIRCLE('',#286,1.5);
#106=CIRCLE('',#288,1.5);
#107=CIRCLE('',#289,1.5);
#108=CIRCLE('',#291,2.85);
#109=CIRCLE('',#293,1.193275);
#110=CIRCLE('',#295,2.85);
#111=CIRCLE('',#296,2.85);
#112=CIRCLE('',#297,1.45);
#113=CIRCLE('',#298,1.4);
#114=VERTEX_POINT('',#380);
#115=VERTEX_POINT('',#382);
#116=VERTEX_POINT('',#384);
#117=VERTEX_POINT('',#388);
#118=VERTEX_POINT('',#389);
#119=VERTEX_POINT('',#394);
#120=VERTEX_POINT('',#397);
#121=VERTEX_POINT('',#428);
#122=VERTEX_POINT('',#429);
#123=VERTEX_POINT('',#432);
#124=VERTEX_POINT('',#436);
#125=VERTEX_POINT('',#437);
#126=VERTEX_POINT('',#439);
#127=VERTEX_POINT('',#441);
#128=VERTEX_POINT('',#443);
#129=VERTEX_POINT('',#445);
#130=VERTEX_POINT('',#451);
#131=VERTEX_POINT('',#452);
#132=VERTEX_POINT('',#459);
#133=VERTEX_POINT('',#465);
#134=VERTEX_POINT('',#471);
#135=VERTEX_POINT('',#477);
#136=VERTEX_POINT('',#481);
#137=VERTEX_POINT('',#491);
#138=EDGE_CURVE('',#114,#114,#102,.T.);
#139=EDGE_CURVE('',#114,#115,#103,.T.);
#140=EDGE_CURVE('',#115,#116,#104,.T.);
#141=EDGE_CURVE('',#116,#115,#105,.T.);
#142=EDGE_CURVE('',#117,#118,#106,.T.);
#143=EDGE_CURVE('',#118,#117,#107,.T.);
#144=EDGE_CURVE('',#118,#116,#36,.T.);
#145=EDGE_CURVE('',#119,#119,#108,.T.);
#146=EDGE_CURVE('',#120,#120,#109,.T.);
#147=EDGE_CURVE('',#120,#117,#37,.T.);
#148=EDGE_CURVE('',#121,#122,#110,.T.);
#149=EDGE_CURVE('',#122,#121,#111,.T.);
#150=EDGE_CURVE('',#121,#123,#112,.T.);
#151=EDGE_CURVE('',#123,#123,#113,.T.);
#152=EDGE_CURVE('',#124,#125,#38,.T.);
#153=EDGE_CURVE('',#125,#126,#39,.T.);
#154=EDGE_CURVE('',#126,#127,#40,.T.);
#155=EDGE_CURVE('',#127,#128,#41,.T.);
#156=EDGE_CURVE('',#128,#129,#42,.T.);
#157=EDGE_CURVE('',#129,#124,#43,.T.);
#158=EDGE_CURVE('',#119,#122,#44,.T.);
#159=EDGE_CURVE('',#130,#131,#15,.T.);
#160=EDGE_CURVE('',#130,#129,#45,.T.);
#161=EDGE_CURVE('',#131,#128,#46,.T.);
#162=EDGE_CURVE('',#132,#130,#16,.T.);
#163=EDGE_CURVE('',#132,#124,#47,.T.);
#164=EDGE_CURVE('',#133,#132,#17,.T.);
#165=EDGE_CURVE('',#133,#125,#48,.T.);
#166=EDGE_CURVE('',#134,#133,#18,.T.);
#167=EDGE_CURVE('',#126,#134,#49,.T.);
#168=EDGE_CURVE('',#131,#135,#19,.T.);
#169=EDGE_CURVE('',#136,#127,#50,.T.);
#170=EDGE_CURVE('',#135,#136,#20,.T.);
#171=EDGE_CURVE('',#136,#134,#21,.T.);
#172=EDGE_CURVE('',#137,#135,#51,.T.);
#173=ORIENTED_EDGE('',*,*,#138,.T.);
#174=ORIENTED_EDGE('',*,*,#139,.T.);
#175=ORIENTED_EDGE('',*,*,#140,.T.);
#176=ORIENTED_EDGE('',*,*,#141,.T.);
#177=ORIENTED_EDGE('',*,*,#139,.F.);
#178=ORIENTED_EDGE('',*,*,#142,.F.);
#179=ORIENTED_EDGE('',*,*,#143,.F.);
#180=ORIENTED_EDGE('',*,*,#144,.T.);
#181=ORIENTED_EDGE('',*,*,#140,.F.);
#182=ORIENTED_EDGE('',*,*,#141,.F.);
#183=ORIENTED_EDGE('',*,*,#144,.F.);
#184=ORIENTED_EDGE('',*,*,#145,.T.);
#185=ORIENTED_EDGE('',*,*,#138,.F.);
#186=ORIENTED_EDGE('',*,*,#146,.T.);
#187=ORIENTED_EDGE('',*,*,#147,.T.);
#188=ORIENTED_EDGE('',*,*,#142,.T.);
#189=ORIENTED_EDGE('',*,*,#143,.T.);
#190=ORIENTED_EDGE('',*,*,#147,.F.);
#191=ORIENTED_EDGE('',*,*,#146,.F.);
#192=ORIENTED_EDGE('',*,*,#148,.T.);
#193=ORIENTED_EDGE('',*,*,#149,.T.);
#194=ORIENTED_EDGE('',*,*,#150,.T.);
#195=ORIENTED_EDGE('',*,*,#151,.T.);
#196=ORIENTED_EDGE('',*,*,#150,.F.);
#197=ORIENTED_EDGE('',*,*,#151,.F.);
#198=ORIENTED_EDGE('',*,*,#152,.T.);
#199=ORIENTED_EDGE('',*,*,#153,.T.);
#200=ORIENTED_EDGE('',*,*,#154,.T.);
#201=ORIENTED_EDGE('',*,*,#155,.T.);
#202=ORIENTED_EDGE('',*,*,#156,.T.);
#203=ORIENTED_EDGE('',*,*,#157,.T.);
#204=ORIENTED_EDGE('',*,*,#145,.F.);
#205=ORIENTED_EDGE('',*,*,#158,.T.);
#206=ORIENTED_EDGE('',*,*,#148,.F.);
#207=ORIENTED_EDGE('',*,*,#149,.F.);
#208=ORIENTED_EDGE('',*,*,#158,.F.);
#209=ORIENTED_EDGE('',*,*,#159,.F.);
#210=ORIENTED_EDGE('',*,*,#160,.T.);
#211=ORIENTED_EDGE('',*,*,#156,.F.);
#212=ORIENTED_EDGE('',*,*,#161,.F.);
#213=ORIENTED_EDGE('',*,*,#162,.F.);
#214=ORIENTED_EDGE('',*,*,#163,.T.);
#215=ORIENTED_EDGE('',*,*,#157,.F.);
#216=ORIENTED_EDGE('',*,*,#160,.F.);
#217=ORIENTED_EDGE('',*,*,#164,.F.);
#218=ORIENTED_EDGE('',*,*,#165,.T.);
#219=ORIENTED_EDGE('',*,*,#152,.F.);
#220=ORIENTED_EDGE('',*,*,#163,.F.);
#221=ORIENTED_EDGE('',*,*,#166,.F.);
#222=ORIENTED_EDGE('',*,*,#167,.F.);
#223=ORIENTED_EDGE('',*,*,#153,.F.);
#224=ORIENTED_EDGE('',*,*,#165,.F.);
#225=ORIENTED_EDGE('',*,*,#168,.F.);
#226=ORIENTED_EDGE('',*,*,#161,.T.);
#227=ORIENTED_EDGE('',*,*,#155,.F.);
#228=ORIENTED_EDGE('',*,*,#169,.F.);
#229=ORIENTED_EDGE('',*,*,#170,.F.);
#230=ORIENTED_EDGE('',*,*,#171,.F.);
#231=ORIENTED_EDGE('',*,*,#169,.T.);
#232=ORIENTED_EDGE('',*,*,#154,.F.);
#233=ORIENTED_EDGE('',*,*,#167,.T.);
#234=ORIENTED_EDGE('',*,*,#172,.T.);
#235=ORIENTED_EDGE('',*,*,#170,.T.);
#236=ORIENTED_EDGE('',*,*,#171,.T.);
#237=ORIENTED_EDGE('',*,*,#166,.T.);
#238=ORIENTED_EDGE('',*,*,#164,.T.);
#239=ORIENTED_EDGE('',*,*,#162,.T.);
#240=ORIENTED_EDGE('',*,*,#159,.T.);
#241=ORIENTED_EDGE('',*,*,#168,.T.);
#242=ORIENTED_EDGE('',*,*,#172,.F.);
#243=TOROIDAL_SURFACE('',#282,1.8,0.3);
#244=ADVANCED_FACE('',(#70),#243,.F.);
#245=ADVANCED_FACE('',(#71),#68,.T.);
#246=ADVANCED_FACE('',(#72,#25),#27,.T.);
#247=ADVANCED_FACE('',(#73),#23,.T.);
#248=ADVANCED_FACE('',(#74),#28,.T.);
#249=ADVANCED_FACE('',(#75),#22,.F.);
#250=ADVANCED_FACE('',(#76,#26),#29,.T.);
#251=ADVANCED_FACE('',(#77),#69,.T.);
#252=ADVANCED_FACE('',(#78),#30,.F.);
#253=ADVANCED_FACE('',(#79),#31,.F.);
#254=ADVANCED_FACE('',(#80),#32,.F.);
#255=ADVANCED_FACE('',(#81),#33,.F.);
#256=ADVANCED_FACE('',(#82),#34,.F.);
#257=ADVANCED_FACE('',(#83),#35,.F.);
#258=ADVANCED_FACE('',(#84),#24,.F.);
#259=CLOSED_SHELL('',(#244,#245,#246,#247,#248,#249,#250,#251,#252,#253,
#254,#255,#256,#257,#258));
#260=DERIVED_UNIT_ELEMENT(#263,1.);
#261=DERIVED_UNIT_ELEMENT(#498,-3.);
#262=DIMENSIONAL_EXPONENTS(0.,1.,0.,0.,0.,0.,0.);
#263=(
CONVERSION_BASED_UNIT('gram',#265)
MASS_UNIT()
NAMED_UNIT(#262)
);
#264=(
MASS_UNIT()
NAMED_UNIT(*)
SI_UNIT(.KILO.,.GRAM.)
);
#265=MASS_MEASURE_WITH_UNIT(MASS_MEASURE(0.001),#264);
#266=DERIVED_UNIT((#260,#261));
#267=MEASURE_REPRESENTATION_ITEM('density measure',
POSITIVE_RATIO_MEASURE(7.85),#266);
#268=PROPERTY_DEFINITION_REPRESENTATION(#273,#270);
#269=PROPERTY_DEFINITION_REPRESENTATION(#274,#271);
#270=REPRESENTATION('material name',(#272),#495);
#271=REPRESENTATION('density',(#267),#495);
#272=DESCRIPTIVE_REPRESENTATION_ITEM('Steel','Steel');
#273=PROPERTY_DEFINITION('material property','material name',#505);
#274=PROPERTY_DEFINITION('material property','density of part',#505);
#275=DATE_TIME_ROLE('creation_date');
#276=APPLIED_DATE_AND_TIME_ASSIGNMENT(#277,#275,(#505));
#277=DATE_AND_TIME(#278,#279);
#278=CALENDAR_DATE(2026,2,2);
#279=LOCAL_TIME(0,0,0.,#280);
#280=COORDINATED_UNIVERSAL_TIME_OFFSET(0,0,.BEHIND.);
#281=AXIS2_PLACEMENT_3D('',#378,#308,#309);
#282=AXIS2_PLACEMENT_3D('',#379,#310,#311);
#283=AXIS2_PLACEMENT_3D('',#381,#312,#313);
#284=AXIS2_PLACEMENT_3D('',#383,#314,#315);
#285=AXIS2_PLACEMENT_3D('',#385,#316,#317);
#286=AXIS2_PLACEMENT_3D('',#386,#318,#319);
#287=AXIS2_PLACEMENT_3D('',#387,#320,#321);
#288=AXIS2_PLACEMENT_3D('',#390,#322,#323);
#289=AXIS2_PLACEMENT_3D('',#391,#324,#325);
#290=AXIS2_PLACEMENT_3D('',#393,#327,#328);
#291=AXIS2_PLACEMENT_3D('',#395,#329,#330);
#292=AXIS2_PLACEMENT_3D('',#396,#331,#332);
#293=AXIS2_PLACEMENT_3D('',#398,#333,#334);
#294=AXIS2_PLACEMENT_3D('',#400,#336,#337);
#295=AXIS2_PLACEMENT_3D('',#430,#338,#339);
#296=AXIS2_PLACEMENT_3D('',#431,#340,#341);
#297=AXIS2_PLACEMENT_3D('',#433,#342,#343);
#298=AXIS2_PLACEMENT_3D('',#434,#344,#345);
#299=AXIS2_PLACEMENT_3D('',#435,#346,#347);
#300=AXIS2_PLACEMENT_3D('',#448,#354,#355);
#301=AXIS2_PLACEMENT_3D('',#450,#357,#358);
#302=AXIS2_PLACEMENT_3D('',#458,#361,#362);
#303=AXIS2_PLACEMENT_3D('',#464,#364,#365);
#304=AXIS2_PLACEMENT_3D('',#470,#367,#368);
#305=AXIS2_PLACEMENT_3D('',#476,#370,#371);
#306=AXIS2_PLACEMENT_3D('',#486,#373,#374);
#307=AXIS2_PLACEMENT_3D('',#490,#375,#376);
#308=DIRECTION('axis',(0.,0.,1.));
#309=DIRECTION('refdir',(1.,0.,0.));
#310=DIRECTION('center_axis',(1.,1.51657490128401E-17,0.));
#311=DIRECTION('ref_axis',(0.,0.,-1.));
#312=DIRECTION('center_axis',(1.,1.51657490128401E-17,0.));
#313=DIRECTION('ref_axis',(1.51657490128401E-17,-1.,1.22464679914735E-16));
#314=DIRECTION('center_axis',(1.51657490128401E-17,-1.,-1.22464679914735E-16));
#315=DIRECTION('ref_axis',(0.,-1.22464679914735E-16,1.));
#316=DIRECTION('center_axis',(-1.,-1.51657490128401E-17,0.));
#317=DIRECTION('ref_axis',(2.31296463463574E-17,-1.,1.22464679914735E-16));
#318=DIRECTION('center_axis',(-1.,-1.51657490128401E-17,0.));
#319=DIRECTION('ref_axis',(2.31296463463574E-17,-1.,1.22464679914735E-16));
#320=DIRECTION('center_axis',(1.,1.51657490128401E-17,0.));
#321=DIRECTION('ref_axis',(0.,1.,0.));
#322=DIRECTION('center_axis',(1.,1.51657490128401E-17,0.));
#323=DIRECTION('ref_axis',(0.,-1.,0.));
#324=DIRECTION('center_axis',(1.,1.51657490128401E-17,0.));
#325=DIRECTION('ref_axis',(0.,-1.,0.));
#326=DIRECTION('',(-1.,-1.51657490128401E-17,0.));
#327=DIRECTION('center_axis',(1.,1.51657490128401E-17,0.));
#328=DIRECTION('ref_axis',(0.,0.,-1.));
#329=DIRECTION('center_axis',(1.,1.51657490128401E-17,0.));
#330=DIRECTION('ref_axis',(0.,1.,0.));
#331=DIRECTION('center_axis',(-1.,-1.51657490128401E-17,0.));
#332=DIRECTION('ref_axis',(6.71929496738981E-18,-1.,0.));
#333=DIRECTION('center_axis',(-1.,-1.51657490128401E-17,0.));
#334=DIRECTION('ref_axis',(1.51657490128401E-17,-1.,0.));
#335=DIRECTION('',(-0.707106781186548,0.707106781186547,8.65956056235492E-17));
#336=DIRECTION('center_axis',(1.,1.51657490128401E-17,0.));
#337=DIRECTION('ref_axis',(0.,0.,-1.));
#338=DIRECTION('center_axis',(-1.,-1.51657490128401E-17,0.));
#339=DIRECTION('ref_axis',(0.,-1.,1.22464679914735E-16));
#340=DIRECTION('center_axis',(-1.,-1.51657490128401E-17,0.));
#341=DIRECTION('ref_axis',(0.,-1.,1.22464679914735E-16));
#342=DIRECTION('center_axis',(1.51657490128401E-17,-1.,-1.22464679914735E-16));
#343=DIRECTION('ref_axis',(0.,-1.22464679914735E-16,1.));
#344=DIRECTION('center_axis',(1.,1.51657490128401E-17,0.));
#345=DIRECTION('ref_axis',(1.51657490128401E-17,-1.,1.22464679914735E-16));
#346=DIRECTION('center_axis',(-1.,-1.51657490128401E-17,0.));
#347=DIRECTION('ref_axis',(0.,0.,1.));
#348=DIRECTION('',(0.,0.,1.));
#349=DIRECTION('',(1.31339239125383E-17,-0.866025403784438,0.5));
#350=DIRECTION('',(1.31339239125383E-17,-0.866025403784439,-0.5));
#351=DIRECTION('',(-7.29079236568748E-33,4.80740671595891E-16,-1.));
#352=DIRECTION('',(-1.31339239125383E-17,0.866025403784439,-0.5));
#353=DIRECTION('',(-1.31339239125383E-17,0.866025403784439,0.499999999999999));
#354=DIRECTION('center_axis',(1.,1.51657490128401E-17,0.));
#355=DIRECTION('ref_axis',(0.,1.,0.));
#356=DIRECTION('',(-1.,-1.51657490128401E-17,0.));
#357=DIRECTION('center_axis',(7.58287450642006E-18,-0.5,-0.866025403784439));
#358=DIRECTION('ref_axis',(-1.,0.,-8.75594927502555E-18));
#359=DIRECTION('',(-1.,-1.51657490128401E-17,0.));
#360=DIRECTION('',(-1.,-1.51657490128401E-17,0.));
#361=DIRECTION('center_axis',(-7.58287450642005E-18,0.499999999999999,-0.866025403784439));
#362=DIRECTION('ref_axis',(-1.,0.,8.75594927502552E-18));
#363=DIRECTION('',(-1.,-1.51657490128401E-17,0.));
#364=DIRECTION('center_axis',(-1.51657490128401E-17,1.,0.));
#365=DIRECTION('ref_axis',(0.,0.,1.));
#366=DIRECTION('',(-1.,-1.51657490128401E-17,0.));
#367=DIRECTION('center_axis',(-7.58287450642007E-18,0.5,0.866025403784438));
#368=DIRECTION('ref_axis',(1.,0.,8.75594927502555E-18));
#369=DIRECTION('',(1.,1.51657490128401E-17,0.));
#370=DIRECTION('center_axis',(1.51657490128401E-17,-1.,-4.80740671595891E-16));
#371=DIRECTION('ref_axis',(0.,4.80740671595891E-16,-1.));
#372=DIRECTION('',(-1.,-1.51657490128401E-17,0.));
#373=DIRECTION('center_axis',(7.58287450642005E-18,-0.5,0.866025403784439));
#374=DIRECTION('ref_axis',(1.,0.,-8.75594927502553E-18));
#375=DIRECTION('center_axis',(-1.,-1.51657490128401E-17,0.));
#376=DIRECTION('ref_axis',(0.,1.,0.));
#377=DIRECTION('',(-0.5,-0.866025403784439,-1.06057523872491E-16));
#378=CARTESIAN_POINT('',(0.,0.,0.));
#379=CARTESIAN_POINT('Origin',(0.300000000000002,-1.16776267398869E-16,
0.));
#380=CARTESIAN_POINT('',(2.25514051876985E-15,-3.41762415949244E-16,1.8));
#381=CARTESIAN_POINT('Origin',(2.25514051876985E-15,-1.21325992102721E-16,
0.));
#382=CARTESIAN_POINT('',(0.300000000000002,-3.00473287270972E-16,1.5));
#383=CARTESIAN_POINT('Origin',(0.300000000000002,-3.37212691245392E-16,
1.8));
#384=CARTESIAN_POINT('',(0.300000000000002,-1.5,-1.83697019872103E-16));
#385=CARTESIAN_POINT('Origin',(0.300000000000002,-1.16776267398869E-16,
0.));
#386=CARTESIAN_POINT('Origin',(0.300000000000002,-1.16776267398869E-16,
0.));
#387=CARTESIAN_POINT('Origin',(4.75,-4.92886842917304E-17,0.));
#388=CARTESIAN_POINT('',(7.693275,1.5,1.83697019872103E-16));
#389=CARTESIAN_POINT('',(7.693275,-1.5,-1.83697019872103E-16));
#390=CARTESIAN_POINT('Origin',(7.693275,-4.65171436596338E-18,0.));
#391=CARTESIAN_POINT('Origin',(7.693275,-4.65171436596338E-18,0.));
#392=CARTESIAN_POINT('',(4.75,-1.5,-1.83697019872103E-16));
#393=CARTESIAN_POINT('Origin',(2.22044604925031E-15,2.175,0.));
#394=CARTESIAN_POINT('',(2.22044604925031E-15,-2.85,-3.49024337756996E-16));
#395=CARTESIAN_POINT('Origin',(2.22044604925031E-15,-1.21325992102721E-16,
0.));
#396=CARTESIAN_POINT('Origin',(7.8466375,-2.32585718298169E-18,0.));
#397=CARTESIAN_POINT('',(8.,1.193275,-1.46134040925256E-16));
#398=CARTESIAN_POINT('Origin',(8.,9.62964972193618E-34,0.));
#399=CARTESIAN_POINT('',(7.8466375,1.3466375,1.64915530398679E-16));
#400=CARTESIAN_POINT('Origin',(8.,0.749999999999999,0.));
#401=CARTESIAN_POINT('Ctrl Pts',(-1.65,-1.46349477973907E-16,1.4));
#402=CARTESIAN_POINT('Ctrl Pts',(-1.65,-1.4,1.4));
#403=CARTESIAN_POINT('Ctrl Pts',(-1.65,-1.4,0.));
#404=CARTESIAN_POINT('Ctrl Pts',(-1.65,-1.4,-1.4));
#405=CARTESIAN_POINT('Ctrl Pts',(-1.65,-1.46349477973907E-16,-1.4));
#406=CARTESIAN_POINT('Ctrl Pts',(-1.65,1.4,-1.4));
#407=CARTESIAN_POINT('Ctrl Pts',(-1.65,1.4,0.));
#408=CARTESIAN_POINT('Ctrl Pts',(-1.65,1.4,1.4));
#409=CARTESIAN_POINT('Ctrl Pts',(-1.65,-1.46349477973907E-16,1.4));
#410=CARTESIAN_POINT('Ctrl Pts',(-1.65,-1.46349477973907E-16,2.85));
#411=CARTESIAN_POINT('Ctrl Pts',(-1.65,-2.85,2.85));
#412=CARTESIAN_POINT('Ctrl Pts',(-1.65,-2.85,0.));
#413=CARTESIAN_POINT('Ctrl Pts',(-1.65,-2.85,-2.85));
#414=CARTESIAN_POINT('Ctrl Pts',(-1.65,-1.46349477973907E-16,-2.85));
#415=CARTESIAN_POINT('Ctrl Pts',(-1.65,2.85,-2.85));
#416=CARTESIAN_POINT('Ctrl Pts',(-1.65,2.85,0.));
#417=CARTESIAN_POINT('Ctrl Pts',(-1.65,2.85,2.85));
#418=CARTESIAN_POINT('Ctrl Pts',(-1.65,-1.46349477973907E-16,2.85));
#419=CARTESIAN_POINT('Ctrl Pts',(-0.199999999999996,-1.24359141905289E-16,
2.85));
#420=CARTESIAN_POINT('Ctrl Pts',(-0.199999999999996,-2.85,2.85));
#421=CARTESIAN_POINT('Ctrl Pts',(-0.199999999999996,-2.85,0.));
#422=CARTESIAN_POINT('Ctrl Pts',(-0.199999999999996,-2.85,-2.85));
#423=CARTESIAN_POINT('Ctrl Pts',(-0.199999999999996,-1.24359141905289E-16,
-2.85));
#424=CARTESIAN_POINT('Ctrl Pts',(-0.199999999999996,2.85,-2.85));
#425=CARTESIAN_POINT('Ctrl Pts',(-0.199999999999996,2.85,0.));
#426=CARTESIAN_POINT('Ctrl Pts',(-0.199999999999996,2.85,2.85));
#427=CARTESIAN_POINT('Ctrl Pts',(-0.199999999999996,-1.24359141905289E-16,
2.85));
#428=CARTESIAN_POINT('',(-0.199999999999996,-4.73383479662285E-16,2.85));
#429=CARTESIAN_POINT('',(-0.199999999999996,-2.85,-3.49024337756996E-16));
#430=CARTESIAN_POINT('Origin',(-0.199999999999996,-1.24359141905289E-16,
0.));
#431=CARTESIAN_POINT('Origin',(-0.199999999999996,-1.24359141905289E-16,
0.));
#432=CARTESIAN_POINT('',(-1.65,-3.17800029854537E-16,1.4));
#433=CARTESIAN_POINT('Origin',(-0.199999999999996,-2.95809693785919E-16,
1.4));
#434=CARTESIAN_POINT('Origin',(-1.65,-1.46349477973907E-16,0.));
#435=CARTESIAN_POINT('Origin',(-1.65,2.00235026918963,0.));
#436=CARTESIAN_POINT('',(-1.65,1.,-0.577350269189626));
#437=CARTESIAN_POINT('',(-1.65,1.,0.577350269189625));
#438=CARTESIAN_POINT('',(-1.65,1.,0.288675134594812));
#439=CARTESIAN_POINT('',(-1.65,-4.93944614391947E-18,1.15470053837925));
#440=CARTESIAN_POINT('',(-1.65,0.25,1.01036297108184));
#441=CARTESIAN_POINT('',(-1.65,-1.,0.577350269189626));
#442=CARTESIAN_POINT('',(-1.65,-0.75,0.721687836487033));
#443=CARTESIAN_POINT('',(-1.65,-0.999999999999999,-0.577350269189625));
#444=CARTESIAN_POINT('',(-1.65,-1.,-0.288675134594813));
#445=CARTESIAN_POINT('',(-1.65,-4.09080831682763E-16,-1.15470053837925));
#446=CARTESIAN_POINT('',(-1.65,-0.25,-1.01036297108184));
#447=CARTESIAN_POINT('',(-1.65,0.75,-0.721687836487032));
#448=CARTESIAN_POINT('Origin',(-0.824999999999997,-1.33837735038314E-16,
0.));
#449=CARTESIAN_POINT('',(-0.824999999999997,-2.85,-3.49024337756996E-16));
#450=CARTESIAN_POINT('Origin',(-1.65,-4.09080831682763E-16,-1.15470053837925));
#451=CARTESIAN_POINT('',(-0.609999999999996,-1.64956215796438E-15,-1.15470053837925));
#452=CARTESIAN_POINT('',(-0.609999999999996,-1.,-0.577350269189625));
#453=CARTESIAN_POINT('Ctrl Pts',(-0.609999999999996,1.2046659965866E-16,
-1.15470053837925));
#454=CARTESIAN_POINT('Ctrl Pts',(-0.443333333333329,-0.500000000000001,
-0.866025403784438));
#455=CARTESIAN_POINT('Ctrl Pts',(-0.609999999999996,-1.,-0.577350269189625));
#456=CARTESIAN_POINT('',(-1.13,-1.66533453693773E-15,-1.15470053837925));
#457=CARTESIAN_POINT('',(-1.13,-1.,-0.577350269189625));
#458=CARTESIAN_POINT('Origin',(-1.65,1.,-0.577350269189626));
#459=CARTESIAN_POINT('',(-0.609999999999996,1.,-0.577350269189625));
#460=CARTESIAN_POINT('Ctrl Pts',(-0.609999999999996,1.,-0.577350269189626));
#461=CARTESIAN_POINT('Ctrl Pts',(-0.443333333333329,0.499999999999999,-0.866025403784439));
#462=CARTESIAN_POINT('Ctrl Pts',(-0.609999999999996,-1.89181263247444E-15,
-1.15470053837925));
#463=CARTESIAN_POINT('',(-1.13,1.,-0.577350269189625));
#464=CARTESIAN_POINT('Origin',(-1.65,1.,0.577350269189625));
#465=CARTESIAN_POINT('',(-0.609999999999996,1.,0.577350269189625));
#466=CARTESIAN_POINT('Ctrl Pts',(-0.609999999999996,1.,0.577350269189625));
#467=CARTESIAN_POINT('Ctrl Pts',(-0.44333333333333,1.,0.));
#468=CARTESIAN_POINT('Ctrl Pts',(-0.609999999999996,1.,-0.577350269189625));
#469=CARTESIAN_POINT('',(-1.13,1.,0.577350269189625));
#470=CARTESIAN_POINT('Origin',(-1.65,-2.50234858711861E-17,1.15470053837925));
#471=CARTESIAN_POINT('',(-0.609999999999996,1.57723789733537E-17,1.15470053837925));
#472=CARTESIAN_POINT('Ctrl Pts',(-0.609999999999996,3.28633416775877E-16,
1.15470053837925));
#473=CARTESIAN_POINT('Ctrl Pts',(-0.443333333333329,0.5,0.866025403784438));
#474=CARTESIAN_POINT('Ctrl Pts',(-0.609999999999996,1.,0.577350269189625));
#475=CARTESIAN_POINT('',(-1.13,0.,1.15470053837925));
#476=CARTESIAN_POINT('Origin',(-1.65,-0.999999999999999,-0.577350269189625));
#477=CARTESIAN_POINT('',(-0.520683602522955,-1.,-1.09537617978461E-16));
#478=CARTESIAN_POINT('Ctrl Pts',(-0.609999999999996,-1.,-0.577350269189627));
#479=CARTESIAN_POINT('Ctrl Pts',(-0.520683602522955,-1.,-0.267949192431124));
#480=CARTESIAN_POINT('Ctrl Pts',(-0.520683602522955,-1.,-9.66105560421861E-17));
#481=CARTESIAN_POINT('',(-0.609999999999996,-1.,0.577350269189626));
#482=CARTESIAN_POINT('',(-1.13,-1.,0.577350269189626));
#483=CARTESIAN_POINT('Ctrl Pts',(-0.520683602522955,-1.,-9.66105560421861E-17));
#484=CARTESIAN_POINT('Ctrl Pts',(-0.520683602522955,-1.,0.267949192431123));
#485=CARTESIAN_POINT('Ctrl Pts',(-0.609999999999996,-1.,0.577350269189626));
#486=CARTESIAN_POINT('Origin',(-1.65,-1.,0.577350269189626));
#487=CARTESIAN_POINT('Ctrl Pts',(-0.609999999999996,-1.,0.577350269189626));
#488=CARTESIAN_POINT('Ctrl Pts',(-0.443333333333329,-0.5,0.866025403784439));
#489=CARTESIAN_POINT('Ctrl Pts',(-0.609999999999996,6.75578111971238E-16,
1.15470053837925));
#490=CARTESIAN_POINT('Origin',(-0.276666666666663,-1.25521849329607E-16,
0.));
#491=CARTESIAN_POINT('',(0.0566666666666704,-1.2046659965866E-16,0.));
#492=CARTESIAN_POINT('',(-0.276666666666663,-0.577350269189626,-7.07050159149938E-17));
#493=UNCERTAINTY_MEASURE_WITH_UNIT(LENGTH_MEASURE(0.01),#497,
'DISTANCE_ACCURACY_VALUE',
'Maximum model space distance between geometric entities at asserted c
onnectivities');
#494=UNCERTAINTY_MEASURE_WITH_UNIT(LENGTH_MEASURE(0.01),#497,
'DISTANCE_ACCURACY_VALUE',
'Maximum model space distance between geometric entities at asserted c
onnectivities');
#495=(
GEOMETRIC_REPRESENTATION_CONTEXT(3)
GLOBAL_UNCERTAINTY_ASSIGNED_CONTEXT((#493))
GLOBAL_UNIT_ASSIGNED_CONTEXT((#497,#499,#500))
REPRESENTATION_CONTEXT('','3D')
);
#496=(
GEOMETRIC_REPRESENTATION_CONTEXT(3)
GLOBAL_UNCERTAINTY_ASSIGNED_CONTEXT((#494))
GLOBAL_UNIT_ASSIGNED_CONTEXT((#497,#499,#500))
REPRESENTATION_CONTEXT('','3D')
);
#497=(
LENGTH_UNIT()
NAMED_UNIT(*)
SI_UNIT(.MILLI.,.METRE.)
);
#498=(
LENGTH_UNIT()
NAMED_UNIT(*)
SI_UNIT(.CENTI.,.METRE.)
);
#499=(
NAMED_UNIT(*)
PLANE_ANGLE_UNIT()
SI_UNIT($,.RADIAN.)
);
#500=(
NAMED_UNIT(*)
SI_UNIT($,.STERADIAN.)
SOLID_ANGLE_UNIT()
);
#501=SHAPE_DEFINITION_REPRESENTATION(#502,#503);
#502=PRODUCT_DEFINITION_SHAPE('',$,#505);
#503=SHAPE_REPRESENTATION('',(#281),#495);
#504=PRODUCT_DEFINITION_CONTEXT('part definition',#509,'design');
#505=PRODUCT_DEFINITION('ISO 7380-1 - M3 x 8','ISO_7380_1_M3x8',#506,#504);
#506=PRODUCT_DEFINITION_FORMATION('',$,#511);
#507=PRODUCT_RELATED_PRODUCT_CATEGORY('ISO_7380_1_M3x8',
'ISO_7380_1_M3x8',(#511));
#508=APPLICATION_PROTOCOL_DEFINITION('international standard',
'automotive_design',2009,#509);
#509=APPLICATION_CONTEXT(
'Core Data for Automotive Mechanical Design Process');
#510=PRODUCT_CONTEXT('part definition',#509,'mechanical');
#511=PRODUCT('ISO 7380-1 - M3 x 8','ISO_7380_1_M3x8',
'Hexagon Socket Button Head Screw - Product grade A',(#510));
#512=PRESENTATION_STYLE_ASSIGNMENT((#513));
#513=SURFACE_STYLE_USAGE(.BOTH.,#514);
#514=SURFACE_SIDE_STYLE('',(#515));
#515=SURFACE_STYLE_FILL_AREA(#516);
#516=FILL_AREA_STYLE('',(#517));
#517=FILL_AREA_STYLE_COLOUR('',#518);
#518=COLOUR_RGB('',0.301960784313725,0.305882352941176,0.290196078431373);
ENDSEC;
END-ISO-10303-21;
