M48
;L6-L5 LASER BLIND MICROVIAS ONLY - NOT THROUGH DRILL
;UNMIRRORED PCB XY; MM WITH EXPLICIT DECIMAL POINTS
METRIC
T01C0.100
%
G90
G05
T01
X3.534999Y35.392284
X3.534999Y35.792283
X3.534999Y36.192282
X3.534999Y36.592281
X3.534999Y36.992281
X3.601839Y37.386656
X3.884681Y37.669498
X2.664998Y35.439165
X2.664998Y35.839164
X2.664998Y36.239163
X2.664998Y36.639162
X2.664998Y37.039161
X2.667739Y37.439153
X2.809387Y37.813234
X4.427014Y26.704999
X4.827013Y26.704999
X5.227013Y26.704999
X5.627012Y26.704999
X6.027011Y26.704999
X6.427010Y26.704999
X6.827009Y26.704999
X7.217374Y26.792268
X7.505139Y27.070103
X7.604999Y27.457438
X7.604999Y27.857437
X4.440271Y27.575002
X4.840270Y27.575002
X5.240269Y27.575002
X5.640268Y27.575005
X6.040267Y27.575005
X6.440267Y27.575005
X6.734998Y27.845438
X8.690089Y51.547758
X8.330662Y51.723293
X7.930832Y51.734999
X7.530833Y51.734999
X7.130834Y51.734999
X6.730835Y51.734999
X6.330836Y51.734999
X5.930836Y51.734999
X5.530837Y51.734999
X5.130838Y51.734999
X4.730839Y51.734999
X4.330840Y51.734999
X3.930840Y51.734999
X3.530841Y51.734999
X3.133959Y51.685162
X2.814549Y51.444378
X2.668532Y51.071981
X2.664998Y50.671997
X2.664998Y50.271997
X2.664998Y49.871998
X7.485352Y50.864999
X7.085353Y50.864996
X6.685354Y50.864996
X6.285354Y50.864996
X5.885355Y50.864996
X5.485356Y50.864996
X5.085357Y50.864994
X4.685358Y50.864994
X4.285358Y50.864994
X3.885359Y50.864994
X3.534999Y50.671997
X3.534999Y50.271997
X3.534999Y49.871998
X12.414646Y50.864996
X12.814645Y50.864996
X13.214645Y50.864996
X13.614644Y50.864996
X14.014643Y50.864996
X14.414642Y50.864994
X14.814641Y50.864994
X15.214641Y50.864994
X15.614640Y50.864994
X15.965000Y50.671997
X15.965000Y50.271997
X15.965000Y49.871998
X10.809912Y51.547753
X11.169338Y51.723290
X11.569167Y51.734999
X11.969166Y51.734999
X12.369165Y51.734999
X12.769164Y51.734999
X13.169163Y51.734999
X13.569163Y51.734999
X13.969162Y51.734999
X14.369161Y51.734999
X14.769160Y51.734999
X15.169159Y51.734999
X15.569159Y51.734999
X15.969158Y51.734999
X16.366040Y51.685162
X16.685450Y51.444378
X16.831467Y51.071981
X16.835001Y50.671997
X16.835001Y50.271997
X16.835001Y49.871998
X16.835001Y35.444209
X16.835001Y35.844208
X16.835001Y36.244207
X16.835001Y36.644207
X16.835001Y37.044206
X16.835001Y37.444205
X16.835001Y37.844204
X16.815544Y38.243731
X16.621605Y38.593570
X15.965000Y35.677607
X15.965000Y36.077606
X15.965000Y36.477605
X15.965000Y36.877605
X15.965000Y37.277604
X15.965000Y37.677603
X15.910890Y38.073927
X15.628048Y38.356769
X15.156718Y27.575002
X14.756719Y27.575002
X14.356720Y27.575002
X13.956721Y27.575005
X13.556722Y27.575005
X13.156722Y27.575005
X12.756723Y27.575005
X12.520000Y27.897437
X15.239855Y26.704999
X14.839856Y26.704999
X14.439857Y26.704999
X14.039858Y26.704999
X13.639858Y26.704999
X13.239859Y26.704999
X12.839860Y26.704999
X12.439861Y26.704999
X12.048287Y26.786662
X11.756009Y27.059743
X11.650000Y27.445439
X11.650000Y27.845438
X5.274003Y41.014998
X5.674002Y41.014998
X6.074001Y41.014998
X3.680717Y41.812027
X4.074005Y41.884999
X4.474004Y41.884999
X4.874003Y41.884999
X5.274003Y41.884999
X5.674002Y41.884999
X6.074001Y41.884999
X8.014749Y32.229567
X8.297591Y32.512409
X8.580432Y32.795251
X8.863274Y33.078092
X9.146116Y33.360934
X9.428958Y33.643778
X9.711802Y33.926620
X9.994643Y34.209464
X10.277488Y34.492306
X10.498549Y34.825671
X10.535001Y35.224006
X10.535001Y35.624005
X10.535001Y36.024005
X10.535001Y36.424004
X10.535001Y36.824003
X10.535001Y37.224002
X10.535001Y37.624001
X10.535001Y38.024001
X10.535001Y38.424000
X10.535001Y38.823999
X6.901787Y32.341957
X7.182112Y32.627296
X7.464953Y32.910137
X7.747795Y33.192982
X8.030639Y33.475823
X8.313481Y33.758668
X8.596325Y34.041509
X8.879167Y34.324354
X9.162009Y34.607195
X9.444850Y34.890039
X9.665000Y35.224006
X9.665000Y35.624005
X9.665000Y36.024005
X9.665000Y36.424004
X9.665000Y36.824003
X9.665000Y37.224002
X9.665000Y37.624001
X9.665000Y38.024001
X9.665000Y38.424000
X9.665000Y38.823999
X8.065000Y46.975111
X8.065000Y46.575111
X8.064998Y46.175112
X8.935001Y46.921453
X8.935001Y46.521454
X8.935001Y46.121455
X8.871963Y45.726454
X8.626112Y45.410928
X10.565000Y46.921453
X10.565000Y46.521454
X10.565000Y46.121455
X10.628038Y45.726454
X10.873890Y45.410928
X11.435001Y46.975111
X11.435001Y46.575111
X11.435004Y46.175112
X15.425997Y42.585000
X15.025997Y42.585000
X14.625998Y42.585000
X14.225999Y42.585000
X13.826000Y42.585000
X13.426001Y42.585000
X14.225999Y41.714999
X13.826000Y41.714999
X13.426001Y41.714999
X12.520003Y32.491177
X12.559261Y32.889246
X12.635001Y33.282011
X12.635001Y33.682010
X12.635001Y34.082010
X12.635001Y34.482009
X12.635001Y34.882008
X12.635001Y35.282007
X12.635001Y35.682006
X12.635001Y36.082006
X12.635001Y36.482005
X12.635001Y36.882004
X12.635001Y37.282003
X12.635001Y37.682002
X12.635001Y38.082002
X12.635001Y38.482001
X12.635001Y38.882000
X11.650000Y32.433186
X11.650000Y32.833186
X11.725839Y33.225930
X11.765001Y33.624009
X11.765001Y34.024009
X11.765001Y34.424008
X11.765001Y34.824007
X11.765001Y35.224006
X11.765001Y35.624005
X11.765001Y36.024005
X11.765001Y36.424004
X11.765001Y36.824003
X11.765001Y37.224002
X11.765001Y37.624001
X11.765001Y38.024001
X11.765001Y38.424000
X11.765001Y38.823999
X1.070000Y40.500557
X1.100163Y40.101695
X1.426751Y39.870741
X1.826750Y39.869999
X2.226749Y39.869999
X2.626749Y39.869999
X2.983763Y39.689608
X2.983763Y39.289609
X2.983763Y38.889610
X2.983763Y38.489611
X3.087182Y38.103211
X4.121864Y37.993561
X4.405775Y38.275331
X4.416237Y38.675193
X4.416237Y39.075192
X4.416237Y39.475192
X4.416237Y39.875191
X4.628307Y40.214347
X4.630001Y40.614343
X4.630001Y41.014343
X3.278546Y41.630001
X2.878546Y41.630001
X2.478547Y41.630001
X2.078548Y41.630001
X1.678549Y41.630001
X1.280544Y41.590107
X1.070000Y41.250001
X5.528424Y30.120003
X5.928423Y30.120003
X6.328423Y30.120001
X6.453762Y29.740146
X6.453762Y29.340147
X6.453762Y28.940148
X6.460955Y28.540212
X6.733337Y28.247284
X7.637445Y28.257165
X7.883926Y28.572198
X7.886235Y28.972192
X7.886235Y29.372192
X7.886235Y29.772191
X7.910843Y30.171433
X8.099999Y30.523881
X8.099999Y30.923880
X8.099999Y31.323879
X8.031282Y31.717932
X7.665585Y31.880002
X6.375585Y31.880005
X5.975586Y31.880005
X5.575587Y31.880005
X5.175588Y31.880005
X4.776579Y31.851877
X4.541081Y31.528550
X4.539999Y31.128551
X4.539999Y30.728552
X4.579892Y30.330546
X4.919998Y30.120003
X5.870001Y48.316391
X5.870001Y47.916391
X6.065868Y47.567626
X6.463022Y47.520001
X6.863022Y47.520001
X7.263021Y47.520001
X7.663020Y47.520001
X8.063019Y47.520001
X9.061018Y47.520179
X9.394876Y47.740496
X9.430001Y48.138951
X9.430001Y48.538950
X9.427982Y48.938945
X9.216238Y49.278301
X9.216238Y49.678300
X9.216238Y50.078300
X9.216238Y50.478299
X9.204952Y50.878141
X8.918407Y51.157233
X7.783764Y50.465916
X7.783764Y50.065917
X7.783764Y49.665918
X7.678547Y49.280003
X7.278548Y49.280003
X6.878549Y49.280003
X6.478549Y49.280003
X6.080544Y49.240110
X5.870001Y48.900004
X10.070000Y48.817759
X10.070000Y48.417759
X10.070000Y48.017760
X10.179581Y47.633062
X10.563271Y47.520001
X11.611270Y47.520001
X12.011269Y47.519999
X12.411268Y47.519999
X12.811267Y47.519999
X13.211266Y47.519999
X13.570519Y47.695889
X13.630003Y48.091441
X13.630003Y48.491440
X13.630003Y48.891439
X13.427126Y49.236173
X13.029535Y49.280000
X12.629535Y49.280000
X12.229536Y49.280000
X11.829537Y49.280003
X11.716240Y49.663622
X11.716240Y50.063621
X11.716240Y50.463620
X11.708270Y50.863541
X10.545722Y51.147424
X10.287833Y50.841656
X10.283764Y50.441677
X10.283764Y50.041678
X10.283764Y49.641679
X10.283764Y49.241680
X14.869998Y41.692137
X14.869998Y41.292137
X14.874446Y40.892161
X15.083762Y40.551298
X15.083762Y40.151299
X15.083762Y39.751300
X15.083762Y39.351301
X15.100694Y38.951659
X15.402207Y38.688810
X16.506081Y38.976620
X16.516236Y39.376492
X16.516236Y39.776491
X16.516236Y40.176491
X16.588006Y40.570000
X16.988005Y40.570000
X17.388004Y40.570000
X17.788004Y40.570000
X18.187182Y40.595634
X18.428340Y40.914762
X18.429999Y41.314759
X18.429999Y41.714758
X18.393225Y42.113063
X18.057106Y42.329913
X17.657107Y42.330002
X17.257108Y42.330002
X16.857109Y42.330002
X16.457110Y42.330002
X16.057110Y42.330002
X11.368763Y29.739468
X11.368763Y29.339469
X11.368763Y28.939470
X11.376083Y28.539537
X11.649004Y28.247109
X12.616183Y28.287586
X12.801237Y28.642206
X12.801237Y29.042205
X12.801237Y29.442204
X12.801237Y29.842203
X13.089039Y30.119998
X13.489038Y30.119998
X13.889037Y30.119998
X14.289037Y30.119998
X14.651352Y30.289487
X14.715000Y30.684391
X14.715000Y31.084390
X14.715000Y31.484390
X14.518434Y31.832761
X14.121234Y31.880000
X13.721235Y31.880000
X13.321236Y31.880000
X12.921237Y31.880002
X12.521237Y31.880002
X11.561237Y31.880002
X11.207664Y31.692957
X11.154999Y31.296440
X11.154999Y30.896441
X11.155042Y30.496441
X11.368763Y30.158324
X3.683546Y34.998690
X3.922814Y34.652052
X3.973584Y34.233927
X3.824224Y33.840103
X3.508957Y33.560799
X3.099999Y33.459999
X2.691041Y33.560799
X2.375774Y33.840103
X2.226414Y34.233927
X2.277184Y34.652052
X2.516452Y34.998690
X3.758689Y26.556452
X3.412051Y26.317184
X2.993926Y26.266414
X2.600101Y26.415774
X2.320798Y26.731041
X2.219998Y27.139999
X2.320798Y27.548957
X2.600101Y27.864224
X2.993926Y28.013584
X3.412051Y27.962814
X3.758689Y27.723546
X3.683546Y49.498689
X3.922814Y49.152051
X3.973584Y48.733926
X3.824224Y48.340101
X3.508957Y48.060798
X3.099999Y47.959998
X2.691041Y48.060798
X2.375774Y48.340101
X2.226414Y48.733926
X2.277184Y49.152051
X2.516452Y49.498689
X16.983547Y49.498689
X17.222815Y49.152051
X17.273585Y48.733926
X17.124225Y48.340101
X16.808958Y48.060798
X16.400000Y47.959998
X15.991042Y48.060798
X15.675775Y48.340101
X15.526415Y48.733926
X15.577185Y49.152051
X15.816453Y49.498689
X16.983547Y34.998690
X17.222815Y34.652052
X17.273585Y34.233927
X17.124225Y33.840103
X16.808958Y33.560799
X16.400000Y33.459999
X15.991042Y33.560799
X15.675775Y33.840103
X15.526415Y34.233927
X15.577185Y34.652052
X15.816453Y34.998690
X15.741310Y27.723546
X16.087949Y27.962814
X16.506073Y28.013584
X16.899898Y27.864224
X17.179201Y27.548957
X17.280001Y27.139999
X17.179201Y26.731041
X16.899898Y26.415774
X16.506073Y26.266414
X16.087949Y26.317184
X15.741310Y26.556452
M30
