ISO-10303-21;
HEADER;
/* Generated by software containing ST-Developer
 * from STEP Tools, Inc. (www.steptools.com) 
 */

FILE_DESCRIPTION(
/* description */ (''),
/* implementation_level */ '2;1');

FILE_NAME(
/* name */ 'Device_M3x8_Simplified.step',
/* time_stamp */ '2026-09-21T23:15:51-07:00',
/* author */ ('\X2\BC15C815D604\X0\'),
/* organization */ (''),
/* preprocessor_version */ 'ST-DEVELOPER v20.2',
/* originating_system */ 'Autodesk Inventor 2027',
/* authorisation */ '');

FILE_SCHEMA (('AUTOMOTIVE_DESIGN { 1 0 10303 214 3 1 1 }'));
ENDSEC;

DATA;
#10=MECHANICAL_DESIGN_GEOMETRIC_PRESENTATION_REPRESENTATION('',(#13),#230);
#11=SHAPE_REPRESENTATION_RELATIONSHIP('SRR','None',#237,#12);
#12=ADVANCED_BREP_SHAPE_REPRESENTATION('',(#14),#229);
#13=STYLED_ITEM('',(#246),#14);
#14=MANIFOLD_SOLID_BREP('Solid1',#117);
#15=FACE_BOUND('',#38,.T.);
#16=FACE_BOUND('',#41,.T.);
#17=FACE_BOUND('',#43,.T.);
#18=PLANE('',#143);
#19=PLANE('',#147);
#20=PLANE('',#151);
#21=PLANE('',#155);
#22=PLANE('',#156);
#23=FACE_OUTER_BOUND('',#32,.T.);
#24=FACE_OUTER_BOUND('',#33,.T.);
#25=FACE_OUTER_BOUND('',#34,.T.);
#26=FACE_OUTER_BOUND('',#35,.T.);
#27=FACE_OUTER_BOUND('',#36,.T.);
#28=FACE_OUTER_BOUND('',#37,.T.);
#29=FACE_OUTER_BOUND('',#39,.T.);
#30=FACE_OUTER_BOUND('',#40,.T.);
#31=FACE_OUTER_BOUND('',#42,.T.);
#32=EDGE_LOOP('',(#80,#81,#82,#83));
#33=EDGE_LOOP('',(#84));
#34=EDGE_LOOP('',(#85,#86,#87,#88));
#35=EDGE_LOOP('',(#89));
#36=EDGE_LOOP('',(#90,#91,#92,#93));
#37=EDGE_LOOP('',(#94));
#38=EDGE_LOOP('',(#95));
#39=EDGE_LOOP('',(#96,#97,#98,#99));
#40=EDGE_LOOP('',(#100));
#41=EDGE_LOOP('',(#101));
#42=EDGE_LOOP('',(#102));
#43=EDGE_LOOP('',(#103));
#44=LINE('',#202,#48);
#45=LINE('',#209,#49);
#46=LINE('',#216,#50);
#47=LINE('',#223,#51);
#48=VECTOR('',#163,1.25);
#49=VECTOR('',#172,1.25);
#50=VECTOR('',#181,1.5);
#51=VECTOR('',#190,2.75);
#52=CIRCLE('',#141,1.25);
#53=CIRCLE('',#142,1.25);
#54=CIRCLE('',#145,1.25);
#55=CIRCLE('',#146,1.25);
#56=CIRCLE('',#149,1.5);
#57=CIRCLE('',#150,1.5);
#58=CIRCLE('',#153,2.75);
#59=CIRCLE('',#154,2.75);
#60=VERTEX_POINT('',#199);
#61=VERTEX_POINT('',#201);
#62=VERTEX_POINT('',#206);
#63=VERTEX_POINT('',#208);
#64=VERTEX_POINT('',#213);
#65=VERTEX_POINT('',#215);
#66=VERTEX_POINT('',#220);
#67=VERTEX_POINT('',#222);
#68=EDGE_CURVE('',#60,#60,#52,.T.);
#69=EDGE_CURVE('',#60,#61,#44,.T.);
#70=EDGE_CURVE('',#61,#61,#53,.T.);
#71=EDGE_CURVE('',#62,#62,#54,.T.);
#72=EDGE_CURVE('',#62,#63,#45,.T.);
#73=EDGE_CURVE('',#63,#63,#55,.T.);
#74=EDGE_CURVE('',#64,#64,#56,.T.);
#75=EDGE_CURVE('',#64,#65,#46,.T.);
#76=EDGE_CURVE('',#65,#65,#57,.T.);
#77=EDGE_CURVE('',#66,#66,#58,.T.);
#78=EDGE_CURVE('',#66,#67,#47,.T.);
#79=EDGE_CURVE('',#67,#67,#59,.T.);
#80=ORIENTED_EDGE('',*,*,#68,.F.);
#81=ORIENTED_EDGE('',*,*,#69,.T.);
#82=ORIENTED_EDGE('',*,*,#70,.T.);
#83=ORIENTED_EDGE('',*,*,#69,.F.);
#84=ORIENTED_EDGE('',*,*,#70,.F.);
#85=ORIENTED_EDGE('',*,*,#71,.F.);
#86=ORIENTED_EDGE('',*,*,#72,.T.);
#87=ORIENTED_EDGE('',*,*,#73,.F.);
#88=ORIENTED_EDGE('',*,*,#72,.F.);
#89=ORIENTED_EDGE('',*,*,#71,.T.);
#90=ORIENTED_EDGE('',*,*,#74,.F.);
#91=ORIENTED_EDGE('',*,*,#75,.T.);
#92=ORIENTED_EDGE('',*,*,#76,.F.);
#93=ORIENTED_EDGE('',*,*,#75,.F.);
#94=ORIENTED_EDGE('',*,*,#74,.T.);
#95=ORIENTED_EDGE('',*,*,#73,.T.);
#96=ORIENTED_EDGE('',*,*,#77,.F.);
#97=ORIENTED_EDGE('',*,*,#78,.T.);
#98=ORIENTED_EDGE('',*,*,#79,.F.);
#99=ORIENTED_EDGE('',*,*,#78,.F.);
#100=ORIENTED_EDGE('',*,*,#79,.T.);
#101=ORIENTED_EDGE('',*,*,#68,.T.);
#102=ORIENTED_EDGE('',*,*,#77,.T.);
#103=ORIENTED_EDGE('',*,*,#76,.T.);
#104=CYLINDRICAL_SURFACE('',#140,1.25);
#105=CYLINDRICAL_SURFACE('',#144,1.25);
#106=CYLINDRICAL_SURFACE('',#148,1.5);
#107=CYLINDRICAL_SURFACE('',#152,2.75);
#108=ADVANCED_FACE('',(#23),#104,.F.);
#109=ADVANCED_FACE('',(#24),#18,.F.);
#110=ADVANCED_FACE('',(#25),#105,.T.);
#111=ADVANCED_FACE('',(#26),#19,.T.);
#112=ADVANCED_FACE('',(#27),#106,.T.);
#113=ADVANCED_FACE('',(#28,#15),#20,.T.);
#114=ADVANCED_FACE('',(#29),#107,.T.);
#115=ADVANCED_FACE('',(#30,#16),#21,.F.);
#116=ADVANCED_FACE('',(#31,#17),#22,.T.);
#117=CLOSED_SHELL('',(#108,#109,#110,#111,#112,#113,#114,#115,#116));
#118=DERIVED_UNIT_ELEMENT(#121,1.);
#119=DERIVED_UNIT_ELEMENT(#232,-3.);
#120=DIMENSIONAL_EXPONENTS(0.,1.,0.,0.,0.,0.,0.);
#121=(
CONVERSION_BASED_UNIT('gram',#123)
MASS_UNIT()
NAMED_UNIT(#120)
);
#122=(
MASS_UNIT()
NAMED_UNIT(*)
SI_UNIT(.KILO.,.GRAM.)
);
#123=MASS_MEASURE_WITH_UNIT(MASS_MEASURE(0.001),#122);
#124=DERIVED_UNIT((#118,#119));
#125=MEASURE_REPRESENTATION_ITEM('density measure',
POSITIVE_RATIO_MEASURE(1.),#124);
#126=PROPERTY_DEFINITION_REPRESENTATION(#131,#128);
#127=PROPERTY_DEFINITION_REPRESENTATION(#132,#129);
#128=REPRESENTATION('material name',(#130),#229);
#129=REPRESENTATION('density',(#125),#229);
#130=DESCRIPTIVE_REPRESENTATION_ITEM('Generic','Generic');
#131=PROPERTY_DEFINITION('material property','material name',#239);
#132=PROPERTY_DEFINITION('material property','density of part',#239);
#133=DATE_TIME_ROLE('creation_date');
#134=APPLIED_DATE_AND_TIME_ASSIGNMENT(#135,#133,(#239));
#135=DATE_AND_TIME(#136,#137);
#136=CALENDAR_DATE(2026,21,9);
#137=LOCAL_TIME(0,0,0.,#138);
#138=COORDINATED_UNIVERSAL_TIME_OFFSET(0,0,.BEHIND.);
#139=AXIS2_PLACEMENT_3D('',#197,#157,#158);
#140=AXIS2_PLACEMENT_3D('',#198,#159,#160);
#141=AXIS2_PLACEMENT_3D('',#200,#161,#162);
#142=AXIS2_PLACEMENT_3D('',#203,#164,#165);
#143=AXIS2_PLACEMENT_3D('',#204,#166,#167);
#144=AXIS2_PLACEMENT_3D('',#205,#168,#169);
#145=AXIS2_PLACEMENT_3D('',#207,#170,#171);
#146=AXIS2_PLACEMENT_3D('',#210,#173,#174);
#147=AXIS2_PLACEMENT_3D('',#211,#175,#176);
#148=AXIS2_PLACEMENT_3D('',#212,#177,#178);
#149=AXIS2_PLACEMENT_3D('',#214,#179,#180);
#150=AXIS2_PLACEMENT_3D('',#217,#182,#183);
#151=AXIS2_PLACEMENT_3D('',#218,#184,#185);
#152=AXIS2_PLACEMENT_3D('',#219,#186,#187);
#153=AXIS2_PLACEMENT_3D('',#221,#188,#189);
#154=AXIS2_PLACEMENT_3D('',#224,#191,#192);
#155=AXIS2_PLACEMENT_3D('',#225,#193,#194);
#156=AXIS2_PLACEMENT_3D('',#226,#195,#196);
#157=DIRECTION('axis',(0.,0.,1.));
#158=DIRECTION('refdir',(1.,0.,0.));
#159=DIRECTION('center_axis',(0.,0.,1.));
#160=DIRECTION('ref_axis',(-1.,0.,0.));
#161=DIRECTION('center_axis',(0.,0.,1.));
#162=DIRECTION('ref_axis',(-1.,0.,0.));
#163=DIRECTION('',(0.,0.,1.));
#164=DIRECTION('center_axis',(0.,0.,1.));
#165=DIRECTION('ref_axis',(-1.,0.,0.));
#166=DIRECTION('center_axis',(0.,0.,1.));
#167=DIRECTION('ref_axis',(1.,0.,0.));
#168=DIRECTION('center_axis',(0.,0.,1.));
#169=DIRECTION('ref_axis',(-1.,0.,0.));
#170=DIRECTION('center_axis',(0.,0.,1.));
#171=DIRECTION('ref_axis',(-1.,0.,0.));
#172=DIRECTION('',(0.,0.,-1.));
#173=DIRECTION('center_axis',(0.,0.,-1.));
#174=DIRECTION('ref_axis',(-1.,0.,0.));
#175=DIRECTION('center_axis',(0.,0.,1.));
#176=DIRECTION('ref_axis',(1.,0.,0.));
#177=DIRECTION('center_axis',(0.,0.,1.));
#178=DIRECTION('ref_axis',(-1.,0.,0.));
#179=DIRECTION('center_axis',(0.,0.,1.));
#180=DIRECTION('ref_axis',(-1.,0.,0.));
#181=DIRECTION('',(0.,0.,-1.));
#182=DIRECTION('center_axis',(0.,0.,-1.));
#183=DIRECTION('ref_axis',(-1.,0.,0.));
#184=DIRECTION('center_axis',(0.,0.,1.));
#185=DIRECTION('ref_axis',(1.,0.,0.));
#186=DIRECTION('center_axis',(0.,0.,1.));
#187=DIRECTION('ref_axis',(-1.,0.,0.));
#188=DIRECTION('center_axis',(0.,0.,1.));
#189=DIRECTION('ref_axis',(-1.,0.,0.));
#190=DIRECTION('',(0.,0.,-1.));
#191=DIRECTION('center_axis',(0.,0.,-1.));
#192=DIRECTION('ref_axis',(-1.,0.,0.));
#193=DIRECTION('center_axis',(0.,0.,1.));
#194=DIRECTION('ref_axis',(1.,0.,0.));
#195=DIRECTION('center_axis',(0.,0.,1.));
#196=DIRECTION('ref_axis',(1.,0.,0.));
#197=CARTESIAN_POINT('',(0.,0.,0.));
#198=CARTESIAN_POINT('Origin',(0.,0.,-3.));
#199=CARTESIAN_POINT('',(1.25,1.53080849893419E-16,-3.));
#200=CARTESIAN_POINT('Origin',(0.,0.,-3.));
#201=CARTESIAN_POINT('',(1.25,1.53080849893419E-16,-1.5));
#202=CARTESIAN_POINT('',(1.25,1.53080849893419E-16,-3.));
#203=CARTESIAN_POINT('Origin',(0.,0.,-1.5));
#204=CARTESIAN_POINT('Origin',(-5.90160301838331E-17,0.,-1.5));
#205=CARTESIAN_POINT('Origin',(0.,0.,3.0398406169));
#206=CARTESIAN_POINT('',(1.25,1.53080849893419E-16,8.));
#207=CARTESIAN_POINT('Origin',(0.,0.,8.));
#208=CARTESIAN_POINT('',(1.25,1.53080849893419E-16,3.0398406169));
#209=CARTESIAN_POINT('',(1.25,1.53080849893419E-16,3.0398406169));
#210=CARTESIAN_POINT('Origin',(0.,0.,3.0398406169));
#211=CARTESIAN_POINT('Origin',(-5.90160301838331E-17,0.,8.));
#212=CARTESIAN_POINT('Origin',(0.,0.,0.));
#213=CARTESIAN_POINT('',(1.5,1.83697019872103E-16,3.0398406169));
#214=CARTESIAN_POINT('Origin',(0.,0.,3.0398406169));
#215=CARTESIAN_POINT('',(1.5,1.83697019872103E-16,0.));
#216=CARTESIAN_POINT('',(1.5,1.83697019872103E-16,0.));
#217=CARTESIAN_POINT('Origin',(0.,0.,5.55111512312578E-16));
#218=CARTESIAN_POINT('Origin',(-9.24069061438667E-17,0.,3.0398406169));
#219=CARTESIAN_POINT('Origin',(0.,0.,-3.));
#220=CARTESIAN_POINT('',(2.75,3.36777869765522E-16,0.));
#221=CARTESIAN_POINT('Origin',(0.,0.,0.));
#222=CARTESIAN_POINT('',(2.75,3.36777869765522E-16,-3.));
#223=CARTESIAN_POINT('',(2.75,3.36777869765522E-16,-3.));
#224=CARTESIAN_POINT('Origin',(0.,0.,-3.));
#225=CARTESIAN_POINT('Origin',(-1.12172627376305E-16,0.,-3.));
#226=CARTESIAN_POINT('Origin',(-1.12172627376305E-16,0.,5.55111512312578E-16));
#227=UNCERTAINTY_MEASURE_WITH_UNIT(LENGTH_MEASURE(0.01),#231,
'DISTANCE_ACCURACY_VALUE',
'Maximum model space distance between geometric entities at asserted c
onnectivities');
#228=UNCERTAINTY_MEASURE_WITH_UNIT(LENGTH_MEASURE(0.01),#231,
'DISTANCE_ACCURACY_VALUE',
'Maximum model space distance between geometric entities at asserted c
onnectivities');
#229=(
GEOMETRIC_REPRESENTATION_CONTEXT(3)
GLOBAL_UNCERTAINTY_ASSIGNED_CONTEXT((#227))
GLOBAL_UNIT_ASSIGNED_CONTEXT((#231,#233,#234))
REPRESENTATION_CONTEXT('','3D')
);
#230=(
GEOMETRIC_REPRESENTATION_CONTEXT(3)
GLOBAL_UNCERTAINTY_ASSIGNED_CONTEXT((#228))
GLOBAL_UNIT_ASSIGNED_CONTEXT((#231,#233,#234))
REPRESENTATION_CONTEXT('','3D')
);
#231=(
LENGTH_UNIT()
NAMED_UNIT(*)
SI_UNIT(.MILLI.,.METRE.)
);
#232=(
LENGTH_UNIT()
NAMED_UNIT(*)
SI_UNIT(.CENTI.,.METRE.)
);
#233=(
NAMED_UNIT(*)
PLANE_ANGLE_UNIT()
SI_UNIT($,.RADIAN.)
);
#234=(
NAMED_UNIT(*)
SI_UNIT($,.STERADIAN.)
SOLID_ANGLE_UNIT()
);
#235=SHAPE_DEFINITION_REPRESENTATION(#236,#237);
#236=PRODUCT_DEFINITION_SHAPE('',$,#239);
#237=SHAPE_REPRESENTATION('',(#139),#229);
#238=PRODUCT_DEFINITION_CONTEXT('part definition',#243,'design');
#239=PRODUCT_DEFINITION('Device_M3x8_Simplified',
'Device_M3x8_Simplified',#240,#238);
#240=PRODUCT_DEFINITION_FORMATION('',$,#245);
#241=PRODUCT_RELATED_PRODUCT_CATEGORY('Device_M3x8_Simplified',
'Device_M3x8_Simplified',(#245));
#242=APPLICATION_PROTOCOL_DEFINITION('international standard',
'automotive_design',2009,#243);
#243=APPLICATION_CONTEXT(
'Core Data for Automotive Mechanical Design Process');
#244=PRODUCT_CONTEXT('part definition',#243,'mechanical');
#245=PRODUCT('Device_M3x8_Simplified','Device_M3x8_Simplified',$,(#244));
#246=PRESENTATION_STYLE_ASSIGNMENT((#247));
#247=SURFACE_STYLE_USAGE(.BOTH.,#250);
#248=SURFACE_STYLE_RENDERING_WITH_PROPERTIES($,#254,(#249));
#249=SURFACE_STYLE_TRANSPARENT(0.);
#250=SURFACE_SIDE_STYLE('',(#251,#248));
#251=SURFACE_STYLE_FILL_AREA(#252);
#252=FILL_AREA_STYLE('',(#253));
#253=FILL_AREA_STYLE_COLOUR('',#254);
#254=COLOUR_RGB('',0.431372549019608,0.466666666666667,0.505882352941176);
ENDSEC;
END-ISO-10303-21;
