ISO-10303-21;
HEADER;
/* Generated by software containing ST-Developer
 * from STEP Tools, Inc. (www.steptools.com) 
 */

FILE_DESCRIPTION(
/* description */ (''),
/* implementation_level */ '2;1');

FILE_NAME(
/* name */ 'Rod_Holder_Adapter.step',
/* time_stamp */ '2026-09-21T23:34:16-07:00',
/* author */ ('\X2\BC15C815D604\X0\'),
/* organization */ (''),
/* preprocessor_version */ 'ST-DEVELOPER v20.2',
/* originating_system */ 'Autodesk Inventor 2027',
/* authorisation */ '');

FILE_SCHEMA (('AUTOMOTIVE_DESIGN { 1 0 10303 214 3 1 1 }'));
ENDSEC;

DATA;
#10=MECHANICAL_DESIGN_GEOMETRIC_PRESENTATION_REPRESENTATION('',(#13),#1096);
#11=SHAPE_REPRESENTATION_RELATIONSHIP('SRR','None',#1103,#12);
#12=ADVANCED_BREP_SHAPE_REPRESENTATION('',(#14),#1095);
#13=STYLED_ITEM('',(#1112),#14);
#14=MANIFOLD_SOLID_BREP('Solid1',#631);
#15=FACE_BOUND('',#131,.T.);
#16=FACE_BOUND('',#132,.T.);
#17=FACE_BOUND('',#133,.T.);
#18=FACE_BOUND('',#134,.T.);
#19=FACE_BOUND('',#135,.T.);
#20=FACE_BOUND('',#138,.T.);
#21=FACE_BOUND('',#139,.T.);
#22=FACE_BOUND('',#140,.T.);
#23=FACE_BOUND('',#141,.T.);
#24=FACE_BOUND('',#142,.T.);
#25=FACE_BOUND('',#150,.T.);
#26=FACE_BOUND('',#151,.T.);
#27=FACE_BOUND('',#152,.T.);
#28=FACE_BOUND('',#153,.T.);
#29=FACE_BOUND('',#154,.T.);
#30=FACE_BOUND('',#155,.T.);
#31=FACE_BOUND('',#156,.T.);
#32=FACE_BOUND('',#157,.T.);
#33=FACE_BOUND('',#158,.T.);
#34=FACE_BOUND('',#160,.T.);
#35=FACE_BOUND('',#161,.T.);
#36=FACE_BOUND('',#162,.T.);
#37=FACE_BOUND('',#163,.T.);
#38=FACE_BOUND('',#164,.T.);
#39=FACE_BOUND('',#165,.T.);
#40=FACE_BOUND('',#166,.T.);
#41=FACE_BOUND('',#167,.T.);
#42=PLANE('',#657);
#43=PLANE('',#661);
#44=PLANE('',#665);
#45=PLANE('',#669);
#46=PLANE('',#673);
#47=PLANE('',#677);
#48=PLANE('',#681);
#49=PLANE('',#685);
#50=PLANE('',#689);
#51=PLANE('',#693);
#52=PLANE('',#718);
#53=PLANE('',#719);
#54=PLANE('',#720);
#55=PLANE('',#721);
#56=PLANE('',#722);
#57=PLANE('',#723);
#58=PLANE('',#724);
#59=PLANE('',#725);
#60=PLANE('',#726);
#61=PLANE('',#727);
#62=PLANE('',#728);
#63=FACE_OUTER_BOUND('',#102,.T.);
#64=FACE_OUTER_BOUND('',#103,.T.);
#65=FACE_OUTER_BOUND('',#104,.T.);
#66=FACE_OUTER_BOUND('',#105,.T.);
#67=FACE_OUTER_BOUND('',#106,.T.);
#68=FACE_OUTER_BOUND('',#107,.T.);
#69=FACE_OUTER_BOUND('',#108,.T.);
#70=FACE_OUTER_BOUND('',#109,.T.);
#71=FACE_OUTER_BOUND('',#110,.T.);
#72=FACE_OUTER_BOUND('',#111,.T.);
#73=FACE_OUTER_BOUND('',#112,.T.);
#74=FACE_OUTER_BOUND('',#113,.T.);
#75=FACE_OUTER_BOUND('',#114,.T.);
#76=FACE_OUTER_BOUND('',#115,.T.);
#77=FACE_OUTER_BOUND('',#116,.T.);
#78=FACE_OUTER_BOUND('',#117,.T.);
#79=FACE_OUTER_BOUND('',#118,.T.);
#80=FACE_OUTER_BOUND('',#119,.T.);
#81=FACE_OUTER_BOUND('',#120,.T.);
#82=FACE_OUTER_BOUND('',#121,.T.);
#83=FACE_OUTER_BOUND('',#122,.T.);
#84=FACE_OUTER_BOUND('',#123,.T.);
#85=FACE_OUTER_BOUND('',#124,.T.);
#86=FACE_OUTER_BOUND('',#125,.T.);
#87=FACE_OUTER_BOUND('',#126,.T.);
#88=FACE_OUTER_BOUND('',#127,.T.);
#89=FACE_OUTER_BOUND('',#128,.T.);
#90=FACE_OUTER_BOUND('',#129,.T.);
#91=FACE_OUTER_BOUND('',#130,.T.);
#92=FACE_OUTER_BOUND('',#136,.T.);
#93=FACE_OUTER_BOUND('',#137,.T.);
#94=FACE_OUTER_BOUND('',#143,.T.);
#95=FACE_OUTER_BOUND('',#144,.T.);
#96=FACE_OUTER_BOUND('',#145,.T.);
#97=FACE_OUTER_BOUND('',#146,.T.);
#98=FACE_OUTER_BOUND('',#147,.T.);
#99=FACE_OUTER_BOUND('',#148,.T.);
#100=FACE_OUTER_BOUND('',#149,.T.);
#101=FACE_OUTER_BOUND('',#159,.T.);
#102=EDGE_LOOP('',(#418,#419,#420,#421));
#103=EDGE_LOOP('',(#422));
#104=EDGE_LOOP('',(#423,#424,#425,#426));
#105=EDGE_LOOP('',(#427));
#106=EDGE_LOOP('',(#428,#429,#430,#431));
#107=EDGE_LOOP('',(#432));
#108=EDGE_LOOP('',(#433,#434,#435,#436));
#109=EDGE_LOOP('',(#437));
#110=EDGE_LOOP('',(#438,#439,#440,#441));
#111=EDGE_LOOP('',(#442));
#112=EDGE_LOOP('',(#443,#444,#445,#446));
#113=EDGE_LOOP('',(#447));
#114=EDGE_LOOP('',(#448,#449,#450,#451));
#115=EDGE_LOOP('',(#452));
#116=EDGE_LOOP('',(#453,#454,#455,#456));
#117=EDGE_LOOP('',(#457));
#118=EDGE_LOOP('',(#458,#459,#460,#461));
#119=EDGE_LOOP('',(#462));
#120=EDGE_LOOP('',(#463,#464,#465,#466));
#121=EDGE_LOOP('',(#467));
#122=EDGE_LOOP('',(#468,#469,#470,#471));
#123=EDGE_LOOP('',(#472,#473,#474,#475));
#124=EDGE_LOOP('',(#476,#477,#478,#479));
#125=EDGE_LOOP('',(#480,#481,#482,#483));
#126=EDGE_LOOP('',(#484,#485,#486,#487));
#127=EDGE_LOOP('',(#488,#489,#490,#491));
#128=EDGE_LOOP('',(#492,#493,#494,#495));
#129=EDGE_LOOP('',(#496,#497,#498,#499));
#130=EDGE_LOOP('',(#500,#501,#502,#503));
#131=EDGE_LOOP('',(#504));
#132=EDGE_LOOP('',(#505));
#133=EDGE_LOOP('',(#506));
#134=EDGE_LOOP('',(#507));
#135=EDGE_LOOP('',(#508));
#136=EDGE_LOOP('',(#509,#510,#511,#512));
#137=EDGE_LOOP('',(#513,#514,#515,#516));
#138=EDGE_LOOP('',(#517));
#139=EDGE_LOOP('',(#518));
#140=EDGE_LOOP('',(#519));
#141=EDGE_LOOP('',(#520));
#142=EDGE_LOOP('',(#521));
#143=EDGE_LOOP('',(#522,#523,#524,#525));
#144=EDGE_LOOP('',(#526,#527,#528,#529));
#145=EDGE_LOOP('',(#530,#531,#532,#533));
#146=EDGE_LOOP('',(#534,#535,#536,#537));
#147=EDGE_LOOP('',(#538,#539,#540,#541));
#148=EDGE_LOOP('',(#542,#543,#544,#545));
#149=EDGE_LOOP('',(#546,#547,#548,#549));
#150=EDGE_LOOP('',(#550));
#151=EDGE_LOOP('',(#551));
#152=EDGE_LOOP('',(#552));
#153=EDGE_LOOP('',(#553));
#154=EDGE_LOOP('',(#554));
#155=EDGE_LOOP('',(#555));
#156=EDGE_LOOP('',(#556));
#157=EDGE_LOOP('',(#557));
#158=EDGE_LOOP('',(#558,#559,#560,#561));
#159=EDGE_LOOP('',(#562,#563,#564,#565));
#160=EDGE_LOOP('',(#566));
#161=EDGE_LOOP('',(#567));
#162=EDGE_LOOP('',(#568));
#163=EDGE_LOOP('',(#569));
#164=EDGE_LOOP('',(#570));
#165=EDGE_LOOP('',(#571));
#166=EDGE_LOOP('',(#572));
#167=EDGE_LOOP('',(#573));
#168=LINE('',#928,#210);
#169=LINE('',#935,#211);
#170=LINE('',#942,#212);
#171=LINE('',#949,#213);
#172=LINE('',#956,#214);
#173=LINE('',#963,#215);
#174=LINE('',#970,#216);
#175=LINE('',#977,#217);
#176=LINE('',#984,#218);
#177=LINE('',#991,#219);
#178=LINE('',#998,#220);
#179=LINE('',#1004,#221);
#180=LINE('',#1010,#222);
#181=LINE('',#1016,#223);
#182=LINE('',#1022,#224);
#183=LINE('',#1028,#225);
#184=LINE('',#1034,#226);
#185=LINE('',#1040,#227);
#186=LINE('',#1045,#228);
#187=LINE('',#1047,#229);
#188=LINE('',#1049,#230);
#189=LINE('',#1050,#231);
#190=LINE('',#1053,#232);
#191=LINE('',#1055,#233);
#192=LINE('',#1056,#234);
#193=LINE('',#1059,#235);
#194=LINE('',#1061,#236);
#195=LINE('',#1062,#237);
#196=LINE('',#1064,#238);
#197=LINE('',#1065,#239);
#198=LINE('',#1070,#240);
#199=LINE('',#1072,#241);
#200=LINE('',#1074,#242);
#201=LINE('',#1075,#243);
#202=LINE('',#1078,#244);
#203=LINE('',#1080,#245);
#204=LINE('',#1081,#246);
#205=LINE('',#1084,#247);
#206=LINE('',#1086,#248);
#207=LINE('',#1087,#249);
#208=LINE('',#1089,#250);
#209=LINE('',#1090,#251);
#210=VECTOR('',#735,1.25);
#211=VECTOR('',#744,1.25);
#212=VECTOR('',#753,1.25);
#213=VECTOR('',#762,1.25);
#214=VECTOR('',#771,1.25);
#215=VECTOR('',#780,1.25);
#216=VECTOR('',#789,1.25);
#217=VECTOR('',#798,1.25);
#218=VECTOR('',#807,1.25);
#219=VECTOR('',#816,1.25);
#220=VECTOR('',#825,1.7);
#221=VECTOR('',#832,1.7);
#222=VECTOR('',#839,1.7);
#223=VECTOR('',#846,1.7);
#224=VECTOR('',#853,1.7);
#225=VECTOR('',#860,1.7);
#226=VECTOR('',#867,1.7);
#227=VECTOR('',#874,1.7);
#228=VECTOR('',#879,10.);
#229=VECTOR('',#880,10.);
#230=VECTOR('',#881,10.);
#231=VECTOR('',#882,10.);
#232=VECTOR('',#885,10.);
#233=VECTOR('',#886,10.);
#234=VECTOR('',#887,10.);
#235=VECTOR('',#890,10.);
#236=VECTOR('',#891,10.);
#237=VECTOR('',#892,10.);
#238=VECTOR('',#895,10.);
#239=VECTOR('',#896,10.);
#240=VECTOR('',#901,10.);
#241=VECTOR('',#902,10.);
#242=VECTOR('',#903,10.);
#243=VECTOR('',#904,10.);
#244=VECTOR('',#907,10.);
#245=VECTOR('',#908,10.);
#246=VECTOR('',#909,10.);
#247=VECTOR('',#912,10.);
#248=VECTOR('',#913,10.);
#249=VECTOR('',#914,10.);
#250=VECTOR('',#917,10.);
#251=VECTOR('',#918,10.);
#252=CIRCLE('',#655,1.25);
#253=CIRCLE('',#656,1.25);
#254=CIRCLE('',#659,1.25);
#255=CIRCLE('',#660,1.25);
#256=CIRCLE('',#663,1.25);
#257=CIRCLE('',#664,1.25);
#258=CIRCLE('',#667,1.25);
#259=CIRCLE('',#668,1.25);
#260=CIRCLE('',#671,1.25);
#261=CIRCLE('',#672,1.25);
#262=CIRCLE('',#675,1.25);
#263=CIRCLE('',#676,1.25);
#264=CIRCLE('',#679,1.25);
#265=CIRCLE('',#680,1.25);
#266=CIRCLE('',#683,1.25);
#267=CIRCLE('',#684,1.25);
#268=CIRCLE('',#687,1.25);
#269=CIRCLE('',#688,1.25);
#270=CIRCLE('',#691,1.25);
#271=CIRCLE('',#692,1.25);
#272=CIRCLE('',#695,1.7);
#273=CIRCLE('',#696,1.7);
#274=CIRCLE('',#698,1.7);
#275=CIRCLE('',#699,1.7);
#276=CIRCLE('',#701,1.7);
#277=CIRCLE('',#702,1.7);
#278=CIRCLE('',#704,1.7);
#279=CIRCLE('',#705,1.7);
#280=CIRCLE('',#707,1.7);
#281=CIRCLE('',#708,1.7);
#282=CIRCLE('',#710,1.7);
#283=CIRCLE('',#711,1.7);
#284=CIRCLE('',#713,1.7);
#285=CIRCLE('',#714,1.7);
#286=CIRCLE('',#716,1.7);
#287=CIRCLE('',#717,1.7);
#288=VERTEX_POINT('',#925);
#289=VERTEX_POINT('',#927);
#290=VERTEX_POINT('',#932);
#291=VERTEX_POINT('',#934);
#292=VERTEX_POINT('',#939);
#293=VERTEX_POINT('',#941);
#294=VERTEX_POINT('',#946);
#295=VERTEX_POINT('',#948);
#296=VERTEX_POINT('',#953);
#297=VERTEX_POINT('',#955);
#298=VERTEX_POINT('',#960);
#299=VERTEX_POINT('',#962);
#300=VERTEX_POINT('',#967);
#301=VERTEX_POINT('',#969);
#302=VERTEX_POINT('',#974);
#303=VERTEX_POINT('',#976);
#304=VERTEX_POINT('',#981);
#305=VERTEX_POINT('',#983);
#306=VERTEX_POINT('',#988);
#307=VERTEX_POINT('',#990);
#308=VERTEX_POINT('',#995);
#309=VERTEX_POINT('',#997);
#310=VERTEX_POINT('',#1001);
#311=VERTEX_POINT('',#1003);
#312=VERTEX_POINT('',#1007);
#313=VERTEX_POINT('',#1009);
#314=VERTEX_POINT('',#1013);
#315=VERTEX_POINT('',#1015);
#316=VERTEX_POINT('',#1019);
#317=VERTEX_POINT('',#1021);
#318=VERTEX_POINT('',#1025);
#319=VERTEX_POINT('',#1027);
#320=VERTEX_POINT('',#1031);
#321=VERTEX_POINT('',#1033);
#322=VERTEX_POINT('',#1037);
#323=VERTEX_POINT('',#1039);
#324=VERTEX_POINT('',#1043);
#325=VERTEX_POINT('',#1044);
#326=VERTEX_POINT('',#1046);
#327=VERTEX_POINT('',#1048);
#328=VERTEX_POINT('',#1052);
#329=VERTEX_POINT('',#1054);
#330=VERTEX_POINT('',#1058);
#331=VERTEX_POINT('',#1060);
#332=VERTEX_POINT('',#1068);
#333=VERTEX_POINT('',#1069);
#334=VERTEX_POINT('',#1071);
#335=VERTEX_POINT('',#1073);
#336=VERTEX_POINT('',#1077);
#337=VERTEX_POINT('',#1079);
#338=VERTEX_POINT('',#1083);
#339=VERTEX_POINT('',#1085);
#340=EDGE_CURVE('',#288,#288,#252,.T.);
#341=EDGE_CURVE('',#288,#289,#168,.T.);
#342=EDGE_CURVE('',#289,#289,#253,.T.);
#343=EDGE_CURVE('',#290,#290,#254,.T.);
#344=EDGE_CURVE('',#290,#291,#169,.T.);
#345=EDGE_CURVE('',#291,#291,#255,.T.);
#346=EDGE_CURVE('',#292,#292,#256,.T.);
#347=EDGE_CURVE('',#292,#293,#170,.T.);
#348=EDGE_CURVE('',#293,#293,#257,.T.);
#349=EDGE_CURVE('',#294,#294,#258,.T.);
#350=EDGE_CURVE('',#294,#295,#171,.T.);
#351=EDGE_CURVE('',#295,#295,#259,.T.);
#352=EDGE_CURVE('',#296,#296,#260,.T.);
#353=EDGE_CURVE('',#296,#297,#172,.T.);
#354=EDGE_CURVE('',#297,#297,#261,.T.);
#355=EDGE_CURVE('',#298,#298,#262,.T.);
#356=EDGE_CURVE('',#298,#299,#173,.T.);
#357=EDGE_CURVE('',#299,#299,#263,.T.);
#358=EDGE_CURVE('',#300,#300,#264,.T.);
#359=EDGE_CURVE('',#300,#301,#174,.T.);
#360=EDGE_CURVE('',#301,#301,#265,.T.);
#361=EDGE_CURVE('',#302,#302,#266,.T.);
#362=EDGE_CURVE('',#302,#303,#175,.T.);
#363=EDGE_CURVE('',#303,#303,#267,.T.);
#364=EDGE_CURVE('',#304,#304,#268,.T.);
#365=EDGE_CURVE('',#304,#305,#176,.T.);
#366=EDGE_CURVE('',#305,#305,#269,.T.);
#367=EDGE_CURVE('',#306,#306,#270,.T.);
#368=EDGE_CURVE('',#306,#307,#177,.T.);
#369=EDGE_CURVE('',#307,#307,#271,.T.);
#370=EDGE_CURVE('',#308,#308,#272,.T.);
#371=EDGE_CURVE('',#308,#309,#178,.T.);
#372=EDGE_CURVE('',#309,#309,#273,.T.);
#373=EDGE_CURVE('',#310,#310,#274,.T.);
#374=EDGE_CURVE('',#310,#311,#179,.T.);
#375=EDGE_CURVE('',#311,#311,#275,.T.);
#376=EDGE_CURVE('',#312,#312,#276,.T.);
#377=EDGE_CURVE('',#312,#313,#180,.T.);
#378=EDGE_CURVE('',#313,#313,#277,.T.);
#379=EDGE_CURVE('',#314,#314,#278,.T.);
#380=EDGE_CURVE('',#314,#315,#181,.T.);
#381=EDGE_CURVE('',#315,#315,#279,.T.);
#382=EDGE_CURVE('',#316,#316,#280,.T.);
#383=EDGE_CURVE('',#316,#317,#182,.T.);
#384=EDGE_CURVE('',#317,#317,#281,.T.);
#385=EDGE_CURVE('',#318,#318,#282,.T.);
#386=EDGE_CURVE('',#318,#319,#183,.T.);
#387=EDGE_CURVE('',#319,#319,#283,.T.);
#388=EDGE_CURVE('',#320,#320,#284,.T.);
#389=EDGE_CURVE('',#320,#321,#184,.T.);
#390=EDGE_CURVE('',#321,#321,#285,.T.);
#391=EDGE_CURVE('',#322,#322,#286,.T.);
#392=EDGE_CURVE('',#322,#323,#185,.T.);
#393=EDGE_CURVE('',#323,#323,#287,.T.);
#394=EDGE_CURVE('',#324,#325,#186,.T.);
#395=EDGE_CURVE('',#324,#326,#187,.T.);
#396=EDGE_CURVE('',#327,#326,#188,.T.);
#397=EDGE_CURVE('',#325,#327,#189,.T.);
#398=EDGE_CURVE('',#325,#328,#190,.T.);
#399=EDGE_CURVE('',#329,#327,#191,.T.);
#400=EDGE_CURVE('',#328,#329,#192,.T.);
#401=EDGE_CURVE('',#328,#330,#193,.T.);
#402=EDGE_CURVE('',#331,#329,#194,.T.);
#403=EDGE_CURVE('',#330,#331,#195,.T.);
#404=EDGE_CURVE('',#330,#324,#196,.T.);
#405=EDGE_CURVE('',#326,#331,#197,.T.);
#406=EDGE_CURVE('',#332,#333,#198,.T.);
#407=EDGE_CURVE('',#333,#334,#199,.T.);
#408=EDGE_CURVE('',#335,#334,#200,.T.);
#409=EDGE_CURVE('',#332,#335,#201,.T.);
#410=EDGE_CURVE('',#336,#332,#202,.T.);
#411=EDGE_CURVE('',#337,#335,#203,.T.);
#412=EDGE_CURVE('',#336,#337,#204,.T.);
#413=EDGE_CURVE('',#338,#336,#205,.T.);
#414=EDGE_CURVE('',#339,#337,#206,.T.);
#415=EDGE_CURVE('',#338,#339,#207,.T.);
#416=EDGE_CURVE('',#333,#338,#208,.T.);
#417=EDGE_CURVE('',#334,#339,#209,.T.);
#418=ORIENTED_EDGE('',*,*,#340,.F.);
#419=ORIENTED_EDGE('',*,*,#341,.T.);
#420=ORIENTED_EDGE('',*,*,#342,.T.);
#421=ORIENTED_EDGE('',*,*,#341,.F.);
#422=ORIENTED_EDGE('',*,*,#342,.F.);
#423=ORIENTED_EDGE('',*,*,#343,.F.);
#424=ORIENTED_EDGE('',*,*,#344,.T.);
#425=ORIENTED_EDGE('',*,*,#345,.T.);
#426=ORIENTED_EDGE('',*,*,#344,.F.);
#427=ORIENTED_EDGE('',*,*,#345,.F.);
#428=ORIENTED_EDGE('',*,*,#346,.F.);
#429=ORIENTED_EDGE('',*,*,#347,.T.);
#430=ORIENTED_EDGE('',*,*,#348,.T.);
#431=ORIENTED_EDGE('',*,*,#347,.F.);
#432=ORIENTED_EDGE('',*,*,#348,.F.);
#433=ORIENTED_EDGE('',*,*,#349,.F.);
#434=ORIENTED_EDGE('',*,*,#350,.T.);
#435=ORIENTED_EDGE('',*,*,#351,.T.);
#436=ORIENTED_EDGE('',*,*,#350,.F.);
#437=ORIENTED_EDGE('',*,*,#351,.F.);
#438=ORIENTED_EDGE('',*,*,#352,.F.);
#439=ORIENTED_EDGE('',*,*,#353,.T.);
#440=ORIENTED_EDGE('',*,*,#354,.T.);
#441=ORIENTED_EDGE('',*,*,#353,.F.);
#442=ORIENTED_EDGE('',*,*,#354,.F.);
#443=ORIENTED_EDGE('',*,*,#355,.F.);
#444=ORIENTED_EDGE('',*,*,#356,.T.);
#445=ORIENTED_EDGE('',*,*,#357,.T.);
#446=ORIENTED_EDGE('',*,*,#356,.F.);
#447=ORIENTED_EDGE('',*,*,#357,.F.);
#448=ORIENTED_EDGE('',*,*,#358,.F.);
#449=ORIENTED_EDGE('',*,*,#359,.T.);
#450=ORIENTED_EDGE('',*,*,#360,.T.);
#451=ORIENTED_EDGE('',*,*,#359,.F.);
#452=ORIENTED_EDGE('',*,*,#360,.F.);
#453=ORIENTED_EDGE('',*,*,#361,.F.);
#454=ORIENTED_EDGE('',*,*,#362,.T.);
#455=ORIENTED_EDGE('',*,*,#363,.T.);
#456=ORIENTED_EDGE('',*,*,#362,.F.);
#457=ORIENTED_EDGE('',*,*,#363,.F.);
#458=ORIENTED_EDGE('',*,*,#364,.F.);
#459=ORIENTED_EDGE('',*,*,#365,.T.);
#460=ORIENTED_EDGE('',*,*,#366,.T.);
#461=ORIENTED_EDGE('',*,*,#365,.F.);
#462=ORIENTED_EDGE('',*,*,#366,.F.);
#463=ORIENTED_EDGE('',*,*,#367,.F.);
#464=ORIENTED_EDGE('',*,*,#368,.T.);
#465=ORIENTED_EDGE('',*,*,#369,.T.);
#466=ORIENTED_EDGE('',*,*,#368,.F.);
#467=ORIENTED_EDGE('',*,*,#369,.F.);
#468=ORIENTED_EDGE('',*,*,#370,.F.);
#469=ORIENTED_EDGE('',*,*,#371,.T.);
#470=ORIENTED_EDGE('',*,*,#372,.F.);
#471=ORIENTED_EDGE('',*,*,#371,.F.);
#472=ORIENTED_EDGE('',*,*,#373,.F.);
#473=ORIENTED_EDGE('',*,*,#374,.T.);
#474=ORIENTED_EDGE('',*,*,#375,.F.);
#475=ORIENTED_EDGE('',*,*,#374,.F.);
#476=ORIENTED_EDGE('',*,*,#376,.F.);
#477=ORIENTED_EDGE('',*,*,#377,.T.);
#478=ORIENTED_EDGE('',*,*,#378,.F.);
#479=ORIENTED_EDGE('',*,*,#377,.F.);
#480=ORIENTED_EDGE('',*,*,#379,.F.);
#481=ORIENTED_EDGE('',*,*,#380,.T.);
#482=ORIENTED_EDGE('',*,*,#381,.F.);
#483=ORIENTED_EDGE('',*,*,#380,.F.);
#484=ORIENTED_EDGE('',*,*,#382,.F.);
#485=ORIENTED_EDGE('',*,*,#383,.T.);
#486=ORIENTED_EDGE('',*,*,#384,.F.);
#487=ORIENTED_EDGE('',*,*,#383,.F.);
#488=ORIENTED_EDGE('',*,*,#385,.F.);
#489=ORIENTED_EDGE('',*,*,#386,.T.);
#490=ORIENTED_EDGE('',*,*,#387,.F.);
#491=ORIENTED_EDGE('',*,*,#386,.F.);
#492=ORIENTED_EDGE('',*,*,#388,.F.);
#493=ORIENTED_EDGE('',*,*,#389,.T.);
#494=ORIENTED_EDGE('',*,*,#390,.F.);
#495=ORIENTED_EDGE('',*,*,#389,.F.);
#496=ORIENTED_EDGE('',*,*,#391,.F.);
#497=ORIENTED_EDGE('',*,*,#392,.T.);
#498=ORIENTED_EDGE('',*,*,#393,.F.);
#499=ORIENTED_EDGE('',*,*,#392,.F.);
#500=ORIENTED_EDGE('',*,*,#394,.F.);
#501=ORIENTED_EDGE('',*,*,#395,.T.);
#502=ORIENTED_EDGE('',*,*,#396,.F.);
#503=ORIENTED_EDGE('',*,*,#397,.F.);
#504=ORIENTED_EDGE('',*,*,#340,.T.);
#505=ORIENTED_EDGE('',*,*,#343,.T.);
#506=ORIENTED_EDGE('',*,*,#346,.T.);
#507=ORIENTED_EDGE('',*,*,#349,.T.);
#508=ORIENTED_EDGE('',*,*,#352,.T.);
#509=ORIENTED_EDGE('',*,*,#398,.F.);
#510=ORIENTED_EDGE('',*,*,#397,.T.);
#511=ORIENTED_EDGE('',*,*,#399,.F.);
#512=ORIENTED_EDGE('',*,*,#400,.F.);
#513=ORIENTED_EDGE('',*,*,#401,.F.);
#514=ORIENTED_EDGE('',*,*,#400,.T.);
#515=ORIENTED_EDGE('',*,*,#402,.F.);
#516=ORIENTED_EDGE('',*,*,#403,.F.);
#517=ORIENTED_EDGE('',*,*,#355,.T.);
#518=ORIENTED_EDGE('',*,*,#358,.T.);
#519=ORIENTED_EDGE('',*,*,#361,.T.);
#520=ORIENTED_EDGE('',*,*,#364,.T.);
#521=ORIENTED_EDGE('',*,*,#367,.T.);
#522=ORIENTED_EDGE('',*,*,#404,.F.);
#523=ORIENTED_EDGE('',*,*,#403,.T.);
#524=ORIENTED_EDGE('',*,*,#405,.F.);
#525=ORIENTED_EDGE('',*,*,#395,.F.);
#526=ORIENTED_EDGE('',*,*,#405,.T.);
#527=ORIENTED_EDGE('',*,*,#402,.T.);
#528=ORIENTED_EDGE('',*,*,#399,.T.);
#529=ORIENTED_EDGE('',*,*,#396,.T.);
#530=ORIENTED_EDGE('',*,*,#406,.T.);
#531=ORIENTED_EDGE('',*,*,#407,.T.);
#532=ORIENTED_EDGE('',*,*,#408,.F.);
#533=ORIENTED_EDGE('',*,*,#409,.F.);
#534=ORIENTED_EDGE('',*,*,#410,.T.);
#535=ORIENTED_EDGE('',*,*,#409,.T.);
#536=ORIENTED_EDGE('',*,*,#411,.F.);
#537=ORIENTED_EDGE('',*,*,#412,.F.);
#538=ORIENTED_EDGE('',*,*,#413,.T.);
#539=ORIENTED_EDGE('',*,*,#412,.T.);
#540=ORIENTED_EDGE('',*,*,#414,.F.);
#541=ORIENTED_EDGE('',*,*,#415,.F.);
#542=ORIENTED_EDGE('',*,*,#416,.T.);
#543=ORIENTED_EDGE('',*,*,#415,.T.);
#544=ORIENTED_EDGE('',*,*,#417,.F.);
#545=ORIENTED_EDGE('',*,*,#407,.F.);
#546=ORIENTED_EDGE('',*,*,#417,.T.);
#547=ORIENTED_EDGE('',*,*,#414,.T.);
#548=ORIENTED_EDGE('',*,*,#411,.T.);
#549=ORIENTED_EDGE('',*,*,#408,.T.);
#550=ORIENTED_EDGE('',*,*,#372,.T.);
#551=ORIENTED_EDGE('',*,*,#375,.T.);
#552=ORIENTED_EDGE('',*,*,#378,.T.);
#553=ORIENTED_EDGE('',*,*,#381,.T.);
#554=ORIENTED_EDGE('',*,*,#384,.T.);
#555=ORIENTED_EDGE('',*,*,#387,.T.);
#556=ORIENTED_EDGE('',*,*,#390,.T.);
#557=ORIENTED_EDGE('',*,*,#393,.T.);
#558=ORIENTED_EDGE('',*,*,#394,.T.);
#559=ORIENTED_EDGE('',*,*,#398,.T.);
#560=ORIENTED_EDGE('',*,*,#401,.T.);
#561=ORIENTED_EDGE('',*,*,#404,.T.);
#562=ORIENTED_EDGE('',*,*,#416,.F.);
#563=ORIENTED_EDGE('',*,*,#406,.F.);
#564=ORIENTED_EDGE('',*,*,#410,.F.);
#565=ORIENTED_EDGE('',*,*,#413,.F.);
#566=ORIENTED_EDGE('',*,*,#370,.T.);
#567=ORIENTED_EDGE('',*,*,#373,.T.);
#568=ORIENTED_EDGE('',*,*,#376,.T.);
#569=ORIENTED_EDGE('',*,*,#379,.T.);
#570=ORIENTED_EDGE('',*,*,#382,.T.);
#571=ORIENTED_EDGE('',*,*,#385,.T.);
#572=ORIENTED_EDGE('',*,*,#388,.T.);
#573=ORIENTED_EDGE('',*,*,#391,.T.);
#574=CYLINDRICAL_SURFACE('',#654,1.25);
#575=CYLINDRICAL_SURFACE('',#658,1.25);
#576=CYLINDRICAL_SURFACE('',#662,1.25);
#577=CYLINDRICAL_SURFACE('',#666,1.25);
#578=CYLINDRICAL_SURFACE('',#670,1.25);
#579=CYLINDRICAL_SURFACE('',#674,1.25);
#580=CYLINDRICAL_SURFACE('',#678,1.25);
#581=CYLINDRICAL_SURFACE('',#682,1.25);
#582=CYLINDRICAL_SURFACE('',#686,1.25);
#583=CYLINDRICAL_SURFACE('',#690,1.25);
#584=CYLINDRICAL_SURFACE('',#694,1.7);
#585=CYLINDRICAL_SURFACE('',#697,1.7);
#586=CYLINDRICAL_SURFACE('',#700,1.7);
#587=CYLINDRICAL_SURFACE('',#703,1.7);
#588=CYLINDRICAL_SURFACE('',#706,1.7);
#589=CYLINDRICAL_SURFACE('',#709,1.7);
#590=CYLINDRICAL_SURFACE('',#712,1.7);
#591=CYLINDRICAL_SURFACE('',#715,1.7);
#592=ADVANCED_FACE('',(#63),#574,.F.);
#593=ADVANCED_FACE('',(#64),#42,.F.);
#594=ADVANCED_FACE('',(#65),#575,.F.);
#595=ADVANCED_FACE('',(#66),#43,.F.);
#596=ADVANCED_FACE('',(#67),#576,.F.);
#597=ADVANCED_FACE('',(#68),#44,.F.);
#598=ADVANCED_FACE('',(#69),#577,.F.);
#599=ADVANCED_FACE('',(#70),#45,.F.);
#600=ADVANCED_FACE('',(#71),#578,.F.);
#601=ADVANCED_FACE('',(#72),#46,.F.);
#602=ADVANCED_FACE('',(#73),#579,.F.);
#603=ADVANCED_FACE('',(#74),#47,.T.);
#604=ADVANCED_FACE('',(#75),#580,.F.);
#605=ADVANCED_FACE('',(#76),#48,.T.);
#606=ADVANCED_FACE('',(#77),#581,.F.);
#607=ADVANCED_FACE('',(#78),#49,.T.);
#608=ADVANCED_FACE('',(#79),#582,.F.);
#609=ADVANCED_FACE('',(#80),#50,.T.);
#610=ADVANCED_FACE('',(#81),#583,.F.);
#611=ADVANCED_FACE('',(#82),#51,.T.);
#612=ADVANCED_FACE('',(#83),#584,.F.);
#613=ADVANCED_FACE('',(#84),#585,.F.);
#614=ADVANCED_FACE('',(#85),#586,.F.);
#615=ADVANCED_FACE('',(#86),#587,.F.);
#616=ADVANCED_FACE('',(#87),#588,.F.);
#617=ADVANCED_FACE('',(#88),#589,.F.);
#618=ADVANCED_FACE('',(#89),#590,.F.);
#619=ADVANCED_FACE('',(#90),#591,.F.);
#620=ADVANCED_FACE('',(#91,#15,#16,#17,#18,#19),#52,.T.);
#621=ADVANCED_FACE('',(#92),#53,.T.);
#622=ADVANCED_FACE('',(#93,#20,#21,#22,#23,#24),#54,.T.);
#623=ADVANCED_FACE('',(#94),#55,.T.);
#624=ADVANCED_FACE('',(#95),#56,.T.);
#625=ADVANCED_FACE('',(#96),#57,.T.);
#626=ADVANCED_FACE('',(#97),#58,.T.);
#627=ADVANCED_FACE('',(#98),#59,.T.);
#628=ADVANCED_FACE('',(#99),#60,.T.);
#629=ADVANCED_FACE('',(#100,#25,#26,#27,#28,#29,#30,#31,#32,#33),#61,.T.);
#630=ADVANCED_FACE('',(#101,#34,#35,#36,#37,#38,#39,#40,#41),#62,.F.);
#631=CLOSED_SHELL('',(#592,#593,#594,#595,#596,#597,#598,#599,#600,#601,
#602,#603,#604,#605,#606,#607,#608,#609,#610,#611,#612,#613,#614,#615,#616,
#617,#618,#619,#620,#621,#622,#623,#624,#625,#626,#627,#628,#629,#630));
#632=DERIVED_UNIT_ELEMENT(#635,1.);
#633=DERIVED_UNIT_ELEMENT(#1098,-3.);
#634=DIMENSIONAL_EXPONENTS(0.,1.,0.,0.,0.,0.,0.);
#635=(
CONVERSION_BASED_UNIT('gram',#637)
MASS_UNIT()
NAMED_UNIT(#634)
);
#636=(
MASS_UNIT()
NAMED_UNIT(*)
SI_UNIT(.KILO.,.GRAM.)
);
#637=MASS_MEASURE_WITH_UNIT(MASS_MEASURE(0.001),#636);
#638=DERIVED_UNIT((#632,#633));
#639=MEASURE_REPRESENTATION_ITEM('density measure',
POSITIVE_RATIO_MEASURE(1.),#638);
#640=PROPERTY_DEFINITION_REPRESENTATION(#645,#642);
#641=PROPERTY_DEFINITION_REPRESENTATION(#646,#643);
#642=REPRESENTATION('material name',(#644),#1095);
#643=REPRESENTATION('density',(#639),#1095);
#644=DESCRIPTIVE_REPRESENTATION_ITEM('Generic','Generic');
#645=PROPERTY_DEFINITION('material property','material name',#1105);
#646=PROPERTY_DEFINITION('material property','density of part',#1105);
#647=DATE_TIME_ROLE('creation_date');
#648=APPLIED_DATE_AND_TIME_ASSIGNMENT(#649,#647,(#1105));
#649=DATE_AND_TIME(#650,#651);
#650=CALENDAR_DATE(2026,21,9);
#651=LOCAL_TIME(0,0,0.,#652);
#652=COORDINATED_UNIVERSAL_TIME_OFFSET(0,0,.BEHIND.);
#653=AXIS2_PLACEMENT_3D('',#923,#729,#730);
#654=AXIS2_PLACEMENT_3D('',#924,#731,#732);
#655=AXIS2_PLACEMENT_3D('',#926,#733,#734);
#656=AXIS2_PLACEMENT_3D('',#929,#736,#737);
#657=AXIS2_PLACEMENT_3D('',#930,#738,#739);
#658=AXIS2_PLACEMENT_3D('',#931,#740,#741);
#659=AXIS2_PLACEMENT_3D('',#933,#742,#743);
#660=AXIS2_PLACEMENT_3D('',#936,#745,#746);
#661=AXIS2_PLACEMENT_3D('',#937,#747,#748);
#662=AXIS2_PLACEMENT_3D('',#938,#749,#750);
#663=AXIS2_PLACEMENT_3D('',#940,#751,#752);
#664=AXIS2_PLACEMENT_3D('',#943,#754,#755);
#665=AXIS2_PLACEMENT_3D('',#944,#756,#757);
#666=AXIS2_PLACEMENT_3D('',#945,#758,#759);
#667=AXIS2_PLACEMENT_3D('',#947,#760,#761);
#668=AXIS2_PLACEMENT_3D('',#950,#763,#764);
#669=AXIS2_PLACEMENT_3D('',#951,#765,#766);
#670=AXIS2_PLACEMENT_3D('',#952,#767,#768);
#671=AXIS2_PLACEMENT_3D('',#954,#769,#770);
#672=AXIS2_PLACEMENT_3D('',#957,#772,#773);
#673=AXIS2_PLACEMENT_3D('',#958,#774,#775);
#674=AXIS2_PLACEMENT_3D('',#959,#776,#777);
#675=AXIS2_PLACEMENT_3D('',#961,#778,#779);
#676=AXIS2_PLACEMENT_3D('',#964,#781,#782);
#677=AXIS2_PLACEMENT_3D('',#965,#783,#784);
#678=AXIS2_PLACEMENT_3D('',#966,#785,#786);
#679=AXIS2_PLACEMENT_3D('',#968,#787,#788);
#680=AXIS2_PLACEMENT_3D('',#971,#790,#791);
#681=AXIS2_PLACEMENT_3D('',#972,#792,#793);
#682=AXIS2_PLACEMENT_3D('',#973,#794,#795);
#683=AXIS2_PLACEMENT_3D('',#975,#796,#797);
#684=AXIS2_PLACEMENT_3D('',#978,#799,#800);
#685=AXIS2_PLACEMENT_3D('',#979,#801,#802);
#686=AXIS2_PLACEMENT_3D('',#980,#803,#804);
#687=AXIS2_PLACEMENT_3D('',#982,#805,#806);
#688=AXIS2_PLACEMENT_3D('',#985,#808,#809);
#689=AXIS2_PLACEMENT_3D('',#986,#810,#811);
#690=AXIS2_PLACEMENT_3D('',#987,#812,#813);
#691=AXIS2_PLACEMENT_3D('',#989,#814,#815);
#692=AXIS2_PLACEMENT_3D('',#992,#817,#818);
#693=AXIS2_PLACEMENT_3D('',#993,#819,#820);
#694=AXIS2_PLACEMENT_3D('',#994,#821,#822);
#695=AXIS2_PLACEMENT_3D('',#996,#823,#824);
#696=AXIS2_PLACEMENT_3D('',#999,#826,#827);
#697=AXIS2_PLACEMENT_3D('',#1000,#828,#829);
#698=AXIS2_PLACEMENT_3D('',#1002,#830,#831);
#699=AXIS2_PLACEMENT_3D('',#1005,#833,#834);
#700=AXIS2_PLACEMENT_3D('',#1006,#835,#836);
#701=AXIS2_PLACEMENT_3D('',#1008,#837,#838);
#702=AXIS2_PLACEMENT_3D('',#1011,#840,#841);
#703=AXIS2_PLACEMENT_3D('',#1012,#842,#843);
#704=AXIS2_PLACEMENT_3D('',#1014,#844,#845);
#705=AXIS2_PLACEMENT_3D('',#1017,#847,#848);
#706=AXIS2_PLACEMENT_3D('',#1018,#849,#850);
#707=AXIS2_PLACEMENT_3D('',#1020,#851,#852);
#708=AXIS2_PLACEMENT_3D('',#1023,#854,#855);
#709=AXIS2_PLACEMENT_3D('',#1024,#856,#857);
#710=AXIS2_PLACEMENT_3D('',#1026,#858,#859);
#711=AXIS2_PLACEMENT_3D('',#1029,#861,#862);
#712=AXIS2_PLACEMENT_3D('',#1030,#863,#864);
#713=AXIS2_PLACEMENT_3D('',#1032,#865,#866);
#714=AXIS2_PLACEMENT_3D('',#1035,#868,#869);
#715=AXIS2_PLACEMENT_3D('',#1036,#870,#871);
#716=AXIS2_PLACEMENT_3D('',#1038,#872,#873);
#717=AXIS2_PLACEMENT_3D('',#1041,#875,#876);
#718=AXIS2_PLACEMENT_3D('',#1042,#877,#878);
#719=AXIS2_PLACEMENT_3D('',#1051,#883,#884);
#720=AXIS2_PLACEMENT_3D('',#1057,#888,#889);
#721=AXIS2_PLACEMENT_3D('',#1063,#893,#894);
#722=AXIS2_PLACEMENT_3D('',#1066,#897,#898);
#723=AXIS2_PLACEMENT_3D('',#1067,#899,#900);
#724=AXIS2_PLACEMENT_3D('',#1076,#905,#906);
#725=AXIS2_PLACEMENT_3D('',#1082,#910,#911);
#726=AXIS2_PLACEMENT_3D('',#1088,#915,#916);
#727=AXIS2_PLACEMENT_3D('',#1091,#919,#920);
#728=AXIS2_PLACEMENT_3D('',#1092,#921,#922);
#729=DIRECTION('axis',(0.,0.,1.));
#730=DIRECTION('refdir',(1.,0.,0.));
#731=DIRECTION('center_axis',(1.,0.,0.));
#732=DIRECTION('ref_axis',(0.,-1.,0.));
#733=DIRECTION('center_axis',(1.,3.39234813079909E-16,0.));
#734=DIRECTION('ref_axis',(0.,-1.,0.));
#735=DIRECTION('',(1.,0.,0.));
#736=DIRECTION('center_axis',(1.,0.,0.));
#737=DIRECTION('ref_axis',(0.,-1.,0.));
#738=DIRECTION('center_axis',(1.,0.,0.));
#739=DIRECTION('ref_axis',(0.,0.,-1.));
#740=DIRECTION('center_axis',(1.,0.,0.));
#741=DIRECTION('ref_axis',(0.,-1.,0.));
#742=DIRECTION('center_axis',(1.,3.39234813079909E-16,0.));
#743=DIRECTION('ref_axis',(0.,-1.,0.));
#744=DIRECTION('',(1.,0.,0.));
#745=DIRECTION('center_axis',(1.,0.,0.));
#746=DIRECTION('ref_axis',(0.,-1.,0.));
#747=DIRECTION('center_axis',(1.,0.,0.));
#748=DIRECTION('ref_axis',(0.,0.,-1.));
#749=DIRECTION('center_axis',(1.,0.,0.));
#750=DIRECTION('ref_axis',(0.,-1.,0.));
#751=DIRECTION('center_axis',(1.,3.39234813079909E-16,0.));
#752=DIRECTION('ref_axis',(0.,-1.,0.));
#753=DIRECTION('',(1.,0.,0.));
#754=DIRECTION('center_axis',(1.,0.,0.));
#755=DIRECTION('ref_axis',(0.,-1.,0.));
#756=DIRECTION('center_axis',(1.,0.,0.));
#757=DIRECTION('ref_axis',(0.,0.,-1.));
#758=DIRECTION('center_axis',(1.,0.,0.));
#759=DIRECTION('ref_axis',(0.,-1.,0.));
#760=DIRECTION('center_axis',(1.,3.39234813079909E-16,0.));
#761=DIRECTION('ref_axis',(0.,-1.,0.));
#762=DIRECTION('',(1.,0.,0.));
#763=DIRECTION('center_axis',(1.,0.,0.));
#764=DIRECTION('ref_axis',(0.,-1.,0.));
#765=DIRECTION('center_axis',(1.,0.,0.));
#766=DIRECTION('ref_axis',(0.,0.,-1.));
#767=DIRECTION('center_axis',(1.,0.,0.));
#768=DIRECTION('ref_axis',(0.,-1.,0.));
#769=DIRECTION('center_axis',(1.,3.39234813079909E-16,0.));
#770=DIRECTION('ref_axis',(0.,-1.,0.));
#771=DIRECTION('',(1.,0.,0.));
#772=DIRECTION('center_axis',(1.,0.,0.));
#773=DIRECTION('ref_axis',(0.,-1.,0.));
#774=DIRECTION('center_axis',(1.,0.,0.));
#775=DIRECTION('ref_axis',(0.,0.,-1.));
#776=DIRECTION('center_axis',(-1.,0.,0.));
#777=DIRECTION('ref_axis',(0.,-1.,0.));
#778=DIRECTION('center_axis',(-1.,-1.2335811384724E-16,0.));
#779=DIRECTION('ref_axis',(0.,-1.,0.));
#780=DIRECTION('',(-1.,0.,0.));
#781=DIRECTION('center_axis',(-1.,0.,0.));
#782=DIRECTION('ref_axis',(0.,-1.,0.));
#783=DIRECTION('center_axis',(1.,0.,0.));
#784=DIRECTION('ref_axis',(0.,0.,-1.));
#785=DIRECTION('center_axis',(-1.,0.,0.));
#786=DIRECTION('ref_axis',(0.,-1.,0.));
#787=DIRECTION('center_axis',(-1.,-1.2335811384724E-16,0.));
#788=DIRECTION('ref_axis',(0.,-1.,0.));
#789=DIRECTION('',(-1.,0.,0.));
#790=DIRECTION('center_axis',(-1.,0.,0.));
#791=DIRECTION('ref_axis',(0.,-1.,0.));
#792=DIRECTION('center_axis',(1.,0.,0.));
#793=DIRECTION('ref_axis',(0.,0.,-1.));
#794=DIRECTION('center_axis',(-1.,0.,0.));
#795=DIRECTION('ref_axis',(0.,-1.,0.));
#796=DIRECTION('center_axis',(-1.,-1.2335811384724E-16,0.));
#797=DIRECTION('ref_axis',(0.,-1.,0.));
#798=DIRECTION('',(-1.,0.,0.));
#799=DIRECTION('center_axis',(-1.,0.,0.));
#800=DIRECTION('ref_axis',(0.,-1.,0.));
#801=DIRECTION('center_axis',(1.,0.,0.));
#802=DIRECTION('ref_axis',(0.,0.,-1.));
#803=DIRECTION('center_axis',(-1.,0.,0.));
#804=DIRECTION('ref_axis',(0.,-1.,0.));
#805=DIRECTION('center_axis',(-1.,-1.2335811384724E-16,0.));
#806=DIRECTION('ref_axis',(0.,-1.,0.));
#807=DIRECTION('',(-1.,0.,0.));
#808=DIRECTION('center_axis',(-1.,0.,0.));
#809=DIRECTION('ref_axis',(0.,-1.,0.));
#810=DIRECTION('center_axis',(1.,0.,0.));
#811=DIRECTION('ref_axis',(0.,0.,-1.));
#812=DIRECTION('center_axis',(-1.,0.,0.));
#813=DIRECTION('ref_axis',(0.,-1.,0.));
#814=DIRECTION('center_axis',(-1.,-1.2335811384724E-16,0.));
#815=DIRECTION('ref_axis',(0.,-1.,0.));
#816=DIRECTION('',(-1.,0.,0.));
#817=DIRECTION('center_axis',(-1.,0.,0.));
#818=DIRECTION('ref_axis',(0.,-1.,0.));
#819=DIRECTION('center_axis',(1.,0.,0.));
#820=DIRECTION('ref_axis',(0.,0.,-1.));
#821=DIRECTION('center_axis',(0.,0.,1.));
#822=DIRECTION('ref_axis',(-1.,0.,0.));
#823=DIRECTION('center_axis',(0.,0.,1.));
#824=DIRECTION('ref_axis',(-1.,0.,0.));
#825=DIRECTION('',(0.,0.,1.));
#826=DIRECTION('center_axis',(0.,0.,-1.));
#827=DIRECTION('ref_axis',(-1.,0.,0.));
#828=DIRECTION('center_axis',(0.,0.,1.));
#829=DIRECTION('ref_axis',(-1.,0.,0.));
#830=DIRECTION('center_axis',(0.,0.,1.));
#831=DIRECTION('ref_axis',(-1.,0.,0.));
#832=DIRECTION('',(0.,0.,1.));
#833=DIRECTION('center_axis',(0.,0.,-1.));
#834=DIRECTION('ref_axis',(-1.,0.,0.));
#835=DIRECTION('center_axis',(0.,0.,1.));
#836=DIRECTION('ref_axis',(-1.,0.,0.));
#837=DIRECTION('center_axis',(0.,0.,1.));
#838=DIRECTION('ref_axis',(-1.,0.,0.));
#839=DIRECTION('',(0.,0.,1.));
#840=DIRECTION('center_axis',(0.,0.,-1.));
#841=DIRECTION('ref_axis',(-1.,0.,0.));
#842=DIRECTION('center_axis',(0.,0.,1.));
#843=DIRECTION('ref_axis',(-1.,0.,0.));
#844=DIRECTION('center_axis',(0.,0.,1.));
#845=DIRECTION('ref_axis',(-1.,0.,0.));
#846=DIRECTION('',(0.,0.,1.));
#847=DIRECTION('center_axis',(0.,0.,-1.));
#848=DIRECTION('ref_axis',(-1.,0.,0.));
#849=DIRECTION('center_axis',(0.,0.,1.));
#850=DIRECTION('ref_axis',(-1.,0.,0.));
#851=DIRECTION('center_axis',(0.,0.,1.));
#852=DIRECTION('ref_axis',(-1.,0.,0.));
#853=DIRECTION('',(0.,0.,1.));
#854=DIRECTION('center_axis',(0.,0.,-1.));
#855=DIRECTION('ref_axis',(-1.,0.,0.));
#856=DIRECTION('center_axis',(0.,0.,1.));
#857=DIRECTION('ref_axis',(-1.,0.,0.));
#858=DIRECTION('center_axis',(0.,0.,1.));
#859=DIRECTION('ref_axis',(-1.,0.,0.));
#860=DIRECTION('',(0.,0.,1.));
#861=DIRECTION('center_axis',(0.,0.,-1.));
#862=DIRECTION('ref_axis',(-1.,0.,0.));
#863=DIRECTION('center_axis',(0.,0.,1.));
#864=DIRECTION('ref_axis',(-1.,0.,0.));
#865=DIRECTION('center_axis',(0.,0.,1.));
#866=DIRECTION('ref_axis',(-1.,0.,0.));
#867=DIRECTION('',(0.,0.,1.));
#868=DIRECTION('center_axis',(0.,0.,-1.));
#869=DIRECTION('ref_axis',(-1.,0.,0.));
#870=DIRECTION('center_axis',(0.,0.,1.));
#871=DIRECTION('ref_axis',(-1.,0.,0.));
#872=DIRECTION('center_axis',(0.,0.,1.));
#873=DIRECTION('ref_axis',(-1.,0.,0.));
#874=DIRECTION('',(0.,0.,1.));
#875=DIRECTION('center_axis',(0.,0.,-1.));
#876=DIRECTION('ref_axis',(-1.,0.,0.));
#877=DIRECTION('center_axis',(-1.,-3.39234813079909E-16,0.));
#878=DIRECTION('ref_axis',(3.39234813079909E-16,-1.,0.));
#879=DIRECTION('',(-3.39234813079909E-16,1.,0.));
#880=DIRECTION('',(0.,0.,1.));
#881=DIRECTION('',(3.39234813079909E-16,-1.,0.));
#882=DIRECTION('',(0.,0.,1.));
#883=DIRECTION('center_axis',(0.,1.,0.));
#884=DIRECTION('ref_axis',(-1.,0.,0.));
#885=DIRECTION('',(1.,0.,0.));
#886=DIRECTION('',(-1.,0.,0.));
#887=DIRECTION('',(0.,0.,1.));
#888=DIRECTION('center_axis',(1.,1.2335811384724E-16,0.));
#889=DIRECTION('ref_axis',(-1.2335811384724E-16,1.,0.));
#890=DIRECTION('',(1.2335811384724E-16,-1.,0.));
#891=DIRECTION('',(-1.2335811384724E-16,1.,0.));
#892=DIRECTION('',(0.,0.,1.));
#893=DIRECTION('center_axis',(0.,-1.,0.));
#894=DIRECTION('ref_axis',(1.,0.,0.));
#895=DIRECTION('',(-1.,0.,0.));
#896=DIRECTION('',(1.,0.,0.));
#897=DIRECTION('center_axis',(0.,0.,1.));
#898=DIRECTION('ref_axis',(1.,0.,0.));
#899=DIRECTION('center_axis',(-1.,0.,0.));
#900=DIRECTION('ref_axis',(0.,-1.,0.));
#901=DIRECTION('',(0.,-1.,0.));
#902=DIRECTION('',(0.,0.,1.));
#903=DIRECTION('',(0.,-1.,0.));
#904=DIRECTION('',(0.,0.,1.));
#905=DIRECTION('center_axis',(0.,1.,0.));
#906=DIRECTION('ref_axis',(-1.,0.,0.));
#907=DIRECTION('',(-1.,0.,0.));
#908=DIRECTION('',(-1.,0.,0.));
#909=DIRECTION('',(0.,0.,1.));
#910=DIRECTION('center_axis',(1.,0.,0.));
#911=DIRECTION('ref_axis',(0.,1.,0.));
#912=DIRECTION('',(0.,1.,0.));
#913=DIRECTION('',(0.,1.,0.));
#914=DIRECTION('',(0.,0.,1.));
#915=DIRECTION('center_axis',(0.,-1.,0.));
#916=DIRECTION('ref_axis',(1.,0.,0.));
#917=DIRECTION('',(1.,0.,0.));
#918=DIRECTION('',(1.,0.,0.));
#919=DIRECTION('center_axis',(0.,0.,1.));
#920=DIRECTION('ref_axis',(1.,0.,0.));
#921=DIRECTION('center_axis',(0.,0.,1.));
#922=DIRECTION('ref_axis',(1.,0.,0.));
#923=CARTESIAN_POINT('',(0.,0.,0.));
#924=CARTESIAN_POINT('Origin',(19.794248369169,57.8280236651584,7.));
#925=CARTESIAN_POINT('',(19.794248369169,59.0780236651584,7.));
#926=CARTESIAN_POINT('Origin',(19.794248369169,57.8280236651584,7.));
#927=CARTESIAN_POINT('',(25.794248369169,59.0780236651584,7.));
#928=CARTESIAN_POINT('',(19.794248369169,59.0780236651584,7.));
#929=CARTESIAN_POINT('Origin',(25.794248369169,57.8280236651584,7.));
#930=CARTESIAN_POINT('Origin',(25.794248369169,57.8280236651584,7.));
#931=CARTESIAN_POINT('Origin',(19.794248369169,25.8280236651584,7.));
#932=CARTESIAN_POINT('',(19.794248369169,27.0780236651584,7.));
#933=CARTESIAN_POINT('Origin',(19.794248369169,25.8280236651584,7.));
#934=CARTESIAN_POINT('',(25.794248369169,27.0780236651584,7.));
#935=CARTESIAN_POINT('',(19.794248369169,27.0780236651584,7.));
#936=CARTESIAN_POINT('Origin',(25.794248369169,25.8280236651584,7.));
#937=CARTESIAN_POINT('Origin',(25.794248369169,25.8280236651584,7.));
#938=CARTESIAN_POINT('Origin',(19.794248369169,9.82802366515844,7.));
#939=CARTESIAN_POINT('',(19.794248369169,11.0780236651584,7.));
#940=CARTESIAN_POINT('Origin',(19.794248369169,9.82802366515844,7.));
#941=CARTESIAN_POINT('',(25.794248369169,11.0780236651584,7.));
#942=CARTESIAN_POINT('',(19.794248369169,11.0780236651584,7.));
#943=CARTESIAN_POINT('Origin',(25.794248369169,9.82802366515844,7.));
#944=CARTESIAN_POINT('Origin',(25.794248369169,9.82802366515844,7.));
#945=CARTESIAN_POINT('Origin',(19.794248369169,41.8280236651584,7.));
#946=CARTESIAN_POINT('',(19.794248369169,43.0780236651584,7.));
#947=CARTESIAN_POINT('Origin',(19.794248369169,41.8280236651584,7.));
#948=CARTESIAN_POINT('',(25.794248369169,43.0780236651584,7.));
#949=CARTESIAN_POINT('',(19.794248369169,43.0780236651584,7.));
#950=CARTESIAN_POINT('Origin',(25.794248369169,41.8280236651584,7.));
#951=CARTESIAN_POINT('Origin',(25.794248369169,41.8280236651584,7.));
#952=CARTESIAN_POINT('Origin',(19.794248369169,73.8280236651584,7.));
#953=CARTESIAN_POINT('',(19.794248369169,75.0780236651584,7.));
#954=CARTESIAN_POINT('Origin',(19.794248369169,73.8280236651584,7.));
#955=CARTESIAN_POINT('',(25.794248369169,75.0780236651584,7.));
#956=CARTESIAN_POINT('',(19.794248369169,75.0780236651584,7.));
#957=CARTESIAN_POINT('Origin',(25.794248369169,73.8280236651584,7.));
#958=CARTESIAN_POINT('Origin',(25.794248369169,73.8280236651585,7.));
#959=CARTESIAN_POINT('Origin',(33.294248369169,57.8280236651584,7.));
#960=CARTESIAN_POINT('',(33.294248369169,59.0780236651584,7.));
#961=CARTESIAN_POINT('Origin',(33.294248369169,57.8280236651584,7.));
#962=CARTESIAN_POINT('',(27.294248369169,59.0780236651584,7.));
#963=CARTESIAN_POINT('',(33.294248369169,59.0780236651584,7.));
#964=CARTESIAN_POINT('Origin',(27.294248369169,57.8280236651584,7.));
#965=CARTESIAN_POINT('Origin',(27.294248369169,57.8280236651584,7.));
#966=CARTESIAN_POINT('Origin',(33.294248369169,25.8280236651584,7.));
#967=CARTESIAN_POINT('',(33.294248369169,27.0780236651584,7.));
#968=CARTESIAN_POINT('Origin',(33.294248369169,25.8280236651584,7.));
#969=CARTESIAN_POINT('',(27.294248369169,27.0780236651584,7.));
#970=CARTESIAN_POINT('',(33.294248369169,27.0780236651584,7.));
#971=CARTESIAN_POINT('Origin',(27.294248369169,25.8280236651584,7.));
#972=CARTESIAN_POINT('Origin',(27.294248369169,25.8280236651584,7.));
#973=CARTESIAN_POINT('Origin',(33.294248369169,9.82802366515844,7.));
#974=CARTESIAN_POINT('',(33.294248369169,11.0780236651584,7.));
#975=CARTESIAN_POINT('Origin',(33.294248369169,9.82802366515844,7.));
#976=CARTESIAN_POINT('',(27.294248369169,11.0780236651584,7.));
#977=CARTESIAN_POINT('',(33.294248369169,11.0780236651584,7.));
#978=CARTESIAN_POINT('Origin',(27.294248369169,9.82802366515844,7.));
#979=CARTESIAN_POINT('Origin',(27.294248369169,9.82802366515844,7.));
#980=CARTESIAN_POINT('Origin',(33.294248369169,41.8280236651584,7.));
#981=CARTESIAN_POINT('',(33.294248369169,43.0780236651584,7.));
#982=CARTESIAN_POINT('Origin',(33.294248369169,41.8280236651584,7.));
#983=CARTESIAN_POINT('',(27.294248369169,43.0780236651584,7.));
#984=CARTESIAN_POINT('',(33.294248369169,43.0780236651584,7.));
#985=CARTESIAN_POINT('Origin',(27.294248369169,41.8280236651584,7.));
#986=CARTESIAN_POINT('Origin',(27.294248369169,41.8280236651584,7.));
#987=CARTESIAN_POINT('Origin',(33.294248369169,73.8280236651584,7.));
#988=CARTESIAN_POINT('',(33.294248369169,75.0780236651584,7.));
#989=CARTESIAN_POINT('Origin',(33.294248369169,73.8280236651584,7.));
#990=CARTESIAN_POINT('',(27.294248369169,75.0780236651584,7.));
#991=CARTESIAN_POINT('',(33.294248369169,75.0780236651584,7.));
#992=CARTESIAN_POINT('Origin',(27.294248369169,73.8280236651584,7.));
#993=CARTESIAN_POINT('Origin',(27.294248369169,73.8280236651585,7.));
#994=CARTESIAN_POINT('Origin',(48.,45.,0.));
#995=CARTESIAN_POINT('',(49.7,45.,0.));
#996=CARTESIAN_POINT('Origin',(48.,45.,0.));
#997=CARTESIAN_POINT('',(49.7,45.,4.));
#998=CARTESIAN_POINT('',(49.7,45.,0.));
#999=CARTESIAN_POINT('Origin',(48.,45.,4.));
#1000=CARTESIAN_POINT('Origin',(48.,5.,0.));
#1001=CARTESIAN_POINT('',(49.7,5.,0.));
#1002=CARTESIAN_POINT('Origin',(48.,5.,0.));
#1003=CARTESIAN_POINT('',(49.7,5.,4.));
#1004=CARTESIAN_POINT('',(49.7,5.,0.));
#1005=CARTESIAN_POINT('Origin',(48.,5.,4.));
#1006=CARTESIAN_POINT('Origin',(3.,45.,0.));
#1007=CARTESIAN_POINT('',(4.7,45.,0.));
#1008=CARTESIAN_POINT('Origin',(3.,45.,0.));
#1009=CARTESIAN_POINT('',(4.7,45.,4.));
#1010=CARTESIAN_POINT('',(4.7,45.,0.));
#1011=CARTESIAN_POINT('Origin',(3.,45.,4.));
#1012=CARTESIAN_POINT('Origin',(3.,5.,0.));
#1013=CARTESIAN_POINT('',(4.7,5.,0.));
#1014=CARTESIAN_POINT('Origin',(3.,5.,0.));
#1015=CARTESIAN_POINT('',(4.7,5.,4.));
#1016=CARTESIAN_POINT('',(4.7,5.,0.));
#1017=CARTESIAN_POINT('Origin',(3.,5.,4.));
#1018=CARTESIAN_POINT('Origin',(3.,25.,0.));
#1019=CARTESIAN_POINT('',(4.7,25.,0.));
#1020=CARTESIAN_POINT('Origin',(3.,25.,0.));
#1021=CARTESIAN_POINT('',(4.7,25.,4.));
#1022=CARTESIAN_POINT('',(4.7,25.,0.));
#1023=CARTESIAN_POINT('Origin',(3.,25.,4.));
#1024=CARTESIAN_POINT('Origin',(3.,65.,0.));
#1025=CARTESIAN_POINT('',(4.7,65.,0.));
#1026=CARTESIAN_POINT('Origin',(3.,65.,0.));
#1027=CARTESIAN_POINT('',(4.7,65.,4.));
#1028=CARTESIAN_POINT('',(4.7,65.,0.));
#1029=CARTESIAN_POINT('Origin',(3.,65.,4.));
#1030=CARTESIAN_POINT('Origin',(48.,25.,0.));
#1031=CARTESIAN_POINT('',(49.7,25.,0.));
#1032=CARTESIAN_POINT('Origin',(48.,25.,0.));
#1033=CARTESIAN_POINT('',(49.7,25.,4.));
#1034=CARTESIAN_POINT('',(49.7,25.,0.));
#1035=CARTESIAN_POINT('Origin',(48.,25.,4.));
#1036=CARTESIAN_POINT('Origin',(48.,65.,0.));
#1037=CARTESIAN_POINT('',(49.7,65.,0.));
#1038=CARTESIAN_POINT('Origin',(48.,65.,0.));
#1039=CARTESIAN_POINT('',(49.7,65.,4.));
#1040=CARTESIAN_POINT('',(49.7,65.,0.));
#1041=CARTESIAN_POINT('Origin',(48.,65.,4.));
#1042=CARTESIAN_POINT('Origin',(19.794248369169,76.,4.));
#1043=CARTESIAN_POINT('',(19.794248369169,4.,4.));
#1044=CARTESIAN_POINT('',(19.794248369169,76.,4.));
#1045=CARTESIAN_POINT('',(19.794248369169,58.,4.));
#1046=CARTESIAN_POINT('',(19.794248369169,4.,10.));
#1047=CARTESIAN_POINT('',(19.794248369169,4.,4.));
#1048=CARTESIAN_POINT('',(19.794248369169,76.,10.));
#1049=CARTESIAN_POINT('',(19.794248369169,76.,10.));
#1050=CARTESIAN_POINT('',(19.794248369169,76.,4.));
#1051=CARTESIAN_POINT('Origin',(33.294248369169,76.,4.));
#1052=CARTESIAN_POINT('',(33.294248369169,76.,4.));
#1053=CARTESIAN_POINT('',(29.3971241845845,76.,4.));
#1054=CARTESIAN_POINT('',(33.294248369169,76.,10.));
#1055=CARTESIAN_POINT('',(33.294248369169,76.,10.));
#1056=CARTESIAN_POINT('',(33.294248369169,76.,4.));
#1057=CARTESIAN_POINT('Origin',(33.294248369169,4.,4.));
#1058=CARTESIAN_POINT('',(33.294248369169,4.,4.));
#1059=CARTESIAN_POINT('',(33.294248369169,22.,4.));
#1060=CARTESIAN_POINT('',(33.294248369169,4.,10.));
#1061=CARTESIAN_POINT('',(33.294248369169,4.,10.));
#1062=CARTESIAN_POINT('',(33.294248369169,4.,4.));
#1063=CARTESIAN_POINT('Origin',(19.794248369169,4.,4.));
#1064=CARTESIAN_POINT('',(22.6471241845845,4.,4.));
#1065=CARTESIAN_POINT('',(19.794248369169,4.,10.));
#1066=CARTESIAN_POINT('Origin',(26.544248369169,40.,10.));
#1067=CARTESIAN_POINT('Origin',(0.,80.,0.));
#1068=CARTESIAN_POINT('',(0.,80.,0.));
#1069=CARTESIAN_POINT('',(0.,0.,0.));
#1070=CARTESIAN_POINT('',(0.,80.,0.));
#1071=CARTESIAN_POINT('',(0.,0.,4.));
#1072=CARTESIAN_POINT('',(0.,0.,0.));
#1073=CARTESIAN_POINT('',(0.,80.,4.));
#1074=CARTESIAN_POINT('',(0.,80.,4.));
#1075=CARTESIAN_POINT('',(0.,80.,0.));
#1076=CARTESIAN_POINT('Origin',(51.,80.,0.));
#1077=CARTESIAN_POINT('',(51.,80.,0.));
#1078=CARTESIAN_POINT('',(51.,80.,0.));
#1079=CARTESIAN_POINT('',(51.,80.,4.));
#1080=CARTESIAN_POINT('',(51.,80.,4.));
#1081=CARTESIAN_POINT('',(51.,80.,0.));
#1082=CARTESIAN_POINT('Origin',(51.,0.,0.));
#1083=CARTESIAN_POINT('',(51.,0.,0.));
#1084=CARTESIAN_POINT('',(51.,0.,0.));
#1085=CARTESIAN_POINT('',(51.,0.,4.));
#1086=CARTESIAN_POINT('',(51.,0.,4.));
#1087=CARTESIAN_POINT('',(51.,0.,0.));
#1088=CARTESIAN_POINT('Origin',(0.,0.,0.));
#1089=CARTESIAN_POINT('',(0.,0.,0.));
#1090=CARTESIAN_POINT('',(0.,0.,4.));
#1091=CARTESIAN_POINT('Origin',(25.5,40.,4.));
#1092=CARTESIAN_POINT('Origin',(25.5,40.,0.));
#1093=UNCERTAINTY_MEASURE_WITH_UNIT(LENGTH_MEASURE(0.01),#1097,
'DISTANCE_ACCURACY_VALUE',
'Maximum model space distance between geometric entities at asserted c
onnectivities');
#1094=UNCERTAINTY_MEASURE_WITH_UNIT(LENGTH_MEASURE(0.01),#1097,
'DISTANCE_ACCURACY_VALUE',
'Maximum model space distance between geometric entities at asserted c
onnectivities');
#1095=(
GEOMETRIC_REPRESENTATION_CONTEXT(3)
GLOBAL_UNCERTAINTY_ASSIGNED_CONTEXT((#1093))
GLOBAL_UNIT_ASSIGNED_CONTEXT((#1097,#1099,#1100))
REPRESENTATION_CONTEXT('','3D')
);
#1096=(
GEOMETRIC_REPRESENTATION_CONTEXT(3)
GLOBAL_UNCERTAINTY_ASSIGNED_CONTEXT((#1094))
GLOBAL_UNIT_ASSIGNED_CONTEXT((#1097,#1099,#1100))
REPRESENTATION_CONTEXT('','3D')
);
#1097=(
LENGTH_UNIT()
NAMED_UNIT(*)
SI_UNIT(.MILLI.,.METRE.)
);
#1098=(
LENGTH_UNIT()
NAMED_UNIT(*)
SI_UNIT(.CENTI.,.METRE.)
);
#1099=(
NAMED_UNIT(*)
PLANE_ANGLE_UNIT()
SI_UNIT($,.RADIAN.)
);
#1100=(
NAMED_UNIT(*)
SI_UNIT($,.STERADIAN.)
SOLID_ANGLE_UNIT()
);
#1101=SHAPE_DEFINITION_REPRESENTATION(#1102,#1103);
#1102=PRODUCT_DEFINITION_SHAPE('',$,#1105);
#1103=SHAPE_REPRESENTATION('',(#653),#1095);
#1104=PRODUCT_DEFINITION_CONTEXT('part definition',#1109,'design');
#1105=PRODUCT_DEFINITION('Rod_Holder_Adapter','Rod_Holder_Adapter',#1106,
#1104);
#1106=PRODUCT_DEFINITION_FORMATION('',$,#1111);
#1107=PRODUCT_RELATED_PRODUCT_CATEGORY('Rod_Holder_Adapter',
'Rod_Holder_Adapter',(#1111));
#1108=APPLICATION_PROTOCOL_DEFINITION('international standard',
'automotive_design',2009,#1109);
#1109=APPLICATION_CONTEXT(
'Core Data for Automotive Mechanical Design Process');
#1110=PRODUCT_CONTEXT('part definition',#1109,'mechanical');
#1111=PRODUCT('Rod_Holder_Adapter','Rod_Holder_Adapter',$,(#1110));
#1112=PRESENTATION_STYLE_ASSIGNMENT((#1113));
#1113=SURFACE_STYLE_USAGE(.BOTH.,#1116);
#1114=SURFACE_STYLE_RENDERING_WITH_PROPERTIES($,#1120,(#1115));
#1115=SURFACE_STYLE_TRANSPARENT(0.);
#1116=SURFACE_SIDE_STYLE('',(#1117,#1114));
#1117=SURFACE_STYLE_FILL_AREA(#1118);
#1118=FILL_AREA_STYLE('',(#1119));
#1119=FILL_AREA_STYLE_COLOUR('',#1120);
#1120=COLOUR_RGB('',0.223529411764706,0.501960784313725,0.67843137254902);
ENDSEC;
END-ISO-10303-21;
