ISO-10303-21;
HEADER;
/* Generated by software containing ST-Developer
 * from STEP Tools, Inc. (www.steptools.com) 
 */

FILE_DESCRIPTION(
/* description */ (
'Pan head screw with type H cross recess - product grade A'),
/* implementation_level */ '2;1');

FILE_NAME(
/* name */ 'ISO_7045_H_M1p6x4.step',
/* time_stamp */ '2026-09-25T09:22:34-07:00',
/* author */ ('\X2\BC15C815D604\X0\'),
/* organization */ (''),
/* preprocessor_version */ 'ST-DEVELOPER v20.2',
/* originating_system */ 'Autodesk Inventor 2027',
/* authorisation */ '');

FILE_SCHEMA (('AUTOMOTIVE_DESIGN { 1 0 10303 214 3 1 1 }'));
ENDSEC;

DATA;
#10=MECHANICAL_DESIGN_GEOMETRIC_PRESENTATION_REPRESENTATION('',(#13),#1106);
#11=SHAPE_REPRESENTATION_RELATIONSHIP('SRR','None',#1113,#12);
#12=ADVANCED_BREP_SHAPE_REPRESENTATION('',(#14),#1105);
#13=STYLED_ITEM('',(#1122),#14);
#14=MANIFOLD_SOLID_BREP('Solid1',#525);
#15=(
BOUNDED_CURVE()
B_SPLINE_CURVE(2,(#985,#986,#987),.UNSPECIFIED.,.F.,.F.)
B_SPLINE_CURVE_WITH_KNOTS((3,3),(0.105204357294258,0.111491044352518),
 .UNSPECIFIED.)
CURVE()
GEOMETRIC_REPRESENTATION_ITEM()
RATIONAL_B_SPLINE_CURVE((1.73249891654213,1.3881353933086,1.))
REPRESENTATION_ITEM('')
);
#16=(
BOUNDED_CURVE()
B_SPLINE_CURVE(2,(#992,#993,#994),.UNSPECIFIED.,.F.,.F.)
B_SPLINE_CURVE_WITH_KNOTS((3,3),(0.,0.00628668705825991),.UNSPECIFIED.)
CURVE()
GEOMETRIC_REPRESENTATION_ITEM()
RATIONAL_B_SPLINE_CURVE((1.,1.38813539330858,1.7324989165421))
REPRESENTATION_ITEM('')
);
#17=(
BOUNDED_CURVE()
B_SPLINE_CURVE(2,(#1013,#1014,#1015),.UNSPECIFIED.,.F.,.F.)
B_SPLINE_CURVE_WITH_KNOTS((3,3),(0.105204357294257,0.111491044352518),
 .UNSPECIFIED.)
CURVE()
GEOMETRIC_REPRESENTATION_ITEM()
RATIONAL_B_SPLINE_CURVE((1.73249891654211,1.38813539330859,1.))
REPRESENTATION_ITEM('')
);
#18=(
BOUNDED_CURVE()
B_SPLINE_CURVE(2,(#1019,#1020,#1021),.UNSPECIFIED.,.F.,.F.)
B_SPLINE_CURVE_WITH_KNOTS((3,3),(0.,0.00628668705825982),.UNSPECIFIED.)
CURVE()
GEOMETRIC_REPRESENTATION_ITEM()
RATIONAL_B_SPLINE_CURVE((1.,1.3881353933086,1.73249891654213))
REPRESENTATION_ITEM('')
);
#19=(
BOUNDED_CURVE()
B_SPLINE_CURVE(2,(#1076,#1077,#1078),.UNSPECIFIED.,.F.,.F.)
B_SPLINE_CURVE_WITH_KNOTS((3,3),(0.105204357294258,0.111491044352518),
 .UNSPECIFIED.)
CURVE()
GEOMETRIC_REPRESENTATION_ITEM()
RATIONAL_B_SPLINE_CURVE((1.73249891654209,1.38813539330858,1.))
REPRESENTATION_ITEM('')
);
#20=(
BOUNDED_CURVE()
B_SPLINE_CURVE(2,(#1080,#1081,#1082),.UNSPECIFIED.,.F.,.F.)
B_SPLINE_CURVE_WITH_KNOTS((3,3),(0.105204357294259,0.111491044352519),
 .UNSPECIFIED.)
CURVE()
GEOMETRIC_REPRESENTATION_ITEM()
RATIONAL_B_SPLINE_CURVE((1.73249891654212,1.38813539330859,1.))
REPRESENTATION_ITEM('')
);
#21=(
BOUNDED_CURVE()
B_SPLINE_CURVE(2,(#1084,#1085,#1086),.UNSPECIFIED.,.F.,.F.)
B_SPLINE_CURVE_WITH_KNOTS((3,3),(0.,0.00628668705826025),.UNSPECIFIED.)
CURVE()
GEOMETRIC_REPRESENTATION_ITEM()
RATIONAL_B_SPLINE_CURVE((1.,1.3881353933086,1.73249891654214))
REPRESENTATION_ITEM('')
);
#22=(
BOUNDED_CURVE()
B_SPLINE_CURVE(2,(#1088,#1089,#1090),.UNSPECIFIED.,.F.,.F.)
B_SPLINE_CURVE_WITH_KNOTS((3,3),(0.,0.00628668705826048),.UNSPECIFIED.)
CURVE()
GEOMETRIC_REPRESENTATION_ITEM()
RATIONAL_B_SPLINE_CURVE((1.,1.38813539330858,1.7324989165421))
REPRESENTATION_ITEM('')
);
#23=FACE_BOUND('',#102,.T.);
#24=FACE_BOUND('',#118,.T.);
#25=SPHERICAL_SURFACE('',#581,2.5);
#26=B_SPLINE_CURVE_WITH_KNOTS('',3,(#775,#776,#777,#778,#779,#780,#781,
#782,#783,#784),.UNSPECIFIED.,.F.,.F.,(4,2,2,2,4),(0.0205498591677475,0.0223536772307473,
0.0245846220382865,0.0268436828549737,0.0287936179977205),.UNSPECIFIED.);
#27=B_SPLINE_CURVE_WITH_KNOTS('',3,(#788,#789,#790,#791,#792,#793,#794,
#795,#796,#797),.UNSPECIFIED.,.F.,.F.,(4,2,2,2,4),(0.00704929225379351,
0.00899922739655283,0.01125828821324,0.0134892330207792,0.015293051083779),
 .UNSPECIFIED.);
#28=B_SPLINE_CURVE_WITH_KNOTS('',3,(#808,#809,#810,#811,#812,#813,#814,
#815,#816,#817),.UNSPECIFIED.,.F.,.F.,(4,2,2,2,4),(0.0205498591677475,0.0223536772307473,
0.0245846220382865,0.0268436828549737,0.0287936179977205),.UNSPECIFIED.);
#29=B_SPLINE_CURVE_WITH_KNOTS('',3,(#821,#822,#823,#824,#825,#826,#827,
#828,#829,#830),.UNSPECIFIED.,.F.,.F.,(4,2,2,2,4),(0.00704929225379353,
0.00899922739655284,0.01125828821324,0.0134892330207792,0.015293051083779),
 .UNSPECIFIED.);
#30=B_SPLINE_CURVE_WITH_KNOTS('',3,(#841,#842,#843,#844,#845,#846,#847,
#848,#849,#850),.UNSPECIFIED.,.F.,.F.,(4,2,2,2,4),(0.0205498591677475,0.0223536772307473,
0.0245846220382865,0.0268436828549737,0.0287936179977205),.UNSPECIFIED.);
#31=B_SPLINE_CURVE_WITH_KNOTS('',3,(#854,#855,#856,#857,#858,#859,#860,
#861,#862,#863),.UNSPECIFIED.,.F.,.F.,(4,2,2,2,4),(0.00704929225379352,
0.00899922739655284,0.01125828821324,0.0134892330207792,0.015293051083779),
 .UNSPECIFIED.);
#32=B_SPLINE_CURVE_WITH_KNOTS('',3,(#876,#877,#878,#879,#880,#881,#882,
#883,#884,#885),.UNSPECIFIED.,.F.,.F.,(4,2,2,2,4),(0.0205498591677475,0.0223536772307473,
0.0245846220382865,0.0268436828549736,0.0287936179977205),.UNSPECIFIED.);
#33=B_SPLINE_CURVE_WITH_KNOTS('',3,(#889,#890,#891,#892,#893,#894,#895,
#896,#897,#898),.UNSPECIFIED.,.F.,.F.,(4,2,2,2,4),(0.00704929225379352,
0.00899922739655283,0.01125828821324,0.0134892330207792,0.015293051083779),
 .UNSPECIFIED.);
#34=B_SPLINE_CURVE_WITH_KNOTS('',3,(#918,#919,#920,#921,#922,#923,#924,
#925,#926,#927,#928,#929),.UNSPECIFIED.,.F.,.F.,(4,2,2,2,2,4),(0.,0.0041712079254919,
0.00834241585098381,0.0125132142964156,0.0166840127418474,0.0167490733846107),
 .UNSPECIFIED.);
#35=B_SPLINE_CURVE_WITH_KNOTS('',3,(#934,#935,#936,#937,#938,#939,#940,
#941,#942,#943,#944,#945),.UNSPECIFIED.,.F.,.F.,(4,2,2,2,2,4),(0.,0.00417120792549191,
0.00834241585098382,0.0125132142964156,0.0166840127418474,0.0167490733846107),
 .UNSPECIFIED.);
#36=B_SPLINE_CURVE_WITH_KNOTS('',3,(#950,#951,#952,#953,#954,#955,#956,
#957,#958,#959,#960,#961),.UNSPECIFIED.,.F.,.F.,(4,2,2,2,2,4),(0.,0.00417120792549191,
0.00834241585098382,0.0125132142964156,0.0166840127418474,0.0167490733846107),
 .UNSPECIFIED.);
#37=B_SPLINE_CURVE_WITH_KNOTS('',3,(#966,#967,#968,#969,#970,#971,#972,
#973,#974,#975,#976,#977),.UNSPECIFIED.,.F.,.F.,(4,2,2,2,2,4),(0.,0.00417120792549191,
0.00834241585098381,0.0125132142964156,0.0166840127418474,0.0167490733846107),
 .UNSPECIFIED.);
#38=B_SPLINE_CURVE_WITH_KNOTS('',3,(#998,#999,#1000,#1001,#1002,#1003,#1004,
#1005,#1006,#1007,#1008,#1009,#1010,#1011),.UNSPECIFIED.,.F.,.F.,(4,2,2,
2,2,2,4),(0.07873489419974,0.08465410504931,0.0889518301026616,0.0932495551560132,
0.0975472802093647,0.101845005262716,0.107764216112286),.UNSPECIFIED.);
#39=B_SPLINE_CURVE_WITH_KNOTS('',3,(#1025,#1026,#1027,#1028,#1029,#1030,
#1031,#1032,#1033,#1034,#1035,#1036,#1037,#1038),.UNSPECIFIED.,.F.,.F.,
(4,2,2,2,2,2,4),(0.0787348941997403,0.0846541050493104,0.088951830102662,
0.0932495551560135,0.0975472802093651,0.101845005262717,0.107764216112286),
 .UNSPECIFIED.);
#40=B_SPLINE_CURVE_WITH_KNOTS('',3,(#1043,#1044,#1045,#1046,#1047,#1048,
#1049,#1050,#1051,#1052,#1053,#1054,#1055,#1056),.UNSPECIFIED.,.F.,.F.,
(4,2,2,2,2,2,4),(0.0787348941997406,0.0846541050493104,0.088951830102662,
0.0932495551560135,0.0975472802093651,0.101845005262717,0.107764216112287),
 .UNSPECIFIED.);
#41=B_SPLINE_CURVE_WITH_KNOTS('',3,(#1060,#1061,#1062,#1063,#1064,#1065,
#1066,#1067,#1068,#1069,#1070,#1071,#1072,#1073),.UNSPECIFIED.,.F.,.F.,
(4,2,2,2,2,2,4),(0.0787348941997403,0.08465410504931,0.0889518301026616,
0.0932495551560132,0.0975472802093648,0.101845005262716,0.107764216112286),
 .UNSPECIFIED.);
#42=TOROIDAL_SURFACE('',#555,0.816920236639951,0.06);
#43=TOROIDAL_SURFACE('',#560,0.816920236639951,0.06);
#44=TOROIDAL_SURFACE('',#565,0.816920236639951,0.06);
#45=TOROIDAL_SURFACE('',#571,0.816920236639951,0.06);
#46=TOROIDAL_SURFACE('',#576,1.0828816554006,0.5);
#47=PLANE('',#554);
#48=PLANE('',#592);
#49=PLANE('',#593);
#50=PLANE('',#595);
#51=PLANE('',#596);
#52=PLANE('',#600);
#53=PLANE('',#601);
#54=PLANE('',#602);
#55=PLANE('',#603);
#56=PLANE('',#605);
#57=CYLINDRICAL_SURFACE('',#552,0.800000000000002);
#58=CYLINDRICAL_SURFACE('',#607,0.70528);
#59=FACE_OUTER_BOUND('',#89,.T.);
#60=FACE_OUTER_BOUND('',#90,.T.);
#61=FACE_OUTER_BOUND('',#91,.T.);
#62=FACE_OUTER_BOUND('',#92,.T.);
#63=FACE_OUTER_BOUND('',#93,.T.);
#64=FACE_OUTER_BOUND('',#94,.T.);
#65=FACE_OUTER_BOUND('',#95,.T.);
#66=FACE_OUTER_BOUND('',#96,.T.);
#67=FACE_OUTER_BOUND('',#97,.T.);
#68=FACE_OUTER_BOUND('',#98,.T.);
#69=FACE_OUTER_BOUND('',#99,.T.);
#70=FACE_OUTER_BOUND('',#100,.T.);
#71=FACE_OUTER_BOUND('',#101,.T.);
#72=FACE_OUTER_BOUND('',#103,.T.);
#73=FACE_OUTER_BOUND('',#104,.T.);
#74=FACE_OUTER_BOUND('',#105,.T.);
#75=FACE_OUTER_BOUND('',#106,.T.);
#76=FACE_OUTER_BOUND('',#107,.T.);
#77=FACE_OUTER_BOUND('',#108,.T.);
#78=FACE_OUTER_BOUND('',#109,.T.);
#79=FACE_OUTER_BOUND('',#110,.T.);
#80=FACE_OUTER_BOUND('',#111,.T.);
#81=FACE_OUTER_BOUND('',#112,.T.);
#82=FACE_OUTER_BOUND('',#113,.T.);
#83=FACE_OUTER_BOUND('',#114,.T.);
#84=FACE_OUTER_BOUND('',#115,.T.);
#85=FACE_OUTER_BOUND('',#116,.T.);
#86=FACE_OUTER_BOUND('',#117,.T.);
#87=FACE_OUTER_BOUND('',#119,.T.);
#88=FACE_OUTER_BOUND('',#120,.T.);
#89=EDGE_LOOP('',(#327,#328,#329,#330,#331));
#90=EDGE_LOOP('',(#332,#333,#334,#335,#336));
#91=EDGE_LOOP('',(#337));
#92=EDGE_LOOP('',(#338,#339,#340,#341));
#93=EDGE_LOOP('',(#342,#343,#344,#345));
#94=EDGE_LOOP('',(#346,#347,#348,#349));
#95=EDGE_LOOP('',(#350,#351,#352,#353));
#96=EDGE_LOOP('',(#354,#355,#356,#357));
#97=EDGE_LOOP('',(#358,#359,#360,#361,#362));
#98=EDGE_LOOP('',(#363,#364,#365,#366));
#99=EDGE_LOOP('',(#367,#368,#369,#370));
#100=EDGE_LOOP('',(#371,#372,#373,#374,#375));
#101=EDGE_LOOP('',(#376));
#102=EDGE_LOOP('',(#377,#378,#379,#380,#381,#382,#383,#384,#385,#386,#387,
#388,#389,#390,#391,#392));
#103=EDGE_LOOP('',(#393,#394,#395,#396,#397));
#104=EDGE_LOOP('',(#398,#399,#400,#401,#402));
#105=EDGE_LOOP('',(#403,#404,#405,#406,#407));
#106=EDGE_LOOP('',(#408,#409,#410,#411));
#107=EDGE_LOOP('',(#412,#413,#414,#415,#416));
#108=EDGE_LOOP('',(#417,#418,#419,#420,#421));
#109=EDGE_LOOP('',(#422,#423,#424,#425));
#110=EDGE_LOOP('',(#426,#427,#428,#429));
#111=EDGE_LOOP('',(#430,#431,#432,#433));
#112=EDGE_LOOP('',(#434,#435,#436,#437,#438));
#113=EDGE_LOOP('',(#439,#440,#441,#442,#443));
#114=EDGE_LOOP('',(#444,#445,#446,#447,#448));
#115=EDGE_LOOP('',(#449,#450,#451,#452,#453));
#116=EDGE_LOOP('',(#454,#455,#456,#457,#458,#459,#460,#461,#462,#463,#464,
#465,#466,#467,#468,#469,#470,#471,#472));
#117=EDGE_LOOP('',(#473));
#118=EDGE_LOOP('',(#474));
#119=EDGE_LOOP('',(#475,#476,#477,#478));
#120=EDGE_LOOP('',(#479,#480,#481,#482));
#121=LINE('',#763,#143);
#122=LINE('',#769,#144);
#123=LINE('',#801,#145);
#124=LINE('',#804,#146);
#125=LINE('',#834,#147);
#126=LINE('',#837,#148);
#127=LINE('',#867,#149);
#128=LINE('',#872,#150);
#129=LINE('',#902,#151);
#130=LINE('',#905,#152);
#131=LINE('',#982,#153);
#132=LINE('',#988,#154);
#133=LINE('',#991,#155);
#134=LINE('',#997,#156);
#135=LINE('',#1018,#157);
#136=LINE('',#1024,#158);
#137=LINE('',#1041,#159);
#138=LINE('',#1057,#160);
#139=LINE('',#1074,#161);
#140=LINE('',#1093,#162);
#141=LINE('',#1100,#163);
#142=LINE('',#1102,#164);
#143=VECTOR('',#616,0.692646250000002);
#144=VECTOR('',#623,0.800000000000002);
#145=VECTOR('',#636,10.);
#146=VECTOR('',#639,10.);
#147=VECTOR('',#648,10.);
#148=VECTOR('',#651,10.);
#149=VECTOR('',#660,10.);
#150=VECTOR('',#665,10.);
#151=VECTOR('',#674,10.);
#152=VECTOR('',#677,10.);
#153=VECTOR('',#710,1.58704032128472);
#154=VECTOR('',#713,10.);
#155=VECTOR('',#716,10.);
#156=VECTOR('',#719,10.);
#157=VECTOR('',#724,10.);
#158=VECTOR('',#727,10.);
#159=VECTOR('',#730,10.);
#160=VECTOR('',#731,10.);
#161=VECTOR('',#734,10.);
#162=VECTOR('',#745,0.256053715237829);
#163=VECTOR('',#754,0.70528);
#164=VECTOR('',#757,0.752640000000001);
#165=CIRCLE('',#549,0.585292500000002);
#166=CIRCLE('',#550,0.800000000000002);
#167=CIRCLE('',#551,0.800000000000002);
#168=CIRCLE('',#553,0.800000000000001);
#169=CIRCLE('',#556,0.76322417494383);
#170=CIRCLE('',#557,0.837008439180278);
#171=CIRCLE('',#559,0.512107430475658);
#172=CIRCLE('',#561,0.76322417494383);
#173=CIRCLE('',#562,0.837008439180278);
#174=CIRCLE('',#564,0.512107430475658);
#175=CIRCLE('',#566,0.76322417494383);
#176=CIRCLE('',#567,0.837008439180278);
#177=CIRCLE('',#569,0.512107430475658);
#178=CIRCLE('',#570,0.512107430475658);
#179=CIRCLE('',#572,0.76322417494383);
#180=CIRCLE('',#573,0.837008439180278);
#181=CIRCLE('',#575,0.512107430475658);
#182=CIRCLE('',#577,1.58257706891015);
#183=CIRCLE('',#578,1.58257706891015);
#184=CIRCLE('',#579,0.5);
#185=CIRCLE('',#580,1.35360206925075);
#186=CIRCLE('',#582,2.49899452091853);
#187=CIRCLE('',#583,2.49899452091852);
#188=CIRCLE('',#584,2.49899452091853);
#189=CIRCLE('',#585,2.49899452091852);
#190=CIRCLE('',#586,2.49899452091852);
#191=CIRCLE('',#587,2.49899452091852);
#192=CIRCLE('',#588,2.49899452091852);
#193=CIRCLE('',#589,2.49899452091852);
#194=CIRCLE('',#591,1.6);
#195=CIRCLE('',#606,0.70528);
#196=CIRCLE('',#608,0.70528);
#197=VERTEX_POINT('',#760);
#198=VERTEX_POINT('',#762);
#199=VERTEX_POINT('',#764);
#200=VERTEX_POINT('',#768);
#201=VERTEX_POINT('',#773);
#202=VERTEX_POINT('',#774);
#203=VERTEX_POINT('',#785);
#204=VERTEX_POINT('',#787);
#205=VERTEX_POINT('',#800);
#206=VERTEX_POINT('',#802);
#207=VERTEX_POINT('',#806);
#208=VERTEX_POINT('',#807);
#209=VERTEX_POINT('',#818);
#210=VERTEX_POINT('',#820);
#211=VERTEX_POINT('',#833);
#212=VERTEX_POINT('',#835);
#213=VERTEX_POINT('',#839);
#214=VERTEX_POINT('',#840);
#215=VERTEX_POINT('',#851);
#216=VERTEX_POINT('',#853);
#217=VERTEX_POINT('',#866);
#218=VERTEX_POINT('',#868);
#219=VERTEX_POINT('',#870);
#220=VERTEX_POINT('',#874);
#221=VERTEX_POINT('',#875);
#222=VERTEX_POINT('',#886);
#223=VERTEX_POINT('',#888);
#224=VERTEX_POINT('',#901);
#225=VERTEX_POINT('',#903);
#226=VERTEX_POINT('',#907);
#227=VERTEX_POINT('',#908);
#228=VERTEX_POINT('',#911);
#229=VERTEX_POINT('',#915);
#230=VERTEX_POINT('',#917);
#231=VERTEX_POINT('',#931);
#232=VERTEX_POINT('',#933);
#233=VERTEX_POINT('',#947);
#234=VERTEX_POINT('',#949);
#235=VERTEX_POINT('',#963);
#236=VERTEX_POINT('',#965);
#237=VERTEX_POINT('',#980);
#238=VERTEX_POINT('',#984);
#239=VERTEX_POINT('',#990);
#240=VERTEX_POINT('',#996);
#241=VERTEX_POINT('',#1017);
#242=VERTEX_POINT('',#1023);
#243=VERTEX_POINT('',#1040);
#244=VERTEX_POINT('',#1042);
#245=VERTEX_POINT('',#1059);
#246=VERTEX_POINT('',#1092);
#247=VERTEX_POINT('',#1095);
#248=VERTEX_POINT('',#1098);
#249=EDGE_CURVE('',#197,#197,#165,.T.);
#250=EDGE_CURVE('',#197,#198,#121,.T.);
#251=EDGE_CURVE('',#198,#199,#166,.T.);
#252=EDGE_CURVE('',#199,#198,#167,.T.);
#253=EDGE_CURVE('',#199,#200,#122,.T.);
#254=EDGE_CURVE('',#200,#200,#168,.T.);
#255=EDGE_CURVE('',#201,#202,#26,.F.);
#256=EDGE_CURVE('',#202,#203,#169,.T.);
#257=EDGE_CURVE('',#203,#204,#27,.F.);
#258=EDGE_CURVE('',#204,#201,#170,.T.);
#259=EDGE_CURVE('',#202,#205,#123,.T.);
#260=EDGE_CURVE('',#205,#206,#171,.T.);
#261=EDGE_CURVE('',#206,#203,#124,.T.);
#262=EDGE_CURVE('',#207,#208,#28,.F.);
#263=EDGE_CURVE('',#208,#209,#172,.T.);
#264=EDGE_CURVE('',#209,#210,#29,.F.);
#265=EDGE_CURVE('',#210,#207,#173,.T.);
#266=EDGE_CURVE('',#208,#211,#125,.T.);
#267=EDGE_CURVE('',#211,#212,#174,.T.);
#268=EDGE_CURVE('',#212,#209,#126,.T.);
#269=EDGE_CURVE('',#213,#214,#30,.F.);
#270=EDGE_CURVE('',#214,#215,#175,.T.);
#271=EDGE_CURVE('',#215,#216,#31,.F.);
#272=EDGE_CURVE('',#216,#213,#176,.T.);
#273=EDGE_CURVE('',#214,#217,#127,.T.);
#274=EDGE_CURVE('',#217,#218,#177,.T.);
#275=EDGE_CURVE('',#218,#219,#178,.T.);
#276=EDGE_CURVE('',#219,#215,#128,.T.);
#277=EDGE_CURVE('',#220,#221,#32,.F.);
#278=EDGE_CURVE('',#221,#222,#179,.T.);
#279=EDGE_CURVE('',#222,#223,#33,.F.);
#280=EDGE_CURVE('',#223,#220,#180,.T.);
#281=EDGE_CURVE('',#221,#224,#129,.T.);
#282=EDGE_CURVE('',#224,#225,#181,.T.);
#283=EDGE_CURVE('',#225,#222,#130,.T.);
#284=EDGE_CURVE('',#226,#227,#182,.T.);
#285=EDGE_CURVE('',#227,#226,#183,.T.);
#286=EDGE_CURVE('',#226,#228,#184,.T.);
#287=EDGE_CURVE('',#228,#228,#185,.T.);
#288=EDGE_CURVE('',#229,#204,#186,.T.);
#289=EDGE_CURVE('',#230,#229,#34,.T.);
#290=EDGE_CURVE('',#220,#230,#187,.T.);
#291=EDGE_CURVE('',#231,#223,#188,.T.);
#292=EDGE_CURVE('',#232,#231,#35,.T.);
#293=EDGE_CURVE('',#213,#232,#189,.T.);
#294=EDGE_CURVE('',#233,#216,#190,.T.);
#295=EDGE_CURVE('',#234,#233,#36,.T.);
#296=EDGE_CURVE('',#207,#234,#191,.T.);
#297=EDGE_CURVE('',#235,#210,#192,.T.);
#298=EDGE_CURVE('',#236,#235,#37,.T.);
#299=EDGE_CURVE('',#201,#236,#193,.T.);
#300=EDGE_CURVE('',#237,#237,#194,.T.);
#301=EDGE_CURVE('',#237,#227,#131,.T.);
#302=EDGE_CURVE('',#238,#219,#15,.T.);
#303=EDGE_CURVE('',#233,#238,#132,.T.);
#304=EDGE_CURVE('',#232,#239,#133,.T.);
#305=EDGE_CURVE('',#217,#239,#16,.T.);
#306=EDGE_CURVE('',#231,#240,#134,.T.);
#307=EDGE_CURVE('',#239,#240,#38,.T.);
#308=EDGE_CURVE('',#240,#225,#17,.T.);
#309=EDGE_CURVE('',#230,#241,#135,.T.);
#310=EDGE_CURVE('',#224,#241,#18,.T.);
#311=EDGE_CURVE('',#229,#242,#136,.T.);
#312=EDGE_CURVE('',#241,#242,#39,.T.);
#313=EDGE_CURVE('',#235,#243,#137,.T.);
#314=EDGE_CURVE('',#244,#243,#40,.T.);
#315=EDGE_CURVE('',#236,#244,#138,.T.);
#316=EDGE_CURVE('',#245,#238,#41,.T.);
#317=EDGE_CURVE('',#234,#245,#139,.T.);
#318=EDGE_CURVE('',#242,#206,#19,.T.);
#319=EDGE_CURVE('',#243,#212,#20,.T.);
#320=EDGE_CURVE('',#205,#244,#21,.T.);
#321=EDGE_CURVE('',#211,#245,#22,.T.);
#322=EDGE_CURVE('',#246,#218,#140,.T.);
#323=EDGE_CURVE('',#247,#247,#195,.T.);
#324=EDGE_CURVE('',#248,#248,#196,.T.);
#325=EDGE_CURVE('',#248,#247,#141,.T.);
#326=EDGE_CURVE('',#200,#248,#142,.T.);
#327=ORIENTED_EDGE('',*,*,#249,.T.);
#328=ORIENTED_EDGE('',*,*,#250,.T.);
#329=ORIENTED_EDGE('',*,*,#251,.T.);
#330=ORIENTED_EDGE('',*,*,#252,.T.);
#331=ORIENTED_EDGE('',*,*,#250,.F.);
#332=ORIENTED_EDGE('',*,*,#251,.F.);
#333=ORIENTED_EDGE('',*,*,#252,.F.);
#334=ORIENTED_EDGE('',*,*,#253,.T.);
#335=ORIENTED_EDGE('',*,*,#254,.T.);
#336=ORIENTED_EDGE('',*,*,#253,.F.);
#337=ORIENTED_EDGE('',*,*,#249,.F.);
#338=ORIENTED_EDGE('',*,*,#255,.T.);
#339=ORIENTED_EDGE('',*,*,#256,.T.);
#340=ORIENTED_EDGE('',*,*,#257,.T.);
#341=ORIENTED_EDGE('',*,*,#258,.T.);
#342=ORIENTED_EDGE('',*,*,#256,.F.);
#343=ORIENTED_EDGE('',*,*,#259,.T.);
#344=ORIENTED_EDGE('',*,*,#260,.T.);
#345=ORIENTED_EDGE('',*,*,#261,.T.);
#346=ORIENTED_EDGE('',*,*,#262,.T.);
#347=ORIENTED_EDGE('',*,*,#263,.T.);
#348=ORIENTED_EDGE('',*,*,#264,.T.);
#349=ORIENTED_EDGE('',*,*,#265,.T.);
#350=ORIENTED_EDGE('',*,*,#263,.F.);
#351=ORIENTED_EDGE('',*,*,#266,.T.);
#352=ORIENTED_EDGE('',*,*,#267,.T.);
#353=ORIENTED_EDGE('',*,*,#268,.T.);
#354=ORIENTED_EDGE('',*,*,#269,.T.);
#355=ORIENTED_EDGE('',*,*,#270,.T.);
#356=ORIENTED_EDGE('',*,*,#271,.T.);
#357=ORIENTED_EDGE('',*,*,#272,.T.);
#358=ORIENTED_EDGE('',*,*,#270,.F.);
#359=ORIENTED_EDGE('',*,*,#273,.T.);
#360=ORIENTED_EDGE('',*,*,#274,.T.);
#361=ORIENTED_EDGE('',*,*,#275,.T.);
#362=ORIENTED_EDGE('',*,*,#276,.T.);
#363=ORIENTED_EDGE('',*,*,#277,.T.);
#364=ORIENTED_EDGE('',*,*,#278,.T.);
#365=ORIENTED_EDGE('',*,*,#279,.T.);
#366=ORIENTED_EDGE('',*,*,#280,.T.);
#367=ORIENTED_EDGE('',*,*,#278,.F.);
#368=ORIENTED_EDGE('',*,*,#281,.T.);
#369=ORIENTED_EDGE('',*,*,#282,.T.);
#370=ORIENTED_EDGE('',*,*,#283,.T.);
#371=ORIENTED_EDGE('',*,*,#284,.T.);
#372=ORIENTED_EDGE('',*,*,#285,.T.);
#373=ORIENTED_EDGE('',*,*,#286,.T.);
#374=ORIENTED_EDGE('',*,*,#287,.T.);
#375=ORIENTED_EDGE('',*,*,#286,.F.);
#376=ORIENTED_EDGE('',*,*,#287,.F.);
#377=ORIENTED_EDGE('',*,*,#288,.F.);
#378=ORIENTED_EDGE('',*,*,#289,.F.);
#379=ORIENTED_EDGE('',*,*,#290,.F.);
#380=ORIENTED_EDGE('',*,*,#280,.F.);
#381=ORIENTED_EDGE('',*,*,#291,.F.);
#382=ORIENTED_EDGE('',*,*,#292,.F.);
#383=ORIENTED_EDGE('',*,*,#293,.F.);
#384=ORIENTED_EDGE('',*,*,#272,.F.);
#385=ORIENTED_EDGE('',*,*,#294,.F.);
#386=ORIENTED_EDGE('',*,*,#295,.F.);
#387=ORIENTED_EDGE('',*,*,#296,.F.);
#388=ORIENTED_EDGE('',*,*,#265,.F.);
#389=ORIENTED_EDGE('',*,*,#297,.F.);
#390=ORIENTED_EDGE('',*,*,#298,.F.);
#391=ORIENTED_EDGE('',*,*,#299,.F.);
#392=ORIENTED_EDGE('',*,*,#258,.F.);
#393=ORIENTED_EDGE('',*,*,#300,.F.);
#394=ORIENTED_EDGE('',*,*,#301,.T.);
#395=ORIENTED_EDGE('',*,*,#284,.F.);
#396=ORIENTED_EDGE('',*,*,#285,.F.);
#397=ORIENTED_EDGE('',*,*,#301,.F.);
#398=ORIENTED_EDGE('',*,*,#294,.T.);
#399=ORIENTED_EDGE('',*,*,#271,.F.);
#400=ORIENTED_EDGE('',*,*,#276,.F.);
#401=ORIENTED_EDGE('',*,*,#302,.F.);
#402=ORIENTED_EDGE('',*,*,#303,.F.);
#403=ORIENTED_EDGE('',*,*,#293,.T.);
#404=ORIENTED_EDGE('',*,*,#304,.T.);
#405=ORIENTED_EDGE('',*,*,#305,.F.);
#406=ORIENTED_EDGE('',*,*,#273,.F.);
#407=ORIENTED_EDGE('',*,*,#269,.F.);
#408=ORIENTED_EDGE('',*,*,#292,.T.);
#409=ORIENTED_EDGE('',*,*,#306,.T.);
#410=ORIENTED_EDGE('',*,*,#307,.F.);
#411=ORIENTED_EDGE('',*,*,#304,.F.);
#412=ORIENTED_EDGE('',*,*,#291,.T.);
#413=ORIENTED_EDGE('',*,*,#279,.F.);
#414=ORIENTED_EDGE('',*,*,#283,.F.);
#415=ORIENTED_EDGE('',*,*,#308,.F.);
#416=ORIENTED_EDGE('',*,*,#306,.F.);
#417=ORIENTED_EDGE('',*,*,#290,.T.);
#418=ORIENTED_EDGE('',*,*,#309,.T.);
#419=ORIENTED_EDGE('',*,*,#310,.F.);
#420=ORIENTED_EDGE('',*,*,#281,.F.);
#421=ORIENTED_EDGE('',*,*,#277,.F.);
#422=ORIENTED_EDGE('',*,*,#289,.T.);
#423=ORIENTED_EDGE('',*,*,#311,.T.);
#424=ORIENTED_EDGE('',*,*,#312,.F.);
#425=ORIENTED_EDGE('',*,*,#309,.F.);
#426=ORIENTED_EDGE('',*,*,#298,.T.);
#427=ORIENTED_EDGE('',*,*,#313,.T.);
#428=ORIENTED_EDGE('',*,*,#314,.F.);
#429=ORIENTED_EDGE('',*,*,#315,.F.);
#430=ORIENTED_EDGE('',*,*,#295,.T.);
#431=ORIENTED_EDGE('',*,*,#303,.T.);
#432=ORIENTED_EDGE('',*,*,#316,.F.);
#433=ORIENTED_EDGE('',*,*,#317,.F.);
#434=ORIENTED_EDGE('',*,*,#288,.T.);
#435=ORIENTED_EDGE('',*,*,#257,.F.);
#436=ORIENTED_EDGE('',*,*,#261,.F.);
#437=ORIENTED_EDGE('',*,*,#318,.F.);
#438=ORIENTED_EDGE('',*,*,#311,.F.);
#439=ORIENTED_EDGE('',*,*,#297,.T.);
#440=ORIENTED_EDGE('',*,*,#264,.F.);
#441=ORIENTED_EDGE('',*,*,#268,.F.);
#442=ORIENTED_EDGE('',*,*,#319,.F.);
#443=ORIENTED_EDGE('',*,*,#313,.F.);
#444=ORIENTED_EDGE('',*,*,#299,.T.);
#445=ORIENTED_EDGE('',*,*,#315,.T.);
#446=ORIENTED_EDGE('',*,*,#320,.F.);
#447=ORIENTED_EDGE('',*,*,#259,.F.);
#448=ORIENTED_EDGE('',*,*,#255,.F.);
#449=ORIENTED_EDGE('',*,*,#296,.T.);
#450=ORIENTED_EDGE('',*,*,#317,.T.);
#451=ORIENTED_EDGE('',*,*,#321,.F.);
#452=ORIENTED_EDGE('',*,*,#266,.F.);
#453=ORIENTED_EDGE('',*,*,#262,.F.);
#454=ORIENTED_EDGE('',*,*,#322,.T.);
#455=ORIENTED_EDGE('',*,*,#274,.F.);
#456=ORIENTED_EDGE('',*,*,#305,.T.);
#457=ORIENTED_EDGE('',*,*,#307,.T.);
#458=ORIENTED_EDGE('',*,*,#308,.T.);
#459=ORIENTED_EDGE('',*,*,#282,.F.);
#460=ORIENTED_EDGE('',*,*,#310,.T.);
#461=ORIENTED_EDGE('',*,*,#312,.T.);
#462=ORIENTED_EDGE('',*,*,#318,.T.);
#463=ORIENTED_EDGE('',*,*,#260,.F.);
#464=ORIENTED_EDGE('',*,*,#320,.T.);
#465=ORIENTED_EDGE('',*,*,#314,.T.);
#466=ORIENTED_EDGE('',*,*,#319,.T.);
#467=ORIENTED_EDGE('',*,*,#267,.F.);
#468=ORIENTED_EDGE('',*,*,#321,.T.);
#469=ORIENTED_EDGE('',*,*,#316,.T.);
#470=ORIENTED_EDGE('',*,*,#302,.T.);
#471=ORIENTED_EDGE('',*,*,#275,.F.);
#472=ORIENTED_EDGE('',*,*,#322,.F.);
#473=ORIENTED_EDGE('',*,*,#300,.T.);
#474=ORIENTED_EDGE('',*,*,#323,.F.);
#475=ORIENTED_EDGE('',*,*,#324,.F.);
#476=ORIENTED_EDGE('',*,*,#325,.T.);
#477=ORIENTED_EDGE('',*,*,#323,.T.);
#478=ORIENTED_EDGE('',*,*,#325,.F.);
#479=ORIENTED_EDGE('',*,*,#254,.F.);
#480=ORIENTED_EDGE('',*,*,#326,.T.);
#481=ORIENTED_EDGE('',*,*,#324,.T.);
#482=ORIENTED_EDGE('',*,*,#326,.F.);
#483=CONICAL_SURFACE('',#548,0.692646250000001,0.785165342661984);
#484=CONICAL_SURFACE('',#558,0.649394024913154,0.462512251778498);
#485=CONICAL_SURFACE('',#563,0.649394024913154,0.462512251778498);
#486=CONICAL_SURFACE('',#568,0.649394024913154,0.462512251778498);
#487=CONICAL_SURFACE('',#574,0.649394024913154,0.462512251778498);
#488=CONICAL_SURFACE('',#590,1.58704032128473,0.0349065850398857);
#489=CONICAL_SURFACE('',#594,0.109269847905427,0.0872664625997165);
#490=CONICAL_SURFACE('',#597,0.109269847905427,0.0872664625997165);
#491=CONICAL_SURFACE('',#598,0.109269847905427,0.0872664625997165);
#492=CONICAL_SURFACE('',#599,0.109269847905427,0.0872664625997165);
#493=CONICAL_SURFACE('',#604,0.256053715237829,1.08210413623648);
#494=CONICAL_SURFACE('',#609,0.752640000000001,0.415476902476494);
#495=ADVANCED_FACE('',(#59),#483,.T.);
#496=ADVANCED_FACE('',(#60),#57,.T.);
#497=ADVANCED_FACE('',(#61),#47,.T.);
#498=ADVANCED_FACE('',(#62),#42,.T.);
#499=ADVANCED_FACE('',(#63),#484,.F.);
#500=ADVANCED_FACE('',(#64),#43,.T.);
#501=ADVANCED_FACE('',(#65),#485,.F.);
#502=ADVANCED_FACE('',(#66),#44,.T.);
#503=ADVANCED_FACE('',(#67),#486,.F.);
#504=ADVANCED_FACE('',(#68),#45,.T.);
#505=ADVANCED_FACE('',(#69),#487,.F.);
#506=ADVANCED_FACE('',(#70),#46,.T.);
#507=ADVANCED_FACE('',(#71,#23),#25,.T.);
#508=ADVANCED_FACE('',(#72),#488,.T.);
#509=ADVANCED_FACE('',(#73),#48,.T.);
#510=ADVANCED_FACE('',(#74),#49,.T.);
#511=ADVANCED_FACE('',(#75),#489,.T.);
#512=ADVANCED_FACE('',(#76),#50,.T.);
#513=ADVANCED_FACE('',(#77),#51,.T.);
#514=ADVANCED_FACE('',(#78),#490,.T.);
#515=ADVANCED_FACE('',(#79),#491,.T.);
#516=ADVANCED_FACE('',(#80),#492,.T.);
#517=ADVANCED_FACE('',(#81),#52,.T.);
#518=ADVANCED_FACE('',(#82),#53,.T.);
#519=ADVANCED_FACE('',(#83),#54,.T.);
#520=ADVANCED_FACE('',(#84),#55,.T.);
#521=ADVANCED_FACE('',(#85),#493,.F.);
#522=ADVANCED_FACE('',(#86,#24),#56,.T.);
#523=ADVANCED_FACE('',(#87),#58,.T.);
#524=ADVANCED_FACE('',(#88),#494,.T.);
#525=CLOSED_SHELL('',(#495,#496,#497,#498,#499,#500,#501,#502,#503,#504,
#505,#506,#507,#508,#509,#510,#511,#512,#513,#514,#515,#516,#517,#518,#519,
#520,#521,#522,#523,#524));
#526=DERIVED_UNIT_ELEMENT(#529,1.);
#527=DERIVED_UNIT_ELEMENT(#1108,-3.);
#528=DIMENSIONAL_EXPONENTS(0.,1.,0.,0.,0.,0.,0.);
#529=(
CONVERSION_BASED_UNIT('gram',#531)
MASS_UNIT()
NAMED_UNIT(#528)
);
#530=(
MASS_UNIT()
NAMED_UNIT(*)
SI_UNIT(.KILO.,.GRAM.)
);
#531=MASS_MEASURE_WITH_UNIT(MASS_MEASURE(0.001),#530);
#532=DERIVED_UNIT((#526,#527));
#533=MEASURE_REPRESENTATION_ITEM('density measure',
POSITIVE_RATIO_MEASURE(7.85),#532);
#534=PROPERTY_DEFINITION_REPRESENTATION(#539,#536);
#535=PROPERTY_DEFINITION_REPRESENTATION(#540,#537);
#536=REPRESENTATION('material name',(#538),#1105);
#537=REPRESENTATION('density',(#533),#1105);
#538=DESCRIPTIVE_REPRESENTATION_ITEM('Steel','Steel');
#539=PROPERTY_DEFINITION('material property','material name',#1115);
#540=PROPERTY_DEFINITION('material property','density of part',#1115);
#541=DATE_TIME_ROLE('creation_date');
#542=APPLIED_DATE_AND_TIME_ASSIGNMENT(#543,#541,(#1115));
#543=DATE_AND_TIME(#544,#545);
#544=CALENDAR_DATE(2026,2,2);
#545=LOCAL_TIME(0,0,0.,#546);
#546=COORDINATED_UNIVERSAL_TIME_OFFSET(0,0,.BEHIND.);
#547=AXIS2_PLACEMENT_3D('',#758,#610,#611);
#548=AXIS2_PLACEMENT_3D('',#759,#612,#613);
#549=AXIS2_PLACEMENT_3D('',#761,#614,#615);
#550=AXIS2_PLACEMENT_3D('',#765,#617,#618);
#551=AXIS2_PLACEMENT_3D('',#766,#619,#620);
#552=AXIS2_PLACEMENT_3D('',#767,#621,#622);
#553=AXIS2_PLACEMENT_3D('',#770,#624,#625);
#554=AXIS2_PLACEMENT_3D('',#771,#626,#627);
#555=AXIS2_PLACEMENT_3D('',#772,#628,#629);
#556=AXIS2_PLACEMENT_3D('',#786,#630,#631);
#557=AXIS2_PLACEMENT_3D('',#798,#632,#633);
#558=AXIS2_PLACEMENT_3D('',#799,#634,#635);
#559=AXIS2_PLACEMENT_3D('',#803,#637,#638);
#560=AXIS2_PLACEMENT_3D('',#805,#640,#641);
#561=AXIS2_PLACEMENT_3D('',#819,#642,#643);
#562=AXIS2_PLACEMENT_3D('',#831,#644,#645);
#563=AXIS2_PLACEMENT_3D('',#832,#646,#647);
#564=AXIS2_PLACEMENT_3D('',#836,#649,#650);
#565=AXIS2_PLACEMENT_3D('',#838,#652,#653);
#566=AXIS2_PLACEMENT_3D('',#852,#654,#655);
#567=AXIS2_PLACEMENT_3D('',#864,#656,#657);
#568=AXIS2_PLACEMENT_3D('',#865,#658,#659);
#569=AXIS2_PLACEMENT_3D('',#869,#661,#662);
#570=AXIS2_PLACEMENT_3D('',#871,#663,#664);
#571=AXIS2_PLACEMENT_3D('',#873,#666,#667);
#572=AXIS2_PLACEMENT_3D('',#887,#668,#669);
#573=AXIS2_PLACEMENT_3D('',#899,#670,#671);
#574=AXIS2_PLACEMENT_3D('',#900,#672,#673);
#575=AXIS2_PLACEMENT_3D('',#904,#675,#676);
#576=AXIS2_PLACEMENT_3D('',#906,#678,#679);
#577=AXIS2_PLACEMENT_3D('',#909,#680,#681);
#578=AXIS2_PLACEMENT_3D('',#910,#682,#683);
#579=AXIS2_PLACEMENT_3D('',#912,#684,#685);
#580=AXIS2_PLACEMENT_3D('',#913,#686,#687);
#581=AXIS2_PLACEMENT_3D('',#914,#688,#689);
#582=AXIS2_PLACEMENT_3D('',#916,#690,#691);
#583=AXIS2_PLACEMENT_3D('',#930,#692,#693);
#584=AXIS2_PLACEMENT_3D('',#932,#694,#695);
#585=AXIS2_PLACEMENT_3D('',#946,#696,#697);
#586=AXIS2_PLACEMENT_3D('',#948,#698,#699);
#587=AXIS2_PLACEMENT_3D('',#962,#700,#701);
#588=AXIS2_PLACEMENT_3D('',#964,#702,#703);
#589=AXIS2_PLACEMENT_3D('',#978,#704,#705);
#590=AXIS2_PLACEMENT_3D('',#979,#706,#707);
#591=AXIS2_PLACEMENT_3D('',#981,#708,#709);
#592=AXIS2_PLACEMENT_3D('',#983,#711,#712);
#593=AXIS2_PLACEMENT_3D('',#989,#714,#715);
#594=AXIS2_PLACEMENT_3D('',#995,#717,#718);
#595=AXIS2_PLACEMENT_3D('',#1012,#720,#721);
#596=AXIS2_PLACEMENT_3D('',#1016,#722,#723);
#597=AXIS2_PLACEMENT_3D('',#1022,#725,#726);
#598=AXIS2_PLACEMENT_3D('',#1039,#728,#729);
#599=AXIS2_PLACEMENT_3D('',#1058,#732,#733);
#600=AXIS2_PLACEMENT_3D('',#1075,#735,#736);
#601=AXIS2_PLACEMENT_3D('',#1079,#737,#738);
#602=AXIS2_PLACEMENT_3D('',#1083,#739,#740);
#603=AXIS2_PLACEMENT_3D('',#1087,#741,#742);
#604=AXIS2_PLACEMENT_3D('',#1091,#743,#744);
#605=AXIS2_PLACEMENT_3D('',#1094,#746,#747);
#606=AXIS2_PLACEMENT_3D('',#1096,#748,#749);
#607=AXIS2_PLACEMENT_3D('',#1097,#750,#751);
#608=AXIS2_PLACEMENT_3D('',#1099,#752,#753);
#609=AXIS2_PLACEMENT_3D('',#1101,#755,#756);
#610=DIRECTION('axis',(0.,0.,1.));
#611=DIRECTION('refdir',(1.,0.,0.));
#612=DIRECTION('center_axis',(-1.,-3.82835525732815E-16,0.));
#613=DIRECTION('ref_axis',(1.61749783489748E-16,-1.,0.));
#614=DIRECTION('center_axis',(-1.,-3.82835525732813E-16,0.));
#615=DIRECTION('ref_axis',(3.82835525732812E-16,-1.,0.));
#616=DIRECTION('',(-0.707271391141372,0.70694213290265,8.65754420241634E-17));
#617=DIRECTION('center_axis',(1.,3.82835525732813E-16,0.));
#618=DIRECTION('ref_axis',(0.,-1.,0.));
#619=DIRECTION('center_axis',(1.,3.82835525732813E-16,0.));
#620=DIRECTION('ref_axis',(0.,-1.,0.));
#621=DIRECTION('center_axis',(1.,3.82835525732813E-16,0.));
#622=DIRECTION('ref_axis',(0.,1.,0.));
#623=DIRECTION('',(-1.,-3.82835525732813E-16,0.));
#624=DIRECTION('center_axis',(1.,3.82835525732813E-16,0.));
#625=DIRECTION('ref_axis',(0.,1.,0.));
#626=DIRECTION('center_axis',(1.,3.82835525732813E-16,0.));
#627=DIRECTION('ref_axis',(0.,0.,-1.));
#628=DIRECTION('center_axis',(1.,3.82835525732813E-16,0.));
#629=DIRECTION('ref_axis',(0.,0.,-1.));
#630=DIRECTION('center_axis',(1.,3.63662165413872E-16,2.00894949318287E-32));
#631=DIRECTION('ref_axis',(-3.63662165413872E-16,1.,5.42934460534604E-17));
#632=DIRECTION('center_axis',(-1.,-3.82835525732813E-16,0.));
#633=DIRECTION('ref_axis',(-3.85895623749474E-16,1.,-1.38777878078145E-17));
#634=DIRECTION('center_axis',(-1.,-3.82835525732813E-16,0.));
#635=DIRECTION('ref_axis',(0.,1.,0.));
#636=DIRECTION('',(0.89493377805414,-0.439045013297216,0.079580206060243));
#637=DIRECTION('center_axis',(1.,3.82835525732813E-16,0.));
#638=DIRECTION('ref_axis',(0.,1.,0.));
#639=DIRECTION('',(-0.89493377805414,0.439045013297216,0.079580206060243));
#640=DIRECTION('center_axis',(1.,3.82835525732813E-16,0.));
#641=DIRECTION('ref_axis',(0.,0.,-1.));
#642=DIRECTION('center_axis',(1.,3.63662165413872E-16,-1.73610826967835E-30));
#643=DIRECTION('ref_axis',(0.,-4.77395900588817E-15,-1.));
#644=DIRECTION('center_axis',(-1.,-3.82835525732813E-16,0.));
#645=DIRECTION('ref_axis',(0.,-4.82374896839332E-15,-1.));
#646=DIRECTION('center_axis',(-1.,-3.82835525732813E-16,0.));
#647=DIRECTION('ref_axis',(0.,1.,0.));
#648=DIRECTION('',(0.89493377805414,0.0795802060602426,0.439045013297216));
#649=DIRECTION('center_axis',(1.,3.82835525732813E-16,0.));
#650=DIRECTION('ref_axis',(0.,1.,0.));
#651=DIRECTION('',(-0.89493377805414,0.0795802060602426,-0.439045013297216));
#652=DIRECTION('center_axis',(1.,3.82835525732813E-16,0.));
#653=DIRECTION('ref_axis',(0.,0.,-1.));
#654=DIRECTION('center_axis',(1.,3.63662165413872E-16,-1.00838716777333E-31));
#655=DIRECTION('ref_axis',(3.63662165413872E-16,-1.,2.01873054613762E-32));
#656=DIRECTION('center_axis',(-1.,-3.82835525732813E-16,0.));
#657=DIRECTION('ref_axis',(3.85895623749474E-16,-1.,1.22464679914735E-16));
#658=DIRECTION('center_axis',(-1.,-3.82835525732813E-16,0.));
#659=DIRECTION('ref_axis',(7.65671051465625E-16,-1.,1.22464679914735E-16));
#660=DIRECTION('',(0.89493377805414,0.439045013297216,-0.079580206060243));
#661=DIRECTION('center_axis',(1.,3.82835525732813E-16,0.));
#662=DIRECTION('ref_axis',(0.,1.,0.));
#663=DIRECTION('center_axis',(1.,3.82835525732813E-16,0.));
#664=DIRECTION('ref_axis',(0.,1.,0.));
#665=DIRECTION('',(-0.89493377805414,-0.439045013297216,-0.079580206060243));
#666=DIRECTION('center_axis',(1.,3.82835525732813E-16,0.));
#667=DIRECTION('ref_axis',(0.,-4.31842741858589E-15,1.));
#668=DIRECTION('center_axis',(1.,3.63662165413872E-16,1.65535904783285E-30));
#669=DIRECTION('ref_axis',(0.,-4.55191440096314E-15,1.));
#670=DIRECTION('center_axis',(-1.,-3.82835525732813E-16,0.));
#671=DIRECTION('ref_axis',(0.,-4.60170436346829E-15,1.));
#672=DIRECTION('center_axis',(-1.,-3.82835525732813E-16,0.));
#673=DIRECTION('ref_axis',(0.,1.,0.));
#674=DIRECTION('',(0.89493377805414,-0.0795802060602427,-0.439045013297216));
#675=DIRECTION('center_axis',(1.,3.82835525732813E-16,0.));
#676=DIRECTION('ref_axis',(0.,1.,0.));
#677=DIRECTION('',(-0.89493377805414,-0.0795802060602425,0.439045013297216));
#678=DIRECTION('center_axis',(1.,3.82835525732813E-16,0.));
#679=DIRECTION('ref_axis',(0.,0.,-1.));
#680=DIRECTION('center_axis',(-1.,-3.9460981940154E-16,4.38455354890601E-17));
#681=DIRECTION('ref_axis',(3.9460981940154E-16,-1.,0.));
#682=DIRECTION('center_axis',(-1.,-3.9460981940154E-16,4.38455354890601E-17));
#683=DIRECTION('ref_axis',(3.9460981940154E-16,-1.,0.));
#684=DIRECTION('center_axis',(3.82835525732813E-16,-1.,-1.22464679914735E-16));
#685=DIRECTION('ref_axis',(0.,-1.22464679914735E-16,1.));
#686=DIRECTION('center_axis',(1.,3.82835525732813E-16,0.));
#687=DIRECTION('ref_axis',(3.74698707220835E-16,-1.,1.22464679914735E-16));
#688=DIRECTION('center_axis',(-8.88178419700125E-17,-1.80911305991407E-18,
1.));
#689=DIRECTION('ref_axis',(-0.999563449473935,-0.0295450583984471,0.));
#690=DIRECTION('center_axis',(-0.0871557427476582,0.00291182570431108,-0.996190442524506));
#691=DIRECTION('ref_axis',(0.,-0.999995728177185,-0.00292294840545609));
#692=DIRECTION('center_axis',(-0.0871557427476582,-0.996190442524507,0.00291182570431006));
#693=DIRECTION('ref_axis',(0.,0.00292294840545507,0.999995728177185));
#694=DIRECTION('center_axis',(-0.0871557427476582,0.996190442524506,0.00291182570431006));
#695=DIRECTION('ref_axis',(0.,0.00292294840545507,-0.999995728177185));
#696=DIRECTION('center_axis',(-0.0871557427476582,-0.00291182570431108,
-0.996190442524506));
#697=DIRECTION('ref_axis',(0.,-0.999995728177185,0.00292294840545609));
#698=DIRECTION('center_axis',(-0.0871557427476582,-0.00291182570431108,
0.996190442524506));
#699=DIRECTION('ref_axis',(0.,0.999995728177185,0.00292294840545609));
#700=DIRECTION('center_axis',(-0.0871557427476582,0.996190442524507,-0.00291182570431006));
#701=DIRECTION('ref_axis',(0.,-0.00292294840545507,-0.999995728177185));
#702=DIRECTION('center_axis',(-0.0871557427476582,-0.996190442524506,-0.00291182570431006));
#703=DIRECTION('ref_axis',(0.,-0.00292294840545507,0.999995728177185));
#704=DIRECTION('center_axis',(-0.0871557427476582,0.00291182570431108,0.996190442524506));
#705=DIRECTION('ref_axis',(0.,0.999995728177185,-0.00292294840545609));
#706=DIRECTION('center_axis',(1.,3.82835525732813E-16,0.));
#707=DIRECTION('ref_axis',(0.,1.,0.));
#708=DIRECTION('center_axis',(1.,3.82835525732813E-16,0.));
#709=DIRECTION('ref_axis',(0.,1.,0.));
#710=DIRECTION('',(-0.999390827019096,0.0348994967024997,4.27395569285703E-18));
#711=DIRECTION('center_axis',(-0.0871557427476582,-0.00291182570431108,
0.996190442524506));
#712=DIRECTION('ref_axis',(0.,-0.999995728177185,-0.00292294840545609));
#713=DIRECTION('',(0.996194698091746,-0.000254751739290996,0.0871553704337678));
#714=DIRECTION('center_axis',(-0.0871557427476582,-0.00291182570431108,
-0.996190442524506));
#715=DIRECTION('ref_axis',(0.,0.999995728177185,-0.00292294840545609));
#716=DIRECTION('',(0.996194698091746,-0.000254751739290613,-0.0871553704337679));
#717=DIRECTION('center_axis',(1.,0.,0.));
#718=DIRECTION('ref_axis',(0.,-0.00292294840546058,-0.999995728177185));
#719=DIRECTION('',(0.996194698091746,0.0871553704337679,0.000254751739290526));
#720=DIRECTION('center_axis',(-0.0871557427476582,0.996190442524506,0.00291182570431006));
#721=DIRECTION('ref_axis',(0.,-0.00292294840545507,0.999995728177185));
#722=DIRECTION('center_axis',(-0.0871557427476582,-0.996190442524507,0.00291182570431006));
#723=DIRECTION('ref_axis',(0.,-0.00292294840545507,-0.999995728177185));
#724=DIRECTION('',(0.996194698091746,-0.0871553704337679,0.000254751739290526));
#725=DIRECTION('center_axis',(1.,0.,0.));
#726=DIRECTION('ref_axis',(0.,-0.999995728177185,0.0029229484054552));
#727=DIRECTION('',(0.996194698091746,0.000254751739290996,-0.0871553704337678));
#728=DIRECTION('center_axis',(1.,0.,0.));
#729=DIRECTION('ref_axis',(0.,0.00292294840546058,0.999995728177185));
#730=DIRECTION('',(0.996194698091746,-0.0871553704337679,-0.000254751739290526));
#731=DIRECTION('',(0.996194698091746,0.000254751739290613,0.0871553704337679));
#732=DIRECTION('center_axis',(1.,0.,0.));
#733=DIRECTION('ref_axis',(0.,0.999995728177185,-0.0029229484054552));
#734=DIRECTION('',(0.996194698091746,0.0871553704337679,-0.000254751739290526));
#735=DIRECTION('center_axis',(-0.0871557427476582,0.00291182570431108,-0.996190442524506));
#736=DIRECTION('ref_axis',(0.,0.999995728177185,0.00292294840545609));
#737=DIRECTION('center_axis',(-0.0871557427476582,-0.996190442524506,-0.00291182570431006));
#738=DIRECTION('ref_axis',(0.,0.00292294840545507,-0.999995728177185));
#739=DIRECTION('center_axis',(-0.0871557427476582,0.00291182570431108,0.996190442524506));
#740=DIRECTION('ref_axis',(0.,-0.999995728177185,0.00292294840545609));
#741=DIRECTION('center_axis',(-0.0871557427476582,0.996190442524507,-0.00291182570431006));
#742=DIRECTION('ref_axis',(0.,0.00292294840545507,0.999995728177185));
#743=DIRECTION('center_axis',(-1.,-3.82835525732813E-16,0.));
#744=DIRECTION('ref_axis',(0.,1.,0.));
#745=DIRECTION('',(-0.469471562785892,-0.882947592858927,-1.08129894340954E-16));
#746=DIRECTION('center_axis',(1.,3.82835525732813E-16,0.));
#747=DIRECTION('ref_axis',(0.,0.,-1.));
#748=DIRECTION('center_axis',(1.,3.82835525732813E-16,0.));
#749=DIRECTION('ref_axis',(0.,1.,0.));
#750=DIRECTION('center_axis',(1.,3.82835525732813E-16,0.));
#751=DIRECTION('ref_axis',(0.,1.,0.));
#752=DIRECTION('center_axis',(1.,3.82835525732813E-16,0.));
#753=DIRECTION('ref_axis',(0.,1.,0.));
#754=DIRECTION('',(-1.,-3.82835525732813E-16,0.));
#755=DIRECTION('center_axis',(1.,3.82835525732813E-16,0.));
#756=DIRECTION('ref_axis',(0.,1.,0.));
#757=DIRECTION('',(-0.914923934160439,0.403626305758661,4.94299663399016E-17));
#758=CARTESIAN_POINT('',(0.,0.,0.));
#759=CARTESIAN_POINT('Origin',(3.89259625,5.50999715202886E-15,0.));
#760=CARTESIAN_POINT('',(4.,0.585292500000007,-7.16776586689954E-17));
#761=CARTESIAN_POINT('Origin',(4.,5.55111512312578E-15,0.));
#762=CARTESIAN_POINT('',(3.7851925,0.800000000000007,9.79717439317884E-17));
#763=CARTESIAN_POINT('',(3.89259625,0.692646250000007,8.48247013003919E-17));
#764=CARTESIAN_POINT('',(3.7851925,-0.799999999999996,-9.79717439317884E-17));
#765=CARTESIAN_POINT('Origin',(3.7851925,5.46887918093193E-15,0.));
#766=CARTESIAN_POINT('Origin',(3.7851925,5.46887918093193E-15,0.));
#767=CARTESIAN_POINT('Origin',(2.35,4.91943650566664E-15,0.));
#768=CARTESIAN_POINT('',(0.699999999999998,-0.799999999999997,-9.79717439317884E-17));
#769=CARTESIAN_POINT('',(2.35,-0.799999999999997,-9.79717439317884E-17));
#770=CARTESIAN_POINT('Origin',(0.699999999999998,4.2877578882075E-15,0.));
#771=CARTESIAN_POINT('Origin',(4.,0.400000000000006,0.));
#772=CARTESIAN_POINT('Origin',(-1.09918275197256,3.59896681346668E-15,0.));
#773=CARTESIAN_POINT('',(-1.15572003275877,0.825663063528063,-0.137344940876848));
#774=CARTESIAN_POINT('',(-1.12595462075915,0.751275294385861,-0.134523361097214));
#775=CARTESIAN_POINT('Ctrl Pts',(-1.12595461048019,0.75127531500818,-0.134523360258195));
#776=CARTESIAN_POINT('Ctrl Pts',(-1.13162659681463,0.754057927028482,-0.135027730348081));
#777=CARTESIAN_POINT('Ctrl Pts',(-1.13726655228691,0.758150217388933,-0.135533126227242));
#778=CARTESIAN_POINT('Ctrl Pts',(-1.14677914496617,0.767618709873075,-0.136393049835867));
#779=CARTESIAN_POINT('Ctrl Pts',(-1.15172356742422,0.775033571550151,-0.136847305947246));
#780=CARTESIAN_POINT('Ctrl Pts',(-1.15743819128,0.788855754742534,-0.137387674587622));
#781=CARTESIAN_POINT('Ctrl Pts',(-1.15918275197257,0.797720196276479,-0.137566214938995));
#782=CARTESIAN_POINT('Ctrl Pts',(-1.15918275197257,0.811750122874309,-0.137607223865755));
#783=CARTESIAN_POINT('Ctrl Pts',(-1.15795153102616,0.819266953856791,-0.137521476933488));
#784=CARTESIAN_POINT('Ctrl Pts',(-1.15572003275882,0.82566306352794,-0.137344940876852));
#785=CARTESIAN_POINT('',(-1.12595462075915,0.751275294385861,0.134523361097214));
#786=CARTESIAN_POINT('Origin',(-1.12595462075915,3.67761376907083E-15,-5.20299337186744E-17));
#787=CARTESIAN_POINT('',(-1.15572003275877,0.825663063528063,0.137344940876848));
#788=CARTESIAN_POINT('Ctrl Pts',(-1.15572003275878,0.825663063528063,0.137344940876848));
#789=CARTESIAN_POINT('Ctrl Pts',(-1.15795153102614,0.819266953856887,0.137521476933487));
#790=CARTESIAN_POINT('Ctrl Pts',(-1.15918275197257,0.811750122874351,0.137607223865756));
#791=CARTESIAN_POINT('Ctrl Pts',(-1.15918275197257,0.797720196276479,0.137566214938995));
#792=CARTESIAN_POINT('Ctrl Pts',(-1.15743819128,0.788855754742534,0.137387674587622));
#793=CARTESIAN_POINT('Ctrl Pts',(-1.15172356742422,0.775033571550151,0.136847305947246));
#794=CARTESIAN_POINT('Ctrl Pts',(-1.14677914496617,0.767618709873074,0.136393049835867));
#795=CARTESIAN_POINT('Ctrl Pts',(-1.13726655228691,0.758150217388933,0.135533126227242));
#796=CARTESIAN_POINT('Ctrl Pts',(-1.13162659681463,0.754057927028482,0.135027730348081));
#797=CARTESIAN_POINT('Ctrl Pts',(-1.12595461048019,0.75127531500818,0.134523360258195));
#798=CARTESIAN_POINT('Origin',(-1.15572003275877,3.57612085472459E-15,0.));
#799=CARTESIAN_POINT('Origin',(-0.897646660353046,3.67612198905597E-15,
0.));
#800=CARTESIAN_POINT('',(-0.622292350807832,0.504183930275224,-0.0897361955991754));
#801=CARTESIAN_POINT('',(-0.897646660353046,0.639269832115449,-0.114221529855783));
#802=CARTESIAN_POINT('',(-0.622292350807832,0.504183930275224,0.0897361955991754));
#803=CARTESIAN_POINT('Origin',(-0.622292350807832,3.78153740091351E-15,
0.));
#804=CARTESIAN_POINT('',(-0.897646660353046,0.639269832115449,0.114221529855783));
#805=CARTESIAN_POINT('Origin',(-1.09918275197256,3.59896681346668E-15,0.));
#806=CARTESIAN_POINT('',(-1.15572003275877,-0.137344940876848,-0.825663063528058));
#807=CARTESIAN_POINT('',(-1.12595462075915,-0.134523361097214,-0.751275294385856));
#808=CARTESIAN_POINT('Ctrl Pts',(-1.12595461048019,-0.134523360258195,-0.751275315008175));
#809=CARTESIAN_POINT('Ctrl Pts',(-1.13162659681463,-0.13502773034808,-0.754057927028478));
#810=CARTESIAN_POINT('Ctrl Pts',(-1.13726655228691,-0.135533126227241,-0.758150217388929));
#811=CARTESIAN_POINT('Ctrl Pts',(-1.14677914496617,-0.136393049835866,-0.76761870987307));
#812=CARTESIAN_POINT('Ctrl Pts',(-1.15172356742422,-0.136847305947246,-0.775033571550146));
#813=CARTESIAN_POINT('Ctrl Pts',(-1.15743819128,-0.137387674587622,-0.78885575474253));
#814=CARTESIAN_POINT('Ctrl Pts',(-1.15918275197256,-0.137566214938994,-0.797720196276475));
#815=CARTESIAN_POINT('Ctrl Pts',(-1.15918275197256,-0.137607223865755,-0.811750122874305));
#816=CARTESIAN_POINT('Ctrl Pts',(-1.15795153102616,-0.137521476933488,-0.819266953856787));
#817=CARTESIAN_POINT('Ctrl Pts',(-1.15572003275882,-0.137344940876851,-0.825663063527936));
#818=CARTESIAN_POINT('',(-1.12595462075915,0.134523361097214,-0.751275294385858));
#819=CARTESIAN_POINT('Origin',(-1.12595462075915,3.55071668795144E-15,0.));
#820=CARTESIAN_POINT('',(-1.15572003275877,0.137344940876847,-0.82566306352806));
#821=CARTESIAN_POINT('Ctrl Pts',(-1.15572003275878,0.137344940876848,-0.82566306352806));
#822=CARTESIAN_POINT('Ctrl Pts',(-1.15795153102614,0.137521476933486,-0.819266953856884));
#823=CARTESIAN_POINT('Ctrl Pts',(-1.15918275197256,0.137607223865755,-0.811750122874348));
#824=CARTESIAN_POINT('Ctrl Pts',(-1.15918275197256,0.137566214938994,-0.797720196276476));
#825=CARTESIAN_POINT('Ctrl Pts',(-1.15743819128,0.137387674587622,-0.788855754742531));
#826=CARTESIAN_POINT('Ctrl Pts',(-1.15172356742422,0.136847305947246,-0.775033571550148));
#827=CARTESIAN_POINT('Ctrl Pts',(-1.14677914496617,0.136393049835866,-0.767618709873072));
#828=CARTESIAN_POINT('Ctrl Pts',(-1.13726655228691,0.135533126227241,-0.758150217388931));
#829=CARTESIAN_POINT('Ctrl Pts',(-1.13162659681463,0.13502773034808,-0.754057927028479));
#830=CARTESIAN_POINT('Ctrl Pts',(-1.12595461048019,0.134523360258195,-0.751275315008177));
#831=CARTESIAN_POINT('Origin',(-1.15572003275877,3.57612085472459E-15,0.));
#832=CARTESIAN_POINT('Origin',(-0.897646660353046,3.67612198905597E-15,
0.));
#833=CARTESIAN_POINT('',(-0.622292350807832,-0.0897361955991752,-0.504183930275219));
#834=CARTESIAN_POINT('',(-0.897646660353046,-0.114221529855782,-0.639269832115445));
#835=CARTESIAN_POINT('',(-0.622292350807832,0.0897361955991752,-0.504183930275221));
#836=CARTESIAN_POINT('Origin',(-0.622292350807832,3.78153740091351E-15,
0.));
#837=CARTESIAN_POINT('',(-0.897646660353046,0.114221529855782,-0.639269832115447));
#838=CARTESIAN_POINT('Origin',(-1.09918275197256,3.59896681346668E-15,0.));
#839=CARTESIAN_POINT('',(-1.15572003275877,-0.825663063528055,0.137344940876848));
#840=CARTESIAN_POINT('',(-1.12595462075915,-0.751275294385853,0.134523361097214));
#841=CARTESIAN_POINT('Ctrl Pts',(-1.12595461048019,-0.751275315008172,0.134523360258195));
#842=CARTESIAN_POINT('Ctrl Pts',(-1.13162659681463,-0.754057927028474,0.135027730348081));
#843=CARTESIAN_POINT('Ctrl Pts',(-1.13726655228691,-0.758150217388926,0.135533126227242));
#844=CARTESIAN_POINT('Ctrl Pts',(-1.14677914496617,-0.767618709873067,0.136393049835867));
#845=CARTESIAN_POINT('Ctrl Pts',(-1.15172356742422,-0.775033571550143,0.136847305947246));
#846=CARTESIAN_POINT('Ctrl Pts',(-1.15743819128,-0.788855754742527,0.137387674587622));
#847=CARTESIAN_POINT('Ctrl Pts',(-1.15918275197256,-0.797720196276472,0.137566214938995));
#848=CARTESIAN_POINT('Ctrl Pts',(-1.15918275197256,-0.811750122874302,0.137607223865755));
#849=CARTESIAN_POINT('Ctrl Pts',(-1.15795153102616,-0.819266953856784,0.137521476933488));
#850=CARTESIAN_POINT('Ctrl Pts',(-1.15572003275882,-0.825663063527933,0.137344940876851));
#851=CARTESIAN_POINT('',(-1.12595462075915,-0.751275294385853,-0.134523361097214));
#852=CARTESIAN_POINT('Origin',(-1.12595462075915,3.67761376907083E-15,-9.34680042876841E-17));
#853=CARTESIAN_POINT('',(-1.15572003275877,-0.825663063528055,-0.137344940876848));
#854=CARTESIAN_POINT('Ctrl Pts',(-1.15572003275878,-0.825663063528056,-0.137344940876848));
#855=CARTESIAN_POINT('Ctrl Pts',(-1.15795153102614,-0.81926695385688,-0.137521476933487));
#856=CARTESIAN_POINT('Ctrl Pts',(-1.15918275197256,-0.811750122874344,-0.137607223865756));
#857=CARTESIAN_POINT('Ctrl Pts',(-1.15918275197256,-0.797720196276472,-0.137566214938995));
#858=CARTESIAN_POINT('Ctrl Pts',(-1.15743819128,-0.788855754742527,-0.137387674587622));
#859=CARTESIAN_POINT('Ctrl Pts',(-1.15172356742422,-0.775033571550143,-0.136847305947246));
#860=CARTESIAN_POINT('Ctrl Pts',(-1.14677914496617,-0.767618709873067,-0.136393049835867));
#861=CARTESIAN_POINT('Ctrl Pts',(-1.13726655228691,-0.758150217388926,-0.135533126227242));
#862=CARTESIAN_POINT('Ctrl Pts',(-1.13162659681463,-0.754057927028474,-0.135027730348081));
#863=CARTESIAN_POINT('Ctrl Pts',(-1.12595461048019,-0.751275315008172,-0.134523360258195));
#864=CARTESIAN_POINT('Origin',(-1.15572003275877,3.57612085472459E-15,0.));
#865=CARTESIAN_POINT('Origin',(-0.897646660353046,3.67612198905597E-15,
0.));
#866=CARTESIAN_POINT('',(-0.622292350807832,-0.504183930275216,0.0897361955991753));
#867=CARTESIAN_POINT('',(-0.897646660353046,-0.639269832115442,0.114221529855783));
#868=CARTESIAN_POINT('',(-0.622292350807833,-0.512107430475654,-6.27150725551591E-17));
#869=CARTESIAN_POINT('Origin',(-0.622292350807832,3.78153740091351E-15,
0.));
#870=CARTESIAN_POINT('',(-0.622292350807832,-0.504183930275216,-0.0897361955991754));
#871=CARTESIAN_POINT('Origin',(-0.622292350807832,3.78153740091351E-15,
0.));
#872=CARTESIAN_POINT('',(-0.897646660353046,-0.639269832115442,-0.114221529855783));
#873=CARTESIAN_POINT('Origin',(-1.09918275197256,3.59896681346668E-15,0.));
#874=CARTESIAN_POINT('',(-1.15572003275877,0.137344940876848,0.82566306352806));
#875=CARTESIAN_POINT('',(-1.12595462075915,0.134523361097214,0.751275294385858));
#876=CARTESIAN_POINT('Ctrl Pts',(-1.12595461048019,0.134523360258195,0.751275315008177));
#877=CARTESIAN_POINT('Ctrl Pts',(-1.13162659681463,0.13502773034808,0.754057927028479));
#878=CARTESIAN_POINT('Ctrl Pts',(-1.13726655228691,0.135533126227241,0.758150217388931));
#879=CARTESIAN_POINT('Ctrl Pts',(-1.14677914496617,0.136393049835866,0.767618709873072));
#880=CARTESIAN_POINT('Ctrl Pts',(-1.15172356742422,0.136847305947246,0.775033571550148));
#881=CARTESIAN_POINT('Ctrl Pts',(-1.15743819128,0.137387674587622,0.788855754742531));
#882=CARTESIAN_POINT('Ctrl Pts',(-1.15918275197256,0.137566214938994,0.797720196276476));
#883=CARTESIAN_POINT('Ctrl Pts',(-1.15918275197256,0.137607223865755,0.811750122874306));
#884=CARTESIAN_POINT('Ctrl Pts',(-1.15795153102616,0.137521476933488,0.819266953856788));
#885=CARTESIAN_POINT('Ctrl Pts',(-1.15572003275882,0.137344940876851,0.825663063527937));
#886=CARTESIAN_POINT('',(-1.12595462075915,-0.134523361097214,0.751275294385856));
#887=CARTESIAN_POINT('Origin',(-1.12595462075915,3.55071668795144E-15,0.));
#888=CARTESIAN_POINT('',(-1.15572003275877,-0.137344940876848,0.825663063528058));
#889=CARTESIAN_POINT('Ctrl Pts',(-1.15572003275878,-0.137344940876848,0.825663063528059));
#890=CARTESIAN_POINT('Ctrl Pts',(-1.15795153102614,-0.137521476933486,0.819266953856883));
#891=CARTESIAN_POINT('Ctrl Pts',(-1.15918275197256,-0.137607223865755,0.811750122874347));
#892=CARTESIAN_POINT('Ctrl Pts',(-1.15918275197256,-0.137566214938994,0.797720196276475));
#893=CARTESIAN_POINT('Ctrl Pts',(-1.15743819128,-0.137387674587622,0.78885575474253));
#894=CARTESIAN_POINT('Ctrl Pts',(-1.15172356742422,-0.136847305947246,0.775033571550146));
#895=CARTESIAN_POINT('Ctrl Pts',(-1.14677914496617,-0.136393049835866,0.76761870987307));
#896=CARTESIAN_POINT('Ctrl Pts',(-1.13726655228691,-0.135533126227241,0.758150217388929));
#897=CARTESIAN_POINT('Ctrl Pts',(-1.13162659681463,-0.13502773034808,0.754057927028478));
#898=CARTESIAN_POINT('Ctrl Pts',(-1.12595461048019,-0.134523360258195,0.751275315008175));
#899=CARTESIAN_POINT('Origin',(-1.15572003275877,3.57612085472459E-15,0.));
#900=CARTESIAN_POINT('Origin',(-0.897646660353046,3.67612198905597E-15,
0.));
#901=CARTESIAN_POINT('',(-0.622292350807832,0.0897361955991752,0.504183930275221));
#902=CARTESIAN_POINT('',(-0.897646660353046,0.114221529855782,0.639269832115447));
#903=CARTESIAN_POINT('',(-0.622292350807832,-0.0897361955991752,0.504183930275219));
#904=CARTESIAN_POINT('Origin',(-0.622292350807832,3.78153740091351E-15,
0.));
#905=CARTESIAN_POINT('',(-0.897646660353046,-0.114221529855782,0.639269832115445));
#906=CARTESIAN_POINT('Origin',(-0.481477719268641,3.83544624440969E-15,
0.));
#907=CARTESIAN_POINT('',(-0.498927467619891,3.63495606664125E-15,1.58257706891014));
#908=CARTESIAN_POINT('',(-0.498927467619892,-1.58257706891014,-1.93809794184481E-16));
#909=CARTESIAN_POINT('Origin',(-0.498927467619891,3.88578058618805E-15,
-1.93809794184481E-16));
#910=CARTESIAN_POINT('Origin',(-0.498927467619891,3.88578058618805E-15,
-1.93809794184481E-16));
#911=CARTESIAN_POINT('',(-0.9018471490858,3.50874544860092E-15,1.35360206925075));
#912=CARTESIAN_POINT('Origin',(-0.481477719268641,3.70283148909551E-15,
1.0828816554006));
#913=CARTESIAN_POINT('Origin',(-0.9018471490858,3.66229885493426E-15,0.));
#914=CARTESIAN_POINT('Origin',(1.2,4.52803580231139E-15,0.));
#915=CARTESIAN_POINT('',(-1.28232706334313,0.257901589172487,0.146762123508048));
#916=CARTESIAN_POINT('Origin',(1.19382091942308,0.000206439703065593,-0.0706269124702594));
#917=CARTESIAN_POINT('',(-1.28232706334313,0.146762123508048,0.257901589172487));
#918=CARTESIAN_POINT('Ctrl Pts',(-1.28232706334313,0.146762123508048,0.257901589172487));
#919=CARTESIAN_POINT('Ctrl Pts',(-1.28375889991807,0.146846969417217,0.244071744783075));
#920=CARTESIAN_POINT('Ctrl Pts',(-1.28500391438242,0.149661917316209,0.229292859015148));
#921=CARTESIAN_POINT('Ctrl Pts',(-1.28665979389606,0.160979518795433,0.202056979922165));
#922=CARTESIAN_POINT('Ctrl Pts',(-1.28707072478847,0.169482512050966,0.189600131750241));
#923=CARTESIAN_POINT('Ctrl Pts',(-1.28708247410268,0.18908822342195,0.169881413847433));
#924=CARTESIAN_POINT('Ctrl Pts',(-1.2866841502684,0.201494913505993,0.161307322841478));
#925=CARTESIAN_POINT('Ctrl Pts',(-1.28505157694418,0.228663454009494,0.149833242288908));
#926=CARTESIAN_POINT('Ctrl Pts',(-1.28381726229403,0.243425160013147,0.146932920066063));
#927=CARTESIAN_POINT('Ctrl Pts',(-1.28237173285455,0.257469501141656,0.146765401027197));
#928=CARTESIAN_POINT('Ctrl Pts',(-1.28234944201614,0.257685437713117,0.146763449594342));
#929=CARTESIAN_POINT('Ctrl Pts',(-1.28232706334313,0.257901589172487,0.146762123508049));
#930=CARTESIAN_POINT('Origin',(1.19382091942308,-0.0706269124702591,0.000206439703061005));
#931=CARTESIAN_POINT('',(-1.28232706334313,-0.146762123508048,0.257901589172487));
#932=CARTESIAN_POINT('Origin',(1.19382091942308,0.0706269124702591,0.000206439703060979));
#933=CARTESIAN_POINT('',(-1.28232706334313,-0.257901589172487,0.146762123508048));
#934=CARTESIAN_POINT('Ctrl Pts',(-1.28232706334313,-0.257901589172487,0.146762123508048));
#935=CARTESIAN_POINT('Ctrl Pts',(-1.28375889991806,-0.244071744783075,0.146846969417218));
#936=CARTESIAN_POINT('Ctrl Pts',(-1.28500391438242,-0.229292859015148,0.14966191731621));
#937=CARTESIAN_POINT('Ctrl Pts',(-1.28665979389606,-0.202056979922165,0.160979518795433));
#938=CARTESIAN_POINT('Ctrl Pts',(-1.28707072478847,-0.189600131750241,0.169482512050966));
#939=CARTESIAN_POINT('Ctrl Pts',(-1.28708247410268,-0.169881413847433,0.18908822342195));
#940=CARTESIAN_POINT('Ctrl Pts',(-1.2866841502684,-0.161307322841477,0.201494913505992));
#941=CARTESIAN_POINT('Ctrl Pts',(-1.28505157694418,-0.149833242288908,0.228663454009494));
#942=CARTESIAN_POINT('Ctrl Pts',(-1.28381726229403,-0.146932920066063,0.243425160013147));
#943=CARTESIAN_POINT('Ctrl Pts',(-1.28237173285455,-0.146765401027196,0.257469501141656));
#944=CARTESIAN_POINT('Ctrl Pts',(-1.28234944201613,-0.146763449594342,0.257685437713117));
#945=CARTESIAN_POINT('Ctrl Pts',(-1.28232706334313,-0.146762123508048,0.257901589172487));
#946=CARTESIAN_POINT('Origin',(1.19382091942308,-0.000206439703056537,-0.0706269124702594));
#947=CARTESIAN_POINT('',(-1.28232706334313,-0.257901589172487,-0.146762123508048));
#948=CARTESIAN_POINT('Origin',(1.19382091942308,-0.000206439703056537,0.0706269124702594));
#949=CARTESIAN_POINT('',(-1.28232706334313,-0.146762123508048,-0.257901589172487));
#950=CARTESIAN_POINT('Ctrl Pts',(-1.28232706334313,-0.146762123508048,-0.257901589172487));
#951=CARTESIAN_POINT('Ctrl Pts',(-1.28375889991806,-0.146846969417217,-0.244071744783075));
#952=CARTESIAN_POINT('Ctrl Pts',(-1.28500391438242,-0.149661917316209,-0.229292859015148));
#953=CARTESIAN_POINT('Ctrl Pts',(-1.28665979389606,-0.160979518795433,-0.202056979922164));
#954=CARTESIAN_POINT('Ctrl Pts',(-1.28707072478847,-0.169482512050966,-0.189600131750241));
#955=CARTESIAN_POINT('Ctrl Pts',(-1.28708247410268,-0.18908822342195,-0.169881413847433));
#956=CARTESIAN_POINT('Ctrl Pts',(-1.2866841502684,-0.201494913505993,-0.161307322841477));
#957=CARTESIAN_POINT('Ctrl Pts',(-1.28505157694418,-0.228663454009494,-0.149833242288908));
#958=CARTESIAN_POINT('Ctrl Pts',(-1.28381726229403,-0.243425160013147,-0.146932920066063));
#959=CARTESIAN_POINT('Ctrl Pts',(-1.28237173285455,-0.257469501141656,-0.146765401027196));
#960=CARTESIAN_POINT('Ctrl Pts',(-1.28234944201613,-0.257685437713117,-0.146763449594342));
#961=CARTESIAN_POINT('Ctrl Pts',(-1.28232706334313,-0.257901589172487,-0.146762123508048));
#962=CARTESIAN_POINT('Origin',(1.19382091942308,0.0706269124702592,-0.000206439703060979));
#963=CARTESIAN_POINT('',(-1.28232706334313,0.146762123508048,-0.257901589172487));
#964=CARTESIAN_POINT('Origin',(1.19382091942308,-0.0706269124702591,-0.000206439703061005));
#965=CARTESIAN_POINT('',(-1.28232706334313,0.257901589172487,-0.146762123508048));
#966=CARTESIAN_POINT('Ctrl Pts',(-1.28232706334313,0.257901589172487,-0.146762123508049));
#967=CARTESIAN_POINT('Ctrl Pts',(-1.28375889991807,0.244071744783075,-0.146846969417218));
#968=CARTESIAN_POINT('Ctrl Pts',(-1.28500391438242,0.229292859015148,-0.14966191731621));
#969=CARTESIAN_POINT('Ctrl Pts',(-1.28665979389606,0.202056979922165,-0.160979518795433));
#970=CARTESIAN_POINT('Ctrl Pts',(-1.28707072478847,0.189600131750241,-0.169482512050966));
#971=CARTESIAN_POINT('Ctrl Pts',(-1.28708247410268,0.169881413847433,-0.18908822342195));
#972=CARTESIAN_POINT('Ctrl Pts',(-1.2866841502684,0.161307322841477,-0.201494913505993));
#973=CARTESIAN_POINT('Ctrl Pts',(-1.28505157694418,0.149833242288908,-0.228663454009494));
#974=CARTESIAN_POINT('Ctrl Pts',(-1.28381726229403,0.146932920066063,-0.243425160013147));
#975=CARTESIAN_POINT('Ctrl Pts',(-1.28237173285455,0.146765401027196,-0.257469501141656));
#976=CARTESIAN_POINT('Ctrl Pts',(-1.28234944201614,0.146763449594342,-0.257685437713117));
#977=CARTESIAN_POINT('Ctrl Pts',(-1.28232706334313,0.146762123508048,-0.257901589172487));
#978=CARTESIAN_POINT('Origin',(1.19382091942308,0.000206439703065593,0.0706269124702594));
#979=CARTESIAN_POINT('Origin',(-0.371116642155842,3.8776963853866E-15,0.));
#980=CARTESIAN_POINT('',(1.17961196366423E-15,-1.6,-1.95943487863577E-16));
#981=CARTESIAN_POINT('Origin',(5.55111512312578E-16,4.01977302019453E-15,
0.));
#982=CARTESIAN_POINT('',(-0.371116642155842,-1.58704032128472,-1.94356384957913E-16));
#983=CARTESIAN_POINT('Origin',(-1.3,-0.836660026534076,-0.150000000000001));
#984=CARTESIAN_POINT('',(-0.493324905038782,-0.258103356630713,-0.0777336740374958));
#985=CARTESIAN_POINT('Ctrl Pts',(-0.493324905038782,-0.258103356630713,
-0.0777336740374958));
#986=CARTESIAN_POINT('Ctrl Pts',(-0.537002470863039,-0.342668244922556,
-0.0818021620827758));
#987=CARTESIAN_POINT('Ctrl Pts',(-0.622292350807832,-0.504183930275215,
-0.0897361955991754));
#988=CARTESIAN_POINT('',(-1.3,-0.25789706976342,-0.148308298511722));
#989=CARTESIAN_POINT('Origin',(-1.3,-0.25789706976342,0.148308298511722));
#990=CARTESIAN_POINT('',(-0.493324905038782,-0.258103356630713,0.0777336740374957));
#991=CARTESIAN_POINT('',(-1.3,-0.25789706976342,0.148308298511722));
#992=CARTESIAN_POINT('Ctrl Pts',(-0.622292350807832,-0.504183930275215,
0.0897361955991754));
#993=CARTESIAN_POINT('Ctrl Pts',(-0.537002470863042,-0.342668244922562,
0.0818021620827761));
#994=CARTESIAN_POINT('Ctrl Pts',(-0.493324905038782,-0.258103356630713,
0.0777336740374957));
#995=CARTESIAN_POINT('Origin',(-1.3,-0.257577679635719,0.25757767963572));
#996=CARTESIAN_POINT('',(-0.493324905038781,-0.0777336740374957,0.258103356630713));
#997=CARTESIAN_POINT('',(-1.3,-0.148308298511722,0.257897069763419));
#998=CARTESIAN_POINT('Ctrl Pts',(-0.493324905038782,-0.258103356630713,
0.0777336740374963));
#999=CARTESIAN_POINT('Ctrl Pts',(-0.483531931691601,-0.239143012080344,
0.0768214758817871));
#1000=CARTESIAN_POINT('Ctrl Pts',(-0.473973382158029,-0.219612902969023,
0.0791241330500696));
#1001=CARTESIAN_POINT('Ctrl Pts',(-0.460845899164146,-0.18935155123268,
0.0875953651292389));
#1002=CARTESIAN_POINT('Ctrl Pts',(-0.455462282830101,-0.175658144314488,
0.0930768960430425));
#1003=CARTESIAN_POINT('Ctrl Pts',(-0.447929821260098,-0.149789639473003,
0.107943586153074));
#1004=CARTESIAN_POINT('Ctrl Pts',(-0.445852189528842,-0.137601211700714,
0.117341541508048));
#1005=CARTESIAN_POINT('Ctrl Pts',(-0.445852189528842,-0.117341541508046,
0.137601211700716));
#1006=CARTESIAN_POINT('Ctrl Pts',(-0.447929821260098,-0.107943586153072,
0.149789639473005));
#1007=CARTESIAN_POINT('Ctrl Pts',(-0.455462282830101,-0.093076896043041,
0.17565814431449));
#1008=CARTESIAN_POINT('Ctrl Pts',(-0.460845899164146,-0.0875953651292377,
0.189351551232682));
#1009=CARTESIAN_POINT('Ctrl Pts',(-0.473973382158028,-0.0791241330500689,
0.219612902969025));
#1010=CARTESIAN_POINT('Ctrl Pts',(-0.4835319316916,-0.0768214758817866,
0.239143012080345));
#1011=CARTESIAN_POINT('Ctrl Pts',(-0.493324905038781,-0.0777336740374957,
0.258103356630713));
#1012=CARTESIAN_POINT('Origin',(-1.3,-0.15,0.836660026534076));
#1013=CARTESIAN_POINT('Ctrl Pts',(-0.493324905038781,-0.0777336740374957,
0.258103356630713));
#1014=CARTESIAN_POINT('Ctrl Pts',(-0.53700247086304,-0.081802162082776,
0.342668244922561));
#1015=CARTESIAN_POINT('Ctrl Pts',(-0.622292350807832,-0.0897361955991752,
0.504183930275218));
#1016=CARTESIAN_POINT('Origin',(-1.3,0.148308298511722,0.257897069763419));
#1017=CARTESIAN_POINT('',(-0.493324905038779,0.0777336740374956,0.258103356630713));
#1018=CARTESIAN_POINT('',(-1.3,0.148308298511722,0.257897069763419));
#1019=CARTESIAN_POINT('Ctrl Pts',(-0.622292350807832,0.0897361955991752,
0.50418393027522));
#1020=CARTESIAN_POINT('Ctrl Pts',(-0.53700247086304,0.0818021620827759,
0.342668244922562));
#1021=CARTESIAN_POINT('Ctrl Pts',(-0.493324905038779,0.0777336740374956,
0.258103356630713));
#1022=CARTESIAN_POINT('Origin',(-1.3,0.257577679635719,0.25757767963572));
#1023=CARTESIAN_POINT('',(-0.493324905038778,0.258103356630713,0.0777336740374955));
#1024=CARTESIAN_POINT('',(-1.3,0.25789706976342,0.148308298511722));
#1025=CARTESIAN_POINT('Ctrl Pts',(-0.493324905038779,0.0777336740374956,
0.258103356630713));
#1026=CARTESIAN_POINT('Ctrl Pts',(-0.483531931691598,0.0768214758817865,
0.239143012080343));
#1027=CARTESIAN_POINT('Ctrl Pts',(-0.473973382158026,0.0791241330500691,
0.219612902969023));
#1028=CARTESIAN_POINT('Ctrl Pts',(-0.460845899164143,0.0875953651292387,
0.189351551232679));
#1029=CARTESIAN_POINT('Ctrl Pts',(-0.455462282830098,0.0930768960430422,
0.175658144314487));
#1030=CARTESIAN_POINT('Ctrl Pts',(-0.447929821260095,0.107943586153073,
0.149789639473003));
#1031=CARTESIAN_POINT('Ctrl Pts',(-0.445852189528839,0.117341541508048,
0.137601211700714));
#1032=CARTESIAN_POINT('Ctrl Pts',(-0.445852189528839,0.137601211700716,
0.117341541508046));
#1033=CARTESIAN_POINT('Ctrl Pts',(-0.447929821260095,0.149789639473005,
0.107943586153072));
#1034=CARTESIAN_POINT('Ctrl Pts',(-0.455462282830098,0.175658144314489,
0.0930768960430413));
#1035=CARTESIAN_POINT('Ctrl Pts',(-0.460845899164143,0.189351551232681,
0.087595365129238));
#1036=CARTESIAN_POINT('Ctrl Pts',(-0.473973382158026,0.219612902969025,
0.079124133050069));
#1037=CARTESIAN_POINT('Ctrl Pts',(-0.483531931691598,0.239143012080345,
0.0768214758817868));
#1038=CARTESIAN_POINT('Ctrl Pts',(-0.493324905038778,0.258103356630713,
0.077733674037496));
#1039=CARTESIAN_POINT('Origin',(-1.3,0.257577679635719,-0.25757767963572));
#1040=CARTESIAN_POINT('',(-0.493324905038779,0.0777336740374956,-0.258103356630713));
#1041=CARTESIAN_POINT('',(-1.3,0.148308298511722,-0.257897069763419));
#1042=CARTESIAN_POINT('',(-0.493324905038778,0.258103356630713,-0.0777336740374954));
#1043=CARTESIAN_POINT('Ctrl Pts',(-0.493324905038778,0.258103356630713,
-0.077733674037496));
#1044=CARTESIAN_POINT('Ctrl Pts',(-0.483531931691598,0.239143012080344,
-0.0768214758817868));
#1045=CARTESIAN_POINT('Ctrl Pts',(-0.473973382158026,0.219612902969024,
-0.0791241330500691));
#1046=CARTESIAN_POINT('Ctrl Pts',(-0.460845899164143,0.189351551232681,
-0.087595365129238));
#1047=CARTESIAN_POINT('Ctrl Pts',(-0.455462282830098,0.175658144314489,
-0.0930768960430414));
#1048=CARTESIAN_POINT('Ctrl Pts',(-0.447929821260095,0.149789639473005,
-0.107943586153072));
#1049=CARTESIAN_POINT('Ctrl Pts',(-0.445852189528839,0.137601211700716,
-0.117341541508046));
#1050=CARTESIAN_POINT('Ctrl Pts',(-0.445852189528839,0.117341541508048,
-0.137601211700714));
#1051=CARTESIAN_POINT('Ctrl Pts',(-0.447929821260095,0.107943586153073,
-0.149789639473003));
#1052=CARTESIAN_POINT('Ctrl Pts',(-0.455462282830098,0.0930768960430423,
-0.175658144314487));
#1053=CARTESIAN_POINT('Ctrl Pts',(-0.460845899164143,0.0875953651292387,
-0.189351551232679));
#1054=CARTESIAN_POINT('Ctrl Pts',(-0.473973382158026,0.0791241330500691,
-0.219612902969023));
#1055=CARTESIAN_POINT('Ctrl Pts',(-0.483531931691598,0.0768214758817865,
-0.239143012080344));
#1056=CARTESIAN_POINT('Ctrl Pts',(-0.493324905038779,0.0777336740374956,
-0.258103356630713));
#1057=CARTESIAN_POINT('',(-1.3,0.25789706976342,-0.148308298511722));
#1058=CARTESIAN_POINT('Origin',(-1.3,-0.257577679635719,-0.25757767963572));
#1059=CARTESIAN_POINT('',(-0.493324905038781,-0.0777336740374957,-0.258103356630713));
#1060=CARTESIAN_POINT('Ctrl Pts',(-0.493324905038781,-0.0777336740374957,
-0.258103356630713));
#1061=CARTESIAN_POINT('Ctrl Pts',(-0.4835319316916,-0.0768214758817866,
-0.239143012080345));
#1062=CARTESIAN_POINT('Ctrl Pts',(-0.473973382158028,-0.0791241330500689,
-0.219612902969025));
#1063=CARTESIAN_POINT('Ctrl Pts',(-0.460845899164146,-0.0875953651292376,
-0.189351551232682));
#1064=CARTESIAN_POINT('Ctrl Pts',(-0.455462282830101,-0.093076896043041,
-0.17565814431449));
#1065=CARTESIAN_POINT('Ctrl Pts',(-0.447929821260098,-0.107943586153072,
-0.149789639473005));
#1066=CARTESIAN_POINT('Ctrl Pts',(-0.445852189528842,-0.117341541508046,
-0.137601211700716));
#1067=CARTESIAN_POINT('Ctrl Pts',(-0.445852189528842,-0.137601211700714,
-0.117341541508048));
#1068=CARTESIAN_POINT('Ctrl Pts',(-0.447929821260097,-0.149789639473003,
-0.107943586153074));
#1069=CARTESIAN_POINT('Ctrl Pts',(-0.455462282830101,-0.175658144314487,
-0.0930768960430426));
#1070=CARTESIAN_POINT('Ctrl Pts',(-0.460845899164146,-0.18935155123268,
-0.087595365129239));
#1071=CARTESIAN_POINT('Ctrl Pts',(-0.473973382158029,-0.219612902969023,
-0.0791241330500696));
#1072=CARTESIAN_POINT('Ctrl Pts',(-0.483531931691601,-0.239143012080344,
-0.0768214758817871));
#1073=CARTESIAN_POINT('Ctrl Pts',(-0.493324905038782,-0.258103356630713,
-0.0777336740374963));
#1074=CARTESIAN_POINT('',(-1.3,-0.148308298511722,-0.257897069763419));
#1075=CARTESIAN_POINT('Origin',(-1.3,0.836660026534076,0.150000000000001));
#1076=CARTESIAN_POINT('Ctrl Pts',(-0.493324905038778,0.258103356630713,
0.0777336740374955));
#1077=CARTESIAN_POINT('Ctrl Pts',(-0.537002470863043,0.34266824492257,0.0818021620827762));
#1078=CARTESIAN_POINT('Ctrl Pts',(-0.622292350807832,0.504183930275223,
0.0897361955991754));
#1079=CARTESIAN_POINT('Origin',(-1.3,0.15,-0.836660026534076));
#1080=CARTESIAN_POINT('Ctrl Pts',(-0.493324905038779,0.0777336740374956,
-0.258103356630713));
#1081=CARTESIAN_POINT('Ctrl Pts',(-0.537002470863041,0.0818021620827759,
-0.342668244922563));
#1082=CARTESIAN_POINT('Ctrl Pts',(-0.622292350807832,0.0897361955991752,
-0.50418393027522));
#1083=CARTESIAN_POINT('Origin',(-1.3,0.25789706976342,-0.148308298511722));
#1084=CARTESIAN_POINT('Ctrl Pts',(-0.622292350807832,0.504183930275223,
-0.0897361955991754));
#1085=CARTESIAN_POINT('Ctrl Pts',(-0.537002470863039,0.342668244922563,
-0.0818021620827758));
#1086=CARTESIAN_POINT('Ctrl Pts',(-0.493324905038778,0.258103356630713,
-0.0777336740374954));
#1087=CARTESIAN_POINT('Origin',(-1.3,-0.148308298511722,-0.257897069763419));
#1088=CARTESIAN_POINT('Ctrl Pts',(-0.622292350807832,-0.0897361955991752,
-0.504183930275219));
#1089=CARTESIAN_POINT('Ctrl Pts',(-0.537002470863041,-0.081802162082776,
-0.342668244922562));
#1090=CARTESIAN_POINT('Ctrl Pts',(-0.493324905038781,-0.0777336740374957,
-0.258103356630713));
#1091=CARTESIAN_POINT('Origin',(-0.486146175403916,3.83365899355078E-15,
0.));
#1092=CARTESIAN_POINT('',(-0.349999999999999,3.88578058618805E-15,0.));
#1093=CARTESIAN_POINT('',(-0.486146175403916,-0.256053715237825,-3.13575362775795E-17));
#1094=CARTESIAN_POINT('Origin',(6.93889390390723E-17,1.15264,0.));
#1095=CARTESIAN_POINT('',(-2.77555756156289E-16,-0.705279999999996,-8.63718894502646E-17));
#1096=CARTESIAN_POINT('Origin',(0.,4.01977302019453E-15,0.));
#1097=CARTESIAN_POINT('Origin',(0.242646249999999,4.11266662488038E-15,
0.));
#1098=CARTESIAN_POINT('',(0.485292499999998,-0.705279999999996,-8.63718894502646E-17));
#1099=CARTESIAN_POINT('Origin',(0.485292499999998,4.20556022956622E-15,
0.));
#1100=CARTESIAN_POINT('',(0.242646249999999,-0.705279999999996,-8.63718894502646E-17));
#1101=CARTESIAN_POINT('Origin',(0.592646249999998,4.24665905888686E-15,
0.));
#1102=CARTESIAN_POINT('',(0.592646249999998,-0.752639999999997,-9.21718166910265E-17));
#1103=UNCERTAINTY_MEASURE_WITH_UNIT(LENGTH_MEASURE(0.01),#1107,
'DISTANCE_ACCURACY_VALUE',
'Maximum model space distance between geometric entities at asserted c
onnectivities');
#1104=UNCERTAINTY_MEASURE_WITH_UNIT(LENGTH_MEASURE(0.01),#1107,
'DISTANCE_ACCURACY_VALUE',
'Maximum model space distance between geometric entities at asserted c
onnectivities');
#1105=(
GEOMETRIC_REPRESENTATION_CONTEXT(3)
GLOBAL_UNCERTAINTY_ASSIGNED_CONTEXT((#1103))
GLOBAL_UNIT_ASSIGNED_CONTEXT((#1107,#1109,#1110))
REPRESENTATION_CONTEXT('','3D')
);
#1106=(
GEOMETRIC_REPRESENTATION_CONTEXT(3)
GLOBAL_UNCERTAINTY_ASSIGNED_CONTEXT((#1104))
GLOBAL_UNIT_ASSIGNED_CONTEXT((#1107,#1109,#1110))
REPRESENTATION_CONTEXT('','3D')
);
#1107=(
LENGTH_UNIT()
NAMED_UNIT(*)
SI_UNIT(.MILLI.,.METRE.)
);
#1108=(
LENGTH_UNIT()
NAMED_UNIT(*)
SI_UNIT(.CENTI.,.METRE.)
);
#1109=(
NAMED_UNIT(*)
PLANE_ANGLE_UNIT()
SI_UNIT($,.RADIAN.)
);
#1110=(
NAMED_UNIT(*)
SI_UNIT($,.STERADIAN.)
SOLID_ANGLE_UNIT()
);
#1111=SHAPE_DEFINITION_REPRESENTATION(#1112,#1113);
#1112=PRODUCT_DEFINITION_SHAPE('',$,#1115);
#1113=SHAPE_REPRESENTATION('',(#547),#1105);
#1114=PRODUCT_DEFINITION_CONTEXT('part definition',#1119,'design');
#1115=PRODUCT_DEFINITION('ISO 7045 - M1.6 x 4 - 4.8 - H',
'ISO_7045_H_M1p6x4',#1116,#1114);
#1116=PRODUCT_DEFINITION_FORMATION('',$,#1121);
#1117=PRODUCT_RELATED_PRODUCT_CATEGORY('ISO_7045_H_M1p6x4',
'ISO_7045_H_M1p6x4',(#1121));
#1118=APPLICATION_PROTOCOL_DEFINITION('international standard',
'automotive_design',2009,#1119);
#1119=APPLICATION_CONTEXT(
'Core Data for Automotive Mechanical Design Process');
#1120=PRODUCT_CONTEXT('part definition',#1119,'mechanical');
#1121=PRODUCT('ISO 7045 - M1.6 x 4 - 4.8 - H','ISO_7045_H_M1p6x4',
'Pan head screw with type H cross recess - product grade A',(#1120));
#1122=PRESENTATION_STYLE_ASSIGNMENT((#1123));
#1123=SURFACE_STYLE_USAGE(.BOTH.,#1124);
#1124=SURFACE_SIDE_STYLE('',(#1125));
#1125=SURFACE_STYLE_FILL_AREA(#1126);
#1126=FILL_AREA_STYLE('',(#1127));
#1127=FILL_AREA_STYLE_COLOUR('',#1128);
#1128=COLOUR_RGB('',0.301960784313725,0.305882352941176,0.290196078431373);
ENDSEC;
END-ISO-10303-21;
