M48
;L6-L5 LASER BLIND MICROVIAS ONLY - NOT THROUGH DRILL
;UNMIRRORED PCB XY; MM WITH EXPLICIT DECIMAL POINTS
METRIC
T01C0.100
%
G90
G05
T01
X2.771889Y37.757448
X2.664998Y37.371995
X2.664998Y36.971996
X2.664998Y36.571997
X2.664998Y36.171998
X2.664998Y35.771999
X2.664998Y35.371999
X3.866990Y37.651809
X3.584148Y37.368965
X3.534999Y36.971996
X3.534999Y36.571997
X3.534999Y36.171998
X3.534999Y35.771999
X3.534999Y35.371999
X5.264993Y27.796614
X4.931997Y27.574999
X4.531998Y27.574999
X4.131998Y27.574999
X6.134999Y27.832080
X6.134956Y27.432081
X6.021972Y27.048369
X5.724776Y26.780647
X5.331996Y26.704999
X4.931997Y26.704999
X4.531998Y26.704999
X4.131998Y26.704999
X3.535004Y50.215226
X3.535004Y50.615225
X3.847437Y50.864999
X4.247436Y50.864999
X4.647435Y50.864996
X5.047435Y50.864996
X5.447434Y50.864996
X5.847433Y50.864996
X6.247432Y50.864994
X6.647431Y50.864994
X7.047431Y50.864994
X7.447430Y50.864994
X7.847429Y50.864991
X2.664998Y49.925549
X2.664998Y50.325548
X2.664998Y50.725548
X2.675776Y51.125402
X2.848696Y51.486095
X3.184896Y51.702820
X3.583600Y51.734999
X3.983599Y51.734999
X4.383598Y51.734999
X4.783597Y51.734999
X5.183596Y51.734999
X5.583596Y51.734999
X5.983595Y51.734999
X6.383594Y51.734999
X6.783593Y51.734999
X7.183592Y51.734999
X7.583592Y51.734999
X7.983591Y51.734999
X8.382922Y51.711873
X8.728629Y51.510662
X16.835001Y49.953225
X16.835001Y50.353224
X16.835001Y50.753223
X16.818920Y51.152900
X16.632387Y51.506745
X16.288174Y51.710504
X15.888924Y51.734999
X15.488925Y51.734999
X15.088926Y51.734999
X14.688927Y51.734999
X14.288927Y51.734999
X13.888928Y51.734999
X13.488929Y51.734999
X13.088930Y51.734999
X12.688931Y51.734999
X12.288931Y51.734999
X11.888932Y51.734999
X11.488933Y51.734999
X11.090105Y51.704390
X10.752310Y51.490159
X15.964995Y50.158007
X15.964995Y50.558007
X15.708566Y50.864999
X15.308567Y50.864999
X14.908568Y50.864996
X14.508569Y50.864996
X14.108570Y50.864996
X13.708570Y50.864996
X13.308571Y50.864994
X12.908572Y50.864994
X12.508573Y50.864994
X12.108574Y50.864994
X15.834655Y38.150160
X15.965000Y37.771995
X15.965000Y37.371995
X15.965000Y36.971996
X15.965000Y36.571997
X15.965000Y36.171998
X15.965000Y35.771999
X15.965000Y35.371999
X16.670386Y38.539293
X16.828676Y38.171945
X16.835001Y37.771995
X16.835001Y37.371995
X16.835001Y36.971996
X16.835001Y36.571997
X16.835001Y36.171998
X16.835001Y35.771999
X16.835001Y35.371999
X13.015001Y27.482427
X13.102539Y27.092123
X13.380596Y26.804574
X13.768004Y26.704999
X14.168003Y26.704999
X14.568002Y26.704999
X14.968002Y26.704999
X15.368001Y26.704999
X13.885007Y27.857689
X14.168003Y27.574999
X14.568002Y27.574999
X14.968002Y27.574999
X15.368001Y27.574999
X6.034926Y41.884999
X5.634926Y41.884999
X5.234927Y41.884999
X4.834928Y41.884999
X4.434929Y41.884999
X4.034930Y41.884999
X3.645456Y41.793833
X5.830573Y41.014995
X5.430573Y41.014995
X5.030574Y41.014993
X9.665000Y38.679793
X9.665000Y38.279794
X9.665000Y37.879795
X9.665000Y37.479795
X9.665000Y37.079796
X9.665000Y36.679797
X9.665000Y36.279798
X9.664614Y35.879799
X9.381772Y35.596957
X9.098930Y35.314115
X8.816089Y35.031274
X8.533247Y34.748432
X8.250405Y34.465590
X7.967563Y34.182748
X7.684722Y33.899907
X7.401880Y33.617065
X7.119038Y33.334223
X6.836197Y33.051379
X6.553352Y32.768537
X6.270511Y32.485693
X5.987666Y32.202852
X5.704825Y31.920007
X10.535001Y38.816242
X10.535001Y38.416243
X10.535001Y38.016243
X10.535001Y37.616244
X10.535001Y37.216245
X10.535001Y36.816246
X10.535001Y36.416247
X10.535001Y36.016247
X10.505275Y35.617353
X10.293312Y35.278131
X10.010470Y34.995289
X9.727628Y34.712448
X9.444787Y34.429606
X9.161945Y34.146762
X8.879101Y33.863920
X8.596259Y33.581076
X8.313415Y33.298234
X8.030573Y33.015390
X7.747729Y32.732548
X7.464887Y32.449704
X7.182046Y32.166862
X6.899204Y31.884021
X8.777572Y45.569690
X8.930094Y45.939471
X8.935001Y46.339440
X8.935001Y46.739439
X8.935001Y47.139438
X8.065000Y46.319440
X8.065000Y46.719439
X8.065000Y47.119438
X11.435001Y46.359440
X11.435001Y46.759439
X11.435001Y47.159438
X10.735094Y45.554044
X10.572504Y45.919509
X10.565000Y46.319440
X10.565000Y46.719439
X10.565000Y47.119438
X13.669429Y41.714997
X14.069428Y41.714997
X14.469427Y41.714994
X13.723917Y42.585000
X14.123916Y42.585000
X14.523916Y42.585000
X14.923915Y42.585000
X15.323914Y42.585000
X15.722427Y42.550535
X11.765001Y38.630680
X11.765001Y38.230680
X11.765001Y37.830681
X11.765001Y37.430682
X11.765001Y37.030683
X11.765001Y36.630684
X11.765001Y36.230684
X11.765001Y35.830685
X11.765001Y35.430686
X11.765001Y35.030687
X11.765001Y34.630688
X11.765001Y34.230688
X11.765001Y33.830689
X11.765001Y33.430690
X11.765001Y33.030691
X11.870499Y32.644855
X12.137662Y32.347157
X12.420503Y32.064315
X12.635001Y38.629374
X12.635001Y38.229375
X12.635001Y37.829376
X12.635001Y37.429376
X12.635001Y37.029377
X12.635001Y36.629378
X12.635001Y36.229379
X12.635001Y35.829380
X12.635001Y35.429381
X12.635001Y35.029381
X12.635001Y34.629382
X12.635001Y34.229383
X12.635001Y33.829384
X12.635004Y33.429384
X12.682918Y33.032266
X12.965760Y32.749424
X13.248602Y32.466582
X13.531444Y32.183741
X1.070000Y40.500557
X1.100163Y40.101695
X1.426751Y39.870741
X1.826750Y39.869999
X2.226749Y39.869999
X2.626749Y39.869999
X2.983763Y39.689608
X2.983763Y39.289609
X2.983763Y38.889610
X2.983763Y38.489611
X3.087182Y38.103211
X4.121864Y37.993561
X4.405775Y38.275331
X4.416237Y38.675193
X4.416237Y39.075192
X4.416237Y39.475192
X4.416237Y39.875191
X4.628307Y40.214347
X4.630001Y40.614343
X4.630001Y41.014343
X3.278546Y41.630001
X2.878546Y41.630001
X2.478547Y41.630001
X2.078548Y41.630001
X1.678549Y41.630001
X1.280544Y41.590107
X1.070000Y41.250001
X4.190149Y30.120003
X4.590148Y30.120003
X4.983762Y30.048807
X4.983762Y29.648808
X4.983762Y29.248809
X4.983762Y28.848809
X5.264247Y28.247045
X6.381869Y28.455915
X6.416236Y28.854436
X6.416236Y29.254435
X6.416236Y29.654434
X6.416236Y30.054433
X6.616736Y30.400554
X6.629999Y30.800335
X6.629999Y31.200334
X6.616563Y31.600107
X5.305585Y31.880002
X4.905586Y31.880005
X4.505587Y31.880005
X4.105587Y31.880005
X3.705588Y31.880005
X3.306580Y31.851877
X3.071081Y31.528550
X3.069999Y31.128551
X3.069999Y30.728552
X3.109892Y30.330546
X3.449998Y30.120003
X5.870001Y48.316391
X5.870001Y47.916391
X6.065868Y47.567626
X6.463022Y47.520001
X6.863022Y47.520001
X7.263021Y47.520001
X7.663020Y47.520001
X8.063019Y47.520001
X9.061018Y47.520179
X9.394876Y47.740496
X9.430001Y48.138951
X9.430001Y48.538950
X9.427982Y48.938945
X9.216238Y49.278301
X9.216238Y49.678300
X9.216238Y50.078300
X9.216238Y50.478299
X9.204952Y50.878141
X8.918407Y51.157233
X7.783764Y50.465916
X7.783764Y50.065917
X7.783764Y49.665918
X7.678547Y49.280003
X7.278548Y49.280003
X6.878549Y49.280003
X6.478549Y49.280003
X6.080544Y49.240110
X5.870001Y48.900004
X10.070000Y48.817759
X10.070000Y48.417759
X10.070000Y48.017760
X10.179581Y47.633062
X10.563271Y47.520001
X11.611270Y47.520001
X12.011269Y47.519999
X12.411268Y47.519999
X12.811267Y47.519999
X13.211266Y47.519999
X13.570519Y47.695889
X13.630003Y48.091441
X13.630003Y48.491440
X13.630003Y48.891439
X13.427126Y49.236173
X13.029535Y49.280000
X12.629535Y49.280000
X12.229536Y49.280000
X11.829537Y49.280003
X11.716240Y49.663622
X11.716240Y50.063621
X11.716240Y50.463620
X11.708270Y50.863541
X10.545722Y51.147424
X10.287833Y50.841656
X10.283764Y50.441677
X10.283764Y50.041678
X10.283764Y49.641679
X10.283764Y49.241680
X14.869998Y41.692137
X14.869998Y41.292137
X14.874446Y40.892161
X15.083762Y40.551298
X15.083762Y40.151299
X15.083762Y39.751300
X15.083762Y39.351301
X15.100694Y38.951659
X15.402207Y38.688810
X16.506081Y38.976620
X16.516236Y39.376492
X16.516236Y39.776491
X16.516236Y40.176491
X16.588006Y40.570000
X16.988005Y40.570000
X17.388004Y40.570000
X17.788004Y40.570000
X18.187182Y40.595634
X18.428340Y40.914762
X18.429999Y41.314759
X18.429999Y41.714758
X18.393225Y42.113063
X18.057106Y42.329913
X17.657107Y42.330002
X17.257108Y42.330002
X16.857109Y42.330002
X16.457110Y42.330002
X16.057110Y42.330002
X12.733764Y29.739775
X12.733764Y29.339776
X12.733764Y28.939777
X12.741026Y28.539844
X13.013705Y28.247190
X14.115923Y28.424835
X14.166238Y28.821659
X14.166238Y29.221659
X14.166238Y29.621658
X14.166238Y30.021657
X14.553961Y30.119998
X14.953960Y30.119998
X15.353960Y30.119998
X15.753941Y30.123864
X16.060730Y30.380536
X16.080001Y30.780071
X16.080001Y31.180070
X16.071461Y31.579977
X15.794058Y31.868156
X15.394234Y31.880000
X14.994235Y31.880000
X14.594235Y31.880000
X14.194236Y31.880002
X13.794237Y31.880002
X12.572665Y31.692957
X12.520000Y31.296440
X12.520000Y30.896441
X12.520044Y30.496441
X12.733764Y30.158324
X3.683546Y34.998690
X3.922814Y34.652052
X3.973584Y34.233927
X3.824224Y33.840103
X3.508957Y33.560799
X3.099999Y33.459999
X2.691041Y33.560799
X2.375774Y33.840103
X2.226414Y34.233927
X2.277184Y34.652052
X2.516452Y34.998690
X3.758689Y26.556452
X3.412051Y26.317184
X2.993926Y26.266414
X2.600101Y26.415774
X2.320798Y26.731041
X2.219998Y27.139999
X2.320798Y27.548957
X2.600101Y27.864224
X2.993926Y28.013584
X3.412051Y27.962814
X3.758689Y27.723546
X3.683546Y49.498689
X3.922814Y49.152051
X3.973584Y48.733926
X3.824224Y48.340101
X3.508957Y48.060798
X3.099999Y47.959998
X2.691041Y48.060798
X2.375774Y48.340101
X2.226414Y48.733926
X2.277184Y49.152051
X2.516452Y49.498689
X16.983547Y49.498689
X17.222815Y49.152051
X17.273585Y48.733926
X17.124225Y48.340101
X16.808958Y48.060798
X16.400000Y47.959998
X15.991042Y48.060798
X15.675775Y48.340101
X15.526415Y48.733926
X15.577185Y49.152051
X15.816453Y49.498689
X16.983547Y34.998690
X17.222815Y34.652052
X17.273585Y34.233927
X17.124225Y33.840103
X16.808958Y33.560799
X16.400000Y33.459999
X15.991042Y33.560799
X15.675775Y33.840103
X15.526415Y34.233927
X15.577185Y34.652052
X15.816453Y34.998690
X15.741310Y27.723546
X16.087949Y27.962814
X16.506073Y28.013584
X16.899898Y27.864224
X17.179201Y27.548957
X17.280001Y27.139999
X17.179201Y26.731041
X16.899898Y26.415774
X16.506073Y26.266414
X16.087949Y26.317184
X15.741310Y26.556452
M30
