ISO-10303-21;
HEADER;
/* Generated by software containing ST-Developer
 * from STEP Tools, Inc. (www.steptools.com) 
 */

FILE_DESCRIPTION(
/* description */ (''),
/* implementation_level */ '2;1');

FILE_NAME(
/* name */ 'Right_Rod_Support.step',
/* time_stamp */ '2026-09-24T09:35:19-07:00',
/* author */ ('\X2\BC15C815D604\X0\'),
/* organization */ (''),
/* preprocessor_version */ 'ST-DEVELOPER v20.2',
/* originating_system */ 'Autodesk Inventor 2027',
/* authorisation */ '');

FILE_SCHEMA (('AUTOMOTIVE_DESIGN { 1 0 10303 214 3 1 1 }'));
ENDSEC;

DATA;
#10=MECHANICAL_DESIGN_GEOMETRIC_PRESENTATION_REPRESENTATION('',(#13),#694);
#11=SHAPE_REPRESENTATION_RELATIONSHIP('SRR','None',#701,#12);
#12=ADVANCED_BREP_SHAPE_REPRESENTATION('',(#14),#693);
#13=STYLED_ITEM('',(#710),#14);
#14=MANIFOLD_SOLID_BREP('Solid1',#393);
#15=FACE_BOUND('',#86,.T.);
#16=FACE_BOUND('',#87,.T.);
#17=FACE_BOUND('',#88,.T.);
#18=FACE_BOUND('',#89,.T.);
#19=FACE_BOUND('',#91,.T.);
#20=FACE_BOUND('',#92,.T.);
#21=FACE_BOUND('',#93,.T.);
#22=FACE_BOUND('',#94,.T.);
#23=CIRCLE('',#426,1.7);
#24=CIRCLE('',#427,1.7);
#25=CIRCLE('',#429,1.7);
#26=CIRCLE('',#430,1.7);
#27=CIRCLE('',#433,1.25);
#28=CIRCLE('',#434,1.25);
#29=CIRCLE('',#437,1.25);
#30=CIRCLE('',#438,1.25);
#31=CIRCLE('',#441,1.25);
#32=CIRCLE('',#442,1.25);
#33=CIRCLE('',#445,1.25);
#34=CIRCLE('',#446,1.25);
#35=CIRCLE('',#449,1.7);
#36=CIRCLE('',#450,1.7);
#37=CIRCLE('',#452,1.7);
#38=CIRCLE('',#453,1.7);
#39=CYLINDRICAL_SURFACE('',#425,1.7);
#40=CYLINDRICAL_SURFACE('',#428,1.7);
#41=CYLINDRICAL_SURFACE('',#432,1.25);
#42=CYLINDRICAL_SURFACE('',#436,1.25);
#43=CYLINDRICAL_SURFACE('',#440,1.25);
#44=CYLINDRICAL_SURFACE('',#444,1.25);
#45=CYLINDRICAL_SURFACE('',#448,1.7);
#46=CYLINDRICAL_SURFACE('',#451,1.7);
#47=FACE_OUTER_BOUND('',#67,.T.);
#48=FACE_OUTER_BOUND('',#68,.T.);
#49=FACE_OUTER_BOUND('',#69,.T.);
#50=FACE_OUTER_BOUND('',#70,.T.);
#51=FACE_OUTER_BOUND('',#71,.T.);
#52=FACE_OUTER_BOUND('',#72,.T.);
#53=FACE_OUTER_BOUND('',#73,.T.);
#54=FACE_OUTER_BOUND('',#74,.T.);
#55=FACE_OUTER_BOUND('',#75,.T.);
#56=FACE_OUTER_BOUND('',#76,.T.);
#57=FACE_OUTER_BOUND('',#77,.T.);
#58=FACE_OUTER_BOUND('',#78,.T.);
#59=FACE_OUTER_BOUND('',#79,.T.);
#60=FACE_OUTER_BOUND('',#80,.T.);
#61=FACE_OUTER_BOUND('',#81,.T.);
#62=FACE_OUTER_BOUND('',#82,.T.);
#63=FACE_OUTER_BOUND('',#83,.T.);
#64=FACE_OUTER_BOUND('',#84,.T.);
#65=FACE_OUTER_BOUND('',#85,.T.);
#66=FACE_OUTER_BOUND('',#90,.T.);
#67=EDGE_LOOP('',(#253,#254,#255,#256,#257,#258,#259,#260,#261,#262,#263,
#264,#265,#266,#267,#268));
#68=EDGE_LOOP('',(#269,#270,#271,#272,#273,#274));
#69=EDGE_LOOP('',(#275,#276,#277,#278,#279,#280));
#70=EDGE_LOOP('',(#281,#282,#283,#284,#285,#286));
#71=EDGE_LOOP('',(#287,#288,#289,#290));
#72=EDGE_LOOP('',(#291));
#73=EDGE_LOOP('',(#292,#293,#294,#295));
#74=EDGE_LOOP('',(#296));
#75=EDGE_LOOP('',(#297,#298,#299,#300));
#76=EDGE_LOOP('',(#301));
#77=EDGE_LOOP('',(#302,#303,#304,#305));
#78=EDGE_LOOP('',(#306));
#79=EDGE_LOOP('',(#307,#308,#309,#310,#311,#312));
#80=EDGE_LOOP('',(#313,#314,#315,#316,#317,#318));
#81=EDGE_LOOP('',(#319,#320,#321,#322,#323,#324,#325,#326,#327,#328,#329,
#330));
#82=EDGE_LOOP('',(#331,#332,#333,#334,#335,#336));
#83=EDGE_LOOP('',(#337,#338,#339,#340));
#84=EDGE_LOOP('',(#341,#342,#343,#344));
#85=EDGE_LOOP('',(#345,#346,#347,#348));
#86=EDGE_LOOP('',(#349));
#87=EDGE_LOOP('',(#350));
#88=EDGE_LOOP('',(#351));
#89=EDGE_LOOP('',(#352));
#90=EDGE_LOOP('',(#353,#354,#355,#356));
#91=EDGE_LOOP('',(#357));
#92=EDGE_LOOP('',(#358));
#93=EDGE_LOOP('',(#359));
#94=EDGE_LOOP('',(#360));
#95=ELLIPSE('',#417,2.40416305603426,1.7);
#96=ELLIPSE('',#418,2.40416305603426,1.7);
#97=ELLIPSE('',#419,2.40416305603426,1.7);
#98=ELLIPSE('',#420,2.40416305603426,1.7);
#99=ELLIPSE('',#421,2.40416305603426,1.7);
#100=ELLIPSE('',#422,2.40416305603426,1.7);
#101=ELLIPSE('',#423,2.40416305603426,1.7);
#102=ELLIPSE('',#424,2.40416305603426,1.7);
#103=LINE('',#584,#133);
#104=LINE('',#586,#134);
#105=LINE('',#588,#135);
#106=LINE('',#590,#136);
#107=LINE('',#596,#137);
#108=LINE('',#602,#138);
#109=LINE('',#608,#139);
#110=LINE('',#613,#140);
#111=LINE('',#617,#141);
#112=LINE('',#622,#142);
#113=LINE('',#626,#143);
#114=LINE('',#628,#144);
#115=LINE('',#630,#145);
#116=LINE('',#632,#146);
#117=LINE('',#633,#147);
#118=LINE('',#638,#148);
#119=LINE('',#645,#149);
#120=LINE('',#652,#150);
#121=LINE('',#659,#151);
#122=LINE('',#665,#152);
#123=LINE('',#670,#153);
#124=LINE('',#674,#154);
#125=LINE('',#675,#155);
#126=LINE('',#678,#156);
#127=LINE('',#680,#157);
#128=LINE('',#682,#158);
#129=LINE('',#683,#159);
#130=LINE('',#685,#160);
#131=LINE('',#687,#161);
#132=LINE('',#688,#162);
#133=VECTOR('',#464,10.);
#134=VECTOR('',#465,10.);
#135=VECTOR('',#466,10.);
#136=VECTOR('',#467,10.);
#137=VECTOR('',#472,10.);
#138=VECTOR('',#477,10.);
#139=VECTOR('',#482,10.);
#140=VECTOR('',#487,10.);
#141=VECTOR('',#492,1.7);
#142=VECTOR('',#499,1.7);
#143=VECTOR('',#504,10.);
#144=VECTOR('',#505,10.);
#145=VECTOR('',#506,10.);
#146=VECTOR('',#507,10.);
#147=VECTOR('',#508,10.);
#148=VECTOR('',#513,1.25);
#149=VECTOR('',#522,1.25);
#150=VECTOR('',#531,1.25);
#151=VECTOR('',#540,1.25);
#152=VECTOR('',#549,1.7);
#153=VECTOR('',#556,1.7);
#154=VECTOR('',#561,10.);
#155=VECTOR('',#562,10.);
#156=VECTOR('',#565,10.);
#157=VECTOR('',#566,10.);
#158=VECTOR('',#567,10.);
#159=VECTOR('',#568,10.);
#160=VECTOR('',#571,10.);
#161=VECTOR('',#574,10.);
#162=VECTOR('',#575,10.);
#163=VERTEX_POINT('',#582);
#164=VERTEX_POINT('',#583);
#165=VERTEX_POINT('',#585);
#166=VERTEX_POINT('',#587);
#167=VERTEX_POINT('',#589);
#168=VERTEX_POINT('',#591);
#169=VERTEX_POINT('',#593);
#170=VERTEX_POINT('',#595);
#171=VERTEX_POINT('',#597);
#172=VERTEX_POINT('',#599);
#173=VERTEX_POINT('',#601);
#174=VERTEX_POINT('',#603);
#175=VERTEX_POINT('',#605);
#176=VERTEX_POINT('',#607);
#177=VERTEX_POINT('',#609);
#178=VERTEX_POINT('',#611);
#179=VERTEX_POINT('',#616);
#180=VERTEX_POINT('',#621);
#181=VERTEX_POINT('',#625);
#182=VERTEX_POINT('',#627);
#183=VERTEX_POINT('',#629);
#184=VERTEX_POINT('',#631);
#185=VERTEX_POINT('',#635);
#186=VERTEX_POINT('',#637);
#187=VERTEX_POINT('',#642);
#188=VERTEX_POINT('',#644);
#189=VERTEX_POINT('',#649);
#190=VERTEX_POINT('',#651);
#191=VERTEX_POINT('',#656);
#192=VERTEX_POINT('',#658);
#193=VERTEX_POINT('',#664);
#194=VERTEX_POINT('',#669);
#195=VERTEX_POINT('',#673);
#196=VERTEX_POINT('',#677);
#197=VERTEX_POINT('',#679);
#198=VERTEX_POINT('',#681);
#199=EDGE_CURVE('',#163,#164,#103,.T.);
#200=EDGE_CURVE('',#165,#164,#104,.T.);
#201=EDGE_CURVE('',#165,#166,#105,.T.);
#202=EDGE_CURVE('',#166,#167,#106,.T.);
#203=EDGE_CURVE('',#167,#168,#95,.T.);
#204=EDGE_CURVE('',#168,#169,#96,.T.);
#205=EDGE_CURVE('',#169,#170,#107,.T.);
#206=EDGE_CURVE('',#170,#171,#97,.T.);
#207=EDGE_CURVE('',#171,#172,#98,.T.);
#208=EDGE_CURVE('',#172,#173,#108,.T.);
#209=EDGE_CURVE('',#173,#174,#99,.T.);
#210=EDGE_CURVE('',#174,#175,#100,.T.);
#211=EDGE_CURVE('',#175,#176,#109,.T.);
#212=EDGE_CURVE('',#176,#177,#101,.T.);
#213=EDGE_CURVE('',#177,#178,#102,.T.);
#214=EDGE_CURVE('',#178,#163,#110,.T.);
#215=EDGE_CURVE('',#172,#170,#23,.T.);
#216=EDGE_CURVE('',#171,#179,#111,.T.);
#217=EDGE_CURVE('',#179,#179,#24,.T.);
#218=EDGE_CURVE('',#169,#167,#25,.T.);
#219=EDGE_CURVE('',#168,#180,#112,.T.);
#220=EDGE_CURVE('',#180,#180,#26,.T.);
#221=EDGE_CURVE('',#181,#165,#113,.T.);
#222=EDGE_CURVE('',#182,#181,#114,.T.);
#223=EDGE_CURVE('',#182,#183,#115,.T.);
#224=EDGE_CURVE('',#183,#184,#116,.T.);
#225=EDGE_CURVE('',#184,#166,#117,.T.);
#226=EDGE_CURVE('',#185,#185,#27,.T.);
#227=EDGE_CURVE('',#185,#186,#118,.T.);
#228=EDGE_CURVE('',#186,#186,#28,.T.);
#229=EDGE_CURVE('',#187,#187,#29,.T.);
#230=EDGE_CURVE('',#187,#188,#119,.T.);
#231=EDGE_CURVE('',#188,#188,#30,.T.);
#232=EDGE_CURVE('',#189,#189,#31,.T.);
#233=EDGE_CURVE('',#189,#190,#120,.T.);
#234=EDGE_CURVE('',#190,#190,#32,.T.);
#235=EDGE_CURVE('',#191,#191,#33,.T.);
#236=EDGE_CURVE('',#191,#192,#121,.T.);
#237=EDGE_CURVE('',#192,#192,#34,.T.);
#238=EDGE_CURVE('',#175,#173,#35,.T.);
#239=EDGE_CURVE('',#174,#193,#122,.T.);
#240=EDGE_CURVE('',#193,#193,#36,.T.);
#241=EDGE_CURVE('',#178,#176,#37,.T.);
#242=EDGE_CURVE('',#177,#194,#123,.T.);
#243=EDGE_CURVE('',#194,#194,#38,.T.);
#244=EDGE_CURVE('',#195,#184,#124,.T.);
#245=EDGE_CURVE('',#163,#195,#125,.T.);
#246=EDGE_CURVE('',#196,#195,#126,.T.);
#247=EDGE_CURVE('',#196,#197,#127,.T.);
#248=EDGE_CURVE('',#197,#198,#128,.T.);
#249=EDGE_CURVE('',#164,#198,#129,.T.);
#250=EDGE_CURVE('',#183,#196,#130,.T.);
#251=EDGE_CURVE('',#197,#182,#131,.T.);
#252=EDGE_CURVE('',#198,#181,#132,.T.);
#253=ORIENTED_EDGE('',*,*,#199,.T.);
#254=ORIENTED_EDGE('',*,*,#200,.F.);
#255=ORIENTED_EDGE('',*,*,#201,.T.);
#256=ORIENTED_EDGE('',*,*,#202,.T.);
#257=ORIENTED_EDGE('',*,*,#203,.T.);
#258=ORIENTED_EDGE('',*,*,#204,.T.);
#259=ORIENTED_EDGE('',*,*,#205,.T.);
#260=ORIENTED_EDGE('',*,*,#206,.T.);
#261=ORIENTED_EDGE('',*,*,#207,.T.);
#262=ORIENTED_EDGE('',*,*,#208,.T.);
#263=ORIENTED_EDGE('',*,*,#209,.T.);
#264=ORIENTED_EDGE('',*,*,#210,.T.);
#265=ORIENTED_EDGE('',*,*,#211,.T.);
#266=ORIENTED_EDGE('',*,*,#212,.T.);
#267=ORIENTED_EDGE('',*,*,#213,.T.);
#268=ORIENTED_EDGE('',*,*,#214,.T.);
#269=ORIENTED_EDGE('',*,*,#206,.F.);
#270=ORIENTED_EDGE('',*,*,#215,.F.);
#271=ORIENTED_EDGE('',*,*,#207,.F.);
#272=ORIENTED_EDGE('',*,*,#216,.T.);
#273=ORIENTED_EDGE('',*,*,#217,.F.);
#274=ORIENTED_EDGE('',*,*,#216,.F.);
#275=ORIENTED_EDGE('',*,*,#203,.F.);
#276=ORIENTED_EDGE('',*,*,#218,.F.);
#277=ORIENTED_EDGE('',*,*,#204,.F.);
#278=ORIENTED_EDGE('',*,*,#219,.T.);
#279=ORIENTED_EDGE('',*,*,#220,.F.);
#280=ORIENTED_EDGE('',*,*,#219,.F.);
#281=ORIENTED_EDGE('',*,*,#201,.F.);
#282=ORIENTED_EDGE('',*,*,#221,.F.);
#283=ORIENTED_EDGE('',*,*,#222,.F.);
#284=ORIENTED_EDGE('',*,*,#223,.T.);
#285=ORIENTED_EDGE('',*,*,#224,.T.);
#286=ORIENTED_EDGE('',*,*,#225,.T.);
#287=ORIENTED_EDGE('',*,*,#226,.F.);
#288=ORIENTED_EDGE('',*,*,#227,.T.);
#289=ORIENTED_EDGE('',*,*,#228,.T.);
#290=ORIENTED_EDGE('',*,*,#227,.F.);
#291=ORIENTED_EDGE('',*,*,#228,.F.);
#292=ORIENTED_EDGE('',*,*,#229,.F.);
#293=ORIENTED_EDGE('',*,*,#230,.T.);
#294=ORIENTED_EDGE('',*,*,#231,.T.);
#295=ORIENTED_EDGE('',*,*,#230,.F.);
#296=ORIENTED_EDGE('',*,*,#231,.F.);
#297=ORIENTED_EDGE('',*,*,#232,.F.);
#298=ORIENTED_EDGE('',*,*,#233,.T.);
#299=ORIENTED_EDGE('',*,*,#234,.T.);
#300=ORIENTED_EDGE('',*,*,#233,.F.);
#301=ORIENTED_EDGE('',*,*,#234,.F.);
#302=ORIENTED_EDGE('',*,*,#235,.F.);
#303=ORIENTED_EDGE('',*,*,#236,.T.);
#304=ORIENTED_EDGE('',*,*,#237,.T.);
#305=ORIENTED_EDGE('',*,*,#236,.F.);
#306=ORIENTED_EDGE('',*,*,#237,.F.);
#307=ORIENTED_EDGE('',*,*,#209,.F.);
#308=ORIENTED_EDGE('',*,*,#238,.F.);
#309=ORIENTED_EDGE('',*,*,#210,.F.);
#310=ORIENTED_EDGE('',*,*,#239,.T.);
#311=ORIENTED_EDGE('',*,*,#240,.F.);
#312=ORIENTED_EDGE('',*,*,#239,.F.);
#313=ORIENTED_EDGE('',*,*,#212,.F.);
#314=ORIENTED_EDGE('',*,*,#241,.F.);
#315=ORIENTED_EDGE('',*,*,#213,.F.);
#316=ORIENTED_EDGE('',*,*,#242,.T.);
#317=ORIENTED_EDGE('',*,*,#243,.F.);
#318=ORIENTED_EDGE('',*,*,#242,.F.);
#319=ORIENTED_EDGE('',*,*,#208,.F.);
#320=ORIENTED_EDGE('',*,*,#215,.T.);
#321=ORIENTED_EDGE('',*,*,#205,.F.);
#322=ORIENTED_EDGE('',*,*,#218,.T.);
#323=ORIENTED_EDGE('',*,*,#202,.F.);
#324=ORIENTED_EDGE('',*,*,#225,.F.);
#325=ORIENTED_EDGE('',*,*,#244,.F.);
#326=ORIENTED_EDGE('',*,*,#245,.F.);
#327=ORIENTED_EDGE('',*,*,#214,.F.);
#328=ORIENTED_EDGE('',*,*,#241,.T.);
#329=ORIENTED_EDGE('',*,*,#211,.F.);
#330=ORIENTED_EDGE('',*,*,#238,.T.);
#331=ORIENTED_EDGE('',*,*,#199,.F.);
#332=ORIENTED_EDGE('',*,*,#245,.T.);
#333=ORIENTED_EDGE('',*,*,#246,.F.);
#334=ORIENTED_EDGE('',*,*,#247,.T.);
#335=ORIENTED_EDGE('',*,*,#248,.T.);
#336=ORIENTED_EDGE('',*,*,#249,.F.);
#337=ORIENTED_EDGE('',*,*,#244,.T.);
#338=ORIENTED_EDGE('',*,*,#224,.F.);
#339=ORIENTED_EDGE('',*,*,#250,.T.);
#340=ORIENTED_EDGE('',*,*,#246,.T.);
#341=ORIENTED_EDGE('',*,*,#248,.F.);
#342=ORIENTED_EDGE('',*,*,#251,.T.);
#343=ORIENTED_EDGE('',*,*,#222,.T.);
#344=ORIENTED_EDGE('',*,*,#252,.F.);
#345=ORIENTED_EDGE('',*,*,#221,.T.);
#346=ORIENTED_EDGE('',*,*,#200,.T.);
#347=ORIENTED_EDGE('',*,*,#249,.T.);
#348=ORIENTED_EDGE('',*,*,#252,.T.);
#349=ORIENTED_EDGE('',*,*,#240,.T.);
#350=ORIENTED_EDGE('',*,*,#220,.T.);
#351=ORIENTED_EDGE('',*,*,#217,.T.);
#352=ORIENTED_EDGE('',*,*,#243,.T.);
#353=ORIENTED_EDGE('',*,*,#223,.F.);
#354=ORIENTED_EDGE('',*,*,#251,.F.);
#355=ORIENTED_EDGE('',*,*,#247,.F.);
#356=ORIENTED_EDGE('',*,*,#250,.F.);
#357=ORIENTED_EDGE('',*,*,#226,.T.);
#358=ORIENTED_EDGE('',*,*,#229,.T.);
#359=ORIENTED_EDGE('',*,*,#232,.T.);
#360=ORIENTED_EDGE('',*,*,#235,.T.);
#361=PLANE('',#416);
#362=PLANE('',#431);
#363=PLANE('',#435);
#364=PLANE('',#439);
#365=PLANE('',#443);
#366=PLANE('',#447);
#367=PLANE('',#454);
#368=PLANE('',#455);
#369=PLANE('',#456);
#370=PLANE('',#457);
#371=PLANE('',#458);
#372=PLANE('',#459);
#373=ADVANCED_FACE('',(#47),#361,.T.);
#374=ADVANCED_FACE('',(#48),#39,.F.);
#375=ADVANCED_FACE('',(#49),#40,.F.);
#376=ADVANCED_FACE('',(#50),#362,.T.);
#377=ADVANCED_FACE('',(#51),#41,.F.);
#378=ADVANCED_FACE('',(#52),#363,.F.);
#379=ADVANCED_FACE('',(#53),#42,.F.);
#380=ADVANCED_FACE('',(#54),#364,.F.);
#381=ADVANCED_FACE('',(#55),#43,.F.);
#382=ADVANCED_FACE('',(#56),#365,.F.);
#383=ADVANCED_FACE('',(#57),#44,.F.);
#384=ADVANCED_FACE('',(#58),#366,.F.);
#385=ADVANCED_FACE('',(#59),#45,.F.);
#386=ADVANCED_FACE('',(#60),#46,.F.);
#387=ADVANCED_FACE('',(#61),#367,.F.);
#388=ADVANCED_FACE('',(#62),#368,.T.);
#389=ADVANCED_FACE('',(#63),#369,.T.);
#390=ADVANCED_FACE('',(#64),#370,.T.);
#391=ADVANCED_FACE('',(#65,#15,#16,#17,#18),#371,.T.);
#392=ADVANCED_FACE('',(#66,#19,#20,#21,#22),#372,.F.);
#393=CLOSED_SHELL('',(#373,#374,#375,#376,#377,#378,#379,#380,#381,#382,
#383,#384,#385,#386,#387,#388,#389,#390,#391,#392));
#394=DERIVED_UNIT_ELEMENT(#397,1.);
#395=DERIVED_UNIT_ELEMENT(#696,-3.);
#396=DIMENSIONAL_EXPONENTS(0.,1.,0.,0.,0.,0.,0.);
#397=(
CONVERSION_BASED_UNIT('gram',#399)
MASS_UNIT()
NAMED_UNIT(#396)
);
#398=(
MASS_UNIT()
NAMED_UNIT(*)
SI_UNIT(.KILO.,.GRAM.)
);
#399=MASS_MEASURE_WITH_UNIT(MASS_MEASURE(0.001),#398);
#400=DERIVED_UNIT((#394,#395));
#401=MEASURE_REPRESENTATION_ITEM('density measure',
POSITIVE_RATIO_MEASURE(1.),#400);
#402=PROPERTY_DEFINITION_REPRESENTATION(#407,#404);
#403=PROPERTY_DEFINITION_REPRESENTATION(#408,#405);
#404=REPRESENTATION('material name',(#406),#693);
#405=REPRESENTATION('density',(#401),#693);
#406=DESCRIPTIVE_REPRESENTATION_ITEM('Generic','Generic');
#407=PROPERTY_DEFINITION('material property','material name',#703);
#408=PROPERTY_DEFINITION('material property','density of part',#703);
#409=DATE_TIME_ROLE('creation_date');
#410=APPLIED_DATE_AND_TIME_ASSIGNMENT(#411,#409,(#703));
#411=DATE_AND_TIME(#412,#413);
#412=CALENDAR_DATE(2026,22,9);
#413=LOCAL_TIME(0,0,0.,#414);
#414=COORDINATED_UNIVERSAL_TIME_OFFSET(0,0,.BEHIND.);
#415=AXIS2_PLACEMENT_3D('',#580,#460,#461);
#416=AXIS2_PLACEMENT_3D('',#581,#462,#463);
#417=AXIS2_PLACEMENT_3D('',#592,#468,#469);
#418=AXIS2_PLACEMENT_3D('',#594,#470,#471);
#419=AXIS2_PLACEMENT_3D('',#598,#473,#474);
#420=AXIS2_PLACEMENT_3D('',#600,#475,#476);
#421=AXIS2_PLACEMENT_3D('',#604,#478,#479);
#422=AXIS2_PLACEMENT_3D('',#606,#480,#481);
#423=AXIS2_PLACEMENT_3D('',#610,#483,#484);
#424=AXIS2_PLACEMENT_3D('',#612,#485,#486);
#425=AXIS2_PLACEMENT_3D('',#614,#488,#489);
#426=AXIS2_PLACEMENT_3D('',#615,#490,#491);
#427=AXIS2_PLACEMENT_3D('',#618,#493,#494);
#428=AXIS2_PLACEMENT_3D('',#619,#495,#496);
#429=AXIS2_PLACEMENT_3D('',#620,#497,#498);
#430=AXIS2_PLACEMENT_3D('',#623,#500,#501);
#431=AXIS2_PLACEMENT_3D('',#624,#502,#503);
#432=AXIS2_PLACEMENT_3D('',#634,#509,#510);
#433=AXIS2_PLACEMENT_3D('',#636,#511,#512);
#434=AXIS2_PLACEMENT_3D('',#639,#514,#515);
#435=AXIS2_PLACEMENT_3D('',#640,#516,#517);
#436=AXIS2_PLACEMENT_3D('',#641,#518,#519);
#437=AXIS2_PLACEMENT_3D('',#643,#520,#521);
#438=AXIS2_PLACEMENT_3D('',#646,#523,#524);
#439=AXIS2_PLACEMENT_3D('',#647,#525,#526);
#440=AXIS2_PLACEMENT_3D('',#648,#527,#528);
#441=AXIS2_PLACEMENT_3D('',#650,#529,#530);
#442=AXIS2_PLACEMENT_3D('',#653,#532,#533);
#443=AXIS2_PLACEMENT_3D('',#654,#534,#535);
#444=AXIS2_PLACEMENT_3D('',#655,#536,#537);
#445=AXIS2_PLACEMENT_3D('',#657,#538,#539);
#446=AXIS2_PLACEMENT_3D('',#660,#541,#542);
#447=AXIS2_PLACEMENT_3D('',#661,#543,#544);
#448=AXIS2_PLACEMENT_3D('',#662,#545,#546);
#449=AXIS2_PLACEMENT_3D('',#663,#547,#548);
#450=AXIS2_PLACEMENT_3D('',#666,#550,#551);
#451=AXIS2_PLACEMENT_3D('',#667,#552,#553);
#452=AXIS2_PLACEMENT_3D('',#668,#554,#555);
#453=AXIS2_PLACEMENT_3D('',#671,#557,#558);
#454=AXIS2_PLACEMENT_3D('',#672,#559,#560);
#455=AXIS2_PLACEMENT_3D('',#676,#563,#564);
#456=AXIS2_PLACEMENT_3D('',#684,#569,#570);
#457=AXIS2_PLACEMENT_3D('',#686,#572,#573);
#458=AXIS2_PLACEMENT_3D('',#689,#576,#577);
#459=AXIS2_PLACEMENT_3D('',#690,#578,#579);
#460=DIRECTION('axis',(0.,0.,1.));
#461=DIRECTION('refdir',(1.,0.,0.));
#462=DIRECTION('center_axis',(0.707106781186548,0.,-0.707106781186548));
#463=DIRECTION('ref_axis',(-0.707106781186548,0.,-0.707106781186548));
#464=DIRECTION('',(0.707106781186547,0.,0.707106781186547));
#465=DIRECTION('',(0.,1.,0.));
#466=DIRECTION('',(-0.707106781186547,0.,-0.707106781186547));
#467=DIRECTION('',(0.,1.,0.));
#468=DIRECTION('center_axis',(-0.707106781186548,0.,0.707106781186548));
#469=DIRECTION('ref_axis',(-0.707106781186548,0.,-0.707106781186548));
#470=DIRECTION('center_axis',(-0.707106781186548,0.,0.707106781186548));
#471=DIRECTION('ref_axis',(-0.707106781186548,0.,-0.707106781186548));
#472=DIRECTION('',(0.,1.,0.));
#473=DIRECTION('center_axis',(-0.707106781186548,0.,0.707106781186548));
#474=DIRECTION('ref_axis',(-0.707106781186548,0.,-0.707106781186548));
#475=DIRECTION('center_axis',(-0.707106781186548,0.,0.707106781186548));
#476=DIRECTION('ref_axis',(-0.707106781186548,0.,-0.707106781186548));
#477=DIRECTION('',(0.,1.,0.));
#478=DIRECTION('center_axis',(-0.707106781186548,0.,0.707106781186548));
#479=DIRECTION('ref_axis',(-0.707106781186548,0.,-0.707106781186548));
#480=DIRECTION('center_axis',(-0.707106781186548,0.,0.707106781186548));
#481=DIRECTION('ref_axis',(-0.707106781186548,0.,-0.707106781186548));
#482=DIRECTION('',(0.,1.,0.));
#483=DIRECTION('center_axis',(-0.707106781186548,0.,0.707106781186548));
#484=DIRECTION('ref_axis',(-0.707106781186548,0.,-0.707106781186548));
#485=DIRECTION('center_axis',(-0.707106781186548,0.,0.707106781186548));
#486=DIRECTION('ref_axis',(-0.707106781186548,0.,-0.707106781186548));
#487=DIRECTION('',(0.,1.,0.));
#488=DIRECTION('center_axis',(0.,0.,1.));
#489=DIRECTION('ref_axis',(-1.,0.,0.));
#490=DIRECTION('center_axis',(0.,0.,1.));
#491=DIRECTION('ref_axis',(-1.,0.,0.));
#492=DIRECTION('',(0.,0.,1.));
#493=DIRECTION('center_axis',(0.,0.,-1.));
#494=DIRECTION('ref_axis',(-1.,0.,0.));
#495=DIRECTION('center_axis',(0.,0.,1.));
#496=DIRECTION('ref_axis',(-1.,0.,0.));
#497=DIRECTION('center_axis',(0.,0.,1.));
#498=DIRECTION('ref_axis',(-1.,0.,0.));
#499=DIRECTION('',(0.,0.,1.));
#500=DIRECTION('center_axis',(0.,0.,-1.));
#501=DIRECTION('ref_axis',(-1.,0.,0.));
#502=DIRECTION('center_axis',(0.,-1.,0.));
#503=DIRECTION('ref_axis',(1.,0.,0.));
#504=DIRECTION('',(1.,0.,0.));
#505=DIRECTION('',(0.,0.,1.));
#506=DIRECTION('',(1.,0.,0.));
#507=DIRECTION('',(0.,0.,1.));
#508=DIRECTION('',(1.,0.,0.));
#509=DIRECTION('center_axis',(0.,0.,1.));
#510=DIRECTION('ref_axis',(-1.,0.,0.));
#511=DIRECTION('center_axis',(0.,0.,1.));
#512=DIRECTION('ref_axis',(-1.,0.,0.));
#513=DIRECTION('',(0.,0.,1.));
#514=DIRECTION('center_axis',(0.,0.,1.));
#515=DIRECTION('ref_axis',(-1.,0.,0.));
#516=DIRECTION('center_axis',(0.,0.,1.));
#517=DIRECTION('ref_axis',(1.,0.,0.));
#518=DIRECTION('center_axis',(0.,0.,1.));
#519=DIRECTION('ref_axis',(-1.,0.,0.));
#520=DIRECTION('center_axis',(0.,0.,1.));
#521=DIRECTION('ref_axis',(-1.,0.,0.));
#522=DIRECTION('',(0.,0.,1.));
#523=DIRECTION('center_axis',(0.,0.,1.));
#524=DIRECTION('ref_axis',(-1.,0.,0.));
#525=DIRECTION('center_axis',(0.,0.,1.));
#526=DIRECTION('ref_axis',(1.,0.,0.));
#527=DIRECTION('center_axis',(0.,0.,1.));
#528=DIRECTION('ref_axis',(-1.,0.,0.));
#529=DIRECTION('center_axis',(0.,0.,1.));
#530=DIRECTION('ref_axis',(-1.,0.,0.));
#531=DIRECTION('',(0.,0.,1.));
#532=DIRECTION('center_axis',(0.,0.,1.));
#533=DIRECTION('ref_axis',(-1.,0.,0.));
#534=DIRECTION('center_axis',(0.,0.,1.));
#535=DIRECTION('ref_axis',(1.,0.,0.));
#536=DIRECTION('center_axis',(0.,0.,1.));
#537=DIRECTION('ref_axis',(-1.,0.,0.));
#538=DIRECTION('center_axis',(0.,0.,1.));
#539=DIRECTION('ref_axis',(-1.,0.,0.));
#540=DIRECTION('',(0.,0.,1.));
#541=DIRECTION('center_axis',(0.,0.,1.));
#542=DIRECTION('ref_axis',(-1.,0.,0.));
#543=DIRECTION('center_axis',(0.,0.,1.));
#544=DIRECTION('ref_axis',(1.,0.,0.));
#545=DIRECTION('center_axis',(0.,0.,1.));
#546=DIRECTION('ref_axis',(-1.,0.,0.));
#547=DIRECTION('center_axis',(0.,0.,1.));
#548=DIRECTION('ref_axis',(-1.,0.,0.));
#549=DIRECTION('',(0.,0.,1.));
#550=DIRECTION('center_axis',(0.,0.,-1.));
#551=DIRECTION('ref_axis',(-1.,0.,0.));
#552=DIRECTION('center_axis',(0.,0.,1.));
#553=DIRECTION('ref_axis',(-1.,0.,0.));
#554=DIRECTION('center_axis',(0.,0.,1.));
#555=DIRECTION('ref_axis',(-1.,0.,0.));
#556=DIRECTION('',(0.,0.,1.));
#557=DIRECTION('center_axis',(0.,0.,-1.));
#558=DIRECTION('ref_axis',(-1.,0.,0.));
#559=DIRECTION('center_axis',(0.,0.,1.));
#560=DIRECTION('ref_axis',(1.,0.,0.));
#561=DIRECTION('',(0.,-1.,0.));
#562=DIRECTION('',(-1.,0.,0.));
#563=DIRECTION('center_axis',(0.,1.,0.));
#564=DIRECTION('ref_axis',(-1.,0.,0.));
#565=DIRECTION('',(0.,0.,1.));
#566=DIRECTION('',(-1.,0.,0.));
#567=DIRECTION('',(0.,0.,1.));
#568=DIRECTION('',(-1.,0.,0.));
#569=DIRECTION('center_axis',(1.,0.,0.));
#570=DIRECTION('ref_axis',(0.,1.,0.));
#571=DIRECTION('',(0.,1.,0.));
#572=DIRECTION('center_axis',(-1.,0.,0.));
#573=DIRECTION('ref_axis',(0.,-1.,0.));
#574=DIRECTION('',(0.,-1.,0.));
#575=DIRECTION('',(0.,-1.,0.));
#576=DIRECTION('center_axis',(0.,0.,1.));
#577=DIRECTION('ref_axis',(1.,0.,0.));
#578=DIRECTION('center_axis',(0.,0.,1.));
#579=DIRECTION('ref_axis',(1.,0.,0.));
#580=CARTESIAN_POINT('',(0.,0.,0.));
#581=CARTESIAN_POINT('Origin',(50.2,20.,11.7));
#582=CARTESIAN_POINT('',(49.4,80.,10.9));
#583=CARTESIAN_POINT('',(51.,80.,12.5));
#584=CARTESIAN_POINT('',(46.975,80.,8.475));
#585=CARTESIAN_POINT('',(51.,0.,12.5));
#586=CARTESIAN_POINT('',(51.,0.,12.5));
#587=CARTESIAN_POINT('',(49.4,0.,10.9));
#588=CARTESIAN_POINT('',(45.475,0.,6.975));
#589=CARTESIAN_POINT('',(49.4,4.03563492390069,10.9));
#590=CARTESIAN_POINT('',(49.4,20.,10.9));
#591=CARTESIAN_POINT('',(49.7,5.,11.2));
#592=CARTESIAN_POINT('Origin',(48.,5.,9.50000000000001));
#593=CARTESIAN_POINT('',(49.4,5.96436507609931,10.9));
#594=CARTESIAN_POINT('Origin',(48.,5.,9.50000000000001));
#595=CARTESIAN_POINT('',(49.4,24.0356349239007,10.9));
#596=CARTESIAN_POINT('',(49.4,20.,10.9));
#597=CARTESIAN_POINT('',(49.7,25.,11.2));
#598=CARTESIAN_POINT('Origin',(48.,25.,9.50000000000001));
#599=CARTESIAN_POINT('',(49.4,25.9643650760993,10.9));
#600=CARTESIAN_POINT('Origin',(48.,25.,9.50000000000001));
#601=CARTESIAN_POINT('',(49.4,44.0356349239007,10.9));
#602=CARTESIAN_POINT('',(49.4,20.,10.9));
#603=CARTESIAN_POINT('',(49.7,45.,11.2));
#604=CARTESIAN_POINT('Origin',(48.,45.,9.50000000000001));
#605=CARTESIAN_POINT('',(49.4,45.9643650760993,10.9));
#606=CARTESIAN_POINT('Origin',(48.,45.,9.50000000000001));
#607=CARTESIAN_POINT('',(49.4,64.0356349239007,10.9));
#608=CARTESIAN_POINT('',(49.4,20.,10.9));
#609=CARTESIAN_POINT('',(49.7,65.,11.2));
#610=CARTESIAN_POINT('Origin',(48.,65.,9.50000000000001));
#611=CARTESIAN_POINT('',(49.4,65.9643650760993,10.9));
#612=CARTESIAN_POINT('Origin',(48.,65.,9.50000000000001));
#613=CARTESIAN_POINT('',(49.4,20.,10.9));
#614=CARTESIAN_POINT('Origin',(48.,25.,0.));
#615=CARTESIAN_POINT('Origin',(48.,25.,10.9));
#616=CARTESIAN_POINT('',(49.7,25.,12.5));
#617=CARTESIAN_POINT('',(49.7,25.,0.));
#618=CARTESIAN_POINT('Origin',(48.,25.,12.5));
#619=CARTESIAN_POINT('Origin',(48.,5.,0.));
#620=CARTESIAN_POINT('Origin',(48.,5.,10.9));
#621=CARTESIAN_POINT('',(49.7,5.,12.5));
#622=CARTESIAN_POINT('',(49.7,5.,0.));
#623=CARTESIAN_POINT('Origin',(48.,5.,12.5));
#624=CARTESIAN_POINT('Origin',(39.,0.,4.));
#625=CARTESIAN_POINT('',(39.,0.,12.5));
#626=CARTESIAN_POINT('',(39.,0.,12.5));
#627=CARTESIAN_POINT('',(39.,0.,4.));
#628=CARTESIAN_POINT('',(39.,0.,4.));
#629=CARTESIAN_POINT('',(45.,0.,4.));
#630=CARTESIAN_POINT('',(39.,0.,4.));
#631=CARTESIAN_POINT('',(45.,0.,10.9));
#632=CARTESIAN_POINT('',(45.,0.,4.));
#633=CARTESIAN_POINT('',(39.,0.,10.9));
#634=CARTESIAN_POINT('Origin',(41.5,50.,4.));
#635=CARTESIAN_POINT('',(42.75,50.,4.));
#636=CARTESIAN_POINT('Origin',(41.5,50.,4.));
#637=CARTESIAN_POINT('',(42.75,50.,10.5));
#638=CARTESIAN_POINT('',(42.75,50.,4.));
#639=CARTESIAN_POINT('Origin',(41.5,50.,10.5));
#640=CARTESIAN_POINT('Origin',(41.5,50.,10.5));
#641=CARTESIAN_POINT('Origin',(41.5,10.,4.));
#642=CARTESIAN_POINT('',(42.75,10.,4.));
#643=CARTESIAN_POINT('Origin',(41.5,10.,4.));
#644=CARTESIAN_POINT('',(42.75,10.,10.5));
#645=CARTESIAN_POINT('',(42.75,10.,4.));
#646=CARTESIAN_POINT('Origin',(41.5,10.,10.5));
#647=CARTESIAN_POINT('Origin',(41.5,10.,10.5));
#648=CARTESIAN_POINT('Origin',(41.5,30.,4.));
#649=CARTESIAN_POINT('',(42.75,30.,4.));
#650=CARTESIAN_POINT('Origin',(41.5,30.,4.));
#651=CARTESIAN_POINT('',(42.75,30.,10.5));
#652=CARTESIAN_POINT('',(42.75,30.,4.));
#653=CARTESIAN_POINT('Origin',(41.5,30.,10.5));
#654=CARTESIAN_POINT('Origin',(41.5,30.,10.5));
#655=CARTESIAN_POINT('Origin',(41.5,70.,4.));
#656=CARTESIAN_POINT('',(42.75,70.,4.));
#657=CARTESIAN_POINT('Origin',(41.5,70.,4.));
#658=CARTESIAN_POINT('',(42.75,70.,10.5));
#659=CARTESIAN_POINT('',(42.75,70.,4.));
#660=CARTESIAN_POINT('Origin',(41.5,70.,10.5));
#661=CARTESIAN_POINT('Origin',(41.5,70.,10.5));
#662=CARTESIAN_POINT('Origin',(48.,45.,0.));
#663=CARTESIAN_POINT('Origin',(48.,45.,10.9));
#664=CARTESIAN_POINT('',(49.7,45.,12.5));
#665=CARTESIAN_POINT('',(49.7,45.,0.));
#666=CARTESIAN_POINT('Origin',(48.,45.,12.5));
#667=CARTESIAN_POINT('Origin',(48.,65.,0.));
#668=CARTESIAN_POINT('Origin',(48.,65.,10.9));
#669=CARTESIAN_POINT('',(49.7,65.,12.5));
#670=CARTESIAN_POINT('',(49.7,65.,0.));
#671=CARTESIAN_POINT('Origin',(48.,65.,12.5));
#672=CARTESIAN_POINT('Origin',(45.,40.,10.9));
#673=CARTESIAN_POINT('',(45.,80.,10.9));
#674=CARTESIAN_POINT('',(45.,20.,10.9));
#675=CARTESIAN_POINT('',(51.,80.,10.9));
#676=CARTESIAN_POINT('Origin',(45.,80.,4.));
#677=CARTESIAN_POINT('',(45.,80.,4.));
#678=CARTESIAN_POINT('',(45.,80.,4.));
#679=CARTESIAN_POINT('',(39.,80.,4.));
#680=CARTESIAN_POINT('',(45.,80.,4.));
#681=CARTESIAN_POINT('',(39.,80.,12.5));
#682=CARTESIAN_POINT('',(39.,80.,4.));
#683=CARTESIAN_POINT('',(51.,80.,12.5));
#684=CARTESIAN_POINT('Origin',(45.,0.,4.));
#685=CARTESIAN_POINT('',(45.,0.,4.));
#686=CARTESIAN_POINT('Origin',(39.,80.,4.));
#687=CARTESIAN_POINT('',(39.,80.,4.));
#688=CARTESIAN_POINT('',(39.,80.,12.5));
#689=CARTESIAN_POINT('Origin',(42.,40.,12.5));
#690=CARTESIAN_POINT('Origin',(42.,40.,4.));
#691=UNCERTAINTY_MEASURE_WITH_UNIT(LENGTH_MEASURE(0.01),#695,
'DISTANCE_ACCURACY_VALUE',
'Maximum model space distance between geometric entities at asserted c
onnectivities');
#692=UNCERTAINTY_MEASURE_WITH_UNIT(LENGTH_MEASURE(0.01),#695,
'DISTANCE_ACCURACY_VALUE',
'Maximum model space distance between geometric entities at asserted c
onnectivities');
#693=(
GEOMETRIC_REPRESENTATION_CONTEXT(3)
GLOBAL_UNCERTAINTY_ASSIGNED_CONTEXT((#691))
GLOBAL_UNIT_ASSIGNED_CONTEXT((#695,#697,#698))
REPRESENTATION_CONTEXT('','3D')
);
#694=(
GEOMETRIC_REPRESENTATION_CONTEXT(3)
GLOBAL_UNCERTAINTY_ASSIGNED_CONTEXT((#692))
GLOBAL_UNIT_ASSIGNED_CONTEXT((#695,#697,#698))
REPRESENTATION_CONTEXT('','3D')
);
#695=(
LENGTH_UNIT()
NAMED_UNIT(*)
SI_UNIT(.MILLI.,.METRE.)
);
#696=(
LENGTH_UNIT()
NAMED_UNIT(*)
SI_UNIT(.CENTI.,.METRE.)
);
#697=(
NAMED_UNIT(*)
PLANE_ANGLE_UNIT()
SI_UNIT($,.RADIAN.)
);
#698=(
NAMED_UNIT(*)
SI_UNIT($,.STERADIAN.)
SOLID_ANGLE_UNIT()
);
#699=SHAPE_DEFINITION_REPRESENTATION(#700,#701);
#700=PRODUCT_DEFINITION_SHAPE('',$,#703);
#701=SHAPE_REPRESENTATION('',(#415),#693);
#702=PRODUCT_DEFINITION_CONTEXT('part definition',#707,'design');
#703=PRODUCT_DEFINITION('Right_Rod_Support','Right_Rod_Support',#704,#702);
#704=PRODUCT_DEFINITION_FORMATION('',$,#709);
#705=PRODUCT_RELATED_PRODUCT_CATEGORY('Right_Rod_Support',
'Right_Rod_Support',(#709));
#706=APPLICATION_PROTOCOL_DEFINITION('international standard',
'automotive_design',2009,#707);
#707=APPLICATION_CONTEXT(
'Core Data for Automotive Mechanical Design Process');
#708=PRODUCT_CONTEXT('part definition',#707,'mechanical');
#709=PRODUCT('Right_Rod_Support','Right_Rod_Support',$,(#708));
#710=PRESENTATION_STYLE_ASSIGNMENT((#711));
#711=SURFACE_STYLE_USAGE(.BOTH.,#714);
#712=SURFACE_STYLE_RENDERING_WITH_PROPERTIES($,#718,(#713));
#713=SURFACE_STYLE_TRANSPARENT(0.);
#714=SURFACE_SIDE_STYLE('',(#715,#712));
#715=SURFACE_STYLE_FILL_AREA(#716);
#716=FILL_AREA_STYLE('',(#717));
#717=FILL_AREA_STYLE_COLOUR('',#718);
#718=COLOUR_RGB('',0.235294117647059,0.647058823529412,0.603921568627451);
ENDSEC;
END-ISO-10303-21;
