G04*
G04 #@! TF.GenerationSoftware,Altium Limited,Altium Designer,26.10.1 (5)*
G04*
G04 Layer_Physical_Order=6*
G04 Layer_Color=16711680*
G04 Board_Origin=0|0*
%FSLAX44Y44*%
%MOMM*%
G71*
G04*
G04 #@! TF.SameCoordinates,B6448522-6BDF-49B7-94C1-0DDA889AABCC*
G04*
G04*
G04 #@! TF.FilePolarity,Positive*
G04*
G01*
G75*
%ADD22C,1.6000*%
%ADD23C,1.0000*%
%ADD24C,3.0000*%
%ADD25C,5.0000*%
%ADD26C,0.5000*%
%ADD28C,0.2500*%
%ADD29C,0.1100*%
%ADD30R,1.0000X0.5000*%
%ADD31R,0.5000X1.0000*%
%ADD32R,1.1000X1.0000*%
%ADD33R,0.6725X0.7154*%
G36*
X192500Y2500D02*
X2500D01*
Y676500D01*
X192500D01*
Y2500D01*
D02*
G37*
%LPC*%
G36*
X177970Y583538D02*
Y577370D01*
X184138D01*
X184046Y578068D01*
X183286Y579902D01*
X182078Y581478D01*
X180502Y582686D01*
X178668Y583446D01*
X177970Y583538D01*
D02*
G37*
G36*
X175430D02*
X174732Y583446D01*
X172897Y582686D01*
X171322Y581478D01*
X170114Y579902D01*
X169354Y578068D01*
X169262Y577370D01*
X175430D01*
Y583538D01*
D02*
G37*
G36*
X152570D02*
Y577370D01*
X158738D01*
X158646Y578068D01*
X157886Y579902D01*
X156678Y581478D01*
X155103Y582686D01*
X153268Y583446D01*
X152570Y583538D01*
D02*
G37*
G36*
X150030D02*
X149332Y583446D01*
X147498Y582686D01*
X145922Y581478D01*
X144714Y579902D01*
X143954Y578068D01*
X143862Y577370D01*
X150030D01*
Y583538D01*
D02*
G37*
G36*
X44970D02*
Y577370D01*
X51138D01*
X51046Y578068D01*
X50286Y579902D01*
X49078Y581478D01*
X47502Y582686D01*
X45668Y583446D01*
X44970Y583538D01*
D02*
G37*
G36*
X42430D02*
X41732Y583446D01*
X39897Y582686D01*
X38322Y581478D01*
X37114Y579902D01*
X36354Y578068D01*
X36262Y577370D01*
X42430D01*
Y583538D01*
D02*
G37*
G36*
X19570D02*
Y577370D01*
X25738D01*
X25646Y578068D01*
X24886Y579902D01*
X23678Y581478D01*
X22102Y582686D01*
X20268Y583446D01*
X19570Y583538D01*
D02*
G37*
G36*
X17030D02*
X16332Y583446D01*
X14497Y582686D01*
X12922Y581478D01*
X11714Y579902D01*
X10954Y578068D01*
X10862Y577370D01*
X17030D01*
Y583538D01*
D02*
G37*
G36*
X184138Y574830D02*
X177970D01*
Y568662D01*
X178668Y568754D01*
X180502Y569514D01*
X182078Y570722D01*
X183286Y572298D01*
X184046Y574132D01*
X184138Y574830D01*
D02*
G37*
G36*
X175430D02*
X169262D01*
X169354Y574132D01*
X170114Y572298D01*
X171322Y570722D01*
X172897Y569514D01*
X174732Y568754D01*
X175430Y568662D01*
Y574830D01*
D02*
G37*
G36*
X158738D02*
X152570D01*
Y568662D01*
X153268Y568754D01*
X155103Y569514D01*
X156678Y570722D01*
X157886Y572298D01*
X158646Y574132D01*
X158738Y574830D01*
D02*
G37*
G36*
X150030D02*
X143862D01*
X143954Y574132D01*
X144714Y572298D01*
X145922Y570722D01*
X147498Y569514D01*
X149332Y568754D01*
X150030Y568662D01*
Y574830D01*
D02*
G37*
G36*
X51138D02*
X44970D01*
Y568662D01*
X45668Y568754D01*
X47502Y569514D01*
X49078Y570722D01*
X50286Y572298D01*
X51046Y574132D01*
X51138Y574830D01*
D02*
G37*
G36*
X42430D02*
X36262D01*
X36354Y574132D01*
X37114Y572298D01*
X38322Y570722D01*
X39897Y569514D01*
X41732Y568754D01*
X42430Y568662D01*
Y574830D01*
D02*
G37*
G36*
X25738D02*
X19570D01*
Y568662D01*
X20268Y568754D01*
X22102Y569514D01*
X23678Y570722D01*
X24886Y572298D01*
X25646Y574132D01*
X25738Y574830D01*
D02*
G37*
G36*
X17030D02*
X10862D01*
X10954Y574132D01*
X11714Y572298D01*
X12922Y570722D01*
X14497Y569514D01*
X16332Y568754D01*
X17030Y568662D01*
Y574830D01*
D02*
G37*
G36*
X164000Y570460D02*
X162173Y570220D01*
X160470Y569515D01*
X159008Y568392D01*
X157886Y566930D01*
X157180Y565227D01*
X156940Y563400D01*
X157180Y561573D01*
X157886Y559870D01*
X159008Y558408D01*
X160470Y557285D01*
X162173Y556580D01*
X164000Y556340D01*
X165827Y556580D01*
X167530Y557285D01*
X168992Y558408D01*
X170114Y559870D01*
X170820Y561573D01*
X171060Y563400D01*
X170820Y565227D01*
X170114Y566930D01*
X168992Y568392D01*
X167530Y569515D01*
X165827Y570220D01*
X164000Y570460D01*
D02*
G37*
G36*
X31000D02*
X29173Y570220D01*
X27470Y569515D01*
X26007Y568392D01*
X24885Y566930D01*
X24180Y565227D01*
X23940Y563400D01*
X24180Y561573D01*
X24885Y559870D01*
X26007Y558408D01*
X27470Y557285D01*
X29173Y556580D01*
X31000Y556340D01*
X32827Y556580D01*
X34530Y557285D01*
X35992Y558408D01*
X37115Y559870D01*
X37820Y561573D01*
X38060Y563400D01*
X37820Y565227D01*
X37115Y566930D01*
X35992Y568392D01*
X34530Y569515D01*
X32827Y570220D01*
X31000Y570460D01*
D02*
G37*
G36*
X177970Y558138D02*
Y551970D01*
X184138D01*
X184046Y552668D01*
X183286Y554502D01*
X182078Y556078D01*
X180502Y557286D01*
X178668Y558046D01*
X177970Y558138D01*
D02*
G37*
G36*
X175430D02*
X174732Y558046D01*
X172897Y557286D01*
X171322Y556078D01*
X170114Y554502D01*
X169354Y552668D01*
X169262Y551970D01*
X175430D01*
Y558138D01*
D02*
G37*
G36*
X152570D02*
Y551970D01*
X158738D01*
X158646Y552668D01*
X157886Y554502D01*
X156678Y556078D01*
X155103Y557286D01*
X153268Y558046D01*
X152570Y558138D01*
D02*
G37*
G36*
X150030D02*
X149332Y558046D01*
X147498Y557286D01*
X145922Y556078D01*
X144714Y554502D01*
X143954Y552668D01*
X143862Y551970D01*
X150030D01*
Y558138D01*
D02*
G37*
G36*
X44970D02*
Y551970D01*
X51138D01*
X51046Y552668D01*
X50286Y554502D01*
X49078Y556078D01*
X47502Y557286D01*
X45668Y558046D01*
X44970Y558138D01*
D02*
G37*
G36*
X42430D02*
X41732Y558046D01*
X39897Y557286D01*
X38322Y556078D01*
X37114Y554502D01*
X36354Y552668D01*
X36262Y551970D01*
X42430D01*
Y558138D01*
D02*
G37*
G36*
X19570D02*
Y551970D01*
X25738D01*
X25646Y552668D01*
X24886Y554502D01*
X23678Y556078D01*
X22102Y557286D01*
X20268Y558046D01*
X19570Y558138D01*
D02*
G37*
G36*
X17030D02*
X16332Y558046D01*
X14497Y557286D01*
X12922Y556078D01*
X11714Y554502D01*
X10954Y552668D01*
X10862Y551970D01*
X17030D01*
Y558138D01*
D02*
G37*
G36*
X184138Y549430D02*
X177970D01*
Y543262D01*
X178668Y543354D01*
X180502Y544114D01*
X182078Y545322D01*
X183286Y546898D01*
X184046Y548732D01*
X184138Y549430D01*
D02*
G37*
G36*
X175430D02*
X169262D01*
X169354Y548732D01*
X170114Y546898D01*
X171322Y545322D01*
X172897Y544114D01*
X174732Y543354D01*
X175430Y543262D01*
Y549430D01*
D02*
G37*
G36*
X158738D02*
X152570D01*
Y543262D01*
X153268Y543354D01*
X155103Y544114D01*
X156678Y545322D01*
X157886Y546898D01*
X158646Y548732D01*
X158738Y549430D01*
D02*
G37*
G36*
X150030D02*
X143862D01*
X143954Y548732D01*
X144714Y546898D01*
X145922Y545322D01*
X147498Y544114D01*
X149332Y543354D01*
X150030Y543262D01*
Y549430D01*
D02*
G37*
G36*
X51138D02*
X44970D01*
Y543262D01*
X45668Y543354D01*
X47502Y544114D01*
X49078Y545322D01*
X50286Y546898D01*
X51046Y548732D01*
X51138Y549430D01*
D02*
G37*
G36*
X42430D02*
X36262D01*
X36354Y548732D01*
X37114Y546898D01*
X38322Y545322D01*
X39897Y544114D01*
X41732Y543354D01*
X42430Y543262D01*
Y549430D01*
D02*
G37*
G36*
X25738D02*
X19570D01*
Y543262D01*
X20268Y543354D01*
X22102Y544114D01*
X23678Y545322D01*
X24886Y546898D01*
X25646Y548732D01*
X25738Y549430D01*
D02*
G37*
G36*
X17030D02*
X10862D01*
X10954Y548732D01*
X11714Y546898D01*
X12922Y545322D01*
X14497Y544114D01*
X16332Y543354D01*
X17030Y543262D01*
Y549430D01*
D02*
G37*
G36*
X161000Y515659D02*
Y515600D01*
X113000D01*
Y515659D01*
X110835Y515228D01*
X108999Y514001D01*
X107772Y512165D01*
X107341Y510000D01*
X106398Y509862D01*
X104638D01*
Y500291D01*
X104638D01*
Y491000D01*
X102500D01*
Y477000D01*
X107400D01*
Y460243D01*
X107341D01*
X107772Y458077D01*
X108999Y456241D01*
X108999Y456241D01*
X109747Y455576D01*
X110000Y455323D01*
Y448500D01*
X85000D01*
Y455323D01*
X85960Y456283D01*
X86001Y456241D01*
X87228Y458077D01*
X87659Y460243D01*
X87600D01*
Y477000D01*
X92500D01*
Y491000D01*
X90362D01*
Y498709D01*
Y509862D01*
X88602D01*
X87659Y510000D01*
X87228Y512165D01*
X86001Y514001D01*
X84165Y515228D01*
X82000Y515659D01*
Y515600D01*
X34000D01*
Y515659D01*
X31834Y515228D01*
X29999Y514001D01*
X28772Y512165D01*
X28341Y510000D01*
X28400D01*
Y494900D01*
X27470Y494515D01*
X26007Y493392D01*
X24885Y491930D01*
X24180Y490227D01*
X23940Y488400D01*
X24180Y486573D01*
X24885Y484870D01*
X26007Y483408D01*
X27470Y482285D01*
X29173Y481580D01*
X31000Y481340D01*
X32827Y481580D01*
X34530Y482285D01*
X35992Y483408D01*
X37115Y484870D01*
X37820Y486573D01*
X38060Y488400D01*
X37820Y490227D01*
X37115Y491930D01*
X35992Y493392D01*
X34530Y494515D01*
X33600Y494900D01*
Y510000D01*
X33650D01*
X33753Y510247D01*
X34000Y510350D01*
Y510400D01*
X78860D01*
X79638Y509862D01*
Y498709D01*
Y491000D01*
X77500D01*
Y477000D01*
X82400D01*
Y460500D01*
X76000D01*
Y455000D01*
X76000Y454000D01*
X69443D01*
X69000Y454088D01*
X68557Y454000D01*
X62000D01*
Y445000D01*
Y438000D01*
Y431000D01*
Y424000D01*
Y417100D01*
X40000D01*
Y417159D01*
X37834Y416728D01*
X35999Y415501D01*
X35330Y414500D01*
X29500D01*
Y400500D01*
X31638D01*
Y391209D01*
Y381638D01*
X32654D01*
X33037Y380714D01*
X30040Y377717D01*
X29999Y377759D01*
X28772Y375923D01*
X28341Y373757D01*
X28400D01*
Y349900D01*
X27470Y349515D01*
X26007Y348392D01*
X24885Y346930D01*
X24180Y345227D01*
X23940Y343400D01*
X24180Y341573D01*
X24885Y339870D01*
X26007Y338408D01*
X27470Y337285D01*
X29173Y336580D01*
X31000Y336340D01*
X32827Y336580D01*
X34530Y337285D01*
X35992Y338408D01*
X37115Y339870D01*
X37820Y341573D01*
X38060Y343400D01*
X37820Y345227D01*
X37115Y346930D01*
X35992Y348392D01*
X34530Y349515D01*
X33600Y349900D01*
Y372778D01*
X33650Y373757D01*
X33753Y374005D01*
X34424Y374747D01*
X37960Y378283D01*
X38001Y378241D01*
X39228Y380077D01*
X39538Y381638D01*
X42362D01*
Y391209D01*
Y400500D01*
X44500D01*
Y411900D01*
X62000D01*
Y403000D01*
X68500D01*
Y396943D01*
X68412Y396500D01*
X68500Y396057D01*
Y389500D01*
X98400D01*
Y351522D01*
X98350Y350543D01*
X98247Y350295D01*
X97590Y349567D01*
X71447Y323424D01*
X70699Y322759D01*
X70699Y322759D01*
X69472Y320923D01*
X69041Y318757D01*
X69100D01*
Y317000D01*
X64200D01*
Y303000D01*
X66338D01*
Y293709D01*
Y284138D01*
X69100D01*
Y274400D01*
X69050D01*
X68947Y274153D01*
X68700Y274050D01*
Y274000D01*
X37500D01*
X37115Y274930D01*
X35992Y276392D01*
X34530Y277514D01*
X32827Y278220D01*
X31000Y278460D01*
X29173Y278220D01*
X27470Y277514D01*
X26007Y276392D01*
X24885Y274930D01*
X24180Y273227D01*
X23940Y271400D01*
X24180Y269573D01*
X24885Y267870D01*
X26007Y266408D01*
X27470Y265285D01*
X29173Y264580D01*
X31000Y264340D01*
X32827Y264580D01*
X34530Y265285D01*
X35992Y266408D01*
X37115Y267870D01*
X37500Y268800D01*
X68700D01*
Y268741D01*
X70866Y269172D01*
X72701Y270399D01*
X73928Y272234D01*
X74359Y274400D01*
X74300D01*
Y284138D01*
X77062D01*
Y293709D01*
Y303000D01*
X79200D01*
Y317000D01*
X74300D01*
Y318707D01*
X74350Y318757D01*
X74920Y319521D01*
X75124Y319747D01*
X101960Y346583D01*
X102001Y346541D01*
X103228Y348377D01*
X103659Y350543D01*
X103600D01*
Y389500D01*
X119400D01*
Y332254D01*
X118535Y330959D01*
X118221Y329379D01*
X118250D01*
Y317000D01*
X113350D01*
Y303000D01*
X115488D01*
Y293709D01*
Y284138D01*
X118250D01*
Y274400D01*
X118191D01*
X118622Y272234D01*
X119849Y270399D01*
X121685Y269172D01*
X123850Y268741D01*
Y268800D01*
X157500D01*
X157886Y267870D01*
X159008Y266408D01*
X160470Y265285D01*
X162173Y264580D01*
X164000Y264340D01*
X165827Y264580D01*
X167530Y265285D01*
X168992Y266408D01*
X170114Y267870D01*
X170820Y269573D01*
X171060Y271400D01*
X170820Y273227D01*
X170114Y274930D01*
X168992Y276392D01*
X167530Y277514D01*
X165827Y278220D01*
X164000Y278460D01*
X162173Y278220D01*
X160470Y277514D01*
X159008Y276392D01*
X157886Y274930D01*
X157500Y274000D01*
X123850D01*
Y274050D01*
X123603Y274153D01*
X123500Y274400D01*
X123450D01*
Y284138D01*
X126212D01*
Y293709D01*
Y303000D01*
X128350D01*
Y317000D01*
X123450D01*
Y328896D01*
X124315Y330191D01*
X124629Y331771D01*
X124600D01*
Y389500D01*
X126500D01*
Y403000D01*
X133000D01*
Y410000D01*
Y418900D01*
X150500D01*
Y407500D01*
X152638D01*
Y398209D01*
Y388638D01*
X155462D01*
X155772Y387077D01*
X156999Y385241D01*
X156999Y385241D01*
X157747Y384576D01*
X160585Y381738D01*
X161247Y381005D01*
X161350Y380757D01*
X161400Y379778D01*
Y349900D01*
X160470Y349515D01*
X159008Y348392D01*
X157886Y346930D01*
X157180Y345227D01*
X156940Y343400D01*
X157180Y341573D01*
X157886Y339870D01*
X159008Y338408D01*
X160470Y337285D01*
X162173Y336580D01*
X164000Y336340D01*
X165827Y336580D01*
X167530Y337285D01*
X168992Y338408D01*
X170114Y339870D01*
X170820Y341573D01*
X171060Y343400D01*
X170820Y345227D01*
X170114Y346930D01*
X168992Y348392D01*
X167530Y349515D01*
X166600Y349900D01*
Y380757D01*
X166659D01*
X166228Y382923D01*
X165001Y384759D01*
X164960Y384717D01*
X164960Y384717D01*
X161963Y387714D01*
X162346Y388638D01*
X163362D01*
Y398209D01*
Y407500D01*
X165500D01*
Y421500D01*
X159670D01*
X159001Y422501D01*
X157165Y423728D01*
X155000Y424159D01*
Y424100D01*
X133000D01*
Y438000D01*
Y445000D01*
Y454000D01*
X126443D01*
X126000Y454088D01*
X125557Y454000D01*
X119000D01*
X119000Y455000D01*
Y460500D01*
X112600D01*
Y477000D01*
X117500D01*
Y491000D01*
X115362D01*
Y498709D01*
X115362D01*
Y509862D01*
X116140Y510400D01*
X161000D01*
Y510350D01*
X161247Y510247D01*
X161350Y510000D01*
X161400D01*
Y494900D01*
X160470Y494515D01*
X159008Y493392D01*
X157886Y491930D01*
X157180Y490227D01*
X156940Y488400D01*
X157180Y486573D01*
X157886Y484870D01*
X159008Y483408D01*
X160470Y482285D01*
X162173Y481580D01*
X164000Y481340D01*
X165827Y481580D01*
X167530Y482285D01*
X168992Y483408D01*
X170114Y484870D01*
X170820Y486573D01*
X171060Y488400D01*
X170820Y490227D01*
X170114Y491930D01*
X168992Y493392D01*
X167530Y494515D01*
X166600Y494900D01*
Y510000D01*
X166659D01*
X166228Y512165D01*
X165001Y514001D01*
X163165Y515228D01*
X161000Y515659D01*
D02*
G37*
G36*
X177970Y508538D02*
Y502370D01*
X184138D01*
X184046Y503068D01*
X183286Y504902D01*
X182078Y506478D01*
X180502Y507686D01*
X178668Y508446D01*
X177970Y508538D01*
D02*
G37*
G36*
X175430D02*
X174732Y508446D01*
X172897Y507686D01*
X171322Y506478D01*
X170114Y504902D01*
X169354Y503068D01*
X169262Y502370D01*
X175430D01*
Y508538D01*
D02*
G37*
G36*
X152570D02*
Y502370D01*
X158738D01*
X158646Y503068D01*
X157886Y504902D01*
X156678Y506478D01*
X155103Y507686D01*
X153268Y508446D01*
X152570Y508538D01*
D02*
G37*
G36*
X150030D02*
X149332Y508446D01*
X147498Y507686D01*
X145922Y506478D01*
X144714Y504902D01*
X143954Y503068D01*
X143862Y502370D01*
X150030D01*
Y508538D01*
D02*
G37*
G36*
X44970D02*
Y502370D01*
X51138D01*
X51046Y503068D01*
X50286Y504902D01*
X49078Y506478D01*
X47502Y507686D01*
X45668Y508446D01*
X44970Y508538D01*
D02*
G37*
G36*
X42430D02*
X41732Y508446D01*
X39897Y507686D01*
X38322Y506478D01*
X37114Y504902D01*
X36354Y503068D01*
X36262Y502370D01*
X42430D01*
Y508538D01*
D02*
G37*
G36*
X19570D02*
Y502370D01*
X25738D01*
X25646Y503068D01*
X24886Y504902D01*
X23678Y506478D01*
X22102Y507686D01*
X20268Y508446D01*
X19570Y508538D01*
D02*
G37*
G36*
X17030D02*
X16332Y508446D01*
X14497Y507686D01*
X12922Y506478D01*
X11714Y504902D01*
X10954Y503068D01*
X10862Y502370D01*
X17030D01*
Y508538D01*
D02*
G37*
G36*
X184138Y499830D02*
X177970D01*
Y493662D01*
X178668Y493754D01*
X180502Y494514D01*
X182078Y495722D01*
X183286Y497298D01*
X184046Y499132D01*
X184138Y499830D01*
D02*
G37*
G36*
X175430D02*
X169262D01*
X169354Y499132D01*
X170114Y497298D01*
X171322Y495722D01*
X172897Y494514D01*
X174732Y493754D01*
X175430Y493662D01*
Y499830D01*
D02*
G37*
G36*
X158738D02*
X152570D01*
Y493662D01*
X153268Y493754D01*
X155103Y494514D01*
X156678Y495722D01*
X157886Y497298D01*
X158646Y499132D01*
X158738Y499830D01*
D02*
G37*
G36*
X150030D02*
X143862D01*
X143954Y499132D01*
X144714Y497298D01*
X145922Y495722D01*
X147498Y494514D01*
X149332Y493754D01*
X150030Y493662D01*
Y499830D01*
D02*
G37*
G36*
X51138D02*
X44970D01*
Y493662D01*
X45668Y493754D01*
X47502Y494514D01*
X49078Y495722D01*
X50286Y497298D01*
X51046Y499132D01*
X51138Y499830D01*
D02*
G37*
G36*
X42430D02*
X36262D01*
X36354Y499132D01*
X37114Y497298D01*
X38322Y495722D01*
X39897Y494514D01*
X41732Y493754D01*
X42430Y493662D01*
Y499830D01*
D02*
G37*
G36*
X25738D02*
X19570D01*
Y493662D01*
X20268Y493754D01*
X22102Y494514D01*
X23678Y495722D01*
X24886Y497298D01*
X25646Y499132D01*
X25738Y499830D01*
D02*
G37*
G36*
X17030D02*
X10862D01*
X10954Y499132D01*
X11714Y497298D01*
X12922Y495722D01*
X14497Y494514D01*
X16332Y493754D01*
X17030Y493662D01*
Y499830D01*
D02*
G37*
G36*
X75500Y491000D02*
X60500D01*
Y477000D01*
X75500D01*
Y491000D01*
D02*
G37*
G36*
X134500Y491000D02*
X119500D01*
Y477000D01*
X134500D01*
Y491000D01*
D02*
G37*
G36*
X177970Y483138D02*
Y476970D01*
X184138D01*
X184046Y477668D01*
X183286Y479502D01*
X182078Y481078D01*
X180502Y482286D01*
X178668Y483046D01*
X177970Y483138D01*
D02*
G37*
G36*
X175430D02*
X174732Y483046D01*
X172897Y482286D01*
X171322Y481078D01*
X170114Y479502D01*
X169354Y477668D01*
X169262Y476970D01*
X175430D01*
Y483138D01*
D02*
G37*
G36*
X152570D02*
Y476970D01*
X158738D01*
X158646Y477668D01*
X157886Y479502D01*
X156678Y481078D01*
X155103Y482286D01*
X153268Y483046D01*
X152570Y483138D01*
D02*
G37*
G36*
X150030D02*
X149332Y483046D01*
X147498Y482286D01*
X145922Y481078D01*
X144714Y479502D01*
X143954Y477668D01*
X143862Y476970D01*
X150030D01*
Y483138D01*
D02*
G37*
G36*
X44970D02*
Y476970D01*
X51138D01*
X51046Y477668D01*
X50286Y479502D01*
X49078Y481078D01*
X47502Y482286D01*
X45668Y483046D01*
X44970Y483138D01*
D02*
G37*
G36*
X42430D02*
X41732Y483046D01*
X39897Y482286D01*
X38322Y481078D01*
X37114Y479502D01*
X36354Y477668D01*
X36262Y476970D01*
X42430D01*
Y483138D01*
D02*
G37*
G36*
X19570D02*
Y476970D01*
X25738D01*
X25646Y477668D01*
X24886Y479502D01*
X23678Y481078D01*
X22102Y482286D01*
X20268Y483046D01*
X19570Y483138D01*
D02*
G37*
G36*
X17030D02*
X16332Y483046D01*
X14497Y482286D01*
X12922Y481078D01*
X11714Y479502D01*
X10954Y477668D01*
X10862Y476970D01*
X17030D01*
Y483138D01*
D02*
G37*
G36*
X184138Y474430D02*
X177970D01*
Y468262D01*
X178668Y468354D01*
X180502Y469114D01*
X182078Y470322D01*
X183286Y471898D01*
X184046Y473732D01*
X184138Y474430D01*
D02*
G37*
G36*
X175430D02*
X169262D01*
X169354Y473732D01*
X170114Y471898D01*
X171322Y470322D01*
X172897Y469114D01*
X174732Y468354D01*
X175430Y468262D01*
Y474430D01*
D02*
G37*
G36*
X158738D02*
X152570D01*
Y468262D01*
X153268Y468354D01*
X155103Y469114D01*
X156678Y470322D01*
X157886Y471898D01*
X158646Y473732D01*
X158738Y474430D01*
D02*
G37*
G36*
X150030D02*
X143862D01*
X143954Y473732D01*
X144714Y471898D01*
X145922Y470322D01*
X147498Y469114D01*
X149332Y468354D01*
X150030Y468262D01*
Y474430D01*
D02*
G37*
G36*
X51138D02*
X44970D01*
Y468262D01*
X45668Y468354D01*
X47502Y469114D01*
X49078Y470322D01*
X50286Y471898D01*
X51046Y473732D01*
X51138Y474430D01*
D02*
G37*
G36*
X42430D02*
X36262D01*
X36354Y473732D01*
X37114Y471898D01*
X38322Y470322D01*
X39897Y469114D01*
X41732Y468354D01*
X42430Y468262D01*
Y474430D01*
D02*
G37*
G36*
X25738D02*
X19570D01*
Y468262D01*
X20268Y468354D01*
X22102Y469114D01*
X23678Y470322D01*
X24886Y471898D01*
X25646Y473732D01*
X25738Y474430D01*
D02*
G37*
G36*
X17030D02*
X10862D01*
X10954Y473732D01*
X11714Y471898D01*
X12922Y470322D01*
X14497Y469114D01*
X16332Y468354D01*
X17030Y468262D01*
Y474430D01*
D02*
G37*
G36*
X182500Y421500D02*
X167500D01*
Y407500D01*
X182500D01*
Y421500D01*
D02*
G37*
G36*
X27500Y414500D02*
X12500D01*
Y400500D01*
X27500D01*
Y414500D01*
D02*
G37*
G36*
X44970Y363538D02*
Y357370D01*
X51138D01*
X51046Y358068D01*
X50286Y359902D01*
X49078Y361478D01*
X47502Y362686D01*
X45668Y363446D01*
X44970Y363538D01*
D02*
G37*
G36*
X19570D02*
Y357370D01*
X25738D01*
X25646Y358068D01*
X24886Y359902D01*
X23678Y361478D01*
X22102Y362686D01*
X20268Y363446D01*
X19570Y363538D01*
D02*
G37*
G36*
X177970D02*
Y357370D01*
X184138D01*
X184046Y358068D01*
X183286Y359902D01*
X182078Y361478D01*
X180502Y362686D01*
X178668Y363446D01*
X177970Y363538D01*
D02*
G37*
G36*
X175430D02*
X174732Y363446D01*
X172897Y362686D01*
X171322Y361478D01*
X170114Y359902D01*
X169354Y358068D01*
X169262Y357370D01*
X175430D01*
Y363538D01*
D02*
G37*
G36*
X152570D02*
Y357370D01*
X158738D01*
X158646Y358068D01*
X157886Y359902D01*
X156678Y361478D01*
X155103Y362686D01*
X153268Y363446D01*
X152570Y363538D01*
D02*
G37*
G36*
X150030D02*
X149332Y363446D01*
X147498Y362686D01*
X145922Y361478D01*
X144714Y359902D01*
X143954Y358068D01*
X143862Y357370D01*
X150030D01*
Y363538D01*
D02*
G37*
G36*
X42430D02*
X41732Y363446D01*
X39897Y362686D01*
X38322Y361478D01*
X37114Y359902D01*
X36354Y358068D01*
X36262Y357370D01*
X42430D01*
Y363538D01*
D02*
G37*
G36*
X17030D02*
X16332Y363446D01*
X14497Y362686D01*
X12922Y361478D01*
X11714Y359902D01*
X10954Y358068D01*
X10862Y357370D01*
X17030D01*
Y363538D01*
D02*
G37*
G36*
X25738Y354830D02*
X19570D01*
Y348662D01*
X20268Y348754D01*
X22102Y349514D01*
X23678Y350722D01*
X24886Y352298D01*
X25646Y354132D01*
X25738Y354830D01*
D02*
G37*
G36*
X51138D02*
X44970D01*
Y348662D01*
X45668Y348754D01*
X47502Y349514D01*
X49078Y350722D01*
X50286Y352298D01*
X51046Y354132D01*
X51138Y354830D01*
D02*
G37*
G36*
X184138D02*
X177970D01*
Y348662D01*
X178668Y348754D01*
X180502Y349514D01*
X182078Y350722D01*
X183286Y352298D01*
X184046Y354132D01*
X184138Y354830D01*
D02*
G37*
G36*
X175430D02*
X169262D01*
X169354Y354132D01*
X170114Y352298D01*
X171322Y350722D01*
X172897Y349514D01*
X174732Y348754D01*
X175430Y348662D01*
Y354830D01*
D02*
G37*
G36*
X158738D02*
X152570D01*
Y348662D01*
X153268Y348754D01*
X155103Y349514D01*
X156678Y350722D01*
X157886Y352298D01*
X158646Y354132D01*
X158738Y354830D01*
D02*
G37*
G36*
X150030D02*
X143862D01*
X143954Y354132D01*
X144714Y352298D01*
X145922Y350722D01*
X147498Y349514D01*
X149332Y348754D01*
X150030Y348662D01*
Y354830D01*
D02*
G37*
G36*
X42430D02*
X36262D01*
X36354Y354132D01*
X37114Y352298D01*
X38322Y350722D01*
X39897Y349514D01*
X41732Y348754D01*
X42430Y348662D01*
Y354830D01*
D02*
G37*
G36*
X17030D02*
X10862D01*
X10954Y354132D01*
X11714Y352298D01*
X12922Y350722D01*
X14497Y349514D01*
X16332Y348754D01*
X17030Y348662D01*
Y354830D01*
D02*
G37*
G36*
X44970Y338138D02*
Y331970D01*
X51138D01*
X51046Y332668D01*
X50286Y334502D01*
X49078Y336078D01*
X47502Y337286D01*
X45668Y338046D01*
X44970Y338138D01*
D02*
G37*
G36*
X19570D02*
Y331970D01*
X25738D01*
X25646Y332668D01*
X24886Y334502D01*
X23678Y336078D01*
X22102Y337286D01*
X20268Y338046D01*
X19570Y338138D01*
D02*
G37*
G36*
X177970D02*
Y331970D01*
X184138D01*
X184046Y332668D01*
X183286Y334502D01*
X182078Y336078D01*
X180502Y337286D01*
X178668Y338046D01*
X177970Y338138D01*
D02*
G37*
G36*
X175430D02*
X174732Y338046D01*
X172897Y337286D01*
X171322Y336078D01*
X170114Y334502D01*
X169354Y332668D01*
X169262Y331970D01*
X175430D01*
Y338138D01*
D02*
G37*
G36*
X152570D02*
Y331970D01*
X158738D01*
X158646Y332668D01*
X157886Y334502D01*
X156678Y336078D01*
X155103Y337286D01*
X153268Y338046D01*
X152570Y338138D01*
D02*
G37*
G36*
X150030D02*
X149332Y338046D01*
X147498Y337286D01*
X145922Y336078D01*
X144714Y334502D01*
X143954Y332668D01*
X143862Y331970D01*
X150030D01*
Y338138D01*
D02*
G37*
G36*
X42430D02*
X41732Y338046D01*
X39897Y337286D01*
X38322Y336078D01*
X37114Y334502D01*
X36354Y332668D01*
X36262Y331970D01*
X42430D01*
Y338138D01*
D02*
G37*
G36*
X17030D02*
X16332Y338046D01*
X14497Y337286D01*
X12922Y336078D01*
X11714Y334502D01*
X10954Y332668D01*
X10862Y331970D01*
X17030D01*
Y338138D01*
D02*
G37*
G36*
X51138Y329430D02*
X44970D01*
Y323262D01*
X45668Y323354D01*
X47502Y324114D01*
X49078Y325322D01*
X50286Y326898D01*
X51046Y328732D01*
X51138Y329430D01*
D02*
G37*
G36*
X25738D02*
X19570D01*
Y323262D01*
X20268Y323354D01*
X22102Y324114D01*
X23678Y325322D01*
X24886Y326898D01*
X25646Y328732D01*
X25738Y329430D01*
D02*
G37*
G36*
X184138D02*
X177970D01*
Y323262D01*
X178668Y323354D01*
X180502Y324114D01*
X182078Y325322D01*
X183286Y326898D01*
X184046Y328732D01*
X184138Y329430D01*
D02*
G37*
G36*
X175430D02*
X169262D01*
X169354Y328732D01*
X170114Y326898D01*
X171322Y325322D01*
X172897Y324114D01*
X174732Y323354D01*
X175430Y323262D01*
Y329430D01*
D02*
G37*
G36*
X158738D02*
X152570D01*
Y323262D01*
X153268Y323354D01*
X155103Y324114D01*
X156678Y325322D01*
X157886Y326898D01*
X158646Y328732D01*
X158738Y329430D01*
D02*
G37*
G36*
X150030D02*
X143862D01*
X143954Y328732D01*
X144714Y326898D01*
X145922Y325322D01*
X147498Y324114D01*
X149332Y323354D01*
X150030Y323262D01*
Y329430D01*
D02*
G37*
G36*
X17030D02*
X10862D01*
X10954Y328732D01*
X11714Y326898D01*
X12922Y325322D01*
X14497Y324114D01*
X16332Y323354D01*
X17030Y323262D01*
Y329430D01*
D02*
G37*
G36*
X42430D02*
X36262D01*
X36354Y328732D01*
X37114Y326898D01*
X38322Y325322D01*
X39897Y324114D01*
X41732Y323354D01*
X42430Y323262D01*
Y329430D01*
D02*
G37*
G36*
X62200Y317000D02*
X47200D01*
Y303000D01*
X62200D01*
Y317000D01*
D02*
G37*
G36*
X145350Y317000D02*
X130350D01*
Y303000D01*
X145350D01*
Y317000D01*
D02*
G37*
G36*
X44970Y291538D02*
Y285370D01*
X51138D01*
X51046Y286068D01*
X50286Y287903D01*
X49078Y289478D01*
X47502Y290686D01*
X45668Y291446D01*
X44970Y291538D01*
D02*
G37*
G36*
X19570D02*
Y285370D01*
X25738D01*
X25646Y286068D01*
X24886Y287903D01*
X23678Y289478D01*
X22102Y290686D01*
X20268Y291446D01*
X19570Y291538D01*
D02*
G37*
G36*
X177970D02*
Y285370D01*
X184138D01*
X184046Y286068D01*
X183286Y287903D01*
X182078Y289478D01*
X180502Y290686D01*
X178668Y291446D01*
X177970Y291538D01*
D02*
G37*
G36*
X175430D02*
X174732Y291446D01*
X172897Y290686D01*
X171322Y289478D01*
X170114Y287903D01*
X169354Y286068D01*
X169262Y285370D01*
X175430D01*
Y291538D01*
D02*
G37*
G36*
X152570D02*
Y285370D01*
X158738D01*
X158646Y286068D01*
X157886Y287903D01*
X156678Y289478D01*
X155103Y290686D01*
X153268Y291446D01*
X152570Y291538D01*
D02*
G37*
G36*
X150030D02*
X149332Y291446D01*
X147498Y290686D01*
X145922Y289478D01*
X144714Y287903D01*
X143954Y286068D01*
X143862Y285370D01*
X150030D01*
Y291538D01*
D02*
G37*
G36*
X17030D02*
X16332Y291446D01*
X14497Y290686D01*
X12922Y289478D01*
X11714Y287903D01*
X10954Y286068D01*
X10862Y285370D01*
X17030D01*
Y291538D01*
D02*
G37*
G36*
X42430D02*
X41732Y291446D01*
X39897Y290686D01*
X38322Y289478D01*
X37114Y287903D01*
X36354Y286068D01*
X36262Y285370D01*
X42430D01*
Y291538D01*
D02*
G37*
G36*
X51138Y282830D02*
X44970D01*
Y276662D01*
X45668Y276754D01*
X47502Y277514D01*
X49078Y278722D01*
X50286Y280298D01*
X51046Y282132D01*
X51138Y282830D01*
D02*
G37*
G36*
X25738D02*
X19570D01*
Y276662D01*
X20268Y276754D01*
X22102Y277514D01*
X23678Y278722D01*
X24886Y280298D01*
X25646Y282132D01*
X25738Y282830D01*
D02*
G37*
G36*
X184138D02*
X177970D01*
Y276662D01*
X178668Y276754D01*
X180502Y277514D01*
X182078Y278722D01*
X183286Y280298D01*
X184046Y282132D01*
X184138Y282830D01*
D02*
G37*
G36*
X175430D02*
X169262D01*
X169354Y282132D01*
X170114Y280298D01*
X171322Y278722D01*
X172897Y277514D01*
X174732Y276754D01*
X175430Y276662D01*
Y282830D01*
D02*
G37*
G36*
X158738D02*
X152570D01*
Y276662D01*
X153268Y276754D01*
X155103Y277514D01*
X156678Y278722D01*
X157886Y280298D01*
X158646Y282132D01*
X158738Y282830D01*
D02*
G37*
G36*
X150030D02*
X143862D01*
X143954Y282132D01*
X144714Y280298D01*
X145922Y278722D01*
X147498Y277514D01*
X149332Y276754D01*
X150030Y276662D01*
Y282830D01*
D02*
G37*
G36*
X17030D02*
X10862D01*
X10954Y282132D01*
X11714Y280298D01*
X12922Y278722D01*
X14497Y277514D01*
X16332Y276754D01*
X17030Y276662D01*
Y282830D01*
D02*
G37*
G36*
X42430D02*
X36262D01*
X36354Y282132D01*
X37114Y280298D01*
X38322Y278722D01*
X39897Y277514D01*
X41732Y276754D01*
X42430Y276662D01*
Y282830D01*
D02*
G37*
G36*
X44970Y266138D02*
Y259970D01*
X51138D01*
X51046Y260668D01*
X50286Y262502D01*
X49078Y264078D01*
X47502Y265286D01*
X45668Y266046D01*
X44970Y266138D01*
D02*
G37*
G36*
X19570D02*
Y259970D01*
X25738D01*
X25646Y260668D01*
X24886Y262502D01*
X23678Y264078D01*
X22102Y265286D01*
X20268Y266046D01*
X19570Y266138D01*
D02*
G37*
G36*
X177970D02*
Y259970D01*
X184138D01*
X184046Y260668D01*
X183286Y262502D01*
X182078Y264078D01*
X180502Y265286D01*
X178668Y266046D01*
X177970Y266138D01*
D02*
G37*
G36*
X175430D02*
X174732Y266046D01*
X172897Y265286D01*
X171322Y264078D01*
X170114Y262502D01*
X169354Y260668D01*
X169262Y259970D01*
X175430D01*
Y266138D01*
D02*
G37*
G36*
X152570D02*
Y259970D01*
X158738D01*
X158646Y260668D01*
X157886Y262502D01*
X156678Y264078D01*
X155103Y265286D01*
X153268Y266046D01*
X152570Y266138D01*
D02*
G37*
G36*
X150030D02*
X149332Y266046D01*
X147498Y265286D01*
X145922Y264078D01*
X144714Y262502D01*
X143954Y260668D01*
X143862Y259970D01*
X150030D01*
Y266138D01*
D02*
G37*
G36*
X42430D02*
X41732Y266046D01*
X39897Y265286D01*
X38322Y264078D01*
X37114Y262502D01*
X36354Y260668D01*
X36262Y259970D01*
X42430D01*
Y266138D01*
D02*
G37*
G36*
X17030D02*
X16332Y266046D01*
X14497Y265286D01*
X12922Y264078D01*
X11714Y262502D01*
X10954Y260668D01*
X10862Y259970D01*
X17030D01*
Y266138D01*
D02*
G37*
G36*
X51138Y257430D02*
X44970D01*
Y251262D01*
X45668Y251354D01*
X47502Y252114D01*
X49078Y253322D01*
X50286Y254897D01*
X51046Y256732D01*
X51138Y257430D01*
D02*
G37*
G36*
X25738D02*
X19570D01*
Y251262D01*
X20268Y251354D01*
X22102Y252114D01*
X23678Y253322D01*
X24886Y254897D01*
X25646Y256732D01*
X25738Y257430D01*
D02*
G37*
G36*
X184138D02*
X177970D01*
Y251262D01*
X178668Y251354D01*
X180502Y252114D01*
X182078Y253322D01*
X183286Y254897D01*
X184046Y256732D01*
X184138Y257430D01*
D02*
G37*
G36*
X175430D02*
X169262D01*
X169354Y256732D01*
X170114Y254897D01*
X171322Y253322D01*
X172897Y252114D01*
X174732Y251354D01*
X175430Y251262D01*
Y257430D01*
D02*
G37*
G36*
X158738D02*
X152570D01*
Y251262D01*
X153268Y251354D01*
X155103Y252114D01*
X156678Y253322D01*
X157886Y254897D01*
X158646Y256732D01*
X158738Y257430D01*
D02*
G37*
G36*
X150030D02*
X143862D01*
X143954Y256732D01*
X144714Y254897D01*
X145922Y253322D01*
X147498Y252114D01*
X149332Y251354D01*
X150030Y251262D01*
Y257430D01*
D02*
G37*
G36*
X42430D02*
X36262D01*
X36354Y256732D01*
X37114Y254897D01*
X38322Y253322D01*
X39897Y252114D01*
X41732Y251354D01*
X42430Y251262D01*
Y257430D01*
D02*
G37*
G36*
X17030D02*
X10862D01*
X10954Y256732D01*
X11714Y254897D01*
X12922Y253322D01*
X14497Y252114D01*
X16332Y251354D01*
X17030Y251262D01*
Y257430D01*
D02*
G37*
G36*
X163500Y85588D02*
X161744Y85239D01*
X160256Y84244D01*
X159261Y82756D01*
X158912Y81000D01*
X159261Y79244D01*
X160256Y77756D01*
X159678Y76956D01*
X159256Y77239D01*
X157500Y77588D01*
X155744Y77239D01*
X155321Y76956D01*
X154744Y77756D01*
X155739Y79244D01*
X156088Y81000D01*
X155739Y82756D01*
X154744Y84244D01*
X153256Y85239D01*
X151500Y85588D01*
X149744Y85239D01*
X148256Y84244D01*
X147261Y82756D01*
X146912Y81000D01*
X147261Y79244D01*
X148256Y77756D01*
X147678Y76956D01*
X147256Y77239D01*
X145500Y77588D01*
X143744Y77239D01*
X143321Y76956D01*
X142744Y77756D01*
X143739Y79244D01*
X144088Y81000D01*
X143739Y82756D01*
X142744Y84244D01*
X141256Y85239D01*
X139500Y85588D01*
X137744Y85239D01*
X136256Y84244D01*
X135261Y82756D01*
X134912Y81000D01*
X135261Y79244D01*
X136256Y77756D01*
X135679Y76956D01*
X135256Y77239D01*
X133500Y77588D01*
X131744Y77239D01*
X131321Y76956D01*
X130744Y77756D01*
X131739Y79244D01*
X132088Y81000D01*
X131739Y82756D01*
X130744Y84244D01*
X129256Y85239D01*
X127500Y85588D01*
X125744Y85239D01*
X124256Y84244D01*
X123261Y82756D01*
X122912Y81000D01*
X123261Y79244D01*
X124256Y77756D01*
X123679Y76956D01*
X123256Y77239D01*
X121500Y77588D01*
X119744Y77239D01*
X119321Y76956D01*
X118744Y77756D01*
X119739Y79244D01*
X120088Y81000D01*
X119739Y82756D01*
X118744Y84244D01*
X117256Y85239D01*
X115500Y85588D01*
X113744Y85239D01*
X112256Y84244D01*
X111261Y82756D01*
X110912Y81000D01*
X111261Y79244D01*
X112256Y77756D01*
X111678Y76956D01*
X111256Y77239D01*
X109500Y77588D01*
X107744Y77239D01*
X107321Y76956D01*
X106744Y77756D01*
X107739Y79244D01*
X108088Y81000D01*
X107739Y82756D01*
X106744Y84244D01*
X105256Y85239D01*
X103500Y85588D01*
X101744Y85239D01*
X100256Y84244D01*
X99261Y82756D01*
X98912Y81000D01*
X99261Y79244D01*
X100256Y77756D01*
X99678Y76956D01*
X99256Y77239D01*
X97500Y77588D01*
X95744Y77239D01*
X95321Y76956D01*
X94744Y77756D01*
X95739Y79244D01*
X96088Y81000D01*
X95739Y82756D01*
X94744Y84244D01*
X93256Y85239D01*
X91500Y85588D01*
X89744Y85239D01*
X88256Y84244D01*
X87261Y82756D01*
X86912Y81000D01*
X87261Y79244D01*
X88256Y77756D01*
X87678Y76956D01*
X87256Y77239D01*
X85500Y77588D01*
X83744Y77239D01*
X83321Y76956D01*
X82744Y77756D01*
X83739Y79244D01*
X84088Y81000D01*
X83739Y82756D01*
X82744Y84244D01*
X81256Y85239D01*
X79500Y85588D01*
X77744Y85239D01*
X76256Y84244D01*
X75261Y82756D01*
X74912Y81000D01*
X75261Y79244D01*
X76256Y77756D01*
X75679Y76956D01*
X75256Y77239D01*
X73500Y77588D01*
X71744Y77239D01*
X71321Y76956D01*
X70744Y77756D01*
X71739Y79244D01*
X72088Y81000D01*
X71739Y82756D01*
X70744Y84244D01*
X69256Y85239D01*
X67500Y85588D01*
X65744Y85239D01*
X64256Y84244D01*
X63261Y82756D01*
X62912Y81000D01*
X63261Y79244D01*
X64256Y77756D01*
X63678Y76956D01*
X63256Y77239D01*
X61500Y77588D01*
X59744Y77239D01*
X59321Y76956D01*
X58744Y77756D01*
X59739Y79244D01*
X60088Y81000D01*
X59739Y82756D01*
X58744Y84244D01*
X57256Y85239D01*
X55500Y85588D01*
X53744Y85239D01*
X52256Y84244D01*
X51261Y82756D01*
X50912Y81000D01*
X51261Y79244D01*
X52256Y77756D01*
X51679Y76956D01*
X51256Y77239D01*
X49500Y77588D01*
X47744Y77239D01*
X47321Y76956D01*
X46744Y77756D01*
X47739Y79244D01*
X48088Y81000D01*
X47739Y82756D01*
X46744Y84244D01*
X45256Y85239D01*
X43500Y85588D01*
X41744Y85239D01*
X40256Y84244D01*
X39261Y82756D01*
X38912Y81000D01*
X39261Y79244D01*
X40256Y77756D01*
X39679Y76956D01*
X39256Y77239D01*
X37500Y77588D01*
X35744Y77239D01*
X35321Y76956D01*
X34744Y77756D01*
X35739Y79244D01*
X36088Y81000D01*
X35739Y82756D01*
X34744Y84244D01*
X33256Y85239D01*
X31500Y85588D01*
X29744Y85239D01*
X28256Y84244D01*
X27261Y82756D01*
X26912Y81000D01*
X27261Y79244D01*
X28256Y77756D01*
X27679Y76956D01*
X27256Y77239D01*
X25500Y77588D01*
X23744Y77239D01*
X22256Y76244D01*
X21261Y74756D01*
X20912Y73000D01*
X21261Y71244D01*
X22256Y69756D01*
X23744Y68761D01*
X25500Y68412D01*
X27256Y68761D01*
X28744Y69756D01*
X29739Y71244D01*
X30088Y73000D01*
X29739Y74756D01*
X28744Y76244D01*
X29321Y77044D01*
X29744Y76761D01*
X31500Y76412D01*
X33256Y76761D01*
X33679Y77044D01*
X34256Y76244D01*
X33261Y74756D01*
X32912Y73000D01*
X33261Y71244D01*
X34256Y69756D01*
X35744Y68761D01*
X37500Y68412D01*
X39256Y68761D01*
X40744Y69756D01*
X41739Y71244D01*
X42088Y73000D01*
X41739Y74756D01*
X40744Y76244D01*
X41321Y77044D01*
X41744Y76761D01*
X43500Y76412D01*
X45256Y76761D01*
X45679Y77044D01*
X46256Y76244D01*
X45261Y74756D01*
X44912Y73000D01*
X45261Y71244D01*
X46256Y69756D01*
X47744Y68761D01*
X49500Y68412D01*
X51256Y68761D01*
X52744Y69756D01*
X53739Y71244D01*
X54088Y73000D01*
X53739Y74756D01*
X52744Y76244D01*
X53321Y77044D01*
X53744Y76761D01*
X55500Y76412D01*
X57256Y76761D01*
X57678Y77044D01*
X58256Y76244D01*
X57261Y74756D01*
X56912Y73000D01*
X57261Y71244D01*
X58256Y69756D01*
X59744Y68761D01*
X61500Y68412D01*
X63256Y68761D01*
X64744Y69756D01*
X65739Y71244D01*
X66088Y73000D01*
X65739Y74756D01*
X64744Y76244D01*
X65321Y77044D01*
X65744Y76761D01*
X67500Y76412D01*
X69256Y76761D01*
X69679Y77044D01*
X70256Y76244D01*
X69261Y74756D01*
X68912Y73000D01*
X69261Y71244D01*
X70256Y69756D01*
X71744Y68761D01*
X73500Y68412D01*
X75256Y68761D01*
X76744Y69756D01*
X77739Y71244D01*
X78088Y73000D01*
X77739Y74756D01*
X76744Y76244D01*
X77321Y77044D01*
X77744Y76761D01*
X79500Y76412D01*
X81256Y76761D01*
X81679Y77044D01*
X82256Y76244D01*
X81261Y74756D01*
X80912Y73000D01*
X81261Y71244D01*
X82256Y69756D01*
X83744Y68761D01*
X85500Y68412D01*
X87256Y68761D01*
X88744Y69756D01*
X89739Y71244D01*
X90088Y73000D01*
X89739Y74756D01*
X88744Y76244D01*
X89321Y77044D01*
X89744Y76761D01*
X91500Y76412D01*
X93256Y76761D01*
X93679Y77044D01*
X94256Y76244D01*
X93261Y74756D01*
X92912Y73000D01*
X93261Y71244D01*
X94256Y69756D01*
X95744Y68761D01*
X97500Y68412D01*
X99256Y68761D01*
X100744Y69756D01*
X101739Y71244D01*
X102088Y73000D01*
X101739Y74756D01*
X100744Y76244D01*
X101321Y77044D01*
X101744Y76761D01*
X103500Y76412D01*
X105256Y76761D01*
X105679Y77044D01*
X106256Y76244D01*
X105261Y74756D01*
X104912Y73000D01*
X105261Y71244D01*
X106256Y69756D01*
X107744Y68761D01*
X109500Y68412D01*
X111256Y68761D01*
X112744Y69756D01*
X113739Y71244D01*
X114088Y73000D01*
X113739Y74756D01*
X112744Y76244D01*
X113321Y77044D01*
X113744Y76761D01*
X115500Y76412D01*
X117256Y76761D01*
X117679Y77044D01*
X118256Y76244D01*
X117261Y74756D01*
X116912Y73000D01*
X117261Y71244D01*
X118256Y69756D01*
X119744Y68761D01*
X121500Y68412D01*
X123256Y68761D01*
X124744Y69756D01*
X125739Y71244D01*
X126088Y73000D01*
X125739Y74756D01*
X124744Y76244D01*
X125321Y77044D01*
X125744Y76761D01*
X127500Y76412D01*
X129256Y76761D01*
X129679Y77044D01*
X130256Y76244D01*
X129261Y74756D01*
X128912Y73000D01*
X129261Y71244D01*
X130256Y69756D01*
X131744Y68761D01*
X133500Y68412D01*
X135256Y68761D01*
X136744Y69756D01*
X137739Y71244D01*
X138088Y73000D01*
X137739Y74756D01*
X136744Y76244D01*
X137321Y77044D01*
X137744Y76761D01*
X139500Y76412D01*
X141256Y76761D01*
X141679Y77044D01*
X142256Y76244D01*
X141261Y74756D01*
X140912Y73000D01*
X141261Y71244D01*
X142256Y69756D01*
X143744Y68761D01*
X145500Y68412D01*
X147256Y68761D01*
X148744Y69756D01*
X149739Y71244D01*
X150088Y73000D01*
X149739Y74756D01*
X148744Y76244D01*
X149321Y77044D01*
X149744Y76761D01*
X151500Y76412D01*
X153256Y76761D01*
X153679Y77044D01*
X154256Y76244D01*
X153261Y74756D01*
X152912Y73000D01*
X153261Y71244D01*
X154256Y69756D01*
X155744Y68761D01*
X157500Y68412D01*
X159256Y68761D01*
X160744Y69756D01*
X161739Y71244D01*
X162088Y73000D01*
X161739Y74756D01*
X160744Y76244D01*
X161321Y77044D01*
X161744Y76761D01*
X163500Y76412D01*
X165256Y76761D01*
X166744Y77756D01*
X167739Y79244D01*
X168088Y81000D01*
X167739Y82756D01*
X166744Y84244D01*
X165256Y85239D01*
X163500Y85588D01*
D02*
G37*
%LPD*%
D22*
X184500Y12000D02*
D03*
X10500D02*
D03*
D23*
X151300Y284100D02*
D03*
Y258700D02*
D03*
X176700Y284100D02*
D03*
Y258700D02*
D03*
X164000Y271400D02*
D03*
X151300Y356100D02*
D03*
Y330700D02*
D03*
X176700Y356100D02*
D03*
Y330700D02*
D03*
X164000Y343400D02*
D03*
X151300Y501100D02*
D03*
Y475700D02*
D03*
X176700Y501100D02*
D03*
Y475700D02*
D03*
X164000Y488400D02*
D03*
X18300Y501100D02*
D03*
Y475700D02*
D03*
X43700Y501100D02*
D03*
Y475700D02*
D03*
X31000Y488400D02*
D03*
X18300Y576100D02*
D03*
Y550700D02*
D03*
X43700Y576100D02*
D03*
Y550700D02*
D03*
X31000Y563400D02*
D03*
X151300Y576100D02*
D03*
Y550700D02*
D03*
X176700Y576100D02*
D03*
Y550700D02*
D03*
X164000Y563400D02*
D03*
X31000Y271400D02*
D03*
X18300Y284100D02*
D03*
Y258700D02*
D03*
X43700Y284100D02*
D03*
Y258700D02*
D03*
X31000Y343400D02*
D03*
X18300Y356100D02*
D03*
Y330700D02*
D03*
X43700Y356100D02*
D03*
Y330700D02*
D03*
D24*
X24250Y653400D02*
D03*
X170750D02*
D03*
Y131900D02*
D03*
X24250D02*
D03*
D25*
X160750Y180900D02*
D03*
X34250D02*
D03*
D26*
X20000Y407500D02*
D03*
X54700Y310000D02*
D03*
X69000Y435500D02*
D03*
X87000Y396500D02*
D03*
X108000D02*
D03*
X137850Y310000D02*
D03*
X175000Y414500D02*
D03*
X127000Y484000D02*
D03*
X68000Y484000D02*
D03*
X69000Y449500D02*
D03*
Y442500D02*
D03*
Y428500D02*
D03*
Y421500D02*
D03*
Y407500D02*
D03*
X73000Y396500D02*
D03*
X80000D02*
D03*
X94000D02*
D03*
X115000D02*
D03*
X126000Y407500D02*
D03*
Y414500D02*
D03*
Y449500D02*
D03*
Y442500D02*
D03*
Y435500D02*
D03*
Y428500D02*
D03*
X55500Y81000D02*
D03*
X31500D02*
D03*
X67500D02*
D03*
X25500Y73000D02*
D03*
X79500Y81000D02*
D03*
X37500Y73000D02*
D03*
X91500Y81000D02*
D03*
X49500Y73000D02*
D03*
X103500Y81000D02*
D03*
X61500Y73000D02*
D03*
X115500Y81000D02*
D03*
X73500Y73000D02*
D03*
X127500Y81000D02*
D03*
X85500Y73000D02*
D03*
X139500Y81000D02*
D03*
X97500Y73000D02*
D03*
X151500Y81000D02*
D03*
X109500Y73000D02*
D03*
X163500Y81000D02*
D03*
X121500Y73000D02*
D03*
X145500D02*
D03*
X133500D02*
D03*
X157500D02*
D03*
X43500Y81000D02*
D03*
D28*
X35350Y353923D02*
D03*
Y357923D02*
D03*
Y361923D02*
D03*
Y365923D02*
D03*
Y369923D02*
D03*
X36018Y373867D02*
D03*
X38847Y376695D02*
D03*
X26650Y354392D02*
D03*
Y358392D02*
D03*
Y362392D02*
D03*
Y366392D02*
D03*
Y370392D02*
D03*
X26677Y374392D02*
D03*
X28094Y378132D02*
D03*
X44270Y267050D02*
D03*
X48270D02*
D03*
X52270D02*
D03*
X56270D02*
D03*
X60270D02*
D03*
X64270D02*
D03*
X68270D02*
D03*
X72174Y267923D02*
D03*
X75051Y270701D02*
D03*
X76050Y274574D02*
D03*
Y278574D02*
D03*
X44403Y275750D02*
D03*
X48403D02*
D03*
X52403D02*
D03*
X56403Y275750D02*
D03*
X60403D02*
D03*
X64403D02*
D03*
X67350Y278454D02*
D03*
X86901Y515478D02*
D03*
X83307Y517233D02*
D03*
X79308Y517350D02*
D03*
X75308D02*
D03*
X71308D02*
D03*
X67308D02*
D03*
X63308D02*
D03*
X59308D02*
D03*
X55308D02*
D03*
X51308D02*
D03*
X47308D02*
D03*
X43308D02*
D03*
X39308D02*
D03*
X35308D02*
D03*
X31340Y516852D02*
D03*
X28145Y514444D02*
D03*
X26685Y510720D02*
D03*
X26650Y506720D02*
D03*
Y502720D02*
D03*
Y498720D02*
D03*
X74854Y508650D02*
D03*
X70854Y508650D02*
D03*
X66853D02*
D03*
X62853D02*
D03*
X58854D02*
D03*
X54854D02*
D03*
X50854Y508650D02*
D03*
X46854D02*
D03*
X42854D02*
D03*
X38854D02*
D03*
X35350Y506720D02*
D03*
Y502720D02*
D03*
Y498720D02*
D03*
X124146Y508650D02*
D03*
X128146D02*
D03*
X132146D02*
D03*
X136146D02*
D03*
X140146D02*
D03*
X144146Y508650D02*
D03*
X148146D02*
D03*
X152146D02*
D03*
X156146D02*
D03*
X159650Y506720D02*
D03*
Y502720D02*
D03*
Y498720D02*
D03*
X108099Y515477D02*
D03*
X111693Y517233D02*
D03*
X115692Y517350D02*
D03*
X119692D02*
D03*
X123692D02*
D03*
X127692D02*
D03*
X131692D02*
D03*
X135692D02*
D03*
X139692D02*
D03*
X143692D02*
D03*
X147692D02*
D03*
X151692D02*
D03*
X155692D02*
D03*
X159692D02*
D03*
X163660Y516852D02*
D03*
X166854Y514444D02*
D03*
X168315Y510720D02*
D03*
X168350Y506720D02*
D03*
Y502720D02*
D03*
Y498720D02*
D03*
Y354442D02*
D03*
Y358442D02*
D03*
Y362442D02*
D03*
Y366442D02*
D03*
Y370442D02*
D03*
Y374442D02*
D03*
Y378442D02*
D03*
X168155Y382437D02*
D03*
X166216Y385936D02*
D03*
X159650Y356776D02*
D03*
Y360776D02*
D03*
Y364776D02*
D03*
Y368776D02*
D03*
Y372776D02*
D03*
Y376776D02*
D03*
X159109Y380739D02*
D03*
X156280Y383568D02*
D03*
X151567Y275750D02*
D03*
X147567D02*
D03*
X143567D02*
D03*
X139567Y275750D02*
D03*
X135567D02*
D03*
X131567D02*
D03*
X127567D02*
D03*
X125200Y278974D02*
D03*
X152399Y267050D02*
D03*
X148399D02*
D03*
X144399D02*
D03*
X140399D02*
D03*
X136399D02*
D03*
X132399D02*
D03*
X128399D02*
D03*
X124399D02*
D03*
X120483Y267867D02*
D03*
X117560Y270597D02*
D03*
X116500Y274454D02*
D03*
Y278454D02*
D03*
X52740Y410150D02*
D03*
X56740D02*
D03*
X60740D02*
D03*
X36807Y418120D02*
D03*
X40740Y418850D02*
D03*
X44740D02*
D03*
X48740D02*
D03*
X52740D02*
D03*
X56740D02*
D03*
X60740D02*
D03*
X80147Y322296D02*
D03*
X82976Y325124D02*
D03*
X85804Y327952D02*
D03*
X88633Y330781D02*
D03*
X91461Y333609D02*
D03*
X94290Y336438D02*
D03*
X97118Y339266D02*
D03*
X99946Y342095D02*
D03*
X102775Y344923D02*
D03*
X104986Y348257D02*
D03*
X105350Y352240D02*
D03*
Y356240D02*
D03*
Y360240D02*
D03*
Y364240D02*
D03*
Y368240D02*
D03*
Y372240D02*
D03*
Y376240D02*
D03*
Y380240D02*
D03*
Y384240D02*
D03*
Y388240D02*
D03*
X69018Y323420D02*
D03*
X71821Y326273D02*
D03*
X74650Y329101D02*
D03*
X77478Y331930D02*
D03*
X80306Y334758D02*
D03*
X83135Y337587D02*
D03*
X85963Y340415D02*
D03*
X88792Y343243D02*
D03*
X91620Y346072D02*
D03*
X94448Y348900D02*
D03*
X96650Y352240D02*
D03*
Y356240D02*
D03*
Y360240D02*
D03*
Y364240D02*
D03*
Y368240D02*
D03*
Y372240D02*
D03*
Y376240D02*
D03*
Y380240D02*
D03*
Y384240D02*
D03*
Y388240D02*
D03*
X80650Y469751D02*
D03*
Y465751D02*
D03*
X80650Y461751D02*
D03*
X89350Y469215D02*
D03*
Y465215D02*
D03*
Y461214D02*
D03*
X88720Y457265D02*
D03*
X86261Y454109D02*
D03*
X105650Y469215D02*
D03*
Y465215D02*
D03*
Y461214D02*
D03*
X106280Y457265D02*
D03*
X108739Y454109D02*
D03*
X114350Y469751D02*
D03*
Y465751D02*
D03*
X114350Y461751D02*
D03*
X154260Y425850D02*
D03*
X150260D02*
D03*
X146260D02*
D03*
X142260D02*
D03*
X138260D02*
D03*
X134260D02*
D03*
X142260Y417150D02*
D03*
X138260D02*
D03*
X134260D02*
D03*
X125200Y324912D02*
D03*
X125593Y328893D02*
D03*
X126350Y332820D02*
D03*
Y336820D02*
D03*
Y340820D02*
D03*
Y344820D02*
D03*
Y348820D02*
D03*
Y352820D02*
D03*
Y356820D02*
D03*
Y360820D02*
D03*
Y364820D02*
D03*
Y368820D02*
D03*
Y372820D02*
D03*
Y376820D02*
D03*
Y380820D02*
D03*
Y384820D02*
D03*
Y388820D02*
D03*
X116500Y324332D02*
D03*
Y328332D02*
D03*
X117258Y332259D02*
D03*
X117650Y336240D02*
D03*
Y340240D02*
D03*
Y344240D02*
D03*
Y348240D02*
D03*
Y352240D02*
D03*
Y356240D02*
D03*
Y360240D02*
D03*
Y364240D02*
D03*
Y368240D02*
D03*
Y372240D02*
D03*
Y376240D02*
D03*
Y380240D02*
D03*
Y384240D02*
D03*
Y388240D02*
D03*
X10700Y405006D02*
D03*
X11002Y401017D02*
D03*
X14267Y398707D02*
D03*
X18268Y398700D02*
D03*
X22267D02*
D03*
X26267D02*
D03*
X29838Y396896D02*
D03*
Y392896D02*
D03*
Y388896D02*
D03*
Y384896D02*
D03*
X30872Y381032D02*
D03*
X41219Y379936D02*
D03*
X44058Y382753D02*
D03*
X44162Y386752D02*
D03*
Y390752D02*
D03*
Y394752D02*
D03*
Y398752D02*
D03*
X46283Y402144D02*
D03*
X46300Y406143D02*
D03*
Y410143D02*
D03*
X32785Y416300D02*
D03*
X28786D02*
D03*
X24785D02*
D03*
X20786D02*
D03*
X16786D02*
D03*
X12805Y415901D02*
D03*
X10700Y412500D02*
D03*
X55284Y301200D02*
D03*
X59284D02*
D03*
X63284Y301200D02*
D03*
X64538Y297402D02*
D03*
Y293402D02*
D03*
Y289401D02*
D03*
X64609Y285402D02*
D03*
X67333Y282473D02*
D03*
X76374Y282572D02*
D03*
X78839Y285722D02*
D03*
X78862Y289722D02*
D03*
Y293722D02*
D03*
Y297722D02*
D03*
X79108Y301714D02*
D03*
X81000Y305239D02*
D03*
Y309239D02*
D03*
Y313239D02*
D03*
X80313Y317179D02*
D03*
X76656Y318800D02*
D03*
X63756Y318800D02*
D03*
X59756D02*
D03*
X55756D02*
D03*
X51756D02*
D03*
X47766Y318519D02*
D03*
X45411Y315285D02*
D03*
X45400Y311285D02*
D03*
Y307285D02*
D03*
X45799Y303305D02*
D03*
X49200Y301200D02*
D03*
X58700Y483164D02*
D03*
Y479164D02*
D03*
X60659Y475676D02*
D03*
X64630Y475200D02*
D03*
X68630D02*
D03*
X72630D02*
D03*
X76630D02*
D03*
X80630D02*
D03*
X90610Y475202D02*
D03*
X93949Y477405D02*
D03*
X94300Y481390D02*
D03*
Y485390D02*
D03*
X94280Y489389D02*
D03*
X92162Y492783D02*
D03*
Y496783D02*
D03*
Y500783D02*
D03*
Y504783D02*
D03*
X92050Y508781D02*
D03*
X89184Y511572D02*
D03*
X77838Y504659D02*
D03*
Y500659D02*
D03*
Y496659D02*
D03*
X76785Y492800D02*
D03*
X72786D02*
D03*
X68786D02*
D03*
X64785D02*
D03*
X60805Y492401D02*
D03*
X58700Y489000D02*
D03*
X100700Y488178D02*
D03*
Y484178D02*
D03*
Y480178D02*
D03*
X101796Y476331D02*
D03*
X105633Y475200D02*
D03*
X116113D02*
D03*
X120113Y475200D02*
D03*
X124113D02*
D03*
X128113D02*
D03*
X132113D02*
D03*
X135705Y476959D02*
D03*
X136300Y480914D02*
D03*
Y484914D02*
D03*
Y488914D02*
D03*
X134271Y492362D02*
D03*
X130295Y492800D02*
D03*
X126295D02*
D03*
X122295D02*
D03*
X118295Y492800D02*
D03*
X117162Y496636D02*
D03*
Y500636D02*
D03*
Y504636D02*
D03*
X117083Y508635D02*
D03*
X105457Y511474D02*
D03*
X102878Y508417D02*
D03*
X102838Y504417D02*
D03*
Y500417D02*
D03*
Y496417D02*
D03*
Y492417D02*
D03*
X148700Y416921D02*
D03*
Y412921D02*
D03*
X148744Y408922D02*
D03*
X150838Y405513D02*
D03*
Y401513D02*
D03*
Y397513D02*
D03*
Y393513D02*
D03*
X151007Y389517D02*
D03*
X154022Y386888D02*
D03*
X165061Y389766D02*
D03*
X165162Y393765D02*
D03*
Y397765D02*
D03*
Y401765D02*
D03*
X165880Y405700D02*
D03*
X169880D02*
D03*
X173880D02*
D03*
X177880D02*
D03*
X181872Y405956D02*
D03*
X184283Y409148D02*
D03*
X184300Y413148D02*
D03*
Y417148D02*
D03*
X183932Y421131D02*
D03*
X180571Y423299D02*
D03*
X176571Y423300D02*
D03*
X172571D02*
D03*
X168571D02*
D03*
X164571D02*
D03*
X160571D02*
D03*
X113688Y297395D02*
D03*
Y293395D02*
D03*
Y289395D02*
D03*
X113761Y285395D02*
D03*
X116490Y282471D02*
D03*
X126162Y282876D02*
D03*
X128012Y286422D02*
D03*
Y290422D02*
D03*
Y294422D02*
D03*
Y298422D02*
D03*
X130890Y301200D02*
D03*
X134890D02*
D03*
X138890D02*
D03*
X142890D02*
D03*
X146514Y302895D02*
D03*
X147150Y306844D02*
D03*
Y310844D02*
D03*
Y314844D02*
D03*
X145184Y318328D02*
D03*
X141212Y318800D02*
D03*
X137212D02*
D03*
X133212D02*
D03*
X129212Y318800D02*
D03*
X125212D02*
D03*
X115612D02*
D03*
X112077Y316930D02*
D03*
X111550Y312964D02*
D03*
Y308964D02*
D03*
X111550Y304964D02*
D03*
X113688Y301583D02*
D03*
X36835Y349987D02*
D03*
X39228Y346521D02*
D03*
X39736Y342339D02*
D03*
X38242Y338401D02*
D03*
X35090Y335608D02*
D03*
X31000Y334600D02*
D03*
X26910Y335608D02*
D03*
X23758Y338401D02*
D03*
X22264Y342339D02*
D03*
X22772Y346521D02*
D03*
X25164Y349987D02*
D03*
X37587Y265564D02*
D03*
X34121Y263172D02*
D03*
X29939Y262664D02*
D03*
X26001Y264158D02*
D03*
X23208Y267310D02*
D03*
X22200Y271400D02*
D03*
X23208Y275490D02*
D03*
X26001Y278642D02*
D03*
X29939Y280136D02*
D03*
X34121Y279628D02*
D03*
X37587Y277236D02*
D03*
X36835Y494987D02*
D03*
X39228Y491521D02*
D03*
X39736Y487339D02*
D03*
X38242Y483401D02*
D03*
X35090Y480608D02*
D03*
X31000Y479600D02*
D03*
X26910Y480608D02*
D03*
X23758Y483401D02*
D03*
X22264Y487339D02*
D03*
X22772Y491521D02*
D03*
X25164Y494987D02*
D03*
X169835D02*
D03*
X172228Y491521D02*
D03*
X172736Y487339D02*
D03*
X171242Y483401D02*
D03*
X168090Y480608D02*
D03*
X164000Y479600D02*
D03*
X159910Y480608D02*
D03*
X156758Y483401D02*
D03*
X155264Y487339D02*
D03*
X155772Y491521D02*
D03*
X158165Y494987D02*
D03*
X169835Y349987D02*
D03*
X172228Y346521D02*
D03*
X172736Y342339D02*
D03*
X171242Y338401D02*
D03*
X168090Y335608D02*
D03*
X164000Y334600D02*
D03*
X159910Y335608D02*
D03*
X156758Y338401D02*
D03*
X155264Y342339D02*
D03*
X155772Y346521D02*
D03*
X158165Y349987D02*
D03*
X157413Y277236D02*
D03*
X160879Y279628D02*
D03*
X165061Y280136D02*
D03*
X168999Y278642D02*
D03*
X171792Y275490D02*
D03*
X172800Y271400D02*
D03*
X171792Y267310D02*
D03*
X168999Y264158D02*
D03*
X165061Y262664D02*
D03*
X160879Y263172D02*
D03*
X157413Y265564D02*
D03*
D29*
X100121Y348421D02*
G03*
X101000Y350543I-2121J2121D01*
G01*
X72579Y320879D02*
G03*
X71700Y318757I2121J-2121D01*
G01*
X121561Y330711D02*
G03*
X122000Y331771I-1061J1061D01*
G01*
X121289Y330439D02*
G03*
X120850Y329379I1061J-1061D01*
G01*
X68700Y271400D02*
G03*
X71700Y274400I0J3000D01*
G01*
X120850D02*
G03*
X123850Y271400I3000J0D01*
G01*
X40000Y414500D02*
G03*
X37000Y411500I0J-3000D01*
G01*
X36121Y380121D02*
G03*
X37000Y382243I-2121J2121D01*
G01*
X31879Y375879D02*
G03*
X31000Y373757I2121J-2121D01*
G01*
X81379Y455379D02*
G03*
X80500Y453257I2121J-2121D01*
G01*
X84121Y458121D02*
G03*
X85000Y460243I-2121J2121D01*
G01*
X114500Y453257D02*
G03*
X113621Y455379I-3000J0D01*
G01*
X110000Y460243D02*
G03*
X110879Y458121I3000J0D01*
G01*
X158000Y418500D02*
G03*
X155000Y421500I-3000J0D01*
G01*
X158000Y389243D02*
G03*
X158879Y387121I3000J0D01*
G01*
X164000Y380757D02*
G03*
X163121Y382879I-3000J0D01*
G01*
X164000Y510000D02*
G03*
X161000Y513000I-3000J0D01*
G01*
X113000D02*
G03*
X110000Y510000I0J-3000D01*
G01*
X34000Y513000D02*
G03*
X31000Y510000I0J-3000D01*
G01*
X85000D02*
G03*
X82000Y513000I-3000J0D01*
G01*
X101000Y350543D02*
Y396500D01*
X72579Y320879D02*
X100121Y348421D01*
X71700Y299286D02*
Y318757D01*
X122000Y331771D02*
Y396500D01*
X121289Y330439D02*
X121561Y330711D01*
X120850Y299286D02*
Y329379D01*
X71700Y274400D02*
Y289714D01*
X31000Y271400D02*
X68700D01*
X120850Y274400D02*
Y289714D01*
X123850Y271400D02*
X164000D01*
X40000Y414500D02*
X69000D01*
X37000Y396786D02*
Y411500D01*
Y382243D02*
Y387214D01*
X31879Y375879D02*
X36121Y380121D01*
X31000Y343400D02*
Y373757D01*
X80500Y453257D02*
Y453500D01*
X81379Y455379D02*
X84121Y458121D01*
X85000Y460243D02*
Y494714D01*
X114500Y453257D02*
Y453500D01*
X110879Y458121D02*
X113621Y455379D01*
X110000Y460243D02*
Y494714D01*
X126000Y421500D02*
X155000D01*
X158000Y403786D02*
Y418500D01*
Y389243D02*
Y394214D01*
X158879Y387121D02*
X163121Y382879D01*
X164000Y343400D02*
Y380757D01*
Y488400D02*
Y510000D01*
X113000Y513000D02*
X161000D01*
X110000Y504286D02*
Y510000D01*
X31000Y488400D02*
Y510000D01*
X34000Y513000D02*
X82000D01*
X85000Y504286D02*
Y510000D01*
D30*
X69000Y449500D02*
D03*
Y442500D02*
D03*
Y435500D02*
D03*
Y428500D02*
D03*
Y421500D02*
D03*
Y414500D02*
D03*
Y407500D02*
D03*
X126000D02*
D03*
Y414500D02*
D03*
Y421500D02*
D03*
Y428500D02*
D03*
Y435500D02*
D03*
Y442500D02*
D03*
Y449500D02*
D03*
D31*
X80500Y453500D02*
D03*
X73000Y396500D02*
D03*
X80000D02*
D03*
X87000D02*
D03*
X94000D02*
D03*
X101000D02*
D03*
X108000D02*
D03*
X115000D02*
D03*
X122000D02*
D03*
X114500Y453500D02*
D03*
D32*
X85000Y484000D02*
D03*
X68000D02*
D03*
X110000D02*
D03*
X127000Y484000D02*
D03*
X158000Y414500D02*
D03*
X175000D02*
D03*
X120850Y310000D02*
D03*
X137850Y310000D02*
D03*
X71700Y310000D02*
D03*
X54700Y310000D02*
D03*
X37000Y407500D02*
D03*
X20000D02*
D03*
D33*
X85000Y504286D02*
D03*
Y494714D02*
D03*
X110000Y504286D02*
D03*
X110000Y494714D02*
D03*
X158000Y394214D02*
D03*
Y403786D02*
D03*
X120850Y289714D02*
D03*
Y299286D02*
D03*
X71700Y289714D02*
D03*
Y299286D02*
D03*
X37000Y387214D02*
D03*
Y396786D02*
D03*
M02*
