ISO-10303-21;
HEADER;
FILE_DESCRIPTION((''),'2;1');
FILE_NAME('SMP-FS-SBPCT_SW0001','2020-08-24T12:27:13',('Kaviyarasan'),(''),
'CREO PARAMETRIC BY PTC INC, 2019444','CREO PARAMETRIC BY PTC INC, 2019444','');
FILE_SCHEMA(('CONFIG_CONTROL_DESIGN'));
ENDSEC;
DATA;
#1=CARTESIAN_POINT('',(0.E0,0.E0,0.E0));
#2=DIRECTION('',(0.E0,1.E0,0.E0));
#3=DIRECTION('',(1.E0,0.E0,0.E0));
#4=AXIS2_PLACEMENT_3D('',#1,#2,#3);
#6=CARTESIAN_POINT('',(0.E0,0.E0,0.E0));
#7=DIRECTION('',(0.E0,1.E0,0.E0));
#8=DIRECTION('',(-1.E0,0.E0,0.E0));
#9=AXIS2_PLACEMENT_3D('',#6,#7,#8);
#11=CARTESIAN_POINT('',(0.E0,0.E0,0.E0));
#12=DIRECTION('',(0.E0,1.E0,0.E0));
#13=DIRECTION('',(1.E0,0.E0,0.E0));
#14=AXIS2_PLACEMENT_3D('',#11,#12,#13);
#16=CARTESIAN_POINT('',(0.E0,0.E0,0.E0));
#17=DIRECTION('',(0.E0,1.E0,0.E0));
#18=DIRECTION('',(-1.E0,0.E0,0.E0));
#19=AXIS2_PLACEMENT_3D('',#16,#17,#18);
#21=CARTESIAN_POINT('',(-1.27E0,0.E0,1.27E0));
#22=DIRECTION('',(0.E0,-1.E0,0.E0));
#23=DIRECTION('',(1.E0,0.E0,0.E0));
#24=AXIS2_PLACEMENT_3D('',#21,#22,#23);
#26=CARTESIAN_POINT('',(-1.27E0,0.E0,1.27E0));
#27=DIRECTION('',(0.E0,-1.E0,0.E0));
#28=DIRECTION('',(-1.E0,0.E0,0.E0));
#29=AXIS2_PLACEMENT_3D('',#26,#27,#28);
#31=CARTESIAN_POINT('',(1.27E0,0.E0,1.27E0));
#32=DIRECTION('',(0.E0,-1.E0,0.E0));
#33=DIRECTION('',(1.E0,0.E0,0.E0));
#34=AXIS2_PLACEMENT_3D('',#31,#32,#33);
#36=CARTESIAN_POINT('',(1.27E0,0.E0,1.27E0));
#37=DIRECTION('',(0.E0,-1.E0,0.E0));
#38=DIRECTION('',(-1.E0,0.E0,0.E0));
#39=AXIS2_PLACEMENT_3D('',#36,#37,#38);
#41=CARTESIAN_POINT('',(1.27E0,0.E0,-1.27E0));
#42=DIRECTION('',(0.E0,-1.E0,0.E0));
#43=DIRECTION('',(1.E0,0.E0,0.E0));
#44=AXIS2_PLACEMENT_3D('',#41,#42,#43);
#46=CARTESIAN_POINT('',(1.27E0,0.E0,-1.27E0));
#47=DIRECTION('',(0.E0,-1.E0,0.E0));
#48=DIRECTION('',(-1.E0,0.E0,0.E0));
#49=AXIS2_PLACEMENT_3D('',#46,#47,#48);
#51=CARTESIAN_POINT('',(-1.27E0,0.E0,-1.27E0));
#52=DIRECTION('',(0.E0,-1.E0,0.E0));
#53=DIRECTION('',(1.E0,0.E0,0.E0));
#54=AXIS2_PLACEMENT_3D('',#51,#52,#53);
#56=CARTESIAN_POINT('',(-1.27E0,0.E0,-1.27E0));
#57=DIRECTION('',(0.E0,-1.E0,0.E0));
#58=DIRECTION('',(-1.E0,0.E0,0.E0));
#59=AXIS2_PLACEMENT_3D('',#56,#57,#58);
#61=DIRECTION('',(-7.071061346343E-1,-7.071074277382E-1,2.714385116643E-10));
#62=VECTOR('',#61,1.414213562433E-1);
#63=CARTESIAN_POINT('',(2.750000320985E0,9.999967898562E-2,1.347634531713E-10));
#64=LINE('',#63,#62);
#65=CARTESIAN_POINT('',(0.E0,9.999871600191E-2,0.E0));
#66=DIRECTION('',(0.E0,1.E0,0.E0));
#67=DIRECTION('',(1.E0,0.E0,0.E0));
#68=AXIS2_PLACEMENT_3D('',#65,#66,#67);
#70=CARTESIAN_POINT('',(0.E0,4.700001246288E0,0.E0));
#71=DIRECTION('',(0.E0,1.E0,0.E0));
#72=DIRECTION('',(1.E0,0.E0,0.E0));
#73=AXIS2_PLACEMENT_3D('',#70,#71,#72);
#75=CARTESIAN_POINT('',(0.E0,9.999871600191E-2,0.E0));
#76=DIRECTION('',(0.E0,1.E0,0.E0));
#77=DIRECTION('',(-1.E0,0.E0,0.E0));
#78=AXIS2_PLACEMENT_3D('',#75,#76,#77);
#80=DIRECTION('',(2.050874357153E-9,1.E0,1.517565071516E-10));
#81=VECTOR('',#80,4.600000632608E0);
#82=CARTESIAN_POINT('',(-2.750000320985E0,9.999967898562E-2,
-1.347639111388E-10));
#83=LINE('',#82,#81);
#84=CARTESIAN_POINT('',(0.E0,4.700001246288E0,0.E0));
#85=DIRECTION('',(0.E0,1.E0,0.E0));
#86=DIRECTION('',(-1.E0,0.E0,0.E0));
#87=AXIS2_PLACEMENT_3D('',#84,#85,#86);
#89=DIRECTION('',(-2.050874936400E-9,1.E0,-1.517564950840E-10));
#90=VECTOR('',#89,4.600000632608E0);
#91=CARTESIAN_POINT('',(2.750000320985E0,9.999967898562E-2,1.347634531713E-10));
#92=LINE('',#91,#90);
#93=DIRECTION('',(7.071061346343E-1,-7.071074277382E-1,-2.714423065479E-10));
#94=VECTOR('',#93,1.414213562433E-1);
#95=CARTESIAN_POINT('',(-2.750000320985E0,9.999967898562E-2,
-1.347639111388E-10));
#96=LINE('',#95,#94);
#97=DIRECTION('',(-7.071061536230E-1,-7.071074087496E-1,-1.134622914313E-9));
#98=VECTOR('',#97,1.414213562460E-1);
#99=CARTESIAN_POINT('',(-2.650000400296E0,4.800000400350E0,7.237760291310E-10));
#100=LINE('',#99,#98);
#101=CARTESIAN_POINT('',(-1.304084742753E-14,4.8E0,0.E0));
#102=DIRECTION('',(0.E0,1.E0,0.E0));
#103=DIRECTION('',(1.E0,0.E0,0.E0));
#104=AXIS2_PLACEMENT_3D('',#101,#102,#103);
#106=CARTESIAN_POINT('',(0.E0,4.8E0,0.E0));
#107=DIRECTION('',(0.E0,1.E0,0.E0));
#108=DIRECTION('',(-1.E0,0.E0,0.E0));
#109=AXIS2_PLACEMENT_3D('',#106,#107,#108);
#111=CARTESIAN_POINT('',(0.E0,4.8E0,0.E0));
#112=DIRECTION('',(0.E0,-1.E0,0.E0));
#113=DIRECTION('',(1.E0,0.E0,0.E0));
#114=AXIS2_PLACEMENT_3D('',#111,#112,#113);
#116=CARTESIAN_POINT('',(0.E0,4.8E0,0.E0));
#117=DIRECTION('',(0.E0,-1.E0,0.E0));
#118=DIRECTION('',(-1.E0,0.E0,0.E0));
#119=AXIS2_PLACEMENT_3D('',#116,#117,#118);
#121=DIRECTION('',(7.071061536230E-1,-7.071074087496E-1,1.134622103591E-9));
#122=VECTOR('',#121,1.414213562460E-1);
#123=CARTESIAN_POINT('',(2.650000400296E0,4.800000400350E0,
-7.237763169342E-10));
#124=LINE('',#123,#122);
#125=DIRECTION('',(-7.071074264153E-1,-7.071061359572E-1,1.706902051276E-9));
#126=VECTOR('',#125,1.838477630714E-1);
#127=CARTESIAN_POINT('',(1.960000395662E0,4.799999604163E0,-1.046923975567E-9));
#128=LINE('',#127,#126);
#129=DIRECTION('',(7.071074264153E-1,-7.071061359572E-1,-1.706899768157E-9));
#130=VECTOR('',#129,1.838477630714E-1);
#131=CARTESIAN_POINT('',(-1.960000395662E0,4.799999604163E0,1.046923768428E-9));
#132=LINE('',#131,#130);
#133=CARTESIAN_POINT('',(0.E0,4.669998891498E0,0.E0));
#134=DIRECTION('',(0.E0,-1.E0,0.E0));
#135=DIRECTION('',(-1.E0,0.E0,0.E0));
#136=AXIS2_PLACEMENT_3D('',#133,#134,#135);
#138=CARTESIAN_POINT('',(0.E0,3.922755521618E0,0.E0));
#139=DIRECTION('',(0.E0,1.E0,0.E0));
#140=DIRECTION('',(1.E0,0.E0,0.E0));
#141=AXIS2_PLACEMENT_3D('',#138,#139,#140);
#143=CARTESIAN_POINT('',(0.E0,4.669998891498E0,0.E0));
#144=DIRECTION('',(0.E0,-1.E0,0.E0));
#145=DIRECTION('',(1.E0,0.E0,0.E0));
#146=AXIS2_PLACEMENT_3D('',#143,#144,#145);
#148=DIRECTION('',(-3.707813236810E-7,9.999999999999E-1,9.810908795741E-10));
#149=VECTOR('',#148,7.472442011948E-1);
#150=CARTESIAN_POINT('',(-1.83E0,3.922755521618E0,0.E0));
#151=LINE('',#150,#149);
#152=CARTESIAN_POINT('',(0.E0,3.922755521618E0,0.E0));
#153=DIRECTION('',(0.E0,-1.E0,0.E0));
#154=DIRECTION('',(1.E0,0.E0,0.E0));
#155=AXIS2_PLACEMENT_3D('',#152,#153,#154);
#157=DIRECTION('',(3.707813236810E-7,9.999999999999E-1,-9.810900512647E-10));
#158=VECTOR('',#157,7.472442011948E-1);
#159=CARTESIAN_POINT('',(1.83E0,3.922755521618E0,0.E0));
#160=LINE('',#159,#158);
#161=DIRECTION('',(5.735764363510E-1,8.191520442890E-1,0.E0));
#162=VECTOR('',#161,4.184272309491E-1);
#163=CARTESIAN_POINT('',(1.59E0,3.58E0,0.E0));
#164=LINE('',#163,#162);
#165=DIRECTION('',(-5.735764363510E-1,8.191520442890E-1,0.E0));
#166=VECTOR('',#165,4.184272309491E-1);
#167=CARTESIAN_POINT('',(-1.59E0,3.58E0,0.E0));
#168=LINE('',#167,#166);
#169=CARTESIAN_POINT('',(0.E0,3.58E0,0.E0));
#170=DIRECTION('',(0.E0,-1.E0,0.E0));
#171=DIRECTION('',(1.E0,0.E0,0.E0));
#172=AXIS2_PLACEMENT_3D('',#169,#170,#171);
#174=CARTESIAN_POINT('',(0.E0,3.58E0,0.E0));
#175=DIRECTION('',(0.E0,1.E0,0.E0));
#176=DIRECTION('',(1.E0,0.E0,0.E0));
#177=AXIS2_PLACEMENT_3D('',#174,#175,#176);
#179=CARTESIAN_POINT('',(0.E0,2.01E0,0.E0));
#180=DIRECTION('',(0.E0,1.E0,0.E0));
#181=DIRECTION('',(1.E0,0.E0,0.E0));
#182=AXIS2_PLACEMENT_3D('',#179,#180,#181);
#184=DIRECTION('',(0.E0,1.E0,0.E0));
#185=VECTOR('',#184,1.57E0);
#186=CARTESIAN_POINT('',(1.59E0,2.01E0,0.E0));
#187=LINE('',#186,#185);
#188=DIRECTION('',(0.E0,1.E0,0.E0));
#189=VECTOR('',#188,1.57E0);
#190=CARTESIAN_POINT('',(-1.59E0,2.01E0,0.E0));
#191=LINE('',#190,#189);
#192=CARTESIAN_POINT('',(0.E0,2.01E0,0.E0));
#193=DIRECTION('',(0.E0,-1.E0,0.E0));
#194=DIRECTION('',(1.E0,0.E0,0.E0));
#195=AXIS2_PLACEMENT_3D('',#192,#193,#194);
#197=CARTESIAN_POINT('',(0.E0,2.01E0,0.E0));
#198=DIRECTION('',(0.E0,1.E0,0.E0));
#199=DIRECTION('',(1.E0,0.E0,0.E0));
#200=AXIS2_PLACEMENT_3D('',#197,#198,#199);
#202=CARTESIAN_POINT('',(0.E0,2.01E0,0.E0));
#203=DIRECTION('',(0.E0,1.E0,0.E0));
#204=DIRECTION('',(-1.E0,0.E0,0.E0));
#205=AXIS2_PLACEMENT_3D('',#202,#203,#204);
#207=CARTESIAN_POINT('',(0.E0,3.08E0,0.E0));
#208=DIRECTION('',(0.E0,1.E0,0.E0));
#209=DIRECTION('',(1.E0,0.E0,0.E0));
#210=AXIS2_PLACEMENT_3D('',#207,#208,#209);
#212=DIRECTION('',(0.E0,1.E0,0.E0));
#213=VECTOR('',#212,1.07E0);
#214=CARTESIAN_POINT('',(-1.9E-1,2.01E0,0.E0));
#215=LINE('',#214,#213);
#216=CARTESIAN_POINT('',(0.E0,3.08E0,0.E0));
#217=DIRECTION('',(0.E0,1.E0,0.E0));
#218=DIRECTION('',(-1.E0,0.E0,0.E0));
#219=AXIS2_PLACEMENT_3D('',#216,#217,#218);
#221=DIRECTION('',(0.E0,1.E0,0.E0));
#222=VECTOR('',#221,1.07E0);
#223=CARTESIAN_POINT('',(1.9E-1,2.01E0,0.E0));
#224=LINE('',#223,#222);
#225=CARTESIAN_POINT('',(0.E0,3.08E0,0.E0));
#226=DIRECTION('',(0.E0,0.E0,-1.E0));
#227=DIRECTION('',(-1.E0,0.E0,0.E0));
#228=AXIS2_PLACEMENT_3D('',#225,#226,#227);
#230=CARTESIAN_POINT('',(0.E0,3.08E0,0.E0));
#231=DIRECTION('',(0.E0,0.E0,1.E0));
#232=DIRECTION('',(1.E0,0.E0,0.E0));
#233=AXIS2_PLACEMENT_3D('',#230,#231,#232);
#235=CARTESIAN_POINT('',(0.E0,1.016E-1,0.E0));
#236=DIRECTION('',(0.E0,1.E0,0.E0));
#237=DIRECTION('',(1.E0,0.E0,0.E0));
#238=AXIS2_PLACEMENT_3D('',#235,#236,#237);
#240=CARTESIAN_POINT('',(0.E0,1.016E-1,0.E0));
#241=DIRECTION('',(0.E0,1.E0,0.E0));
#242=DIRECTION('',(-1.E0,0.E0,-6.556548626715E-11));
#243=AXIS2_PLACEMENT_3D('',#240,#241,#242);
#245=CARTESIAN_POINT('',(0.E0,1.016E-1,0.E0));
#246=DIRECTION('',(0.E0,1.E0,0.E0));
#247=DIRECTION('',(1.E0,0.E0,6.556078387388E-11));
#248=AXIS2_PLACEMENT_3D('',#245,#246,#247);
#250=CARTESIAN_POINT('',(0.E0,1.016E-1,0.E0));
#251=DIRECTION('',(0.E0,1.E0,0.E0));
#252=DIRECTION('',(-1.E0,0.E0,0.E0));
#253=AXIS2_PLACEMENT_3D('',#250,#251,#252);
#255=DIRECTION('',(7.071067811865E-1,7.071067811865E-1,0.E0));
#256=VECTOR('',#255,1.436840979371E-1);
#257=CARTESIAN_POINT('',(-1.1716E0,0.E0,0.E0));
#258=LINE('',#257,#256);
#259=DIRECTION('',(-7.071067811865E-1,7.071067811865E-1,0.E0));
#260=VECTOR('',#259,1.436840979371E-1);
#261=CARTESIAN_POINT('',(1.1716E0,0.E0,0.E0));
#262=LINE('',#261,#260);
#263=DIRECTION('',(7.071167040734E-1,-7.070968581604E-1,9.897571972647E-9));
#264=VECTOR('',#263,2.262836722126E-3);
#265=CARTESIAN_POINT('',(-1.021600134374E0,1.016E-1,-6.701587569931E-11));
#266=LINE('',#265,#264);
#267=DIRECTION('',(-7.071167040735E-1,-7.070968581603E-1,-9.897151634621E-9));
#268=VECTOR('',#267,2.262836722127E-3);
#269=CARTESIAN_POINT('',(1.021600134374E0,1.016E-1,6.701506683981E-11));
#270=LINE('',#269,#268);
#271=CARTESIAN_POINT('',(0.E0,1.E-1,0.E0));
#272=DIRECTION('',(0.E0,1.E0,0.E0));
#273=DIRECTION('',(1.E0,0.E0,0.E0));
#274=AXIS2_PLACEMENT_3D('',#271,#272,#273);
#276=CARTESIAN_POINT('',(0.E0,1.E-1,0.E0));
#277=DIRECTION('',(0.E0,1.E0,0.E0));
#278=DIRECTION('',(-1.E0,0.E0,0.E0));
#279=AXIS2_PLACEMENT_3D('',#276,#277,#278);
#281=CARTESIAN_POINT('',(0.E0,1.E-1,0.E0));
#282=DIRECTION('',(0.E0,1.E0,0.E0));
#283=DIRECTION('',(-1.E0,0.E0,0.E0));
#284=AXIS2_PLACEMENT_3D('',#281,#282,#283);
#286=CARTESIAN_POINT('',(0.E0,1.E-1,0.E0));
#287=DIRECTION('',(0.E0,1.E0,0.E0));
#288=DIRECTION('',(1.E0,0.E0,0.E0));
#289=AXIS2_PLACEMENT_3D('',#286,#287,#288);
#291=DIRECTION('',(7.071852981982E-1,7.070282554554E-1,7.439215560927E-9));
#292=VECTOR('',#291,2.263502134151E-3);
#293=CARTESIAN_POINT('',(-3.649996398816E-1,9.999964003487E-2,
3.412508926176E-11));
#294=LINE('',#293,#292);
#295=CARTESIAN_POINT('',(0.E0,1.016E-1,0.E0));
#296=DIRECTION('',(0.E0,-1.E0,0.E0));
#297=DIRECTION('',(-1.E0,0.E0,1.402448702706E-10));
#298=AXIS2_PLACEMENT_3D('',#295,#296,#297);
#300=CARTESIAN_POINT('',(0.E0,1.016E-1,0.E0));
#301=DIRECTION('',(0.E0,-1.E0,0.E0));
#302=DIRECTION('',(1.E0,0.E0,-1.402450923148E-10));
#303=AXIS2_PLACEMENT_3D('',#300,#301,#302);
#305=CARTESIAN_POINT('',(0.E0,1.016E-1,0.E0));
#306=DIRECTION('',(0.E0,1.E0,0.E0));
#307=DIRECTION('',(1.E0,0.E0,0.E0));
#308=AXIS2_PLACEMENT_3D('',#305,#306,#307);
#310=CARTESIAN_POINT('',(0.E0,1.016E-1,0.E0));
#311=DIRECTION('',(0.E0,1.E0,0.E0));
#312=DIRECTION('',(-1.E0,0.E0,0.E0));
#313=AXIS2_PLACEMENT_3D('',#310,#311,#312);
#315=DIRECTION('',(-7.071852981982E-1,7.070282554554E-1,-7.439205963683E-9));
#316=VECTOR('',#315,2.263502134151E-3);
#317=CARTESIAN_POINT('',(3.649996398816E-1,9.999964003487E-2,
-3.412516392030E-11));
#318=LINE('',#317,#316);
#319=CARTESIAN_POINT('',(0.E0,-3.759993063352E0,0.E0));
#320=DIRECTION('',(0.E0,1.E0,0.E0));
#321=DIRECTION('',(1.E0,0.E0,0.E0));
#322=AXIS2_PLACEMENT_3D('',#319,#320,#321);
#324=DIRECTION('',(4.491319534289E-7,9.999999999999E-1,2.944190141751E-11));
#325=VECTOR('',#324,3.861598266078E0);
#326=CARTESIAN_POINT('',(3.499982656328E-1,-3.759998266078E0,
-1.136927954639E-10));
#327=LINE('',#326,#325);
#328=CARTESIAN_POINT('',(0.E0,-3.759993063352E0,0.E0));
#329=DIRECTION('',(0.E0,1.E0,0.E0));
#330=DIRECTION('',(-1.E0,0.E0,0.E0));
#331=AXIS2_PLACEMENT_3D('',#328,#329,#330);
#333=DIRECTION('',(-4.491319532276E-7,9.999999999999E-1,-2.944191507353E-11));
#334=VECTOR('',#333,3.861598266078E0);
#335=CARTESIAN_POINT('',(-3.499982656328E-1,-3.759998266078E0,
1.136927704823E-10));
#336=LINE('',#335,#334);
#337=DIRECTION('',(7.071102846795E-1,-7.071032776763E-1,2.296927567783E-10));
#338=VECTOR('',#337,7.071067816445E-2);
#339=CARTESIAN_POINT('',(-3.499982656328E-1,-3.759998266078E0,
1.136927704823E-10));
#340=LINE('',#339,#338);
#341=DIRECTION('',(-7.071102846795E-1,-7.071032776763E-1,-2.296934340658E-10));
#342=VECTOR('',#341,7.071067816445E-2);
#343=CARTESIAN_POINT('',(3.499982656328E-1,-3.759998266078E0,
-1.136927954639E-10));
#344=LINE('',#343,#342);
#345=CARTESIAN_POINT('',(0.E0,-3.81E0,0.E0));
#346=DIRECTION('',(0.E0,1.E0,0.E0));
#347=DIRECTION('',(1.E0,0.E0,0.E0));
#348=AXIS2_PLACEMENT_3D('',#345,#346,#347);
#350=CARTESIAN_POINT('',(0.E0,-3.81E0,0.E0));
#351=DIRECTION('',(0.E0,1.E0,0.E0));
#352=DIRECTION('',(-1.E0,0.E0,0.E0));
#353=AXIS2_PLACEMENT_3D('',#350,#351,#352);
#355=DIRECTION('',(0.E0,-1.E0,0.E0));
#356=VECTOR('',#355,2.E-1);
#357=CARTESIAN_POINT('',(-7.2E-1,0.E0,1.27E0));
#358=LINE('',#357,#356);
#359=DIRECTION('',(0.E0,-1.E0,0.E0));
#360=VECTOR('',#359,2.E-1);
#361=CARTESIAN_POINT('',(-1.82E0,0.E0,1.27E0));
#362=LINE('',#361,#360);
#363=CARTESIAN_POINT('',(-1.27E0,-2.E-1,1.27E0));
#364=DIRECTION('',(0.E0,-1.E0,0.E0));
#365=DIRECTION('',(1.E0,0.E0,0.E0));
#366=AXIS2_PLACEMENT_3D('',#363,#364,#365);
#368=CARTESIAN_POINT('',(-1.27E0,-2.E-1,1.27E0));
#369=DIRECTION('',(0.E0,-1.E0,0.E0));
#370=DIRECTION('',(-1.E0,0.E0,0.E0));
#371=AXIS2_PLACEMENT_3D('',#368,#369,#370);
#373=CARTESIAN_POINT('',(-1.27E0,-2.E-1,1.27E0));
#374=DIRECTION('',(0.E0,-1.E0,0.E0));
#375=DIRECTION('',(0.E0,0.E0,-1.E0));
#376=AXIS2_PLACEMENT_3D('',#373,#374,#375);
#378=CARTESIAN_POINT('',(-1.27E0,-2.E-1,1.27E0));
#379=DIRECTION('',(0.E0,-1.E0,0.E0));
#380=DIRECTION('',(0.E0,0.E0,1.E0));
#381=AXIS2_PLACEMENT_3D('',#378,#379,#380);
#383=CARTESIAN_POINT('',(-1.27E0,-3.739983666261E0,1.27E0));
#384=DIRECTION('',(0.E0,-1.E0,0.E0));
#385=DIRECTION('',(0.E0,0.E0,-1.E0));
#386=AXIS2_PLACEMENT_3D('',#383,#384,#385);
#388=DIRECTION('',(-1.130783589100E-9,-9.999999999993E-1,1.153819708220E-6));
#389=VECTOR('',#388,3.539995917840E0);
#390=CARTESIAN_POINT('',(-1.27E0,-2.E-1,9.2E-1));
#391=LINE('',#390,#389);
#392=DIRECTION('',(4.942190489195E-9,7.071017397515E-1,-7.071118225856E-1));
#393=VECTOR('',#392,8.485281391900E-2);
#394=CARTESIAN_POINT('',(-1.270000004422E0,-3.799995490183E0,
9.800045124188E-1));
#395=LINE('',#394,#393);
#396=CARTESIAN_POINT('',(-1.27E0,-3.8E0,1.27E0));
#397=DIRECTION('',(0.E0,-1.E0,0.E0));
#398=DIRECTION('',(0.E0,0.E0,-1.E0));
#399=AXIS2_PLACEMENT_3D('',#396,#397,#398);
#401=CARTESIAN_POINT('',(-1.27E0,-3.8E0,1.27E0));
#402=DIRECTION('',(0.E0,-1.E0,0.E0));
#403=DIRECTION('',(0.E0,0.E0,1.E0));
#404=AXIS2_PLACEMENT_3D('',#401,#402,#403);
#406=DIRECTION('',(-4.942190489195E-9,7.071017397515E-1,7.071118225856E-1));
#407=VECTOR('',#406,8.485281391901E-2);
#408=CARTESIAN_POINT('',(-1.269999995578E0,-3.799995490183E0,1.559995487581E0));
#409=LINE('',#408,#407);
#410=CARTESIAN_POINT('',(-1.27E0,-3.739983666261E0,1.27E0));
#411=DIRECTION('',(0.E0,-1.E0,0.E0));
#412=DIRECTION('',(0.E0,0.E0,1.E0));
#413=AXIS2_PLACEMENT_3D('',#410,#411,#412);
#415=DIRECTION('',(1.130783463651E-9,-9.999999999993E-1,-1.153819708408E-6));
#416=VECTOR('',#415,3.539995917840E0);
#417=CARTESIAN_POINT('',(-1.27E0,-2.E-1,1.62E0));
#418=LINE('',#417,#416);
#419=DIRECTION('',(0.E0,-1.E0,0.E0));
#420=VECTOR('',#419,2.E-1);
#421=CARTESIAN_POINT('',(1.82E0,0.E0,1.27E0));
#422=LINE('',#421,#420);
#423=DIRECTION('',(0.E0,-1.E0,0.E0));
#424=VECTOR('',#423,2.E-1);
#425=CARTESIAN_POINT('',(7.2E-1,0.E0,1.27E0));
#426=LINE('',#425,#424);
#427=CARTESIAN_POINT('',(1.27E0,-2.E-1,1.27E0));
#428=DIRECTION('',(0.E0,-1.E0,0.E0));
#429=DIRECTION('',(1.E0,0.E0,0.E0));
#430=AXIS2_PLACEMENT_3D('',#427,#428,#429);
#432=CARTESIAN_POINT('',(1.27E0,-2.E-1,1.27E0));
#433=DIRECTION('',(0.E0,-1.E0,0.E0));
#434=DIRECTION('',(-1.E0,0.E0,0.E0));
#435=AXIS2_PLACEMENT_3D('',#432,#433,#434);
#437=CARTESIAN_POINT('',(1.27E0,-2.E-1,1.27E0));
#438=DIRECTION('',(0.E0,-1.E0,0.E0));
#439=DIRECTION('',(0.E0,0.E0,-1.E0));
#440=AXIS2_PLACEMENT_3D('',#437,#438,#439);
#442=CARTESIAN_POINT('',(1.27E0,-2.E-1,1.27E0));
#443=DIRECTION('',(0.E0,-1.E0,0.E0));
#444=DIRECTION('',(0.E0,0.E0,1.E0));
#445=AXIS2_PLACEMENT_3D('',#442,#443,#444);
#447=CARTESIAN_POINT('',(1.27E0,-3.739983666261E0,1.27E0));
#448=DIRECTION('',(0.E0,-1.E0,0.E0));
#449=DIRECTION('',(0.E0,0.E0,-1.E0));
#450=AXIS2_PLACEMENT_3D('',#447,#448,#449);
#452=DIRECTION('',(-1.130783463651E-9,-9.999999999993E-1,1.153819708346E-6));
#453=VECTOR('',#452,3.539995917840E0);
#454=CARTESIAN_POINT('',(1.27E0,-2.E-1,9.2E-1));
#455=LINE('',#454,#453);
#456=DIRECTION('',(4.942195722836E-9,7.071017397515E-1,-7.071118225856E-1));
#457=VECTOR('',#456,8.485281391901E-2);
#458=CARTESIAN_POINT('',(1.269999995578E0,-3.799995490183E0,9.800045124188E-1));
#459=LINE('',#458,#457);
#460=CARTESIAN_POINT('',(1.27E0,-3.8E0,1.27E0));
#461=DIRECTION('',(0.E0,-1.E0,0.E0));
#462=DIRECTION('',(0.E0,0.E0,-1.E0));
#463=AXIS2_PLACEMENT_3D('',#460,#461,#462);
#465=CARTESIAN_POINT('',(1.27E0,-3.8E0,1.27E0));
#466=DIRECTION('',(0.E0,-1.E0,0.E0));
#467=DIRECTION('',(0.E0,0.E0,1.E0));
#468=AXIS2_PLACEMENT_3D('',#465,#466,#467);
#470=DIRECTION('',(-4.942187872374E-9,7.071017397515E-1,7.071118225856E-1));
#471=VECTOR('',#470,8.485281391901E-2);
#472=CARTESIAN_POINT('',(1.270000004422E0,-3.799995490183E0,1.559995487581E0));
#473=LINE('',#472,#471);
#474=CARTESIAN_POINT('',(1.27E0,-3.739983666261E0,1.27E0));
#475=DIRECTION('',(0.E0,-1.E0,0.E0));
#476=DIRECTION('',(0.E0,0.E0,1.E0));
#477=AXIS2_PLACEMENT_3D('',#474,#475,#476);
#479=DIRECTION('',(1.130783526375E-9,-9.999999999993E-1,-1.153819708346E-6));
#480=VECTOR('',#479,3.539995917840E0);
#481=CARTESIAN_POINT('',(1.27E0,-2.E-1,1.62E0));
#482=LINE('',#481,#480);
#483=DIRECTION('',(0.E0,-1.E0,0.E0));
#484=VECTOR('',#483,2.E-1);
#485=CARTESIAN_POINT('',(1.82E0,0.E0,-1.27E0));
#486=LINE('',#485,#484);
#487=DIRECTION('',(0.E0,-1.E0,0.E0));
#488=VECTOR('',#487,2.E-1);
#489=CARTESIAN_POINT('',(7.2E-1,0.E0,-1.27E0));
#490=LINE('',#489,#488);
#491=CARTESIAN_POINT('',(1.27E0,-2.E-1,-1.27E0));
#492=DIRECTION('',(0.E0,-1.E0,0.E0));
#493=DIRECTION('',(1.E0,0.E0,0.E0));
#494=AXIS2_PLACEMENT_3D('',#491,#492,#493);
#496=CARTESIAN_POINT('',(1.27E0,-2.E-1,-1.27E0));
#497=DIRECTION('',(0.E0,-1.E0,0.E0));
#498=DIRECTION('',(-1.E0,0.E0,0.E0));
#499=AXIS2_PLACEMENT_3D('',#496,#497,#498);
#501=CARTESIAN_POINT('',(1.27E0,-2.E-1,-1.27E0));
#502=DIRECTION('',(0.E0,-1.E0,0.E0));
#503=DIRECTION('',(0.E0,0.E0,-1.E0));
#504=AXIS2_PLACEMENT_3D('',#501,#502,#503);
#506=CARTESIAN_POINT('',(1.27E0,-2.E-1,-1.27E0));
#507=DIRECTION('',(0.E0,-1.E0,0.E0));
#508=DIRECTION('',(0.E0,0.E0,1.E0));
#509=AXIS2_PLACEMENT_3D('',#506,#507,#508);
#511=CARTESIAN_POINT('',(1.27E0,-3.739983666261E0,-1.27E0));
#512=DIRECTION('',(0.E0,-1.E0,0.E0));
#513=DIRECTION('',(0.E0,0.E0,-1.E0));
#514=AXIS2_PLACEMENT_3D('',#511,#512,#513);
#516=DIRECTION('',(-1.130783463651E-9,-9.999999999993E-1,1.153819708346E-6));
#517=VECTOR('',#516,3.539995917840E0);
#518=CARTESIAN_POINT('',(1.27E0,-2.E-1,-1.62E0));
#519=LINE('',#518,#517);
#520=DIRECTION('',(4.942193106016E-9,7.071017397515E-1,-7.071118225856E-1));
#521=VECTOR('',#520,8.485281391901E-2);
#522=CARTESIAN_POINT('',(1.269999995578E0,-3.799995490183E0,-1.559995487581E0));
#523=LINE('',#522,#521);
#524=CARTESIAN_POINT('',(1.27E0,-3.8E0,-1.27E0));
#525=DIRECTION('',(0.E0,-1.E0,0.E0));
#526=DIRECTION('',(0.E0,0.E0,-1.E0));
#527=AXIS2_PLACEMENT_3D('',#524,#525,#526);
#529=CARTESIAN_POINT('',(1.27E0,-3.8E0,-1.27E0));
#530=DIRECTION('',(0.E0,-1.E0,0.E0));
#531=DIRECTION('',(0.E0,0.E0,1.E0));
#532=AXIS2_PLACEMENT_3D('',#529,#530,#531);
#534=DIRECTION('',(-4.942187872374E-9,7.071017397515E-1,7.071118225856E-1));
#535=VECTOR('',#534,8.485281391901E-2);
#536=CARTESIAN_POINT('',(1.270000004422E0,-3.799995490183E0,
-9.800045124188E-1));
#537=LINE('',#536,#535);
#538=CARTESIAN_POINT('',(1.27E0,-3.739983666261E0,-1.27E0));
#539=DIRECTION('',(0.E0,-1.E0,0.E0));
#540=DIRECTION('',(0.E0,0.E0,1.E0));
#541=AXIS2_PLACEMENT_3D('',#538,#539,#540);
#543=DIRECTION('',(1.130783526375E-9,-9.999999999993E-1,-1.153819708252E-6));
#544=VECTOR('',#543,3.539995917840E0);
#545=CARTESIAN_POINT('',(1.27E0,-2.E-1,-9.2E-1));
#546=LINE('',#545,#544);
#547=DIRECTION('',(0.E0,-1.E0,0.E0));
#548=VECTOR('',#547,2.E-1);
#549=CARTESIAN_POINT('',(-7.2E-1,0.E0,-1.27E0));
#550=LINE('',#549,#548);
#551=DIRECTION('',(0.E0,-1.E0,0.E0));
#552=VECTOR('',#551,2.E-1);
#553=CARTESIAN_POINT('',(-1.82E0,0.E0,-1.27E0));
#554=LINE('',#553,#552);
#555=CARTESIAN_POINT('',(-1.27E0,-2.E-1,-1.27E0));
#556=DIRECTION('',(0.E0,-1.E0,0.E0));
#557=DIRECTION('',(1.E0,0.E0,0.E0));
#558=AXIS2_PLACEMENT_3D('',#555,#556,#557);
#560=CARTESIAN_POINT('',(-1.27E0,-2.E-1,-1.27E0));
#561=DIRECTION('',(0.E0,-1.E0,0.E0));
#562=DIRECTION('',(-1.E0,0.E0,0.E0));
#563=AXIS2_PLACEMENT_3D('',#560,#561,#562);
#565=CARTESIAN_POINT('',(-1.27E0,-2.E-1,-1.27E0));
#566=DIRECTION('',(0.E0,-1.E0,0.E0));
#567=DIRECTION('',(0.E0,0.E0,-1.E0));
#568=AXIS2_PLACEMENT_3D('',#565,#566,#567);
#570=CARTESIAN_POINT('',(-1.27E0,-2.E-1,-1.27E0));
#571=DIRECTION('',(0.E0,-1.E0,0.E0));
#572=DIRECTION('',(0.E0,0.E0,1.E0));
#573=AXIS2_PLACEMENT_3D('',#570,#571,#572);
#575=CARTESIAN_POINT('',(-1.27E0,-3.739983666261E0,-1.27E0));
#576=DIRECTION('',(0.E0,-1.E0,0.E0));
#577=DIRECTION('',(0.E0,0.E0,-1.E0));
#578=AXIS2_PLACEMENT_3D('',#575,#576,#577);
#580=DIRECTION('',(-1.130783589100E-9,-9.999999999993E-1,1.153819708471E-6));
#581=VECTOR('',#580,3.539995917840E0);
#582=CARTESIAN_POINT('',(-1.27E0,-2.E-1,-1.62E0));
#583=LINE('',#582,#581);
#584=DIRECTION('',(4.942190489195E-9,7.071017397515E-1,-7.071118225856E-1));
#585=VECTOR('',#584,8.485281391901E-2);
#586=CARTESIAN_POINT('',(-1.270000004422E0,-3.799995490183E0,
-1.559995487581E0));
#587=LINE('',#586,#585);
#588=CARTESIAN_POINT('',(-1.27E0,-3.8E0,-1.27E0));
#589=DIRECTION('',(0.E0,-1.E0,0.E0));
#590=DIRECTION('',(0.E0,0.E0,-1.E0));
#591=AXIS2_PLACEMENT_3D('',#588,#589,#590);
#593=CARTESIAN_POINT('',(-1.27E0,-3.8E0,-1.27E0));
#594=DIRECTION('',(0.E0,-1.E0,0.E0));
#595=DIRECTION('',(0.E0,0.E0,1.E0));
#596=AXIS2_PLACEMENT_3D('',#593,#594,#595);
#598=DIRECTION('',(-4.942193106016E-9,7.071017397515E-1,7.071118225856E-1));
#599=VECTOR('',#598,8.485281391900E-2);
#600=CARTESIAN_POINT('',(-1.269999995578E0,-3.799995490183E0,
-9.800045124188E-1));
#601=LINE('',#600,#599);
#602=CARTESIAN_POINT('',(-1.27E0,-3.739983666261E0,-1.27E0));
#603=DIRECTION('',(0.E0,-1.E0,0.E0));
#604=DIRECTION('',(0.E0,0.E0,1.E0));
#605=AXIS2_PLACEMENT_3D('',#602,#603,#604);
#607=DIRECTION('',(1.130783463651E-9,-9.999999999993E-1,-1.153819708252E-6));
#608=VECTOR('',#607,3.539995917840E0);
#609=CARTESIAN_POINT('',(-1.27E0,-2.E-1,-9.2E-1));
#610=LINE('',#609,#608);
#611=CARTESIAN_POINT('',(1.59E0,2.01E0,0.E0));
#612=CARTESIAN_POINT('',(1.59E0,3.58E0,0.E0));
#613=VERTEX_POINT('',#611);
#614=VERTEX_POINT('',#612);
#615=CARTESIAN_POINT('',(-1.59E0,2.01E0,0.E0));
#616=CARTESIAN_POINT('',(-1.59E0,3.58E0,0.E0));
#617=VERTEX_POINT('',#615);
#618=VERTEX_POINT('',#616);
#619=CARTESIAN_POINT('',(1.1716E0,0.E0,0.E0));
#620=CARTESIAN_POINT('',(-1.1716E0,0.E0,0.E0));
#621=VERTEX_POINT('',#619);
#622=VERTEX_POINT('',#620);
#623=CARTESIAN_POINT('',(-7.2E-1,-2.E-1,1.27E0));
#624=CARTESIAN_POINT('',(-1.82E0,-2.E-1,1.27E0));
#625=VERTEX_POINT('',#623);
#626=VERTEX_POINT('',#624);
#627=CARTESIAN_POINT('',(1.82E0,-2.E-1,1.27E0));
#628=CARTESIAN_POINT('',(7.2E-1,-2.E-1,1.27E0));
#629=VERTEX_POINT('',#627);
#630=VERTEX_POINT('',#628);
#631=CARTESIAN_POINT('',(1.82E0,-2.E-1,-1.27E0));
#632=CARTESIAN_POINT('',(7.2E-1,-2.E-1,-1.27E0));
#633=VERTEX_POINT('',#631);
#634=VERTEX_POINT('',#632);
#635=CARTESIAN_POINT('',(-7.2E-1,-2.E-1,-1.27E0));
#636=CARTESIAN_POINT('',(-1.82E0,-2.E-1,-1.27E0));
#637=VERTEX_POINT('',#635);
#638=VERTEX_POINT('',#636);
#639=CARTESIAN_POINT('',(-7.2E-1,0.E0,1.27E0));
#640=CARTESIAN_POINT('',(-1.82E0,0.E0,1.27E0));
#641=VERTEX_POINT('',#639);
#642=VERTEX_POINT('',#640);
#643=CARTESIAN_POINT('',(1.82E0,0.E0,1.27E0));
#644=CARTESIAN_POINT('',(7.2E-1,0.E0,1.27E0));
#645=VERTEX_POINT('',#643);
#646=VERTEX_POINT('',#644);
#647=CARTESIAN_POINT('',(1.82E0,0.E0,-1.27E0));
#648=CARTESIAN_POINT('',(7.2E-1,0.E0,-1.27E0));
#649=VERTEX_POINT('',#647);
#650=VERTEX_POINT('',#648);
#651=CARTESIAN_POINT('',(-7.2E-1,0.E0,-1.27E0));
#652=CARTESIAN_POINT('',(-1.82E0,0.E0,-1.27E0));
#653=VERTEX_POINT('',#651);
#654=VERTEX_POINT('',#652);
#655=CARTESIAN_POINT('',(1.27E0,-2.E-1,9.2E-1));
#656=CARTESIAN_POINT('',(1.27E0,-2.E-1,1.62E0));
#657=VERTEX_POINT('',#655);
#658=VERTEX_POINT('',#656);
#659=CARTESIAN_POINT('',(1.27E0,-2.E-1,-1.62E0));
#660=CARTESIAN_POINT('',(1.27E0,-2.E-1,-9.2E-1));
#661=VERTEX_POINT('',#659);
#662=VERTEX_POINT('',#660);
#663=CARTESIAN_POINT('',(-1.27E0,-2.E-1,-1.62E0));
#664=CARTESIAN_POINT('',(-1.27E0,-2.E-1,-9.2E-1));
#665=VERTEX_POINT('',#663);
#666=VERTEX_POINT('',#664);
#667=CARTESIAN_POINT('',(-1.27E0,-2.E-1,9.2E-1));
#668=CARTESIAN_POINT('',(-1.27E0,-2.E-1,1.62E0));
#669=VERTEX_POINT('',#667);
#670=VERTEX_POINT('',#668);
#671=CARTESIAN_POINT('',(-1.27E0,-3.8E0,9.800135330381E-1));
#672=CARTESIAN_POINT('',(-1.27E0,-3.8E0,1.559986466962E0));
#673=VERTEX_POINT('',#671);
#674=VERTEX_POINT('',#672);
#675=CARTESIAN_POINT('',(-1.27E0,-3.739983666261E0,9.2E-1));
#676=CARTESIAN_POINT('',(-1.27E0,-3.739983666261E0,1.62E0));
#677=VERTEX_POINT('',#675);
#678=VERTEX_POINT('',#676);
#679=CARTESIAN_POINT('',(-1.27E0,-3.8E0,-1.559986466962E0));
#680=CARTESIAN_POINT('',(-1.27E0,-3.8E0,-9.800135330381E-1));
#681=VERTEX_POINT('',#679);
#682=VERTEX_POINT('',#680);
#683=CARTESIAN_POINT('',(-1.27E0,-3.739983666261E0,-1.62E0));
#684=CARTESIAN_POINT('',(-1.27E0,-3.739983666261E0,-9.2E-1));
#685=VERTEX_POINT('',#683);
#686=VERTEX_POINT('',#684);
#687=CARTESIAN_POINT('',(1.27E0,-3.8E0,9.800135330381E-1));
#688=CARTESIAN_POINT('',(1.27E0,-3.8E0,1.559986466962E0));
#689=VERTEX_POINT('',#687);
#690=VERTEX_POINT('',#688);
#691=CARTESIAN_POINT('',(1.27E0,-3.739983666261E0,9.2E-1));
#692=CARTESIAN_POINT('',(1.27E0,-3.739983666261E0,1.62E0));
#693=VERTEX_POINT('',#691);
#694=VERTEX_POINT('',#692);
#695=CARTESIAN_POINT('',(1.27E0,-3.8E0,-1.559986466962E0));
#696=CARTESIAN_POINT('',(1.27E0,-3.8E0,-9.800135330381E-1));
#697=VERTEX_POINT('',#695);
#698=VERTEX_POINT('',#696);
#699=CARTESIAN_POINT('',(1.27E0,-3.739983666261E0,-1.62E0));
#700=CARTESIAN_POINT('',(1.27E0,-3.739983666261E0,-9.2E-1));
#701=VERTEX_POINT('',#699);
#702=VERTEX_POINT('',#700);
#703=CARTESIAN_POINT('',(2.75E0,9.999871600191E-2,0.E0));
#704=CARTESIAN_POINT('',(-2.75E0,9.999871600191E-2,0.E0));
#705=VERTEX_POINT('',#703);
#706=VERTEX_POINT('',#704);
#707=CARTESIAN_POINT('',(2.650001237308E0,0.E0,0.E0));
#708=CARTESIAN_POINT('',(-2.650001237308E0,0.E0,0.E0));
#709=VERTEX_POINT('',#707);
#710=VERTEX_POINT('',#708);
#711=CARTESIAN_POINT('',(2.650001200969E0,4.8E0,0.E0));
#712=CARTESIAN_POINT('',(-2.650001200969E0,4.8E0,0.E0));
#713=VERTEX_POINT('',#711);
#714=VERTEX_POINT('',#712);
#715=CARTESIAN_POINT('',(2.75E0,4.700001246288E0,0.E0));
#716=CARTESIAN_POINT('',(-2.75E0,4.700001246288E0,0.E0));
#717=VERTEX_POINT('',#715);
#718=VERTEX_POINT('',#716);
#719=CARTESIAN_POINT('',(1.83E0,3.922755521618E0,0.E0));
#720=VERTEX_POINT('',#719);
#721=CARTESIAN_POINT('',(-1.83E0,3.922755521618E0,0.E0));
#722=VERTEX_POINT('',#721);
#723=CARTESIAN_POINT('',(1.960001187249E0,4.8E0,0.E0));
#724=CARTESIAN_POINT('',(-1.960001187249E0,4.8E0,0.E0));
#725=VERTEX_POINT('',#723);
#726=VERTEX_POINT('',#724);
#727=CARTESIAN_POINT('',(1.83E0,4.669998891498E0,0.E0));
#728=CARTESIAN_POINT('',(-1.83E0,4.669998891498E0,0.E0));
#729=VERTEX_POINT('',#727);
#730=VERTEX_POINT('',#728);
#731=CARTESIAN_POINT('',(1.07E0,1.016E-1,0.E0));
#732=CARTESIAN_POINT('',(-1.07E0,1.016E-1,0.E0));
#733=VERTEX_POINT('',#731);
#734=VERTEX_POINT('',#732);
#735=CARTESIAN_POINT('',(-3.649989198764E-1,1.E-1,0.E0));
#736=CARTESIAN_POINT('',(3.649989198764E-1,1.E-1,0.E0));
#737=VERTEX_POINT('',#735);
#738=VERTEX_POINT('',#736);
#739=CARTESIAN_POINT('',(1.020000134199E0,1.E-1,0.E0));
#740=CARTESIAN_POINT('',(-1.020000134199E0,1.E-1,0.E0));
#741=VERTEX_POINT('',#739);
#742=VERTEX_POINT('',#740);
#743=CARTESIAN_POINT('',(-3.633989246111E-1,1.016E-1,5.096484197746E-11));
#744=CARTESIAN_POINT('',(3.633989246111E-1,1.016E-1,-5.096487260321E-11));
#745=VERTEX_POINT('',#743);
#746=VERTEX_POINT('',#744);
#747=CARTESIAN_POINT('',(-1.021600134410E0,1.016E-1,-6.698079364916E-11));
#748=CARTESIAN_POINT('',(1.021600134410E0,1.016E-1,6.697730644793E-11));
#749=VERTEX_POINT('',#747);
#750=VERTEX_POINT('',#748);
#751=CARTESIAN_POINT('',(3.5E-1,-3.759993063352E0,0.E0));
#752=CARTESIAN_POINT('',(-3.5E-1,-3.759993063352E0,0.E0));
#753=VERTEX_POINT('',#751);
#754=VERTEX_POINT('',#752);
#755=CARTESIAN_POINT('',(2.999940544196E-1,-3.81E0,0.E0));
#756=CARTESIAN_POINT('',(-2.999940544196E-1,-3.81E0,0.E0));
#757=VERTEX_POINT('',#755);
#758=VERTEX_POINT('',#756);
#759=CARTESIAN_POINT('',(1.9E-1,3.08E0,0.E0));
#760=CARTESIAN_POINT('',(-1.9E-1,3.08E0,0.E0));
#761=VERTEX_POINT('',#759);
#762=VERTEX_POINT('',#760);
#763=CARTESIAN_POINT('',(0.E0,3.27E0,0.E0));
#764=VERTEX_POINT('',#763);
#765=CARTESIAN_POINT('',(1.9E-1,2.01E0,0.E0));
#766=CARTESIAN_POINT('',(-1.9E-1,2.01E0,0.E0));
#767=VERTEX_POINT('',#765);
#768=VERTEX_POINT('',#766);
#769=CARTESIAN_POINT('',(3.5E-1,1.016E-1,0.E0));
#770=CARTESIAN_POINT('',(-3.5E-1,1.016E-1,0.E0));
#771=VERTEX_POINT('',#769);
#772=VERTEX_POINT('',#770);
#773=CARTESIAN_POINT('',(0.E0,0.E0,0.E0));
#774=DIRECTION('',(0.E0,1.E0,0.E0));
#775=DIRECTION('',(1.E0,0.E0,0.E0));
#776=AXIS2_PLACEMENT_3D('',#773,#774,#775);
#777=PLANE('',#776);
#779=ORIENTED_EDGE('',*,*,#778,.T.);
#781=ORIENTED_EDGE('',*,*,#780,.T.);
#782=EDGE_LOOP('',(#779,#781));
#783=FACE_OUTER_BOUND('',#782,.F.);
#785=ORIENTED_EDGE('',*,*,#784,.F.);
#787=ORIENTED_EDGE('',*,*,#786,.F.);
#788=EDGE_LOOP('',(#785,#787));
#789=FACE_BOUND('',#788,.F.);
#791=ORIENTED_EDGE('',*,*,#790,.T.);
#793=ORIENTED_EDGE('',*,*,#792,.T.);
#794=EDGE_LOOP('',(#791,#793));
#795=FACE_BOUND('',#794,.F.);
#797=ORIENTED_EDGE('',*,*,#796,.T.);
#799=ORIENTED_EDGE('',*,*,#798,.T.);
#800=EDGE_LOOP('',(#797,#799));
#801=FACE_BOUND('',#800,.F.);
#803=ORIENTED_EDGE('',*,*,#802,.T.);
#805=ORIENTED_EDGE('',*,*,#804,.T.);
#806=EDGE_LOOP('',(#803,#805));
#807=FACE_BOUND('',#806,.F.);
#809=ORIENTED_EDGE('',*,*,#808,.T.);
#811=ORIENTED_EDGE('',*,*,#810,.T.);
#812=EDGE_LOOP('',(#809,#811));
#813=FACE_BOUND('',#812,.F.);
#814=ADVANCED_FACE('',(#783,#789,#795,#801,#807,#813),#777,.F.);
#815=CARTESIAN_POINT('',(0.E0,4.999936964453E-2,0.E0));
#816=DIRECTION('',(0.E0,1.E0,0.E0));
#817=DIRECTION('',(0.E0,0.E0,-1.E0));
#818=AXIS2_PLACEMENT_3D('',#815,#816,#817);
#819=CONICAL_SURFACE('',#818,2.700000630297E0,4.500001337594E1);
#821=ORIENTED_EDGE('',*,*,#820,.T.);
#823=ORIENTED_EDGE('',*,*,#822,.T.);
#824=ORIENTED_EDGE('',*,*,#778,.F.);
#826=ORIENTED_EDGE('',*,*,#825,.F.);
#827=EDGE_LOOP('',(#821,#823,#824,#826));
#828=FACE_OUTER_BOUND('',#827,.F.);
#829=ADVANCED_FACE('',(#828),#819,.T.);
#830=CARTESIAN_POINT('',(0.E0,-2.4E-1,0.E0));
#831=DIRECTION('',(0.E0,1.E0,0.E0));
#832=DIRECTION('',(1.E0,0.E0,0.E0));
#833=AXIS2_PLACEMENT_3D('',#830,#831,#832);
#834=CYLINDRICAL_SURFACE('',#833,2.75E0);
#835=ORIENTED_EDGE('',*,*,#820,.F.);
#837=ORIENTED_EDGE('',*,*,#836,.T.);
#839=ORIENTED_EDGE('',*,*,#838,.T.);
#841=ORIENTED_EDGE('',*,*,#840,.F.);
#842=EDGE_LOOP('',(#835,#837,#839,#841));
#843=FACE_OUTER_BOUND('',#842,.F.);
#844=ADVANCED_FACE('',(#843),#834,.T.);
#845=CARTESIAN_POINT('',(0.E0,-2.4E-1,0.E0));
#846=DIRECTION('',(0.E0,1.E0,0.E0));
#847=DIRECTION('',(1.E0,0.E0,0.E0));
#848=AXIS2_PLACEMENT_3D('',#845,#846,#847);
#849=CYLINDRICAL_SURFACE('',#848,2.75E0);
#851=ORIENTED_EDGE('',*,*,#850,.F.);
#852=ORIENTED_EDGE('',*,*,#840,.T.);
#854=ORIENTED_EDGE('',*,*,#853,.T.);
#855=ORIENTED_EDGE('',*,*,#836,.F.);
#856=EDGE_LOOP('',(#851,#852,#854,#855));
#857=FACE_OUTER_BOUND('',#856,.F.);
#858=ADVANCED_FACE('',(#857),#849,.T.);
#859=CARTESIAN_POINT('',(0.E0,4.999936964453E-2,0.E0));
#860=DIRECTION('',(0.E0,1.E0,0.E0));
#861=DIRECTION('',(0.E0,0.E0,-1.E0));
#862=AXIS2_PLACEMENT_3D('',#859,#860,#861);
#863=CONICAL_SURFACE('',#862,2.700000630297E0,4.500001337594E1);
#864=ORIENTED_EDGE('',*,*,#850,.T.);
#865=ORIENTED_EDGE('',*,*,#825,.T.);
#866=ORIENTED_EDGE('',*,*,#780,.F.);
#867=ORIENTED_EDGE('',*,*,#822,.F.);
#868=EDGE_LOOP('',(#864,#865,#866,#867));
#869=FACE_OUTER_BOUND('',#868,.F.);
#870=ADVANCED_FACE('',(#869),#863,.T.);
#871=CARTESIAN_POINT('',(0.E0,4.750000611856E0,0.E0));
#872=DIRECTION('',(0.E0,-1.E0,0.E0));
#873=DIRECTION('',(0.E0,0.E0,-1.E0));
#874=AXIS2_PLACEMENT_3D('',#871,#872,#873);
#875=CONICAL_SURFACE('',#874,2.700000611773E0,4.500001298310E1);
#877=ORIENTED_EDGE('',*,*,#876,.T.);
#879=ORIENTED_EDGE('',*,*,#878,.T.);
#880=ORIENTED_EDGE('',*,*,#853,.F.);
#882=ORIENTED_EDGE('',*,*,#881,.F.);
#883=EDGE_LOOP('',(#877,#879,#880,#882));
#884=FACE_OUTER_BOUND('',#883,.F.);
#885=ADVANCED_FACE('',(#884),#875,.T.);
#886=CARTESIAN_POINT('',(0.E0,4.8E0,0.E0));
#887=DIRECTION('',(0.E0,1.E0,0.E0));
#888=DIRECTION('',(1.E0,0.E0,0.E0));
#889=AXIS2_PLACEMENT_3D('',#886,#887,#888);
#890=PLANE('',#889);
#892=ORIENTED_EDGE('',*,*,#891,.F.);
#893=ORIENTED_EDGE('',*,*,#876,.F.);
#894=EDGE_LOOP('',(#892,#893));
#895=FACE_OUTER_BOUND('',#894,.F.);
#897=ORIENTED_EDGE('',*,*,#896,.F.);
#899=ORIENTED_EDGE('',*,*,#898,.F.);
#900=EDGE_LOOP('',(#897,#899));
#901=FACE_BOUND('',#900,.F.);
#902=ADVANCED_FACE('',(#895,#901),#890,.T.);
#903=CARTESIAN_POINT('',(-1.304390890595E-14,4.750000611856E0,0.E0));
#904=DIRECTION('',(0.E0,-1.E0,0.E0));
#905=DIRECTION('',(0.E0,0.E0,-1.E0));
#906=AXIS2_PLACEMENT_3D('',#903,#904,#905);
#907=CONICAL_SURFACE('',#906,2.700000611773E0,4.500001298310E1);
#908=ORIENTED_EDGE('',*,*,#891,.T.);
#909=ORIENTED_EDGE('',*,*,#881,.T.);
#910=ORIENTED_EDGE('',*,*,#838,.F.);
#911=ORIENTED_EDGE('',*,*,#878,.F.);
#912=EDGE_LOOP('',(#908,#909,#910,#911));
#913=FACE_OUTER_BOUND('',#912,.F.);
#914=ADVANCED_FACE('',(#913),#907,.T.);
#915=CARTESIAN_POINT('',(0.E0,4.734999447657E0,0.E0));
#916=DIRECTION('',(0.E0,1.E0,0.E0));
#917=DIRECTION('',(0.E0,0.E0,-1.E0));
#918=AXIS2_PLACEMENT_3D('',#915,#916,#917);
#919=CONICAL_SURFACE('',#918,1.895000595533E0,4.500001735315E1);
#920=ORIENTED_EDGE('',*,*,#896,.T.);
#922=ORIENTED_EDGE('',*,*,#921,.T.);
#924=ORIENTED_EDGE('',*,*,#923,.F.);
#926=ORIENTED_EDGE('',*,*,#925,.F.);
#927=EDGE_LOOP('',(#920,#922,#924,#926));
#928=FACE_OUTER_BOUND('',#927,.F.);
#929=ADVANCED_FACE('',(#928),#919,.F.);
#930=CARTESIAN_POINT('',(0.E0,4.734999447657E0,0.E0));
#931=DIRECTION('',(0.E0,1.E0,0.E0));
#932=DIRECTION('',(0.E0,0.E0,-1.E0));
#933=AXIS2_PLACEMENT_3D('',#930,#931,#932);
#934=CONICAL_SURFACE('',#933,1.895000595533E0,4.500001735315E1);
#935=ORIENTED_EDGE('',*,*,#898,.T.);
#936=ORIENTED_EDGE('',*,*,#925,.T.);
#938=ORIENTED_EDGE('',*,*,#937,.F.);
#939=ORIENTED_EDGE('',*,*,#921,.F.);
#940=EDGE_LOOP('',(#935,#936,#938,#939));
#941=FACE_OUTER_BOUND('',#940,.F.);
#942=ADVANCED_FACE('',(#941),#934,.F.);
#943=CARTESIAN_POINT('',(0.E0,1.8705E0,0.E0));
#944=DIRECTION('',(0.E0,1.E0,0.E0));
#945=DIRECTION('',(1.E0,0.E0,0.E0));
#946=AXIS2_PLACEMENT_3D('',#943,#944,#945);
#947=CYLINDRICAL_SURFACE('',#946,1.83E0);
#948=ORIENTED_EDGE('',*,*,#937,.T.);
#950=ORIENTED_EDGE('',*,*,#949,.F.);
#952=ORIENTED_EDGE('',*,*,#951,.T.);
#954=ORIENTED_EDGE('',*,*,#953,.T.);
#955=EDGE_LOOP('',(#948,#950,#952,#954));
#956=FACE_OUTER_BOUND('',#955,.F.);
#957=ADVANCED_FACE('',(#956),#947,.F.);
#958=CARTESIAN_POINT('',(0.E0,1.8705E0,0.E0));
#959=DIRECTION('',(0.E0,1.E0,0.E0));
#960=DIRECTION('',(1.E0,0.E0,0.E0));
#961=AXIS2_PLACEMENT_3D('',#958,#959,#960);
#962=CYLINDRICAL_SURFACE('',#961,1.83E0);
#963=ORIENTED_EDGE('',*,*,#923,.T.);
#964=ORIENTED_EDGE('',*,*,#953,.F.);
#966=ORIENTED_EDGE('',*,*,#965,.F.);
#967=ORIENTED_EDGE('',*,*,#949,.T.);
#968=EDGE_LOOP('',(#963,#964,#966,#967));
#969=FACE_OUTER_BOUND('',#968,.F.);
#970=ADVANCED_FACE('',(#969),#962,.F.);
#971=CARTESIAN_POINT('',(0.E0,3.751377760809E0,0.E0));
#972=DIRECTION('',(0.E0,1.E0,0.E0));
#973=DIRECTION('',(1.E0,0.E0,0.E0));
#974=AXIS2_PLACEMENT_3D('',#971,#972,#973);
#975=CONICAL_SURFACE('',#974,1.71E0,3.5E1);
#977=ORIENTED_EDGE('',*,*,#976,.T.);
#978=ORIENTED_EDGE('',*,*,#965,.T.);
#980=ORIENTED_EDGE('',*,*,#979,.F.);
#982=ORIENTED_EDGE('',*,*,#981,.F.);
#983=EDGE_LOOP('',(#977,#978,#980,#982));
#984=FACE_OUTER_BOUND('',#983,.F.);
#985=ADVANCED_FACE('',(#984),#975,.F.);
#986=CARTESIAN_POINT('',(0.E0,3.751377760809E0,0.E0));
#987=DIRECTION('',(0.E0,1.E0,0.E0));
#988=DIRECTION('',(1.E0,0.E0,0.E0));
#989=AXIS2_PLACEMENT_3D('',#986,#987,#988);
#990=CONICAL_SURFACE('',#989,1.71E0,3.5E1);
#991=ORIENTED_EDGE('',*,*,#976,.F.);
#993=ORIENTED_EDGE('',*,*,#992,.T.);
#994=ORIENTED_EDGE('',*,*,#979,.T.);
#995=ORIENTED_EDGE('',*,*,#951,.F.);
#996=EDGE_LOOP('',(#991,#993,#994,#995));
#997=FACE_OUTER_BOUND('',#996,.F.);
#998=ADVANCED_FACE('',(#997),#990,.F.);
#999=CARTESIAN_POINT('',(0.E0,1.8705E0,0.E0));
#1000=DIRECTION('',(0.E0,1.E0,0.E0));
#1001=DIRECTION('',(1.E0,0.E0,0.E0));
#1002=AXIS2_PLACEMENT_3D('',#999,#1000,#1001);
#1003=CYLINDRICAL_SURFACE('',#1002,1.59E0);
#1005=ORIENTED_EDGE('',*,*,#1004,.F.);
#1007=ORIENTED_EDGE('',*,*,#1006,.T.);
#1009=ORIENTED_EDGE('',*,*,#1008,.T.);
#1010=ORIENTED_EDGE('',*,*,#992,.F.);
#1011=EDGE_LOOP('',(#1005,#1007,#1009,#1010));
#1012=FACE_OUTER_BOUND('',#1011,.F.);
#1013=ADVANCED_FACE('',(#1012),#1003,.F.);
#1014=CARTESIAN_POINT('',(0.E0,1.8705E0,0.E0));
#1015=DIRECTION('',(0.E0,1.E0,0.E0));
#1016=DIRECTION('',(1.E0,0.E0,0.E0));
#1017=AXIS2_PLACEMENT_3D('',#1014,#1015,#1016);
#1018=CYLINDRICAL_SURFACE('',#1017,1.59E0);
#1019=ORIENTED_EDGE('',*,*,#1004,.T.);
#1020=ORIENTED_EDGE('',*,*,#981,.T.);
#1021=ORIENTED_EDGE('',*,*,#1008,.F.);
#1023=ORIENTED_EDGE('',*,*,#1022,.F.);
#1024=EDGE_LOOP('',(#1019,#1020,#1021,#1023));
#1025=FACE_OUTER_BOUND('',#1024,.F.);
#1026=ADVANCED_FACE('',(#1025),#1018,.F.);
#1027=CARTESIAN_POINT('',(0.E0,2.01E0,0.E0));
#1028=DIRECTION('',(0.E0,1.E0,0.E0));
#1029=DIRECTION('',(1.E0,0.E0,0.E0));
#1030=AXIS2_PLACEMENT_3D('',#1027,#1028,#1029);
#1031=PLANE('',#1030);
#1032=ORIENTED_EDGE('',*,*,#1022,.T.);
#1033=ORIENTED_EDGE('',*,*,#1006,.F.);
#1034=EDGE_LOOP('',(#1032,#1033));
#1035=FACE_OUTER_BOUND('',#1034,.F.);
#1037=ORIENTED_EDGE('',*,*,#1036,.T.);
#1039=ORIENTED_EDGE('',*,*,#1038,.T.);
#1040=EDGE_LOOP('',(#1037,#1039));
#1041=FACE_BOUND('',#1040,.F.);
#1042=ADVANCED_FACE('',(#1035,#1041),#1031,.T.);
#1043=CARTESIAN_POINT('',(0.E0,-4.164E0,0.E0));
#1044=DIRECTION('',(0.E0,1.E0,0.E0));
#1045=DIRECTION('',(1.E0,0.E0,0.E0));
#1046=AXIS2_PLACEMENT_3D('',#1043,#1044,#1045);
#1047=CYLINDRICAL_SURFACE('',#1046,1.9E-1);
#1048=ORIENTED_EDGE('',*,*,#1036,.F.);
#1050=ORIENTED_EDGE('',*,*,#1049,.T.);
#1052=ORIENTED_EDGE('',*,*,#1051,.T.);
#1054=ORIENTED_EDGE('',*,*,#1053,.F.);
#1055=EDGE_LOOP('',(#1048,#1050,#1052,#1054));
#1056=FACE_OUTER_BOUND('',#1055,.F.);
#1057=ADVANCED_FACE('',(#1056),#1047,.T.);
#1058=CARTESIAN_POINT('',(0.E0,-4.164E0,0.E0));
#1059=DIRECTION('',(0.E0,1.E0,0.E0));
#1060=DIRECTION('',(1.E0,0.E0,0.E0));
#1061=AXIS2_PLACEMENT_3D('',#1058,#1059,#1060);
#1062=CYLINDRICAL_SURFACE('',#1061,1.9E-1);
#1063=ORIENTED_EDGE('',*,*,#1038,.F.);
#1064=ORIENTED_EDGE('',*,*,#1053,.T.);
#1066=ORIENTED_EDGE('',*,*,#1065,.T.);
#1067=ORIENTED_EDGE('',*,*,#1049,.F.);
#1068=EDGE_LOOP('',(#1063,#1064,#1066,#1067));
#1069=FACE_OUTER_BOUND('',#1068,.F.);
#1070=ADVANCED_FACE('',(#1069),#1062,.T.);
#1071=CARTESIAN_POINT('',(0.E0,3.08E0,0.E0));
#1072=DIRECTION('',(0.E0,-1.E0,0.E0));
#1073=DIRECTION('',(-1.E0,0.E0,0.E0));
#1074=AXIS2_PLACEMENT_3D('',#1071,#1072,#1073);
#1075=SPHERICAL_SURFACE('',#1074,1.9E-1);
#1076=ORIENTED_EDGE('',*,*,#1065,.F.);
#1078=ORIENTED_EDGE('',*,*,#1077,.T.);
#1080=ORIENTED_EDGE('',*,*,#1079,.F.);
#1081=EDGE_LOOP('',(#1076,#1078,#1080));
#1082=FACE_OUTER_BOUND('',#1081,.F.);
#1083=ADVANCED_FACE('',(#1082),#1075,.T.);
#1084=CARTESIAN_POINT('',(0.E0,3.08E0,0.E0));
#1085=DIRECTION('',(0.E0,-1.E0,0.E0));
#1086=DIRECTION('',(-1.E0,0.E0,0.E0));
#1087=AXIS2_PLACEMENT_3D('',#1084,#1085,#1086);
#1088=SPHERICAL_SURFACE('',#1087,1.9E-1);
#1089=ORIENTED_EDGE('',*,*,#1051,.F.);
#1090=ORIENTED_EDGE('',*,*,#1079,.T.);
#1091=ORIENTED_EDGE('',*,*,#1077,.F.);
#1092=EDGE_LOOP('',(#1089,#1090,#1091));
#1093=FACE_OUTER_BOUND('',#1092,.F.);
#1094=ADVANCED_FACE('',(#1093),#1088,.T.);
#1095=CARTESIAN_POINT('',(0.E0,5.08E-2,0.E0));
#1096=DIRECTION('',(0.E0,-1.E0,0.E0));
#1097=DIRECTION('',(-1.E0,0.E0,0.E0));
#1098=AXIS2_PLACEMENT_3D('',#1095,#1096,#1097);
#1099=CONICAL_SURFACE('',#1098,1.1208E0,4.5E1);
#1101=ORIENTED_EDGE('',*,*,#1100,.F.);
#1103=ORIENTED_EDGE('',*,*,#1102,.F.);
#1104=ORIENTED_EDGE('',*,*,#784,.T.);
#1106=ORIENTED_EDGE('',*,*,#1105,.T.);
#1107=EDGE_LOOP('',(#1101,#1103,#1104,#1106));
#1108=FACE_OUTER_BOUND('',#1107,.F.);
#1109=ADVANCED_FACE('',(#1108),#1099,.F.);
#1110=CARTESIAN_POINT('',(0.E0,1.016E-1,0.E0));
#1111=DIRECTION('',(0.E0,-1.E0,0.E0));
#1112=DIRECTION('',(-1.E0,0.E0,0.E0));
#1113=AXIS2_PLACEMENT_3D('',#1110,#1111,#1112);
#1114=PLANE('',#1113);
#1115=ORIENTED_EDGE('',*,*,#1100,.T.);
#1117=ORIENTED_EDGE('',*,*,#1116,.T.);
#1118=EDGE_LOOP('',(#1115,#1117));
#1119=FACE_OUTER_BOUND('',#1118,.F.);
#1121=ORIENTED_EDGE('',*,*,#1120,.F.);
#1123=ORIENTED_EDGE('',*,*,#1122,.F.);
#1124=EDGE_LOOP('',(#1121,#1123));
#1125=FACE_BOUND('',#1124,.F.);
#1126=ADVANCED_FACE('',(#1119,#1125),#1114,.T.);
#1127=CARTESIAN_POINT('',(0.E0,5.08E-2,0.E0));
#1128=DIRECTION('',(0.E0,-1.E0,0.E0));
#1129=DIRECTION('',(-1.E0,0.E0,0.E0));
#1130=AXIS2_PLACEMENT_3D('',#1127,#1128,#1129);
#1131=CONICAL_SURFACE('',#1130,1.1208E0,4.5E1);
#1132=ORIENTED_EDGE('',*,*,#1116,.F.);
#1133=ORIENTED_EDGE('',*,*,#1105,.F.);
#1134=ORIENTED_EDGE('',*,*,#786,.T.);
#1135=ORIENTED_EDGE('',*,*,#1102,.T.);
#1136=EDGE_LOOP('',(#1132,#1133,#1134,#1135));
#1137=FACE_OUTER_BOUND('',#1136,.F.);
#1138=ADVANCED_FACE('',(#1137),#1131,.F.);
#1139=CARTESIAN_POINT('',(0.E0,1.007999664472E-1,0.E0));
#1140=DIRECTION('',(0.E0,1.E0,0.E0));
#1141=DIRECTION('',(0.E0,0.E0,-1.E0));
#1142=AXIS2_PLACEMENT_3D('',#1139,#1140,#1141);
#1143=CONICAL_SURFACE('',#1142,1.020800100752E0,4.500000376914E1);
#1144=ORIENTED_EDGE('',*,*,#1120,.T.);
#1146=ORIENTED_EDGE('',*,*,#1145,.T.);
#1148=ORIENTED_EDGE('',*,*,#1147,.F.);
#1150=ORIENTED_EDGE('',*,*,#1149,.F.);
#1151=EDGE_LOOP('',(#1144,#1146,#1148,#1150));
#1152=FACE_OUTER_BOUND('',#1151,.F.);
#1153=ADVANCED_FACE('',(#1152),#1143,.T.);
#1154=CARTESIAN_POINT('',(0.E0,1.007999664472E-1,0.E0));
#1155=DIRECTION('',(0.E0,1.E0,0.E0));
#1156=DIRECTION('',(0.E0,0.E0,-1.E0));
#1157=AXIS2_PLACEMENT_3D('',#1154,#1155,#1156);
#1158=CONICAL_SURFACE('',#1157,1.020800100752E0,4.500000376914E1);
#1159=ORIENTED_EDGE('',*,*,#1122,.T.);
#1160=ORIENTED_EDGE('',*,*,#1149,.T.);
#1162=ORIENTED_EDGE('',*,*,#1161,.F.);
#1163=ORIENTED_EDGE('',*,*,#1145,.F.);
#1164=EDGE_LOOP('',(#1159,#1160,#1162,#1163));
#1165=FACE_OUTER_BOUND('',#1164,.F.);
#1166=ADVANCED_FACE('',(#1165),#1158,.T.);
#1167=CARTESIAN_POINT('',(0.E0,1.E-1,0.E0));
#1168=DIRECTION('',(0.E0,1.E0,0.E0));
#1169=DIRECTION('',(1.E0,0.E0,0.E0));
#1170=AXIS2_PLACEMENT_3D('',#1167,#1168,#1169);
#1171=PLANE('',#1170);
#1172=ORIENTED_EDGE('',*,*,#1161,.T.);
#1173=ORIENTED_EDGE('',*,*,#1147,.T.);
#1174=EDGE_LOOP('',(#1172,#1173));
#1175=FACE_OUTER_BOUND('',#1174,.F.);
#1177=ORIENTED_EDGE('',*,*,#1176,.F.);
#1179=ORIENTED_EDGE('',*,*,#1178,.F.);
#1180=EDGE_LOOP('',(#1177,#1179));
#1181=FACE_BOUND('',#1180,.F.);
#1182=ADVANCED_FACE('',(#1175,#1181),#1171,.F.);
#1183=CARTESIAN_POINT('',(0.E0,1.007997300124E-1,0.E0));
#1184=DIRECTION('',(0.E0,-1.E0,0.E0));
#1185=DIRECTION('',(0.E0,0.E0,-1.E0));
#1186=AXIS2_PLACEMENT_3D('',#1183,#1184,#1185);
#1187=CONICAL_SURFACE('',#1186,3.641991922305E-1,4.499991522381E1);
#1189=ORIENTED_EDGE('',*,*,#1188,.T.);
#1191=ORIENTED_EDGE('',*,*,#1190,.F.);
#1192=ORIENTED_EDGE('',*,*,#1176,.T.);
#1194=ORIENTED_EDGE('',*,*,#1193,.T.);
#1195=EDGE_LOOP('',(#1189,#1191,#1192,#1194));
#1196=FACE_OUTER_BOUND('',#1195,.F.);
#1197=ADVANCED_FACE('',(#1196),#1187,.F.);
#1198=CARTESIAN_POINT('',(0.E0,1.016E-1,0.E0));
#1199=DIRECTION('',(0.E0,-1.E0,0.E0));
#1200=DIRECTION('',(-1.E0,0.E0,0.E0));
#1201=AXIS2_PLACEMENT_3D('',#1198,#1199,#1200);
#1202=PLANE('',#1201);
#1204=ORIENTED_EDGE('',*,*,#1203,.F.);
#1205=ORIENTED_EDGE('',*,*,#1188,.F.);
#1206=EDGE_LOOP('',(#1204,#1205));
#1207=FACE_OUTER_BOUND('',#1206,.F.);
#1209=ORIENTED_EDGE('',*,*,#1208,.F.);
#1211=ORIENTED_EDGE('',*,*,#1210,.F.);
#1212=EDGE_LOOP('',(#1209,#1211));
#1213=FACE_BOUND('',#1212,.F.);
#1214=ADVANCED_FACE('',(#1207,#1213),#1202,.T.);
#1215=CARTESIAN_POINT('',(0.E0,1.007997300124E-1,0.E0));
#1216=DIRECTION('',(0.E0,-1.E0,0.E0));
#1217=DIRECTION('',(0.E0,0.E0,-1.E0));
#1218=AXIS2_PLACEMENT_3D('',#1215,#1216,#1217);
#1219=CONICAL_SURFACE('',#1218,3.641991922305E-1,4.499991522381E1);
#1220=ORIENTED_EDGE('',*,*,#1203,.T.);
#1221=ORIENTED_EDGE('',*,*,#1193,.F.);
#1222=ORIENTED_EDGE('',*,*,#1178,.T.);
#1223=ORIENTED_EDGE('',*,*,#1190,.T.);
#1224=EDGE_LOOP('',(#1220,#1221,#1222,#1223));
#1225=FACE_OUTER_BOUND('',#1224,.F.);
#1226=ADVANCED_FACE('',(#1225),#1219,.F.);
#1227=CARTESIAN_POINT('',(0.E0,-4.164E0,0.E0));
#1228=DIRECTION('',(0.E0,1.E0,0.E0));
#1229=DIRECTION('',(1.E0,0.E0,0.E0));
#1230=AXIS2_PLACEMENT_3D('',#1227,#1228,#1229);
#1231=CYLINDRICAL_SURFACE('',#1230,3.5E-1);
#1232=ORIENTED_EDGE('',*,*,#1208,.T.);
#1234=ORIENTED_EDGE('',*,*,#1233,.F.);
#1236=ORIENTED_EDGE('',*,*,#1235,.F.);
#1238=ORIENTED_EDGE('',*,*,#1237,.T.);
#1239=EDGE_LOOP('',(#1232,#1234,#1236,#1238));
#1240=FACE_OUTER_BOUND('',#1239,.F.);
#1241=ADVANCED_FACE('',(#1240),#1231,.T.);
#1242=CARTESIAN_POINT('',(0.E0,-4.164E0,0.E0));
#1243=DIRECTION('',(0.E0,1.E0,0.E0));
#1244=DIRECTION('',(1.E0,0.E0,0.E0));
#1245=AXIS2_PLACEMENT_3D('',#1242,#1243,#1244);
#1246=CYLINDRICAL_SURFACE('',#1245,3.5E-1);
#1247=ORIENTED_EDGE('',*,*,#1210,.T.);
#1248=ORIENTED_EDGE('',*,*,#1237,.F.);
#1250=ORIENTED_EDGE('',*,*,#1249,.F.);
#1251=ORIENTED_EDGE('',*,*,#1233,.T.);
#1252=EDGE_LOOP('',(#1247,#1248,#1250,#1251));
#1253=FACE_OUTER_BOUND('',#1252,.F.);
#1254=ADVANCED_FACE('',(#1253),#1246,.T.);
#1255=CARTESIAN_POINT('',(0.E0,-3.784996507777E0,0.E0));
#1256=DIRECTION('',(0.E0,1.E0,0.E0));
#1257=DIRECTION('',(0.E0,0.E0,-1.E0));
#1258=AXIS2_PLACEMENT_3D('',#1255,#1256,#1257);
#1259=CONICAL_SURFACE('',#1258,3.249970511085E-1,4.499943223326E1);
#1260=ORIENTED_EDGE('',*,*,#1249,.T.);
#1262=ORIENTED_EDGE('',*,*,#1261,.T.);
#1264=ORIENTED_EDGE('',*,*,#1263,.F.);
#1266=ORIENTED_EDGE('',*,*,#1265,.F.);
#1267=EDGE_LOOP('',(#1260,#1262,#1264,#1266));
#1268=FACE_OUTER_BOUND('',#1267,.F.);
#1269=ADVANCED_FACE('',(#1268),#1259,.T.);
#1270=CARTESIAN_POINT('',(0.E0,-3.784996507777E0,0.E0));
#1271=DIRECTION('',(0.E0,1.E0,0.E0));
#1272=DIRECTION('',(0.E0,0.E0,-1.E0));
#1273=AXIS2_PLACEMENT_3D('',#1270,#1271,#1272);
#1274=CONICAL_SURFACE('',#1273,3.249970511085E-1,4.499943223326E1);
#1275=ORIENTED_EDGE('',*,*,#1235,.T.);
#1276=ORIENTED_EDGE('',*,*,#1265,.T.);
#1278=ORIENTED_EDGE('',*,*,#1277,.F.);
#1279=ORIENTED_EDGE('',*,*,#1261,.F.);
#1280=EDGE_LOOP('',(#1275,#1276,#1278,#1279));
#1281=FACE_OUTER_BOUND('',#1280,.F.);
#1282=ADVANCED_FACE('',(#1281),#1274,.T.);
#1283=CARTESIAN_POINT('',(0.E0,-3.81E0,0.E0));
#1284=DIRECTION('',(0.E0,1.E0,0.E0));
#1285=DIRECTION('',(1.E0,0.E0,0.E0));
#1286=AXIS2_PLACEMENT_3D('',#1283,#1284,#1285);
#1287=PLANE('',#1286);
#1288=ORIENTED_EDGE('',*,*,#1277,.T.);
#1289=ORIENTED_EDGE('',*,*,#1263,.T.);
#1290=EDGE_LOOP('',(#1288,#1289));
#1291=FACE_OUTER_BOUND('',#1290,.F.);
#1292=ADVANCED_FACE('',(#1291),#1287,.F.);
#1293=CARTESIAN_POINT('',(-1.27E0,0.E0,1.27E0));
#1294=DIRECTION('',(0.E0,-1.E0,0.E0));
#1295=DIRECTION('',(1.E0,0.E0,0.E0));
#1296=AXIS2_PLACEMENT_3D('',#1293,#1294,#1295);
#1297=CYLINDRICAL_SURFACE('',#1296,5.5E-1);
#1298=ORIENTED_EDGE('',*,*,#790,.F.);
#1300=ORIENTED_EDGE('',*,*,#1299,.T.);
#1302=ORIENTED_EDGE('',*,*,#1301,.T.);
#1304=ORIENTED_EDGE('',*,*,#1303,.F.);
#1305=EDGE_LOOP('',(#1298,#1300,#1302,#1304));
#1306=FACE_OUTER_BOUND('',#1305,.F.);
#1307=ADVANCED_FACE('',(#1306),#1297,.T.);
#1308=CARTESIAN_POINT('',(-1.27E0,0.E0,1.27E0));
#1309=DIRECTION('',(0.E0,-1.E0,0.E0));
#1310=DIRECTION('',(1.E0,0.E0,0.E0));
#1311=AXIS2_PLACEMENT_3D('',#1308,#1309,#1310);
#1312=CYLINDRICAL_SURFACE('',#1311,5.5E-1);
#1313=ORIENTED_EDGE('',*,*,#792,.F.);
#1314=ORIENTED_EDGE('',*,*,#1303,.T.);
#1316=ORIENTED_EDGE('',*,*,#1315,.T.);
#1317=ORIENTED_EDGE('',*,*,#1299,.F.);
#1318=EDGE_LOOP('',(#1313,#1314,#1316,#1317));
#1319=FACE_OUTER_BOUND('',#1318,.F.);
#1320=ADVANCED_FACE('',(#1319),#1312,.T.);
#1321=CARTESIAN_POINT('',(0.E0,-2.E-1,0.E0));
#1322=DIRECTION('',(0.E0,-1.E0,0.E0));
#1323=DIRECTION('',(1.E0,0.E0,0.E0));
#1324=AXIS2_PLACEMENT_3D('',#1321,#1322,#1323);
#1325=PLANE('',#1324);
#1326=ORIENTED_EDGE('',*,*,#1301,.F.);
#1327=ORIENTED_EDGE('',*,*,#1315,.F.);
#1328=EDGE_LOOP('',(#1326,#1327));
#1329=FACE_OUTER_BOUND('',#1328,.F.);
#1331=ORIENTED_EDGE('',*,*,#1330,.T.);
#1333=ORIENTED_EDGE('',*,*,#1332,.T.);
#1334=EDGE_LOOP('',(#1331,#1333));
#1335=FACE_BOUND('',#1334,.F.);
#1336=ADVANCED_FACE('',(#1329,#1335),#1325,.T.);
#1337=CARTESIAN_POINT('',(-1.27E0,-2.E-1,1.27E0));
#1338=DIRECTION('',(0.E0,-1.E0,0.E0));
#1339=DIRECTION('',(0.E0,0.E0,-1.E0));
#1340=AXIS2_PLACEMENT_3D('',#1337,#1338,#1339);
#1341=CYLINDRICAL_SURFACE('',#1340,3.5E-1);
#1343=ORIENTED_EDGE('',*,*,#1342,.T.);
#1345=ORIENTED_EDGE('',*,*,#1344,.F.);
#1346=ORIENTED_EDGE('',*,*,#1330,.F.);
#1348=ORIENTED_EDGE('',*,*,#1347,.T.);
#1349=EDGE_LOOP('',(#1343,#1345,#1346,#1348));
#1350=FACE_OUTER_BOUND('',#1349,.F.);
#1351=ADVANCED_FACE('',(#1350),#1341,.T.);
#1352=CARTESIAN_POINT('',(-1.27E0,-3.769991765495E0,1.27E0));
#1353=DIRECTION('',(0.E0,1.E0,0.E0));
#1354=DIRECTION('',(0.E0,0.E0,-1.E0));
#1355=AXIS2_PLACEMENT_3D('',#1352,#1353,#1354);
#1356=CONICAL_SURFACE('',#1355,3.199933011131E-1,4.499866309645E1);
#1358=ORIENTED_EDGE('',*,*,#1357,.T.);
#1360=ORIENTED_EDGE('',*,*,#1359,.T.);
#1361=ORIENTED_EDGE('',*,*,#1342,.F.);
#1363=ORIENTED_EDGE('',*,*,#1362,.F.);
#1364=EDGE_LOOP('',(#1358,#1360,#1361,#1363));
#1365=FACE_OUTER_BOUND('',#1364,.F.);
#1366=ADVANCED_FACE('',(#1365),#1356,.T.);
#1367=CARTESIAN_POINT('',(0.E0,-3.8E0,0.E0));
#1368=DIRECTION('',(0.E0,-1.E0,0.E0));
#1369=DIRECTION('',(0.E0,0.E0,-1.E0));
#1370=AXIS2_PLACEMENT_3D('',#1367,#1368,#1369);
#1371=PLANE('',#1370);
#1372=ORIENTED_EDGE('',*,*,#1357,.F.);
#1374=ORIENTED_EDGE('',*,*,#1373,.F.);
#1375=EDGE_LOOP('',(#1372,#1374));
#1376=FACE_OUTER_BOUND('',#1375,.F.);
#1377=ADVANCED_FACE('',(#1376),#1371,.T.);
#1378=CARTESIAN_POINT('',(-1.27E0,-3.769991765495E0,1.27E0));
#1379=DIRECTION('',(0.E0,1.E0,0.E0));
#1380=DIRECTION('',(0.E0,0.E0,-1.E0));
#1381=AXIS2_PLACEMENT_3D('',#1378,#1379,#1380);
#1382=CONICAL_SURFACE('',#1381,3.199933011131E-1,4.499866309645E1);
#1383=ORIENTED_EDGE('',*,*,#1373,.T.);
#1384=ORIENTED_EDGE('',*,*,#1362,.T.);
#1386=ORIENTED_EDGE('',*,*,#1385,.F.);
#1387=ORIENTED_EDGE('',*,*,#1359,.F.);
#1388=EDGE_LOOP('',(#1383,#1384,#1386,#1387));
#1389=FACE_OUTER_BOUND('',#1388,.F.);
#1390=ADVANCED_FACE('',(#1389),#1382,.T.);
#1391=CARTESIAN_POINT('',(-1.27E0,-2.E-1,1.27E0));
#1392=DIRECTION('',(0.E0,-1.E0,0.E0));
#1393=DIRECTION('',(0.E0,0.E0,-1.E0));
#1394=AXIS2_PLACEMENT_3D('',#1391,#1392,#1393);
#1395=CYLINDRICAL_SURFACE('',#1394,3.5E-1);
#1396=ORIENTED_EDGE('',*,*,#1385,.T.);
#1397=ORIENTED_EDGE('',*,*,#1347,.F.);
#1398=ORIENTED_EDGE('',*,*,#1332,.F.);
#1399=ORIENTED_EDGE('',*,*,#1344,.T.);
#1400=EDGE_LOOP('',(#1396,#1397,#1398,#1399));
#1401=FACE_OUTER_BOUND('',#1400,.F.);
#1402=ADVANCED_FACE('',(#1401),#1395,.T.);
#1403=CARTESIAN_POINT('',(1.27E0,0.E0,1.27E0));
#1404=DIRECTION('',(0.E0,-1.E0,0.E0));
#1405=DIRECTION('',(1.E0,0.E0,0.E0));
#1406=AXIS2_PLACEMENT_3D('',#1403,#1404,#1405);
#1407=CYLINDRICAL_SURFACE('',#1406,5.5E-1);
#1408=ORIENTED_EDGE('',*,*,#796,.F.);
#1410=ORIENTED_EDGE('',*,*,#1409,.T.);
#1412=ORIENTED_EDGE('',*,*,#1411,.T.);
#1414=ORIENTED_EDGE('',*,*,#1413,.F.);
#1415=EDGE_LOOP('',(#1408,#1410,#1412,#1414));
#1416=FACE_OUTER_BOUND('',#1415,.F.);
#1417=ADVANCED_FACE('',(#1416),#1407,.T.);
#1418=CARTESIAN_POINT('',(1.27E0,0.E0,1.27E0));
#1419=DIRECTION('',(0.E0,-1.E0,0.E0));
#1420=DIRECTION('',(1.E0,0.E0,0.E0));
#1421=AXIS2_PLACEMENT_3D('',#1418,#1419,#1420);
#1422=CYLINDRICAL_SURFACE('',#1421,5.5E-1);
#1423=ORIENTED_EDGE('',*,*,#798,.F.);
#1424=ORIENTED_EDGE('',*,*,#1413,.T.);
#1426=ORIENTED_EDGE('',*,*,#1425,.T.);
#1427=ORIENTED_EDGE('',*,*,#1409,.F.);
#1428=EDGE_LOOP('',(#1423,#1424,#1426,#1427));
#1429=FACE_OUTER_BOUND('',#1428,.F.);
#1430=ADVANCED_FACE('',(#1429),#1422,.T.);
#1431=CARTESIAN_POINT('',(0.E0,-2.E-1,0.E0));
#1432=DIRECTION('',(0.E0,-1.E0,0.E0));
#1433=DIRECTION('',(1.E0,0.E0,0.E0));
#1434=AXIS2_PLACEMENT_3D('',#1431,#1432,#1433);
#1435=PLANE('',#1434);
#1436=ORIENTED_EDGE('',*,*,#1411,.F.);
#1437=ORIENTED_EDGE('',*,*,#1425,.F.);
#1438=EDGE_LOOP('',(#1436,#1437));
#1439=FACE_OUTER_BOUND('',#1438,.F.);
#1441=ORIENTED_EDGE('',*,*,#1440,.T.);
#1443=ORIENTED_EDGE('',*,*,#1442,.T.);
#1444=EDGE_LOOP('',(#1441,#1443));
#1445=FACE_BOUND('',#1444,.F.);
#1446=ADVANCED_FACE('',(#1439,#1445),#1435,.T.);
#1447=CARTESIAN_POINT('',(1.27E0,-2.E-1,1.27E0));
#1448=DIRECTION('',(0.E0,-1.E0,0.E0));
#1449=DIRECTION('',(0.E0,0.E0,-1.E0));
#1450=AXIS2_PLACEMENT_3D('',#1447,#1448,#1449);
#1451=CYLINDRICAL_SURFACE('',#1450,3.5E-1);
#1453=ORIENTED_EDGE('',*,*,#1452,.T.);
#1455=ORIENTED_EDGE('',*,*,#1454,.F.);
#1456=ORIENTED_EDGE('',*,*,#1440,.F.);
#1458=ORIENTED_EDGE('',*,*,#1457,.T.);
#1459=EDGE_LOOP('',(#1453,#1455,#1456,#1458));
#1460=FACE_OUTER_BOUND('',#1459,.F.);
#1461=ADVANCED_FACE('',(#1460),#1451,.T.);
#1462=CARTESIAN_POINT('',(1.27E0,-3.769991765495E0,1.27E0));
#1463=DIRECTION('',(0.E0,1.E0,0.E0));
#1464=DIRECTION('',(0.E0,0.E0,-1.E0));
#1465=AXIS2_PLACEMENT_3D('',#1462,#1463,#1464);
#1466=CONICAL_SURFACE('',#1465,3.199933011131E-1,4.499866309645E1);
#1468=ORIENTED_EDGE('',*,*,#1467,.T.);
#1470=ORIENTED_EDGE('',*,*,#1469,.T.);
#1471=ORIENTED_EDGE('',*,*,#1452,.F.);
#1473=ORIENTED_EDGE('',*,*,#1472,.F.);
#1474=EDGE_LOOP('',(#1468,#1470,#1471,#1473));
#1475=FACE_OUTER_BOUND('',#1474,.F.);
#1476=ADVANCED_FACE('',(#1475),#1466,.T.);
#1477=CARTESIAN_POINT('',(0.E0,-3.8E0,0.E0));
#1478=DIRECTION('',(0.E0,-1.E0,0.E0));
#1479=DIRECTION('',(0.E0,0.E0,-1.E0));
#1480=AXIS2_PLACEMENT_3D('',#1477,#1478,#1479);
#1481=PLANE('',#1480);
#1482=ORIENTED_EDGE('',*,*,#1467,.F.);
#1484=ORIENTED_EDGE('',*,*,#1483,.F.);
#1485=EDGE_LOOP('',(#1482,#1484));
#1486=FACE_OUTER_BOUND('',#1485,.F.);
#1487=ADVANCED_FACE('',(#1486),#1481,.T.);
#1488=CARTESIAN_POINT('',(1.27E0,-3.769991765495E0,1.27E0));
#1489=DIRECTION('',(0.E0,1.E0,0.E0));
#1490=DIRECTION('',(0.E0,0.E0,-1.E0));
#1491=AXIS2_PLACEMENT_3D('',#1488,#1489,#1490);
#1492=CONICAL_SURFACE('',#1491,3.199933011131E-1,4.499866309645E1);
#1493=ORIENTED_EDGE('',*,*,#1483,.T.);
#1494=ORIENTED_EDGE('',*,*,#1472,.T.);
#1496=ORIENTED_EDGE('',*,*,#1495,.F.);
#1497=ORIENTED_EDGE('',*,*,#1469,.F.);
#1498=EDGE_LOOP('',(#1493,#1494,#1496,#1497));
#1499=FACE_OUTER_BOUND('',#1498,.F.);
#1500=ADVANCED_FACE('',(#1499),#1492,.T.);
#1501=CARTESIAN_POINT('',(1.27E0,-2.E-1,1.27E0));
#1502=DIRECTION('',(0.E0,-1.E0,0.E0));
#1503=DIRECTION('',(0.E0,0.E0,-1.E0));
#1504=AXIS2_PLACEMENT_3D('',#1501,#1502,#1503);
#1505=CYLINDRICAL_SURFACE('',#1504,3.5E-1);
#1506=ORIENTED_EDGE('',*,*,#1495,.T.);
#1507=ORIENTED_EDGE('',*,*,#1457,.F.);
#1508=ORIENTED_EDGE('',*,*,#1442,.F.);
#1509=ORIENTED_EDGE('',*,*,#1454,.T.);
#1510=EDGE_LOOP('',(#1506,#1507,#1508,#1509));
#1511=FACE_OUTER_BOUND('',#1510,.F.);
#1512=ADVANCED_FACE('',(#1511),#1505,.T.);
#1513=CARTESIAN_POINT('',(1.27E0,0.E0,-1.27E0));
#1514=DIRECTION('',(0.E0,-1.E0,0.E0));
#1515=DIRECTION('',(1.E0,0.E0,0.E0));
#1516=AXIS2_PLACEMENT_3D('',#1513,#1514,#1515);
#1517=CYLINDRICAL_SURFACE('',#1516,5.5E-1);
#1518=ORIENTED_EDGE('',*,*,#802,.F.);
#1520=ORIENTED_EDGE('',*,*,#1519,.T.);
#1522=ORIENTED_EDGE('',*,*,#1521,.T.);
#1524=ORIENTED_EDGE('',*,*,#1523,.F.);
#1525=EDGE_LOOP('',(#1518,#1520,#1522,#1524));
#1526=FACE_OUTER_BOUND('',#1525,.F.);
#1527=ADVANCED_FACE('',(#1526),#1517,.T.);
#1528=CARTESIAN_POINT('',(1.27E0,0.E0,-1.27E0));
#1529=DIRECTION('',(0.E0,-1.E0,0.E0));
#1530=DIRECTION('',(1.E0,0.E0,0.E0));
#1531=AXIS2_PLACEMENT_3D('',#1528,#1529,#1530);
#1532=CYLINDRICAL_SURFACE('',#1531,5.5E-1);
#1533=ORIENTED_EDGE('',*,*,#804,.F.);
#1534=ORIENTED_EDGE('',*,*,#1523,.T.);
#1536=ORIENTED_EDGE('',*,*,#1535,.T.);
#1537=ORIENTED_EDGE('',*,*,#1519,.F.);
#1538=EDGE_LOOP('',(#1533,#1534,#1536,#1537));
#1539=FACE_OUTER_BOUND('',#1538,.F.);
#1540=ADVANCED_FACE('',(#1539),#1532,.T.);
#1541=CARTESIAN_POINT('',(0.E0,-2.E-1,0.E0));
#1542=DIRECTION('',(0.E0,-1.E0,0.E0));
#1543=DIRECTION('',(1.E0,0.E0,0.E0));
#1544=AXIS2_PLACEMENT_3D('',#1541,#1542,#1543);
#1545=PLANE('',#1544);
#1546=ORIENTED_EDGE('',*,*,#1521,.F.);
#1547=ORIENTED_EDGE('',*,*,#1535,.F.);
#1548=EDGE_LOOP('',(#1546,#1547));
#1549=FACE_OUTER_BOUND('',#1548,.F.);
#1551=ORIENTED_EDGE('',*,*,#1550,.T.);
#1553=ORIENTED_EDGE('',*,*,#1552,.T.);
#1554=EDGE_LOOP('',(#1551,#1553));
#1555=FACE_BOUND('',#1554,.F.);
#1556=ADVANCED_FACE('',(#1549,#1555),#1545,.T.);
#1557=CARTESIAN_POINT('',(1.27E0,-2.E-1,-1.27E0));
#1558=DIRECTION('',(0.E0,-1.E0,0.E0));
#1559=DIRECTION('',(0.E0,0.E0,-1.E0));
#1560=AXIS2_PLACEMENT_3D('',#1557,#1558,#1559);
#1561=CYLINDRICAL_SURFACE('',#1560,3.5E-1);
#1563=ORIENTED_EDGE('',*,*,#1562,.T.);
#1565=ORIENTED_EDGE('',*,*,#1564,.F.);
#1566=ORIENTED_EDGE('',*,*,#1550,.F.);
#1568=ORIENTED_EDGE('',*,*,#1567,.T.);
#1569=EDGE_LOOP('',(#1563,#1565,#1566,#1568));
#1570=FACE_OUTER_BOUND('',#1569,.F.);
#1571=ADVANCED_FACE('',(#1570),#1561,.T.);
#1572=CARTESIAN_POINT('',(1.27E0,-3.769991765495E0,-1.27E0));
#1573=DIRECTION('',(0.E0,1.E0,0.E0));
#1574=DIRECTION('',(0.E0,0.E0,-1.E0));
#1575=AXIS2_PLACEMENT_3D('',#1572,#1573,#1574);
#1576=CONICAL_SURFACE('',#1575,3.199933011131E-1,4.499866309645E1);
#1578=ORIENTED_EDGE('',*,*,#1577,.T.);
#1580=ORIENTED_EDGE('',*,*,#1579,.T.);
#1581=ORIENTED_EDGE('',*,*,#1562,.F.);
#1583=ORIENTED_EDGE('',*,*,#1582,.F.);
#1584=EDGE_LOOP('',(#1578,#1580,#1581,#1583));
#1585=FACE_OUTER_BOUND('',#1584,.F.);
#1586=ADVANCED_FACE('',(#1585),#1576,.T.);
#1587=CARTESIAN_POINT('',(0.E0,-3.8E0,0.E0));
#1588=DIRECTION('',(0.E0,-1.E0,0.E0));
#1589=DIRECTION('',(0.E0,0.E0,-1.E0));
#1590=AXIS2_PLACEMENT_3D('',#1587,#1588,#1589);
#1591=PLANE('',#1590);
#1592=ORIENTED_EDGE('',*,*,#1577,.F.);
#1594=ORIENTED_EDGE('',*,*,#1593,.F.);
#1595=EDGE_LOOP('',(#1592,#1594));
#1596=FACE_OUTER_BOUND('',#1595,.F.);
#1597=ADVANCED_FACE('',(#1596),#1591,.T.);
#1598=CARTESIAN_POINT('',(1.27E0,-3.769991765495E0,-1.27E0));
#1599=DIRECTION('',(0.E0,1.E0,0.E0));
#1600=DIRECTION('',(0.E0,0.E0,-1.E0));
#1601=AXIS2_PLACEMENT_3D('',#1598,#1599,#1600);
#1602=CONICAL_SURFACE('',#1601,3.199933011131E-1,4.499866309645E1);
#1603=ORIENTED_EDGE('',*,*,#1593,.T.);
#1604=ORIENTED_EDGE('',*,*,#1582,.T.);
#1606=ORIENTED_EDGE('',*,*,#1605,.F.);
#1607=ORIENTED_EDGE('',*,*,#1579,.F.);
#1608=EDGE_LOOP('',(#1603,#1604,#1606,#1607));
#1609=FACE_OUTER_BOUND('',#1608,.F.);
#1610=ADVANCED_FACE('',(#1609),#1602,.T.);
#1611=CARTESIAN_POINT('',(1.27E0,-2.E-1,-1.27E0));
#1612=DIRECTION('',(0.E0,-1.E0,0.E0));
#1613=DIRECTION('',(0.E0,0.E0,-1.E0));
#1614=AXIS2_PLACEMENT_3D('',#1611,#1612,#1613);
#1615=CYLINDRICAL_SURFACE('',#1614,3.5E-1);
#1616=ORIENTED_EDGE('',*,*,#1605,.T.);
#1617=ORIENTED_EDGE('',*,*,#1567,.F.);
#1618=ORIENTED_EDGE('',*,*,#1552,.F.);
#1619=ORIENTED_EDGE('',*,*,#1564,.T.);
#1620=EDGE_LOOP('',(#1616,#1617,#1618,#1619));
#1621=FACE_OUTER_BOUND('',#1620,.F.);
#1622=ADVANCED_FACE('',(#1621),#1615,.T.);
#1623=CARTESIAN_POINT('',(-1.27E0,0.E0,-1.27E0));
#1624=DIRECTION('',(0.E0,-1.E0,0.E0));
#1625=DIRECTION('',(1.E0,0.E0,0.E0));
#1626=AXIS2_PLACEMENT_3D('',#1623,#1624,#1625);
#1627=CYLINDRICAL_SURFACE('',#1626,5.5E-1);
#1628=ORIENTED_EDGE('',*,*,#808,.F.);
#1630=ORIENTED_EDGE('',*,*,#1629,.T.);
#1632=ORIENTED_EDGE('',*,*,#1631,.T.);
#1634=ORIENTED_EDGE('',*,*,#1633,.F.);
#1635=EDGE_LOOP('',(#1628,#1630,#1632,#1634));
#1636=FACE_OUTER_BOUND('',#1635,.F.);
#1637=ADVANCED_FACE('',(#1636),#1627,.T.);
#1638=CARTESIAN_POINT('',(-1.27E0,0.E0,-1.27E0));
#1639=DIRECTION('',(0.E0,-1.E0,0.E0));
#1640=DIRECTION('',(1.E0,0.E0,0.E0));
#1641=AXIS2_PLACEMENT_3D('',#1638,#1639,#1640);
#1642=CYLINDRICAL_SURFACE('',#1641,5.5E-1);
#1643=ORIENTED_EDGE('',*,*,#810,.F.);
#1644=ORIENTED_EDGE('',*,*,#1633,.T.);
#1646=ORIENTED_EDGE('',*,*,#1645,.T.);
#1647=ORIENTED_EDGE('',*,*,#1629,.F.);
#1648=EDGE_LOOP('',(#1643,#1644,#1646,#1647));
#1649=FACE_OUTER_BOUND('',#1648,.F.);
#1650=ADVANCED_FACE('',(#1649),#1642,.T.);
#1651=CARTESIAN_POINT('',(0.E0,-2.E-1,0.E0));
#1652=DIRECTION('',(0.E0,-1.E0,0.E0));
#1653=DIRECTION('',(1.E0,0.E0,0.E0));
#1654=AXIS2_PLACEMENT_3D('',#1651,#1652,#1653);
#1655=PLANE('',#1654);
#1656=ORIENTED_EDGE('',*,*,#1631,.F.);
#1657=ORIENTED_EDGE('',*,*,#1645,.F.);
#1658=EDGE_LOOP('',(#1656,#1657));
#1659=FACE_OUTER_BOUND('',#1658,.F.);
#1661=ORIENTED_EDGE('',*,*,#1660,.T.);
#1663=ORIENTED_EDGE('',*,*,#1662,.T.);
#1664=EDGE_LOOP('',(#1661,#1663));
#1665=FACE_BOUND('',#1664,.F.);
#1666=ADVANCED_FACE('',(#1659,#1665),#1655,.T.);
#1667=CARTESIAN_POINT('',(-1.27E0,-2.E-1,-1.27E0));
#1668=DIRECTION('',(0.E0,-1.E0,0.E0));
#1669=DIRECTION('',(0.E0,0.E0,-1.E0));
#1670=AXIS2_PLACEMENT_3D('',#1667,#1668,#1669);
#1671=CYLINDRICAL_SURFACE('',#1670,3.5E-1);
#1673=ORIENTED_EDGE('',*,*,#1672,.T.);
#1675=ORIENTED_EDGE('',*,*,#1674,.F.);
#1676=ORIENTED_EDGE('',*,*,#1660,.F.);
#1678=ORIENTED_EDGE('',*,*,#1677,.T.);
#1679=EDGE_LOOP('',(#1673,#1675,#1676,#1678));
#1680=FACE_OUTER_BOUND('',#1679,.F.);
#1681=ADVANCED_FACE('',(#1680),#1671,.T.);
#1682=CARTESIAN_POINT('',(-1.27E0,-3.769991765495E0,-1.27E0));
#1683=DIRECTION('',(0.E0,1.E0,0.E0));
#1684=DIRECTION('',(0.E0,0.E0,-1.E0));
#1685=AXIS2_PLACEMENT_3D('',#1682,#1683,#1684);
#1686=CONICAL_SURFACE('',#1685,3.199933011131E-1,4.499866309645E1);
#1688=ORIENTED_EDGE('',*,*,#1687,.T.);
#1690=ORIENTED_EDGE('',*,*,#1689,.T.);
#1691=ORIENTED_EDGE('',*,*,#1672,.F.);
#1693=ORIENTED_EDGE('',*,*,#1692,.F.);
#1694=EDGE_LOOP('',(#1688,#1690,#1691,#1693));
#1695=FACE_OUTER_BOUND('',#1694,.F.);
#1696=ADVANCED_FACE('',(#1695),#1686,.T.);
#1697=CARTESIAN_POINT('',(0.E0,-3.8E0,0.E0));
#1698=DIRECTION('',(0.E0,-1.E0,0.E0));
#1699=DIRECTION('',(0.E0,0.E0,-1.E0));
#1700=AXIS2_PLACEMENT_3D('',#1697,#1698,#1699);
#1701=PLANE('',#1700);
#1702=ORIENTED_EDGE('',*,*,#1687,.F.);
#1704=ORIENTED_EDGE('',*,*,#1703,.F.);
#1705=EDGE_LOOP('',(#1702,#1704));
#1706=FACE_OUTER_BOUND('',#1705,.F.);
#1707=ADVANCED_FACE('',(#1706),#1701,.T.);
#1708=CARTESIAN_POINT('',(-1.27E0,-3.769991765495E0,-1.27E0));
#1709=DIRECTION('',(0.E0,1.E0,0.E0));
#1710=DIRECTION('',(0.E0,0.E0,-1.E0));
#1711=AXIS2_PLACEMENT_3D('',#1708,#1709,#1710);
#1712=CONICAL_SURFACE('',#1711,3.199933011131E-1,4.499866309645E1);
#1713=ORIENTED_EDGE('',*,*,#1703,.T.);
#1714=ORIENTED_EDGE('',*,*,#1692,.T.);
#1716=ORIENTED_EDGE('',*,*,#1715,.F.);
#1717=ORIENTED_EDGE('',*,*,#1689,.F.);
#1718=EDGE_LOOP('',(#1713,#1714,#1716,#1717));
#1719=FACE_OUTER_BOUND('',#1718,.F.);
#1720=ADVANCED_FACE('',(#1719),#1712,.T.);
#1721=CARTESIAN_POINT('',(-1.27E0,-2.E-1,-1.27E0));
#1722=DIRECTION('',(0.E0,-1.E0,0.E0));
#1723=DIRECTION('',(0.E0,0.E0,-1.E0));
#1724=AXIS2_PLACEMENT_3D('',#1721,#1722,#1723);
#1725=CYLINDRICAL_SURFACE('',#1724,3.5E-1);
#1726=ORIENTED_EDGE('',*,*,#1715,.T.);
#1727=ORIENTED_EDGE('',*,*,#1677,.F.);
#1728=ORIENTED_EDGE('',*,*,#1662,.F.);
#1729=ORIENTED_EDGE('',*,*,#1674,.T.);
#1730=EDGE_LOOP('',(#1726,#1727,#1728,#1729));
#1731=FACE_OUTER_BOUND('',#1730,.F.);
#1732=ADVANCED_FACE('',(#1731),#1725,.T.);
#1733=CLOSED_SHELL('',(#814,#829,#844,#858,#870,#885,#902,#914,#929,#942,#957,
#970,#985,#998,#1013,#1026,#1042,#1057,#1070,#1083,#1094,#1109,#1126,#1138,
#1153,#1166,#1182,#1197,#1214,#1226,#1241,#1254,#1269,#1282,#1292,#1307,#1320,
#1336,#1351,#1366,#1377,#1390,#1402,#1417,#1430,#1446,#1461,#1476,#1487,#1500,
#1512,#1527,#1540,#1556,#1571,#1586,#1597,#1610,#1622,#1637,#1650,#1666,#1681,
#1696,#1707,#1720,#1732));
#1734=MANIFOLD_SOLID_BREP('',#1733);
#1736=DIMENSIONAL_EXPONENTS(0.E0,0.E0,0.E0,0.E0,0.E0,0.E0,0.E0);
#1738=PLANE_ANGLE_MEASURE_WITH_UNIT(PLANE_ANGLE_MEASURE(1.745329251994E-2),
#1737);
#1739=(CONVERSION_BASED_UNIT('DEGREE',#1738)NAMED_UNIT(*)PLANE_ANGLE_UNIT());
#1741=UNCERTAINTY_MEASURE_WITH_UNIT(LENGTH_MEASURE(3.554702770005E-4),#1735,
'closure',
'Maximum model space distance between geometric entities at asserted connectivities');
#1742=(GEOMETRIC_REPRESENTATION_CONTEXT(3)GLOBAL_UNCERTAINTY_ASSIGNED_CONTEXT((
#1741))GLOBAL_UNIT_ASSIGNED_CONTEXT((#1735,#1739,#1740))REPRESENTATION_CONTEXT(
'ID1','3'));
#1744=APPLICATION_CONTEXT(
'CONFIGURATION CONTROLLED 3D DESIGNS OF MECHANICAL PARTS AND ASSEMBLIES');
#1745=APPLICATION_PROTOCOL_DEFINITION('international standard',
'config_control_design',1994,#1744);
#1746=DESIGN_CONTEXT('',#1744,'design');
#1747=MECHANICAL_CONTEXT('',#1744,'mechanical');
#1748=PRODUCT('SMP-FS-SBPCT_SW0001','SMP-FS-SBPCT_SW0001','NOT SPECIFIED',
(#1747));
#1749=PRODUCT_DEFINITION_FORMATION_WITH_SPECIFIED_SOURCE('1','LAST_VERSION',
#1748,.MADE.);
#1753=PRODUCT_CATEGORY('part','');
#1754=PRODUCT_RELATED_PRODUCT_CATEGORY('detail','',(#1748));
#1755=PRODUCT_CATEGORY_RELATIONSHIP('','',#1753,#1754);
#1756=SECURITY_CLASSIFICATION_LEVEL('unclassified');
#1757=SECURITY_CLASSIFICATION('','',#1756);
#1758=CC_DESIGN_SECURITY_CLASSIFICATION(#1757,(#1749));
#1759=APPROVAL_STATUS('approved');
#1760=APPROVAL(#1759,'');
#1761=CC_DESIGN_APPROVAL(#1760,(#1757,#1749,#1750));
#1762=CALENDAR_DATE(120,24,8);
#1763=COORDINATED_UNIVERSAL_TIME_OFFSET(5,30,.AHEAD.);
#1764=LOCAL_TIME(12,27,1.3E1,#1763);
#1765=DATE_AND_TIME(#1762,#1764);
#1766=APPROVAL_DATE_TIME(#1765,#1760);
#1767=DATE_TIME_ROLE('creation_date');
#1768=CC_DESIGN_DATE_AND_TIME_ASSIGNMENT(#1765,#1767,(#1750));
#1769=DATE_TIME_ROLE('classification_date');
#1770=CC_DESIGN_DATE_AND_TIME_ASSIGNMENT(#1765,#1769,(#1757));
#1771=PERSON('UNSPECIFIED','UNSPECIFIED',$,$,$,$);
#1772=ORGANIZATION('UNSPECIFIED','UNSPECIFIED','UNSPECIFIED');
#1773=PERSON_AND_ORGANIZATION(#1771,#1772);
#1774=APPROVAL_ROLE('approver');
#1775=APPROVAL_PERSON_ORGANIZATION(#1773,#1760,#1774);
#1776=PERSON_AND_ORGANIZATION_ROLE('creator');
#1777=CC_DESIGN_PERSON_AND_ORGANIZATION_ASSIGNMENT(#1773,#1776,(#1749,#1750));
#1778=PERSON_AND_ORGANIZATION_ROLE('design_supplier');
#1779=CC_DESIGN_PERSON_AND_ORGANIZATION_ASSIGNMENT(#1773,#1778,(#1749));
#1780=PERSON_AND_ORGANIZATION_ROLE('classification_officer');
#1781=CC_DESIGN_PERSON_AND_ORGANIZATION_ASSIGNMENT(#1773,#1780,(#1757));
#1782=PERSON_AND_ORGANIZATION_ROLE('design_owner');
#1783=CC_DESIGN_PERSON_AND_ORGANIZATION_ASSIGNMENT(#1773,#1782,(#1748));
#5=CIRCLE('',#4,2.650001237308E0);
#10=CIRCLE('',#9,2.650001237308E0);
#15=CIRCLE('',#14,1.1716E0);
#20=CIRCLE('',#19,1.1716E0);
#25=CIRCLE('',#24,5.5E-1);
#30=CIRCLE('',#29,5.5E-1);
#35=CIRCLE('',#34,5.5E-1);
#40=CIRCLE('',#39,5.5E-1);
#45=CIRCLE('',#44,5.5E-1);
#50=CIRCLE('',#49,5.5E-1);
#55=CIRCLE('',#54,5.5E-1);
#60=CIRCLE('',#59,5.5E-1);
#69=CIRCLE('',#68,2.75E0);
#74=CIRCLE('',#73,2.75E0);
#79=CIRCLE('',#78,2.75E0);
#88=CIRCLE('',#87,2.75E0);
#105=CIRCLE('',#104,2.650001200969E0);
#110=CIRCLE('',#109,2.650001200969E0);
#115=CIRCLE('',#114,1.960001187249E0);
#120=CIRCLE('',#119,1.960001187249E0);
#137=CIRCLE('',#136,1.83E0);
#142=CIRCLE('',#141,1.83E0);
#147=CIRCLE('',#146,1.83E0);
#156=CIRCLE('',#155,1.83E0);
#173=CIRCLE('',#172,1.59E0);
#178=CIRCLE('',#177,1.59E0);
#183=CIRCLE('',#182,1.59E0);
#196=CIRCLE('',#195,1.59E0);
#201=CIRCLE('',#200,1.9E-1);
#206=CIRCLE('',#205,1.9E-1);
#211=CIRCLE('',#210,1.9E-1);
#220=CIRCLE('',#219,1.9E-1);
#229=CIRCLE('',#228,1.9E-1);
#234=CIRCLE('',#233,1.9E-1);
#239=CIRCLE('',#238,1.07E0);
#244=CIRCLE('',#243,1.021600134410E0);
#249=CIRCLE('',#248,1.021600134410E0);
#254=CIRCLE('',#253,1.07E0);
#275=CIRCLE('',#274,1.020000134199E0);
#280=CIRCLE('',#279,1.020000134199E0);
#285=CIRCLE('',#284,3.649989198764E-1);
#290=CIRCLE('',#289,3.649989198764E-1);
#299=CIRCLE('',#298,3.633989246111E-1);
#304=CIRCLE('',#303,3.633989246111E-1);
#309=CIRCLE('',#308,3.5E-1);
#314=CIRCLE('',#313,3.5E-1);
#323=CIRCLE('',#322,3.5E-1);
#332=CIRCLE('',#331,3.5E-1);
#349=CIRCLE('',#348,2.999940544196E-1);
#354=CIRCLE('',#353,2.999940544196E-1);
#367=CIRCLE('',#366,5.5E-1);
#372=CIRCLE('',#371,5.5E-1);
#377=CIRCLE('',#376,3.5E-1);
#382=CIRCLE('',#381,3.5E-1);
#387=CIRCLE('',#386,3.5E-1);
#400=CIRCLE('',#399,2.899864669619E-1);
#405=CIRCLE('',#404,2.899864669619E-1);
#414=CIRCLE('',#413,3.5E-1);
#431=CIRCLE('',#430,5.5E-1);
#436=CIRCLE('',#435,5.5E-1);
#441=CIRCLE('',#440,3.5E-1);
#446=CIRCLE('',#445,3.5E-1);
#451=CIRCLE('',#450,3.5E-1);
#464=CIRCLE('',#463,2.899864669619E-1);
#469=CIRCLE('',#468,2.899864669619E-1);
#478=CIRCLE('',#477,3.5E-1);
#495=CIRCLE('',#494,5.5E-1);
#500=CIRCLE('',#499,5.5E-1);
#505=CIRCLE('',#504,3.5E-1);
#510=CIRCLE('',#509,3.5E-1);
#515=CIRCLE('',#514,3.5E-1);
#528=CIRCLE('',#527,2.899864669619E-1);
#533=CIRCLE('',#532,2.899864669619E-1);
#542=CIRCLE('',#541,3.5E-1);
#559=CIRCLE('',#558,5.5E-1);
#564=CIRCLE('',#563,5.5E-1);
#569=CIRCLE('',#568,3.5E-1);
#574=CIRCLE('',#573,3.5E-1);
#579=CIRCLE('',#578,3.5E-1);
#592=CIRCLE('',#591,2.899864669619E-1);
#597=CIRCLE('',#596,2.899864669619E-1);
#606=CIRCLE('',#605,3.5E-1);
#778=EDGE_CURVE('',#709,#710,#5,.T.);
#780=EDGE_CURVE('',#710,#709,#10,.T.);
#784=EDGE_CURVE('',#621,#622,#15,.T.);
#786=EDGE_CURVE('',#622,#621,#20,.T.);
#790=EDGE_CURVE('',#641,#642,#25,.T.);
#792=EDGE_CURVE('',#642,#641,#30,.T.);
#796=EDGE_CURVE('',#645,#646,#35,.T.);
#798=EDGE_CURVE('',#646,#645,#40,.T.);
#802=EDGE_CURVE('',#649,#650,#45,.T.);
#804=EDGE_CURVE('',#650,#649,#50,.T.);
#808=EDGE_CURVE('',#653,#654,#55,.T.);
#810=EDGE_CURVE('',#654,#653,#60,.T.);
#820=EDGE_CURVE('',#705,#706,#69,.T.);
#822=EDGE_CURVE('',#706,#710,#96,.T.);
#825=EDGE_CURVE('',#705,#709,#64,.T.);
#836=EDGE_CURVE('',#705,#717,#92,.T.);
#838=EDGE_CURVE('',#717,#718,#74,.T.);
#840=EDGE_CURVE('',#706,#718,#83,.T.);
#850=EDGE_CURVE('',#706,#705,#79,.T.);
#853=EDGE_CURVE('',#718,#717,#88,.T.);
#876=EDGE_CURVE('',#714,#713,#110,.T.);
#878=EDGE_CURVE('',#713,#717,#124,.T.);
#881=EDGE_CURVE('',#714,#718,#100,.T.);
#891=EDGE_CURVE('',#713,#714,#105,.T.);
#896=EDGE_CURVE('',#725,#726,#115,.T.);
#898=EDGE_CURVE('',#726,#725,#120,.T.);
#921=EDGE_CURVE('',#726,#730,#132,.T.);
#923=EDGE_CURVE('',#729,#730,#147,.T.);
#925=EDGE_CURVE('',#725,#729,#128,.T.);
#937=EDGE_CURVE('',#730,#729,#137,.T.);
#949=EDGE_CURVE('',#720,#729,#160,.T.);
#951=EDGE_CURVE('',#720,#722,#142,.T.);
#953=EDGE_CURVE('',#722,#730,#151,.T.);
#965=EDGE_CURVE('',#720,#722,#156,.T.);
#976=EDGE_CURVE('',#614,#720,#164,.T.);
#979=EDGE_CURVE('',#618,#722,#168,.T.);
#981=EDGE_CURVE('',#614,#618,#173,.T.);
#992=EDGE_CURVE('',#614,#618,#178,.T.);
#1004=EDGE_CURVE('',#613,#614,#187,.T.);
#1006=EDGE_CURVE('',#613,#617,#183,.T.);
#1008=EDGE_CURVE('',#617,#618,#191,.T.);
#1022=EDGE_CURVE('',#613,#617,#196,.T.);
#1036=EDGE_CURVE('',#767,#768,#201,.T.);
#1038=EDGE_CURVE('',#768,#767,#206,.T.);
#1049=EDGE_CURVE('',#767,#761,#224,.T.);
#1051=EDGE_CURVE('',#761,#762,#211,.T.);
#1053=EDGE_CURVE('',#768,#762,#215,.T.);
#1065=EDGE_CURVE('',#762,#761,#220,.T.);
#1077=EDGE_CURVE('',#762,#764,#229,.T.);
#1079=EDGE_CURVE('',#761,#764,#234,.T.);
#1100=EDGE_CURVE('',#733,#734,#239,.T.);
#1102=EDGE_CURVE('',#621,#733,#262,.T.);
#1105=EDGE_CURVE('',#622,#734,#258,.T.);
#1116=EDGE_CURVE('',#734,#733,#254,.T.);
#1120=EDGE_CURVE('',#749,#750,#244,.T.);
#1122=EDGE_CURVE('',#750,#749,#249,.T.);
#1145=EDGE_CURVE('',#750,#741,#270,.T.);
#1147=EDGE_CURVE('',#742,#741,#280,.T.);
#1149=EDGE_CURVE('',#749,#742,#266,.T.);
#1161=EDGE_CURVE('',#741,#742,#275,.T.);
#1176=EDGE_CURVE('',#737,#738,#285,.T.);
#1178=EDGE_CURVE('',#738,#737,#290,.T.);
#1188=EDGE_CURVE('',#746,#745,#304,.T.);
#1190=EDGE_CURVE('',#737,#745,#294,.T.);
#1193=EDGE_CURVE('',#738,#746,#318,.T.);
#1203=EDGE_CURVE('',#745,#746,#299,.T.);
#1208=EDGE_CURVE('',#771,#772,#309,.T.);
#1210=EDGE_CURVE('',#772,#771,#314,.T.);
#1233=EDGE_CURVE('',#754,#772,#336,.T.);
#1235=EDGE_CURVE('',#753,#754,#323,.T.);
#1237=EDGE_CURVE('',#753,#771,#327,.T.);
#1249=EDGE_CURVE('',#754,#753,#332,.T.);
#1261=EDGE_CURVE('',#753,#757,#344,.T.);
#1263=EDGE_CURVE('',#758,#757,#354,.T.);
#1265=EDGE_CURVE('',#754,#758,#340,.T.);
#1277=EDGE_CURVE('',#757,#758,#349,.T.);
#1299=EDGE_CURVE('',#641,#625,#358,.T.);
#1301=EDGE_CURVE('',#625,#626,#367,.T.);
#1303=EDGE_CURVE('',#642,#626,#362,.T.);
#1315=EDGE_CURVE('',#626,#625,#372,.T.);
#1330=EDGE_CURVE('',#669,#670,#377,.T.);
#1332=EDGE_CURVE('',#670,#669,#382,.T.);
#1342=EDGE_CURVE('',#677,#678,#387,.T.);
#1344=EDGE_CURVE('',#670,#678,#418,.T.);
#1347=EDGE_CURVE('',#669,#677,#391,.T.);
#1357=EDGE_CURVE('',#673,#674,#400,.T.);
#1359=EDGE_CURVE('',#674,#678,#409,.T.);
#1362=EDGE_CURVE('',#673,#677,#395,.T.);
#1373=EDGE_CURVE('',#674,#673,#405,.T.);
#1385=EDGE_CURVE('',#678,#677,#414,.T.);
#1409=EDGE_CURVE('',#645,#629,#422,.T.);
#1411=EDGE_CURVE('',#629,#630,#431,.T.);
#1413=EDGE_CURVE('',#646,#630,#426,.T.);
#1425=EDGE_CURVE('',#630,#629,#436,.T.);
#1440=EDGE_CURVE('',#657,#658,#441,.T.);
#1442=EDGE_CURVE('',#658,#657,#446,.T.);
#1452=EDGE_CURVE('',#693,#694,#451,.T.);
#1454=EDGE_CURVE('',#658,#694,#482,.T.);
#1457=EDGE_CURVE('',#657,#693,#455,.T.);
#1467=EDGE_CURVE('',#689,#690,#464,.T.);
#1469=EDGE_CURVE('',#690,#694,#473,.T.);
#1472=EDGE_CURVE('',#689,#693,#459,.T.);
#1483=EDGE_CURVE('',#690,#689,#469,.T.);
#1495=EDGE_CURVE('',#694,#693,#478,.T.);
#1519=EDGE_CURVE('',#649,#633,#486,.T.);
#1521=EDGE_CURVE('',#633,#634,#495,.T.);
#1523=EDGE_CURVE('',#650,#634,#490,.T.);
#1535=EDGE_CURVE('',#634,#633,#500,.T.);
#1550=EDGE_CURVE('',#661,#662,#505,.T.);
#1552=EDGE_CURVE('',#662,#661,#510,.T.);
#1562=EDGE_CURVE('',#701,#702,#515,.T.);
#1564=EDGE_CURVE('',#662,#702,#546,.T.);
#1567=EDGE_CURVE('',#661,#701,#519,.T.);
#1577=EDGE_CURVE('',#697,#698,#528,.T.);
#1579=EDGE_CURVE('',#698,#702,#537,.T.);
#1582=EDGE_CURVE('',#697,#701,#523,.T.);
#1593=EDGE_CURVE('',#698,#697,#533,.T.);
#1605=EDGE_CURVE('',#702,#701,#542,.T.);
#1629=EDGE_CURVE('',#653,#637,#550,.T.);
#1631=EDGE_CURVE('',#637,#638,#559,.T.);
#1633=EDGE_CURVE('',#654,#638,#554,.T.);
#1645=EDGE_CURVE('',#638,#637,#564,.T.);
#1660=EDGE_CURVE('',#665,#666,#569,.T.);
#1662=EDGE_CURVE('',#666,#665,#574,.T.);
#1672=EDGE_CURVE('',#685,#686,#579,.T.);
#1674=EDGE_CURVE('',#666,#686,#610,.T.);
#1677=EDGE_CURVE('',#665,#685,#583,.T.);
#1687=EDGE_CURVE('',#681,#682,#592,.T.);
#1689=EDGE_CURVE('',#682,#686,#601,.T.);
#1692=EDGE_CURVE('',#681,#685,#587,.T.);
#1703=EDGE_CURVE('',#682,#681,#597,.T.);
#1715=EDGE_CURVE('',#686,#685,#606,.T.);
#1735=(LENGTH_UNIT()NAMED_UNIT(*)SI_UNIT(.MILLI.,.METRE.));
#1737=(NAMED_UNIT(*)PLANE_ANGLE_UNIT()SI_UNIT($,.RADIAN.));
#1740=(NAMED_UNIT(*)SI_UNIT($,.STERADIAN.)SOLID_ANGLE_UNIT());
#1743=ADVANCED_BREP_SHAPE_REPRESENTATION('',(#1734),#1742);
#1750=PRODUCT_DEFINITION('design','',#1749,#1746);
#1751=PRODUCT_DEFINITION_SHAPE('','SHAPE FOR SMP-FS-SBPCT_SW0001.',#1750);
#1752=SHAPE_DEFINITION_REPRESENTATION(#1751,#1743);
ENDSEC;
END-ISO-10303-21;
