ISO-10303-21;
HEADER;
/* Generated by software containing ST-Developer
 * from STEP Tools, Inc. (www.steptools.com) 
 */

FILE_DESCRIPTION(
/* description */ ('Slotted head screws'),
/* implementation_level */ '2;1');

FILE_NAME(
/* name */ 'KS_B1021_M1x4.step',
/* time_stamp */ '2026-09-25T09:33:00-07:00',
/* author */ ('\X2\BC15C815D604\X0\'),
/* organization */ (''),
/* preprocessor_version */ 'ST-DEVELOPER v20.2',
/* originating_system */ 'Autodesk Inventor 2027',
/* authorisation */ '');

FILE_SCHEMA (('AUTOMOTIVE_DESIGN { 1 0 10303 214 3 1 1 }'));
ENDSEC;

DATA;
#10=MECHANICAL_DESIGN_GEOMETRIC_PRESENTATION_REPRESENTATION('',(#13),#459);
#11=SHAPE_REPRESENTATION_RELATIONSHIP('SRR','None',#466,#12);
#12=ADVANCED_BREP_SHAPE_REPRESENTATION('',(#14),#458);
#13=STYLED_ITEM('',(#475),#14);
#14=MANIFOLD_SOLID_BREP('Solid1',#228);
#15=FACE_BOUND('',#57,.T.);
#16=SPHERICAL_SURFACE('',#272,19.1092737753302);
#17=SPHERICAL_SURFACE('',#273,19.1092737753302);
#18=TOROIDAL_SURFACE('',#265,0.68189356551335,0.3);
#19=TOROIDAL_SURFACE('',#269,0.68189356551335,0.3);
#20=B_SPLINE_CURVE_WITH_KNOTS('',3,(#377,#378,#379,#380,#381,#382,#383,
#384,#385,#386),.UNSPECIFIED.,.F.,.F.,(4,2,2,2,4),(0.137009709679757,0.147376815184256,
0.158631688145603,0.169753875364396,0.179263610189496),.UNSPECIFIED.);
#21=B_SPLINE_CURVE_WITH_KNOTS('',3,(#389,#390,#391,#392,#393,#394,#395,
#396,#397,#398),.UNSPECIFIED.,.F.,.F.,(4,2,2,2,4),(0.0015361363497565,0.0110458711748563,
0.0221680583936493,0.0334229313549959,0.0437900368594953),.UNSPECIFIED.);
#22=B_SPLINE_CURVE_WITH_KNOTS('',3,(#404,#405,#406,#407,#408,#409,#410,
#411,#412,#413),.UNSPECIFIED.,.F.,.F.,(4,2,2,2,4),(0.137009709679757,0.147376815184256,
0.158631688145603,0.169753875364396,0.179263610189496),.UNSPECIFIED.);
#23=B_SPLINE_CURVE_WITH_KNOTS('',3,(#417,#418,#419,#420,#421,#422,#423,
#424,#425,#426),.UNSPECIFIED.,.F.,.F.,(4,2,2,2,4),(0.0015361363497565,0.0110458711748563,
0.0221680583936493,0.0334229313549959,0.0437900368594954),.UNSPECIFIED.);
#24=PLANE('',#257);
#25=PLANE('',#258);
#26=PLANE('',#260);
#27=PLANE('',#262);
#28=PLANE('',#276);
#29=CYLINDRICAL_SURFACE('',#255,0.499999999999998);
#30=CYLINDRICAL_SURFACE('',#278,0.42325);
#31=FACE_OUTER_BOUND('',#45,.T.);
#32=FACE_OUTER_BOUND('',#46,.T.);
#33=FACE_OUTER_BOUND('',#47,.T.);
#34=FACE_OUTER_BOUND('',#48,.T.);
#35=FACE_OUTER_BOUND('',#49,.T.);
#36=FACE_OUTER_BOUND('',#50,.T.);
#37=FACE_OUTER_BOUND('',#51,.T.);
#38=FACE_OUTER_BOUND('',#52,.T.);
#39=FACE_OUTER_BOUND('',#53,.T.);
#40=FACE_OUTER_BOUND('',#54,.T.);
#41=FACE_OUTER_BOUND('',#55,.T.);
#42=FACE_OUTER_BOUND('',#56,.T.);
#43=FACE_OUTER_BOUND('',#58,.T.);
#44=FACE_OUTER_BOUND('',#59,.T.);
#45=EDGE_LOOP('',(#149,#150,#151,#152,#153));
#46=EDGE_LOOP('',(#154,#155,#156,#157,#158));
#47=EDGE_LOOP('',(#159));
#48=EDGE_LOOP('',(#160,#161,#162,#163,#164,#165));
#49=EDGE_LOOP('',(#166,#167,#168,#169,#170,#171));
#50=EDGE_LOOP('',(#172,#173,#174,#175));
#51=EDGE_LOOP('',(#176,#177,#178,#179,#180));
#52=EDGE_LOOP('',(#181,#182,#183,#184));
#53=EDGE_LOOP('',(#185,#186));
#54=EDGE_LOOP('',(#187,#188));
#55=EDGE_LOOP('',(#189,#190,#191,#192,#193,#194,#195,#196,#197,#198,#199,
#200));
#56=EDGE_LOOP('',(#201));
#57=EDGE_LOOP('',(#202));
#58=EDGE_LOOP('',(#203,#204,#205,#206));
#59=EDGE_LOOP('',(#207,#208,#209,#210));
#60=LINE('',#359,#71);
#61=LINE('',#365,#72);
#62=LINE('',#371,#73);
#63=LINE('',#373,#74);
#64=LINE('',#375,#75);
#65=LINE('',#402,#76);
#66=LINE('',#428,#77);
#67=LINE('',#429,#78);
#68=LINE('',#446,#79);
#69=LINE('',#453,#80);
#70=LINE('',#455,#81);
#71=VECTOR('',#287,0.423318749999998);
#72=VECTOR('',#294,0.499999999999998);
#73=VECTOR('',#301,10.);
#74=VECTOR('',#302,10.);
#75=VECTOR('',#303,10.);
#76=VECTOR('',#308,10.);
#77=VECTOR('',#311,10.);
#78=VECTOR('',#312,10.);
#79=VECTOR('',#341,0.983609300658151);
#80=VECTOR('',#350,0.42325);
#81=VECTOR('',#353,0.461624999999999);
#82=CIRCLE('',#252,0.346637499999998);
#83=CIRCLE('',#253,0.499999999999998);
#84=CIRCLE('',#254,0.499999999999998);
#85=CIRCLE('',#256,0.499999999999998);
#86=CIRCLE('',#259,19.1086039317508);
#87=CIRCLE('',#261,19.1086039317508);
#88=CIRCLE('',#263,0.981657277250935);
#89=CIRCLE('',#264,0.981657277250935);
#90=CIRCLE('',#266,0.981482425939723);
#91=CIRCLE('',#267,0.981482425939723);
#92=CIRCLE('',#268,0.692769480878159);
#93=CIRCLE('',#270,0.692769480878159);
#94=CIRCLE('',#271,0.981482425939723);
#95=CIRCLE('',#275,1.);
#96=CIRCLE('',#277,0.42325);
#97=CIRCLE('',#279,0.42325);
#98=VERTEX_POINT('',#356);
#99=VERTEX_POINT('',#358);
#100=VERTEX_POINT('',#360);
#101=VERTEX_POINT('',#364);
#102=VERTEX_POINT('',#369);
#103=VERTEX_POINT('',#370);
#104=VERTEX_POINT('',#372);
#105=VERTEX_POINT('',#374);
#106=VERTEX_POINT('',#376);
#107=VERTEX_POINT('',#387);
#108=VERTEX_POINT('',#400);
#109=VERTEX_POINT('',#401);
#110=VERTEX_POINT('',#403);
#111=VERTEX_POINT('',#414);
#112=VERTEX_POINT('',#416);
#113=VERTEX_POINT('',#427);
#114=VERTEX_POINT('',#434);
#115=VERTEX_POINT('',#444);
#116=VERTEX_POINT('',#448);
#117=VERTEX_POINT('',#451);
#118=EDGE_CURVE('',#98,#98,#82,.T.);
#119=EDGE_CURVE('',#98,#99,#60,.T.);
#120=EDGE_CURVE('',#99,#100,#83,.T.);
#121=EDGE_CURVE('',#100,#99,#84,.T.);
#122=EDGE_CURVE('',#100,#101,#61,.T.);
#123=EDGE_CURVE('',#101,#101,#85,.T.);
#124=EDGE_CURVE('',#102,#103,#62,.T.);
#125=EDGE_CURVE('',#104,#102,#63,.T.);
#126=EDGE_CURVE('',#105,#104,#64,.T.);
#127=EDGE_CURVE('',#106,#105,#20,.T.);
#128=EDGE_CURVE('',#107,#106,#86,.T.);
#129=EDGE_CURVE('',#103,#107,#21,.T.);
#130=EDGE_CURVE('',#108,#109,#65,.T.);
#131=EDGE_CURVE('',#110,#108,#22,.T.);
#132=EDGE_CURVE('',#111,#110,#87,.T.);
#133=EDGE_CURVE('',#112,#111,#23,.T.);
#134=EDGE_CURVE('',#113,#112,#66,.T.);
#135=EDGE_CURVE('',#109,#113,#67,.T.);
#136=EDGE_CURVE('',#109,#102,#88,.T.);
#137=EDGE_CURVE('',#104,#113,#89,.T.);
#138=EDGE_CURVE('',#108,#114,#90,.T.);
#139=EDGE_CURVE('',#114,#112,#91,.T.);
#140=EDGE_CURVE('',#111,#110,#92,.T.);
#141=EDGE_CURVE('',#107,#106,#93,.T.);
#142=EDGE_CURVE('',#105,#103,#94,.T.);
#143=EDGE_CURVE('',#115,#115,#95,.T.);
#144=EDGE_CURVE('',#115,#114,#68,.T.);
#145=EDGE_CURVE('',#116,#116,#96,.T.);
#146=EDGE_CURVE('',#117,#117,#97,.T.);
#147=EDGE_CURVE('',#117,#116,#69,.T.);
#148=EDGE_CURVE('',#101,#117,#70,.T.);
#149=ORIENTED_EDGE('',*,*,#118,.T.);
#150=ORIENTED_EDGE('',*,*,#119,.T.);
#151=ORIENTED_EDGE('',*,*,#120,.T.);
#152=ORIENTED_EDGE('',*,*,#121,.T.);
#153=ORIENTED_EDGE('',*,*,#119,.F.);
#154=ORIENTED_EDGE('',*,*,#120,.F.);
#155=ORIENTED_EDGE('',*,*,#121,.F.);
#156=ORIENTED_EDGE('',*,*,#122,.T.);
#157=ORIENTED_EDGE('',*,*,#123,.T.);
#158=ORIENTED_EDGE('',*,*,#122,.F.);
#159=ORIENTED_EDGE('',*,*,#118,.F.);
#160=ORIENTED_EDGE('',*,*,#124,.F.);
#161=ORIENTED_EDGE('',*,*,#125,.F.);
#162=ORIENTED_EDGE('',*,*,#126,.F.);
#163=ORIENTED_EDGE('',*,*,#127,.F.);
#164=ORIENTED_EDGE('',*,*,#128,.F.);
#165=ORIENTED_EDGE('',*,*,#129,.F.);
#166=ORIENTED_EDGE('',*,*,#130,.F.);
#167=ORIENTED_EDGE('',*,*,#131,.F.);
#168=ORIENTED_EDGE('',*,*,#132,.F.);
#169=ORIENTED_EDGE('',*,*,#133,.F.);
#170=ORIENTED_EDGE('',*,*,#134,.F.);
#171=ORIENTED_EDGE('',*,*,#135,.F.);
#172=ORIENTED_EDGE('',*,*,#136,.F.);
#173=ORIENTED_EDGE('',*,*,#135,.T.);
#174=ORIENTED_EDGE('',*,*,#137,.F.);
#175=ORIENTED_EDGE('',*,*,#125,.T.);
#176=ORIENTED_EDGE('',*,*,#131,.T.);
#177=ORIENTED_EDGE('',*,*,#138,.T.);
#178=ORIENTED_EDGE('',*,*,#139,.T.);
#179=ORIENTED_EDGE('',*,*,#133,.T.);
#180=ORIENTED_EDGE('',*,*,#140,.T.);
#181=ORIENTED_EDGE('',*,*,#129,.T.);
#182=ORIENTED_EDGE('',*,*,#141,.T.);
#183=ORIENTED_EDGE('',*,*,#127,.T.);
#184=ORIENTED_EDGE('',*,*,#142,.T.);
#185=ORIENTED_EDGE('',*,*,#132,.T.);
#186=ORIENTED_EDGE('',*,*,#140,.F.);
#187=ORIENTED_EDGE('',*,*,#128,.T.);
#188=ORIENTED_EDGE('',*,*,#141,.F.);
#189=ORIENTED_EDGE('',*,*,#143,.F.);
#190=ORIENTED_EDGE('',*,*,#144,.T.);
#191=ORIENTED_EDGE('',*,*,#138,.F.);
#192=ORIENTED_EDGE('',*,*,#130,.T.);
#193=ORIENTED_EDGE('',*,*,#136,.T.);
#194=ORIENTED_EDGE('',*,*,#124,.T.);
#195=ORIENTED_EDGE('',*,*,#142,.F.);
#196=ORIENTED_EDGE('',*,*,#126,.T.);
#197=ORIENTED_EDGE('',*,*,#137,.T.);
#198=ORIENTED_EDGE('',*,*,#134,.T.);
#199=ORIENTED_EDGE('',*,*,#139,.F.);
#200=ORIENTED_EDGE('',*,*,#144,.F.);
#201=ORIENTED_EDGE('',*,*,#143,.T.);
#202=ORIENTED_EDGE('',*,*,#145,.F.);
#203=ORIENTED_EDGE('',*,*,#146,.F.);
#204=ORIENTED_EDGE('',*,*,#147,.T.);
#205=ORIENTED_EDGE('',*,*,#145,.T.);
#206=ORIENTED_EDGE('',*,*,#147,.F.);
#207=ORIENTED_EDGE('',*,*,#123,.F.);
#208=ORIENTED_EDGE('',*,*,#148,.T.);
#209=ORIENTED_EDGE('',*,*,#146,.T.);
#210=ORIENTED_EDGE('',*,*,#148,.F.);
#211=CONICAL_SURFACE('',#251,0.423318749999998,0.7850722447257);
#212=CONICAL_SURFACE('',#274,0.983609300658151,0.0523598775598309);
#213=CONICAL_SURFACE('',#280,0.461624999999999,0.464006172125137);
#214=ADVANCED_FACE('',(#31),#211,.T.);
#215=ADVANCED_FACE('',(#32),#29,.T.);
#216=ADVANCED_FACE('',(#33),#24,.T.);
#217=ADVANCED_FACE('',(#34),#25,.F.);
#218=ADVANCED_FACE('',(#35),#26,.F.);
#219=ADVANCED_FACE('',(#36),#27,.F.);
#220=ADVANCED_FACE('',(#37),#18,.T.);
#221=ADVANCED_FACE('',(#38),#19,.T.);
#222=ADVANCED_FACE('',(#39),#16,.T.);
#223=ADVANCED_FACE('',(#40),#17,.T.);
#224=ADVANCED_FACE('',(#41),#212,.T.);
#225=ADVANCED_FACE('',(#42,#15),#28,.T.);
#226=ADVANCED_FACE('',(#43),#30,.T.);
#227=ADVANCED_FACE('',(#44),#213,.T.);
#228=CLOSED_SHELL('',(#214,#215,#216,#217,#218,#219,#220,#221,#222,#223,
#224,#225,#226,#227));
#229=DERIVED_UNIT_ELEMENT(#232,1.);
#230=DERIVED_UNIT_ELEMENT(#461,-3.);
#231=DIMENSIONAL_EXPONENTS(0.,1.,0.,0.,0.,0.,0.);
#232=(
CONVERSION_BASED_UNIT('gram',#234)
MASS_UNIT()
NAMED_UNIT(#231)
);
#233=(
MASS_UNIT()
NAMED_UNIT(*)
SI_UNIT(.KILO.,.GRAM.)
);
#234=MASS_MEASURE_WITH_UNIT(MASS_MEASURE(0.001),#233);
#235=DERIVED_UNIT((#229,#230));
#236=MEASURE_REPRESENTATION_ITEM('density measure',
POSITIVE_RATIO_MEASURE(7.85),#235);
#237=PROPERTY_DEFINITION_REPRESENTATION(#242,#239);
#238=PROPERTY_DEFINITION_REPRESENTATION(#243,#240);
#239=REPRESENTATION('material name',(#241),#458);
#240=REPRESENTATION('density',(#236),#458);
#241=DESCRIPTIVE_REPRESENTATION_ITEM('Steel, Mild','Steel, Mild');
#242=PROPERTY_DEFINITION('material property','material name',#468);
#243=PROPERTY_DEFINITION('material property','density of part',#468);
#244=DATE_TIME_ROLE('creation_date');
#245=APPLIED_DATE_AND_TIME_ASSIGNMENT(#246,#244,(#468));
#246=DATE_AND_TIME(#247,#248);
#247=CALENDAR_DATE(2026,2,2);
#248=LOCAL_TIME(0,0,0.,#249);
#249=COORDINATED_UNIVERSAL_TIME_OFFSET(0,0,.BEHIND.);
#250=AXIS2_PLACEMENT_3D('',#354,#281,#282);
#251=AXIS2_PLACEMENT_3D('',#355,#283,#284);
#252=AXIS2_PLACEMENT_3D('',#357,#285,#286);
#253=AXIS2_PLACEMENT_3D('',#361,#288,#289);
#254=AXIS2_PLACEMENT_3D('',#362,#290,#291);
#255=AXIS2_PLACEMENT_3D('',#363,#292,#293);
#256=AXIS2_PLACEMENT_3D('',#366,#295,#296);
#257=AXIS2_PLACEMENT_3D('',#367,#297,#298);
#258=AXIS2_PLACEMENT_3D('',#368,#299,#300);
#259=AXIS2_PLACEMENT_3D('',#388,#304,#305);
#260=AXIS2_PLACEMENT_3D('',#399,#306,#307);
#261=AXIS2_PLACEMENT_3D('',#415,#309,#310);
#262=AXIS2_PLACEMENT_3D('',#430,#313,#314);
#263=AXIS2_PLACEMENT_3D('',#431,#315,#316);
#264=AXIS2_PLACEMENT_3D('',#432,#317,#318);
#265=AXIS2_PLACEMENT_3D('',#433,#319,#320);
#266=AXIS2_PLACEMENT_3D('',#435,#321,#322);
#267=AXIS2_PLACEMENT_3D('',#436,#323,#324);
#268=AXIS2_PLACEMENT_3D('',#437,#325,#326);
#269=AXIS2_PLACEMENT_3D('',#438,#327,#328);
#270=AXIS2_PLACEMENT_3D('',#439,#329,#330);
#271=AXIS2_PLACEMENT_3D('',#440,#331,#332);
#272=AXIS2_PLACEMENT_3D('',#441,#333,#334);
#273=AXIS2_PLACEMENT_3D('',#442,#335,#336);
#274=AXIS2_PLACEMENT_3D('',#443,#337,#338);
#275=AXIS2_PLACEMENT_3D('',#445,#339,#340);
#276=AXIS2_PLACEMENT_3D('',#447,#342,#343);
#277=AXIS2_PLACEMENT_3D('',#449,#344,#345);
#278=AXIS2_PLACEMENT_3D('',#450,#346,#347);
#279=AXIS2_PLACEMENT_3D('',#452,#348,#349);
#280=AXIS2_PLACEMENT_3D('',#454,#351,#352);
#281=DIRECTION('axis',(0.,0.,1.));
#282=DIRECTION('refdir',(1.,0.,0.));
#283=DIRECTION('center_axis',(-1.,2.12007610813595E-32,0.));
#284=DIRECTION('ref_axis',(-8.68019526578937E-33,-1.,0.));
#285=DIRECTION('center_axis',(-1.,2.12007610813595E-32,0.));
#286=DIRECTION('ref_axis',(-2.12007610813595E-32,-1.,0.));
#287=DIRECTION('',(-0.707337202929882,0.706876284332224,8.65673779000633E-17));
#288=DIRECTION('center_axis',(1.,-2.12007610813595E-32,0.));
#289=DIRECTION('ref_axis',(0.,-1.,0.));
#290=DIRECTION('center_axis',(1.,-2.12007610813595E-32,0.));
#291=DIRECTION('ref_axis',(0.,-1.,0.));
#292=DIRECTION('center_axis',(1.,-2.12007610813595E-32,0.));
#293=DIRECTION('ref_axis',(0.,1.,0.));
#294=DIRECTION('',(-1.,2.12007610813595E-32,0.));
#295=DIRECTION('center_axis',(1.,-2.12007610813595E-32,0.));
#296=DIRECTION('ref_axis',(0.,1.,0.));
#297=DIRECTION('center_axis',(1.,-2.12007610813595E-32,0.));
#298=DIRECTION('ref_axis',(0.,0.,-1.));
#299=DIRECTION('center_axis',(0.,1.,1.38777878078145E-16));
#300=DIRECTION('ref_axis',(0.,-1.38777878078145E-16,1.));
#301=DIRECTION('',(-0.998592206011143,0.,0.0530434359162241));
#302=DIRECTION('',(2.94219663651278E-48,1.38777878078145E-16,-1.));
#303=DIRECTION('',(0.998592206011143,0.,0.0530434359162241));
#304=DIRECTION('center_axis',(0.,1.,1.38777878078145E-16));
#305=DIRECTION('ref_axis',(0.,1.38777878078145E-16,-1.));
#306=DIRECTION('center_axis',(0.,-1.,-1.04083408558608E-16));
#307=DIRECTION('ref_axis',(0.,1.04083408558608E-16,-1.));
#308=DIRECTION('',(0.998592206011145,0.,-0.0530434359161827));
#309=DIRECTION('center_axis',(0.,-1.,-1.04083408558608E-16));
#310=DIRECTION('ref_axis',(0.,-1.04083408558608E-16,1.));
#311=DIRECTION('',(-0.998592206011145,0.,-0.0530434359161827));
#312=DIRECTION('',(-2.20664747738459E-48,-1.04083408558608E-16,1.));
#313=DIRECTION('center_axis',(1.,-8.10078503937457E-32,-2.38036285261344E-32));
#314=DIRECTION('ref_axis',(-2.38036285261344E-32,0.,-1.));
#315=DIRECTION('center_axis',(1.,-8.10078503937457E-32,-2.38036285261344E-32));
#316=DIRECTION('ref_axis',(0.,1.,0.));
#317=DIRECTION('center_axis',(1.,-8.10078503937457E-32,-2.38036285261344E-32));
#318=DIRECTION('ref_axis',(0.,1.,0.));
#319=DIRECTION('center_axis',(1.,-2.12007610813595E-32,0.));
#320=DIRECTION('ref_axis',(0.,0.,-1.));
#321=DIRECTION('center_axis',(-1.,0.,0.));
#322=DIRECTION('ref_axis',(0.,-1.,0.));
#323=DIRECTION('center_axis',(-1.,0.,0.));
#324=DIRECTION('ref_axis',(0.,-1.,0.));
#325=DIRECTION('center_axis',(1.,-2.12007610813595E-32,0.));
#326=DIRECTION('ref_axis',(0.,-1.,1.22464679914735E-16));
#327=DIRECTION('center_axis',(1.,-2.12007610813595E-32,0.));
#328=DIRECTION('ref_axis',(0.,0.,-1.));
#329=DIRECTION('center_axis',(1.,-2.12007610813595E-32,0.));
#330=DIRECTION('ref_axis',(0.,-1.,1.22464679914735E-16));
#331=DIRECTION('center_axis',(-1.,0.,0.));
#332=DIRECTION('ref_axis',(0.,-1.,0.));
#333=DIRECTION('center_axis',(0.,0.,1.));
#334=DIRECTION('ref_axis',(1.,0.,0.));
#335=DIRECTION('center_axis',(0.,0.,1.));
#336=DIRECTION('ref_axis',(1.,0.,0.));
#337=DIRECTION('center_axis',(1.,-2.12007610813595E-32,0.));
#338=DIRECTION('ref_axis',(0.,1.,0.));
#339=DIRECTION('center_axis',(1.,-2.12007610813595E-32,0.));
#340=DIRECTION('ref_axis',(0.,1.,0.));
#341=DIRECTION('',(-0.998629534754574,0.0523359562429449,6.40930612932384E-18));
#342=DIRECTION('center_axis',(1.,-2.12007610813595E-32,0.));
#343=DIRECTION('ref_axis',(0.,0.,-1.));
#344=DIRECTION('center_axis',(1.,-2.12007610813595E-32,0.));
#345=DIRECTION('ref_axis',(0.,1.,0.));
#346=DIRECTION('center_axis',(1.,-2.12007610813595E-32,0.));
#347=DIRECTION('ref_axis',(0.,1.,0.));
#348=DIRECTION('center_axis',(1.,-2.12007610813595E-32,0.));
#349=DIRECTION('ref_axis',(0.,1.,0.));
#350=DIRECTION('',(-1.,2.12007610813595E-32,0.));
#351=DIRECTION('center_axis',(1.,-2.12007610813595E-32,0.));
#352=DIRECTION('ref_axis',(0.,1.,0.));
#353=DIRECTION('',(-0.894266779202167,0.447534275352607,5.480714178193E-17));
#354=CARTESIAN_POINT('',(0.,0.,0.));
#355=CARTESIAN_POINT('Origin',(3.92326875,-9.69567781295976E-32,0.));
#356=CARTESIAN_POINT('',(4.,0.346637499999998,-4.24508504839438E-17));
#357=CARTESIAN_POINT('Origin',(4.,-9.85835390283216E-32,0.));
#358=CARTESIAN_POINT('',(3.8465375,0.499999999999998,6.12323399573674E-17));
#359=CARTESIAN_POINT('',(3.92326875,0.423318749999998,5.18415952206556E-17));
#360=CARTESIAN_POINT('',(3.8465375,-0.499999999999998,-6.12323399573674E-17));
#361=CARTESIAN_POINT('Origin',(3.8465375,-9.53300172308735E-32,0.));
#362=CARTESIAN_POINT('Origin',(3.8465375,-9.53300172308735E-32,0.));
#363=CARTESIAN_POINT('Origin',(2.25,-6.14822071359425E-32,0.));
#364=CARTESIAN_POINT('',(0.499999999999999,-0.499999999999998,-6.12323399573674E-17));
#365=CARTESIAN_POINT('',(2.25,-0.499999999999998,-6.12323399573674E-17));
#366=CARTESIAN_POINT('Origin',(0.499999999999999,-2.43808752435634E-32,
0.));
#367=CARTESIAN_POINT('Origin',(4.,0.249999999999999,0.));
#368=CARTESIAN_POINT('Origin',(-0.649999999999998,0.16,-3.77144936661718E-16));
#369=CARTESIAN_POINT('',(-0.349999999999998,0.16,-0.968530335084926));
#370=CARTESIAN_POINT('',(-0.35333636176927,0.16,-0.968353113501745));
#371=CARTESIAN_POINT('',(-0.351668180884634,0.16,-0.968441724293335));
#372=CARTESIAN_POINT('',(-0.349999999999998,0.16,0.968530335084926));
#373=CARTESIAN_POINT('',(-0.349999999999998,0.16,1.));
#374=CARTESIAN_POINT('',(-0.35333636176927,0.16,0.968353113501744));
#375=CARTESIAN_POINT('',(-0.351668180884634,0.16,0.968441724293335));
#376=CARTESIAN_POINT('',(-0.637438367520102,0.16,0.674039727045961));
#377=CARTESIAN_POINT('Ctrl Pts',(-0.6374383675201,0.16,0.674039727045961));
#378=CARTESIAN_POINT('Ctrl Pts',(-0.636181484502069,0.16,0.709649398448814));
#379=CARTESIAN_POINT('Ctrl Pts',(-0.627492676419988,0.16,0.74950711402796));
#380=CARTESIAN_POINT('Ctrl Pts',(-0.600155865616747,0.16,0.816194847577459));
#381=CARTESIAN_POINT('Ctrl Pts',(-0.575366991684332,0.16,0.853774980296486));
#382=CARTESIAN_POINT('Ctrl Pts',(-0.522850544951317,0.16,0.906744035868169));
#383=CARTESIAN_POINT('Ctrl Pts',(-0.485972691993231,0.16,0.931629227000245));
#384=CARTESIAN_POINT('Ctrl Pts',(-0.422501203338556,0.16,0.958107628836379));
#385=CARTESIAN_POINT('Ctrl Pts',(-0.386344108856638,0.16,0.966599796618464));
#386=CARTESIAN_POINT('Ctrl Pts',(-0.35333636176927,0.16,0.968353113501745));
#387=CARTESIAN_POINT('',(-0.637438367520102,0.16,-0.674039727045961));
#388=CARTESIAN_POINT('Origin',(18.4592737753302,0.16,2.22044604925031E-17));
#389=CARTESIAN_POINT('Ctrl Pts',(-0.35333636176927,0.16,-0.968353113501744));
#390=CARTESIAN_POINT('Ctrl Pts',(-0.386344108856638,0.16,-0.966599796618464));
#391=CARTESIAN_POINT('Ctrl Pts',(-0.422501203338556,0.16,-0.958107628836379));
#392=CARTESIAN_POINT('Ctrl Pts',(-0.485972691993231,0.16,-0.931629227000245));
#393=CARTESIAN_POINT('Ctrl Pts',(-0.522850544951317,0.16,-0.906744035868169));
#394=CARTESIAN_POINT('Ctrl Pts',(-0.575366991684332,0.16,-0.853774980296486));
#395=CARTESIAN_POINT('Ctrl Pts',(-0.600155865616747,0.16,-0.816194847577459));
#396=CARTESIAN_POINT('Ctrl Pts',(-0.627492676419988,0.16,-0.74950711402796));
#397=CARTESIAN_POINT('Ctrl Pts',(-0.636181484502069,0.16,-0.709649398448814));
#398=CARTESIAN_POINT('Ctrl Pts',(-0.6374383675201,0.16,-0.674039727045961));
#399=CARTESIAN_POINT('Origin',(-0.649999999999998,-0.16,-4.16333634234434E-16));
#400=CARTESIAN_POINT('',(-0.35333636176927,-0.16,-0.968353113501745));
#401=CARTESIAN_POINT('',(-0.349999999999998,-0.16,-0.968530335084926));
#402=CARTESIAN_POINT('',(-0.351668180884634,-0.16,-0.968441724293335));
#403=CARTESIAN_POINT('',(-0.637438367520102,-0.16,-0.674039727045961));
#404=CARTESIAN_POINT('Ctrl Pts',(-0.6374383675201,-0.16,-0.674039727045961));
#405=CARTESIAN_POINT('Ctrl Pts',(-0.636181484502069,-0.16,-0.709649398448814));
#406=CARTESIAN_POINT('Ctrl Pts',(-0.627492676419988,-0.16,-0.74950711402796));
#407=CARTESIAN_POINT('Ctrl Pts',(-0.600155865616747,-0.16,-0.816194847577459));
#408=CARTESIAN_POINT('Ctrl Pts',(-0.575366991684332,-0.16,-0.853774980296486));
#409=CARTESIAN_POINT('Ctrl Pts',(-0.522850544951317,-0.16,-0.906744035868169));
#410=CARTESIAN_POINT('Ctrl Pts',(-0.485972691993231,-0.16,-0.931629227000245));
#411=CARTESIAN_POINT('Ctrl Pts',(-0.422501203338556,-0.16,-0.958107628836379));
#412=CARTESIAN_POINT('Ctrl Pts',(-0.386344108856638,-0.16,-0.966599796618465));
#413=CARTESIAN_POINT('Ctrl Pts',(-0.35333636176927,-0.16,-0.968353113501745));
#414=CARTESIAN_POINT('',(-0.637438367520102,-0.16,0.674039727045961));
#415=CARTESIAN_POINT('Origin',(18.4592737753302,-0.16,-1.66533453693773E-17));
#416=CARTESIAN_POINT('',(-0.35333636176927,-0.16,0.968353113501745));
#417=CARTESIAN_POINT('Ctrl Pts',(-0.35333636176927,-0.16,0.968353113501745));
#418=CARTESIAN_POINT('Ctrl Pts',(-0.386344108856638,-0.16,0.966599796618465));
#419=CARTESIAN_POINT('Ctrl Pts',(-0.422501203338556,-0.16,0.958107628836379));
#420=CARTESIAN_POINT('Ctrl Pts',(-0.485972691993231,-0.16,0.931629227000245));
#421=CARTESIAN_POINT('Ctrl Pts',(-0.522850544951317,-0.16,0.906744035868169));
#422=CARTESIAN_POINT('Ctrl Pts',(-0.575366991684332,-0.16,0.853774980296486));
#423=CARTESIAN_POINT('Ctrl Pts',(-0.600155865616747,-0.16,0.816194847577459));
#424=CARTESIAN_POINT('Ctrl Pts',(-0.627492676419988,-0.16,0.74950711402796));
#425=CARTESIAN_POINT('Ctrl Pts',(-0.636181484502069,-0.16,0.709649398448814));
#426=CARTESIAN_POINT('Ctrl Pts',(-0.6374383675201,-0.16,0.674039727045961));
#427=CARTESIAN_POINT('',(-0.349999999999998,-0.16,0.968530335084926));
#428=CARTESIAN_POINT('',(-0.351668180884634,-0.16,0.968441724293335));
#429=CARTESIAN_POINT('',(-0.349999999999998,-0.16,-1.));
#430=CARTESIAN_POINT('Origin',(-0.349999999999998,1.60461921527855E-16,
-5.03069808033274E-16));
#431=CARTESIAN_POINT('Origin',(-0.349999999999998,-6.36022832440785E-33,
0.));
#432=CARTESIAN_POINT('Origin',(-0.349999999999998,-6.36022832440785E-33,
0.));
#433=CARTESIAN_POINT('Origin',(-0.337635574896387,-6.62236354693788E-33,
0.));
#434=CARTESIAN_POINT('',(-0.35333636176927,-0.981482425939723,-1.20196931134646E-16));
#435=CARTESIAN_POINT('Origin',(-0.35333636176927,0.,-1.20196931134646E-16));
#436=CARTESIAN_POINT('Origin',(-0.35333636176927,0.,-1.20196931134646E-16));
#437=CARTESIAN_POINT('Origin',(-0.637438367520102,-6.72798745819633E-33,
0.));
#438=CARTESIAN_POINT('Origin',(-0.337635574896387,-6.62236354693788E-33,
0.));
#439=CARTESIAN_POINT('Origin',(-0.637438367520102,-6.72798745819633E-33,
0.));
#440=CARTESIAN_POINT('Origin',(-0.35333636176927,0.,-1.20196931134646E-16));
#441=CARTESIAN_POINT('Origin',(18.4592737753302,0.,0.));
#442=CARTESIAN_POINT('Origin',(18.4592737753302,0.,0.));
#443=CARTESIAN_POINT('Origin',(-0.312753174549268,-7.14988937182789E-33,
0.));
#444=CARTESIAN_POINT('',(1.80411241501588E-15,-1.,-1.22464679914735E-16));
#445=CARTESIAN_POINT('Origin',(1.66533453693773E-15,-1.37804947028837E-32,
0.));
#446=CARTESIAN_POINT('',(-0.312753174549268,-0.983609300658151,-1.20457398166257E-16));
#447=CARTESIAN_POINT('Origin',(1.66533453693773E-15,0.711625,0.));
#448=CARTESIAN_POINT('',(1.66533453693773E-15,-0.42325,-5.18331757739117E-17));
#449=CARTESIAN_POINT('Origin',(1.66533453693773E-15,-1.37804947028837E-32,
0.));
#450=CARTESIAN_POINT('Origin',(0.173318750000001,-1.74549841125535E-32,
0.));
#451=CARTESIAN_POINT('',(0.346637499999999,-0.42325,-5.18331757739117E-17));
#452=CARTESIAN_POINT('Origin',(0.346637499999999,-2.11294735222234E-32,
0.));
#453=CARTESIAN_POINT('',(0.173318750000001,-0.42325,-5.18331757739117E-17));
#454=CARTESIAN_POINT('Origin',(0.423318749999999,-2.27551743828934E-32,
0.));
#455=CARTESIAN_POINT('',(0.423318749999999,-0.461624999999999,-5.65327578656396E-17));
#456=UNCERTAINTY_MEASURE_WITH_UNIT(LENGTH_MEASURE(0.01),#460,
'DISTANCE_ACCURACY_VALUE',
'Maximum model space distance between geometric entities at asserted c
onnectivities');
#457=UNCERTAINTY_MEASURE_WITH_UNIT(LENGTH_MEASURE(0.01),#460,
'DISTANCE_ACCURACY_VALUE',
'Maximum model space distance between geometric entities at asserted c
onnectivities');
#458=(
GEOMETRIC_REPRESENTATION_CONTEXT(3)
GLOBAL_UNCERTAINTY_ASSIGNED_CONTEXT((#456))
GLOBAL_UNIT_ASSIGNED_CONTEXT((#460,#462,#463))
REPRESENTATION_CONTEXT('','3D')
);
#459=(
GEOMETRIC_REPRESENTATION_CONTEXT(3)
GLOBAL_UNCERTAINTY_ASSIGNED_CONTEXT((#457))
GLOBAL_UNIT_ASSIGNED_CONTEXT((#460,#462,#463))
REPRESENTATION_CONTEXT('','3D')
);
#460=(
LENGTH_UNIT()
NAMED_UNIT(*)
SI_UNIT(.MILLI.,.METRE.)
);
#461=(
LENGTH_UNIT()
NAMED_UNIT(*)
SI_UNIT(.CENTI.,.METRE.)
);
#462=(
NAMED_UNIT(*)
PLANE_ANGLE_UNIT()
SI_UNIT($,.RADIAN.)
);
#463=(
NAMED_UNIT(*)
SI_UNIT($,.STERADIAN.)
SOLID_ANGLE_UNIT()
);
#464=SHAPE_DEFINITION_REPRESENTATION(#465,#466);
#465=PRODUCT_DEFINITION_SHAPE('',$,#468);
#466=SHAPE_REPRESENTATION('',(#250),#458);
#467=PRODUCT_DEFINITION_CONTEXT('part definition',#472,'design');
#468=PRODUCT_DEFINITION('KS B 1021 - M 1 x 4','KS_B1021_M1x4',#469,#467);
#469=PRODUCT_DEFINITION_FORMATION('',$,#474);
#470=PRODUCT_RELATED_PRODUCT_CATEGORY('KS_B1021_M1x4','KS_B1021_M1x4',(#474));
#471=APPLICATION_PROTOCOL_DEFINITION('international standard',
'automotive_design',2009,#472);
#472=APPLICATION_CONTEXT(
'Core Data for Automotive Mechanical Design Process');
#473=PRODUCT_CONTEXT('part definition',#472,'mechanical');
#474=PRODUCT('KS B 1021 - M 1 x 4','KS_B1021_M1x4',
'Slotted head screws',(#473));
#475=PRESENTATION_STYLE_ASSIGNMENT((#476));
#476=SURFACE_STYLE_USAGE(.BOTH.,#479);
#477=SURFACE_STYLE_RENDERING_WITH_PROPERTIES($,#483,(#478));
#478=SURFACE_STYLE_TRANSPARENT(0.);
#479=SURFACE_SIDE_STYLE('',(#480,#477));
#480=SURFACE_STYLE_FILL_AREA(#481);
#481=FILL_AREA_STYLE('',(#482));
#482=FILL_AREA_STYLE_COLOUR('',#483);
#483=COLOUR_RGB('',0.745098039215686,0.737254901960784,0.729411764705882);
ENDSEC;
END-ISO-10303-21;
