M48
;Layer_Color=9474304
;FILE_FORMAT=4:4
METRIC,TZ
;TYPE=PLATED
T01F00S00C0.1000
%
T01
X26001Y264158
X29939Y262664
X34121Y263172
X37587Y265564
X44270Y267050
X48270
X52270
X56270
X60270
X64270
X68270
X72174Y267923
X75051Y270701
X76050Y274574
Y278574
X76374Y282572
X78839Y285722
X78862Y289722
Y293722
Y297722
X79108Y301714
X81000Y305239
Y309239
Y313239
X80313Y317179
X76656Y318800
X80147Y322296
X82976Y325124
X85804Y327952
X88633Y330781
X91461Y333609
X94290Y336438
X97118Y339266
X99946Y342095
X102775Y344923
X104986Y348257
X105350Y352240
Y356240
Y360240
Y364240
Y368240
Y372240
Y376240
Y380240
Y384240
Y388240
X96650
Y384240
Y380240
Y376240
Y372240
Y368240
Y364240
Y360240
Y356240
Y352240
X94448Y348900
X91620Y346072
X88792Y343243
X85963Y340415
X83135Y337587
X80306Y334758
X77478Y331930
X74650Y329101
X71821Y326273
X69018Y323420
X63756Y318800
X59756
X55756
X51756
X47766Y318519
X45411Y315285
X45400Y311285
Y307285
X45799Y303305
X49200Y301200
X55284
X59284
X63284Y301200
X64538Y297402
Y293402
Y289401
X64609Y285402
X67333Y282473
X67350Y278454
X64403Y275750
X60403
X56403
X52403Y275750
X48403
X44403
X37587Y277236
X34121Y279628
X29939Y280136
X26001Y278642
X23208Y275490
X22200Y271400
X23208Y267310
X23758Y338401
X22264Y342339
X22772Y346521
X25164Y349987
X26650Y354392
Y358392
Y362392
Y366392
Y370392
X26677Y374392
X28094Y378132
X30872Y381032
X29838Y384896
Y388896
Y392896
X44162Y394752
Y390752
Y386752
X44058Y382753
X41219Y379936
X38847Y376695
X36018Y373867
X35350Y369923
Y365923
Y361923
Y357923
Y353923
X36835Y349987
X39228Y346521
X39736Y342339
X38242Y338401
X35090Y335608
X31000Y334600
X26910Y335608
X117650Y336240
Y340240
Y344240
Y348240
Y352240
Y356240
Y360240
Y364240
Y368240
Y372240
Y376240
Y380240
Y384240
Y388240
X126350Y388820
Y384820
Y380820
Y376820
Y372820
Y368820
Y364820
Y360820
Y356820
Y352820
Y348820
Y344820
Y340820
Y336820
Y332820
X125593Y328893
X125200Y324912
X125212Y318800
X129212
X133212Y318800
X137212
X141212
X145184Y318328
X147150Y314844
Y310844
Y306844
X146514Y302895
X142890Y301200
X138890
X134890
X130890
X128012Y298422
Y294422
Y290422
Y286422
X126162Y282876
X125200Y278974
X127567Y275750
X131567
X135567
X139567
X143567Y275750
X147567
X151567
X157413Y277236
X160879Y279628
X165061Y280136
X168999Y278642
X171792Y275490
X172800Y271400
X171792Y267310
X168999Y264158
X165061Y262664
X160879Y263172
X157413Y265564
X152399Y267050
X148399
X144399
X140399
X136399
X132399
X128399
X124399
X120483Y267867
X117560Y270597
X116500Y274454
Y278454
X116490Y282471
X113761Y285395
X113688Y289395
Y293395
Y297395
Y301583
X111550Y304964
X111550Y308964
Y312964
X112077Y316930
X115612Y318800
X116500Y324332
Y328332
X117258Y332259
X156758Y338401
X155264Y342339
X155772Y346521
X158165Y349987
X159650Y356776
Y360776
Y364776
Y368776
Y372776
Y376776
X159109Y380739
X156280Y383568
X154022Y386888
X151007Y389517
X150838Y393513
X165162Y393765
X165061Y389766
X166216Y385936
X168155Y382437
X168350Y378442
Y374442
Y370442
Y366442
Y362442
Y358442
Y354442
X169835Y349987
X172228Y346521
X172736Y342339
X171242Y338401
X168090Y335608
X164000Y334600
X159910Y335608
X165162Y397765
Y401765
X165880Y405700
X169880
X173880
X177880
X181872Y405956
X184283Y409148
X184300Y413148
Y417148
X183932Y421131
X180571Y423299
X176571Y423300
X172571
X168571
X164571
X160571
X154260Y425850
X150260
X146260
X142260
X138260
X134260
Y417150
X138260
X142260
X148700Y416921
Y412921
X148744Y408922
X150838Y405513
Y401513
Y397513
X156758Y483401
X155264Y487339
X155772Y491521
X158165Y494987
X159650Y498720
Y502720
Y506720
X156146Y508650
X152146
X148146
X144146
X140146Y508650
X136146
X132146
X128146
X124146
X117083Y508635
X117162Y504636
Y500636
Y496636
X118295Y492800
X122295Y492800
X126295
X130295
X134271Y492362
X136300Y488914
Y484914
Y480914
X135705Y476959
X132113Y475200
X128113
X124113
X120113
X116113Y475200
X114350Y469751
Y465751
X114350Y461751
X105650Y461214
Y465215
Y469215
X105633Y475200
X101796Y476331
X100700Y480178
Y484178
Y488178
X102838Y492417
Y496417
Y500417
Y504417
X102878Y508417
X105457Y511474
X108099Y515477
X111693Y517233
X115692Y517350
X119692
X123692
X127692
X131692
X135692
X139692
X143692
X147692
X151692
X155692
X159692
X163660Y516852
X166854Y514444
X168315Y510720
X168350Y506720
Y502720
Y498720
X169835Y494987
X172228Y491521
X172736Y487339
X171242Y483401
X168090Y480608
X164000Y479600
X159910Y480608
X94300Y481390
Y485390
X94280Y489389
X92162Y492783
Y496783
Y500783
Y504783
X92050Y508781
X89184Y511572
X86901Y515478
X83307Y517233
X79308Y517350
X75308
X71308
X67308
X63308
X59308
X55308
X51308
X47308
X43308
X39308
X35308
X31340Y516852
X28145Y514444
X26685Y510720
X26650Y506720
Y502720
Y498720
X25164Y494987
X22772Y491521
X22264Y487339
X23758Y483401
X26910Y480608
X31000Y479600
X35090Y480608
X38242Y483401
X39736Y487339
X39228Y491521
X36835Y494987
X35350Y498720
Y502720
Y506720
X38854Y508650
X42854
X46854
X50854
X54854Y508650
X58854
X62853
X66853
X70854
X74854Y508650
X77838Y504659
Y500659
Y496659
X76785Y492800
X72786
X68786
X64785
X60805Y492401
X58700Y489000
Y483164
Y479164
X60659Y475676
X64630Y475200
X68630
X72630
X76630
X80630
X80650Y469751
Y465751
X80650Y461751
X89350Y461214
Y465215
Y469215
X90610Y475202
X93949Y477405
X88720Y457265
X86261Y454109
X108739
X106280Y457265
X60740Y418850
X56740
X52740
X48740
X44740
X40740
X36807Y418120
X32785Y416300
X28786
X24785
X20786
X16786
X12805Y415901
X10700Y412500
Y405006
X11002Y401017
X14267Y398707
X18268Y398700
X22267
X26267
X29838Y396896
X44162Y398752
X46283Y402144
X46300Y406143
Y410143
X52740Y410150
X56740
X60740
M30
