G04*
G04 #@! TF.GenerationSoftware,Altium Limited,Altium Designer,26.10.1 (5)*
G04*
G04 Layer_Color=16711935*
G04 Board_Origin=0|0*
%FSLAX44Y44*%
%MOMM*%
G71*
G04*
G04 #@! TF.SameCoordinates,5B830D5E-9024-4CFC-AD52-9D7A133CA71A*
G04*
G04*
G04 #@! TF.FilePolarity,Negative*
G04*
G01*
G75*
%ADD17C,1.1000*%
%ADD18C,3.1000*%
%ADD19C,5.1000*%
%ADD28R,1.0000X0.5000*%
%ADD29R,0.5000X1.0000*%
%ADD30R,1.1000X1.0000*%
%ADD31R,0.6725X0.7154*%
%ADD32R,0.7725X0.8154*%
G36*
X-500Y-500D02*
X195500D01*
Y679500D01*
X-500D01*
Y-500D01*
D02*
G37*
%LPC*%
G36*
X104000Y5000D02*
X16000D01*
Y91000D01*
X104000D01*
Y5000D01*
D02*
G37*
G36*
X17944Y250708D02*
X17552Y250735D01*
X17284Y250765D01*
X16969Y250812D01*
X16703Y250861D01*
X16392Y250931D01*
X16013Y251034D01*
X15640Y251155D01*
X15387Y251250D01*
X15092Y251372D01*
X14736Y251538D01*
X14389Y251721D01*
X14156Y251857D01*
X13825Y252069D01*
X13564Y252253D01*
X13349Y252416D01*
X13103Y252618D01*
X12900Y252797D01*
X12669Y253017D01*
X12397Y253300D01*
X12218Y253503D01*
X12016Y253749D01*
X11781Y254064D01*
X11561Y254389D01*
X11419Y254619D01*
X11228Y254961D01*
X11084Y255246D01*
X10972Y255492D01*
X10849Y255787D01*
X10755Y256040D01*
X10634Y256413D01*
X10531Y256792D01*
X10461Y257103D01*
X10392Y257490D01*
X10342Y257879D01*
X10312Y258271D01*
X10300Y258700D01*
X10300Y284137D01*
X10308Y284456D01*
X10325Y284725D01*
X10356Y285043D01*
X10392Y285310D01*
X10447Y285625D01*
X10503Y285889D01*
X10580Y286198D01*
X10655Y286457D01*
X10755Y286760D01*
X10849Y287013D01*
X10923Y287195D01*
X11053Y287487D01*
X11171Y287730D01*
X11262Y287903D01*
X11419Y288181D01*
X11561Y288411D01*
X11738Y288676D01*
X11896Y288895D01*
X12093Y289146D01*
X12218Y289297D01*
X12397Y289500D01*
X12617Y289731D01*
X12757Y289868D01*
X12955Y290052D01*
X13197Y290261D01*
X13349Y290384D01*
X13564Y290547D01*
X13825Y290731D01*
X14051Y290878D01*
X14325Y291042D01*
X14561Y291173D01*
X14736Y291262D01*
X15024Y291399D01*
X15205Y291477D01*
X15455Y291577D01*
X15756Y291684D01*
X15942Y291745D01*
X16202Y291820D01*
X16511Y291897D01*
X16775Y291953D01*
X17163Y292019D01*
X17479Y292058D01*
X17871Y292088D01*
X18263Y292100D01*
X40200Y292100D01*
Y322700D01*
X18300D01*
X17944Y322708D01*
X17552Y322735D01*
X17163Y322781D01*
X16896Y322824D01*
X16703Y322861D01*
X16392Y322931D01*
X16131Y323000D01*
X15942Y323055D01*
X15756Y323116D01*
X15455Y323223D01*
X15205Y323323D01*
X14913Y323452D01*
X14670Y323571D01*
X14389Y323721D01*
X14156Y323857D01*
X13989Y323961D01*
X13724Y324138D01*
X13505Y324296D01*
X13349Y324416D01*
X13103Y324618D01*
X12900Y324797D01*
X12669Y325017D01*
X12481Y325210D01*
X12348Y325355D01*
X12139Y325597D01*
X11971Y325807D01*
X11853Y325964D01*
X11669Y326225D01*
X11522Y326451D01*
X11419Y326619D01*
X11262Y326897D01*
X11138Y327136D01*
X11001Y327425D01*
X10923Y327605D01*
X10849Y327787D01*
X10755Y328040D01*
X10655Y328343D01*
X10549Y328721D01*
X10461Y329103D01*
X10412Y329369D01*
X10356Y329757D01*
X10325Y330075D01*
X10308Y330344D01*
X10300Y330700D01*
X10300Y356137D01*
X10308Y356456D01*
X10325Y356725D01*
X10356Y357043D01*
X10381Y357237D01*
X10412Y357431D01*
X10461Y357697D01*
X10531Y358008D01*
X10600Y358269D01*
X10716Y358644D01*
X10823Y358945D01*
X10895Y359127D01*
X11053Y359487D01*
X11171Y359730D01*
X11262Y359903D01*
X11457Y360244D01*
X11628Y360514D01*
X11738Y360676D01*
X11971Y360993D01*
X12093Y361147D01*
X12266Y361353D01*
X12531Y361643D01*
X12757Y361868D01*
X12900Y362003D01*
X13197Y362261D01*
X13407Y362429D01*
X13564Y362547D01*
X13724Y362662D01*
X13989Y362839D01*
X14325Y363042D01*
X14496Y363138D01*
X14736Y363262D01*
X15092Y363428D01*
X15455Y363577D01*
X15756Y363685D01*
X16013Y363766D01*
X16321Y363851D01*
X16703Y363939D01*
X16969Y363988D01*
X17357Y364044D01*
X17675Y364075D01*
X17944Y364092D01*
X18300Y364100D01*
X23900D01*
X23900Y373799D01*
X23911Y374222D01*
X23938Y374638D01*
X5500D01*
Y421500D01*
X38582D01*
X38921Y421542D01*
X39267Y421573D01*
X39606Y421592D01*
X39959Y421600D01*
X62500Y421600D01*
Y407400D01*
X51500D01*
Y374638D01*
X40679D01*
X38100Y372059D01*
Y364100D01*
X43700D01*
X44056Y364092D01*
X44447Y364065D01*
X44837Y364019D01*
X45104Y363976D01*
X45489Y363897D01*
X45869Y363800D01*
X46174Y363708D01*
X46545Y363577D01*
X46908Y363428D01*
X47154Y363316D01*
X47503Y363138D01*
X47675Y363042D01*
X47949Y362878D01*
X48175Y362731D01*
X48336Y362619D01*
X48593Y362429D01*
X48747Y362307D01*
X48897Y362182D01*
X49100Y362003D01*
X49243Y361868D01*
X49468Y361643D01*
X49603Y361500D01*
X49781Y361297D01*
X50029Y360993D01*
X50147Y360836D01*
X50331Y360575D01*
X50543Y360244D01*
X50642Y360075D01*
X50773Y359839D01*
X50862Y359664D01*
X50999Y359375D01*
X51077Y359195D01*
X51177Y358945D01*
X51308Y358574D01*
X51366Y358387D01*
X51451Y358079D01*
X51539Y357697D01*
X51608Y357310D01*
X51658Y356921D01*
X51688Y356529D01*
X51700Y356100D01*
Y330700D01*
X51688Y330271D01*
X51658Y329879D01*
X51619Y329563D01*
X51588Y329369D01*
X51514Y328983D01*
X51469Y328792D01*
X51400Y328531D01*
X51284Y328156D01*
X51177Y327855D01*
X51105Y327673D01*
X50947Y327313D01*
X50773Y326961D01*
X50679Y326789D01*
X50543Y326556D01*
X50331Y326225D01*
X50147Y325964D01*
X50029Y325807D01*
X49861Y325597D01*
X49734Y325447D01*
X49468Y325157D01*
X49190Y324881D01*
X48953Y324666D01*
X48804Y324539D01*
X48651Y324416D01*
X48436Y324253D01*
X48276Y324138D01*
X48071Y324000D01*
X66067D01*
X66226Y324253D01*
X66385Y324491D01*
X66555Y324730D01*
X66736Y324969D01*
X66915Y325192D01*
X67106Y325416D01*
X67298Y325629D01*
X67504Y325845D01*
X93900Y352241D01*
Y390000D01*
X108100D01*
X108100Y350466D01*
X108092Y350149D01*
X108076Y349844D01*
X108049Y349533D01*
X108013Y349218D01*
X107968Y348917D01*
X107912Y348604D01*
X107846Y348294D01*
X107772Y347991D01*
X107691Y347697D01*
X107598Y347399D01*
X107499Y347111D01*
X107388Y346819D01*
X107272Y346537D01*
X107144Y346253D01*
X107010Y345979D01*
X106865Y345702D01*
X106717Y345442D01*
X106559Y345181D01*
X106390Y344919D01*
X106216Y344668D01*
X106031Y344417D01*
X105842Y344178D01*
X105642Y343938D01*
X105439Y343711D01*
X105146Y343405D01*
X85741Y324000D01*
X86200D01*
Y277138D01*
X78800D01*
X78800Y274381D01*
Y274389D01*
X78800Y274371D01*
X78800Y274353D01*
X78800Y274318D01*
X78799Y274247D01*
X78796Y274107D01*
X78780Y273772D01*
X78755Y273443D01*
X78719Y273123D01*
X78672Y272796D01*
X78596Y272380D01*
X78503Y271968D01*
X78392Y271559D01*
X78265Y271156D01*
X78121Y270758D01*
X77960Y270367D01*
X77783Y269983D01*
X77590Y269606D01*
X77363Y269208D01*
X77126Y268831D01*
X76864Y268454D01*
X76589Y268094D01*
X76304Y267752D01*
X75994Y267414D01*
X75673Y267094D01*
X75335Y266785D01*
X74983Y266492D01*
X74617Y266215D01*
X74250Y265962D01*
X73862Y265719D01*
X73463Y265493D01*
X73059Y265289D01*
X72641Y265100D01*
X72226Y264936D01*
X71844Y264802D01*
X71444Y264680D01*
X71047Y264576D01*
X70651Y264490D01*
X70239Y264418D01*
X69832Y264364D01*
X69428Y264326D01*
X69011Y264305D01*
X68700Y264300D01*
X51700D01*
Y258700D01*
X51696Y258467D01*
X51681Y258148D01*
X51658Y257879D01*
X51619Y257563D01*
X51553Y257175D01*
X51497Y256911D01*
X51420Y256602D01*
X51345Y256343D01*
X51245Y256040D01*
X51150Y255787D01*
X50999Y255424D01*
X50829Y255070D01*
X50642Y254725D01*
X50439Y254389D01*
X50219Y254064D01*
X50104Y253905D01*
X49907Y253653D01*
X49652Y253355D01*
X49383Y253069D01*
X49100Y252797D01*
X48953Y252666D01*
X48747Y252493D01*
X48436Y252253D01*
X48114Y252028D01*
X47844Y251857D01*
X47675Y251758D01*
X47330Y251571D01*
X46975Y251401D01*
X46613Y251250D01*
X46360Y251155D01*
X45987Y251034D01*
X45679Y250949D01*
X45297Y250861D01*
X44910Y250792D01*
X44643Y250756D01*
X44252Y250719D01*
X43860Y250702D01*
X18300Y250700D01*
X17944Y250708D01*
D02*
G37*
G36*
X23900Y510024D02*
X23912Y510487D01*
X23946Y510962D01*
X24002Y511429D01*
X24080Y511899D01*
X24181Y512364D01*
X24303Y512824D01*
X24443Y513266D01*
X24607Y513712D01*
X24792Y514151D01*
X24998Y514580D01*
X25221Y514994D01*
X25466Y515402D01*
X25730Y515798D01*
X26005Y516171D01*
X26304Y516541D01*
X26621Y516897D01*
X26950Y517233D01*
X27299Y517557D01*
X27653Y517856D01*
X28030Y518147D01*
X28420Y518419D01*
X28823Y518672D01*
X29233Y518904D01*
X29657Y519119D01*
X30092Y519313D01*
X30535Y519487D01*
X30986Y519640D01*
X31431Y519768D01*
X31889Y519877D01*
X32357Y519965D01*
X32828Y520032D01*
X33289Y520075D01*
X33641Y520094D01*
X34000Y520100D01*
X82000D01*
X82288Y520096D01*
X82575Y520084D01*
X83062Y520044D01*
X83539Y519982D01*
X84020Y519896D01*
X84489Y519789D01*
X84959Y519657D01*
X85410Y519507D01*
X85859Y519333D01*
X86306Y519136D01*
X86736Y518921D01*
X87162Y518681D01*
X87569Y518426D01*
X87970Y518147D01*
X88351Y517853D01*
X88723Y517537D01*
X89075Y517208D01*
X89411Y516862D01*
X105589D01*
X105764Y517046D01*
X105938Y517220D01*
X106116Y517391D01*
X106299Y517557D01*
X106486Y517718D01*
X106676Y517875D01*
X106870Y518027D01*
X107068Y518175D01*
X107270Y518317D01*
X107475Y518455D01*
X107683Y518587D01*
X107894Y518714D01*
X108109Y518837D01*
X108326Y518954D01*
X108546Y519065D01*
X108769Y519171D01*
X108995Y519272D01*
X109222Y519367D01*
X109452Y519456D01*
X109684Y519540D01*
X109918Y519618D01*
X110154Y519691D01*
X110397Y519759D01*
X110636Y519819D01*
X110877Y519874D01*
X111119Y519923D01*
X111362Y519966D01*
X111606Y520003D01*
X111851Y520034D01*
X112096Y520060D01*
X112342Y520079D01*
X112589Y520092D01*
X113000Y520100D01*
X161047Y520100D01*
X161324Y520095D01*
X161593Y520083D01*
X161869Y520062D01*
X162137Y520036D01*
X162412Y520001D01*
X162678Y519960D01*
X162951Y519910D01*
X163214Y519854D01*
X163659Y519744D01*
X164093Y519615D01*
X164515Y519469D01*
X164941Y519300D01*
X165354Y519113D01*
X165763Y518907D01*
X166151Y518688D01*
X166536Y518448D01*
X166903Y518195D01*
X167265Y517922D01*
X167618Y517630D01*
X167948Y517331D01*
X168270Y517012D01*
X168580Y516675D01*
X168867Y516334D01*
X169144Y515974D01*
X169399Y515609D01*
X169642Y515227D01*
X169865Y514840D01*
X170073Y514438D01*
X170260Y514033D01*
X170431Y513614D01*
X170582Y513194D01*
X170715Y512761D01*
X170824Y512347D01*
X170917Y511916D01*
X170990Y511487D01*
X171045Y511050D01*
X171077Y510676D01*
X171096Y510288D01*
X171100Y510029D01*
X171100Y509100D01*
X176700D01*
X177129Y509088D01*
X177447Y509065D01*
X177716Y509035D01*
X178031Y508988D01*
X178297Y508939D01*
X178608Y508869D01*
X178869Y508800D01*
X179174Y508708D01*
X179430Y508620D01*
X179795Y508477D01*
X180154Y508316D01*
X180504Y508138D01*
X180844Y507943D01*
X181175Y507731D01*
X181495Y507504D01*
X181803Y507261D01*
X182100Y507003D01*
X182383Y506731D01*
X182652Y506445D01*
X182907Y506147D01*
X183147Y505836D01*
X183372Y505514D01*
X183581Y505181D01*
X183773Y504839D01*
X183948Y504487D01*
X184105Y504127D01*
X184177Y503945D01*
X184284Y503644D01*
X184400Y503269D01*
X184497Y502889D01*
X184576Y502504D01*
X184635Y502116D01*
X184675Y501725D01*
X184692Y501456D01*
X184698Y501259D01*
X184700Y475663D01*
X184697Y475467D01*
X184681Y475148D01*
X184644Y474757D01*
X184588Y474369D01*
X184553Y474175D01*
X184497Y473911D01*
X184420Y473602D01*
X184345Y473343D01*
X184244Y473040D01*
X184151Y472787D01*
X184028Y472492D01*
X183916Y472246D01*
X183773Y471961D01*
X183581Y471619D01*
X183439Y471389D01*
X183262Y471124D01*
X183029Y470807D01*
X182861Y470597D01*
X182652Y470355D01*
X182468Y470157D01*
X182243Y469931D01*
X182045Y469748D01*
X181803Y469539D01*
X181593Y469371D01*
X181276Y469138D01*
X181011Y468961D01*
X180781Y468819D01*
X180504Y468662D01*
X180264Y468538D01*
X179975Y468401D01*
X179727Y468295D01*
X179430Y468180D01*
X179174Y468092D01*
X178869Y468000D01*
X178608Y467931D01*
X178297Y467861D01*
X177910Y467792D01*
X177643Y467756D01*
X177325Y467725D01*
X177129Y467712D01*
X176700Y467700D01*
X151300D01*
X150871Y467712D01*
X150553Y467735D01*
X150284Y467765D01*
X149969Y467812D01*
X149703Y467861D01*
X149392Y467931D01*
X149131Y468000D01*
X148826Y468092D01*
X148570Y468180D01*
X148273Y468295D01*
X148025Y468401D01*
X147736Y468538D01*
X147497Y468662D01*
X147219Y468819D01*
X146989Y468961D01*
X146724Y469138D01*
X146505Y469296D01*
X146196Y469539D01*
X146047Y469666D01*
X145810Y469881D01*
X145617Y470069D01*
X145481Y470210D01*
X145218Y470503D01*
X144971Y470807D01*
X144853Y470964D01*
X144669Y471225D01*
X144457Y471556D01*
X144358Y471725D01*
X144228Y471961D01*
X144052Y472313D01*
X143923Y472605D01*
X143849Y472787D01*
X143756Y473040D01*
X143692Y473226D01*
X143580Y473602D01*
X143531Y473792D01*
X143461Y474103D01*
X143392Y474490D01*
X143365Y474684D01*
X143335Y474953D01*
X143308Y475344D01*
X143300Y475700D01*
Y501100D01*
X143312Y501529D01*
X143335Y501847D01*
X143365Y502116D01*
X143412Y502431D01*
X143461Y502697D01*
X143531Y503008D01*
X143600Y503269D01*
X143692Y503574D01*
X143780Y503830D01*
X143895Y504127D01*
X144001Y504375D01*
X144138Y504664D01*
X144262Y504903D01*
X144419Y505181D01*
X144561Y505411D01*
X144738Y505676D01*
X144900Y505900D01*
X141500D01*
Y470000D01*
X117100D01*
Y461941D01*
X118675Y460366D01*
X118990Y460033D01*
X119252Y459731D01*
X119498Y459425D01*
X119736Y459103D01*
X119955Y458782D01*
X117331Y460000D01*
X102903D01*
X102900Y470000D01*
X92100Y470000D01*
X92097Y460000D01*
X77669D01*
X75045Y458782D01*
X75264Y459103D01*
X75502Y459425D01*
X75748Y459731D01*
X76010Y460033D01*
X76325Y460366D01*
X77900Y461941D01*
Y470000D01*
X53500D01*
Y505900D01*
X50100D01*
X50262Y505676D01*
X50439Y505411D01*
X50581Y505181D01*
X50738Y504903D01*
X50862Y504664D01*
X50999Y504375D01*
X51105Y504127D01*
X51220Y503830D01*
X51308Y503574D01*
X51400Y503269D01*
X51469Y503008D01*
X51539Y502697D01*
X51588Y502431D01*
X51635Y502116D01*
X51665Y501847D01*
X51688Y501529D01*
X51700Y501100D01*
X51700Y475663D01*
X51688Y475271D01*
X51665Y474953D01*
X51619Y474563D01*
X51576Y474296D01*
X51497Y473911D01*
X51400Y473531D01*
X51308Y473226D01*
X51177Y472855D01*
X51028Y472492D01*
X50916Y472246D01*
X50738Y471896D01*
X50543Y471556D01*
X50331Y471225D01*
X50147Y470964D01*
X49984Y470749D01*
X49734Y470447D01*
X49519Y470210D01*
X49243Y469931D01*
X48953Y469666D01*
X48651Y469416D01*
X48336Y469181D01*
X48011Y468961D01*
X47675Y468758D01*
X47330Y468571D01*
X46975Y468401D01*
X46613Y468250D01*
X46244Y468116D01*
X45869Y468000D01*
X45489Y467903D01*
X45104Y467824D01*
X44716Y467765D01*
X44325Y467725D01*
X44056Y467708D01*
X43700Y467700D01*
X18263Y467700D01*
X17944Y467708D01*
X17748Y467719D01*
X17357Y467756D01*
X16969Y467812D01*
X16775Y467847D01*
X16511Y467903D01*
X16202Y467980D01*
X15942Y468055D01*
X15640Y468156D01*
X15387Y468250D01*
X15092Y468372D01*
X14846Y468484D01*
X14561Y468628D01*
X14325Y468758D01*
X14051Y468922D01*
X13825Y469069D01*
X13564Y469253D01*
X13349Y469416D01*
X13103Y469618D01*
X12900Y469797D01*
X12669Y470017D01*
X12481Y470210D01*
X12266Y470447D01*
X12093Y470653D01*
X11896Y470905D01*
X11738Y471124D01*
X11561Y471389D01*
X11419Y471619D01*
X11262Y471896D01*
X11138Y472136D01*
X11001Y472425D01*
X10923Y472605D01*
X10823Y472855D01*
X10716Y473156D01*
X10634Y473413D01*
X10549Y473721D01*
X10487Y473983D01*
X10424Y474296D01*
X10381Y474563D01*
X10335Y474953D01*
X10308Y475344D01*
X10300Y475700D01*
Y501100D01*
X10308Y501456D01*
X10335Y501847D01*
X10381Y502237D01*
X10424Y502504D01*
X10461Y502697D01*
X10531Y503008D01*
X10634Y503387D01*
X10755Y503760D01*
X10849Y504013D01*
X10923Y504195D01*
X11084Y504554D01*
X11171Y504730D01*
X11321Y505011D01*
X11522Y505349D01*
X11669Y505575D01*
X11781Y505736D01*
X12016Y506051D01*
X12218Y506297D01*
X12348Y506445D01*
X12617Y506731D01*
X12757Y506868D01*
X12955Y507052D01*
X13253Y507307D01*
X13407Y507429D01*
X13664Y507619D01*
X13989Y507839D01*
X14219Y507980D01*
X14389Y508079D01*
X14736Y508262D01*
X15092Y508428D01*
X15455Y508577D01*
X15826Y508708D01*
X16202Y508820D01*
X16511Y508897D01*
X16703Y508939D01*
X17090Y509008D01*
X17479Y509058D01*
X17871Y509088D01*
X18263Y509100D01*
X23900Y509100D01*
X23900Y510024D01*
D02*
G37*
G36*
X17944Y542708D02*
X17552Y542735D01*
X17284Y542765D01*
X16969Y542812D01*
X16583Y542887D01*
X16202Y542980D01*
X15942Y543055D01*
X15570Y543180D01*
X15273Y543295D01*
X14913Y543452D01*
X14670Y543571D01*
X14389Y543721D01*
X14051Y543922D01*
X13724Y544138D01*
X13505Y544296D01*
X13197Y544539D01*
X12955Y544748D01*
X12757Y544931D01*
X12481Y545210D01*
X12266Y545447D01*
X12016Y545749D01*
X11853Y545964D01*
X11628Y546286D01*
X11457Y546556D01*
X11262Y546896D01*
X11084Y547246D01*
X10972Y547492D01*
X10849Y547787D01*
X10716Y548156D01*
X10634Y548413D01*
X10531Y548792D01*
X10447Y549175D01*
X10392Y549490D01*
X10356Y549757D01*
X10325Y550075D01*
X10308Y550344D01*
X10300Y550700D01*
Y576100D01*
X10312Y576529D01*
X10335Y576847D01*
X10365Y577116D01*
X10412Y577431D01*
X10461Y577697D01*
X10549Y578079D01*
X10634Y578387D01*
X10716Y578644D01*
X10823Y578945D01*
X10923Y579195D01*
X11053Y579487D01*
X11171Y579730D01*
X11321Y580011D01*
X11457Y580244D01*
X11628Y580514D01*
X11781Y580736D01*
X11971Y580993D01*
X12093Y581147D01*
X12266Y581353D01*
X12531Y581643D01*
X12810Y581919D01*
X13047Y582133D01*
X13197Y582261D01*
X13505Y582504D01*
X13664Y582619D01*
X13886Y582772D01*
X14219Y582980D01*
X14561Y583172D01*
X14913Y583347D01*
X15092Y583428D01*
X15387Y583550D01*
X15756Y583685D01*
X16013Y583766D01*
X16202Y583820D01*
X16511Y583897D01*
X16703Y583939D01*
X17090Y584008D01*
X17479Y584058D01*
X17675Y584075D01*
X17944Y584092D01*
X18300Y584100D01*
X43700D01*
X44129Y584088D01*
X44447Y584065D01*
X44716Y584035D01*
X45031Y583988D01*
X45297Y583939D01*
X45608Y583869D01*
X45869Y583800D01*
X46174Y583708D01*
X46545Y583577D01*
X46795Y583477D01*
X47087Y583347D01*
X47330Y583229D01*
X47611Y583079D01*
X47844Y582943D01*
X48114Y582772D01*
X48336Y582619D01*
X48593Y582429D01*
X48897Y582182D01*
X49100Y582003D01*
X49243Y581868D01*
X49383Y581731D01*
X49603Y581500D01*
X49861Y581203D01*
X50104Y580895D01*
X50262Y580676D01*
X50372Y580514D01*
X50581Y580181D01*
X50738Y579903D01*
X50829Y579730D01*
X50999Y579375D01*
X51077Y579195D01*
X51177Y578945D01*
X51284Y578644D01*
X51345Y578457D01*
X51451Y578079D01*
X51539Y577697D01*
X51608Y577310D01*
X51658Y576921D01*
X51681Y576652D01*
X51692Y576456D01*
X51700Y576100D01*
Y550700D01*
X51688Y550271D01*
X51665Y549953D01*
X51635Y549684D01*
X51588Y549369D01*
X51539Y549103D01*
X51469Y548792D01*
X51366Y548413D01*
X51284Y548156D01*
X51177Y547855D01*
X51077Y547605D01*
X50947Y547313D01*
X50829Y547070D01*
X50679Y546789D01*
X50543Y546556D01*
X50372Y546286D01*
X50219Y546064D01*
X50029Y545807D01*
X49781Y545503D01*
X49519Y545210D01*
X49243Y544931D01*
X49100Y544797D01*
X48897Y544618D01*
X48593Y544371D01*
X48276Y544138D01*
X47949Y543922D01*
X47611Y543721D01*
X47264Y543538D01*
X46908Y543372D01*
X46545Y543223D01*
X46244Y543116D01*
X46057Y543055D01*
X45869Y543000D01*
X45608Y542931D01*
X45225Y542847D01*
X44837Y542781D01*
X44447Y542735D01*
X44056Y542708D01*
X43700Y542700D01*
X18300D01*
X17944Y542708D01*
D02*
G37*
G36*
X150944Y250708D02*
X150748Y250719D01*
X150479Y250742D01*
X150163Y250781D01*
X149969Y250812D01*
X149703Y250861D01*
X149511Y250903D01*
X149202Y250980D01*
X149013Y251034D01*
X148756Y251115D01*
X148570Y251180D01*
X148387Y251250D01*
X148092Y251372D01*
X147846Y251484D01*
X147561Y251628D01*
X147389Y251721D01*
X147156Y251857D01*
X146886Y252028D01*
X146724Y252138D01*
X146505Y252296D01*
X146253Y252493D01*
X146103Y252618D01*
X145900Y252797D01*
X145757Y252931D01*
X145532Y253157D01*
X145348Y253355D01*
X145139Y253596D01*
X145016Y253749D01*
X144853Y253964D01*
X144738Y254124D01*
X144561Y254389D01*
X144419Y254619D01*
X144321Y254789D01*
X144138Y255136D01*
X143972Y255492D01*
X143823Y255855D01*
X143692Y256226D01*
X143580Y256602D01*
X143486Y256983D01*
X143447Y257175D01*
X143392Y257490D01*
X143342Y257879D01*
X143312Y258271D01*
X143300Y258663D01*
X143300Y264300D01*
X123850D01*
X123597Y264303D01*
X123210Y264320D01*
X122823Y264352D01*
X122438Y264399D01*
X122050Y264462D01*
X121670Y264538D01*
X121281Y264632D01*
X120908Y264738D01*
X120534Y264860D01*
X120105Y265020D01*
X119683Y265200D01*
X119270Y265398D01*
X118856Y265621D01*
X118463Y265857D01*
X118076Y266113D01*
X117697Y266391D01*
X117340Y266678D01*
X116996Y266982D01*
X116663Y267304D01*
X116340Y267646D01*
X116041Y267994D01*
X115759Y268355D01*
X115493Y268728D01*
X115244Y269113D01*
X115011Y269513D01*
X114808Y269899D01*
X114626Y270286D01*
X114457Y270688D01*
X114308Y271089D01*
X114178Y271492D01*
X114061Y271911D01*
X113965Y272328D01*
X113885Y272757D01*
X113836Y273088D01*
X113798Y273421D01*
X113771Y273754D01*
X113755Y274089D01*
X113750Y274389D01*
X113750Y277138D01*
X106350D01*
Y324000D01*
X113750D01*
X113750Y329460D01*
X113756Y329687D01*
X113767Y329924D01*
X113785Y330150D01*
X113809Y330389D01*
X113871Y330818D01*
X113955Y331245D01*
X114060Y331666D01*
X114186Y332082D01*
X114333Y332490D01*
X114500Y332891D01*
X114687Y333283D01*
X114900Y333675D01*
Y390000D01*
X125443D01*
X129034Y397460D01*
X129066Y397196D01*
X129081Y397022D01*
X129098Y396674D01*
X129100Y396500D01*
X129099Y331645D01*
X129091Y331373D01*
X129074Y331104D01*
X129048Y330824D01*
X129014Y330556D01*
X128971Y330287D01*
X128920Y330023D01*
X128861Y329759D01*
X128791Y329487D01*
X128715Y329228D01*
X128631Y328969D01*
X128539Y328716D01*
X128434Y328454D01*
X128327Y328207D01*
X128210Y327961D01*
X128087Y327721D01*
X127950Y327475D01*
Y324000D01*
X146929D01*
X146724Y324138D01*
X146564Y324253D01*
X146349Y324416D01*
X146196Y324539D01*
X146047Y324666D01*
X145810Y324881D01*
X145532Y325157D01*
X145397Y325300D01*
X145218Y325503D01*
X144971Y325807D01*
X144853Y325964D01*
X144669Y326225D01*
X144457Y326556D01*
X144358Y326725D01*
X144228Y326961D01*
X144052Y327313D01*
X143895Y327673D01*
X143823Y327855D01*
X143715Y328156D01*
X143600Y328531D01*
X143531Y328792D01*
X143486Y328983D01*
X143424Y329296D01*
X143392Y329490D01*
X143342Y329879D01*
X143312Y330271D01*
X143300Y330700D01*
Y356100D01*
X143308Y356456D01*
X143335Y356847D01*
X143381Y357237D01*
X143424Y357504D01*
X143461Y357697D01*
X143531Y358008D01*
X143600Y358269D01*
X143655Y358457D01*
X143715Y358644D01*
X143823Y358945D01*
X143972Y359308D01*
X144052Y359487D01*
X144171Y359730D01*
X144262Y359903D01*
X144419Y360181D01*
X144628Y360514D01*
X144738Y360676D01*
X144896Y360895D01*
X145139Y361203D01*
X145348Y361445D01*
X145481Y361590D01*
X145617Y361731D01*
X145810Y361919D01*
X146047Y362133D01*
X146196Y362261D01*
X146349Y362384D01*
X146564Y362547D01*
X146724Y362662D01*
X146989Y362839D01*
X147156Y362943D01*
X147389Y363079D01*
X147736Y363262D01*
X148092Y363428D01*
X148455Y363577D01*
X148826Y363708D01*
X149131Y363800D01*
X149511Y363897D01*
X149775Y363953D01*
X150163Y364019D01*
X150553Y364065D01*
X150944Y364092D01*
X151300Y364100D01*
X156900D01*
Y379059D01*
X154321Y381638D01*
X143500D01*
Y414400D01*
X132500D01*
Y428600D01*
X155041Y428600D01*
X155394Y428592D01*
X155733Y428573D01*
X156079Y428542D01*
X156418Y428500D01*
X189500D01*
Y381638D01*
X171062D01*
X171090Y381209D01*
X171100Y380781D01*
X171100Y364100D01*
X176700D01*
X177056Y364092D01*
X177325Y364075D01*
X177643Y364044D01*
X178031Y363988D01*
X178297Y363939D01*
X178680Y363851D01*
X179058Y363745D01*
X179360Y363644D01*
X179613Y363550D01*
X179975Y363399D01*
X180154Y363316D01*
X180439Y363172D01*
X180675Y363042D01*
X180844Y362943D01*
X181011Y362839D01*
X181276Y362662D01*
X181593Y362429D01*
X181897Y362182D01*
X182100Y362003D01*
X182243Y361868D01*
X182519Y361590D01*
X182652Y361445D01*
X182861Y361203D01*
X183104Y360895D01*
X183262Y360676D01*
X183372Y360514D01*
X183581Y360181D01*
X183738Y359903D01*
X183829Y359730D01*
X183999Y359375D01*
X184077Y359195D01*
X184177Y358945D01*
X184284Y358644D01*
X184345Y358457D01*
X184400Y358269D01*
X184469Y358008D01*
X184539Y357697D01*
X184576Y357504D01*
X184635Y357116D01*
X184658Y356921D01*
X184681Y356652D01*
X184697Y356333D01*
X184700Y356137D01*
Y330663D01*
X184692Y330344D01*
X184665Y329953D01*
X184635Y329684D01*
X184588Y329369D01*
X184539Y329103D01*
X184451Y328721D01*
X184366Y328413D01*
X184244Y328040D01*
X184151Y327787D01*
X184028Y327492D01*
X183948Y327313D01*
X183829Y327070D01*
X183738Y326897D01*
X183581Y326619D01*
X183478Y326451D01*
X183331Y326225D01*
X183147Y325964D01*
X183029Y325807D01*
X182861Y325597D01*
X182652Y325355D01*
X182468Y325157D01*
X182331Y325017D01*
X182100Y324797D01*
X181897Y324618D01*
X181747Y324493D01*
X181495Y324296D01*
X181276Y324138D01*
X181011Y323961D01*
X180781Y323819D01*
X180504Y323662D01*
X180330Y323571D01*
X180087Y323452D01*
X179795Y323323D01*
X179545Y323223D01*
X179244Y323116D01*
X179058Y323055D01*
X178798Y322980D01*
X178489Y322903D01*
X178297Y322861D01*
X178031Y322812D01*
X177643Y322756D01*
X177325Y322725D01*
X177056Y322708D01*
X176700Y322700D01*
X152350D01*
Y292100D01*
X176700D01*
X177056Y292092D01*
X177325Y292075D01*
X177716Y292035D01*
X178031Y291988D01*
X178417Y291914D01*
X178798Y291820D01*
X179174Y291707D01*
X179545Y291577D01*
X179908Y291428D01*
X180264Y291262D01*
X180504Y291138D01*
X180844Y290943D01*
X181175Y290731D01*
X181495Y290504D01*
X181803Y290261D01*
X182100Y290003D01*
X182383Y289731D01*
X182603Y289500D01*
X182861Y289203D01*
X183029Y288993D01*
X183262Y288676D01*
X183439Y288411D01*
X183642Y288075D01*
X183773Y287839D01*
X183948Y287487D01*
X184077Y287195D01*
X184220Y286830D01*
X184308Y286574D01*
X184420Y286198D01*
X184497Y285889D01*
X184576Y285504D01*
X184619Y285237D01*
X184658Y284921D01*
X184688Y284529D01*
X184700Y284100D01*
X184700Y258663D01*
X184697Y258467D01*
X184681Y258148D01*
X184644Y257757D01*
X184588Y257369D01*
X184513Y256983D01*
X184451Y256721D01*
X184366Y256413D01*
X184284Y256156D01*
X184177Y255855D01*
X184077Y255605D01*
X183948Y255313D01*
X183829Y255070D01*
X183679Y254789D01*
X183543Y254556D01*
X183372Y254286D01*
X183219Y254064D01*
X183029Y253807D01*
X182861Y253596D01*
X182652Y253355D01*
X182468Y253157D01*
X182243Y252931D01*
X182045Y252748D01*
X181803Y252539D01*
X181651Y252416D01*
X181436Y252253D01*
X181175Y252069D01*
X180949Y251922D01*
X180675Y251758D01*
X180439Y251628D01*
X180154Y251484D01*
X179908Y251372D01*
X179613Y251250D01*
X179360Y251155D01*
X179058Y251055D01*
X178798Y250980D01*
X178489Y250903D01*
X178225Y250847D01*
X177837Y250781D01*
X177447Y250735D01*
X177056Y250708D01*
X176700Y250700D01*
X151300D01*
X150944Y250708D01*
D02*
G37*
G36*
X150871Y542712D02*
X150479Y542742D01*
X150163Y542781D01*
X149896Y542824D01*
X149583Y542887D01*
X149202Y542980D01*
X148943Y543055D01*
X148570Y543180D01*
X148273Y543295D01*
X147913Y543452D01*
X147670Y543571D01*
X147389Y543721D01*
X147051Y543922D01*
X146724Y544138D01*
X146505Y544296D01*
X146196Y544539D01*
X145955Y544748D01*
X145757Y544931D01*
X145481Y545210D01*
X145218Y545503D01*
X145016Y545749D01*
X144853Y545964D01*
X144628Y546286D01*
X144419Y546619D01*
X144262Y546896D01*
X144084Y547246D01*
X143972Y547492D01*
X143849Y547787D01*
X143715Y548156D01*
X143600Y548531D01*
X143531Y548792D01*
X143461Y549103D01*
X143392Y549490D01*
X143356Y549757D01*
X143325Y550075D01*
X143308Y550344D01*
X143300Y550700D01*
Y576100D01*
X143312Y576529D01*
X143335Y576847D01*
X143365Y577116D01*
X143412Y577431D01*
X143461Y577697D01*
X143531Y578008D01*
X143600Y578269D01*
X143692Y578574D01*
X143823Y578945D01*
X143923Y579195D01*
X144052Y579487D01*
X144171Y579730D01*
X144321Y580011D01*
X144457Y580244D01*
X144628Y580514D01*
X144781Y580736D01*
X144971Y580993D01*
X145218Y581297D01*
X145397Y581500D01*
X145532Y581643D01*
X145810Y581919D01*
X146047Y582133D01*
X146196Y582261D01*
X146505Y582504D01*
X146825Y582731D01*
X147051Y582878D01*
X147219Y582980D01*
X147561Y583172D01*
X147913Y583347D01*
X148092Y583428D01*
X148387Y583550D01*
X148570Y583620D01*
X148826Y583708D01*
X149202Y583820D01*
X149511Y583897D01*
X149703Y583939D01*
X150090Y584008D01*
X150479Y584058D01*
X150675Y584075D01*
X150944Y584092D01*
X151300Y584100D01*
X176700D01*
X177129Y584088D01*
X177447Y584065D01*
X177716Y584035D01*
X178031Y583988D01*
X178297Y583939D01*
X178608Y583869D01*
X178869Y583800D01*
X179174Y583708D01*
X179545Y583577D01*
X179795Y583477D01*
X180087Y583347D01*
X180330Y583229D01*
X180611Y583079D01*
X180844Y582943D01*
X181114Y582772D01*
X181336Y582619D01*
X181593Y582429D01*
X181897Y582182D01*
X182100Y582003D01*
X182243Y581868D01*
X182519Y581590D01*
X182652Y581445D01*
X182861Y581203D01*
X183104Y580895D01*
X183331Y580575D01*
X183478Y580349D01*
X183581Y580181D01*
X183773Y579839D01*
X183862Y579664D01*
X183999Y579375D01*
X184151Y579013D01*
X184284Y578644D01*
X184366Y578387D01*
X184420Y578198D01*
X184469Y578008D01*
X184539Y577697D01*
X184608Y577310D01*
X184658Y576921D01*
X184675Y576725D01*
X184692Y576456D01*
X184700Y576100D01*
Y550700D01*
X184688Y550271D01*
X184665Y549953D01*
X184635Y549684D01*
X184588Y549369D01*
X184539Y549103D01*
X184469Y548792D01*
X184400Y548531D01*
X184284Y548156D01*
X184177Y547855D01*
X184077Y547605D01*
X183948Y547313D01*
X183829Y547070D01*
X183679Y546789D01*
X183543Y546556D01*
X183372Y546286D01*
X183219Y546064D01*
X183029Y545807D01*
X182782Y545503D01*
X182603Y545300D01*
X182468Y545157D01*
X182190Y544881D01*
X181897Y544618D01*
X181593Y544371D01*
X181276Y544138D01*
X180949Y543922D01*
X180675Y543758D01*
X180504Y543662D01*
X180154Y543484D01*
X179795Y543323D01*
X179430Y543180D01*
X179058Y543055D01*
X178869Y543000D01*
X178608Y542931D01*
X178225Y542847D01*
X177837Y542781D01*
X177447Y542735D01*
X177056Y542708D01*
X176700Y542700D01*
X151300D01*
X150871Y542712D01*
D02*
G37*
%LPD*%
D17*
X151300Y284100D02*
D03*
Y258700D02*
D03*
X176700Y284100D02*
D03*
Y258700D02*
D03*
X164000Y271400D02*
D03*
X151300Y356100D02*
D03*
Y330700D02*
D03*
X176700Y356100D02*
D03*
Y330700D02*
D03*
X164000Y343400D02*
D03*
X151300Y501100D02*
D03*
Y475700D02*
D03*
X176700Y501100D02*
D03*
Y475700D02*
D03*
X164000Y488400D02*
D03*
X18300Y501100D02*
D03*
Y475700D02*
D03*
X43700Y501100D02*
D03*
Y475700D02*
D03*
X31000Y488400D02*
D03*
X18300Y576100D02*
D03*
Y550700D02*
D03*
X43700Y576100D02*
D03*
Y550700D02*
D03*
X31000Y563400D02*
D03*
X151300Y576100D02*
D03*
Y550700D02*
D03*
X176700Y576100D02*
D03*
Y550700D02*
D03*
X164000Y563400D02*
D03*
X31000Y271400D02*
D03*
X18300Y284100D02*
D03*
Y258700D02*
D03*
X43700Y284100D02*
D03*
Y258700D02*
D03*
X31000Y343400D02*
D03*
X18300Y356100D02*
D03*
Y330700D02*
D03*
X43700Y356100D02*
D03*
Y330700D02*
D03*
D18*
X24250Y653400D02*
D03*
X170750D02*
D03*
Y131900D02*
D03*
X24250D02*
D03*
D19*
X160750Y180900D02*
D03*
X34250D02*
D03*
D28*
X69000Y449500D02*
D03*
Y442500D02*
D03*
Y435500D02*
D03*
Y428500D02*
D03*
Y421500D02*
D03*
Y414500D02*
D03*
Y407500D02*
D03*
X126000D02*
D03*
Y414500D02*
D03*
Y421500D02*
D03*
Y428500D02*
D03*
Y435500D02*
D03*
Y442500D02*
D03*
Y449500D02*
D03*
D29*
X80500Y453500D02*
D03*
X73000Y396500D02*
D03*
X80000D02*
D03*
X87000D02*
D03*
X94000D02*
D03*
X101000D02*
D03*
X108000D02*
D03*
X115000D02*
D03*
X122000D02*
D03*
X114500Y453500D02*
D03*
D30*
X85000Y484000D02*
D03*
X68000D02*
D03*
X110000D02*
D03*
X127000Y484000D02*
D03*
X158000Y414500D02*
D03*
X175000D02*
D03*
X120850Y310000D02*
D03*
X137850Y310000D02*
D03*
X71700Y310000D02*
D03*
X54700Y310000D02*
D03*
X37000Y407500D02*
D03*
X20000D02*
D03*
D31*
X85000Y504286D02*
D03*
Y494714D02*
D03*
X110000Y504286D02*
D03*
X110000Y494714D02*
D03*
X158000Y394214D02*
D03*
Y403786D02*
D03*
X120850Y289714D02*
D03*
X71700D02*
D03*
X37000Y387214D02*
D03*
Y396786D02*
D03*
D32*
X120850Y299286D02*
D03*
X71700D02*
D03*
M02*
