G04*
G04 #@! TF.GenerationSoftware,Altium Limited,Altium Designer,26.10.1 (5)*
G04*
G04 Layer_Physical_Order=2*
G04 Layer_Color=36540*
G04 Board_Origin=0|0*
%FSLAX44Y44*%
%MOMM*%
G71*
G04*
G04 #@! TF.SameCoordinates,5B830D5E-9024-4CFC-AD52-9D7A133CA71A*
G04*
G04*
G04 #@! TF.FilePolarity,Positive*
G04*
G01*
G75*
%ADD21C,1.0000*%
%ADD22C,3.0000*%
%ADD23C,5.0000*%
%ADD24C,0.5000*%
%ADD25C,0.1250*%
D21*
X151300Y284100D02*
D03*
Y258700D02*
D03*
X176700Y284100D02*
D03*
Y258700D02*
D03*
X164000Y271400D02*
D03*
X151300Y356100D02*
D03*
Y330700D02*
D03*
X176700Y356100D02*
D03*
Y330700D02*
D03*
X164000Y343400D02*
D03*
X151300Y501100D02*
D03*
Y475700D02*
D03*
X176700Y501100D02*
D03*
Y475700D02*
D03*
X164000Y488400D02*
D03*
X18300Y501100D02*
D03*
Y475700D02*
D03*
X43700Y501100D02*
D03*
Y475700D02*
D03*
X31000Y488400D02*
D03*
X18300Y576100D02*
D03*
Y550700D02*
D03*
X43700Y576100D02*
D03*
Y550700D02*
D03*
X31000Y563400D02*
D03*
X151300Y576100D02*
D03*
Y550700D02*
D03*
X176700Y576100D02*
D03*
Y550700D02*
D03*
X164000Y563400D02*
D03*
X31000Y271400D02*
D03*
X18300Y284100D02*
D03*
Y258700D02*
D03*
X43700Y284100D02*
D03*
Y258700D02*
D03*
X31000Y343400D02*
D03*
X18300Y356100D02*
D03*
Y330700D02*
D03*
X43700Y356100D02*
D03*
Y330700D02*
D03*
D22*
X24250Y653400D02*
D03*
X170750D02*
D03*
Y131900D02*
D03*
X24250D02*
D03*
D23*
X160750Y180900D02*
D03*
X34250D02*
D03*
D24*
X20000Y407500D02*
D03*
X54700Y310000D02*
D03*
X69000Y435500D02*
D03*
X87000Y396500D02*
D03*
X108000D02*
D03*
X137850Y310000D02*
D03*
X175000Y414500D02*
D03*
X127000Y484000D02*
D03*
X68000Y484000D02*
D03*
X69000Y449500D02*
D03*
Y442500D02*
D03*
Y428500D02*
D03*
Y421500D02*
D03*
Y407500D02*
D03*
X73000Y396500D02*
D03*
X80000D02*
D03*
X94000D02*
D03*
X115000D02*
D03*
X126000Y407500D02*
D03*
Y414500D02*
D03*
Y449500D02*
D03*
Y442500D02*
D03*
Y435500D02*
D03*
Y428500D02*
D03*
X22500Y23000D02*
D03*
X25500Y84500D02*
D03*
X28500Y11500D02*
D03*
X31500Y72500D02*
D03*
X34500Y23000D02*
D03*
X37500Y84500D02*
D03*
X40500Y11500D02*
D03*
X43500Y72500D02*
D03*
X46500Y23000D02*
D03*
X49500Y84500D02*
D03*
X52500Y11500D02*
D03*
X55500Y72500D02*
D03*
X64500Y11500D02*
D03*
X67500Y72500D02*
D03*
X70500Y23000D02*
D03*
X73500Y84500D02*
D03*
X76500Y11500D02*
D03*
X79500Y72500D02*
D03*
X82500Y23000D02*
D03*
X85500Y84500D02*
D03*
X88500Y11500D02*
D03*
X91500Y72500D02*
D03*
X94500Y23000D02*
D03*
X97500Y84500D02*
D03*
D25*
X175000Y414500D02*
Y428500D01*
X165000Y438500D02*
X175000Y428500D01*
X143000Y438500D02*
X165000D01*
X138000Y433500D02*
X143000Y438500D01*
X138000Y333500D02*
Y433500D01*
X129500Y325000D02*
X138000Y333500D01*
X129500Y34000D02*
Y325000D01*
X127000Y31500D02*
X129500Y34000D01*
X97000Y31500D02*
X127000D01*
X94500Y29000D02*
X97000Y31500D01*
X94500Y23000D02*
Y29000D01*
X127000Y484000D02*
X131000Y480000D01*
Y337500D02*
Y480000D01*
X123500Y330000D02*
X131000Y337500D01*
X123500Y40500D02*
Y330000D01*
X121000Y38000D02*
X123500Y40500D01*
X91000Y38000D02*
X121000D01*
X88500Y35500D02*
X91000Y38000D01*
X88500Y11500D02*
Y35500D01*
X87000Y381500D02*
Y396500D01*
Y381500D02*
X117500Y351000D01*
Y122000D02*
Y351000D01*
X91500Y96000D02*
X117500Y122000D01*
X91500Y72500D02*
Y96000D01*
X80000Y382500D02*
Y396500D01*
Y382500D02*
X111500Y351000D01*
Y122000D02*
Y351000D01*
X85500Y96000D02*
X111500Y122000D01*
X85500Y84500D02*
Y96000D01*
X73000Y383500D02*
Y396500D01*
Y383500D02*
X105500Y351000D01*
Y122000D02*
Y351000D01*
X79500Y96000D02*
X105500Y122000D01*
X79500Y72500D02*
Y96000D01*
X65000Y407500D02*
X69000D01*
X62500Y405000D02*
X65000Y407500D01*
X62500Y388000D02*
Y405000D01*
Y388000D02*
X99500Y351000D01*
Y122000D02*
Y351000D01*
X73500Y96000D02*
X99500Y122000D01*
X73500Y84500D02*
Y96000D01*
X61500Y421500D02*
X69000D01*
X59000Y419000D02*
X61500Y421500D01*
X59000Y385500D02*
Y419000D01*
Y385500D02*
X93500Y351000D01*
Y122000D02*
Y351000D01*
X67500Y96000D02*
X93500Y122000D01*
X67500Y72500D02*
Y96000D01*
X57500Y428500D02*
X69000D01*
X55000Y426000D02*
X57500Y428500D01*
X55000Y383500D02*
Y426000D01*
Y383500D02*
X87500Y351000D01*
Y128000D02*
Y351000D01*
X55500Y96000D02*
X87500Y128000D01*
X55500Y72500D02*
Y96000D01*
X53500Y435500D02*
X69000D01*
X51000Y433000D02*
X53500Y435500D01*
X51000Y381500D02*
Y433000D01*
Y381500D02*
X81500Y351000D01*
Y128000D02*
Y351000D01*
X49500Y96000D02*
X81500Y128000D01*
X49500Y84500D02*
Y96000D01*
X49500Y442500D02*
X69000D01*
X47000Y440000D02*
X49500Y442500D01*
X47000Y379500D02*
Y440000D01*
Y379500D02*
X75500Y351000D01*
Y128000D02*
Y351000D01*
X43500Y96000D02*
X75500Y128000D01*
X43500Y72500D02*
Y96000D01*
X45500Y449500D02*
X69000D01*
X43000Y447000D02*
X45500Y449500D01*
X43000Y377500D02*
Y447000D01*
Y377500D02*
X69500Y351000D01*
Y128000D02*
Y351000D01*
X37500Y96000D02*
X69500Y128000D01*
X37500Y84500D02*
Y96000D01*
X20000Y394500D02*
Y407500D01*
Y394500D02*
X63500Y351000D01*
Y128000D02*
Y351000D01*
X31500Y96000D02*
X63500Y128000D01*
X31500Y72500D02*
Y96000D01*
M02*
