G04*
G04 #@! TF.GenerationSoftware,Altium Limited,Altium Designer,26.10.1 (5)*
G04*
G04 Layer_Physical_Order=4*
G04 Layer_Color=6736896*
G04 Board_Origin=0|0*
%FSLAX44Y44*%
%MOMM*%
G71*
G04*
G04 #@! TF.SameCoordinates,5B830D5E-9024-4CFC-AD52-9D7A133CA71A*
G04*
G04*
G04 #@! TF.FilePolarity,Positive*
G04*
G01*
G75*
%ADD21C,1.0000*%
%ADD22C,3.0000*%
%ADD23C,5.0000*%
%ADD24C,0.5000*%
%ADD25C,0.1250*%
D21*
X151300Y284100D02*
D03*
Y258700D02*
D03*
X176700Y284100D02*
D03*
Y258700D02*
D03*
X164000Y271400D02*
D03*
X151300Y356100D02*
D03*
Y330700D02*
D03*
X176700Y356100D02*
D03*
Y330700D02*
D03*
X164000Y343400D02*
D03*
X151300Y501100D02*
D03*
Y475700D02*
D03*
X176700Y501100D02*
D03*
Y475700D02*
D03*
X164000Y488400D02*
D03*
X18300Y501100D02*
D03*
Y475700D02*
D03*
X43700Y501100D02*
D03*
Y475700D02*
D03*
X31000Y488400D02*
D03*
X18300Y576100D02*
D03*
Y550700D02*
D03*
X43700Y576100D02*
D03*
Y550700D02*
D03*
X31000Y563400D02*
D03*
X151300Y576100D02*
D03*
Y550700D02*
D03*
X176700Y576100D02*
D03*
Y550700D02*
D03*
X164000Y563400D02*
D03*
X31000Y271400D02*
D03*
X18300Y284100D02*
D03*
Y258700D02*
D03*
X43700Y284100D02*
D03*
Y258700D02*
D03*
X31000Y343400D02*
D03*
X18300Y356100D02*
D03*
Y330700D02*
D03*
X43700Y356100D02*
D03*
Y330700D02*
D03*
D22*
X24250Y653400D02*
D03*
X170750D02*
D03*
Y131900D02*
D03*
X24250D02*
D03*
D23*
X160750Y180900D02*
D03*
X34250D02*
D03*
D24*
X20000Y407500D02*
D03*
X54700Y310000D02*
D03*
X69000Y435500D02*
D03*
X87000Y396500D02*
D03*
X108000D02*
D03*
X137850Y310000D02*
D03*
X175000Y414500D02*
D03*
X127000Y484000D02*
D03*
X68000Y484000D02*
D03*
X69000Y449500D02*
D03*
Y442500D02*
D03*
Y428500D02*
D03*
Y421500D02*
D03*
Y407500D02*
D03*
X73000Y396500D02*
D03*
X80000D02*
D03*
X94000D02*
D03*
X115000D02*
D03*
X126000Y407500D02*
D03*
Y414500D02*
D03*
Y449500D02*
D03*
Y442500D02*
D03*
Y435500D02*
D03*
Y428500D02*
D03*
X22500Y23000D02*
D03*
X25500Y84500D02*
D03*
X28500Y11500D02*
D03*
X31500Y72500D02*
D03*
X34500Y23000D02*
D03*
X37500Y84500D02*
D03*
X40500Y11500D02*
D03*
X43500Y72500D02*
D03*
X46500Y23000D02*
D03*
X49500Y84500D02*
D03*
X52500Y11500D02*
D03*
X55500Y72500D02*
D03*
X64500Y11500D02*
D03*
X67500Y72500D02*
D03*
X70500Y23000D02*
D03*
X73500Y84500D02*
D03*
X76500Y11500D02*
D03*
X79500Y72500D02*
D03*
X82500Y23000D02*
D03*
X85500Y84500D02*
D03*
X88500Y11500D02*
D03*
X91500Y72500D02*
D03*
X94500Y23000D02*
D03*
X97500Y84500D02*
D03*
D25*
X54700Y310000D02*
X63500Y301200D01*
X129500Y301650D02*
X137850Y310000D01*
X129500Y131000D02*
Y301650D01*
Y131000D02*
X131000Y129500D01*
Y40000D02*
Y129500D01*
X128500Y37500D02*
X131000Y40000D01*
X85000Y37500D02*
X128500D01*
X82500Y35000D02*
X85000Y37500D01*
X82500Y23000D02*
Y35000D01*
X126000Y449500D02*
X146500D01*
X149000Y447000D01*
Y376500D02*
Y447000D01*
X123500Y351000D02*
X149000Y376500D01*
X123500Y131000D02*
Y351000D01*
Y131000D02*
X128000Y126500D01*
Y43000D02*
Y126500D01*
X125500Y40500D02*
X128000Y43000D01*
X79000Y40500D02*
X125500D01*
X76500Y38000D02*
X79000Y40500D01*
X76500Y11500D02*
Y38000D01*
X126000Y442500D02*
X142500D01*
X145000Y440000D01*
Y378500D02*
Y440000D01*
X117500Y351000D02*
X145000Y378500D01*
X117500Y131000D02*
Y351000D01*
Y131000D02*
X125000Y123500D01*
Y46000D02*
Y123500D01*
X122500Y43500D02*
X125000Y46000D01*
X73000Y43500D02*
X122500D01*
X70500Y41000D02*
X73000Y43500D01*
X70500Y23000D02*
Y41000D01*
X126000Y435500D02*
X138500D01*
X141000Y433000D01*
Y380500D02*
Y433000D01*
X111500Y351000D02*
X141000Y380500D01*
X111500Y131000D02*
Y351000D01*
Y131000D02*
X122000Y120500D01*
Y49000D02*
Y120500D01*
X119500Y46500D02*
X122000Y49000D01*
X67000Y46500D02*
X119500D01*
X64500Y44000D02*
X67000Y46500D01*
X64500Y11500D02*
Y44000D01*
X126000Y428500D02*
X134500D01*
X137000Y426000D01*
Y382500D02*
Y426000D01*
X105500Y351000D02*
X137000Y382500D01*
X105500Y131000D02*
Y351000D01*
Y131000D02*
X119000Y117500D01*
Y52000D02*
Y117500D01*
X116500Y49500D02*
X119000Y52000D01*
X55000Y49500D02*
X116500D01*
X52500Y47000D02*
X55000Y49500D01*
X52500Y11500D02*
Y47000D01*
X126000Y414500D02*
X130500D01*
X133000Y412000D01*
Y384500D02*
Y412000D01*
X99500Y351000D02*
X133000Y384500D01*
X99500Y131000D02*
Y351000D01*
Y131000D02*
X116000Y114500D01*
Y55000D02*
Y114500D01*
X113500Y52500D02*
X116000Y55000D01*
X49000Y52500D02*
X113500D01*
X46500Y50000D02*
X49000Y52500D01*
X46500Y23000D02*
Y50000D01*
X126000Y407500D02*
X126800D01*
X129000Y405300D01*
Y386500D02*
Y405300D01*
X93500Y351000D02*
X129000Y386500D01*
X93500Y131000D02*
Y351000D01*
Y131000D02*
X113000Y111500D01*
Y58000D02*
Y111500D01*
X110500Y55500D02*
X113000Y58000D01*
X43000Y55500D02*
X110500D01*
X40500Y53000D02*
X43000Y55500D01*
X40500Y11500D02*
Y53000D01*
X115000Y378500D02*
Y396500D01*
X87500Y351000D02*
X115000Y378500D01*
X87500Y131000D02*
Y351000D01*
Y131000D02*
X110000Y108500D01*
Y61000D02*
Y108500D01*
X107500Y58500D02*
X110000Y61000D01*
X37000Y58500D02*
X107500D01*
X34500Y56000D02*
X37000Y58500D01*
X34500Y23000D02*
Y56000D01*
X108000Y377500D02*
Y396500D01*
X81500Y351000D02*
X108000Y377500D01*
X81500Y131000D02*
Y351000D01*
Y131000D02*
X107000Y105500D01*
Y64000D02*
Y105500D01*
X104500Y61500D02*
X107000Y64000D01*
X31000Y61500D02*
X104500D01*
X28500Y59000D02*
X31000Y61500D01*
X28500Y11500D02*
Y59000D01*
X94000Y369500D02*
Y396500D01*
X75500Y351000D02*
X94000Y369500D01*
X75500Y131000D02*
Y351000D01*
Y131000D02*
X104000Y102500D01*
Y67000D02*
Y102500D01*
X101500Y64500D02*
X104000Y67000D01*
X25000Y64500D02*
X101500D01*
X22500Y62000D02*
X25000Y64500D01*
X22500Y23000D02*
Y62000D01*
X64000Y480000D02*
X68000Y484000D01*
X64000Y356500D02*
Y480000D01*
Y356500D02*
X69500Y351000D01*
Y126000D02*
Y351000D01*
Y126000D02*
X97500Y98000D01*
Y84500D02*
Y98000D01*
X63500Y134000D02*
Y301200D01*
X25500Y96000D02*
X63500Y134000D01*
X25500Y84500D02*
Y96000D01*
M02*
